<?xml version="1.0" standalone="no"?>
<!DOCTYPE svg PUBLIC "-//W3C//DTD SVG 1.1//EN" "http://www.w3.org/Graphics/SVG/1.1/DTD/svg11.dtd" >
<svg xmlns="http://www.w3.org/2000/svg" xmlns:xlink="http://www.w3.org/1999/xlink" version="1.1">
<metadata>
Created by FontForge 20170924 at Mon Jul 16 10:31:53 2007
 By www-data
Copyright (c) The Font Bureau, Inc., 2003. All rights reserved.
</metadata>
<defs>
<font id="Agenda-Light" horiz-adv-x="500" >
  <font-face 
    font-family="Agenda Light"
    font-weight="300"
    font-stretch="normal"
    units-per-em="1000"
    panose-1="2 0 6 3 4 0 0 2 0 4"
    ascent="715"
    descent="-285"
    x-height="453"
    cap-height="638"
    bbox="-80 -233 1002 909"
    underline-thickness="20"
    underline-position="-80"
    stemh="55"
    stemv="64"
    unicode-range="U+0020-FB02"
  />
<missing-glyph horiz-adv-x="1000" 
 />
    <glyph glyph-name="fi" unicode="fi" horiz-adv-x="512" 
d="M453 0h-64v401h-228v-401h-64v401h-80v52h80v70c0 127 76 189 186 189c33 0 62 -4 83 -13l-14 -54c-18 8 -45 13 -66 13c-76 0 -125 -44 -125 -138v-67h292v-453z" />
    <glyph glyph-name="fl" unicode="fl" horiz-adv-x="535" 
d="M510 28l-43 -43c-35 11 -78 41 -78 114v526c-23 18 -62 33 -103 33c-76 0 -125 -44 -125 -138v-67h114v-52h-114v-401h-64v401h-80v52h80v70c0 127 76 189 186 189c76 0 134 -31 170 -63v-543c0 -43 26 -71 57 -78z" />
    <glyph glyph-name="f_f_l" unicode="ffl" horiz-adv-x="827" 
d="M802 28l-43 -43c-35 11 -78 41 -78 114v526c-23 18 -62 33 -103 33c-76 0 -125 -44 -125 -138v-67h114v-52h-114v-401h-64v401h-228v-401h-64v401h-80v52h80v70c0 127 76 189 186 189c66 0 116 -22 154 -50c33 34 81 50 138 50c76 0 133 -31 169 -63v-543
c0 -43 27 -71 58 -78zM407 613c-31 26 -75 45 -121 45c-76 0 -125 -44 -125 -138v-67h228v70c0 35 7 65 18 90z" />
    <glyph glyph-name="f_f_i" unicode="ffi" horiz-adv-x="803" 
d="M744 0h-63v401h-228v-401h-64v401h-228v-401h-64v401h-80v52h80v70c0 127 76 189 186 189c66 0 116 -22 154 -50c33 34 81 50 138 50c33 0 61 -4 82 -13l-13 -54c-18 8 -45 13 -66 13c-76 0 -125 -44 -125 -138v-67h291v-453zM407 613c-31 26 -75 45 -121 45
c-76 0 -125 -44 -125 -138v-67h228v70c0 35 7 65 18 90z" />
    <glyph glyph-name="f_f" unicode="ff" horiz-adv-x="625" 
d="M657 699l-13 -54c-18 8 -45 13 -66 13c-76 0 -125 -44 -125 -138v-67h143l-11 -52h-132v-401h-64v401h-228v-401h-64v401h-80v52h80v70c0 127 76 189 186 189c66 0 116 -22 154 -50c33 34 81 50 138 50c33 0 61 -4 82 -13zM407 613c-31 26 -75 45 -121 45
c-76 0 -125 -44 -125 -138v-67h228v70c0 35 7 65 18 90z" />
    <glyph glyph-name=".notdef" horiz-adv-x="1000" 
 />
    <glyph glyph-name="eth" unicode="&#xf0;" horiz-adv-x="495" 
d="M453 209c0 -144 -98 -220 -211 -220c-117 0 -205 88 -205 206c0 97 64 171 151 201c36 12 89 24 125 28l-60 135l-89 -36l-19 48l87 36l-47 105h67l37 -83l79 33l19 -48l-78 -32l115 -261c14 -32 29 -82 29 -112zM389 208c0 40 -31 115 -55 164c-33 -3 -84 -13 -116 -25
c-77 -28 -118 -80 -118 -152c0 -88 62 -150 141 -150c78 0 148 58 148 163z" />
    <glyph glyph-name="Lslash" unicode="&#x141;" horiz-adv-x="437" 
d="M430 0h-363v254l-53 -31v59l53 31v325h67v-286l167 96v-60l-167 -96v-234h296v-58z" />
    <glyph glyph-name="lslash" unicode="&#x142;" horiz-adv-x="213" 
d="M200 388l-72 -42v-240c0 -43 27 -71 58 -78l-43 -43c-35 11 -78 41 -78 114v210l-53 -30v59l53 31v343h63v-306l72 42v-60z" />
    <glyph glyph-name="Scaron" unicode="&#x160;" horiz-adv-x="468" 
d="M426 173c0 -108 -79 -178 -204 -178c-73 0 -132 23 -167 48l-9 73c46 -37 106 -63 179 -63c78 0 134 46 134 115c0 67 -39 104 -127 136c-112 40 -165 94 -165 181c0 80 59 159 186 159c58 0 108 -19 134 -36l-15 -57c-24 18 -73 37 -121 37c-78 0 -120 -49 -120 -99
c0 -54 36 -89 115 -118c112 -41 180 -92 180 -198zM379 860c-48 -37 -98 -89 -130 -141c-3 -4 -8 -8 -12 -8c-5 0 -11 3 -13 8c-33 52 -83 104 -130 141l45 20c37 -26 71 -53 97 -85c28 32 61 59 97 85z" />
    <glyph glyph-name="scaron" unicode="&#x161;" horiz-adv-x="365" 
d="M328 120c0 -74 -59 -125 -153 -125c-54 0 -95 14 -125 36l-9 69c34 -29 81 -51 135 -51c50 0 89 26 89 70c0 41 -32 65 -83 83c-82 29 -129 67 -129 137c0 72 58 119 138 119c48 0 92 -16 110 -29l-14 -54c-20 15 -53 30 -97 30s-75 -26 -75 -64c0 -40 27 -58 77 -76
c85 -30 136 -70 136 -145zM301 654c-41 -31 -83 -75 -111 -119c-2 -4 -7 -7 -10 -7c-4 0 -9 3 -11 7c-28 44 -70 88 -111 119l39 17c32 -22 60 -45 83 -72c23 27 51 50 82 72z" />
    <glyph glyph-name="Yacute" unicode="&#xdd;" horiz-adv-x="606" 
d="M580 638l-245 -343v-295h-66v295l-243 343h75l137 -194c21 -30 46 -65 66 -97h2c20 31 45 67 66 97l138 194h70zM432 851c0 -5 -5 -12 -11 -19c-39 -45 -87 -84 -140 -117l-41 18c47 37 100 91 134 139c5 8 16 14 22 14c12 0 36 -24 36 -35z" />
    <glyph glyph-name="yacute" unicode="&#xfd;" horiz-adv-x="468" 
d="M442 453l-170 -414c-65 -159 -136 -232 -230 -272l-41 41c90 37 148 97 201 218l-176 427h66l97 -236c14 -35 32 -79 45 -119h2c15 38 35 87 48 119l97 236h61zM349 645c0 -4 -4 -10 -9 -16c-33 -39 -74 -71 -119 -100l-34 16c39 31 84 77 113 118c5 7 14 12 19 12
c10 0 30 -21 30 -30z" />
    <glyph glyph-name="Thorn" unicode="&#xde;" horiz-adv-x="471" 
d="M434 391c0 -109 -90 -173 -183 -173h-115v-218h-67v640h67v-76h111c97 0 187 -64 187 -173zM366 391c0 72 -60 115 -130 115h-100v-230h104c66 0 126 42 126 115z" />
    <glyph glyph-name="thorn" unicode="&#xfe;" horiz-adv-x="527" 
d="M490 227c0 -138 -100 -237 -233 -237c-51 0 -107 20 -130 42v-263h-63v943h63v-301c28 29 74 52 137 52c114 0 226 -88 226 -236zM426 225c0 106 -76 181 -174 181c-57 0 -100 -27 -125 -57v-254c21 -23 66 -50 125 -50c98 0 174 74 174 180z" />
    <glyph glyph-name="Zcaron" unicode="&#x17d;" horiz-adv-x="521" 
d="M479 0h-437v17l219 374c37 63 79 134 113 187l-1 2h-306v58h400v-17l-221 -376c-36 -62 -78 -130 -112 -185l1 -2h344v-58zM405 862c-48 -37 -98 -89 -130 -141c-3 -4 -8 -8 -12 -8c-5 0 -11 3 -13 8c-33 52 -83 104 -130 141l45 20c37 -26 71 -53 97 -85
c28 32 61 59 97 85z" />
    <glyph glyph-name="zcaron" unicode="&#x17e;" horiz-adv-x="423" 
d="M386 0h-349v14l160 256c26 41 55 92 81 130l-1 1h-223v52h315v-14l-161 -257c-26 -42 -54 -87 -81 -129l1 -1h258v-52zM333 654c-40 -31 -83 -75 -111 -119c-2 -4 -6 -7 -10 -7c-3 0 -8 3 -11 7c-27 44 -70 88 -110 119l38 17c32 -22 60 -45 83 -72c23 27 51 50 82 72z
" />
    <glyph glyph-name="onehalf" unicode="&#xbd;" horiz-adv-x="784" 
d="M733 0h-267v13c142 120 202 206 202 264c0 56 -38 85 -96 85c-35 0 -65 -10 -90 -24l-11 39c24 14 60 25 101 25c91 0 142 -50 142 -127c0 -66 -58 -151 -154 -235h173v-40zM612 629l-520 -643l-27 23l521 643zM168 248h-47v354l-80 -6l11 43l116 10v-401z" />
    <glyph glyph-name="onequarter" unicode="&#xbc;" horiz-adv-x="720" 
d="M664 116h-54v-116h-47v116h-175l-11 39l194 242h39v-241h54v-40zM566 331l-2 1c-12 -20 -27 -40 -43 -60l-91 -116h133v117c0 20 1 38 3 58zM612 629l-520 -643l-27 22l521 644zM168 248h-47v354l-80 -6l11 43l116 10v-401z" />
    <glyph glyph-name="onesuperior" unicode="&#xb9;" horiz-adv-x="256" 
d="M168 248h-47v354l-80 -6l11 43l116 10v-401z" />
    <glyph glyph-name="threequarters" unicode="&#xbe;" horiz-adv-x="763" 
d="M717 116h-54v-116h-47v116h-176l-10 39l194 242h39v-241h54v-40zM619 331l-2 1c-13 -20 -27 -40 -43 -60l-91 -116h133v117c0 20 1 38 3 58zM665 629l-520 -643l-28 22l522 644zM273 367c0 -73 -56 -125 -148 -125c-27 0 -56 7 -76 17l-7 47c24 -14 54 -24 82 -24
c54 0 101 32 101 89c0 44 -41 80 -88 80c-5 0 -11 0 -21 -1l-10 38c54 9 88 36 88 67c0 29 -25 54 -66 54c-23 0 -43 -6 -69 -21l-11 40c25 14 52 21 81 21c66 0 112 -38 112 -91c0 -37 -23 -63 -55 -77c48 -14 87 -55 87 -114z" />
    <glyph glyph-name="threesuperior" unicode="&#xb3;" horiz-adv-x="317" 
d="M273 367c0 -73 -56 -125 -148 -125c-27 0 -56 7 -76 17l-7 47c24 -14 54 -24 82 -24c54 0 101 32 101 89c0 44 -41 80 -88 80c-5 0 -11 0 -21 -1l-10 38c54 9 88 36 88 67c0 29 -25 54 -66 54c-23 0 -43 -6 -69 -21l-11 40c25 14 52 21 81 21c66 0 112 -38 112 -91
c0 -37 -23 -63 -55 -77c48 -14 87 -55 87 -114z" />
    <glyph glyph-name="twosuperior" unicode="&#xb2;" horiz-adv-x="356" 
d="M305 247h-268v14c142 120 202 205 202 263c0 56 -37 85 -95 85c-35 0 -65 -10 -90 -24l-11 40c24 14 60 24 101 24c91 0 142 -49 142 -126c0 -66 -59 -152 -155 -236h174v-40z" />
    <glyph glyph-name="brokenbar" unicode="&#xa6;" horiz-adv-x="215" 
d="M135 300h-55v412h55v-412zM135 -231h-55v412h55v-412z" />
    <glyph glyph-name="minus" unicode="&#x2212;" horiz-adv-x="431" 
d="M376 251h-321v47h321v-47z" />
    <glyph glyph-name="multiply" unicode="&#xd7;" horiz-adv-x="476" 
d="M397 146l-31 -31l-126 126l-126 -127l-32 32l126 126l-125 126l31 32l126 -126l125 124l31 -31l-124 -125z" />
    <glyph glyph-name="space" unicode=" " horiz-adv-x="238" 
 />
    <glyph glyph-name="space" unicode="&#xa0;" horiz-adv-x="238" 
 />
    <glyph glyph-name="exclam" unicode="!" horiz-adv-x="243" 
d="M163 638l-11 -474l-53 14l-11 460h75zM176 39c0 -16 -33 -49 -49 -49s-49 33 -49 49c0 15 33 49 49 49s49 -34 49 -49z" />
    <glyph glyph-name="quotedbl" unicode="&#x22;" horiz-adv-x="277" 
d="M240 638l-13 -205h-36l-13 205h62zM99 638l-15 -205h-36l-12 205h63z" />
    <glyph glyph-name="numbersign" unicode="#" horiz-adv-x="385" 
d="M378 385h-68l-31 -132h69v-42h-79l-49 -211h-47l48 211h-107l-49 -211h-48l49 211h-59v42h69l31 132h-70v42h80l48 211h48l-49 -211h108l49 211h47l-48 -211h58v-42zM262 385h-108l-30 -132h107z" />
    <glyph glyph-name="dollar" unicode="$" horiz-adv-x="450" 
d="M408 168c0 -105 -73 -167 -169 -177v-88h-42v86c-58 2 -110 18 -155 51l15 58c36 -28 87 -53 151 -53c87 0 137 53 137 118c0 63 -41 108 -129 140c-109 39 -171 98 -171 183s60 150 152 162v89h42v-88c49 -2 92 -14 130 -37l-13 -55c-32 20 -77 37 -128 37
c-82 0 -121 -54 -121 -103c0 -55 39 -93 120 -123c114 -43 181 -103 181 -200z" />
    <glyph glyph-name="percent" unicode="%" horiz-adv-x="700" 
d="M658 125c0 -80 -57 -136 -134 -136s-135 56 -135 136c0 79 58 135 135 135s134 -56 134 -135zM605 125c0 53 -37 84 -81 84s-82 -31 -82 -84s38 -87 82 -87s81 34 81 87zM625 630l-524 -649l-32 28l524 648zM306 514c0 -80 -57 -135 -134 -135s-135 55 -135 135
c0 79 58 135 135 135s134 -56 134 -135zM253 514c0 53 -37 85 -81 85s-82 -32 -82 -85s38 -86 82 -86s81 33 81 86z" />
    <glyph glyph-name="ampersand" unicode="&#x26;" horiz-adv-x="604" 
d="M597 0h-85l-72 72c-56 -53 -125 -83 -206 -83c-117 0 -192 78 -192 167c0 86 49 139 129 185c-59 60 -87 106 -87 158c0 92 75 150 155 150c84 0 162 -56 162 -149c0 -65 -40 -118 -132 -171l169 -170c31 41 55 92 72 148l43 -44c-18 -56 -43 -106 -73 -146zM340 499
c0 52 -40 96 -101 96c-55 0 -94 -43 -94 -93c0 -43 28 -77 82 -131c81 45 113 84 113 128zM398 114l-185 185c-62 -34 -107 -75 -107 -140c0 -63 55 -114 131 -114c60 0 115 26 161 69z" />
    <glyph glyph-name="quotesingle" unicode="'" horiz-adv-x="135" 
d="M99 638l-15 -205h-36l-12 205h63z" />
    <glyph glyph-name="parenleft" unicode="(" horiz-adv-x="226" 
d="M219 695c-67 -124 -115 -286 -115 -455c0 -176 38 -316 111 -464l-68 16c-62 123 -105 251 -105 447c0 191 43 339 113 470z" />
    <glyph glyph-name="parenright" unicode=")" horiz-adv-x="226" 
d="M184 246c0 -191 -43 -338 -114 -470l-63 14c67 124 115 287 115 455c0 177 -39 316 -111 465l68 -17c62 -123 105 -251 105 -447z" />
    <glyph glyph-name="asterisk" unicode="*" horiz-adv-x="408" 
d="M394 526l-153 -41l92 -117l-40 -45l-90 133l-80 -123l-54 25l97 126l-141 38l7 58l147 -53l-5 145l59 14l-7 -159l137 52z" />
    <glyph glyph-name="plus" unicode="+" horiz-adv-x="462" 
d="M418 250h-157v-149h-60v149h-157v54h157v149h60v-149h157v-54z" />
    <glyph glyph-name="comma" unicode="," horiz-adv-x="186" 
d="M142 39c0 -46 -38 -118 -72 -154l-25 4c25 32 43 78 43 109c-18 3 -44 28 -44 41c0 17 34 49 49 49c14 0 49 -31 49 -49z" />
    <glyph glyph-name="hyphen" unicode="-" horiz-adv-x="338" 
d="M294 250h-250v54h250v-54z" />
    <glyph glyph-name="hyphen" unicode="&#xad;" horiz-adv-x="338" 
d="M294 250h-250v54h250v-54z" />
    <glyph glyph-name="period" unicode="." horiz-adv-x="186" 
d="M142 39c0 -16 -33 -49 -49 -49s-49 33 -49 49c0 15 33 49 49 49s49 -34 49 -49z" />
    <glyph glyph-name="slash" unicode="/" horiz-adv-x="459" 
d="M413 639l-407 -798l-48 25l407 798z" />
    <glyph glyph-name="zero" unicode="0" horiz-adv-x="504" 
d="M462 320c0 -216 -97 -330 -210 -330c-114 0 -210 113 -210 330c0 215 96 329 210 329c113 0 210 -115 210 -329zM398 320c0 185 -70 272 -146 272c-77 0 -146 -88 -146 -272c0 -186 69 -274 146 -274c76 0 146 88 146 274z" />
    <glyph glyph-name="one" unicode="1" horiz-adv-x="255" 
d="M186 0h-64v586l-115 -12l14 55l165 15v-644z" />
    <glyph glyph-name="two" unicode="2" horiz-adv-x="450" 
d="M408 0h-371v15c178 193 276 344 276 445c0 91 -54 133 -125 133c-45 0 -91 -15 -124 -36l-15 55c35 23 83 37 139 37c110 0 189 -66 189 -191c0 -115 -95 -252 -236 -403h267v-55z" />
    <glyph glyph-name="three" unicode="3" horiz-adv-x="434" 
d="M392 191c0 -116 -83 -200 -223 -200c-41 0 -86 11 -117 27l-8 64c34 -21 81 -35 122 -35c87 0 162 54 162 150c0 75 -62 137 -140 137c-9 0 -20 -1 -30 -2l-14 53c80 14 134 59 134 115c0 51 -39 93 -105 93c-38 0 -71 -10 -104 -31l-14 54c34 20 74 32 120 32
c99 0 167 -61 167 -143c0 -68 -47 -116 -102 -130c78 -9 152 -77 152 -184z" />
    <glyph glyph-name="four" unicode="4" horiz-adv-x="470" 
d="M428 183h-71v-183h-64v183h-274l-12 51l307 404h43v-403h71v-52zM294 527l-2 1c-23 -36 -48 -68 -71 -99l-147 -194h219v195c0 33 0 62 1 97z" />
    <glyph glyph-name="five" unicode="5" horiz-adv-x="454" 
d="M412 191c0 -110 -78 -201 -215 -201c-51 0 -99 14 -126 30l-8 65c39 -26 84 -39 131 -39c85 0 154 57 154 145s-68 148 -152 148c-45 0 -84 -8 -114 -20l10 319h269l-14 -55h-194l-6 -196c11 3 31 8 54 8c117 0 211 -80 211 -204z" />
    <glyph glyph-name="six" unicode="6" horiz-adv-x="490" 
d="M453 191c0 -115 -85 -201 -203 -201c-113 0 -208 81 -208 222c0 171 125 351 292 441l64 -28c-128 -68 -227 -169 -269 -292c27 34 66 60 123 60c119 0 201 -85 201 -202zM389 188c0 86 -59 147 -141 147c-66 0 -123 -35 -140 -109c-1 -9 -1 -19 -1 -28
c0 -89 66 -155 144 -155s138 60 138 145z" />
    <glyph glyph-name="seven" unicode="7" horiz-adv-x="449" 
d="M423 638l-273 -638h-68l250 583h-325v55h416z" />
    <glyph glyph-name="eight" unicode="8" horiz-adv-x="498" 
d="M456 173c0 -115 -94 -184 -207 -184s-207 69 -207 184c0 96 77 156 142 176c-59 21 -114 72 -114 145c0 94 80 155 179 155s178 -62 178 -155c0 -71 -55 -125 -113 -144c63 -18 142 -81 142 -177zM366 493c0 60 -52 102 -117 102c-63 0 -116 -42 -116 -102
c0 -53 46 -98 119 -118c71 21 114 65 114 118zM392 175c0 72 -70 124 -148 144c-73 -19 -142 -70 -142 -144c0 -79 69 -130 145 -130c78 0 145 51 145 130z" />
    <glyph glyph-name="nine" unicode="9" horiz-adv-x="490" 
d="M448 428c0 -171 -124 -352 -291 -442l-64 28c128 69 227 169 269 291c-27 -34 -67 -59 -124 -59c-119 0 -201 86 -201 203c0 115 85 200 203 200c113 0 208 -80 208 -221zM384 438c0 89 -67 154 -145 154s-138 -59 -138 -144c0 -86 59 -147 141 -147c67 0 124 35 141 110
c1 9 1 18 1 27z" />
    <glyph glyph-name="colon" unicode=":" horiz-adv-x="186" 
d="M142 414c0 -15 -33 -48 -49 -48s-49 33 -49 48c0 16 33 49 49 49s49 -33 49 -49zM142 39c0 -16 -33 -49 -49 -49s-49 33 -49 49c0 15 33 49 49 49s49 -34 49 -49z" />
    <glyph glyph-name="semicolon" unicode=";" horiz-adv-x="186" 
d="M142 414c0 -15 -33 -48 -49 -48s-49 33 -49 48c0 16 33 49 49 49s49 -33 49 -49zM142 39c0 -46 -38 -118 -72 -154l-25 4c25 32 43 78 43 109c-18 3 -44 28 -44 41c0 17 34 49 49 49c14 0 49 -31 49 -49z" />
    <glyph glyph-name="less" unicode="&#x3c;" horiz-adv-x="462" 
d="M418 118l-374 122v75l374 122v-58l-322 -102l322 -102v-57z" />
    <glyph glyph-name="equal" unicode="=" horiz-adv-x="462" 
d="M418 336h-374v54h374v-54zM418 164h-374v54h374v-54z" />
    <glyph glyph-name="greater" unicode="&#x3e;" horiz-adv-x="462" 
d="M418 240l-374 -122v57l322 102l-322 102v58l374 -122v-75z" />
    <glyph glyph-name="question" unicode="?" horiz-adv-x="374" 
d="M333 495c0 -61 -36 -103 -86 -156c-34 -36 -49 -70 -49 -111c0 -18 2 -45 6 -64l-58 14c-4 17 -7 36 -7 55c0 58 23 109 61 147c37 37 66 71 66 120c0 48 -39 92 -100 92c-45 0 -83 -15 -113 -35l-14 57c30 20 74 35 127 35c96 0 167 -58 167 -154zM226 39
c0 -16 -32 -49 -49 -49c-16 0 -49 33 -49 49c0 15 33 49 49 49c17 0 49 -34 49 -49z" />
    <glyph glyph-name="at" unicode="@" horiz-adv-x="757" 
d="M715 330c0 -93 -58 -195 -162 -195c-37 0 -74 21 -80 63c-18 -43 -62 -63 -107 -63c-68 0 -115 46 -115 104c0 69 58 104 117 109l88 8v29c0 39 -28 64 -79 64c-35 0 -69 -12 -94 -28l-13 47c27 17 67 30 110 30c76 0 133 -42 133 -117v-155c0 -33 20 -46 41 -46
c62 0 110 60 110 150c0 162 -134 271 -283 271c-151 0 -287 -109 -287 -281c0 -171 132 -281 276 -281c35 0 70 4 96 13l-6 -47c-20 -8 -52 -12 -92 -12c-173 0 -326 130 -326 328c0 197 159 328 338 328s335 -127 335 -319zM456 267v42l-77 -8c-40 -4 -73 -21 -73 -62
c0 -32 26 -56 64 -56c42 0 86 31 86 84z" />
    <glyph glyph-name="A" unicode="A" horiz-adv-x="601" 
d="M575 0h-68l-73 179h-269l-72 -179h-67l262 647h25zM411 234l-76 196c-11 29 -24 64 -34 98h-2c-10 -34 -23 -69 -34 -98l-77 -196h223z" />
    <glyph glyph-name="B" unicode="B" horiz-adv-x="505" 
d="M463 190c0 -120 -98 -190 -201 -190h-193v638h157c89 0 171 -59 171 -158c0 -51 -27 -101 -70 -119c72 -15 136 -86 136 -171zM330 480c0 66 -51 102 -114 102h-83v-203h86c60 0 111 36 111 101zM396 190c0 84 -69 134 -151 134h-112v-268h117c78 0 146 49 146 134z" />
    <glyph glyph-name="C" unicode="C" horiz-adv-x="604" 
d="M562 602l-14 -60c-34 21 -99 42 -166 42c-142 0 -272 -100 -272 -266c0 -165 128 -266 272 -266c73 0 128 15 170 40l-7 -63c-38 -22 -91 -35 -169 -35c-170 0 -334 123 -334 325c0 203 165 325 334 325c80 0 145 -19 186 -42z" />
    <glyph glyph-name="D" unicode="D" horiz-adv-x="632" 
d="M590 319c0 -203 -161 -319 -354 -319h-167v638h167c193 0 354 -116 354 -319zM521 318c0 170 -126 262 -295 262h-89v-523h89c169 0 295 91 295 261z" />
    <glyph glyph-name="E" unicode="E" horiz-adv-x="444" 
d="M437 0h-368v638h333v-58h-266v-230h218v-58h-218v-234h301v-58z" />
    <glyph glyph-name="F" unicode="F" horiz-adv-x="415" 
d="M408 580h-272v-230h232v-58h-232v-292h-67v638h339v-58z" />
    <glyph glyph-name="G" unicode="G" horiz-adv-x="676" 
d="M617 58c-60 -46 -136 -69 -233 -69c-178 0 -342 126 -342 330c0 207 167 330 338 330c83 0 153 -19 201 -49l-14 -60c-46 29 -112 49 -180 49c-145 0 -277 -103 -277 -272c0 -168 131 -270 278 -270c72 0 128 17 165 42v166h-169v55h233v-252z" />
    <glyph glyph-name="H" unicode="H" horiz-adv-x="638" 
d="M569 0h-67v292h-366v-292h-67v638h67v-288h366v288h67v-638z" />
    <glyph glyph-name="I" unicode="I" horiz-adv-x="225" 
d="M146 0h-67v638h67v-638z" />
    <glyph glyph-name="J" unicode="J" horiz-adv-x="225" 
d="M146 129c0 -153 -88 -234 -182 -253l-44 45c102 21 159 89 159 215v502h67v-509z" />
    <glyph glyph-name="K" unicode="K" horiz-adv-x="518" 
d="M505 0h-88l-280 306h-1v-306h-67v638h67v-307h1l277 307h77l-284 -313z" />
    <glyph glyph-name="L" unicode="L" horiz-adv-x="440" 
d="M433 0h-364v638h67v-580h297v-58z" />
    <glyph glyph-name="M" unicode="M" horiz-adv-x="805" 
d="M756 0h-65l-26 331c-4 54 -9 112 -11 166h-2c-22 -53 -54 -118 -79 -170l-161 -331h-25l-161 331c-24 49 -54 113 -78 169h-2c-2 -54 -6 -117 -10 -165l-26 -331h-61l51 638h44l175 -357c27 -55 58 -120 83 -179h2c24 58 53 119 82 179l174 357h43z" />
    <glyph glyph-name="N" unicode="N" horiz-adv-x="692" 
d="M623 -10h-20l-312 355c-52 59 -111 130 -155 184l-2 -1c2 -59 2 -118 2 -176v-352h-67v638h47l296 -338c43 -49 102 -118 144 -171l2 1c-2 57 -2 114 -2 168v340h67v-648z" />
    <glyph glyph-name="O" unicode="O" horiz-adv-x="752" 
d="M710 320c0 -198 -158 -331 -334 -331s-334 133 -334 331c0 197 158 329 334 329s334 -132 334 -329zM642 318c0 164 -127 271 -266 271c-140 0 -266 -107 -266 -271s126 -271 266 -271c139 0 266 107 266 271z" />
    <glyph glyph-name="P" unicode="P" horiz-adv-x="479" 
d="M442 465c0 -109 -89 -173 -185 -173h-121v-292h-67v638h186c97 0 187 -64 187 -173zM374 464c0 72 -60 115 -130 115h-108v-230h110c69 0 128 42 128 115z" />
    <glyph glyph-name="Q" unicode="Q" horiz-adv-x="752" 
d="M749 -54l-45 -63c-11 -3 -28 -7 -47 -7c-68 0 -116 16 -189 55c-50 26 -94 47 -124 60c-164 15 -302 143 -302 329c0 197 158 329 334 329s334 -132 334 -329c0 -170 -121 -301 -273 -316v-2c21 -4 47 -12 77 -27c65 -32 109 -45 155 -45c30 0 55 5 80 16zM642 318
c0 164 -127 271 -266 271c-140 0 -266 -107 -266 -271s126 -271 266 -271c139 0 266 107 266 271z" />
    <glyph glyph-name="R" unicode="R" horiz-adv-x="505" 
d="M531 0h-83l-212 292h-100v-292h-67v638h176c97 0 187 -64 187 -173c0 -83 -53 -143 -125 -163zM364 464c0 72 -60 115 -130 115h-98v-230h100c69 0 128 42 128 115z" />
    <glyph glyph-name="S" unicode="S" horiz-adv-x="468" 
d="M426 173c0 -108 -79 -178 -204 -178c-73 0 -132 23 -167 48l-9 73c46 -37 106 -63 179 -63c78 0 134 46 134 115c0 67 -39 104 -127 136c-112 40 -165 94 -165 181c0 80 59 159 186 159c58 0 108 -19 134 -36l-15 -57c-24 18 -73 37 -121 37c-78 0 -120 -49 -120 -99
c0 -54 36 -89 115 -118c112 -41 180 -92 180 -198z" />
    <glyph glyph-name="T" unicode="T" horiz-adv-x="520" 
d="M513 580h-220v-580h-67v580h-219v58h506v-58z" />
    <glyph glyph-name="U" unicode="U" horiz-adv-x="636" 
d="M567 221c0 -145 -101 -232 -249 -232s-249 87 -249 232v417h67v-411c0 -111 68 -178 183 -178s183 67 183 178v411h65v-417z" />
    <glyph glyph-name="V" unicode="V" horiz-adv-x="584" 
d="M558 638l-255 -649h-22l-255 649h71l135 -344c20 -52 44 -117 62 -173h2c18 56 42 119 63 173l135 344h64z" />
    <glyph glyph-name="W" unicode="W" horiz-adv-x="924" 
d="M898 638l-226 -649h-23l-126 369c-20 57 -39 115 -60 186h-2c-20 -70 -40 -128 -60 -186l-127 -369h-23l-225 649h68l116 -337c18 -52 40 -112 55 -169h2c16 57 36 116 54 169l115 337h59l115 -337c18 -54 38 -114 53 -169h2c15 54 36 115 54 168l117 338h62z" />
    <glyph glyph-name="X" unicode="X" horiz-adv-x="577" 
d="M535 0h-77l-115 184c-18 29 -38 60 -55 92h-2c-17 -32 -38 -66 -55 -92l-117 -184h-72l206 325l-196 313h77l109 -174c16 -26 36 -60 51 -87h2c15 27 35 61 51 87l111 174h72l-196 -309z" />
    <glyph glyph-name="Y" unicode="Y" horiz-adv-x="606" 
d="M580 638l-245 -343v-295h-66v295l-243 343h75l137 -194c21 -30 46 -65 66 -97h2c20 31 45 67 66 97l138 194h70z" />
    <glyph glyph-name="Z" unicode="Z" horiz-adv-x="521" 
d="M479 0h-437v17l219 374c37 63 79 134 113 187l-1 2h-306v58h400v-17l-221 -376c-36 -62 -78 -130 -112 -185l1 -2h344v-58z" />
    <glyph glyph-name="bracketleft" unicode="[" horiz-adv-x="273" 
d="M266 -218h-197v918h197v-54h-134v-810h134v-54z" />
    <glyph glyph-name="backslash" unicode="\" horiz-adv-x="459" 
d="M501 -134l-48 -25l-407 798l48 25z" />
    <glyph glyph-name="bracketright" unicode="]" horiz-adv-x="273" 
d="M204 -218h-197v54h134v810h-134v54h197v-918z" />
    <glyph glyph-name="asciicircum" unicode="^" 
d="M405 534l-43 -19c-40 26 -82 57 -115 90c-33 -33 -72 -64 -112 -90l-40 18c45 35 99 90 132 138c6 8 17 15 23 15s17 -7 23 -15c33 -48 87 -102 132 -137z" />
    <glyph glyph-name="underscore" unicode="_" 
d="M502 -231h-503v55h503v-55z" />
    <glyph glyph-name="grave" unicode="`" 
d="M290 534l-44 -19c-52 33 -99 70 -139 115c-5 7 -10 14 -10 20c0 11 25 36 37 36c6 0 17 -6 23 -15c34 -48 88 -101 133 -137z" />
    <glyph glyph-name="a" unicode="a" horiz-adv-x="437" 
d="M423 31l-41 -41c-31 7 -67 34 -71 80c-17 -52 -71 -80 -129 -80c-87 0 -145 59 -145 133c0 88 70 134 147 141l119 11v43c0 56 -39 90 -107 90c-45 0 -91 -14 -120 -34l-13 53c35 24 82 36 136 36c97 0 168 -54 168 -151v-207c0 -45 27 -69 56 -74zM303 161v61l-107 -10
c-63 -6 -98 -40 -98 -89c0 -45 37 -79 89 -79c58 0 116 44 116 117z" />
    <glyph glyph-name="b" unicode="b" horiz-adv-x="529" 
d="M492 228c0 -138 -97 -238 -244 -238c-77 0 -147 27 -184 53v669h63v-293c22 23 77 44 134 44c133 0 231 -99 231 -235zM428 227c0 103 -74 179 -172 179c-64 0 -109 -29 -129 -50v-281c23 -14 70 -30 115 -30c112 0 186 75 186 182z" />
    <glyph glyph-name="c" unicode="c" horiz-adv-x="453" 
d="M416 424l-13 -59c-35 24 -79 37 -124 37c-100 0 -178 -73 -178 -177c0 -103 79 -176 180 -176c47 0 84 8 123 30l-8 -61c-31 -16 -74 -24 -120 -24c-129 0 -239 91 -239 232s109 233 239 233c57 0 105 -15 140 -35z" />
    <glyph glyph-name="d" unicode="d" horiz-adv-x="531" 
d="M467 0h-61v50h-1c-22 -30 -70 -60 -142 -60c-114 0 -226 88 -226 236c0 138 99 237 232 237c58 0 112 -23 134 -47v296h64v-712zM403 105v248c-22 24 -66 53 -128 53c-98 0 -174 -75 -174 -181s76 -180 174 -180c60 0 105 30 128 60z" />
    <glyph glyph-name="e" unicode="e" horiz-adv-x="486" 
d="M449 288c0 -11 0 -22 -2 -31l-38 -37h-306c-3 -84 65 -174 180 -174c56 0 99 16 132 38l-8 -63c-31 -19 -72 -31 -131 -31c-130 0 -239 97 -239 236c0 146 111 237 219 237c124 0 193 -87 193 -175zM385 287c0 58 -44 121 -126 121c-75 0 -141 -65 -152 -136h277
c1 4 1 10 1 15z" />
    <glyph glyph-name="f" unicode="f" horiz-adv-x="333" 
d="M366 699l-14 -54c-18 8 -45 13 -66 13c-76 0 -125 -44 -125 -138v-67h153l-13 -52h-140v-401h-64v401h-80v52h80v70c0 127 76 189 186 189c33 0 62 -4 83 -13z" />
    <glyph glyph-name="g" unicode="g" horiz-adv-x="459" 
d="M431 -87c0 -81 -81 -144 -199 -144c-120 0 -201 67 -201 156c0 82 53 129 103 138l-46 46c0 35 21 66 67 74c-47 17 -90 63 -90 130c0 87 69 150 166 150c24 0 43 -3 58 -8c17 -5 36 -8 59 -8c25 0 52 7 69 17l13 -52c-14 -9 -48 -17 -71 -14c19 -16 37 -47 37 -85
c0 -81 -63 -151 -165 -151c-50 0 -76 -13 -76 -35c0 -12 13 -24 33 -31l122 -41c77 -26 121 -67 121 -142zM337 313c0 54 -46 98 -106 98c-62 0 -108 -44 -108 -98c0 -55 46 -98 108 -98c58 0 106 43 106 98zM371 -86c0 42 -31 71 -81 87l-100 31c-57 0 -100 -47 -100 -106
c0 -53 51 -103 141 -103c89 0 140 47 140 91z" />
    <glyph glyph-name="h" unicode="h" horiz-adv-x="503" 
d="M444 0h-63v299c0 63 -45 109 -125 109c-79 0 -129 -46 -129 -109v-299h-63v712h63v-320h1c16 38 63 71 143 71c100 0 173 -59 173 -158v-305z" />
    <glyph glyph-name="i" unicode="i" horiz-adv-x="206" 
d="M147 587c0 -14 -29 -44 -44 -44c-14 0 -44 30 -44 44c0 15 30 44 44 44c15 0 44 -29 44 -44zM135 0h-64v453h64v-453z" />
    <glyph glyph-name="j" unicode="j" horiz-adv-x="206" 
d="M147 587c0 -14 -29 -44 -44 -44c-14 0 -44 30 -44 44c0 15 30 44 44 44c15 0 44 -29 44 -44zM135 -52c0 -95 -56 -162 -122 -178l-41 40c63 15 99 61 99 143v500h64v-505z" />
    <glyph glyph-name="k" unicode="k" horiz-adv-x="431" 
d="M424 0h-83l-213 220h-1v-220h-63v712h63v-475h1l209 216h76l-213 -222z" />
    <glyph glyph-name="l" unicode="l" horiz-adv-x="210" 
d="M185 28l-43 -43c-35 11 -78 41 -78 114v613h63v-606c0 -43 27 -71 58 -78z" />
    <glyph glyph-name="m" unicode="m" horiz-adv-x="765" 
d="M706 0h-63v307c0 59 -32 101 -112 101c-78 0 -117 -42 -117 -101v-307h-63v307c0 59 -31 101 -111 101c-78 0 -118 -42 -118 -101v-307h-63v453h59v-61h1c14 38 56 71 136 71c61 0 116 -25 138 -77c17 43 73 77 147 77c99 0 166 -56 166 -151v-312z" />
    <glyph glyph-name="n" unicode="n" horiz-adv-x="498" 
d="M439 0h-63v299c0 63 -45 109 -125 109c-79 0 -129 -46 -129 -109v-299h-63v453h59v-68h1c15 42 61 78 147 78c99 0 173 -59 173 -158v-305z" />
    <glyph glyph-name="o" unicode="o" horiz-adv-x="551" 
d="M514 226c0 -138 -103 -236 -238 -236s-239 98 -239 236s104 237 239 237s238 -99 238 -237zM450 225c0 106 -77 181 -174 181s-175 -75 -175 -181s78 -180 175 -180s174 74 174 180z" />
    <glyph glyph-name="p" unicode="p" horiz-adv-x="526" 
d="M489 227c0 -138 -100 -237 -233 -237c-58 0 -112 23 -134 47v-268h-63v684h60v-50h1c22 30 71 60 143 60c114 0 226 -88 226 -236zM425 225c0 106 -76 181 -174 181c-60 0 -106 -31 -129 -61v-247c22 -24 67 -53 129 -53c98 0 174 74 174 180z" />
    <glyph glyph-name="q" unicode="q" horiz-adv-x="524" 
d="M465 -231h-64v265c-21 -23 -72 -44 -130 -44c-132 0 -234 99 -234 235c0 138 98 238 240 238c69 0 114 -22 140 -38l29 34h19v-690zM401 95v272c-20 17 -73 39 -118 39c-106 0 -182 -75 -182 -183c0 -103 78 -178 176 -178c64 0 105 29 124 50z" />
    <glyph glyph-name="r" unicode="r" horiz-adv-x="316" 
d="M306 453l-15 -65c-8 2 -22 4 -35 4c-70 0 -134 -45 -134 -161v-231h-63v453h63v-103h1c14 64 66 109 140 109c12 0 32 -2 43 -6z" />
    <glyph glyph-name="s" unicode="s" horiz-adv-x="365" 
d="M328 120c0 -74 -59 -125 -153 -125c-54 0 -95 14 -125 36l-9 69c34 -29 81 -51 135 -51c50 0 89 26 89 70c0 41 -32 65 -83 83c-82 29 -129 67 -129 137c0 72 58 119 138 119c48 0 92 -16 110 -29l-14 -54c-20 15 -53 30 -97 30s-75 -26 -75 -64c0 -40 27 -58 77 -76
c85 -30 136 -70 136 -145z" />
    <glyph glyph-name="t" unicode="t" horiz-adv-x="350" 
d="M335 453l-12 -52h-154v-280c0 -53 29 -73 73 -73c18 0 34 3 46 9l-7 -52c-12 -7 -31 -9 -50 -9c-69 0 -124 41 -124 120v285h-90v52h90v98l62 33v-131h166z" />
    <glyph glyph-name="u" unicode="u" horiz-adv-x="498" 
d="M439 0h-59v68h-1c-15 -42 -61 -78 -147 -78c-99 0 -173 59 -173 158v305h63v-299c0 -63 45 -109 125 -109c79 0 129 46 129 109v299h63v-453z" />
    <glyph glyph-name="v" unicode="v" horiz-adv-x="460" 
d="M434 453l-192 -463h-25l-191 463h64l99 -238c15 -35 30 -77 43 -116h2c13 39 28 81 43 117l97 237h60z" />
    <glyph glyph-name="w" unicode="w" horiz-adv-x="704" 
d="M678 453l-169 -463h-23l-91 248c-14 39 -29 84 -42 128h-2c-13 -44 -28 -90 -42 -127l-91 -249h-23l-169 463h61l83 -230c13 -36 28 -82 37 -117h2c10 35 24 81 37 117l83 230h48l84 -230c14 -37 26 -78 37 -117h2c12 39 24 82 37 117l83 230h58z" />
    <glyph glyph-name="x" unicode="x" horiz-adv-x="438" 
d="M401 0h-69l-76 120c-12 19 -24 40 -35 61h-2c-11 -21 -27 -43 -38 -61l-76 -120h-68l147 231l-139 222h68l71 -114c12 -19 24 -38 34 -57h2c10 18 21 38 33 57l72 114h68l-139 -220z" />
    <glyph glyph-name="y" unicode="y" horiz-adv-x="468" 
d="M442 453l-170 -414c-65 -159 -136 -232 -230 -272l-41 41c90 37 148 97 201 218l-176 427h66l97 -236c14 -35 32 -79 45 -119h2c15 38 35 87 48 119l97 236h61z" />
    <glyph glyph-name="z" unicode="z" horiz-adv-x="423" 
d="M386 0h-349v14l160 256c25 41 55 92 81 130l-1 1h-223v52h315v-14l-161 -257c-26 -42 -54 -87 -81 -129l1 -1h258v-52z" />
    <glyph glyph-name="braceleft" unicode="{" horiz-adv-x="300" 
d="M293 -169l-14 -50c-134 0 -181 109 -181 247c0 94 -23 170 -91 212c68 43 91 119 91 213c0 137 47 246 181 246l14 -50c-99 0 -132 -79 -132 -199c0 -91 -23 -160 -79 -210c56 -49 79 -119 79 -210c0 -120 33 -199 132 -199z" />
    <glyph glyph-name="bar" unicode="|" horiz-adv-x="194" 
d="M125 -231h-56v943h56v-943z" />
    <glyph glyph-name="braceright" unicode="}" horiz-adv-x="300" 
d="M293 240c-68 -42 -91 -118 -91 -212c0 -138 -47 -247 -181 -247l-14 50c99 0 132 79 132 199c0 91 23 161 79 210c-56 50 -79 119 -79 210c0 120 -33 199 -132 199l14 50c134 0 181 -109 181 -246c0 -94 23 -170 91 -213z" />
    <glyph glyph-name="asciitilde" unicode="~" horiz-adv-x="358" 
d="M314 320c-23 -39 -65 -93 -88 -93c-25 0 -72 40 -88 40c-17 0 -45 -37 -57 -53l-37 17c23 39 66 93 89 93c25 0 72 -41 87 -41c17 0 45 37 57 53z" />
    <glyph glyph-name="Adieresis" unicode="&#xc4;" horiz-adv-x="601" 
d="M575 0h-68l-73 179h-269l-72 -179h-67l262 647h25zM411 234l-76 196c-11 29 -24 64 -34 98h-2c-10 -34 -23 -69 -34 -98l-77 -196h223zM416 763c0 -13 -28 -42 -42 -42s-42 29 -42 42c0 14 28 42 42 42s42 -28 42 -42zM268 763c0 -13 -28 -42 -42 -42
c-13 0 -42 29 -42 42c0 14 29 42 42 42c14 0 42 -28 42 -42z" />
    <glyph glyph-name="Aring" unicode="&#xc5;" horiz-adv-x="601" 
d="M575 0h-68l-73 179h-269l-72 -179h-67l262 647h25zM411 234l-76 196c-11 29 -24 64 -34 98h-2c-10 -34 -23 -69 -34 -98l-77 -196h223zM403 808c0 -56 -46 -102 -102 -102s-102 46 -102 102c0 55 46 101 102 101s102 -46 102 -101zM356 808c0 33 -23 58 -55 58
s-56 -25 -56 -58s24 -58 56 -58s55 25 55 58z" />
    <glyph glyph-name="Ccedilla" unicode="&#xc7;" horiz-adv-x="604" 
d="M562 602l-14 -60c-34 21 -99 42 -166 42c-142 0 -272 -100 -272 -266c0 -165 128 -266 272 -266c73 0 128 15 170 40l-7 -63c-37 -21 -88 -34 -163 -35l-7 -27c42 -2 91 -37 91 -95c0 -65 -55 -97 -105 -97c-28 0 -54 9 -75 24l9 38c19 -15 43 -22 67 -22
c28 0 57 19 57 55c0 37 -32 55 -52 55c-25 0 -30 15 -26 30l11 40c-161 11 -310 132 -310 324c0 203 165 325 334 325c80 0 145 -19 186 -42z" />
    <glyph glyph-name="Eacute" unicode="&#xc9;" horiz-adv-x="444" 
d="M437 0h-368v638h333v-58h-266v-230h218v-58h-218v-234h301v-58zM370 851c0 -5 -5 -12 -11 -19c-39 -45 -87 -84 -140 -117l-41 18c47 37 100 91 134 139c5 8 16 14 22 14c12 0 36 -24 36 -35z" />
    <glyph glyph-name="Ntilde" unicode="&#xd1;" horiz-adv-x="692" 
d="M623 -10h-20l-312 355c-52 59 -111 130 -155 184l-2 -1c2 -59 2 -118 2 -176v-352h-67v638h47l296 -338c43 -49 102 -118 144 -171l2 1c-2 57 -2 114 -2 168v340h67v-648zM508 841c-27 -46 -77 -109 -104 -109c-30 0 -84 47 -102 47c-20 0 -53 -43 -67 -62l-44 20
c27 46 77 109 104 109c30 0 85 -48 102 -48c20 0 53 43 67 62z" />
    <glyph glyph-name="Odieresis" unicode="&#xd6;" horiz-adv-x="752" 
d="M710 320c0 -198 -158 -331 -334 -331s-334 133 -334 331c0 197 158 329 334 329s334 -132 334 -329zM642 318c0 164 -127 271 -266 271c-140 0 -266 -107 -266 -271s126 -271 266 -271c139 0 266 107 266 271zM492 763c0 -13 -28 -42 -42 -42s-42 29 -42 42
c0 14 28 42 42 42s42 -28 42 -42zM344 763c0 -13 -28 -42 -42 -42c-13 0 -42 29 -42 42c0 14 29 42 42 42c14 0 42 -28 42 -42z" />
    <glyph glyph-name="Udieresis" unicode="&#xdc;" horiz-adv-x="636" 
d="M567 221c0 -145 -101 -232 -249 -232s-249 87 -249 232v417h67v-411c0 -111 68 -178 183 -178s183 67 183 178v411h65v-417zM439 763c0 -13 -28 -42 -42 -42s-42 29 -42 42c0 14 28 42 42 42s42 -28 42 -42zM291 763c0 -13 -28 -42 -42 -42c-13 0 -42 29 -42 42
c0 14 29 42 42 42c14 0 42 -28 42 -42z" />
    <glyph glyph-name="aacute" unicode="&#xe1;" horiz-adv-x="437" 
d="M423 31l-41 -41c-31 7 -67 34 -71 80c-17 -52 -71 -80 -129 -80c-87 0 -145 59 -145 133c0 88 70 134 147 141l119 11v43c0 56 -39 90 -107 90c-45 0 -91 -14 -120 -34l-13 53c35 24 82 36 136 36c97 0 168 -54 168 -151v-207c0 -45 27 -69 56 -74zM303 161v61l-107 -10
c-63 -6 -98 -40 -98 -89c0 -45 37 -79 89 -79c58 0 116 44 116 117zM309 645c0 -4 -4 -10 -9 -16c-34 -39 -75 -71 -119 -100l-35 16c39 31 84 77 113 118c5 7 14 12 19 12c10 0 31 -21 31 -30z" />
    <glyph glyph-name="agrave" unicode="&#xe0;" horiz-adv-x="437" 
d="M423 31l-41 -41c-31 7 -67 34 -71 80c-17 -52 -71 -80 -129 -80c-87 0 -145 59 -145 133c0 88 70 134 147 141l119 11v43c0 56 -39 90 -107 90c-45 0 -91 -14 -120 -34l-13 53c35 24 82 36 136 36c97 0 168 -54 168 -151v-207c0 -45 27 -69 56 -74zM303 161v61l-107 -10
c-63 -6 -98 -40 -98 -89c0 -45 37 -79 89 -79c58 0 116 44 116 117zM263 546l-38 -17c-44 28 -84 60 -118 99c-4 5 -9 11 -9 16c0 10 22 31 32 31c5 0 15 -5 20 -12c28 -41 74 -87 113 -117z" />
    <glyph glyph-name="acircumflex" unicode="&#xe2;" horiz-adv-x="437" 
d="M423 31l-41 -41c-31 7 -67 34 -71 80c-17 -52 -71 -80 -129 -80c-87 0 -145 59 -145 133c0 88 70 134 147 141l119 11v43c0 56 -39 90 -107 90c-45 0 -91 -14 -120 -34l-13 53c35 24 82 36 136 36c97 0 168 -54 168 -151v-207c0 -45 27 -69 56 -74zM303 161v61l-107 -10
c-63 -6 -98 -40 -98 -89c0 -45 37 -79 89 -79c58 0 116 44 116 117zM341 546l-38 -16c-34 21 -69 47 -98 75c-28 -28 -60 -54 -95 -75l-34 15c39 30 84 77 113 118c5 7 14 12 19 12s15 -5 20 -12c28 -41 74 -87 113 -117z" />
    <glyph glyph-name="adieresis" unicode="&#xe4;" horiz-adv-x="437" 
d="M423 31l-41 -41c-31 7 -67 34 -71 80c-17 -52 -71 -80 -129 -80c-87 0 -145 59 -145 133c0 88 70 134 147 141l119 11v43c0 56 -39 90 -107 90c-45 0 -91 -14 -120 -34l-13 53c35 24 82 36 136 36c97 0 168 -54 168 -151v-207c0 -45 27 -69 56 -74zM303 161v61l-107 -10
c-63 -6 -98 -40 -98 -89c0 -45 37 -79 89 -79c58 0 116 44 116 117zM303 571c0 -11 -24 -36 -35 -36c-12 0 -36 25 -36 36s24 35 36 35c11 0 35 -24 35 -35zM177 571c0 -11 -23 -36 -35 -36c-11 0 -36 25 -36 36s25 35 36 35c12 0 35 -24 35 -35z" />
    <glyph glyph-name="atilde" unicode="&#xe3;" horiz-adv-x="437" 
d="M423 31l-41 -41c-31 7 -67 34 -71 80c-17 -52 -71 -80 -129 -80c-87 0 -145 59 -145 133c0 88 70 134 147 141l119 11v43c0 56 -39 90 -107 90c-45 0 -91 -14 -120 -34l-13 53c35 24 82 36 136 36c97 0 168 -54 168 -151v-207c0 -45 27 -69 56 -74zM303 161v61l-107 -10
c-63 -6 -98 -40 -98 -89c0 -45 37 -79 89 -79c58 0 116 44 116 117zM349 636c-23 -39 -66 -92 -89 -92c-25 0 -71 40 -87 40s-44 -36 -56 -53l-38 17c23 39 66 93 89 93c25 0 72 -41 87 -41c16 0 44 37 57 53z" />
    <glyph glyph-name="aring" unicode="&#xe5;" horiz-adv-x="437" 
d="M423 31l-41 -41c-31 7 -67 34 -71 80c-17 -52 -71 -80 -129 -80c-87 0 -145 59 -145 133c0 88 70 134 147 141l119 11v43c0 56 -39 90 -107 90c-45 0 -91 -14 -120 -34l-13 53c35 24 82 36 136 36c97 0 168 -54 168 -151v-207c0 -45 27 -69 56 -74zM303 161v61l-107 -10
c-63 -6 -98 -40 -98 -89c0 -45 37 -79 89 -79c58 0 116 44 116 117zM288 609c0 -48 -39 -87 -87 -87c-47 0 -87 39 -87 87c0 47 40 86 87 86c48 0 87 -39 87 -86zM248 609c0 28 -19 49 -47 49c-27 0 -47 -21 -47 -49c0 -29 20 -50 47 -50c28 0 47 21 47 50z" />
    <glyph glyph-name="ccedilla" unicode="&#xe7;" horiz-adv-x="453" 
d="M416 424l-13 -59c-35 24 -79 37 -124 37c-100 0 -178 -73 -178 -177c0 -103 79 -176 180 -176c47 0 84 8 123 30l-8 -61c-29 -15 -68 -23 -111 -23l-6 -23c36 -2 77 -32 77 -81c0 -55 -46 -82 -89 -82c-24 0 -45 7 -64 20l8 32c16 -12 37 -18 57 -18c24 0 48 16 48 46
c0 32 -27 47 -44 47c-21 0 -26 13 -22 26l9 33c-121 7 -222 96 -222 231c0 141 109 233 239 233c57 0 105 -15 140 -35z" />
    <glyph glyph-name="eacute" unicode="&#xe9;" horiz-adv-x="486" 
d="M449 288c0 -11 0 -22 -2 -31l-38 -37h-306c-3 -84 65 -174 180 -174c56 0 99 16 132 38l-8 -63c-31 -19 -72 -31 -131 -31c-130 0 -239 97 -239 236c0 146 111 237 219 237c124 0 193 -87 193 -175zM385 287c0 58 -44 121 -126 121c-75 0 -141 -65 -152 -136h277
c1 4 1 10 1 15zM363 645c0 -4 -4 -10 -9 -16c-34 -39 -74 -71 -119 -100l-35 16c40 31 85 77 114 118c4 7 14 12 19 12c9 0 30 -21 30 -30z" />
    <glyph glyph-name="egrave" unicode="&#xe8;" horiz-adv-x="486" 
d="M449 288c0 -11 0 -22 -2 -31l-38 -37h-306c-3 -84 65 -174 180 -174c56 0 99 16 132 38l-8 -63c-31 -19 -72 -31 -131 -31c-130 0 -239 97 -239 236c0 146 111 237 219 237c124 0 193 -87 193 -175zM385 287c0 58 -44 121 -126 121c-75 0 -141 -65 -152 -136h277
c1 4 1 10 1 15zM319 546l-38 -17c-44 28 -85 60 -118 98c-5 6 -9 12 -9 17c0 10 21 31 32 31c5 0 14 -5 19 -13c29 -40 75 -86 114 -116z" />
    <glyph glyph-name="ecircumflex" unicode="&#xea;" horiz-adv-x="486" 
d="M449 288c0 -11 0 -22 -2 -31l-38 -37h-306c-3 -84 65 -174 180 -174c56 0 99 16 132 38l-8 -63c-31 -19 -72 -31 -131 -31c-130 0 -239 97 -239 236c0 146 111 237 219 237c124 0 193 -87 193 -175zM385 287c0 58 -44 121 -126 121c-75 0 -141 -65 -152 -136h277
c1 4 1 10 1 15zM392 546l-38 -16c-34 21 -70 47 -98 75c-28 -28 -61 -54 -95 -75l-35 15c39 30 85 77 113 118c5 7 15 12 20 12s14 -5 19 -12c29 -41 75 -87 114 -117z" />
    <glyph glyph-name="edieresis" unicode="&#xeb;" horiz-adv-x="486" 
d="M449 288c0 -11 0 -22 -2 -31l-38 -37h-306c-3 -84 65 -174 180 -174c56 0 99 16 132 38l-8 -63c-31 -19 -72 -31 -131 -31c-130 0 -239 97 -239 236c0 146 111 237 219 237c124 0 193 -87 193 -175zM385 287c0 58 -44 121 -126 121c-75 0 -141 -65 -152 -136h277
c1 4 1 10 1 15zM354 571c0 -11 -24 -36 -36 -36s-36 25 -36 36s24 35 36 35s36 -24 36 -35zM228 571c0 -11 -24 -36 -36 -36c-11 0 -36 25 -36 36s25 35 36 35c12 0 36 -24 36 -35z" />
    <glyph glyph-name="iacute" unicode="&#xed;" horiz-adv-x="206" 
d="M135 0h-64v453h64v-453zM208 645c0 -4 -4 -10 -9 -16c-34 -39 -75 -71 -119 -100l-35 16c40 31 85 77 113 118c5 7 14 12 19 12c10 0 31 -21 31 -30z" />
    <glyph glyph-name="igrave" unicode="&#xec;" horiz-adv-x="206" 
d="M135 0h-64v453h64v-453zM164 546l-38 -17c-44 28 -84 60 -118 98c-4 6 -8 12 -8 17c0 10 21 31 31 31c5 0 15 -5 20 -13c28 -40 74 -86 113 -116z" />
    <glyph glyph-name="icircumflex" unicode="&#xee;" horiz-adv-x="206" 
d="M135 0h-64v453h64v-453zM238 546l-38 -16c-34 21 -69 47 -98 75c-28 -28 -61 -54 -95 -75l-35 15c39 30 85 77 114 118c5 7 14 12 19 12s15 -5 20 -12c28 -41 74 -87 113 -117z" />
    <glyph glyph-name="idieresis" unicode="&#xef;" horiz-adv-x="206" 
d="M135 0h-64v453h64v-453zM203 571c0 -11 -24 -36 -36 -36s-36 25 -36 36s24 35 36 35s36 -24 36 -35zM77 571c0 -11 -24 -36 -36 -36c-11 0 -35 25 -35 36s24 35 35 35c12 0 36 -24 36 -35z" />
    <glyph glyph-name="ntilde" unicode="&#xf1;" horiz-adv-x="498" 
d="M439 0h-63v299c0 63 -45 109 -125 109c-79 0 -129 -46 -129 -109v-299h-63v453h59v-68h1c15 42 61 78 147 78c99 0 173 -59 173 -158v-305zM389 636c-22 -39 -65 -92 -88 -92c-26 0 -72 40 -87 40c-17 0 -45 -36 -57 -53l-37 17c22 39 65 93 88 93c26 0 72 -41 87 -41
c17 0 45 37 57 53z" />
    <glyph glyph-name="oacute" unicode="&#xf3;" horiz-adv-x="551" 
d="M514 226c0 -138 -103 -236 -238 -236s-239 98 -239 236s104 237 239 237s238 -99 238 -237zM450 225c0 106 -77 181 -174 181s-175 -75 -175 -181s78 -180 175 -180s174 74 174 180zM375 645c0 -4 -3 -10 -8 -16c-34 -39 -75 -71 -119 -100l-35 16c39 31 84 77 113 118
c5 7 14 12 19 12c10 0 30 -21 30 -30z" />
    <glyph glyph-name="ograve" unicode="&#xf2;" horiz-adv-x="551" 
d="M514 226c0 -138 -103 -236 -238 -236s-239 98 -239 236s104 237 239 237s238 -99 238 -237zM450 225c0 106 -77 181 -174 181s-175 -75 -175 -181s78 -180 175 -180s174 74 174 180zM338 546l-38 -17c-44 28 -84 60 -118 98c-5 6 -9 12 -9 17c0 10 22 31 32 31
c5 0 15 -5 20 -13c28 -40 74 -86 113 -116z" />
    <glyph glyph-name="ocircumflex" unicode="&#xf4;" horiz-adv-x="551" 
d="M514 226c0 -138 -103 -236 -238 -236s-239 98 -239 236s104 237 239 237s238 -99 238 -237zM450 225c0 106 -77 181 -174 181s-175 -75 -175 -181s78 -180 175 -180s174 74 174 180zM410 546l-38 -16c-34 21 -70 47 -98 75c-28 -28 -61 -54 -95 -75l-35 15
c39 30 85 77 113 118c5 7 15 12 20 12s15 -5 19 -12c29 -41 75 -87 114 -117z" />
    <glyph glyph-name="odieresis" unicode="&#xf6;" horiz-adv-x="551" 
d="M514 226c0 -138 -103 -236 -238 -236s-239 98 -239 236s104 237 239 237s238 -99 238 -237zM450 225c0 106 -77 181 -174 181s-175 -75 -175 -181s78 -180 175 -180s174 74 174 180zM376 571c0 -11 -24 -36 -36 -36s-36 25 -36 36s24 35 36 35s36 -24 36 -35zM250 571
c0 -11 -24 -36 -36 -36c-11 0 -36 25 -36 36s25 35 36 35c12 0 36 -24 36 -35z" />
    <glyph glyph-name="otilde" unicode="&#xf5;" horiz-adv-x="551" 
d="M514 226c0 -138 -103 -236 -238 -236s-239 98 -239 236s104 237 239 237s238 -99 238 -237zM450 225c0 106 -77 181 -174 181s-175 -75 -175 -181s78 -180 175 -180s174 74 174 180zM416 636c-23 -39 -66 -92 -88 -92c-26 0 -72 40 -87 40c-17 0 -45 -36 -57 -53l-37 17
c22 39 65 93 88 93c26 0 72 -41 87 -41c16 0 44 37 57 53z" />
    <glyph glyph-name="uacute" unicode="&#xfa;" horiz-adv-x="498" 
d="M439 0h-59v68h-1c-15 -42 -61 -78 -147 -78c-99 0 -173 59 -173 158v305h63v-299c0 -63 45 -109 125 -109c79 0 129 46 129 109v299h63v-453zM357 645c0 -4 -4 -10 -9 -16c-34 -39 -75 -71 -119 -100l-35 16c39 31 84 77 113 118c5 7 14 12 19 12c10 0 31 -21 31 -30z
" />
    <glyph glyph-name="ugrave" unicode="&#xf9;" horiz-adv-x="498" 
d="M439 0h-59v68h-1c-15 -42 -61 -78 -147 -78c-99 0 -173 59 -173 158v305h63v-299c0 -63 45 -109 125 -109c79 0 129 46 129 109v299h63v-453zM307 546l-38 -17c-44 28 -84 60 -118 98c-5 6 -9 12 -9 17c0 10 22 31 32 31c5 0 15 -5 20 -13c28 -40 74 -86 113 -116z" />
    <glyph glyph-name="ucircumflex" unicode="&#xfb;" horiz-adv-x="498" 
d="M439 0h-59v68h-1c-15 -42 -61 -78 -147 -78c-99 0 -173 59 -173 158v305h63v-299c0 -63 45 -109 125 -109c79 0 129 46 129 109v299h63v-453zM383 546l-38 -16c-34 21 -69 47 -98 75c-28 -28 -60 -54 -95 -75l-35 15c39 30 85 77 114 118c5 7 14 12 19 12s15 -5 20 -12
c28 -41 74 -87 113 -117z" />
    <glyph glyph-name="udieresis" unicode="&#xfc;" horiz-adv-x="498" 
d="M439 0h-59v68h-1c-15 -42 -61 -78 -147 -78c-99 0 -173 59 -173 158v305h63v-299c0 -63 45 -109 125 -109c79 0 129 46 129 109v299h63v-453zM350 571c0 -11 -24 -36 -36 -36s-36 25 -36 36s24 35 36 35s36 -24 36 -35zM224 571c0 -11 -24 -36 -36 -36
c-11 0 -35 25 -35 36s24 35 35 35c12 0 36 -24 36 -35z" />
    <glyph glyph-name="dagger" unicode="&#x2020;" horiz-adv-x="403" 
d="M359 395l-127 13l-11 -634h-39l-10 634l-128 -13v64l126 -13l-1 111h65l-1 -111l126 13v-64z" />
    <glyph glyph-name="degree" unicode="&#xb0;" horiz-adv-x="294" 
d="M249 548c0 -56 -46 -101 -102 -101s-103 45 -103 101s47 101 103 101s102 -45 102 -101zM202 548c0 34 -23 58 -55 58s-56 -24 -56 -58c0 -33 24 -58 56 -58s55 25 55 58z" />
    <glyph glyph-name="cent" unicode="&#xa2;" horiz-adv-x="453" 
d="M298 0h-43v86c-119 9 -218 97 -218 231s98 223 218 232v89h43v-89c47 -3 88 -16 118 -34l-13 -59c-35 24 -79 37 -124 37c-100 0 -178 -73 -178 -177s79 -176 180 -176c47 0 84 8 123 30l-8 -61c-26 -14 -60 -21 -98 -23v-86z" />
    <glyph glyph-name="sterling" unicode="&#xa3;" horiz-adv-x="436" 
d="M394 44l-13 -55c-39 15 -93 25 -149 25c-57 0 -117 -12 -153 -25l-31 36c33 54 49 123 49 220v56h-80v41h80v116c0 127 76 188 186 188c33 0 62 -4 83 -13l-14 -54c-18 8 -45 14 -66 14c-76 0 -125 -44 -125 -138v-113h123l-10 -41h-113v-61c0 -89 -18 -154 -41 -189
c27 10 80 17 119 17c49 0 107 -8 155 -24z" />
    <glyph glyph-name="section" unicode="&#xa7;" horiz-adv-x="482" 
d="M413 -66c0 -76 -58 -156 -178 -156c-61 0 -107 16 -141 36l14 58c33 -23 77 -37 125 -37c81 0 117 51 117 100c0 23 -8 51 -25 68l-254 261l34 122c-25 31 -36 68 -36 106c0 76 58 156 178 156c61 0 107 -16 141 -36l-14 -58c-33 23 -78 37 -126 37
c-81 0 -116 -51 -116 -100c0 -23 8 -51 25 -68l254 -261l-35 -122c25 -31 37 -68 37 -106zM365 137l-226 230l-22 -78l226 -230z" />
    <glyph glyph-name="bullet" unicode="&#x2022;" horiz-adv-x="354" 
d="M310 277c0 -77 -58 -131 -133 -131s-133 54 -133 131s58 132 133 132s133 -55 133 -132z" />
    <glyph glyph-name="paragraph" unicode="&#xb6;" horiz-adv-x="370" 
d="M363 590h-67v-642c0 -95 -56 -162 -122 -178l-41 40c63 15 99 61 99 143v360h-12c-95 0 -183 55 -183 164s88 166 184 166h142v-53z" />
    <glyph glyph-name="germandbls" unicode="&#xdf;" horiz-adv-x="586" 
d="M549 118c0 -75 -60 -128 -156 -128c-55 0 -101 17 -128 37v63c33 -26 74 -46 129 -46c51 0 91 27 91 71c0 43 -33 69 -84 87c-84 30 -131 70 -131 141c0 73 62 121 147 123c4 15 6 29 6 46c0 72 -49 146 -140 146c-71 0 -122 -44 -122 -138v-520h-64v401h-80v52h80v70
c0 127 76 189 185 189c127 0 203 -85 203 -208c0 -28 -4 -62 -12 -87c-90 0 -142 -23 -142 -72c0 -41 30 -62 80 -80c87 -31 138 -72 138 -147z" />
    <glyph glyph-name="registered" unicode="&#xae;" horiz-adv-x="452" 
d="M415 462c0 -110 -83 -188 -189 -188s-189 78 -189 188s83 187 189 187s189 -77 189 -187zM381 462c0 92 -67 156 -155 156c-89 0 -155 -64 -155 -156c0 -93 66 -156 155 -156c88 0 155 63 155 156zM322 367l-30 -19l-64 93h-32v-94h-36v228h68c39 0 73 -27 73 -66
c0 -27 -16 -49 -37 -59zM264 509c0 21 -15 34 -40 34h-28v-69h28c25 0 40 14 40 35z" />
    <glyph glyph-name="copyright" unicode="&#xa9;" horiz-adv-x="612" 
d="M570 250c0 -154 -116 -262 -264 -262c-147 0 -264 108 -264 262c0 155 117 262 264 262c148 0 264 -107 264 -262zM529 250c0 129 -94 224 -223 224s-222 -95 -222 -224c0 -128 93 -224 222 -224s223 96 223 224zM406 372l-11 -46c-18 14 -49 23 -74 23
c-56 0 -97 -40 -97 -97c0 -56 42 -96 97 -96c27 0 52 6 76 19l-6 -48c-19 -11 -43 -17 -72 -17c-78 0 -147 55 -147 143c0 86 68 143 147 143c35 0 67 -10 87 -24z" />
    <glyph glyph-name="trademark" unicode="&#x2122;" horiz-adv-x="416" 
d="M378 453h-28l-9 118l-60 -119h-11l-58 118l-9 -117h-27l14 185h19l68 -139l67 139h20zM163 612h-56v-159h-29v159h-56v26h141v-26z" />
    <glyph glyph-name="acute" unicode="&#xb4;" 
d="M399 651c0 -5 -5 -12 -11 -19c-39 -45 -87 -84 -140 -117l-41 18c47 37 100 91 134 139c5 8 16 14 22 14c12 0 36 -24 36 -35z" />
    <glyph glyph-name="dieresis" unicode="&#xa8;" 
d="M366 563c0 -13 -28 -42 -42 -42s-42 29 -42 42c0 14 28 42 42 42s42 -28 42 -42zM218 563c0 -13 -28 -42 -42 -42c-13 0 -42 29 -42 42c0 14 29 42 42 42c14 0 42 -28 42 -42z" />
    <glyph glyph-name="notequal" unicode="&#x2260;" horiz-adv-x="625" 
d="M657 699l-13 -54c-18 8 -45 13 -66 13c-76 0 -125 -44 -125 -138v-67h143l-11 -52h-132v-401h-64v401h-228v-401h-64v401h-80v52h80v70c0 127 76 189 186 189c66 0 116 -22 154 -50c33 34 81 50 138 50c33 0 61 -4 82 -13zM407 613c-31 26 -75 45 -121 45
c-76 0 -125 -44 -125 -138v-67h228v70c0 35 7 65 18 90z" />
    <glyph glyph-name="AE" unicode="&#xc6;" horiz-adv-x="794" 
d="M787 0h-367v179h-222l-104 -179h-68l370 638h356v-58h-265v-230h217v-58h-217v-234h300v-58zM421 578l-2 1c-18 -39 -40 -80 -61 -117l-131 -228h193v229c0 44 1 74 1 115z" />
    <glyph glyph-name="Oslash" unicode="&#xd8;" horiz-adv-x="752" 
d="M710 320c0 -198 -158 -331 -334 -331c-70 0 -137 21 -192 58l-60 -75l-32 28l59 73c-66 58 -109 144 -109 247c0 197 158 329 334 329c70 0 138 -20 193 -58l59 73l32 -27l-58 -72c66 -58 108 -143 108 -245zM642 318c0 82 -31 150 -80 197l-339 -420
c44 -31 97 -48 153 -48c139 0 266 107 266 271zM529 542c-44 31 -98 47 -153 47c-140 0 -266 -107 -266 -271c0 -82 31 -149 80 -196z" />
    <glyph glyph-name="infinity" unicode="&#x221e;" horiz-adv-x="803" 
d="M744 0h-63v401h-228v-401h-64v401h-228v-401h-64v401h-80v52h80v70c0 127 76 189 186 189c66 0 116 -22 154 -50c33 34 81 50 138 50c33 0 61 -4 82 -13l-13 -54c-18 8 -45 13 -66 13c-76 0 -125 -44 -125 -138v-67h291v-453zM407 613c-31 26 -75 45 -121 45
c-76 0 -125 -44 -125 -138v-67h228v70c0 35 7 65 18 90z" />
    <glyph glyph-name="plusminus" unicode="&#xb1;" horiz-adv-x="827" 
d="M802 28l-43 -43c-35 11 -78 41 -78 114v526c-23 18 -62 33 -103 33c-76 0 -125 -44 -125 -138v-67h114v-52h-114v-401h-64v401h-228v-401h-64v401h-80v52h80v70c0 127 76 189 186 189c66 0 116 -22 154 -50c33 34 81 50 138 50c76 0 133 -31 169 -63v-543
c0 -43 27 -71 58 -78zM407 613c-31 26 -75 45 -121 45c-76 0 -125 -44 -125 -138v-67h228v70c0 35 7 65 18 90z" />
    <glyph glyph-name="lessequal" unicode="&#x2264;" horiz-adv-x="462" 
d="M418 118l-374 122v75l374 122v-58l-322 -102l322 -102v-57zM418 0h-374v55h374v-55z" />
    <glyph glyph-name="greaterequal" unicode="&#x2265;" horiz-adv-x="462" 
d="M418 240l-374 -122v57l322 102l-322 102v58l374 -122v-75zM418 0h-374v55h374v-55z" />
    <glyph glyph-name="yen" unicode="&#xa5;" horiz-adv-x="501" 
d="M475 638l-178 -340h128v-40h-142v-258h-66v258h-141v40h127l-177 340h70l106 -204c16 -31 35 -70 50 -103h2c15 33 35 72 51 103l106 204h64z" />
    <glyph glyph-name="mu" unicode="&#xb5;" horiz-adv-x="600" 
d="M565 151c0 -35 -29 -54 -54 -54v-97h-472v453h472v-249zM485 229v159h-159zM231 388h-166c0 -46 37 -83 83 -83s83 37 83 83zM485 25v81l-385 182c-14 7 -25 15 -35 27v-290h420z" />
    <glyph glyph-name="mu" unicode="&#x3bc;" horiz-adv-x="600" 
d="M565 151c0 -35 -29 -54 -54 -54v-97h-472v453h472v-249zM485 229v159h-159zM231 388h-166c0 -46 37 -83 83 -83s83 37 83 83zM485 25v81l-385 182c-14 7 -25 15 -35 27v-290h420z" />
    <glyph glyph-name="partialdiff" unicode="&#x2202;" horiz-adv-x="600" 
d="M565 151c0 -35 -29 -54 -54 -54v-97h-472v453h472v-249zM485 229v159h-159zM231 388h-166c0 -46 37 -83 83 -83s83 37 83 83zM485 25v81l-385 182c-14 7 -25 15 -35 27v-290h420z" />
    <glyph glyph-name="summation" unicode="&#x2211;" horiz-adv-x="600" 
d="M565 151c0 -35 -29 -54 -54 -54v-97h-472v453h472v-249zM485 229v159h-159zM231 388h-166c0 -46 37 -83 83 -83s83 37 83 83zM485 25v81l-385 182c-14 7 -25 15 -35 27v-290h420z" />
    <glyph glyph-name="product" unicode="&#x220f;" horiz-adv-x="452" 
d="M415 462c0 -110 -83 -188 -189 -188s-189 78 -189 188s83 187 189 187s189 -77 189 -187zM381 462c0 92 -67 156 -155 156c-89 0 -155 -64 -155 -156c0 -93 66 -156 155 -156c88 0 155 63 155 156zM311 509c0 -39 -34 -68 -73 -68h-31v-94h-36v228h67c39 0 73 -27 73 -66
zM275 509c0 21 -16 34 -40 34h-28v-69h28c24 0 40 14 40 35z" />
    <glyph glyph-name="pi" unicode="&#x3c0;" horiz-adv-x="600" 
d="M565 151c0 -35 -29 -54 -54 -54v-97h-472v453h472v-249zM485 229v159h-159zM231 388h-166c0 -46 37 -83 83 -83s83 37 83 83zM485 25v81l-385 182c-14 7 -25 15 -35 27v-290h420z" />
    <glyph glyph-name="integral" unicode="&#x222b;" horiz-adv-x="600" 
d="M565 151c0 -35 -29 -54 -54 -54v-97h-472v453h472v-249zM485 229v159h-159zM231 388h-166c0 -46 37 -83 83 -83s83 37 83 83zM485 25v81l-385 182c-14 7 -25 15 -35 27v-290h420z" />
    <glyph glyph-name="ordfeminine" unicode="&#xaa;" horiz-adv-x="371" 
d="M354 307l-37 -36c-25 5 -52 23 -59 56c-17 -37 -58 -56 -102 -56c-70 0 -119 48 -119 108c0 72 60 107 119 113l94 9v31c0 43 -30 69 -83 69c-36 0 -72 -11 -98 -29l-11 47c30 20 69 30 112 30c79 0 136 -43 136 -121v-164c0 -35 21 -52 48 -57zM250 409v46l-89 -9
c-41 -4 -69 -30 -69 -69c0 -35 29 -60 66 -60c42 0 92 33 92 92zM225 154c0 -13 -28 -42 -42 -42c-13 0 -42 29 -42 42c0 14 29 43 42 43c14 0 42 -29 42 -43z" />
    <glyph glyph-name="ordmasculine" unicode="&#xba;" horiz-adv-x="458" 
d="M421 460c0 -110 -83 -189 -192 -189s-192 79 -192 189c0 111 83 189 192 189s192 -78 192 -189zM365 460c0 83 -61 142 -136 142c-76 0 -136 -59 -136 -142s60 -142 136 -142c75 0 136 59 136 142zM271 154c0 -13 -28 -42 -42 -42c-13 0 -42 29 -42 42c0 14 29 43 42 43
c14 0 42 -29 42 -43z" />
    <glyph glyph-name="Omega" unicode="&#x3a9;" horiz-adv-x="600" 
d="M565 151c0 -35 -29 -54 -54 -54v-97h-472v453h472v-249zM485 229v159h-159zM231 388h-166c0 -46 37 -83 83 -83s83 37 83 83zM485 25v81l-385 182c-14 7 -25 15 -35 27v-290h420z" />
    <glyph glyph-name="Omega" unicode="&#x2126;" horiz-adv-x="600" 
d="M565 151c0 -35 -29 -54 -54 -54v-97h-472v453h472v-249zM485 229v159h-159zM231 388h-166c0 -46 37 -83 83 -83s83 37 83 83zM485 25v81l-385 182c-14 7 -25 15 -35 27v-290h420z" />
    <glyph glyph-name="ae" unicode="&#xe6;" horiz-adv-x="733" 
d="M696 288c0 -11 -1 -22 -2 -31l-38 -37h-307c-3 -84 66 -174 181 -174c56 0 99 16 132 38l-8 -63c-32 -19 -73 -31 -132 -31c-77 0 -152 37 -187 95c-28 -70 -95 -95 -153 -95c-87 0 -145 59 -145 133c0 89 70 134 147 141l104 10c3 18 8 35 15 51c-3 52 -42 83 -107 83
c-45 0 -91 -14 -120 -34l-13 53c35 23 82 36 136 36c65 0 123 -24 146 -79c39 51 99 79 158 79c124 0 193 -87 193 -175zM632 287c0 58 -45 121 -126 121c-75 0 -141 -65 -152 -136h277c1 4 1 10 1 15zM300 136c-10 26 -15 55 -16 84l-88 -8c-62 -6 -98 -40 -98 -89
c0 -46 37 -79 89 -79c50 0 102 33 113 92z" />
    <glyph glyph-name="oslash" unicode="&#xf8;" horiz-adv-x="551" 
d="M514 226c0 -138 -103 -236 -238 -236c-50 0 -97 14 -135 38l-44 -55l-31 26l43 54c-45 42 -72 102 -72 173c0 138 104 237 239 237c50 0 95 -13 133 -37l43 53l31 -25l-42 -53c46 -42 73 -103 73 -175zM450 225c0 52 -18 96 -48 128l-224 -279c28 -19 62 -29 98 -29
c97 0 174 74 174 180zM371 378c-27 18 -60 28 -95 28c-97 0 -175 -75 -175 -181c0 -50 17 -94 46 -125z" />
    <glyph glyph-name="questiondown" unicode="&#xbf;" horiz-adv-x="368" 
d="M247 600c0 -15 -33 -48 -49 -48c-17 0 -49 33 -49 48c0 16 32 49 49 49c16 0 49 -33 49 -49zM335 26c-30 -20 -73 -36 -126 -36c-96 0 -168 59 -168 155c0 62 40 108 87 156c34 35 48 70 48 111c0 18 -2 44 -6 63l58 -14c4 -17 7 -36 7 -55c0 -58 -22 -108 -60 -146
c-37 -37 -67 -72 -67 -121c0 -48 39 -92 100 -92c45 0 83 15 113 35z" />
    <glyph glyph-name="exclamdown" unicode="&#xa1;" horiz-adv-x="239" 
d="M165 599c0 -15 -33 -49 -49 -49s-49 34 -49 49c0 16 33 49 49 49s49 -33 49 -49zM155 0h-75l11 474l53 -14z" />
    <glyph glyph-name="logicalnot" unicode="&#xac;" horiz-adv-x="508" 
d="M444 143h-57v107h-343v54h400v-161z" />
    <glyph glyph-name="radical" unicode="&#x221a;" horiz-adv-x="574" 
d="M561 658h-79l-281 -664h-25l-105 244h-51l9 60h82l55 -126c10 -22 16 -40 24 -63h2c22 57 54 134 82 200l170 403h117v-54z" />
    <glyph glyph-name="florin" unicode="&#x192;" horiz-adv-x="420" 
d="M430 646l-12 -53c-11 2 -23 2 -33 2c-76 0 -135 -45 -151 -138l-28 -159h117l-10 -40h-113l-56 -310c-18 -98 -84 -162 -153 -178l-41 40c65 16 118 62 132 143l54 305h-81v40h88l28 162c22 126 110 189 220 189c14 0 27 -1 39 -3z" />
    <glyph glyph-name="approxequal" unicode="&#x2248;" horiz-adv-x="463" 
d="M415 363c-27 -32 -65 -48 -115 -48c-29 0 -50 9 -71 19c-24 11 -45 23 -70 23c-40 0 -73 -17 -98 -45l-13 51c28 32 66 49 116 49c29 0 50 -10 71 -20c22 -11 42 -22 69 -22c41 0 74 17 99 45zM415 191c-27 -32 -65 -48 -115 -48c-29 0 -50 9 -71 19
c-24 11 -45 23 -70 23c-40 0 -73 -17 -98 -45l-13 51c28 32 66 49 116 49c29 0 50 -10 71 -20c22 -11 42 -22 69 -22c41 0 74 17 99 45z" />
    <glyph glyph-name="Delta" unicode="&#x394;" horiz-adv-x="600" 
d="M565 151c0 -35 -29 -54 -54 -54v-97h-472v453h472v-249zM485 229v159h-159zM231 388h-166c0 -46 37 -83 83 -83s83 37 83 83zM485 25v81l-385 182c-14 7 -25 15 -35 27v-290h420z" />
    <glyph glyph-name="Delta" unicode="&#x2206;" horiz-adv-x="600" 
d="M565 151c0 -35 -29 -54 -54 -54v-97h-472v453h472v-249zM485 229v159h-159zM231 388h-166c0 -46 37 -83 83 -83s83 37 83 83zM485 25v81l-385 182c-14 7 -25 15 -35 27v-290h420z" />
    <glyph glyph-name="guillemotleft" unicode="&#xab;" horiz-adv-x="382" 
d="M338 116l-10 -25c-29 39 -73 86 -112 115c-7 5 -13 15 -13 20s6 15 13 20c39 29 83 76 112 115l10 -25c-17 -39 -37 -76 -60 -110c23 -34 43 -71 60 -110zM161 116l-10 -25c-29 39 -73 86 -112 115c-7 5 -13 15 -13 20s6 15 13 20c39 29 83 76 112 115l10 -25
c-17 -39 -37 -76 -60 -110c23 -34 43 -71 60 -110z" />
    <glyph glyph-name="guillemotright" unicode="&#xbb;" horiz-adv-x="382" 
d="M356 226c0 -5 -6 -15 -13 -20c-39 -29 -83 -76 -112 -115l-10 25c17 39 36 76 60 110c-24 34 -43 71 -60 110l10 25c29 -39 73 -86 112 -115c7 -5 13 -15 13 -20zM179 226c0 -5 -6 -15 -13 -20c-39 -29 -82 -76 -111 -115l-11 25c17 39 36 76 60 110
c-24 34 -43 71 -60 110l11 25c29 -39 72 -86 111 -115c7 -5 13 -15 13 -20z" />
    <glyph glyph-name="ellipsis" unicode="&#x2026;" horiz-adv-x="561" 
d="M517 39c0 -16 -33 -49 -50 -49c-16 0 -49 33 -49 49c0 15 33 49 49 49c17 0 50 -34 50 -49zM329 39c0 -16 -33 -49 -49 -49c-17 0 -49 33 -49 49c0 15 32 49 49 49c16 0 49 -34 49 -49zM142 39c0 -16 -33 -49 -49 -49s-49 33 -49 49c0 15 33 49 49 49s49 -34 49 -49z" />
    <glyph glyph-name="Agrave" unicode="&#xc0;" horiz-adv-x="601" 
d="M575 0h-68l-73 179h-269l-72 -179h-67l262 647h25zM411 234l-76 196c-11 29 -24 64 -34 98h-2c-10 -34 -23 -69 -34 -98l-77 -196h223zM378 734l-44 -19c-52 33 -99 70 -139 115c-5 7 -10 14 -10 20c0 11 25 36 37 36c6 0 17 -6 23 -15c34 -48 88 -101 133 -137z" />
    <glyph glyph-name="Atilde" unicode="&#xc3;" horiz-adv-x="601" 
d="M575 0h-68l-73 179h-269l-72 -179h-67l262 647h25zM411 234l-76 196c-11 29 -24 64 -34 98h-2c-10 -34 -23 -69 -34 -98l-77 -196h223zM466 841c-27 -46 -77 -109 -104 -109c-30 0 -84 47 -102 47c-20 0 -53 -43 -67 -62l-44 20c27 46 77 109 104 109
c30 0 85 -48 102 -48c20 0 53 43 67 62z" />
    <glyph glyph-name="Otilde" unicode="&#xd5;" horiz-adv-x="752" 
d="M710 320c0 -198 -158 -331 -334 -331s-334 133 -334 331c0 197 158 329 334 329s334 -132 334 -329zM642 318c0 164 -127 271 -266 271c-140 0 -266 -107 -266 -271s126 -271 266 -271c139 0 266 107 266 271zM542 841c-27 -46 -77 -109 -104 -109c-30 0 -84 47 -102 47
c-20 0 -53 -43 -67 -62l-44 20c27 46 77 109 104 109c30 0 85 -48 102 -48c20 0 53 43 67 62z" />
    <glyph glyph-name="OE" unicode="&#x152;" horiz-adv-x="826" 
d="M819 0h-361c-24 -4 -51 -6 -82 -6c-170 0 -334 123 -334 325c0 203 165 325 334 325c28 0 54 -2 78 -6h329v-58h-265v-230h218v-58h-218v-234h301v-58zM451 57v521c-22 4 -45 6 -69 6c-142 0 -272 -100 -272 -266c0 -165 128 -266 272 -266c24 0 47 2 69 5z" />
    <glyph glyph-name="oe" unicode="&#x153;" horiz-adv-x="899" 
d="M862 288c0 -11 -1 -22 -2 -31l-38 -37h-307c-3 -84 66 -174 181 -174c55 0 98 16 131 38l-8 -63c-31 -19 -72 -31 -131 -31c-89 0 -177 49 -205 130c-34 -84 -116 -130 -207 -130c-135 0 -239 98 -239 236s104 237 239 237c91 0 178 -49 205 -129c24 79 112 129 188 129
c124 0 193 -87 193 -175zM798 287c0 58 -45 121 -126 121c-75 0 -141 -65 -152 -136h277c1 4 1 10 1 15zM450 225c0 106 -78 181 -174 181c-98 0 -175 -75 -175 -181s77 -180 175 -180c96 0 174 74 174 180z" />
    <glyph glyph-name="endash" unicode="&#x2013;" 
d="M502 203h-502v46h502v-46z" />
    <glyph glyph-name="emdash" unicode="&#x2014;" horiz-adv-x="1000" 
d="M1002 203h-1002v46h1002v-46z" />
    <glyph glyph-name="quotedblleft" unicode="&#x201c;" horiz-adv-x="346" 
d="M302 494c0 -17 -34 -48 -49 -48s-49 30 -49 48c0 47 37 118 72 154l25 -4c-25 -32 -43 -77 -43 -108c18 -3 44 -29 44 -42zM142 494c0 -17 -33 -48 -49 -48c-14 0 -49 30 -49 48c0 47 38 118 72 154l26 -4c-26 -32 -43 -77 -43 -108c18 -3 43 -29 43 -42z" />
    <glyph glyph-name="quotedblright" unicode="&#x201d;" horiz-adv-x="346" 
d="M302 601c0 -46 -38 -118 -72 -154l-26 4c26 32 43 77 43 108c-18 3 -43 29 -43 42c0 17 33 48 49 48c14 0 49 -30 49 -48zM142 601c0 -46 -37 -118 -72 -154l-25 4c25 32 43 77 43 108c-18 3 -44 29 -44 42c0 17 34 48 49 48s49 -30 49 -48z" />
    <glyph glyph-name="quoteleft" unicode="&#x2018;" horiz-adv-x="187" 
d="M142 494c0 -17 -33 -48 -49 -48c-14 0 -49 30 -49 48c0 47 38 118 72 154l26 -4c-26 -32 -43 -77 -43 -108c18 -3 43 -29 43 -42z" />
    <glyph glyph-name="quoteright" unicode="&#x2019;" horiz-adv-x="187" 
d="M142 601c0 -46 -37 -118 -72 -154l-25 4c25 32 43 77 43 108c-18 3 -44 29 -44 42c0 17 34 48 49 48s49 -30 49 -48z" />
    <glyph glyph-name="divide" unicode="&#xf7;" horiz-adv-x="463" 
d="M274 399c0 -14 -29 -43 -43 -43s-43 29 -43 43c0 13 29 42 43 42s43 -29 43 -42zM418 250h-374v54h374v-54zM274 156c0 -14 -29 -43 -43 -43s-43 29 -43 43c0 13 29 42 43 42s43 -29 43 -42z" />
    <glyph glyph-name="lozenge" unicode="&#x25ca;" horiz-adv-x="591" 
d="M502 277l-212 -212l-211 212l211 212zM440 277l-150 149l-149 -149l149 -149z" />
    <glyph glyph-name="ydieresis" unicode="&#xff;" horiz-adv-x="468" 
d="M442 453l-170 -414c-65 -159 -136 -232 -230 -272l-41 41c90 37 148 97 201 218l-176 427h66l97 -236c14 -35 32 -79 45 -119h2c15 38 35 87 48 119l97 236h61zM341 567c0 -11 -24 -36 -36 -36s-35 25 -35 36c0 12 23 36 35 36s36 -24 36 -36zM215 567
c0 -11 -24 -36 -35 -36s-36 25 -36 36c0 12 25 36 36 36s35 -24 35 -36z" />
    <glyph glyph-name="Ydieresis" unicode="&#x178;" horiz-adv-x="606" 
d="M580 638l-245 -343v-295h-66v295l-243 343h75l137 -194c21 -30 46 -65 66 -97h2c20 31 45 67 66 97l138 194h70zM413 763c0 -13 -28 -42 -42 -42s-42 29 -42 42c0 14 28 42 42 42s42 -28 42 -42zM265 763c0 -13 -28 -42 -42 -42c-13 0 -42 29 -42 42c0 14 29 42 42 42
c14 0 42 -28 42 -42z" />
    <glyph glyph-name="fraction" unicode="&#x2044;" horiz-adv-x="648" 
d="M602 630l-524 -649l-32 28l524 648z" />
    <glyph glyph-name="fraction" unicode="&#x2215;" horiz-adv-x="648" 
d="M602 630l-524 -649l-32 28l524 648z" />
    <glyph glyph-name="currency" unicode="&#xa4;" horiz-adv-x="493" 
d="M344 286l-9 -40h-170c20 -129 93 -198 174 -198c43 0 76 9 103 27l-8 -60c-21 -14 -59 -23 -100 -23c-115 0 -211 91 -234 254h-83v40h80c-1 11 -1 22 -1 33c0 13 0 25 1 37h-80v41h84c24 158 120 249 233 249c55 0 91 -14 117 -30l-12 -55c-25 17 -61 28 -101 28
c-83 0 -152 -68 -172 -192h189l-9 -41h-185c-1 -12 -1 -25 -1 -38c0 -11 0 -21 1 -32h183z" />
    <glyph glyph-name="guilsinglleft" unicode="&#x2039;" horiz-adv-x="205" 
d="M161 116l-10 -25c-29 39 -73 86 -112 115c-7 5 -13 15 -13 20s6 15 13 20c39 29 83 76 112 115l10 -25c-17 -39 -37 -76 -60 -110c23 -34 43 -71 60 -110z" />
    <glyph glyph-name="guilsinglright" unicode="&#x203a;" horiz-adv-x="205" 
d="M179 226c0 -5 -6 -15 -13 -20c-39 -29 -82 -76 -111 -115l-11 25c17 39 36 76 60 110c-24 34 -43 71 -60 110l11 25c29 -39 72 -86 111 -115c7 -5 13 -15 13 -20z" />
    <glyph glyph-name="daggerdbl" unicode="&#x2021;" horiz-adv-x="403" 
d="M359 -128l-126 13l1 -111h-65l1 111l-126 -13v64l128 -13l3 243l-3 242l-128 -13v64l126 -13l-1 111h65l-1 -111l126 13v-64l-127 13l-4 -242l4 -243l127 13v-64z" />
    <glyph glyph-name="periodcentered" unicode="&#xb7;" horiz-adv-x="186" 
d="M142 271c0 -16 -33 -49 -49 -49s-49 33 -49 49c0 15 33 48 49 48s49 -33 49 -48z" />
    <glyph glyph-name="periodcentered" unicode="&#x2219;" horiz-adv-x="186" 
d="M142 271c0 -16 -33 -49 -49 -49s-49 33 -49 49c0 15 33 48 49 48s49 -33 49 -48z" />
    <glyph glyph-name="quotesinglbase" unicode="&#x201a;" horiz-adv-x="186" 
d="M142 39c0 -46 -38 -118 -72 -154l-25 4c25 32 43 78 43 109c-18 3 -44 28 -44 41c0 17 34 49 49 49c14 0 49 -31 49 -49z" />
    <glyph glyph-name="quotedblbase" unicode="&#x201e;" horiz-adv-x="346" 
d="M302 39c0 -46 -38 -118 -72 -154l-26 4c25 32 43 78 43 109c-18 3 -43 28 -43 41c0 17 34 49 49 49c14 0 49 -31 49 -49zM142 39c0 -46 -38 -118 -72 -154l-25 4c25 32 43 78 43 109c-18 3 -44 28 -44 41c0 17 34 49 49 49c14 0 49 -31 49 -49z" />
    <glyph glyph-name="perthousand" unicode="&#x2030;" horiz-adv-x="1043" 
d="M1000 125c0 -80 -58 -136 -135 -136c-76 0 -134 56 -134 136c0 79 58 135 134 135c77 0 135 -56 135 -135zM947 125c0 53 -38 84 -82 84s-81 -31 -81 -84s37 -87 81 -87s82 34 82 87zM658 125c0 -80 -58 -136 -135 -136s-134 56 -134 136c0 79 57 135 134 135
s135 -56 135 -135zM605 125c0 53 -38 84 -82 84s-81 -31 -81 -84s37 -87 81 -87s82 34 82 87zM625 630l-524 -649l-33 28l525 648zM306 514c0 -80 -58 -135 -135 -135c-76 0 -134 55 -134 135c0 79 58 135 134 135c77 0 135 -56 135 -135zM253 514c0 53 -38 85 -82 85
s-81 -32 -81 -85s37 -86 81 -86s82 33 82 86z" />
    <glyph glyph-name="Acircumflex" unicode="&#xc2;" horiz-adv-x="601" 
d="M575 0h-68l-73 179h-269l-72 -179h-67l262 647h25zM411 234l-76 196c-11 29 -24 64 -34 98h-2c-10 -34 -23 -69 -34 -98l-77 -196h223zM457 734l-44 -19c-40 26 -82 56 -115 89c-34 -33 -72 -63 -112 -89l-41 18c46 36 100 90 133 138c6 9 17 15 23 15s17 -6 23 -15
c33 -48 87 -101 133 -137z" />
    <glyph glyph-name="Ecircumflex" unicode="&#xca;" horiz-adv-x="444" 
d="M437 0h-368v638h333v-58h-266v-230h218v-58h-218v-234h301v-58zM402 734l-44 -19c-40 26 -82 56 -115 89c-34 -33 -72 -63 -112 -89l-41 18c46 36 100 90 133 138c6 9 17 15 23 15s17 -6 23 -15c33 -48 87 -101 133 -137z" />
    <glyph glyph-name="Aacute" unicode="&#xc1;" horiz-adv-x="601" 
d="M575 0h-68l-73 179h-269l-72 -179h-67l262 647h25zM411 234l-76 196c-11 29 -24 64 -34 98h-2c-10 -34 -23 -69 -34 -98l-77 -196h223zM418 851c0 -5 -5 -12 -11 -19c-39 -45 -87 -84 -140 -117l-41 18c47 37 100 91 134 139c5 8 16 14 22 14c12 0 36 -24 36 -35z" />
    <glyph glyph-name="Edieresis" unicode="&#xcb;" horiz-adv-x="444" 
d="M437 0h-368v638h333v-58h-266v-230h218v-58h-218v-234h301v-58zM360 763c0 -13 -28 -42 -42 -42s-42 29 -42 42c0 14 28 42 42 42s42 -28 42 -42zM212 763c0 -13 -28 -42 -42 -42c-13 0 -42 29 -42 42c0 14 29 42 42 42c14 0 42 -28 42 -42z" />
    <glyph glyph-name="Egrave" unicode="&#xc8;" horiz-adv-x="444" 
d="M437 0h-368v638h333v-58h-266v-230h218v-58h-218v-234h301v-58zM315 734l-44 -19c-52 33 -99 70 -139 115c-5 7 -10 14 -10 20c0 11 25 36 37 36c6 0 17 -6 23 -15c34 -48 88 -101 133 -137z" />
    <glyph glyph-name="Iacute" unicode="&#xcd;" horiz-adv-x="225" 
d="M146 0h-67v638h67v-638zM229 851c0 -5 -5 -12 -11 -19c-39 -45 -87 -84 -140 -117l-41 18c47 37 100 91 134 139c5 8 16 14 22 14c12 0 36 -24 36 -35z" />
    <glyph glyph-name="Icircumflex" unicode="&#xce;" horiz-adv-x="225" 
d="M146 0h-67v638h67v-638zM271 734l-44 -19c-40 26 -82 56 -115 89c-34 -33 -72 -63 -112 -89l-41 18c46 36 100 90 133 138c6 9 17 15 23 15s17 -6 23 -15c33 -48 87 -101 133 -137z" />
    <glyph glyph-name="Idieresis" unicode="&#xcf;" horiz-adv-x="225" 
d="M146 0h-67v638h67v-638zM229 763c0 -13 -28 -42 -42 -42s-42 29 -42 42c0 14 28 42 42 42s42 -28 42 -42zM81 763c0 -13 -28 -42 -42 -42c-13 0 -42 29 -42 42c0 14 29 42 42 42c14 0 42 -28 42 -42z" />
    <glyph glyph-name="Igrave" unicode="&#xcc;" horiz-adv-x="225" 
d="M146 0h-67v638h67v-638zM191 734l-44 -19c-52 33 -99 70 -139 115c-5 7 -10 14 -10 20c0 11 25 36 37 36c6 0 17 -6 23 -15c34 -48 88 -101 133 -137z" />
    <glyph glyph-name="Oacute" unicode="&#xd3;" horiz-adv-x="752" 
d="M710 320c0 -198 -158 -331 -334 -331s-334 133 -334 331c0 197 158 329 334 329s334 -132 334 -329zM642 318c0 164 -127 271 -266 271c-140 0 -266 -107 -266 -271s126 -271 266 -271c139 0 266 107 266 271zM490 851c0 -5 -5 -12 -11 -19c-39 -45 -87 -84 -140 -117
l-41 18c47 37 100 91 134 139c5 8 16 14 22 14c12 0 36 -24 36 -35z" />
    <glyph glyph-name="Ocircumflex" unicode="&#xd4;" horiz-adv-x="752" 
d="M710 320c0 -198 -158 -331 -334 -331s-334 133 -334 331c0 197 158 329 334 329s334 -132 334 -329zM642 318c0 164 -127 271 -266 271c-140 0 -266 -107 -266 -271s126 -271 266 -271c139 0 266 107 266 271zM531 734l-44 -19c-40 26 -82 56 -115 89
c-34 -33 -72 -63 -112 -89l-41 18c46 36 100 90 133 138c6 9 17 15 23 15s17 -6 23 -15c33 -48 87 -101 133 -137z" />
    <glyph glyph-name="apple" unicode="&#xf8ff;" horiz-adv-x="600" 
d="M565 151c0 -35 -29 -54 -54 -54v-97h-472v453h472v-249zM485 229v159h-159zM231 388h-166c0 -46 37 -83 83 -83s83 37 83 83zM485 25v81l-385 182c-14 7 -25 15 -35 27v-290h420z" />
    <glyph glyph-name="Ograve" unicode="&#xd2;" horiz-adv-x="752" 
d="M710 320c0 -198 -158 -331 -334 -331s-334 133 -334 331c0 197 158 329 334 329s334 -132 334 -329zM642 318c0 164 -127 271 -266 271c-140 0 -266 -107 -266 -271s126 -271 266 -271c139 0 266 107 266 271zM447 734l-44 -19c-52 33 -99 70 -139 115
c-5 7 -10 14 -10 20c0 11 25 36 37 36c6 0 17 -6 23 -15c34 -48 88 -101 133 -137z" />
    <glyph glyph-name="Uacute" unicode="&#xda;" horiz-adv-x="636" 
d="M567 221c0 -145 -101 -232 -249 -232s-249 87 -249 232v417h67v-411c0 -111 68 -178 183 -178s183 67 183 178v411h65v-417zM437 851c0 -5 -5 -12 -11 -19c-39 -45 -87 -84 -140 -117l-41 18c47 37 100 91 134 139c5 8 16 14 22 14c12 0 36 -24 36 -35z" />
    <glyph glyph-name="Ucircumflex" unicode="&#xdb;" horiz-adv-x="636" 
d="M567 221c0 -145 -101 -232 -249 -232s-249 87 -249 232v417h67v-411c0 -111 68 -178 183 -178s183 67 183 178v411h65v-417zM477 734l-44 -19c-40 26 -82 56 -115 89c-34 -33 -72 -63 -112 -89l-41 18c46 36 100 90 133 138c6 9 17 15 23 15s17 -6 23 -15
c33 -48 87 -101 133 -137z" />
    <glyph glyph-name="Ugrave" unicode="&#xd9;" horiz-adv-x="636" 
d="M567 221c0 -145 -101 -232 -249 -232s-249 87 -249 232v417h67v-411c0 -111 68 -178 183 -178s183 67 183 178v411h65v-417zM395 734l-44 -19c-52 33 -99 70 -139 115c-5 7 -10 14 -10 20c0 11 25 36 37 36c6 0 17 -6 23 -15c34 -48 88 -101 133 -137z" />
    <glyph glyph-name="dotlessi" unicode="&#x131;" horiz-adv-x="206" 
d="M135 0h-64v453h64v-453z" />
    <glyph glyph-name="circumflex" unicode="&#x2c6;" 
d="M406 534l-44 -19c-40 26 -82 56 -115 89c-34 -33 -72 -63 -112 -89l-41 18c46 36 100 90 133 138c6 9 17 15 23 15s17 -6 23 -15c33 -48 87 -101 133 -137z" />
    <glyph glyph-name="tilde" unicode="&#x2dc;" 
d="M413 641c-27 -46 -77 -109 -104 -109c-30 0 -84 47 -102 47c-20 0 -53 -43 -67 -62l-44 20c27 46 77 109 104 109c30 0 85 -48 102 -48c20 0 53 43 67 62z" />
    <glyph glyph-name="macron" unicode="&#xaf;" 
d="M336 527h-172v55h172v-55z" />
    <glyph glyph-name="macron" unicode="&#x2c9;" 
d="M336 527h-172v55h172v-55z" />
    <glyph glyph-name="breve" unicode="&#x2d8;" 
d="M357 554c-8 -6 -52 -38 -106 -38c-55 0 -100 32 -108 38l37 38c6 -4 39 -20 71 -20c33 0 63 16 69 20z" />
    <glyph glyph-name="dotaccent" unicode="&#x2d9;" 
d="M292 563c0 -13 -28 -42 -42 -42c-13 0 -42 29 -42 42c0 14 29 42 42 42c14 0 42 -28 42 -42z" />
    <glyph glyph-name="ring" unicode="&#x2da;" 
d="M352 608c0 -56 -46 -102 -102 -102s-102 46 -102 102c0 55 46 101 102 101s102 -46 102 -101zM305 608c0 33 -23 58 -55 58s-56 -25 -56 -58s24 -58 56 -58s55 25 55 58z" />
    <glyph glyph-name="cedilla" unicode="&#xb8;" 
d="M340 -128c0 -65 -55 -97 -105 -97c-28 0 -53 9 -75 24l9 38c19 -15 44 -22 67 -22c28 0 57 19 57 55c0 37 -32 55 -52 55c-24 0 -30 15 -26 30l13 47h31l-10 -35c42 -2 91 -37 91 -95z" />
    <glyph glyph-name="hungarumlaut" unicode="&#x2dd;" 
d="M427 651c0 -6 -5 -13 -11 -20c-39 -45 -87 -82 -138 -115l-45 19c46 36 100 89 133 138c6 8 17 15 23 15c13 0 38 -26 38 -37zM284 651c0 -6 -5 -13 -11 -20c-39 -45 -86 -82 -138 -115l-44 19c45 36 99 89 133 138c6 8 17 15 23 15c12 0 37 -26 37 -37z" />
    <glyph glyph-name="ogonek" unicode="&#x2db;" 
d="M335 -167l-11 -44c-15 -8 -33 -14 -64 -14c-50 0 -95 30 -95 85c0 63 55 115 110 140h59c-65 -30 -122 -77 -122 -134c0 -33 25 -51 59 -51c27 0 46 6 64 18z" />
    <glyph glyph-name="caron" unicode="&#x2c7;" 
d="M393 662c-48 -37 -98 -89 -130 -141c-3 -4 -8 -8 -12 -8c-5 0 -11 3 -13 8c-33 52 -83 104 -130 141l45 20c37 -26 71 -53 97 -85c28 32 61 59 97 85z" />
    <glyph glyph-name="Eth" unicode="&#xd0;" horiz-adv-x="663" 
d="M621 319c0 -203 -161 -319 -354 -319h-167v295h-83v52h83v291h167c193 0 354 -116 354 -319zM552 318c0 170 -126 262 -295 262h-89v-233h139l-12 -52h-127v-238h89c169 0 295 91 295 261z" />
    <glyph glyph-name="Euro" unicode="&#x20ac;" horiz-adv-x="493" 
d="M344 286l-9 -40h-170c20 -129 93 -198 174 -198c43 0 76 9 103 27l-8 -60c-21 -14 -59 -23 -100 -23c-115 0 -211 91 -234 254h-83v40h80c-1 11 -1 22 -1 33c0 13 0 25 1 37h-80v41h84c24 158 120 249 233 249c55 0 91 -14 117 -30l-12 -55c-25 17 -61 28 -101 28
c-83 0 -152 -68 -172 -192h189l-9 -41h-185c-1 -12 -1 -25 -1 -38c0 -11 0 -21 1 -32h183z" />
    </font>
</defs>
</svg>
