<svg xmlns="http://www.w3.org/2000/svg" viewBox="0 0 110.55 140.97"><defs><style>.cls-1{fill:#e4c78a;}.cls-2{fill:#52b99e;}</style></defs><g id="Layer_2" data-name="Layer 2"><g id="Ingredients_Map" data-name="Ingredients Map"><path class="cls-1" d="M99,57.87c-1.19-1.75-1.78-4.26-2.72-6.16-1.63-3.28-4-4.7-5.66-8-2.59-5.22-2.93-6.92-5.51-12.14-.7-1.41-3.11-3-3.9-4.38-2.11-3.63,8-8.93,9.46-9.27-5.21-.37-15.77.77-20.2-2.07-2.06-1.32-2.94-3.32-5.23-4.14-4-1.45-12.2-1.21-16.48-1C40.65,11.13,33.71,15.2,23.91,0c-1,1.7-.18,8.6.24,10.54-3,5.39-1.07,6.76-5.26,11.26-2.36,2.53-12.76,10-14.42,13C-.91,44.71,6.07,54.51,0,64,3.88,60.49,8.35,59.5,12.23,56c.45,4,1,8.33,3.81,11.19a16.2,16.2,0,0,0,5,3.18c4.57,2.12,9.4,3.88,14.41,4.15s10.26-1.1,14-4.6c-.95,3.46,1.84,6.69,4.31,9.23s5,6.11,3.6,9.39q2-5.22,4.06-10.45C64.62,86.74,75.63,90.33,84,87s14-11.85,16.19-20.81c-.4-1.68,6.3-3.3,6.89-3.21C104.45,62.33,100.61,60.22,99,57.87ZM37,29.81a2.4,2.4,0,0,1-.63,1.12,2.91,2.91,0,0,1-1.79.55l-7.88.59c1.32-2.16,1.66-5,3.54-6.64a7.77,7.77,0,0,0,1.29-1.2,4.15,4.15,0,0,0,.55-2,52,52,0,0,0,.26-5.72L34,16.36a2.16,2.16,0,0,1,2.44,1A13.34,13.34,0,0,1,37,18.65C37.1,19.12,38,26.7,37,29.81ZM65.69,40.63,60,45.18q-4.5-5.84-9-11.66l-.66-2.08a29.8,29.8,0,0,0,6,2.61,33.56,33.56,0,0,1,4.25,1.11,12.21,12.21,0,0,1,5.14,4.76.55.55,0,0,1,.14.45A.53.53,0,0,1,65.69,40.63Z"/><path class="cls-2" d="M103,67.52a7.62,7.62,0,0,0,1.35.23Z"/><path class="cls-1" d="M39.43,103.39H41V115.3H39.31V106l-3.66,4.61h-.32L31.63,106v9.27H29.92V103.39h1.62l4,4.89Z"/><path class="cls-1" d="M50.4,111.51H44.89a2.57,2.57,0,0,0,.75,1.79,2.48,2.48,0,0,0,1.8.67,4.67,4.67,0,0,0,2.83-1v1.52a5,5,0,0,1-1.42.68,5.8,5.8,0,0,1-1.65.21,3.72,3.72,0,0,1-2.1-.54,4,4,0,0,1-1.28-1.44,4.45,4.45,0,0,1-.48-2.1,4.21,4.21,0,0,1,1-2.92A3.43,3.43,0,0,1,47,107.3a3.13,3.13,0,0,1,2.49,1.09,4.43,4.43,0,0,1,.92,2.93Zm-5.48-.92h3.95a2.19,2.19,0,0,0-.55-1.44,1.81,1.81,0,0,0-1.33-.5,1.92,1.92,0,0,0-1.37.5A2.52,2.52,0,0,0,44.92,110.59Z"/><path class="cls-1" d="M57.85,107.46h2l-3.23,3.86,3.46,4h-2l-2.46-2.81-2.33,2.81h-2l3.3-4-3.3-3.87h2l2.32,2.69Z"/><path class="cls-1" d="M62.31,104.16a.93.93,0,0,1,.66.26.88.88,0,0,1,.27.65.92.92,0,0,1-.93.92.84.84,0,0,1-.63-.28.89.89,0,0,1-.27-.64.86.86,0,0,1,.27-.63A.84.84,0,0,1,62.31,104.16Zm-.77,3.3H63.1v7.84H61.54Z"/><path class="cls-1" d="M71.57,113.47V115a6.54,6.54,0,0,1-2.29.44,3.78,3.78,0,0,1-4-4,4.17,4.17,0,0,1,1.07-3,3.65,3.65,0,0,1,2.8-1.14,4.49,4.49,0,0,1,1.09.12,7.41,7.41,0,0,1,1.19.43v1.65a4.13,4.13,0,0,0-2.18-.75,2.25,2.25,0,0,0-1.73.74,2.67,2.67,0,0,0-.67,1.88,2.52,2.52,0,0,0,.73,1.91,2.71,2.71,0,0,0,2,.71A5.28,5.28,0,0,0,71.57,113.47Z"/><path class="cls-1" d="M77.43,107.44a4.1,4.1,0,0,1,3,1.16,3.87,3.87,0,0,1,1.18,2.9,3.67,3.67,0,0,1-1.2,2.81,4.26,4.26,0,0,1-3,1.13,4.1,4.1,0,0,1-3-1.14,4,4,0,0,1,0-5.71A4.15,4.15,0,0,1,77.43,107.44Zm-.08,1.4a2.46,2.46,0,0,0-1.84.73,2.59,2.59,0,0,0-.71,1.87,2.42,2.42,0,0,0,.73,1.83,2.81,2.81,0,0,0,3.76,0,2.7,2.7,0,0,0,0-3.7A2.65,2.65,0,0,0,77.35,108.84Z"/><path class="cls-1" d="M1,124.88a.23.23,0,0,1,.24-.24H4.32c2.79,0,4,1.21,4,4.15,0,2-.69,3-1.87,3.53v.05c1.21.37,2,1.46,2,3.76,0,3.46-1.4,4.62-4.41,4.62H1.26a.22.22,0,0,1-.24-.23Zm3.2,6.73c1.52,0,2.16-.57,2.16-2.59s-.57-2.6-2.21-2.6H3.08a.12.12,0,0,0-.14.14v4.9c0,.1.05.15.14.15ZM3.08,139H4.15c1.75,0,2.39-.64,2.39-2.87s-.68-2.82-2.32-2.82H3.08a.13.13,0,0,0-.14.14v5.4C2.94,138.93,3,139,3.08,139Z"/><path class="cls-1" d="M10.55,124.88a.22.22,0,0,1,.23-.24h1.45a.22.22,0,0,1,.23.24v15.64a.22.22,0,0,1-.23.23H10.78a.22.22,0,0,1-.23-.23Z"/><path class="cls-1" d="M17.35,140.75a.22.22,0,0,1-.24-.23v-14a.12.12,0,0,0-.14-.14H14.31a.22.22,0,0,1-.23-.24v-1.3a.22.22,0,0,1,.23-.24h7.51a.22.22,0,0,1,.24.24v1.3a.23.23,0,0,1-.24.24H19.17a.12.12,0,0,0-.14.14v14a.22.22,0,0,1-.24.23Z"/><path class="cls-1" d="M25.9,140.75a.22.22,0,0,1-.24-.23v-14a.12.12,0,0,0-.14-.14H22.87a.23.23,0,0,1-.24-.24v-1.3a.22.22,0,0,1,.24-.24h7.51a.22.22,0,0,1,.23.24v1.3a.22.22,0,0,1-.23.24H27.72a.12.12,0,0,0-.14.14v14a.22.22,0,0,1-.24.23Z"/><path class="cls-1" d="M32.22,124.88a.23.23,0,0,1,.24-.24h6.09a.23.23,0,0,1,.24.24v1.3a.23.23,0,0,1-.24.24H34.29c-.1,0-.15,0-.15.14v5a.13.13,0,0,0,.15.15H38a.22.22,0,0,1,.24.23v1.31a.22.22,0,0,1-.24.23H34.29c-.1,0-.15.05-.15.14v5.19a.13.13,0,0,0,.15.15h4.26a.22.22,0,0,1,.24.23v1.31a.22.22,0,0,1-.24.23H32.46a.22.22,0,0,1-.24-.23Z"/><path class="cls-1" d="M46.7,140.75a.24.24,0,0,1-.26-.16l-2-6.73c-.21,0-.45,0-.66,0h-1a.13.13,0,0,0-.14.14v6.5a.22.22,0,0,1-.24.23H41a.22.22,0,0,1-.24-.23V124.88a.22.22,0,0,1,.24-.24h2.82c2.84,0,4.36,1.23,4.36,4.64,0,2.16-.72,3.46-2,4.1l2.25,7.14c0,.12,0,.23-.12.23Zm-.47-11.47c0-2.18-.71-2.86-2.42-2.86h-1a.12.12,0,0,0-.14.14V132a.13.13,0,0,0,.14.14h1C45.47,132.15,46.23,131.49,46.23,129.28Z"/><path class="cls-1" d="M54.87,138.57c-.24-.71-.31-1.3-.31-5.87s.07-5.17.31-5.88a3.38,3.38,0,0,1,3.53-2.39,3.35,3.35,0,0,1,3.53,2.39c.24.71.31,1.3.31,5.88s-.07,5.16-.31,5.87A3.36,3.36,0,0,1,58.4,141,3.39,3.39,0,0,1,54.87,138.57Zm5.24-.54c.14-.48.19-.83.19-5.33s0-4.86-.19-5.33a1.65,1.65,0,0,0-1.71-1.14,1.62,1.62,0,0,0-1.68,1.14c-.17.47-.21.82-.21,5.33s0,4.85.21,5.33a1.63,1.63,0,0,0,1.68,1.14A1.66,1.66,0,0,0,60.11,138Z"/><path class="cls-1" d="M70.6,140.75a.24.24,0,0,1-.26-.16l-2-6.73c-.21,0-.45,0-.66,0h-1a.13.13,0,0,0-.14.14v6.5a.22.22,0,0,1-.23.23H64.87a.22.22,0,0,1-.24-.23V124.88a.23.23,0,0,1,.24-.24h2.82c2.84,0,4.36,1.23,4.36,4.64,0,2.16-.71,3.46-2,4.1l2.25,7.14c0,.12,0,.23-.11.23Zm-.47-11.47c0-2.18-.71-2.86-2.42-2.86h-1a.12.12,0,0,0-.14.14V132a.13.13,0,0,0,.14.14h1C69.37,132.15,70.13,131.49,70.13,129.28Z"/><path class="cls-1" d="M76.86,124.88c0-.15.12-.24.26-.24h1.42a.25.25,0,0,1,.26.24l3.39,15.64a.19.19,0,0,1-.21.23H80.55a.25.25,0,0,1-.26-.23L79.58,137H76l-.71,3.53c0,.14-.09.23-.23.23H73.63a.19.19,0,0,1-.21-.23Zm2.39,10.45-1.37-7h-.07l-1.47,7Z"/><path class="cls-1" d="M83.85,124.88a.22.22,0,0,1,.23-.24h1.78a.33.33,0,0,1,.36.24L89.82,137h.09V124.88a.23.23,0,0,1,.24-.24h1.26a.22.22,0,0,1,.23.24v15.64a.22.22,0,0,1-.23.23H89.72c-.19,0-.31-.07-.35-.23L85.7,128.43h-.12v12.09a.22.22,0,0,1-.24.23H84.08a.22.22,0,0,1-.23-.23Z"/><path class="cls-1" d="M94,132.7c0-4.58.07-5.17.31-5.88a3.38,3.38,0,0,1,3.53-2.39c2.23,0,3.49,1.25,3.75,3.5,0,.15,0,.26-.17.29l-1.33.26a.22.22,0,0,1-.28-.19c-.17-1.33-.78-2.06-1.94-2.06a1.65,1.65,0,0,0-1.71,1.14c-.17.47-.21.82-.21,5.33s0,4.85.21,5.33a1.88,1.88,0,0,0,3.46,0c.14-.45.21-.83.21-4.12,0-.1,0-.15-.14-.15H98.13a.22.22,0,0,1-.23-.23v-1.26a.22.22,0,0,1,.23-.24h3.34a.23.23,0,0,1,.24.24V133c0,4.31-.07,4.9-.31,5.61a3.8,3.8,0,0,1-7.06,0C94.1,137.86,94,137.27,94,132.7Z"/><path class="cls-1" d="M104,124.88a.23.23,0,0,1,.24-.24h6.09a.23.23,0,0,1,.24.24v1.3a.23.23,0,0,1-.24.24H106a.12.12,0,0,0-.14.14v5c0,.1,0,.15.14.15h3.7a.22.22,0,0,1,.24.23v1.31a.22.22,0,0,1-.24.23H106a.13.13,0,0,0-.14.14v5.19c0,.1,0,.15.14.15h4.27a.22.22,0,0,1,.24.23v1.31a.22.22,0,0,1-.24.23h-6.09a.22.22,0,0,1-.24-.23Z"/><path d="M48,71.27a6.85,6.85,0,0,0,2.27,4.92A21.87,21.87,0,0,1,54,80.49c2,3.14,3.82,6.71,3.89,10.63L57.21,91c.87-2.28.65-4.89,1.45-7.42s1.73-4.78,2.43-7.19a60.94,60.94,0,0,0,2.1-14.89c.11-2.5.06-5.08.28-7.59a14.3,14.3,0,0,0-.17-3.71A7.42,7.42,0,0,0,61.57,47c-.79-1-1.69-1.88-2.42-2.95S57.68,42,56.89,41s-1.57-2-2.32-3-1.66-1.9-2.42-2.94a9,9,0,0,1-1.61-3.5A12.1,12.1,0,0,0,49.36,28c-1.34-2-3.67-3.33-5.61-4.91a29,29,0,0,1-3-2.39c-1-.79-5.19-3.83-5.89-4.9a20.27,20.27,0,0,0-2.2-3A31,31,0,0,1,30,10a10.87,10.87,0,0,1-1.57-3.62,13.19,13.19,0,0,0-1.35-3.37A2.67,2.67,0,0,0,26,2a2.27,2.27,0,0,0-1.37-.16c-.13,0-.18.57,0,1.13a13.39,13.39,0,0,0,.64,1.68C25.74,5.75,26.29,7,26.92,8s1.2,2.25,1.86,3.16a34.84,34.84,0,0,1,2.56,2.89h0v0A4.68,4.68,0,0,1,31.74,17,16.12,16.12,0,0,1,31,19.61c-.56,1.64-1.13,3.22-.5,4.74A6.63,6.63,0,0,0,31,25.47c.14.37.55.6.32.53.34-.19.24-1.12.07-1.95-.08-.42-.17-.85-.23-1.31a3.5,3.5,0,0,1,.06-1.44,8.63,8.63,0,0,1,1.3-2.38v0A7.52,7.52,0,0,0,33,15.71v-.48l.45.15a6.91,6.91,0,0,1,3.82,3.3,13.55,13.55,0,0,1,1.43,4.78c.14,1.67.36,3.26.37,4.94s-1.23,3.15-.94,4.79l-.1,0c-.35-1.73,1-3.18.75-4.81-.08-1.6-.37-3.27-.56-4.87A13,13,0,0,0,36.77,19,6.29,6.29,0,0,0,33.25,16l.45-.32a8.14,8.14,0,0,1-.51,3.55h0v0A8,8,0,0,0,32,21.47a5.37,5.37,0,0,0,.22,2.41,9.23,9.23,0,0,1,.21,1.36,2.14,2.14,0,0,1-.11.83,1.42,1.42,0,0,1-.6.75.94.94,0,0,1-1.11-.25,3.15,3.15,0,0,1-.46-.63,8.39,8.39,0,0,1-.57-1.27,5.33,5.33,0,0,1-.3-2.8A15.14,15.14,0,0,1,30,19.26c.56-1.62,1.11-3.3.41-4.64l0,0c-.61-.94-1.65-1.72-2.5-2.77s-1.33-2.24-2-3.36-1.16-2.21-1.74-3.4a11.49,11.49,0,0,1-.7-1.87,3.72,3.72,0,0,1-.14-1.1A1.5,1.5,0,0,1,24,.9,3,3,0,0,1,26.37,1,3.7,3.7,0,0,1,28,2.46a14.28,14.28,0,0,1,1.46,3.66,10.26,10.26,0,0,0,1.38,3.33,31.94,31.94,0,0,0,2.55,2.73,19.77,19.77,0,0,1,2.24,3.15,8.42,8.42,0,0,0,2.52,2.59c1,.72,2.12,1.38,3.11,2.24a28.71,28.71,0,0,0,2.89,2.42c1.91,1.65,4.2,2.92,5.66,5.17A12.24,12.24,0,0,1,51,31.42a8.53,8.53,0,0,0,1.49,3.37c3.27,3.82,6,8.2,9.41,11.9a7.78,7.78,0,0,1,1.88,3.38,14.31,14.31,0,0,1,.26,3.85c-.18,2.54-.08,5-.12,7.59A56.26,56.26,0,0,1,62,76.65c-.74,2.46-1.71,4.81-2.55,7.18s-.61,4.94-1.58,7.42L57.18,93V91.12c0-3.69-1.65-7.21-3.63-10.35A23.49,23.49,0,0,0,50,76.42a7,7,0,0,1-2.12-5.15Z"/><path d="M39.69,33.31a6,6,0,0,1-.28-3.1v0A8.5,8.5,0,0,1,40.34,28a5.16,5.16,0,0,0,.24-2.08,9.39,9.39,0,0,0-1.1-4.38l-.19-.32.36.05a7.46,7.46,0,0,1,2.4.75,8.94,8.94,0,0,1,2.08,1.48,27.47,27.47,0,0,1,3.07,3.91l0,0a4.86,4.86,0,0,1,1,1.47,6.13,6.13,0,0,1,.27,1.72v0c0,1.19,0,2.39,0,3.52s-.18,2.3-.33,3.44h-.1c-.15-1.14-.25-2.29-.33-3.44s-.18-2.27-.25-3.37v0a5.26,5.26,0,0,0-.23-1.41,6.3,6.3,0,0,0-.79-1.16l0,0a45.77,45.77,0,0,0-2.7-4,5.77,5.77,0,0,0-4-2.38l.17-.26a11,11,0,0,1,1.69,4.49,4.46,4.46,0,0,1-.32,2.52,13.8,13.8,0,0,0-1.07,2v0a8.49,8.49,0,0,0-.28,2.86Z"/><path d="M40.58,24.41a2.68,2.68,0,0,1,2.31,1.16c.23.37.36.8.57,1.16a4.59,4.59,0,0,0,.8,1c1.26,1.19,2,2.28,3.32,3.41l0,.1a3.38,3.38,0,0,1-2.43-1A6.15,6.15,0,0,1,43.78,28a4.05,4.05,0,0,0-.6-1.08,6.28,6.28,0,0,0-1-.77c-.59-.52-1-1-1.69-1.65Z"/><path d="M30.2,9.08c2.26,1.39,4.46,3.1,7.07,3.38a55.74,55.74,0,0,0,7.93-.3c5.28-.25,10.54-1.67,16-1.3a14.53,14.53,0,0,1,7.68,2.56c1.16.75,2,1.92,3,2.7A12.94,12.94,0,0,0,75.32,18a25,25,0,0,0,3.84,1,18.11,18.11,0,0,0,3.93.47c2.64,0,5.27-.6,8-.55l.61,0-.4.46a15.12,15.12,0,0,1-3,2.6,25.32,25.32,0,0,1-3.42,2,14.93,14.93,0,0,1-3.8,1.28,5.76,5.76,0,0,1-2.11,0c-1-.3-1.27-1-1.72-1.18l.08,0a13.28,13.28,0,0,0-2.86-.5,17,17,0,0,1-3-.92,12.75,12.75,0,0,0-2.75-.82,9,9,0,0,0-2.81.29c-2.1.4-4.08.3-6,.59s-3.89.87-6,1A7.23,7.23,0,0,1,48,21.83c-1.63-1.5-1.88-3.8-3-5.24s-3.41-1.58-5.34-1.8-4.13-.36-5.79-1.61l.06-.09c1.69,1.13,3.78,1.15,5.76,1.25a18.5,18.5,0,0,1,3,.34,5,5,0,0,1,2.78,1.49A10.86,10.86,0,0,1,47,18.89a7.39,7.39,0,0,0,1.61,2.35,6.33,6.33,0,0,0,5.25,1.47c2-.18,3.86-.73,5.91-1s4.11-.23,6-.61a9.29,9.29,0,0,1,3.16-.31,14.3,14.3,0,0,1,3,.92,16.19,16.19,0,0,0,2.76.91,13.86,13.86,0,0,1,3.05.59l0,0,0,0c.66.44,1.07,1,1.4,1.09a5.24,5.24,0,0,0,1.77,0,13.58,13.58,0,0,0,3.6-1.1,23.79,23.79,0,0,0,3.37-1.82A14.36,14.36,0,0,0,90.85,19l.22.48c-2.63-.11-5.28.43-8,.38a19.09,19.09,0,0,1-4-.56,32.76,32.76,0,0,1-3.89-1,13.5,13.5,0,0,1-3.61-1.83c-1.14-.81-1.92-1.89-3.06-2.56a14,14,0,0,0-7.39-2.16C55.89,11.48,50.63,12.8,45.25,13a50.41,50.41,0,0,1-8.06,0c-2.81-.42-4.89-2.35-7-3.84Z"/><path d="M37.48,17.71a3.61,3.61,0,0,1,2.59.37c.37.25.69.56,1.06.79a4.48,4.48,0,0,0,1.18.47,22.12,22.12,0,0,1,4.63,1.87v.11a4.55,4.55,0,0,1-2.66-.13,7.63,7.63,0,0,1-2.23-1.33A4,4,0,0,0,41,19.18a9.05,9.05,0,0,0-1.25-.29,9.11,9.11,0,0,1-2.26-1.07Z"/><path d="M80.21,25.25a20,20,0,0,1,4.25,3.91,21.37,21.37,0,0,1,1.3,2.63c.4.87.84,1.73,1.3,2.57l1.34,2.49c.47.8,1,1.55,1.55,2.36,1,1.58,2,3.51,1.8,5.51h-.1A15.2,15.2,0,0,0,89,39.83a16.47,16.47,0,0,1-2.47-5.24A14.49,14.49,0,0,0,85.45,32a12.61,12.61,0,0,0-1.69-2.25,32.58,32.58,0,0,1-3.63-4.39Z"/><path d="M51.49,32.54c1.63.52,3.21.86,4.82,1.24a12.36,12.36,0,0,0,2.45.48,19.35,19.35,0,0,1,2.58.24,3.58,3.58,0,0,1,1.29.52c.36.25.71.49,1,.76a13,13,0,0,1,1.91,1.8c1.12,1.31,1.85,3.38,1.06,5l-.1,0a6,6,0,0,0-1.83-4.28c-.53-.6-1.09-1.19-1.69-1.76l-.91-.86a3.74,3.74,0,0,0-1-.63,6.1,6.1,0,0,0-2.42-.45,20.06,20.06,0,0,1-2.58,0,8.69,8.69,0,0,1-4.72-2Z"/><path d="M66,34.85a4.66,4.66,0,0,1,.6,1.54,3.49,3.49,0,0,0,.07.85,1.74,1.74,0,0,0,.51.67,5.72,5.72,0,0,1,2,2.66l-.07.08a3.11,3.11,0,0,1-2.47-2.44,2.94,2.94,0,0,0-.33-.82c-.16-.24-.42-.45-.59-.72a1.76,1.76,0,0,1,.13-1.83Z"/><path d="M50.77,30.06a46.05,46.05,0,0,1,5.77,2c.92.42,1.84.88,2.8,1.22a16.51,16.51,0,0,0,3,.68,23.52,23.52,0,0,1,6,1.31,6.63,6.63,0,0,1,3.85,4.84l-.1,0a8.29,8.29,0,0,0-4.2-3.85c-1.76-.76-3.79-1.1-5.74-1.77-1-.33-1.94-.66-2.93-.92s-2-.44-3-.72a20.86,20.86,0,0,1-5.51-2.69Z"/><path d="M43.58,21.73c2.79,1.36,5.77,1.92,8.75,2.83s5.76,2.35,8.75,3.11a21.41,21.41,0,0,1,4.5,1.4,15.17,15.17,0,0,1,3.9,2.72,59.46,59.46,0,0,1,6,7.13L75.4,39C73,37,71,34.63,68.74,32.6A20.62,20.62,0,0,0,65.12,30a36.79,36.79,0,0,0-4.22-1.73C59.45,27.65,58,27,56.56,26.56a40.13,40.13,0,0,0-4.47-1.15c-3-.74-6.11-1.59-8.57-3.59Z"/><path d="M70.39,23.17a4,4,0,0,0-1.71,1,7.92,7.92,0,0,0-1.86,1.42,4.83,4.83,0,0,1-2,1.24,3.46,3.46,0,0,1-2.41-.16v-.1l2.06-.81,2.07-.66a2.15,2.15,0,0,0,.95-.55,9.44,9.44,0,0,0,.6-1,1.7,1.7,0,0,1,2.35-.47Z"/><path d="M82.22,28.31a8.91,8.91,0,0,1-3,0,6.06,6.06,0,0,0-1.47-.2,3.24,3.24,0,0,0-1.38.47A10.45,10.45,0,0,1,73.64,30a5.42,5.42,0,0,1-3.14,0v-.11c1-.33,1.9-.6,2.8-.93a28.71,28.71,0,0,1,2.87-.85l1.53-.27a15.81,15.81,0,0,1,1.55-.34,5.92,5.92,0,0,1,3,.74Z"/><path d="M86.44,34.8a5.65,5.65,0,0,1-2.55,0,11.06,11.06,0,0,0-1.24-.38,3.83,3.83,0,0,0-1.26,0c-.87.19-1.62.24-2.39.45a4.33,4.33,0,0,1-2.63-.16v-.11c.86-.27,1.53-.58,2.38-.83a5.32,5.32,0,0,1,2.66.07,5,5,0,0,0,1.27.19c.43,0,.87-.13,1.3-.15a4.69,4.69,0,0,1,2.48.72Z"/><path d="M68.17,26.77c.41-.11.65-.09.8.11a1.6,1.6,0,0,0,.16.42.44.44,0,0,0,.38.07c.59-.11,1,0,1.22.84l0,.1a.93.93,0,0,1-1.46-.43c-.07-.14-.15-.25-.27-.28a2.58,2.58,0,0,0-.47,0c-.27-.07-.43-.34-.39-.78Z"/><path d="M70.31,26.25c.23-.33.5-.39.68-.25s.12.29.2.36.19.05.32,0c.54-.16.94.06.87.81l-.06.08c-.69.33-.92.12-1.07-.37,0-.12-.1-.22-.19-.22s-.24.12-.34.17-.29-.12-.43-.49Z"/><path d="M72.47,25.44c.27-.28.47-.33.61-.19s.09.28.16.35.17,0,.28,0c.45-.23.79-.16.91.59l0,.1c-.53.5-.84.34-1.05-.13-.06-.12-.12-.21-.21-.21s-.23.13-.33.17-.31-.15-.37-.55Z"/><path d="M74,24.92c.35-.19.6-.18.73,0s0,.31.12.4a.34.34,0,0,0,.32.07c.57-.09,1,.13.91.86l-.07.09c-.75.28-1,0-1.16-.47,0-.13-.09-.24-.19-.27a2,2,0,0,0-.4.07c-.22,0-.31-.25-.31-.67Z"/><path d="M76.8,25.54c.32-.25.56-.26.71-.1s.08.3.16.38.19.06.33,0c.54-.16,1,0,1,.72l-.06.09c-.71.39-1,.2-1.19-.3a.31.31,0,0,0-.21-.23c-.11,0-.26.09-.38.12s-.33-.19-.37-.61Z"/><path d="M76.62,30c.42-.06.68.05.79.3a2.32,2.32,0,0,0,.06.47.44.44,0,0,0,.34.2c.61.11,1,.45.86,1.3l-.08.07a1,1,0,0,1-1.19-1,.48.48,0,0,0-.17-.37,2.11,2.11,0,0,0-.45-.09c-.23-.13-.32-.4-.24-.84Z"/><path d="M77.85,30.08c.39-.06.61.05.67.28a2.08,2.08,0,0,0,0,.42c0,.11.14.16.28.19.55.14.85.5.52,1.17l-.09.06c-.81,0-1-.34-.91-.89a.39.39,0,0,0-.08-.33c-.09-.06-.28-.05-.4-.09s-.2-.35,0-.74Z"/><path d="M79.4,30.5c.41,0,.61.1.64.32a3,3,0,0,0-.08.39.35.35,0,0,0,.26.2c.53.15.77.48.41,1.14l-.09.06c-.78,0-.94-.38-.82-.91,0-.14,0-.25,0-.32a1.49,1.49,0,0,0-.39-.12c-.18-.13-.18-.36,0-.71Z"/><path d="M80.11,30.07c.39-.07.62,0,.7.26a2.11,2.11,0,0,0,0,.44c0,.11.15.15.3.18.56.11.9.46.64,1.19l-.09.06c-.81,0-1-.29-1-.87a.38.38,0,0,0-.11-.33c-.1-.06-.28,0-.41-.08s-.23-.35-.12-.77Z"/><path d="M82.06,30.79c.38-.12.61-.05.67.16a2.87,2.87,0,0,0,0,.39c0,.09.13.13.26.15.52.09.78.45.36,1.07l-.1,0c-.74,0-.85-.28-.73-.78,0-.12,0-.23-.06-.28a2.13,2.13,0,0,0-.37,0c-.18-.07-.19-.26-.06-.64Z"/><path d="M83.09,30.59c.43,0,.67.09.75.33a1.68,1.68,0,0,0,0,.45.43.43,0,0,0,.31.21c.58.14.9.48.69,1.28l-.08.07c-.79,0-1.06-.37-1.06-1a.51.51,0,0,0-.13-.36,1.89,1.89,0,0,0-.44-.11c-.21-.14-.27-.41-.13-.81Z"/><path d="M60.15,24c.43-.16.71-.16.93,0s.18.32.3.41a.65.65,0,0,0,.46,0,1.19,1.19,0,0,1,1.58.84l0,.1a1.27,1.27,0,0,1-1.74-.4.64.64,0,0,0-.38-.26,3.47,3.47,0,0,0-.52.08.8.8,0,0,1-.65-.76Z"/><path d="M63,24c.33-.31.59-.4.82-.28s.2.26.32.32a.44.44,0,0,0,.39-.07A.94.94,0,0,1,66,24.4v.11a1,1,0,0,1-1.54,0,.41.41,0,0,0-.35-.17,2.35,2.35,0,0,0-.42.21c-.27.05-.51-.1-.68-.49Z"/><path d="M66.08,23.37c.1-.35.2-.46.31-.36a2.37,2.37,0,0,0,.15.28s.1,0,.16-.11c.2-.35.41-.38.61.29v.11c-.2.64-.41.58-.61.18-.06-.09-.11-.16-.16-.13s-.1.19-.15.26-.21-.05-.31-.42Z"/><path d="M80.58,35.54a1.48,1.48,0,0,1,.92.89,3.62,3.62,0,0,0,.09.66,1,1,0,0,0,.43.45A1.94,1.94,0,0,1,83,39.87l-.1,0a2.56,2.56,0,0,1-1.32-2.06,1.07,1.07,0,0,0-.23-.58,5,5,0,0,0-.56-.39,1.3,1.3,0,0,1-.25-1.29Z"/><path d="M83.4,37.07c.42,0,.63.09.68.32a3.28,3.28,0,0,0,0,.43.41.41,0,0,0,.28.2c.55.14.82.47.53,1.22l-.08.06c-.78,0-1-.37-.92-.94a.4.4,0,0,0-.09-.35,3.08,3.08,0,0,0-.39-.11c-.2-.13-.22-.38-.05-.77Z"/><path d="M85,36.56c.46.07.71.23.8.52a2.8,2.8,0,0,0,0,.51.61.61,0,0,0,.35.29,1.16,1.16,0,0,1,.67,1.68l-.09,0a1.28,1.28,0,0,1-1.06-1.38.63.63,0,0,0-.15-.42,3,3,0,0,0-.48-.21.83.83,0,0,1-.16-1Z"/><path d="M85.77,36.76a1.27,1.27,0,0,1,1.07.65,6,6,0,0,0,.17.64,1.17,1.17,0,0,0,.45.4,1.89,1.89,0,0,1,1.1,2.13l-.1.05A2.18,2.18,0,0,1,87,38.8a1,1,0,0,0-.26-.54,3.49,3.49,0,0,0-.58-.29,1.34,1.34,0,0,1-.47-1.14Z"/><path d="M45.62,15.45c3.34,1,6,3.52,9.14,4.05s6.71.35,10.12.2a61.76,61.76,0,0,1,10.18.8c3.36.46,6.67,1,10,1.43V22a49,49,0,0,1-10.2-.45c-3.37-.42-6.69-1-10-1.3s-6.74.34-10.22.08a11.33,11.33,0,0,1-4.82-2c-1.43-.95-2.75-2-4.24-2.79Z"/><path d="M62,13.59a9.49,9.49,0,0,1-1.67,1.09,5.7,5.7,0,0,0-1,.37,2.71,2.71,0,0,0-.72.75,6.38,6.38,0,0,1-1.43,1.55,3.45,3.45,0,0,1-2.09.67l0-.1a18.34,18.34,0,0,1,1.44-1.47,9.53,9.53,0,0,1,1.74-1.1,3.1,3.1,0,0,0,.88-.57c.26-.24.45-.57.71-.84A2.26,2.26,0,0,1,62,13.49Z"/><path d="M52.94,13a1,1,0,0,1-.58.95,3.36,3.36,0,0,0-.58.09.77.77,0,0,0-.34.39A2,2,0,0,1,50,15.73l-.09-.05a1.25,1.25,0,0,1,.2-1.21,1.64,1.64,0,0,1,1-.53.85.85,0,0,0,.49-.21,3.16,3.16,0,0,0,.26-.52,1.1,1.1,0,0,1,1-.32Z"/><path d="M70.09,16.59a1.85,1.85,0,0,1-1.35.5,4.49,4.49,0,0,0-.71-.15,1.2,1.2,0,0,0-.64.28,4.09,4.09,0,0,1-2.51,1.1l-.07-.08a2.2,2.2,0,0,1,2.41-1.58,2,2,0,0,0,.74-.05c.22-.09.43-.28.67-.39a1.65,1.65,0,0,1,1.46.26Z"/><path d="M76.59,19.77c-.07.39-.19.55-.38.53a1.79,1.79,0,0,0-.34-.17c-.1,0-.16.09-.22.2-.21.48-.66.65-1.13.05l0-.1c.25-.7.49-.73,1-.49.11.05.22.08.29,0a2.15,2.15,0,0,0,.17-.34c.14-.15.37-.1.64.2Z"/><path d="M56,12.57c.31-.24.5-.28.62-.13a2.34,2.34,0,0,0,.13.35c.07.06.17,0,.29,0,.46-.2.88,0,.82.71l-.06.09c-.64.36-.84.21-1-.28,0-.11-.1-.2-.19-.21s-.24.11-.35.14-.31-.18-.31-.58Z"/><path d="M55.51,14.43c.31-.25.5-.29.62-.14s.06.28.13.35.17,0,.28,0c.47-.2.88,0,.82.71l0,.09c-.64.37-.85.21-1-.27,0-.12-.09-.21-.18-.22s-.24.11-.35.15-.31-.18-.31-.58Z"/><path d="M53.45,15.76c.3-.23.46-.28.54-.14s0,.26.06.32.13,0,.23,0c.39-.24.57-.23.7.46l0,.11c-.41.59-.78.43-.9,0,0-.11-.08-.19-.16-.19s-.21.11-.31.14-.26-.17-.2-.55Z"/><path d="M53.24,16.69c.32-.25.52-.3.64-.15s.07.28.13.34.18.05.29,0c.45-.22.74-.14.89.63l0,.1c-.51.49-.88.3-1.07-.19-.05-.12-.11-.21-.21-.22s-.24.11-.36.14-.32-.17-.33-.56Z"/><path d="M60,17.1c.36-.22.62-.24.79-.06s.11.3.19.38a.4.4,0,0,0,.36,0c.58-.14,1,0,1.13.78l0,.1c-.71.39-1.1.17-1.35-.36-.06-.12-.13-.22-.25-.24s-.29.08-.43.1-.4-.22-.45-.63Z"/><path d="M61.66,16.89c.24-.33.45-.42.63-.31s.17.26.26.31.19,0,.31-.06c.46-.29,1-.19,1.08.58l0,.09c-.6.46-.85.35-1.14-.1-.08-.11-.16-.18-.26-.17a2.7,2.7,0,0,0-.33.22c-.19.06-.36-.08-.51-.46Z"/><path d="M63.93,14.42c.35-.26.62-.29.84-.13s.17.3.27.38a.5.5,0,0,0,.4,0,.93.93,0,0,1,1.29.87l-.06.09a1,1,0,0,1-1.43-.42c-.09-.13-.18-.23-.31-.24a2,2,0,0,0-.44.14c-.26,0-.46-.19-.59-.61Z"/><path d="M63.24,15.36c.4-.08.58-.06.66.12a1.17,1.17,0,0,0,0,.38c.06.08.17.08.29.05.52-.13.75-.07.93.67l0,.1c-.57.52-1,.27-1.2-.28a.38.38,0,0,0-.19-.27c-.11,0-.29,0-.42,0s-.31-.33-.16-.71Z"/><path d="M70.37,17.35c.4-.23.7-.25.93-.08a2.46,2.46,0,0,0,.3.4.6.6,0,0,0,.44,0,1.15,1.15,0,0,1,1.52.78l0,.11a1.14,1.14,0,0,1-1.67-.35.61.61,0,0,0-.36-.25,3.22,3.22,0,0,0-.5.11c-.3,0-.53-.22-.66-.65Z"/><path d="M83.68,20.59c.18-.36.35-.48.53-.39s.18.23.27.27.18,0,.27-.12c.36-.37.72-.42,1.08.24v.11c-.36.65-.72.61-1.08.23-.09-.09-.18-.15-.27-.12s-.17.2-.27.27-.35,0-.53-.38Z"/><path d="M58.91,28.3a1,1,0,0,1-.57,1,5.21,5.21,0,0,0-.6.07.89.89,0,0,0-.4.37,1.48,1.48,0,0,1-2.05.54l0-.1a1.77,1.77,0,0,1,1.81-1,.69.69,0,0,0,.49-.14,2.38,2.38,0,0,0,.27-.5,1.15,1.15,0,0,1,1-.34Z"/><path d="M51.37,27.59c.19-.32.34-.41.44-.3s.07.25.13.3.12,0,.2-.08c.32-.31.57-.31.68.39l0,.1c-.37.59-.6.5-.77.08,0-.1-.09-.17-.16-.15s-.16.16-.23.22-.23-.08-.29-.45Z"/><path d="M62.81,31.3c.43-.16.72-.15.94,0s.18.32.31.41a.62.62,0,0,0,.45,0,1.32,1.32,0,0,1,1.68.55v.11a1.21,1.21,0,0,1-1.84-.11.7.7,0,0,0-.4-.25c-.15,0-.35.07-.53.08a.79.79,0,0,1-.65-.76Z"/><path d="M57.59,51.08c.46.1.66,0,1,.21.14.12.27.32.44.39a.8.8,0,0,0,.55,0,1.73,1.73,0,0,1,2.13.61l0,.11a1.86,1.86,0,0,1-2.2-.15,1,1,0,0,0-.53-.22,5.58,5.58,0,0,0-.63.11.88.88,0,0,1-.79-1Z"/><path d="M58.92,58a1.52,1.52,0,0,1,1,.83,4.39,4.39,0,0,0,.15.67,1.06,1.06,0,0,0,.48.43A2.42,2.42,0,0,1,62,62l-.08.08a2.18,2.18,0,0,1-1.82-1.8,1.24,1.24,0,0,0-.3-.58,5.42,5.42,0,0,0-.59-.36A1.4,1.4,0,0,1,58.83,58Z"/><path d="M57.18,58.61a40.88,40.88,0,0,1,.62,5.9c0,1,0,2,0,3a18.22,18.22,0,0,0,.56,2.91,21.25,21.25,0,0,1,1,5.93,8.78,8.78,0,0,1-.59,3,5.91,5.91,0,0,0-.53,2.8l-.1,0a4.74,4.74,0,0,1-.18-3,10.42,10.42,0,0,0,.27-2.82c0-1.9-.3-3.85-.47-5.83-.08-1-.17-2-.33-3l-.58-2.94a19.61,19.61,0,0,1,.16-6Z"/><path d="M56,74.09a1.23,1.23,0,0,1-.77.86,2.32,2.32,0,0,0-.59.06.73.73,0,0,0-.36.41,2.58,2.58,0,0,1-1.44,1.52l-.1,0a1.35,1.35,0,0,1,.13-1.3,1.75,1.75,0,0,1,1-.64,1.09,1.09,0,0,0,.53-.25,6.14,6.14,0,0,0,.33-.53A1.12,1.12,0,0,1,56,74Z"/><path d="M53.14,68.53a2,2,0,0,1-1.08,1,4.46,4.46,0,0,0-.73.13,1.2,1.2,0,0,0-.51.49A5.91,5.91,0,0,1,50,71.2a7.84,7.84,0,0,1-1.15.8l-.1,0a1.91,1.91,0,0,1,.43-1.53,2.64,2.64,0,0,1,1.31-.78,1.75,1.75,0,0,0,.66-.31c.18-.16.31-.42.49-.61a1.63,1.63,0,0,1,1.46-.29Z"/><path d="M51.72,72.16c.37,0,.55,0,.55.2s-.14.24-.13.33.09.12.21.14c.47.1.67.38.2.88l-.1,0c-.75,0-.83-.24-.62-.66,0-.1.06-.2,0-.25a2.63,2.63,0,0,0-.34-.06c-.14-.08-.1-.26.14-.57Z"/><path d="M52.44,71.76c.44.09.67.25.74.53a2.67,2.67,0,0,0,0,.49.54.54,0,0,0,.34.28,1.17,1.17,0,0,1,.87,1.46l-.08.07a1.13,1.13,0,0,1-1.26-1.19A.63.63,0,0,0,52.9,73a2.92,2.92,0,0,0-.47-.22.78.78,0,0,1-.09-1Z"/><path d="M53.56,71.23c.36-.09.54,0,.54.15a2.28,2.28,0,0,0-.12.33c0,.08.09.11.21.13.47.06.68.36.21.84l-.1,0c-.75,0-.81-.18-.62-.6,0-.1.07-.19,0-.23s-.23,0-.32,0-.1-.23.12-.56Z"/><path d="M54.8,70.3c.38-.08.57,0,.6.18a2.07,2.07,0,0,0-.08.37c0,.09.12.13.24.14.51.07.75.36.37,1l-.09.05c-.75.06-.88-.21-.76-.69,0-.12,0-.22,0-.27s-.25,0-.35,0-.16-.28,0-.64Z"/><path d="M55.22,69.49c.39,0,.58.11.56.3s-.15.25-.15.34.08.14.19.2c.47.19.61.59,0,1h-.1c-.71-.2-.72-.44-.47-.86.06-.1.09-.2,0-.26a1.5,1.5,0,0,0-.34-.12c-.14-.1-.09-.28.15-.59Z"/><path d="M54.71,76.72c.36.2.49.4.41.6s-.22.21-.25.32,0,.2.13.29c.39.39.45.76-.19,1.25h-.1c-.67-.33-.65-.78-.29-1.22a.33.33,0,0,0,.1-.32c0-.1-.2-.2-.28-.3s0-.42.36-.63Z"/><path d="M55.33,76.5c.42.15.61.34.6.59a2.49,2.49,0,0,0-.14.41.45.45,0,0,0,.22.31c.51.34.69.73.24,1.45l-.1,0A.91.91,0,0,1,55.46,78a.44.44,0,0,0,0-.39,3.13,3.13,0,0,0-.38-.28c-.16-.21-.13-.49.14-.8Z"/><path d="M56.35,76.81c.38,0,.52.16.45.29s-.21.14-.24.21,0,.11.14.15c.42.17.46.21,0,.68l-.1,0c-.71.06-.77-.35-.43-.63.08-.07.13-.14.09-.19a1.57,1.57,0,0,0-.29-.13c-.1-.1,0-.2.32-.39Z"/><path d="M58.83,62.2c.36.22.49.46.41.72a3,3,0,0,0-.26.4.49.49,0,0,0,.13.36.94.94,0,0,1-.18,1.51h-.11a.94.94,0,0,1-.29-1.48.42.42,0,0,0,.11-.37c0-.12-.2-.24-.28-.35s0-.49.36-.78Z"/><path d="M60.06,63.35a.83.83,0,0,1,.28.93,3.9,3.9,0,0,0-.32.42.72.72,0,0,0,.07.47A1.29,1.29,0,0,1,59.65,67h-.11a1.27,1.27,0,0,1,0-1.82.62.62,0,0,0,.17-.44,2.89,2.89,0,0,0-.22-.48c-.05-.3.1-.59.49-.86Z"/><path d="M61.09,65c.3.29.38.52.25.7s-.27.15-.33.25a.37.37,0,0,0,.05.33c.29.47.25.86-.48,1.19l-.11,0a.72.72,0,0,1,0-1.28.42.42,0,0,0,.18-.29c0-.11-.15-.25-.2-.37s.12-.41.5-.53Z"/><path d="M61.91,64.88c.36.21.48.42.39.62s-.23.21-.27.31a.35.35,0,0,0,.12.31c.37.41.42.82-.24,1.24H61.8c-.65-.42-.61-.83-.23-1.24a.35.35,0,0,0,.12-.31c0-.1-.2-.2-.27-.31s0-.41.38-.62Z"/><path d="M58.63,53.77c.37.16.5.31.43.47s-.21.17-.24.25,0,.16.14.24c.41.29.48.56-.14,1l-.1,0c-.68-.23-.68-.6-.34-1,.09-.09.14-.18.1-.25s-.21-.16-.3-.24,0-.35.34-.51Z"/><path d="M60.16,55.12c.29.31.36.55.22.74s-.27.17-.33.28a.39.39,0,0,0,.06.35c.29.5.3.86-.36,1.3h-.11a.8.8,0,0,1-.1-1.4.41.41,0,0,0,.18-.32c0-.12-.15-.26-.2-.39s.14-.45.54-.58Z"/><path d="M61.5,57.68c.36.11.49.22.41.34s-.22.11-.25.16,0,.11.13.17c.39.22.45.45-.19.67h-.1c-.68-.22-.65-.45-.29-.67.09-.06.14-.11.1-.17A1.74,1.74,0,0,0,61,58c-.09-.12,0-.23.36-.34Z"/><path d="M57,46.46c.42.17.61.38.62.67a2.2,2.2,0,0,0-.11.48.58.58,0,0,0,.26.35,1.12,1.12,0,0,1,.36,1.68l-.1,0a1.17,1.17,0,0,1-.8-1.5.55.55,0,0,0,0-.44c-.09-.12-.28-.19-.4-.31a.76.76,0,0,1,.11-.94Z"/><path d="M59.13,49c.37.1.52.25.46.42s-.2.21-.23.29,0,.16.16.23c.42.27.52.6-.08,1h-.1c-.71-.23-.71-.56-.4-.94.08-.09.13-.19.08-.26s-.21-.13-.3-.2,0-.33.3-.56Z"/><path d="M24.77,7.37a19.08,19.08,0,0,1-1.06,8.12A23.31,23.31,0,0,1,22,19.26c-.7,1.15-1.27,2.4-2.09,3.55a8.84,8.84,0,0,1-3.16,2.8,25.17,25.17,0,0,0-3.35,2.2A36.8,36.8,0,0,0,8.1,33.87,30.59,30.59,0,0,0,4.34,41a28.83,28.83,0,0,0-1.5,8c-.19,2.71-.18,5.44-.29,8.18a40.34,40.34,0,0,1-.37,4.09,18.31,18.31,0,0,1-.39,2,7.52,7.52,0,0,0-.36,1.93L1,65c4.42-3.4,6.85-9.09,11.94-12.21A17.15,17.15,0,0,0,18.83,47c1.48-2.37,2.63-5,3.9-7.53.63-1.29,1.32-2.57,2.07-3.79a30.41,30.41,0,0,0,1.88-3.74,18,18,0,0,0,1.58-8.12,9.83,9.83,0,0,0-1.09-3.94,22.2,22.2,0,0,1-1.84-3.91,10,10,0,0,1,.58-8.39l.09.06a9.89,9.89,0,0,0-.17,8.16,21.54,21.54,0,0,0,1.91,3.77A10.58,10.58,0,0,1,29,23.72a19,19,0,0,1-1.4,8.57,25.76,25.76,0,0,1-1.92,3.91c-.73,1.21-1.38,2.45-2,3.72a67.66,67.66,0,0,1-4,7.64,18.12,18.12,0,0,1-6.27,6A26.94,26.94,0,0,0,7.3,59.24c-1.85,2.13-3.57,4.49-6,6.18l-.61.42.18-.65c1.47-5.38,1.4-10.78,1.58-16.26A33.61,33.61,0,0,1,3.74,40.8a29.51,29.51,0,0,1,3.62-7.42,33,33,0,0,1,5.42-6.27c2.2-1.87,5-2.5,6.45-4.77.77-1.07,1.41-2.28,2.16-3.44a22,22,0,0,0,1.8-3.6,19.37,19.37,0,0,0,1.47-7.93Z"/><path d="M24.25,15.72c-.58,4-1.11,8.36-3.55,11.93S15.11,33.83,13,37.4,9.3,44.73,7.56,48.46C6,52.22,3.94,55.92,3.68,60.05H3.57a15.39,15.39,0,0,1,.78-6.2A52.67,52.67,0,0,1,6.56,48a64.51,64.51,0,0,1,6-10.94C15.05,33.76,18,30.74,20,27.18c2.18-3.43,2.9-7.54,4.19-11.49Z"/><path d="M16.33,37a3.12,3.12,0,0,1,1.08,2c0,.37-.06.76,0,1.13a5.21,5.21,0,0,0,.26,1.07,4.69,4.69,0,0,1-.48,4.31h-.1a9.11,9.11,0,0,1,0-4.25,2.7,2.7,0,0,0,0-1.06,5.51,5.51,0,0,0-.49-1A4.76,4.76,0,0,1,16.23,37Z"/><path d="M19.83,31a3.57,3.57,0,0,1,1.25,1.55c.09.32.12.69.24,1a3.08,3.08,0,0,0,.56.84,4,4,0,0,1,.95,1.86,2.92,2.92,0,0,1-.43,2.09l-.11,0a20.68,20.68,0,0,1-.93-3.68,2.43,2.43,0,0,0-.34-.92,8.12,8.12,0,0,0-.71-.73,2.86,2.86,0,0,1-.58-1.94Z"/><path d="M23.31,25.54a1.77,1.77,0,0,1,1.4.65c.14.23.22.52.36.73a2.71,2.71,0,0,0,.58.53,2.3,2.3,0,0,1,.9,1.37,2.16,2.16,0,0,1-.34,1.59h-.1a5.79,5.79,0,0,1-.94-2.64,1.14,1.14,0,0,0-.35-.62,3.14,3.14,0,0,0-.7-.3,2.09,2.09,0,0,1-.88-1.22Z"/><path d="M9.31,37.66a1.35,1.35,0,0,1-.58,1,2.25,2.25,0,0,0-.56.22.81.81,0,0,0-.26.5,2.26,2.26,0,0,1-1.25,1.84l-.1,0a1.65,1.65,0,0,1,.89-2.16,1.06,1.06,0,0,0,.45-.38c.1-.17.12-.42.21-.61a1.11,1.11,0,0,1,1.14-.48Z"/><path d="M24.25,21a1.33,1.33,0,0,1,1,.59,2.62,2.62,0,0,0,.18.58.91.91,0,0,0,.48.32,1.91,1.91,0,0,1,1,.73,1.44,1.44,0,0,1,.07,1.3l-.11,0a2.4,2.4,0,0,1-1.35-1.66.92.92,0,0,0-.3-.48,4.53,4.53,0,0,0-.59-.21,1.09,1.09,0,0,1-.42-1.14Z"/><path d="M61.81,47c1.47-2.73,4.36-4.17,6.76-5.87a9.33,9.33,0,0,1,4.36-1.47c1.51-.14,3-.24,4.52-.26a38,38,0,0,1,4.53.18,14.58,14.58,0,0,1,4.49,1,15.18,15.18,0,0,1,3.8,2.56,40.1,40.1,0,0,1,3.33,3.06c4.34,4.35,6.25,10.39,7.09,16.31a24.11,24.11,0,0,1-.68,9,20.2,20.2,0,0,1-1.66,4.27,8.68,8.68,0,0,1-3.1,3.53l0,0c-.69.5-1.41.76-1.86,1.19a2.11,2.11,0,0,0-.54.77A2.8,2.8,0,0,1,92,82.31l0,0h0c-.94.48-1.8.43-2.18.79a1.91,1.91,0,0,0-.44.8,2.47,2.47,0,0,1-.84,1.28l.06,0a9.06,9.06,0,0,1-3.67,1.6c-.62.16-1.18.31-1.78.52a6.53,6.53,0,0,1-2,.38c-1.49-.1-2.58-.8-3.72-1a31.74,31.74,0,0,0-3.71-.14,22.05,22.05,0,0,1-7.42-1.84,12.8,12.8,0,0,1-5.67-5l.09-.06a14.69,14.69,0,0,0,2.58,2.7,14.86,14.86,0,0,0,3.22,1.83,21.4,21.4,0,0,0,7.22,1.53,30.69,30.69,0,0,1,3.83,0c1.35.2,2.54.83,3.59.84a18.56,18.56,0,0,0,3.51-.88,8.31,8.31,0,0,0,3.21-1.37l0,0,0,0a1.59,1.59,0,0,0,.42-.75,2.89,2.89,0,0,1,.76-1.27c.92-.7,1.88-.57,2.36-.89l-.05,0a1.83,1.83,0,0,0,.56-.68,3.36,3.36,0,0,1,.78-1.06,20.75,20.75,0,0,1,2-1.22l0,0h0a7.76,7.76,0,0,0,2.78-3.1,19.68,19.68,0,0,0,1.71-4,23.48,23.48,0,0,0,1-8.75,32.48,32.48,0,0,0-2-8.66,20.27,20.27,0,0,0-4.94-7.31,37.66,37.66,0,0,0-3.41-2.86,16.18,16.18,0,0,0-3.69-2.32,13.54,13.54,0,0,0-4.24-.91,40.78,40.78,0,0,0-4.42-.25c-1.48,0-3,.07-4.45.18a8.86,8.86,0,0,0-4.11,1.22c-2.46,1.63-5.38,2.81-7,5.38Z"/><path d="M78.85,85.1a1,1,0,0,1,1-.07c.12.11.24.29.39.35a.53.53,0,0,0,.47-.07,2,2,0,0,1,1.78-.3l.06.08a1.2,1.2,0,0,1-.73.94,1.39,1.39,0,0,1-1.14-.14,1.07,1.07,0,0,0-.5-.17c-.17,0-.37.13-.55.16a.92.92,0,0,1-.84-.68Z"/><path d="M84.61,83.66c.23-.35.42-.46.59-.36s.17.24.26.28a.31.31,0,0,0,.29-.11c.39-.35.74-.38,1.11.29v.11c-.38.64-.79.57-1.15.18-.09-.09-.18-.16-.28-.13s-.2.18-.31.25-.38,0-.53-.41Z"/><path d="M25.32,35.51c1.57-.61,3.05-1.45,4.71-1.95a23.75,23.75,0,0,1,5.09-.6c1.72-.05,3.37-.08,5.1-.06a7.34,7.34,0,0,1,2.63.47,6.24,6.24,0,0,1,2.21,1.54,45.2,45.2,0,0,0,3.57,3.51,11,11,0,0,0,2.12,1.23,6.08,6.08,0,0,1,2.14,1.62A12.24,12.24,0,0,1,55,46c.38,1.67.79,3.29,1.21,4.94.76,3.26,1.57,6.73.62,10.11-1.11,3.36-4,5.69-6.71,7.61s-5.27,4.21-8.54,5.64A9.57,9.57,0,0,1,39,75c-.91.09-1.78,0-2.56,0s-1.55.36-2.51.38a14.41,14.41,0,0,1-2.62-.24h0a6.24,6.24,0,0,1-3.16-.84A15,15,0,0,1,27,73.47a6.93,6.93,0,0,0-1.24-.7l0,0a9.71,9.71,0,0,1-2.91-1.4,31.18,31.18,0,0,1-2.23-2.22,15.14,15.14,0,0,0-2.22-2,4.57,4.57,0,0,1-1.95-2.61c-.27-1-.61-2-.83-3l-.6-3-.42-3.07a8.91,8.91,0,0,1-.22-3.09h.1a8.93,8.93,0,0,0,.42,3l.61,3,.7,3c.23,1,.61,1.94.91,2.91a3.8,3.8,0,0,0,1.75,2.17,16.41,16.41,0,0,1,2.41,2,29.77,29.77,0,0,0,2.2,2.06,10.33,10.33,0,0,0,2.66,1.21h.05a7.89,7.89,0,0,1,1.4.78,14.56,14.56,0,0,0,1.2.86,5,5,0,0,0,2.64.66h0a14.15,14.15,0,0,0,2.43.22,6.6,6.6,0,0,0,1.16-.16A7.21,7.21,0,0,1,36.4,74c.92,0,1.74.06,2.52,0a8.81,8.81,0,0,0,2.3-.61c3-1.26,5.57-3.62,8.51-5.32,2.77-1.79,5.58-4,6.74-7.11,1-3.21.24-6.68-.62-9.9s-1.44-6.76-3.56-9.26c-1-1.2-2.77-1.49-4.21-2.62a31.14,31.14,0,0,1-3.66-3.59c-2.15-2.65-6-1.61-9.29-1.92a25.91,25.91,0,0,0-5,.37c-1.62.36-3.17,1.1-4.79,1.6Z"/><path d="M31.23,70.09a2.43,2.43,0,0,1,1.63.87,4.54,4.54,0,0,0,.5.76,1.48,1.48,0,0,0,.79.34c.57.06,1,0,1.64,0a4.46,4.46,0,0,1,1.79.49v.1a4.16,4.16,0,0,1-1.8.54,2.72,2.72,0,0,1-1.87-.61,4.44,4.44,0,0,0-.75-.58c-.27-.15-.6-.23-.89-.37a3,3,0,0,1-1.1-1.46Z"/><path d="M31,72.76c.34-.21.53-.26.66-.12s.1.28.18.34.19,0,.3,0c.45-.28.79-.27,1.1.43v.1c-.47.6-.9.5-1.22,0-.08-.11-.16-.19-.27-.19a2.93,2.93,0,0,0-.39.16c-.23,0-.4-.21-.4-.62Z"/><path d="M36.43,74c.06-.38.18-.54.36-.51s.22.17.31.18.15-.08.19-.19c.19-.47.37-.59,1-.19l0,.09c0,.74-.39.89-.83.64-.11-.05-.21-.08-.28,0a2.56,2.56,0,0,0-.16.33c-.13.14-.33.07-.59-.22Z"/><path d="M38.31,72.55c.36-.26.68-.28.9-.1s.17.3.28.39a.52.52,0,0,0,.41,0,1.12,1.12,0,0,1,1.49.51v.11a1,1,0,0,1-1.67-.08.6.6,0,0,0-.34-.24,2.77,2.77,0,0,0-.48.11c-.28,0-.47-.2-.62-.62Z"/><path d="M72.78,77.59c.2-.32.43-.39.56-.25s.08.27.13.34.16,0,.27,0c.47-.18.85.07.61.75l-.08.08c-.67.26-.75.14-.81-.32,0-.11,0-.2-.13-.2s-.2.13-.28.18-.21-.1-.29-.47Z"/><path d="M66.59,81.81c.17-.36.3-.49.49-.42s.2.22.29.25.18,0,.29-.12a.62.62,0,0,1,.81,0,.59.59,0,0,1,0,.86l-.1,0a1.1,1.1,0,0,0-.58,0,1.54,1.54,0,0,0-.18-.31c-.07-.1-.16-.15-.24-.12s-.15.21-.23.29-.38,0-.57-.35Z"/><path d="M65.89,82.74c.19-.32.31-.41.39-.3a1.6,1.6,0,0,0,.08.3c0,.05.11,0,.18-.06.31-.31.67-.2.49.48l-.06.09c-.5.45-.52.4-.6,0,0-.1-.05-.17-.11-.16s-.14.16-.21.22-.18-.08-.19-.45Z"/><path d="M69.68,83.76c0-.36.16-.47.2-.37s0,.24,0,.28,0,0,.1-.1.17-.23.21-.22,0,.18,0,.51V84a.7.7,0,0,1-.28.46s-.06-.09,0-.29,0-.16,0-.13-.07.18-.1.25,0,0,0-.39Z"/><path d="M70.5,82.63c.08-.35.16-.47.24-.38a2.38,2.38,0,0,0,.12.27s.08,0,.13-.11c.19-.36.5-.35.46.33l0,.1c-.34.58-.35.54-.47.15,0-.09-.06-.16-.1-.13a1.78,1.78,0,0,0-.12.27c-.07.08-.14,0-.22-.39Z"/><path d="M63.09,80.78c.14-.38.36-.51.57-.43s.2.24.29.28a.39.39,0,0,0,.31-.09.71.71,0,0,1,.7-.13.68.68,0,0,1,.33.8l-.08.07c-.37.09-.46.21-.61.2a.9.9,0,0,1-.41-.37c-.07-.1-.16-.17-.26-.14s-.18.19-.27.26-.33,0-.56-.35Z"/><path d="M63.93,80c.16-.33.21-.45.27-.35a1.38,1.38,0,0,0,.11.27s.08,0,.11-.12.1-.29.15-.3.1.16.34.41l.07.07a.54.54,0,0,1-.15.62c-.12,0-.25,0-.37-.22s-.1-.15-.15-.12-.1.2-.16.27-.24-.06-.25-.43Z"/><path d="M62.8,78c.19-.32.3-.42.35-.32s0,.24,0,.28.09,0,.16-.09c.27-.32.43-.33.39.33l0,.1c-.35.59-.49.52-.53.12,0-.09,0-.15-.08-.13s-.14.16-.2.23-.15-.07-.12-.42Z"/><path d="M64.94,77.39c.09-.36.21-.47.31-.37s.06.24.1.29.1,0,.17-.09c.29-.32.72-.12.39.49l-.08.08c-.56.37-.44.41-.47,0,0-.1,0-.16-.07-.14s-.11.18-.15.25-.11,0-.2-.4Z"/><path d="M65.48,79.13c.39-.22.68-.24.92-.07s.19.32.31.4a.55.55,0,0,0,.44,0,1.1,1.1,0,0,1,1.43,1l-.06.09A1.19,1.19,0,0,1,66.94,80a.57.57,0,0,0-.35-.25,2.25,2.25,0,0,0-.49.1c-.29,0-.53-.22-.66-.65Z"/><path d="M70.5,80.88c0-.36.16-.47.21-.37s0,.24,0,.28.06,0,.12-.08.26-.18.35-.12a.4.4,0,0,1-.23.55h-.11a.39.39,0,0,0-.36.34s.08,0,.13-.23,0-.15,0-.13a1.91,1.91,0,0,0-.09.26c0,.08,0,0,0-.39Z"/><path d="M68.55,79c.15-.36.3-.48.45-.39s.15.23.22.28.15,0,.24-.1c.32-.36.8-.31.85.42l0,.1c-.49.51-.6.46-.86,0-.06-.09-.13-.16-.2-.13s-.15.19-.23.26-.28,0-.43-.39Z"/><path d="M73.69,81.19c.07-.35.19-.47.27-.37s.05.24.07.29.09,0,.16-.08.3-.17.41-.09a.43.43,0,0,1-.14.59l-.09,0a.72.72,0,0,0-.42.28,1.09,1.09,0,0,0,0-.28c0-.09,0-.16,0-.13a.83.83,0,0,0-.13.25c-.06.08-.08,0-.14-.4Z"/><path d="M72.77,83.15c0-.36.09-.47.14-.39S73,83,73,83s0,0,.08-.11.18-.25.28-.22.16.27,0,.56l-.08.08a.63.63,0,0,0-.25.44s0-.08,0-.28,0-.15,0-.12,0,.19-.07.26-.08,0-.12-.38Z"/><path d="M72.56,84.7c0-.36.18-.46.2-.36s0,.23,0,.27,0,0,.09-.08c.23-.31.38-.25,0,.28l-.07.08c-.45.48-.36.49-.19.15,0-.08.06-.14,0-.11a1.61,1.61,0,0,0-.1.25c0,.09.09,0,.08-.38Z"/><path d="M74.51,83.56c.11-.36.22-.47.34-.39a1.6,1.6,0,0,0,.16.27c.06,0,.11,0,.17-.12.22-.37.45-.42.67.24v.11c-.22.65-.45.61-.67.23-.06-.09-.11-.15-.17-.12s-.11.2-.16.27-.23,0-.34-.38Z"/><path d="M74.82,85.31c0-.36.07-.48.11-.39a1.46,1.46,0,0,0,0,.27s0,0,0-.12c.07-.37.14-.42.2.24v.1c-.06.66-.13.62-.2.24,0-.09,0-.15,0-.12a1.64,1.64,0,0,0,0,.27c0,.09-.07,0-.11-.39Z"/><path d="M76.47,83.66c0-.36,0-.48.08-.39a1.56,1.56,0,0,0,0,.27s0,0,0-.12c.05-.38.1-.42.15.24v.1c0,.66-.1.62-.15.24,0-.09,0-.15,0-.12a1.73,1.73,0,0,0,0,.27c0,.09,0,0-.08-.39Z"/><path d="M87.94,78.18c.31.19.37.35.25.4a3,3,0,0,0-.3,0s0,.08,0,.17c.23.35.09.6-.51.26l-.07-.07c-.37-.57-.3-.58.09-.5.1,0,.17,0,.16,0s-.14-.16-.19-.22.08-.09.44,0Z"/><path d="M84.61,80.16c0,.37,0,.51-.15.44s-.13-.2-.18-.24-.07,0-.1.14c-.11.4-.15.45-.49-.13l0-.1c0-.68.23-.69.43-.34,0,.08.1.13.13.1a1.84,1.84,0,0,0,.06-.29c0-.1.12,0,.3.32Z"/><path d="M84.43,81.79c.23.27.29.39.2.35s-.18-.14-.22-.16,0,0,0,.13.07.29,0,.34-.29-.09-.34-.43v-.11c0-.34-.13-.44-.17-.47s0,.08.15.22.12.1.11.07-.12-.16-.16-.22.06,0,.34.21Z"/><path d="M89.64,80.37c.1-.36.19-.48.27-.39s.1.22.15.26.09,0,.12-.13c.1-.4.1-.45.56.06l.05.09c.12.68-.26.77-.53.42-.07-.08-.12-.13-.17-.1s-.09.2-.14.28-.21,0-.31-.39Z"/><path d="M89.9,77.44c.35,0,.47.1.39.14l-.27.08s0,0,.13.06c.39,0,.4,0-.16.31l-.09,0c-.65.18-.7-.13-.33-.29.09,0,.14-.07.11-.1s-.2,0-.27-.08,0-.12.38-.17Z"/><path d="M92,78.06c.35.07.47.14.38.21a2.49,2.49,0,0,0-.27.11s0,.07.11.11c.37.16.34.53-.34.41l-.09-.05c-.56-.37-.54-.28-.15-.4.09,0,.16,0,.13-.09a2.64,2.64,0,0,0-.27-.1c-.09-.07,0-.13.39-.2Z"/><path d="M93.19,76.61c.35,0,.47,0,.39,0a1.09,1.09,0,0,0-.26.1s0,0,.12,0c.33-.18.31-.27,0,.29l-.08.07c-.48.45-.62.25-.37-.07.06-.08.11-.12.06-.14a1.52,1.52,0,0,1-.28,0c-.11,0,0-.18.36-.22Z"/><path d="M96.17,77c.32.19.33.43.17.47s-.25-.08-.31-.08-.06.08-.06.18c0,.44-.41.55-.57-.12v-.1c.14-.67.07-.61.31-.3.05.07.11.11.12.06a.66.66,0,0,0-.15-.22c-.06-.07,0,0,.39.08Z"/><path d="M79.87,82.22c.06-.35.13-.47.2-.38a2.39,2.39,0,0,0,.1.26s.07,0,.11-.11c.13-.38.27-.42.41.23v.11c-.14.66-.28.61-.41.24,0-.1-.07-.15-.11-.12a2,2,0,0,0-.1.27c-.07.08-.14,0-.2-.39Z"/><path d="M79,80.37c0-.36.1-.48.15-.39a2.3,2.3,0,0,0,.08.27s0,0,.08-.12c.1-.37.21-.42.31.24v.1c-.1.66-.21.62-.31.24,0-.09,0-.15-.08-.12s0,.2-.08.27-.1,0-.15-.39Z"/><path d="M63.64,74.31c.33-.23.5-.28.55-.15a1.53,1.53,0,0,0,0,.31c0,.06.12,0,.22,0,.4-.21.57-.17.54.56l0,.1c-.47.49-.74.29-.78-.16,0-.11,0-.19-.12-.19s-.22.1-.32.13-.23-.17-.12-.51Z"/><path d="M63.85,72.26c.29-.21.4-.26.36-.17s-.14.19-.16.24,0,0,.13,0c.32-.19.39-.16,0,.38l-.08.07c-.51.4-.54.29-.32,0,.05-.08.08-.14.05-.13a1,1,0,0,0-.24.13c-.09,0,0-.1.21-.37Z"/><path d="M65.09,73.08c.35-.11.47-.16.46,0a1.37,1.37,0,0,0-.1.28c0,.06.09.05.19,0,.38-.16.59,0,.27.58l-.07.07c-.6.33-.68.2-.59-.22,0-.1,0-.18,0-.19a2.6,2.6,0,0,0-.31.07c-.14,0-.15-.21.1-.5Z"/><path d="M63.85,70.71c.3-.21.44-.25.43-.15a1.65,1.65,0,0,0-.11.26s.07,0,.16,0c.36-.18.5-.13.14.43l-.08.07c-.56.38-.63.26-.47-.09,0-.08,0-.15,0-.15s-.19.1-.27.13-.08-.11.12-.4Z"/><path d="M66,70.91c.36-.21.6-.2.74,0s.07.31.14.4a.39.39,0,0,0,.33.08c.57-.08,1,.22.86,1l-.07.08c-.75.18-1,0-1.11-.59a.34.34,0,0,0-.19-.27,2.2,2.2,0,0,0-.41.07c-.22,0-.34-.24-.35-.65Z"/><path d="M68.17,73.91c.37-.12.55-.11.56,0a1.35,1.35,0,0,0-.08.3c0,.07.1.08.22.06.45-.06.62.07.33.72l-.07.08c-.64.27-.81,0-.7-.41,0-.11,0-.2,0-.22s-.24,0-.34,0-.15-.22,0-.52Z"/><path d="M70.4,77.08c.09-.34.2-.44.29-.33s.08.24.12.29S70.9,77,71,77c.25-.34.51-.32.48.34l0,.1c-.37.59-.44.54-.54.13,0-.09-.06-.16-.1-.14s-.1.18-.15.24-.13-.06-.22-.43Z"/><path d="M64.07,64.78c.38.1.51.19.44.28s-.21.12-.24.17,0,.1.14.13c.41.16.47.29-.13.65l-.1,0c-.68,0-.68-.33-.35-.59.09-.07.13-.13.1-.18a2.15,2.15,0,0,0-.3-.14c-.1-.11,0-.23.34-.34Z"/><path d="M65.41,65.3c.36,0,.47-.06.4,0a2.39,2.39,0,0,0-.24.13s0,0,.13,0c.38,0,.47.2-.19.33H65.4c-.65,0-.61,0-.26-.19.08,0,.13-.07.09-.09s-.19,0-.27,0,0-.16.35-.24Z"/><path d="M63.81,48.88c0-.35,0-.47,0-.38v.26s0,0,0-.11c0-.38,0-.42,0,.23V49c0,.65,0,.61,0,.24,0-.09,0-.15,0-.12v.27c0,.08,0,0,0-.39Z"/><path d="M64.74,50.84c0-.35.05-.47.08-.39s0,.23,0,.27,0,0,0-.12c0-.37.11-.41.16.24V51c0,.65-.11.61-.16.23,0-.09,0-.14,0-.11s0,.19,0,.27,0,0-.08-.39Z"/><path d="M64.85,52.89c.09-.35.26-.46.35-.34s0,.25.08.3.1,0,.19-.05c.35-.26.68-.07.33.52l-.07.08c-.59.34-.54.33-.5-.08,0-.09,0-.16-.06-.15a.91.91,0,0,0-.16.24c-.07.07-.08,0-.16-.41Z"/><path d="M65.25,55.16c0-.36,0-.47,0-.39V55s0,0,0-.12c0-.37,0-.42,0,.24v.11c0,.65,0,.61,0,.23,0-.09,0-.15,0-.12v.27c0,.09,0,0,0-.38Z"/><path d="M64.85,57.43c0-.36,0-.48,0-.39l0,.27v-.12c0-.38,0-.42,0,.24v.1c0,.66,0,.62,0,.24v-.12l0,.27c0,.09,0,0,0-.39Z"/><path d="M64.12,61.13c0-.36.09-.48.13-.39a1.5,1.5,0,0,0,.07.27s0,0,0-.13,0-.27,0-.27a.67.67,0,0,0,.26.43l.07.08c.18.29.1.48,0,.56s-.19,0-.27-.22-.07-.14-.09-.11a2.56,2.56,0,0,0-.07.27c0,.09-.1,0-.15-.39Z"/><path d="M64.64,62.77c0-.35,0-.47.08-.38s0,.23,0,.26,0,0,0-.11c0-.38.1-.42.15.23v.11c0,.66-.1.61-.15.24,0-.09,0-.15,0-.12s0,.19,0,.27,0,0-.08-.39Z"/><path d="M64.74,59.38c0-.36,0-.48.05-.39l0,.27s0,0,0-.12c0-.37.07-.42.1.24v.11c0,.65-.07.61-.1.23,0-.09,0-.15,0-.12l0,.27c0,.09,0,0-.05-.38Z"/><path d="M65.91,62.27c.27-.23.33-.34.27-.27s-.13.19-.15.22,0,0,.07-.1c.19-.33,0-.42,0,.24v.11c-.12.65-.36.54-.25.17,0-.09,0-.15,0-.13a1.24,1.24,0,0,1-.2.19c-.09,0-.06-.09.19-.35Z"/><path d="M66.13,64.14c.34-.11.47-.11.42,0a1.86,1.86,0,0,0-.2.2s.05,0,.14,0c.39-.06.48,0-.06.42l-.09,0c-.64.18-.65.06-.37-.2.07-.07.11-.12.07-.14l-.28,0c-.1,0,0-.12.27-.33Z"/><path d="M66.21,67.62c.27-.23.42-.27.45-.14a2,2,0,0,0,0,.31c0,.06.09,0,.18,0,.37-.19.54-.11.33.56l0,.08c-.52.43-.65.28-.6-.16,0-.1,0-.18,0-.18s-.18.1-.26.13-.14-.14,0-.5Z"/><path d="M66.3,69.67c.18-.32.31-.41.38-.3a1.6,1.6,0,0,0,.08.3s.1,0,.17-.07c.3-.31.52-.3.5.38l0,.1c-.4.57-.55.48-.63.07,0-.1,0-.17-.11-.15s-.14.16-.21.22-.17-.08-.18-.45Z"/><path d="M69.89,68.33c.22-.32.5-.36.62-.2s0,.3.1.37.15.08.27.07c.51-.07.88.36.39.93l-.1,0c-.71,0-.72-.07-.67-.54,0-.11,0-.2-.09-.21s-.21.09-.3.13-.16-.11-.24-.49Z"/><path d="M71.24,70.8c.26-.28.43-.34.53-.2s0,.26.08.32.14,0,.24,0c.4-.22.77-.07.6.63l-.06.09c-.6.37-.71.26-.79-.19,0-.11,0-.19-.13-.19s-.19.13-.28.17-.23-.13-.23-.51Z"/><path d="M70.5,74.2c0-.36.07-.48.1-.39s0,.23.06.27,0,0,0-.12c.07-.38.14-.42.21.24v.1c-.07.66-.14.61-.21.24,0-.09,0-.15,0-.12s0,.19-.06.27-.07,0-.1-.39Z"/><path d="M68.07,76.06c.31-.2.44-.23.43-.12a1.71,1.71,0,0,0-.11.27c0,.05.07,0,.16,0,.36-.17.5-.1.14.47l-.08.08c-.56.36-.63.23-.47-.14,0-.09,0-.16,0-.16a1.65,1.65,0,0,0-.26.11c-.12,0-.08-.13.12-.43Z"/><path d="M76.91,76.26c.3-.23.5-.25.58-.09s0,.28,0,.35.13.07.25,0c.47-.08.8.25.39.84l-.09.06c-.7.11-.74,0-.69-.46,0-.11,0-.2-.07-.22a1.52,1.52,0,0,0-.32.11c-.15,0-.2-.17-.13-.55Z"/><path d="M76.92,78.73c.27-.23.42-.25.37-.16l-.19.2s0,0,.12,0,.24-.15.16-.22-.32.06-.29.4V79c0,.35-.28.43-.43.36s-.09-.21.07-.34.11-.1.08-.1l-.24.14c-.07,0,0,0,.27-.28Z"/><path d="M85.42,76.15c.06-.35.12-.47.18-.38a2.83,2.83,0,0,0,.09.27s.06,0,.09-.12c.12-.38.24-.42.36.23v.11c-.12.66-.24.61-.36.24,0-.09-.06-.15-.09-.12a2.12,2.12,0,0,0-.09.27c-.06.08-.12,0-.18-.39Z"/><path d="M88.2,75.94c0-.35.19-.46.27-.34a1.48,1.48,0,0,1,0,.29s.07,0,.16,0c.39-.16.58.07,0,.42l-.1,0c-.64.19-.55.26-.3,0,.06-.07.08-.13,0-.11a.65.65,0,0,0-.11.25c0,.09,0,0,0-.39Z"/><path d="M89.64,74.4c0-.36.23-.45.24-.34s0,.23,0,.27,0,0,.1-.09.16-.22.15-.23a.72.72,0,0,0-.13.49v.11c0,.34-.22.43-.29.45s-.07-.11,0-.3,0-.14,0-.12a.89.89,0,0,0-.12.24c0,.08.09,0,.08-.38Z"/><path d="M90.9,72.87c.26-.26.37-.33.39-.22a1.57,1.57,0,0,0,0,.29s.08,0,.16,0c.3-.27.61-.12.3.49l-.07.08c-.55.39-.52.37-.5,0,0-.1,0-.17,0-.17a3,3,0,0,0-.24.18c-.12,0-.15-.12,0-.46Z"/><path d="M93.5,73.83c.35.07.47.14.39.21s-.23.07-.27.1,0,.07.11.11c.38.14.42.28-.23.41h-.11c-.65-.13-.61-.27-.24-.41.1,0,.15-.07.12-.11s-.19-.06-.27-.1,0-.14.39-.21Z"/><path d="M95.64,74.49c.25.26.32.35.25.3l-.22-.16a.3.3,0,0,0,.1.07.21.21,0,0,0,.3,0,1.63,1.63,0,0,0-.51,0h-.11c-.34,0-.46,0-.51-.11a.25.25,0,0,1,.34-.16c.09,0,.14,0,.13,0l-.17-.21c0-.08.05,0,.32.21Z"/><path d="M95.35,72.09c.35,0,.47,0,.39,0l-.27,0s0,0,.12,0c.37,0,.42.07-.24.1h-.11c-.65,0-.61-.07-.23-.1.09,0,.15,0,.11,0l-.26,0c-.09,0,0,0,.38,0Z"/><path d="M97,68.38c.36,0,.48,0,.39,0h-.27s0,0,.12,0c.38,0,.42,0-.24,0h-.1c-.66,0-.61,0-.24,0,.09,0,.15,0,.12,0H96.5c-.09,0,0,0,.39,0Z"/><path d="M94.68,66.07c0-.36.07-.48.12-.39l0,.28s0,0,.1-.1c.21-.35.53-.19.1.33l-.08.07c-.5.44-.28.53-.18.16,0-.09,0-.15,0-.12a1.33,1.33,0,0,0,0,.26c0,.09,0,0,0-.39Z"/><path d="M92.14,67.94c.27-.24.37-.31.33-.23l-.15.23s0,0,.1-.07.17-.21.15-.23a.58.58,0,0,0-.15.48v.11c0,.34-.24.42-.34.43s-.1-.14,0-.33.06-.14,0-.12-.15.12-.22.16,0-.07.19-.35Z"/><path d="M91.9,70.7c0-.36.28-.47.39-.23s-.11.27-.14.31,0,.06.11.13c.33.26.17.53-.32.08l-.08-.08c-.42-.51-.51-.32-.16-.14.08,0,.14,0,.11.06a.29.29,0,0,0-.17.24c.08.2.3.09.26-.27Z"/><path d="M88.1,71.73c0-.35.08-.48.15-.38a1.24,1.24,0,0,1,0,.3s.07,0,.18,0,.36.07.37.15-.16.17-.49.2h-.11c-.34,0-.46,0-.5,0s.11.1.3,0,.11-.1.11-.06a.86.86,0,0,0-.05.26c0,.09,0,0,0-.38Z"/><path d="M85.94,73.37c.06-.36.12-.48.18-.39a2.12,2.12,0,0,0,.09.27s.06,0,.09-.12c.12-.37.24-.42.36.24v.1c-.12.66-.24.62-.36.24,0-.09-.06-.15-.09-.12a2.83,2.83,0,0,0-.09.27c-.06.09-.12,0-.18-.39Z"/><path d="M81.75,75.55c.27-.24.43-.24.39-.13s-.17.16-.2.2,0,0,.14,0c.4,0,.45.22-.21.25h-.1c-.66-.09-.61,0-.24-.09.08,0,.13-.06.1,0a.93.93,0,0,0-.23.13c-.07.06,0,0,.28-.26Z"/><path d="M81.42,77.81c.06-.36.2-.47.25-.36a1.68,1.68,0,0,1,0,.29s.07,0,.13-.09c.26-.3.41-.27.22.36l0,.1c-.38.54-.43.47-.37.09,0-.09,0-.16,0-.13a1.33,1.33,0,0,0-.12.24c0,.08,0,0-.06-.4Z"/><path d="M79.45,72.55c.11-.36.25-.47.35-.37s.08.24.13.29.11,0,.18-.08c.31-.32.69-.2.5.48l-.06.08c-.51.45-.5.42-.58,0,0-.1,0-.16-.1-.14s-.13.17-.17.24-.15,0-.25-.4Z"/><path d="M76.47,73.37c0-.36.17-.46.19-.36a2,2,0,0,1,0,.28s0,0,.1-.08c.25-.3.42-.21,0,.28l-.08.07c-.49.44-.39.48-.2.15l0-.11a1,1,0,0,0-.1.25c0,.09.09,0,.08-.38Z"/><path d="M84,70.91c.3-.22.4-.3.38-.22a1.56,1.56,0,0,0-.11.24s0,0,.12-.06c.3-.26.33-.29.12.34l0,.1c-.38.53-.52.4-.4,0,0-.09,0-.15,0-.14s-.17.13-.25.17-.09-.1.12-.38Z"/><path d="M86.24,68.44c0-.36.07-.48.11-.39a1.46,1.46,0,0,0,.05.27s0,0,0-.12c.07-.37.14-.42.21.24v.11c-.07.65-.14.61-.21.23,0-.09,0-.15,0-.12a1.59,1.59,0,0,0-.05.28c0,.08-.07,0-.11-.39Z"/><path d="M96.89,61l.39,0H97s0,0,0-.16a.59.59,0,0,0-.13-.34c0,.06,0,.18,0,.52v.1c0,.34,0,.46-.07.51s-.17-.07-.21-.36c0-.13,0-.18,0-.2l-.27,0c-.09,0,0-.06.39-.07Z"/><path d="M98.65,61.9c.35,0,.47,0,.38.05l-.27,0,.12,0c.38,0,.42.07-.23.11h-.11c-.66,0-.61-.07-.24-.11l.12,0-.27,0c-.09,0,0,0,.39-.05Z"/><path d="M22.87,67.72c.26-.3.43-.38.58-.26s.12.26.2.31.17,0,.28-.06c.39-.31,1-.15.92.63l-.06.08c-.63.35-.71.31-1-.14-.06-.11-.14-.18-.23-.17s-.21.15-.31.21-.36-.11-.43-.5Z"/><path d="M23.89,69.36c.06-.35.16-.47.23-.37s0,.24.06.28.06,0,.13-.09c.22-.34.58-.19.24.4l-.08.07c-.5.44-.35.49-.33.09,0-.1,0-.16,0-.13a1.53,1.53,0,0,0-.11.25c0,.08-.05,0-.11-.39Z"/><path d="M26.57,70.9c0-.36.23-.45.27-.32a.85.85,0,0,1-.08.28s0,0,.12-.06.18-.21.11-.25-.23.12-.21.46v.1c0,.34-.2.45-.33.43s-.12-.18,0-.33.09-.12.06-.1a.76.76,0,0,0-.12.24c0,.11.18,0,.16-.35Z"/><path d="M35.12,63.59c.19-.31.36-.38.44-.26s0,.26.06.32.1,0,.2,0c.37-.23.57-.16.44.51l0,.09c-.49.49-.66.34-.66-.08,0-.1,0-.18-.08-.17s-.16.14-.23.19-.14-.08-.15-.45Z"/><path d="M35.62,65.66c0-.36,0-.48,0-.39v.27s0,0,0-.12c0-.38,0-.42.06.24v.1c0,.66,0,.62-.06.24,0-.09,0-.15,0-.12v.27c0,.09,0,0,0-.39Z"/><path d="M35.12,68.23c.17-.32.3-.41.37-.3a1.6,1.6,0,0,0,.08.3s.1,0,.17-.08c.28-.31.48-.3.51.39l0,.1c-.35.59-.53.5-.63.08,0-.1-.06-.17-.11-.16s-.14.17-.21.23-.18-.09-.19-.46Z"/><path d="M35.1,70.08c0-.36,0-.48,0-.39V70s0,0,0-.12c0-.38,0-.42.05.24v.1c0,.66,0,.62-.05.24,0-.09,0-.15,0-.12v.27c0,.09,0,0,0-.39Z"/><path d="M41.49,70c.1-.35.16-.48.26-.4a1.25,1.25,0,0,0,.18.24c.06,0,.1,0,.12-.14.09-.42.17-.5.65,0l0,.1c.09.68-.23.76-.55.46-.09-.08-.15-.12-.2-.08s-.08.21-.14.29-.26,0-.37-.36Z"/><path d="M54.6,54c.37.1.5.21.42.31s-.22.1-.26.15,0,.11.13.16c.4.21.46.41-.18.62H54.6c-.67-.21-.64-.41-.29-.62.09-.05.14-.1.11-.16a1.77,1.77,0,0,0-.28-.15c-.1-.1,0-.21.36-.31Z"/><path d="M53.37,57.48c.36.09.47.21.38.3a3,3,0,0,0-.29.11s0,.09.1.15c.34.26.36.34-.29.47h-.11c-.65-.21-.57-.48-.17-.56.09,0,.16-.06.13-.11a1.39,1.39,0,0,0-.25-.14c-.08-.09,0-.14.4-.22Z"/><path d="M54,59.54c.36.12.48.24.39.36s-.23.12-.27.18,0,.12.12.18c.38.24.42.48-.24.72h-.1c-.66-.24-.61-.48-.24-.72.09-.06.15-.12.12-.18s-.19-.12-.27-.18,0-.24.39-.36Z"/><path d="M51.83,61.49c.36,0,.46.17.36.2s-.23,0-.28,0,0,0,.09.1c.29.24.22.41-.29,0l-.07-.08c-.46-.47-.48-.38-.15-.2l.11,0-.25-.1c-.09,0,0,.09.38.08Z"/><path d="M52.75,63.24c.36,0,.47.13.37.18s-.24,0-.28,0,0,.06.08.13a.25.25,0,0,1,0,.4c-.13,0-.39,0-.44-.37v-.1c0-.35-.17-.44-.25-.43s0,.15.15.24.14,0,.11,0a1.05,1.05,0,0,0-.25-.08c-.09,0,0,0,.38,0Z"/><path d="M50.49,64.5c.24.28.25.46.1.48s-.23-.09-.3-.09,0,.09,0,.19c.07.43-.22.62-.61.06l0-.1c-.06-.68,0-.64.31-.43.08.06.15.08.16,0a1.18,1.18,0,0,0-.11-.27c0-.11.1-.06.44.07Z"/><path d="M47.91,67.7c.23.28.34.33.25.31a1.35,1.35,0,0,0-.26-.09s0,0,.09.1c.33.21.39.1-.28.16h-.1c-.66-.12-.56-.42-.16-.38.1,0,.16,0,.14,0s-.14-.15-.18-.22.12-.13.42.08Z"/><path d="M44.94,69c.35,0,.47,0,.39,0l-.27,0s0,0,.12,0c.37,0,.42.07-.24.1h-.11c-.65,0-.61-.07-.23-.1.09,0,.15,0,.12,0l-.27,0c-.09,0,0,0,.38,0Z"/><path d="M44.31,70.79c.23.27.29.37.21.33L44.31,71s0,0,0,.11c.23.3.22.37-.27-.07L44,70.91c-.41-.51-.35-.51-.06-.27.07.06.12.09.11.06s-.12-.15-.16-.22.05,0,.32.23Z"/><path d="M16.23,54.49c.36,0,.48,0,.39,0h-.27s0,0,.12,0c.37,0,.42,0-.24.05h-.11c-.65,0-.61,0-.23-.05.09,0,.15,0,.12,0h-.27c-.09,0,0,0,.38,0Z"/><path d="M16.73,52.4c.28-.22.39-.28.35-.2s-.14.19-.16.23,0,0,.13,0,.28-.08.33,0-.09.3-.43.35h-.1a.58.58,0,0,0-.48.17s.08,0,.23-.15.09-.12.06-.11l-.22.15c-.09,0,0-.06.21-.33Z"/><path d="M17.87,52c.39,0,.59.14.56.35s-.16.24-.18.33.07.16.18.23c.45.26.55.61,0,1l-.1,0c-.71-.23-.71-.54-.42-.94.07-.1.11-.19.05-.26s-.23-.1-.32-.15-.07-.28.17-.58Z"/><path d="M17.36,57.47c.38,0,.53.05.47.16s-.18.16-.2.22.06.08.16.09c.42.05.5.17,0,.65l-.09,0c-.66.1-.72-.17-.43-.49.06-.09.1-.15.05-.19s-.22,0-.31-.07,0-.22.27-.4Z"/><path d="M17.45,54.46c.32-.19.51-.15.51,0s-.12.23-.13.29.07.09.18.1c.44.06.56.33,0,.66l-.11,0c-.69,0-.67-.16-.39-.45.07-.07.1-.14.05-.17a.84.84,0,0,0-.29,0c-.11,0,0-.12.13-.44Z"/><path d="M17.57,61.18c.35,0,.47,0,.39.08a1.17,1.17,0,0,0-.25.12s0,0,.13,0c.39,0,.49.23-.17.38h-.11c-.65,0-.61,0-.28-.24.08-.05.13-.09.1-.11s-.2,0-.28,0,0-.18.36-.24Z"/><path d="M17.33,63.5c.26-.28.47-.31.56-.16a2.63,2.63,0,0,0,.06.34c0,.07.13.06.24,0,.46-.14.76.07.49.73l-.08.07c-.65.27-.76.12-.74-.33,0-.11,0-.2-.1-.21a1.09,1.09,0,0,0-.29.14c-.15,0-.18-.13-.18-.51Z"/><path d="M19.61,61.35c.29-.21.44-.21.4-.12s-.16.17-.19.21.05,0,.14,0,.3,0,.32,0-.11.23-.45.3h-.1a1.57,1.57,0,0,0-.51.08l.23-.17c.07-.05.11-.1.08-.09a1.43,1.43,0,0,0-.25.1c-.09,0,0,0,.25-.3Z"/><path d="M19.49,65.36c.22-.29.4-.32.4-.2s-.1.22-.11.27.07,0,.15,0c.37-.16.32-.25.07.36l0,.1c-.44.52-.66.28-.44,0,.05-.09.07-.15,0-.14a.9.9,0,0,0-.23.15c-.09,0,0,0,.13-.38Z"/><path d="M20.54,63.82c.27-.23.38-.29.35-.2a1.64,1.64,0,0,0-.16.23s0,0,.13,0,.28-.07.33,0-.09.29-.43.35h-.11c-.34,0-.44.12-.47.16s.08,0,.23-.15.09-.11.06-.1a1.74,1.74,0,0,0-.22.15c-.08,0,0,0,.22-.33Z"/><path d="M21.14,66.49c.2-.3.32-.37.32-.27a2.46,2.46,0,0,0-.08.27s.06,0,.11-.08c.26-.31.07-.39.14.28v.1c-.11.67-.49.54-.4.14,0-.09,0-.16,0-.14a1.86,1.86,0,0,0-.2.2c-.08.05,0-.06.08-.4Z"/><path d="M21.35,67.42c.26-.25.41-.29.43-.16s-.06.24-.05.3.09,0,.18,0c.38-.18.59-.07.27.5l-.08.07c-.59.37-.66.27-.55-.12,0-.09,0-.16,0-.16s-.18.1-.26.14-.1-.12,0-.46Z"/><path d="M21.17,62.42c.36,0,.46-.14.36-.12a1.33,1.33,0,0,0-.24.12s0,0,.09-.07.14-.24.11-.26-.18.14-.17.48v.1c-.05.34-.22.43-.32.44s-.12-.16,0-.35.08-.13,0-.13a1.33,1.33,0,0,1-.28.06c-.12,0,0-.23.32-.27Z"/><path d="M19.78,59.59c0-.35.07-.47.11-.38l0,.27s0,0,.1-.1c.21-.34.51-.19.1.33l-.08.08c-.49.44-.29.52-.19.15,0-.09,0-.15,0-.12a1.46,1.46,0,0,0-.05.27c0,.09,0,0,0-.39Z"/><path d="M15.92,54.47c.34-.11.45-.15.4-.07a1.92,1.92,0,0,0-.2.19s.05,0,.14,0c.39-.11.54.28-.13.4H16c-.67-.07-.58.13-.27-.14.07,0,.11-.1.07-.11s-.19.06-.27.07,0-.12.27-.31Z"/><path d="M19.42,54.49c.35.07.48.12.39.18a2.12,2.12,0,0,0-.27.09s0,.06.13.08c.39.08.4,0-.15.36l-.1,0c-.66.16-.7-.19-.33-.35.08,0,.14-.08.11-.11a2.83,2.83,0,0,0-.27-.09c-.09-.07,0-.13.38-.2Z"/><path d="M20.14,52.41c.34-.11.45-.16.38-.1a1.24,1.24,0,0,0-.2.18s0,0,.11,0,.21-.19.17-.22-.22.12-.2.46v.11c-.06.34-.3.41-.42.38s-.11-.19,0-.37.09-.13.05-.13-.19.07-.27.08,0-.12.28-.3Z"/><path d="M19.52,49.77c.36.14.48.25.41.38s-.22.15-.25.22.05.13.15.18c.42.19.5.34,0,.84l-.1,0c-.72,0-.79-.42-.47-.77.07-.09.12-.17.08-.24s-.21-.12-.29-.19,0-.32.36-.46Z"/><path d="M20.29,55.68c0-.36.17-.46.19-.36a1.7,1.7,0,0,1,0,.27s0,0,.1-.08c.24-.3.41-.23,0,.29l-.08.07c-.47.46-.37.48-.19.15,0-.08.06-.14,0-.11a.88.88,0,0,0-.09.25c0,.09.08,0,.07-.38Z"/><path d="M41.9,61.65c0-.36,0-.48.05-.39l0,.27s0,0,0-.12c0-.38.07-.42.1.24v.1c0,.66-.07.62-.1.24,0-.09,0-.15,0-.12l0,.27c0,.09,0,0-.05-.39Z"/><path d="M44.37,59.07c.11-.36.22-.48.33-.39s.11.23.17.27.11,0,.17-.12c.22-.37.44-.42.67.24v.1c-.23.66-.45.62-.67.24-.06-.09-.11-.15-.17-.12s-.11.2-.17.27-.22,0-.33-.39Z"/><path d="M44.16,64.52c.11-.35.21-.47.31-.38a2.14,2.14,0,0,0,.16.27s.1,0,.15-.12c.21-.38.41-.42.62.23v.11c-.21.66-.41.61-.62.24-.05-.09-.1-.15-.15-.12a1.6,1.6,0,0,0-.16.27c-.1.09-.2,0-.31-.39Z"/><path d="M38.82,69c0-.36.06-.48.1-.39s0,.23,0,.27,0,0,.05-.12c.07-.38.14-.42.21.24v.1c-.07.66-.14.62-.21.24,0-.09,0-.15-.05-.12s0,.2,0,.27-.07,0-.1-.39Z"/><path d="M26.57,64.73c.05-.36.17-.47.26-.36s0,.24.06.29.08,0,.16,0c.38-.22.57-.08.17.44l-.08.08c-.57.35-.54.32-.37,0,0-.08,0-.15,0-.13a1,1,0,0,0-.11.25c0,.08,0,0-.09-.39Z"/><path d="M23.28,64.83c0-.36.14-.47.19-.37s0,.24,0,.28.05,0,.11-.09.19-.21.2-.21a1.27,1.27,0,0,0-.1.5V65a.58.58,0,0,1-.32.45c-.05,0,0-.1,0-.3s0-.15,0-.12a1,1,0,0,0-.09.26c0,.08,0,0,0-.39Z"/><path d="M27.52,68.44c.2-.29.24-.41.26-.31a.9.9,0,0,0,0,.28s.06,0,.1-.1c.17-.35.42-.32.27.34l-.05.09c-.35.56-.31.53-.35.13,0-.09,0-.15-.06-.13s-.11.17-.16.23-.15-.08-.05-.43Z"/><path d="M25.13,62c0-.36,0-.48.05-.39l0,.27s0,0,0-.12c0-.37.07-.42.1.24v.11c0,.65-.07.61-.1.23,0-.09,0-.15,0-.12l0,.27c0,.09,0,0-.05-.38Z"/><path d="M28,60.73c.21-.3.32-.38.33-.28a1.86,1.86,0,0,0,0,.28s.06,0,.13-.06c.27-.29.39-.28.2.36l0,.1c-.39.53-.48.44-.42.06,0-.1,0-.16,0-.15s-.13.15-.19.2-.09-.08,0-.42Z"/><path d="M31.2,64.64c.06-.36.22-.46.28-.36s0,.25,0,.3.07,0,.15-.06c.32-.27.57-.11.18.43l-.08.08c-.55.37-.48.38-.37,0,0-.09,0-.15,0-.13a1.29,1.29,0,0,0-.13.24c-.05.08,0,0-.06-.4Z"/><path d="M31.52,67.31c.19-.3.34-.37.43-.24a2.13,2.13,0,0,0,.08.32s.11,0,.2,0c.34-.27.62-.19.54.48l-.05.09c-.5.5-.63.4-.7,0,0-.11,0-.18-.11-.18s-.15.15-.22.2-.18-.11-.19-.5Z"/><path d="M50.88,58.75c.24.26.31.36.23.32l-.21-.17s0,0,0,.13a.25.25,0,0,1-.16.35c-.08-.05-.09-.18-.12-.51v-.11c0-.33,0-.46,0-.51a.2.2,0,0,0-.06.31c0,.08.1.11.08.09l-.18-.21c-.05-.07,0,0,.32.24Z"/><path d="M50.33,62.16c0,.36,0,.48,0,.39a1.12,1.12,0,0,0,0-.27s0,0,.07.09c.27.28.29.31-.2-.12l-.08-.08c-.43-.49-.35-.51,0-.28.08.06.12.1.13.06s0-.2,0-.28.08,0,.1.39Z"/><path d="M53.58,47.08c.35.06.47.1.38.15a1.34,1.34,0,0,0-.26.08s0,0,.13,0c.39,0,.4-.06-.15.32l-.1,0c-.64.19-.69-.12-.33-.29.08,0,.14-.08.11-.11l-.28-.07c-.08-.06,0-.13.39-.18Z"/><path d="M54.3,51.41q.53.09.39.18a2.12,2.12,0,0,0-.27.09s0,.06.12.09c.37.12.41.24-.24.36h-.11c-.65-.12-.61-.24-.23-.36.09,0,.15-.06.11-.09a1.68,1.68,0,0,0-.27-.09c-.08-.06,0-.12.39-.18Z"/><path d="M51.61,43.45c.33-.17.52-.14.53,0s-.1.24-.09.32.1.07.21.07c.45,0,.66.23.18.74l-.1,0c-.68.1-.72,0-.55-.45,0-.09.05-.18,0-.2a1.25,1.25,0,0,0-.31,0c-.13,0-.11-.17.06-.5Z"/><path d="M27,36.23c.08-.36.21-.47.29-.37a2.55,2.55,0,0,0,.08.28s.09,0,.14-.09c.24-.34.29-.37.42.28v.11c-.2.66-.45.57-.52.18,0-.1-.05-.16-.09-.14a1.18,1.18,0,0,0-.15.25c-.08.08-.1,0-.17-.4Z"/><path d="M27,37.38c.3-.21.38-.3.38-.19a1.26,1.26,0,0,0-.07.28s.08,0,.16,0c.29-.26.57-.14.25.47l-.08.07c-.53.4-.51.38-.47,0,0-.1,0-.17,0-.16s-.17.12-.25.16-.15-.16,0-.47Z"/><path d="M21.26,44.89c.28-.22.43-.24.38-.15l-.2.19s0,0,.12,0,.24-.16.15-.23-.32.06-.28.41v.1c0,.35-.28.43-.43.36s-.09-.22.06-.34.12-.1.08-.1l-.23.13c-.08,0,0,0,.28-.27Z"/><path d="M100.58,60a9.41,9.41,0,0,1,2.11,1.36,13.71,13.71,0,0,0,1.91,1.3,5.84,5.84,0,0,0,2.27.74,6.8,6.8,0,0,1,2.54.58l.55.31-.66.3A15.23,15.23,0,0,1,105,65.91a6.5,6.5,0,0,1-4.46-.87l0-.1a11.44,11.44,0,0,0,4.25-.13c1.4-.24,2.82-.55,4.26-.88l-.11.61a3.76,3.76,0,0,0-2.15-.81,14.49,14.49,0,0,1-2.54-.3A4.82,4.82,0,0,1,102.12,62c-.57-.62-1.06-1.25-1.6-1.9Z"/><path d="M100.48,62.79c.31-.2.42-.26.42-.15a1.36,1.36,0,0,0-.08.28s.08,0,.16,0c.33-.24.38-.26.3.41l0,.1c-.39.56-.63.4-.58,0,0-.1,0-.17,0-.17s-.18.11-.26.14-.15-.16,0-.48Z"/><path d="M101.59,63c.29-.29.55-.35.73-.19s.14.28.23.35a.37.37,0,0,0,.34,0c.54-.2,1,0,1.07.77l0,.09c-.69.36-1,.18-1.23-.32a.32.32,0,0,0-.25-.22,1.19,1.19,0,0,0-.37.16c-.22,0-.38-.15-.49-.55Z"/><path d="M102.31,64.32c.21-.33.38-.42.52-.31s.12.26.19.31.16,0,.25-.08c.38-.31.7-.3.89.4l0,.1c-.43.59-.72.5-1,.08-.06-.11-.13-.18-.21-.16s-.19.16-.27.22-.31-.08-.4-.46Z"/></g></g></svg>