<svg xmlns="http://www.w3.org/2000/svg" viewBox="0 0 110.38 147.06"><defs><style>.cls-1{fill:#e58c61;}.cls-2{font-size:17.46px;fill:#dc662d;font-family:GillSans, Gill Sans;letter-spacing:0.02em;}.cls-3{font-size:23.31px;font-family:DINNextLTPro-Condensed, DIN Next LT Pro;letter-spacing:-0.01em;}</style></defs><g id="Layer_2" data-name="Layer 2"><g id="Ingredients_Map" data-name="Ingredients Map"><path class="cls-1" d="M98.45,56.11c-1.27-1.43-2.07-4.78-3.93-5-1.56-.22-3.41,0-4.88-.68a9.61,9.61,0,0,1-3.38-3.15,9.11,9.11,0,0,1-1-1.64,18.34,18.34,0,0,0,1.4-4.92c.37-1.78.82-3.54,1.32-5.28.45-.75.88-1.48,1.24-2.21a50.47,50.47,0,0,0,4.06-11.36c.59-2.57-3.16-4.46-4.45-1.88a82.41,82.41,0,0,0-5.43,13.7A46.52,46.52,0,0,0,81,38.19a12.81,12.81,0,0,0-1.14,5.6l-.3.05c-1.46.27-2.94.5-4.41.74l-2.11.36a5.85,5.85,0,0,1-1.84.29c-.58-.14-1.24-1.13-1.6-1.68a11.28,11.28,0,0,1-1.73-5.29c-.35-4.78,1.46-9.16,3.59-13.34a83.42,83.42,0,0,0,4.15-8.3c.88-2.35,0-6-3.14-5.8a2.55,2.55,0,0,0-2.35,1.79L65.34,24.7c-.16-1-.23-2-.32-3-.28-3.19-.61-6.48-2.4-9.24C61,10,57.76,11.68,58.16,14.35a57.24,57.24,0,0,1-.28,18.47A59.54,59.54,0,0,1,55.46,42a37.08,37.08,0,0,1-1.56,3.94c-.22.46-.1.37-.58.56a13.49,13.49,0,0,1-2.62.41c-3.18.49-6.36,1-9.56,1.47a13.56,13.56,0,0,1,.12-1.43c.22-1.49.63-2.95,1-4.41a19.75,19.75,0,0,0,.61-8.74c-.28-1.32-.39-2.91-1.32-3.89C33.62,21.56,46.45,11,47.14,3.5,47.36,1,43.72.27,42.59,2.27c-3.19,5.64-5.14,11.83-7.33,17.9a74.11,74.11,0,0,1-3.51,8.45c-1.08,2.12-2.43,5.13-4.86,6-1.16.41-5.65,2.15-5.17,3.46,1,2.81,5.48,9.38,3.29,11.4-1.71,1.58-4-.9-3.47,1.4.33,1.36.36,2-.64,3a18.2,18.2,0,0,1-3.39,2.52A33.52,33.52,0,0,0,12.81,60a19,19,0,0,0-4.05,4.93,6.68,6.68,0,0,0-4.65,5.51c-.6,3.63.06,7.62.81,11.18.37,1.78.93,3.45,2.64,4.36,1.5.8,3.65-1.18,5.29-.91,3.81.62,7.93,1.38,11.76,1.94,7.66,1.12,14,1.34,22.5,4.73,5.06,2,8.19,2.63,12,2.57,1.75,0,2.93-2.26,4.67-2.38a28.49,28.49,0,0,0,5.91-.69,4.49,4.49,0,0,0,3-3.19c.3-1.12-.11-2.88.38-3.72l.73-.7c.46-.37,1-.7,1.41-1.08a5.5,5.5,0,0,0,2.16-3.88,12.85,12.85,0,0,0-.06-1.48h.21c1.71.21,3,1.6,4.76,1.52,4-.16,4.78-5,2.8-7.7a13.2,13.2,0,0,0-1.45-1.63c-.37-.37-1.07-.86-1.24-1.39-.26-.81,1.21-1.48,1.86-1.75,3-1.27,6.45-1.13,9.66-.9,3,.21,3.48,1.07,3.82-3.23C97.89,60.68,99.49,57.27,98.45,56.11ZM71.13,14.72v0h0v0Zm-30,34.63c-.11.21,0-.4,0-.45v-.15A.46.46,0,0,1,41.16,49.35Zm27.1,37.23c.07-.07.14-.11.14-.06S68.35,86.56,68.26,86.58Z"/><text class="cls-2" transform="translate(28.51 116.41)">Nigeria<tspan class="cls-3"><tspan x="-28.5" y="25.76">EARTHY GINGER</tspan></tspan></text><path d="M7.51,67.87a5.13,5.13,0,0,0-2.65-.15A1.82,1.82,0,0,0,3.49,69.5c0,.84.19,1.82.22,2.74s.07,1.86.1,2.78a28.16,28.16,0,0,0,.37,5.51,10.54,10.54,0,0,0,2.29,4.92c.55.64,1.4,1.43,1.85.87a7.23,7.23,0,0,0,1.27-2.26,14.81,14.81,0,0,0,.6-5.32,30.06,30.06,0,0,0-.73-5.42,5,5,0,0,0-.41-1.24.81.81,0,0,0-.85-.53,1.26,1.26,0,0,0-.79.84,4.21,4.21,0,0,0-.16,1.34H7.17a4.22,4.22,0,0,1,0-1.42,1.49,1.49,0,0,1,.94-1.18,1.28,1.28,0,0,1,1.43.65,4.52,4.52,0,0,1,.58,1.35,22.75,22.75,0,0,1,1,5.56,13.47,13.47,0,0,1-.73,5.64,7,7,0,0,1-1.58,2.47,1.19,1.19,0,0,1-.86.31,1.61,1.61,0,0,1-.79-.32,5.51,5.51,0,0,1-1-1.06A13.87,13.87,0,0,1,3.9,80.59a35.71,35.71,0,0,1-.79-5.54l-.28-5.58A2.28,2.28,0,0,1,3.42,68a2.71,2.71,0,0,1,1.33-.74,4.73,4.73,0,0,1,2.79.51Z"/><path d="M86.44,49.92A3.54,3.54,0,0,1,89,48.76a2.42,2.42,0,0,1,1.33.64c.35.28.71.53,1.07.78,1.47,1,3.13,1.68,4.71,2.59a17.53,17.53,0,0,1,2.26,1.57,2.52,2.52,0,0,1,.9,1.14,3.71,3.71,0,0,1,0,1.41,27.38,27.38,0,0,1-1,5.36,10.68,10.68,0,0,1-1.14,2.55,2.06,2.06,0,0,1-1.36.81,7.59,7.59,0,0,1-1.42,0,13.37,13.37,0,0,1-2.78-.34,5,5,0,0,1-1.35-.54,6.39,6.39,0,0,1-1.1-.84c-.13-.07-.12-.07-.28,0l-.58.24L87,64.65a4.55,4.55,0,0,1-1.43.42,2.35,2.35,0,0,1-1.43-.59,1.34,1.34,0,0,0-1-.38,4.37,4.37,0,0,0-1.16.5l-2.44,1.19,0-.07,2.26-1.5A5.07,5.07,0,0,1,83,63.55a1.87,1.87,0,0,1,1.5.37,1.62,1.62,0,0,0,1,.4,3.59,3.59,0,0,0,1.13-.42l1.24-.57c.21-.09.38-.18.67-.28a1.17,1.17,0,0,1,1,.14c1.32,1.3,3,1.51,4.79,1.65.91,0,1.75.17,2.22-.45a10.29,10.29,0,0,0,1.23-2.3,17.25,17.25,0,0,0,1.15-5.23,3.15,3.15,0,0,0,0-1.27,2.17,2.17,0,0,0-.86-.87,18.21,18.21,0,0,0-2.31-1.33A36.1,36.1,0,0,1,91,50.72c-.79-.49-1.33-1.4-2.07-1.51a3.64,3.64,0,0,0-2.41.78Z"/><path d="M80.68,68.25c.81.49,1.56,1,2.31,1.6a9.25,9.25,0,0,1,1.11.94,2.12,2.12,0,0,1,.51,1.53A4.34,4.34,0,0,0,84.92,75a1.42,1.42,0,0,1,.16,1.46,3.16,3.16,0,0,1-1,1,12.67,12.67,0,0,1-2.52,1.33,20.08,20.08,0,0,1-2.71.94,2.16,2.16,0,0,1-1.67-.26,2.66,2.66,0,0,1-.81-1.35,1,1,0,0,0-.82-.72,4.68,4.68,0,0,1-1.36-.4l0-.07a7.94,7.94,0,0,0,1.39,0,1.55,1.55,0,0,1,1.35.84c.24.45.41.85.67,1a1.56,1.56,0,0,0,1,0,39.49,39.49,0,0,0,5.17-1.78,2.34,2.34,0,0,0,1-.79,1,1,0,0,0-.14-1.16,5.42,5.42,0,0,1-.78-2.76,1.88,1.88,0,0,0-.37-1.07c-.25-.29-.64-.6-1-.93a26.66,26.66,0,0,1-1.94-2Z"/><path d="M84.61,50.61l-.93-2.48a7.51,7.51,0,0,0-1-2.18c-.47-.48-1.53-.24-2.41-.46a20,20,0,0,1-2.54-.9,5.15,5.15,0,0,0-4.75.26,3.58,3.58,0,0,1-1.32.66c-.29,0-.33,0-.41.07a1.29,1.29,0,0,0-.28.45c-.18.4-.38.78-.57,1.18-.1.2-.18.39-.31.62s-.53.38-.7.13l.07-.06c.43.17.4-.41.53-.82s.23-.88.37-1.32a1.67,1.67,0,0,1,.36-.7,1.31,1.31,0,0,1,.81-.36,4.84,4.84,0,0,0,1-.63,5.1,5.1,0,0,1,5.41.1,7.51,7.51,0,0,0,2.4,1c.82.2,1.7-.46,2.78.16a2.49,2.49,0,0,1,.85,1.26c.15.42.29.85.4,1.29a12.55,12.55,0,0,1,.38,2.66Z"/><path d="M63.39,56.07c-.44-2-.88-3.92-1.36-5.85a10.33,10.33,0,0,1-.37-3,4.06,4.06,0,0,1,.1-.8c0-.18.18-.23.3-.33l.29-.2a3.09,3.09,0,0,0,.78-1.2,8,8,0,0,1,.71-1.4,1.46,1.46,0,0,1,.8-.57,1.84,1.84,0,0,1,.94,0A4,4,0,0,1,68,45c.44,1,.66,1.92,1.11,2.8a16.73,16.73,0,0,0,1.49,2.58l-.06.06a9.75,9.75,0,0,1-2-2.32,25.4,25.4,0,0,1-1.34-2.73,3.45,3.45,0,0,0-1.78-1.89c-.42-.13-.71-.14-1,.19a9.51,9.51,0,0,0-.82,1.19,4.36,4.36,0,0,1-1,1.21c-.22.19-.49.23-.53.4a3.6,3.6,0,0,0-.07.7A8.2,8.2,0,0,0,62.71,50a16.29,16.29,0,0,1,.77,6Z"/><path d="M66.62,54.17c-.88.74-1.81,1.29-2.67,1.89a4.28,4.28,0,0,0-1.25,1,3.06,3.06,0,0,0-.6,1.48A2.62,2.62,0,0,1,62,59a.74.74,0,0,1-.49.45c-.46.09-.63,0-.89.08a4.47,4.47,0,0,0-1.4.44,18.15,18.15,0,0,0-2.69,1.76l-.06-.06a5.94,5.94,0,0,1,2.34-2.51,3.86,3.86,0,0,1,1.77-.43,4.92,4.92,0,0,1,.77.07s.18-.1.29-.39a11.54,11.54,0,0,1,.82-1.51,7.3,7.3,0,0,1,1-1.39,6.25,6.25,0,0,1,3.07-1.4Z"/><path d="M73.44,78.35a5.25,5.25,0,0,1,1,3.9A3.06,3.06,0,0,1,73.19,84l-1.52,1.2-.75.55s0-.15,0-.15,0,0,.12.09l.42.3a10.68,10.68,0,0,1,1.48,1.37A4.67,4.67,0,0,1,74,89.08a1.11,1.11,0,0,1-.32,1.06c-.36.26-.55.28-.59.57a2.47,2.47,0,0,1-.16.52,1,1,0,0,1-.46.46,8,8,0,0,1-1,.36l-1,.31a1.4,1.4,0,0,1-1.26-.27c-.59-.53-.92-1-1.27-.93s-.89.57-1.61.87a5.59,5.59,0,0,1-4.12-.34,8.89,8.89,0,0,0-3.73-1v-.09a7.49,7.49,0,0,1,3.95.43,5.52,5.52,0,0,0,3.57.17c.51-.16.9-.79,1.86-1a1.55,1.55,0,0,1,1.22.5c.26.26.45.53.65.7a.61.61,0,0,0,.58.16l.94-.23c.31-.08.67-.15.91-.23s.29-.23.42-.6a1,1,0,0,1,.38-.5c.18-.1.33-.15.43-.21a.76.76,0,0,0,.26-.73,3.54,3.54,0,0,0-1-1.57,6.4,6.4,0,0,0-1.52-1.18l-.42-.22a1,1,0,0,1-.29-.19.47.47,0,0,1-.12-.31.67.67,0,0,1,.12-.27,8.23,8.23,0,0,1,.76-.72c.51-.42,1-.91,1.54-1.27a2.36,2.36,0,0,0,1.07-1.33,6.07,6.07,0,0,0-.45-3.68Z"/><path d="M59.38,93.3a1.86,1.86,0,0,1-.26,1,1.22,1.22,0,0,1-1,.64,2.28,2.28,0,0,1-1-.36,5.76,5.76,0,0,0-.92-.28,6.83,6.83,0,0,1-1.75-.71c-.52-.33-1-.65-1.53-1l0-.09a3.29,3.29,0,0,1,1.94.32,8.51,8.51,0,0,1,1.53,1.1,2,2,0,0,0,.8.44,1.2,1.2,0,0,0,.81-.08,4.6,4.6,0,0,0,1.26-1Z"/><path d="M54.74,91.24a11.89,11.89,0,0,1-2.15,1.57,3.75,3.75,0,0,1-2.77.21,9.05,9.05,0,0,1-2.38-1.27,25.64,25.64,0,0,0-2.23-1.37,10.18,10.18,0,0,0-2.32-.94,13.33,13.33,0,0,0-2.51-.19,7.56,7.56,0,0,1-4.87-2.11l.05-.07a10.93,10.93,0,0,0,4.87,1.27,9.34,9.34,0,0,1,2.67.33A7.42,7.42,0,0,1,45.47,90a22.3,22.3,0,0,0,2.12,1.53,7.3,7.3,0,0,0,2.39.82,4.46,4.46,0,0,0,2.35-.14c.77-.25,1.52-.75,2.37-1Z"/><path d="M65,74.67c-.64.43-1.29.83-2,1.23l-1,.58a3.06,3.06,0,0,1-1.16.53,1,1,0,0,1-.75-.32l-.41-.38a9.71,9.71,0,0,0-.88-.67A11.62,11.62,0,0,0,57,74.57l.49-.29A7.26,7.26,0,0,1,57,76.06a3.93,3.93,0,0,1-1,1.57A1.68,1.68,0,0,1,55,78c-.36,0-.64-.18-.85-.11-.5.11-.72.8-1.19,1.19a6.72,6.72,0,0,1-3.27,1.63,2.57,2.57,0,0,1-3.11-2,2.16,2.16,0,0,1,.85-1.91,9.9,9.9,0,0,1,1.56-1c1-.57,2-1.21,3.15-1.74a5.91,5.91,0,0,1,1.83-.5,6.36,6.36,0,0,1,1.8.14c.41.06.91-.51,1.54-.66a3.13,3.13,0,0,1,1.82,0l0,.08a3,3,0,0,0-1.68.24,3.15,3.15,0,0,0-.71.45,1.56,1.56,0,0,1-.93.43,5.17,5.17,0,0,0-3.3.55c-1,.53-2,1.18-3,1.77s-2.16,1.14-2.07,2.06a1.64,1.64,0,0,0,.76,1.17,2.48,2.48,0,0,0,1.5.33,5.62,5.62,0,0,0,3.13-1.27c.46-.34.62-1,1.32-1.26.39-.08.67.12.91.07a1.06,1.06,0,0,0,.69-.32,5.92,5.92,0,0,0,1.08-3.15l.06-.46.43.17A8.78,8.78,0,0,1,59.32,75a9.51,9.51,0,0,1,.92.76c.29.27.57.63.66.56a4,4,0,0,0,.94-.37l1-.48c.69-.32,1.39-.63,2.11-.91Z"/><path d="M58.58,59.5a2.76,2.76,0,0,1-.22-2.1c.13-.35.33-.65.47-1a5.61,5.61,0,0,0,.3-1,3.86,3.86,0,0,1,2.85-3l.05.07c-.84,1.17-1.61,2-2.47,3.1a2.5,2.5,0,0,0-.47.88,4.9,4.9,0,0,0,0,1,8.51,8.51,0,0,1-.4,2Z"/><path d="M7.43,68.41a6.25,6.25,0,0,1-.55-1.36,3.25,3.25,0,0,1-.13-.79.57.57,0,0,1,.34-.52,2,2,0,0,1,.39-.13l2.68-.92a14.29,14.29,0,0,0,2.63-1,2.71,2.71,0,0,0,1-1,3.25,3.25,0,0,0,.31-1.33,8.44,8.44,0,0,1,2.56-5.26c1.32-1.4,3.21-2.66,5.22-2.48v.09a8.38,8.38,0,0,0-4.55,3,10,10,0,0,0-2.77,4.72,4.54,4.54,0,0,1-.51,1.4,3.81,3.81,0,0,1-1.08,1,20.52,20.52,0,0,1-2.52,1.48,12.7,12.7,0,0,1-2.78.89l-.3.07c-.06,0,0,0,0,0a3.4,3.4,0,0,0,0,.63,14.25,14.25,0,0,0,.2,1.42Z"/><path d="M30.49,56.91A13.5,13.5,0,0,1,28,59.77a12.26,12.26,0,0,0-1.46,1.17,1,1,0,0,0,.11,1.53,1.81,1.81,0,0,1,.42,2.1c-.43.68-1.07,1-1.12,1.32s.31.93.4,1.58a4.36,4.36,0,0,1-.07,2h-.09a7.77,7.77,0,0,0-.48-1.78,4.93,4.93,0,0,0-.39-.8,1.57,1.57,0,0,1-.25-1.2c.35-1,1.1-1.11,1.32-1.5s.15-.88-.13-1.43a2.26,2.26,0,0,1-.31-1,1.72,1.72,0,0,1,.37-1c.39-.54.79-1,1.19-1.51a13.46,13.46,0,0,1,2.94-2.41Z"/><path d="M25.12,59.88a2.16,2.16,0,0,1-1.71-.57c-.21-.23-.35-.53-.53-.76a5.42,5.42,0,0,0-.63-.64,3,3,0,0,1-.9-1.63,2.39,2.39,0,0,1,.44-1.81l.08,0c.13.61.24,1.12.38,1.62a14.5,14.5,0,0,0,.39,1.54,1.64,1.64,0,0,0,.44.71,3.18,3.18,0,0,0,.76.38,5.7,5.7,0,0,1,1.31,1.06Z"/><path d="M29.15,29.83a7.71,7.71,0,0,1-.2,2,6.29,6.29,0,0,0-.3,1,2.83,2.83,0,0,0,.08,1,5.75,5.75,0,0,1-.17,4h-.09a8,8,0,0,1-.21-4,4.49,4.49,0,0,0,.11-1c0-.34-.11-.69-.12-1a2.74,2.74,0,0,1,.83-1.91Z"/><path d="M28,35.24c-1.26.13-2.51.18-3.77.21h-.92c-.27,0-.36.09-.45.27a2.09,2.09,0,0,0,.18,1.51,5.48,5.48,0,0,1,.49,1.9A14.48,14.48,0,0,1,23.32,41a3.42,3.42,0,0,0,.12,1.8,7.31,7.31,0,0,0,.91,1.6,5.29,5.29,0,0,1,.88,1.76,5.89,5.89,0,0,1,.1,2c-.07.65-.2,1.28-.33,1.9a1,1,0,0,1-.43.69,2.16,2.16,0,0,1-.44.1h-.26a5.46,5.46,0,0,1-1-.14A8,8,0,0,1,21,50.05c-.57-.32-1.11-.66-1.45-.54s-.47.79-.39,1.35a8,8,0,0,0,.49,1.77l-.07,0a6.61,6.61,0,0,1-.84-1.73,2.94,2.94,0,0,1-.09-1,1.18,1.18,0,0,1,.63-1c.92-.33,1.54.23,2.07.4a8.45,8.45,0,0,0,1.69.58,5,5,0,0,0,.85.11h.21s0,0,0,0,0,0,0-.11a15.3,15.3,0,0,0,.41-1.79A4.9,4.9,0,0,0,24,44.68a10.74,10.74,0,0,1-.8-1.75A5.19,5.19,0,0,1,23,41a7.61,7.61,0,0,0,0-1.84,5.27,5.27,0,0,0-.67-1.66,2.52,2.52,0,0,1-.2-2.12,1.17,1.17,0,0,1,1.09-.63c.36,0,.64,0,1,0,1.26.08,2.51.18,3.76.36Z"/><path d="M86.34,53.72a3.29,3.29,0,0,1,1.42,1.6c.12.35.16.72.28,1.06a4.66,4.66,0,0,0,.47.95,4.82,4.82,0,0,1,.47,4.2H88.9a16.06,16.06,0,0,1-.84-4.05,2.88,2.88,0,0,0-.28-1,6.54,6.54,0,0,0-.64-.83,6.07,6.07,0,0,1-.87-1.89Z"/><path d="M72.7,52a8.38,8.38,0,0,1,3.09,2.31c.4.51.71,1.08,1.07,1.62s.75,1,1.13,1.56a8.65,8.65,0,0,1,1.53,7.43h-.08a28.39,28.39,0,0,0-1.86-7.19,6.78,6.78,0,0,0-.94-1.63,11.21,11.21,0,0,0-1.37-1.3c-.9-.87-1.76-1.74-2.62-2.72Z"/><path d="M68.42,59.33A10.72,10.72,0,0,1,71.07,63a12.43,12.43,0,0,1,.52,2.23,12.13,12.13,0,0,1,.2,2.27c0,.79-.29,1.56-.33,2.18a3.54,3.54,0,0,0,.65,1.84A7.77,7.77,0,0,1,72.9,76h-.09a14.35,14.35,0,0,0-1.51-4,3.81,3.81,0,0,1-.64-2.35c.14-.86.52-1.45.66-2.16a4.51,4.51,0,0,0,0-2.16,7.51,7.51,0,0,0-.89-2c-.67-1.28-1.43-2.52-2.07-3.9Z"/><path d="M79.83,72.64a2.36,2.36,0,0,1-1.06,1,5.55,5.55,0,0,0-.72.25,1.5,1.5,0,0,0-.5.53,7.71,7.71,0,0,1-1.83,2.18l-.08,0a2.48,2.48,0,0,1,1.61-2.5,3,3,0,0,0,.64-.4c.18-.18.3-.42.48-.61a2.14,2.14,0,0,1,1.41-.54Z"/><path d="M54.6,66.41a15.84,15.84,0,0,1-2.74-2.55,18.06,18.06,0,0,0-1.18-1.44,7.7,7.7,0,0,0-1.49-1.11,43.88,43.88,0,0,0-6.7-3v-.09a9.65,9.65,0,0,1,3.76.61,9.84,9.84,0,0,1,3.21,2.09c.46.43.91.88,1.39,1.28s1,.74,1.51,1.15a11,11,0,0,1,2.29,3Z"/><path d="M57,55.75a7.27,7.27,0,0,1-2-1.65,11.46,11.46,0,0,0-.81-1,4.05,4.05,0,0,0-1.06-.72c-1.58-.76-3-1.41-4.63-2.1v-.09A5.48,5.48,0,0,1,53.41,52a10,10,0,0,0,1,.89c.35.26.76.47,1.12.73a6.06,6.06,0,0,1,1.6,2.1Z"/><path d="M48.74,55.39a4.37,4.37,0,0,1-1.91-.76A10,10,0,0,0,46,54a2.9,2.9,0,0,0-1-.33,21.7,21.7,0,0,1-3.88-1v-.09a4.23,4.23,0,0,1,4.06.66,5.13,5.13,0,0,0,.91.51c.32.13.68.18,1,.29a3.77,3.77,0,0,1,1.61,1.31Z"/><path d="M49,74.86c-.55-1.07-.91-2.15-1.32-3.18A5.79,5.79,0,0,0,47,70.15a4.15,4.15,0,0,0-1.32-1.07,33.48,33.48,0,0,0-3.12-1.37A12.64,12.64,0,0,1,39.47,66l0-.08c1.15.3,2.25.6,3.35,1a9.77,9.77,0,0,1,3.06,1.83c.44.41.85.83,1.25,1.27a8.32,8.32,0,0,1,1.15,1.41,7.06,7.06,0,0,1,.76,3.46Z"/><path d="M64.64,79.44a7.13,7.13,0,0,1,2.1,2.37c.24.49.39,1,.58,1.51L68,84.79a5.78,5.78,0,0,1,.3,3.24A8.44,8.44,0,0,1,67,91l-.08,0c.2-2.16.82-4,.59-6a4.06,4.06,0,0,0-.42-1.47,9.33,9.33,0,0,0-.93-1.24,13.53,13.53,0,0,1-1.57-2.7Z"/><path d="M59,80.6a4,4,0,0,1,1.67,2.16c.12.45.14.92.22,1.37s.2.87.31,1.32a7.19,7.19,0,0,1,.09,2.73,21.8,21.8,0,0,1-.62,2.6h-.09a7.12,7.12,0,0,1-.19-2.71l.34-2.58a3.36,3.36,0,0,0-.11-1.3,5.54,5.54,0,0,0-.6-1.16c-.4-.76-.73-1.51-1.09-2.37Z"/><path d="M55,84.61A4.53,4.53,0,0,1,55,87c-.13.37-.34.73-.48,1.09a9.86,9.86,0,0,0-.32,1.13A4.21,4.21,0,0,1,53,91.29a3.08,3.08,0,0,1-2.26.88l0-.08a9,9,0,0,0,1.65-1.44A13.68,13.68,0,0,0,53.74,89a2.72,2.72,0,0,0,.47-1,7.32,7.32,0,0,0,.06-1.15,5.9,5.9,0,0,1,.63-2.21Z"/><path d="M50,84.25a22.15,22.15,0,0,1-1.56,1.81,7.08,7.08,0,0,0-.86.87c-.25.32-.46.69-.74,1a3.33,3.33,0,0,1-2.36,1.15A5.28,5.28,0,0,1,42,88.57l0-.09c1.7-.31,3.18-.11,4.52-.86a2.39,2.39,0,0,0,.82-.85c.19-.35.31-.77.53-1.15a3.46,3.46,0,0,1,2.08-1.44Z"/><path d="M35.92,75.77a6.56,6.56,0,0,1,1.65,2.36c.16.46.25,1,.39,1.41s.35.89.54,1.34A6,6,0,0,1,39,83.81a4.24,4.24,0,0,1-1.32,2.65l-.07,0a10.92,10.92,0,0,0,.49-2.69,16.48,16.48,0,0,0,0-2.72,4.2,4.2,0,0,0-.35-1.36,9.34,9.34,0,0,0-.76-1.2,9.18,9.18,0,0,1-1.09-2.63Z"/><path d="M24.36,78.81a2.92,2.92,0,0,1,1,1.44,8.79,8.79,0,0,0,.15.87,2.51,2.51,0,0,0,.43.74,4.59,4.59,0,0,1,.83,1.58,1.68,1.68,0,0,1-.47,1.78l-.07,0a3.75,3.75,0,0,0-.34-1.54,9.15,9.15,0,0,1-.38-1.6,2.79,2.79,0,0,0-.25-.82c-.15-.25-.38-.46-.55-.7a3,3,0,0,1-.4-1.68Z"/><path d="M29.07,72.57a6.44,6.44,0,0,0-1.72,1.05c-.5.41-.87,1-1.47,1.47a3.91,3.91,0,0,1-2.1.75,3.29,3.29,0,0,1-2.17-.41A1.25,1.25,0,0,1,21,74.29a1.35,1.35,0,0,1,.93-1,12,12,0,0,1,2-.75,10.19,10.19,0,0,1,4.29-.14v.09a39.22,39.22,0,0,0-4,.93c-.66.19-1.32.38-2,.61-.33.12-.55.23-.58.35a.77.77,0,0,0,.26.67,2.12,2.12,0,0,0,1.83.5,2.89,2.89,0,0,0,1.66-1A8.78,8.78,0,0,1,27,73.09a3.83,3.83,0,0,1,2.11-.61Z"/><path d="M22,70.92A15.92,15.92,0,0,1,20,69a9,9,0,0,0-.88-1.08,4.63,4.63,0,0,0-1.17-.74c-1.72-.76-3.33-1.38-5.06-2.22v-.09a6.93,6.93,0,0,1,5.3,1.92,13.28,13.28,0,0,0,1.09.92c.39.27.82.5,1.21.79A4.94,4.94,0,0,1,22,70.88Z"/><path d="M23.39,65.61a2.48,2.48,0,0,1-1.92-1,8,8,0,0,0-.6-.88,2,2,0,0,0-.87-.53c-.65-.19-1.3-.32-2-.56a2.91,2.91,0,0,1-1.67-1.47l.07-.06a11.15,11.15,0,0,0,1.91.67,5.88,5.88,0,0,1,1.91,1c.28.25.53.51.82.73s.62.39.91.59c.55.44.91.93,1.44,1.44Z"/><path d="M38.47,47.92a1.64,1.64,0,0,1-1.53,1c-.31,0-.61-.12-.89-.13a1.07,1.07,0,0,0-.75.25c-.35.34-.29.67-.23,1.18l.14,1.66-.07,0a2.54,2.54,0,0,1-1-1.56,1.78,1.78,0,0,1,.1-1,1.11,1.11,0,0,1,.83-.72c.34-.06.63-.05.92-.1a4.08,4.08,0,0,0,.81-.29c.53-.16,1-.16,1.58-.34Z"/><path d="M33.2,45.55A9.81,9.81,0,0,1,31,45.47a5.14,5.14,0,0,0-1.11-.18,2.67,2.67,0,0,0-1.07.29,13.82,13.82,0,0,0-1.83,1.14,14.45,14.45,0,0,0-1.71,1.37l-.08,0A3.42,3.42,0,0,1,26.39,46a4.37,4.37,0,0,1,2.25-.86A11,11,0,0,0,29.81,45c.38-.07.77-.2,1.17-.24a3.44,3.44,0,0,1,2.24.7Z"/><path d="M28.21,53.23A1.43,1.43,0,0,1,26.94,53c-.16-.16-.28-.37-.44-.5a1.39,1.39,0,0,0-.57-.28,2.12,2.12,0,0,1-1.59-1.91l.07,0a3.41,3.41,0,0,1,1.8,1.59,1.23,1.23,0,0,0,.44.41,3.24,3.24,0,0,0,.62.12,1.83,1.83,0,0,1,1,.76Z"/><path d="M60.68,52.33a56.85,56.85,0,0,1,1.78-10.64c1.2-3.43,2.48-6.73,3.8-10.07l4-10q2-5,3.77-10.06l.16.25c-1-.1-2-.26-2.94-.3a.42.42,0,0,0-.4.26l-.32.67-.65,1.35-2.61,5.41-2.66,5.39L62.11,30c-1.46,3.72-2.63,7.57-4.53,11.14a115.45,115.45,0,0,1-6.12,10.36l-.08,0c1.93-3.52,3.93-7,5.62-10.6s2.81-7.46,4.29-11.19l2.57-5.46,2.73-5.35,2.79-5.33.69-1.33.36-.68a.92.92,0,0,1,.81-.49c1.09.08,2,.28,3,.41l.24,0-.09.22q-2,5-3.82,10.05c-1.22,3.37-2.37,6.77-3.65,10.12s-2.67,6.69-3.87,10a76,76,0,0,0-2.31,10.45Z"/><path d="M79,44.6c.65-2.3,1.36-4.59,2.11-6.86S82.65,33.2,83.54,31s1.84-4.43,2.78-6.62,1.84-4.42,2.72-6.65l.1-.27.19.25c.36.46,1.17.46,1.85.62a2.39,2.39,0,0,1,1.07.46,1.3,1.3,0,0,1,.39,1.2c-.35,1.46-.79,2.76-1.21,4.13-.89,2.7-1.79,5.39-2.73,8.06S86.85,37.51,86,40.21a40.33,40.33,0,0,0-1.84,8.25h-.09A32.16,32.16,0,0,1,85.34,40c.71-2.76,1.59-5.46,2.52-8.15s1.92-5.34,2.87-8c.47-1.31,1-2.69,1.38-4,.17-.63-.35-1-1-1.15s-1.46-.16-2-.88l.29,0c-1,2.19-1.85,4.4-2.69,6.65l-2.42,6.75c-.8,2.25-1.71,4.47-2.52,6.71S80,42.41,79.07,44.63Z"/><path d="M85.53,35.19a2.43,2.43,0,0,1-.35,1.56,7.81,7.81,0,0,0-.53.64,2.17,2.17,0,0,0-.23.76A4.23,4.23,0,0,1,83,41l-.07,0A4.17,4.17,0,0,1,84,38a2.37,2.37,0,0,0,.41-.68,7,7,0,0,0,.12-.8,2.51,2.51,0,0,1,.94-1.32Z"/><path d="M84.8,33.78a3.79,3.79,0,0,1-.41,2c-.19.29-.43.55-.59.85a3.93,3.93,0,0,0-.31,1,6,6,0,0,1-1.92,3.55l-.08,0a7.5,7.5,0,0,1,1.58-3.71,3.43,3.43,0,0,0,.48-.88c.1-.33.11-.68.18-1a4.32,4.32,0,0,1,1-1.78Z"/><path d="M62,39.72a25.07,25.07,0,0,1-1,3.74c-.25.6-.53,1.18-.72,1.8a10.19,10.19,0,0,0-.34,1.91,30.65,30.65,0,0,1-1.45,7.61h-.08a20.34,20.34,0,0,1,1.07-7.7A15.44,15.44,0,0,0,60,45.19c.13-.63.18-1.29.31-1.93a9.93,9.93,0,0,1,1.61-3.57Z"/><path d="M58.41,47.73a7.35,7.35,0,0,1-.29,2.41c-.14.39-.33.76-.44,1.15a5.41,5.41,0,0,0-.13,1.21A6.48,6.48,0,0,1,56,57.11l-.07,0a19.57,19.57,0,0,1,1.19-4.66,4.84,4.84,0,0,0,.32-1.17c0-.4,0-.82,0-1.24a4.63,4.63,0,0,1,.9-2.29Z"/><path d="M57.45,45.24a1.2,1.2,0,0,1,0,1.07,3.37,3.37,0,0,0-.33.44,1,1,0,0,0,0,.52,1.84,1.84,0,0,1-.67,1.94h-.08a1.85,1.85,0,0,1,.3-2,.9.9,0,0,0,.21-.48,2.71,2.71,0,0,0-.08-.55,1.15,1.15,0,0,1,.54-.91Z"/><path d="M59.62,39.28a1.41,1.41,0,0,1-.32,1.14,4.45,4.45,0,0,0-.48.38,1.37,1.37,0,0,0-.21.53,2.27,2.27,0,0,1-1.33,1.87l-.07,0a2.25,2.25,0,0,1,1-2.06,1.26,1.26,0,0,0,.38-.45,3.76,3.76,0,0,0,.1-.6,1.43,1.43,0,0,1,.86-.82Z"/><path d="M32.65,24.65c.62-2.11,1.33-4.18,2.06-6.26s1.5-4.12,2.37-6.14,1.8-4,2.72-6,1.79-4,2.65-6l.1-.24.18.22c.35.39,1.08.41,1.71.54a3.5,3.5,0,0,1,1,.31,1.16,1.16,0,0,1,.64,1,8.94,8.94,0,0,1-.51,2L45,5.92c-.87,2.47-1.75,4.93-2.68,7.37s-1.81,4.88-2.63,7.35a34,34,0,0,0-1.79,7.57h-.08A26.59,26.59,0,0,1,39,20.44c.7-2.54,1.56-5,2.47-7.46s1.89-4.88,2.81-7.32L45,3.84a10,10,0,0,0,.58-1.76c.05-.5-.59-.76-1.2-.89S43,1,42.46.4l.29,0c-.94,2-1.81,4-2.63,6l-2.36,6.13c-.78,2.05-1.66,4-2.46,6.09s-1.67,4.05-2.57,6.06Z"/><path d="M37.81,20.64a2.48,2.48,0,0,1-.36,1.56,7.67,7.67,0,0,0-.52.64,2.18,2.18,0,0,0-.24.76,4.18,4.18,0,0,1-1.46,2.81l-.08,0a4.18,4.18,0,0,1,1.12-3,2.37,2.37,0,0,0,.41-.68c.07-.25.07-.54.12-.8a2.58,2.58,0,0,1,.93-1.32Z"/><path d="M38.21,16.32a3.74,3.74,0,0,1-.42,2c-.18.29-.42.56-.58.86a3.85,3.85,0,0,0-.31,1A6,6,0,0,1,35,23.7l-.07,0A7.54,7.54,0,0,1,36.47,20a3.52,3.52,0,0,0,.49-.89,8.51,8.51,0,0,0,.17-1,4.2,4.2,0,0,1,1-1.77Z"/><path d="M38.43,19.71a4.81,4.81,0,0,1-.19,2.08,8.18,8.18,0,0,0-.39,1,3.22,3.22,0,0,0-.05,1,10.32,10.32,0,0,1,0,2.08,3.82,3.82,0,0,1-.82,2l-.08,0c0-.73,0-1.37,0-2.05a7.85,7.85,0,0,1,.41-2.05,4.69,4.69,0,0,0,.25-1c0-.34,0-.71,0-1.07a3.67,3.67,0,0,1,.8-1.95Z"/><path d="M58.74,13a10.42,10.42,0,0,0,2.18-.16,5,5,0,0,0,1-.28.49.49,0,0,0,.09-.06s0,.09,0,.07a1.24,1.24,0,0,0-.32-.21,7.47,7.47,0,0,0-2-.55c-.69-.06-1.28,0-1.37.61a20.64,20.64,0,0,0,.55,8.71A29,29,0,0,1,59.36,30c-.07,1.47-.17,2.93-.12,4.4,0,.73.06,1.46.14,2.19,0,.18,0,.37.07.52s0,0,0,0,0,0-.07,0a.2.2,0,0,0-.18,0c-.05.09,0,0,0,.06a.36.36,0,0,0,0-.11l0-.27a2.93,2.93,0,0,0,0-.52s0,0,0,0,.08,0,.09,0l0,.05,0,.13-.05.27h-.08v-.42a.37.37,0,0,1,0-.09s0-.07.13-.07a.13.13,0,0,1,.06.08,2.5,2.5,0,0,1,.12.58l0,.28a1,1,0,0,1,0,.17s0,0,0,.12a.16.16,0,0,1-.2,0c-.11-.06-.07-.06-.09-.07a.31.31,0,0,1,0-.11,3.35,3.35,0,0,1-.15-.56,18.38,18.38,0,0,1-.38-2.22,29.18,29.18,0,0,1-.1-4.48c0-1.49.16-2.95.16-4.41a40.56,40.56,0,0,0-.27-4.39c-.17-1.47-.38-2.94-.58-4.41a18.33,18.33,0,0,1-.2-4.52,1.39,1.39,0,0,1,.88-1.09A2.56,2.56,0,0,1,59.74,11a7.87,7.87,0,0,1,2.23.72,1.4,1.4,0,0,1,.54.46.51.51,0,0,1,0,.59.64.64,0,0,1-.36.25,5.58,5.58,0,0,1-1.16.21A7.39,7.39,0,0,1,58.73,13Z"/><path d="M66.69,25.2a5.78,5.78,0,0,1-.46,3.12c-.21.48-.49.93-.67,1.42s-.13,1-.32,1.57-.69.9-.81,1.29-.25,1-.37,1.41l-.36,1.5A6.23,6.23,0,0,1,63,37l-.08,0L63,35.38a9.77,9.77,0,0,1,.13-1.57,7.32,7.32,0,0,1,.54-1.57c.3-.59.88-.83,1.11-1.15a5.85,5.85,0,0,0,.48-1.43c.12-.51.16-1,.26-1.55a23.78,23.78,0,0,1,1-2.9Z"/><path d="M63.17,14.21c.07,1,.11,2,.08,3a11,11,0,0,0-.11,1.51,6.36,6.36,0,0,0,.3,1.49,13,13,0,0,1,.76,6h-.08a17.67,17.67,0,0,1-1.14-6,11.13,11.13,0,0,0-.11-1.53c-.09-.5-.26-1-.33-1.52a5.29,5.29,0,0,1,.55-3Z"/><path d="M65.21,35.05a14.21,14.21,0,0,1,1.06,3.21,13.38,13.38,0,0,0,.28,1.66,16.17,16.17,0,0,0,.56,1.61,10.46,10.46,0,0,1,.62,3.39,12.41,12.41,0,0,0,0,1.62,3.8,3.8,0,0,1,0,1.74H67.6a7.74,7.74,0,0,0-.51-1.59A6.89,6.89,0,0,1,66.82,45c0-1.12-.07-2.21-.16-3.32A6.23,6.23,0,0,0,66.28,40c-.2-.53-.49-1-.7-1.56a8.76,8.76,0,0,1-.45-3.38Z"/><path d="M59,13.92c0,.08-.1.09-.1.07s-.1,0-.06-.13a.2.2,0,0,1,.18-.1c.09,0,.11,0,.16,0l.24,0a.76.76,0,0,1,.42.09,1.39,1.39,0,0,0,.41.27.61.61,0,0,0,.45-.09,2.44,2.44,0,0,1,1.75-.44l0,.06a1.27,1.27,0,0,1-1.77.84,1.16,1.16,0,0,0-.5-.09c-.17,0-.35.12-.53.15a.79.79,0,0,1-.78-.58Z"/><path d="M59.88,15.23c.15-.31.34-.44.57-.41s.25.15.36.16a.44.44,0,0,0,.3-.15c.36-.39.55-.46,1.18-.3l.05.06a.79.79,0,0,1-.4.72,1,1,0,0,1-.74,0,.4.4,0,0,0-.33,0c-.1.05-.18.19-.27.26s-.43.05-.7-.19Z"/><path d="M59.26,16.35c.27-.19.42-.25.55-.14s.11.21.18.25.16,0,.25-.07c.33-.29.49-.34,1,.06l0,.07a.59.59,0,0,1-1,.34c-.09-.08-.17-.14-.26-.12s-.2.12-.31.16-.38-.14-.42-.48Z"/><path d="M62.49,27.33a4,4,0,0,1-.11,2.53c-.17.39-.41.75-.58,1.13a6.14,6.14,0,0,0-.31,1.21,24.57,24.57,0,0,1-1.36,4.7H60a6.45,6.45,0,0,1,1-4.86,5.37,5.37,0,0,0,.49-1.13,10.25,10.25,0,0,0,.16-1.24,11.8,11.8,0,0,1,.71-2.34Z"/><path d="M61.14,27.21a2.33,2.33,0,0,1-.08,1.55,5.7,5.7,0,0,0-.39.68,1.87,1.87,0,0,0-.1.75,3.86,3.86,0,0,1-.94,2.88l-.08,0a3.84,3.84,0,0,1,.57-3,2,2,0,0,0,.28-.7c0-.26,0-.53,0-.79a2.3,2.3,0,0,1,.67-1.39Z"/><path d="M9.29,66.05a8.11,8.11,0,0,0,1,1.68.9.9,0,0,0,.78.41c.32-.06.54-.36.87-.62a1,1,0,0,1,.73-.19,1.4,1.4,0,0,1,.63.37,9.46,9.46,0,0,1,.8.75,7.38,7.38,0,0,1,1.2,1.87l-.06.06a7.21,7.21,0,0,1-1.8-1.3c-.26-.26-.49-.55-.72-.83s-.23-.36-.57-.31-.62.33-1,.47a1.6,1.6,0,0,1-1.28-.11,2,2,0,0,1-.67-2.23Z"/><path d="M26.9,85.16c.27-.86.65-1.58.79-2.29a2,2,0,0,0,0-1.17c-.11-.41-.33-.78-.46-1.24a3.94,3.94,0,0,1,.62-2.59,5,5,0,0,0,.45-2.31l.08,0a2.87,2.87,0,0,1,.31,2.69c-.38.88-.93,1.43-1,2.19a2.73,2.73,0,0,0,.25,1.2A3.35,3.35,0,0,1,28.4,83,3,3,0,0,1,27,85.21Z"/><path d="M15.09,63.47a4.18,4.18,0,0,1,2.52,1.18c.63.8.78,1.77,1.32,2.47a3.71,3.71,0,0,0,.85.87,11.59,11.59,0,0,1,1.12.78,3.08,3.08,0,0,1,.88,2.72l-.08,0a5.25,5.25,0,0,0-1.39-2.05c-.31-.25-.68-.51-1-.86a2.6,2.6,0,0,1-.75-1.27,5.71,5.71,0,0,0-.46-1.28,3,3,0,0,0-.92-.88c-.65-.5-1.38-1-2.08-1.62Z"/><path d="M38.55,87.34a5.68,5.68,0,0,0,.75-2.49,12.1,12.1,0,0,1,.26-1.44A6.74,6.74,0,0,0,39.7,82a8.49,8.49,0,0,0-.43-2.64,4.57,4.57,0,0,1,0-2.9h.09a14.72,14.72,0,0,0,.78,2.66,4.69,4.69,0,0,1,0,2.94,6.13,6.13,0,0,0-.32,1.38A5,5,0,0,0,40,84.83a2.2,2.2,0,0,1-.32,1.53,3.42,3.42,0,0,1-1.08,1Z"/><path d="M42.48,79.61A3.73,3.73,0,0,1,42.24,82c-.19.36-.44.7-.6,1.06a3.57,3.57,0,0,0-.27,1.15,10.29,10.29,0,0,1-.11,1.2,2.34,2.34,0,0,1-.57,1.26,7.24,7.24,0,0,1-2.07,1.35L38.56,88A10.69,10.69,0,0,1,40,86.11c.44-.42.52-1.21.91-2A6.77,6.77,0,0,0,41.38,83a12,12,0,0,0,.18-1.2,12.19,12.19,0,0,1,.84-2.21Z"/><path d="M30.25,42.55a8.68,8.68,0,0,1-1.79.62,3.73,3.73,0,0,0-.93.18,1.89,1.89,0,0,0-.73.59,11.82,11.82,0,0,0-1,1.47A8.79,8.79,0,0,0,24.93,47h-.09A2.49,2.49,0,0,1,25,45a3.35,3.35,0,0,1,1.52-1.39,8.34,8.34,0,0,0,.89-.47c.27-.18.53-.43.83-.6a2.47,2.47,0,0,1,2,0Z"/><path d="M31.37,37.27A3.59,3.59,0,0,1,33.82,37a11.07,11.07,0,0,1,1.17.49c.38.15.77.27,1.17.41a4.11,4.11,0,0,1,2,1.53,3.28,3.28,0,0,1,.53,2.48h-.08a9.2,9.2,0,0,0-1.19-2,9.8,9.8,0,0,0-1.53-1.64,2.6,2.6,0,0,0-1-.56,5.19,5.19,0,0,0-1.18-.05,15.31,15.31,0,0,1-2.34-.3Z"/><path d="M34.8,35a2.66,2.66,0,0,1,1.65.52c.22.2.4.46.61.64a3.73,3.73,0,0,0,.75.45,3.2,3.2,0,0,1,1.35,1.18c.33.57.3,1.05.65,1.5l0,.08c-.72,0-1.11-.75-1.39-1.09l-.89-1.32a1.78,1.78,0,0,0-.59-.57,5.59,5.59,0,0,0-.82-.26,3.06,3.06,0,0,1-1.32-1.05Z"/><path d="M40.59,69.62a4.35,4.35,0,0,1,2.63,1A4.73,4.73,0,0,1,44,71.91a13.92,13.92,0,0,1,.59,1.3c.38.88.51,1.81.81,2.58A6.61,6.61,0,0,0,46.72,78l0,.07a3.44,3.44,0,0,1-2.09-2,9,9,0,0,1-.41-2.79,2.66,2.66,0,0,0-.38-1.27,3.1,3.1,0,0,0-1-.83,25.33,25.33,0,0,1-2.23-1.52Z"/><path d="M47,77.24a3.16,3.16,0,0,1-.22-1.57,2.53,2.53,0,0,0,.12-.77,1.2,1.2,0,0,0-.34-.68,14,14,0,0,1-1-1.15,3.35,3.35,0,0,1-.64-1.53l.07,0a5.15,5.15,0,0,1,1.28,1A3.39,3.39,0,0,1,47,74c.06.28.11.55.19.82s.25.52.32.8a2.19,2.19,0,0,1-.41,1.61Z"/><path d="M31.92,86.94c-.09-.77,0-1.43-.08-2a1.78,1.78,0,0,0-.23-1A4.28,4.28,0,0,1,31,83a3.82,3.82,0,0,1,.36-2.21,8.73,8.73,0,0,0,.44-2l.09,0A2.9,2.9,0,0,1,32.23,81c-.23.79-.69,1.29-.77,1.88a1.3,1.3,0,0,0,.37.9,2.85,2.85,0,0,1,.7,1A2.52,2.52,0,0,1,32,87Z"/><path d="M33.9,81.48c.2.25.34.14.27.21s-.13.15-.11.2.09,0,.12,0,0-.21,0-.22.15.12.4-.06l.08,0a.43.43,0,0,1,.21.67.51.51,0,0,1-.72.09c-.11-.09-.15-.17-.24-.21a1.16,1.16,0,0,1-.35-.11.34.34,0,0,1,.3-.55Z"/><path d="M33.91,85.5a1.38,1.38,0,0,0-.22.29c0,.07-.09-.11-.21-.14l0-.19c0,.08.09.07.15,0a.55.55,0,0,0,.09-.16s.05,0,.15,0a2.69,2.69,0,0,1,.37.16l0,.08a.62.62,0,0,1-.07.43.38.38,0,0,1-.35.19.49.49,0,0,1-.42-.21c-.11-.14-.13-.26-.25-.33h0l0-.2c0-.15.14-.4.32-.36a.36.36,0,0,1,.35.38Z"/><path d="M35.78,83.71A.78.78,0,0,1,36,84c0,.07-.09,0-.2-.05l-.06-.31c0,.1,0,.06,0,0a.2.2,0,0,0-.09-.18c-.08-.07-.07.2.28.23l.08,0c.32.16.24.53,0,.52a.28.28,0,0,1-.28-.12c-.08-.1-.08-.15-.19-.08l-.06-.31c-.06-.1-.13-.21-.06-.18s.13,0,.3.15Z"/><path d="M36.08,80.89c.26.13.34.2.26.22s-.19,0-.23,0,0,0,.07.09c.26.18.27.27-.26.19l-.08,0c-.48-.24-.42-.31-.1-.3.07,0,.13,0,.11,0l-.19-.13c0-.06.05-.07.34,0Z"/><path d="M36,85.78c-.1.3.2.33.13.24a.3.3,0,0,0-.18-.11s0,0,.07,0-.08-.29-.13-.26-.1.29.2.31h.08a.31.31,0,0,1-.05.56.37.37,0,0,1-.48-.36c0-.12,0-.18,0-.24s-.12-.17-.11-.28.43-.24.46.1Z"/><path d="M28.57,85.41c.22-.23.05-.37.07-.28a.3.3,0,0,0,.14.17s0,0-.08-.06-.18.16-.15.17.21-.11.07-.36l0-.08a.34.34,0,0,1,.53-.26.39.39,0,0,1,0,.6c-.08.08-.15.1-.17.17s0,.21-.07.3-.48,0-.4-.3Z"/><path d="M29.3,82.64c.28-.08.39-.08.34,0s-.15.12-.17.15,0,0,.12,0c.31,0,.38,0-.06.33l-.08,0c-.51.14-.52,0-.28-.17,0,0,.09-.09,0-.1a1,1,0,0,0-.22,0c-.08,0,0-.09.22-.26Z"/><path d="M30.77,85.26a1.41,1.41,0,0,0-.32.11c-.05,0,.05-.05.11-.17s0-.08,0,0,.13.16.23.09l-.67-.53c0-.07,0-.09.11-.07a1,1,0,0,1,.35.11l.06,0a.87.87,0,0,1,.2.31c0,.08,0,.12,0,.12l-.67-.53a.29.29,0,0,1,.44,0c.09.11.09.15.23.11s.24-.07.23,0,0,.2-.19.31Z"/><path d="M29.89,80.79c.21.22.38,0,.28,0a.35.35,0,0,0-.21,0s0,0,0-.09-.16-.23-.21-.18,0,.27.26.27h.09a.29.29,0,0,1,.14.49.31.31,0,0,1-.46-.15c0-.1,0-.16-.07-.18a.6.6,0,0,1-.26-.07c-.12-.11.08-.38.35-.21Z"/><path d="M30.19,78.18c.14.26.2.34.14.29a.7.7,0,0,0-.19-.1s0,0,.09,0,.14-.27.06-.29a.24.24,0,0,0-.18.08.16.16,0,0,0,.05.27l.08,0a.22.22,0,0,1-.07.35.35.35,0,0,1-.32.05.33.33,0,0,1-.08-.53c.07-.05.13-.07.12-.11s-.09-.15-.11-.23.14-.11.35.09Z"/><path d="M19.26,84.8c.25.24.37-.14.25-.07a.3.3,0,0,0-.12.17s0,0,0-.09-.14-.17-.12-.18l.43.08.08,0c.21.19.24.33.19.47a.36.36,0,0,1-.47.06c-.1-.06-.15-.11-.22-.11a.65.65,0,0,1-.3,0c-.21,0-.15-.59.21-.47Z"/><path d="M20.15,82.68a1.38,1.38,0,0,0-.25.24c0,.06,0-.16-.07-.23l.06-.27c0,.07.11,0,.21,0a.4.4,0,0,1,.21-.08c.11,0,.13.15.13.5l0,.08c-.21.25-.39.31-.48.21a.33.33,0,0,1-.1-.23c0-.12,0-.22-.1-.19l-.18,0,.24-.33c.07-.09.22-.29.31-.19a.31.31,0,0,1,.1.41Z"/><path d="M21.47,84c-.15.28-.07.38-.12.32s-.13-.14-.18-.14,0,.08,0,.12.2.08.2.08-.15,0-.25.32l-.06.07a.39.39,0,0,1-.57-.17.41.41,0,0,1,.25-.49c.11-.05.18-.06.2-.12a1.39,1.39,0,0,1,.06-.31c.12-.14.41-.07.45.24Z"/><path d="M22.06,85.91c.26.23.45-.06.2,0l-.4-.06c.13.1.19.1.16,0s-.06-.23,0-.27,0-.09.11-.06a1.17,1.17,0,0,1,.31.21l.05.07a1,1,0,0,1,.11.36q0,.12-.09.09s-.15-.06-.24-.11-.1,0,0,.15h0l-.4-.06c-.33,0-.14-.5.19-.38Z"/><path d="M22.71,83.81c-.13-.26-.21-.32-.15-.27a.86.86,0,0,0,.17.13s0,0-.06-.08c-.23-.21-.3-.12.23,0l.08,0c.5.19.37.4.07.29-.07,0-.12,0-.11,0s.08.14.1.2-.11.07-.29-.16Z"/><path d="M21.59,81.29c.31-.05.27-.29.18-.24a.26.26,0,0,0-.09.2s0,0,0-.1-.12-.2-.18-.15,0,.28.29.27h.08a.27.27,0,0,1,.2.43.21.21,0,0,1-.34-.08c-.05-.07-.07-.12-.1-.1a.5.5,0,0,1-.18.17c-.14,0-.23-.27.06-.38Z"/><path d="M21.59,79.17c.28.09.36.13.29.14a1.86,1.86,0,0,0-.22,0s0,0,.09,0c.28.11.3.17-.22.1l-.08,0c-.51-.16-.47-.2-.16-.18.08,0,.12,0,.1,0l-.2-.08c-.06,0,0,0,.32,0Z"/><path d="M24.12,81.1c-.15.26-.06.37-.08.3s-.09-.17-.13-.18,0,0,0,.1.21.06.21,0-.17,0-.34.2l-.07.06a.34.34,0,0,1-.5-.19.35.35,0,0,1,.31-.37c.1,0,.16,0,.19-.06a.78.78,0,0,1,.06-.27c.11-.12.35,0,.34.29Z"/><path d="M24.9,83.59a.74.74,0,0,1-.26,0l.38,0c0,.2,0,.31-.25.33s-.22.24-.1.4a.66.66,0,0,1,.09.36s-.08,0-.13,0a.16.16,0,0,0,0,.25l0,.08a.33.33,0,0,1-.46.11.69.69,0,0,1-.3-.4.65.65,0,0,1,.21-.59c.19-.14.35-.23.26-.48s.09-.41.32-.44l.37,0v.06a.69.69,0,0,1-.06.25Z"/><path d="M15.44,82.22c.27-.1.39-.1.37,0l-.49-.1c.08.06.23.17.21.07s-.09-.23-.08-.27.07-.1.46,0L16,82c.24.28.21.48,0,.48s-.22,0-.3-.06,0,.16,0,.29l-.49-.1c-.1,0-.06-.12.14-.34Z"/><path d="M15.25,79.25q.06-.42.09-.3c0,.06,0,.18,0,.21s0,0,0-.09c.07-.3.12-.33.14.2v.08c-.07.53-.12.49-.15.19,0-.08,0-.13,0-.1s0,.15,0,.21-.05,0-.05-.31Z"/><path d="M17.4,79c-.08.29.06.37,0,.3a.45.45,0,0,0-.16-.15s0,0,0,.1.2.09.21.06-.18-.06-.37.14l-.07,0a.33.33,0,0,1-.47-.21.28.28,0,0,1,.3-.28c.09,0,.15,0,.15,0s0-.18,0-.27.32-.08.36.22Z"/><path d="M16.8,83.81c-.3-.13-.38.24-.22.25s.17-.1.19-.12,0,0,0,.1.1.24.22.18a.22.22,0,0,0-.16-.4h-.08a.23.23,0,0,1-.14-.42c.13-.06.23,0,.25.18s0,.12,0,.11a.33.33,0,0,1,.2-.12c.17,0,.09.4-.21.28Z"/><path d="M42,88.14a4.61,4.61,0,0,1,.79-1.88,6.14,6.14,0,0,0,.66-.79,2.64,2.64,0,0,0,.31-1c.09-.69.15-1.26.27-2a3.78,3.78,0,0,1,.36-1,1.19,1.19,0,0,1,1-.6l0,.08c-.53.47-.41,1.08-.49,1.74a4.79,4.79,0,0,1-.73,2,5.73,5.73,0,0,0-.49.91c-.12.32-.17.68-.29,1a3.7,3.7,0,0,1-1.34,1.58Z"/><path d="M63.14,82.47a3,3,0,0,1,.52,2.14,6.76,6.76,0,0,0-.19,1.06,2,2,0,0,0,.29,1,7.46,7.46,0,0,1,.53,1,2.49,2.49,0,0,1,0,1.24,8.13,8.13,0,0,1-1,2h-.09a6.79,6.79,0,0,1,.18-2.16,3,3,0,0,0,.07-.89,6.79,6.79,0,0,1-.18-1c0-.38-.07-.75-.12-1.12S63,85,63,84.61a9.49,9.49,0,0,1,.11-2.12Z"/><path d="M5.46,79.67c.22-.19.3-.25.26-.19l-.14.17.08-.05c.24-.19.28-.2-.08.19l-.06.06c-.4.34-.4.3-.2.07,0-.06.08-.09.06-.08L5.21,80c-.06,0,0,0,.19-.24Z"/><path d="M7.38,69c.22-.19.3-.25.26-.19L7.5,69l.08,0c.24-.19.28-.19-.08.19l-.06.06c-.4.34-.4.3-.2.07l.06-.08-.17.13c-.07,0,0,0,.19-.25Z"/><path d="M8.37,70.71c.27-.09.37-.11.31-.07l-.19.11s0,0,.1,0c.29-.09.34-.06-.13.18l-.08,0c-.5.17-.48.13-.22,0,.06,0,.1-.06.08-.06L8,70.92c-.07,0,0,0,.26-.18Z"/><path d="M10,71.4c.28.09.37.13.29.14a1.77,1.77,0,0,0-.22,0s0,0,.09,0c.28.11.31.17-.22.1l-.08,0c-.51-.16-.46-.2-.16-.18.08,0,.13,0,.11,0l-.21-.08c-.06,0,0,0,.32,0Z"/><path d="M10.09,73.12c.13-.25.12-.36.11-.29a.56.56,0,0,0,0,.22s0,0,0-.1c0-.31-.18-.28.14.15l.05.06c.24.49,0,.56-.14.25,0-.07-.05-.11-.07-.09a1.65,1.65,0,0,1-.09.21c-.06.06-.12-.06,0-.33Z"/><path d="M16.52,72.64c.36.14.48,0,.46.25s.1.23.17.15,0-.21,0-.21l.42.48c0,.09.08.15,0,0s-.14-.09-.16,0a.14.14,0,0,0,.07.22l.06.06c0,.18-.22.3-.39.28a.53.53,0,0,1-.45-.43.58.58,0,0,1,.18-.54.6.6,0,0,1,.42-.19l.84,0-.41.49c-.16.19-.4.16-.53.19s-.26.09-.47.1a.39.39,0,0,1-.42-.27.51.51,0,0,1,.1-.49Z"/><path d="M18.76,75.17c-.15.28-.15.39-.2.31a1.13,1.13,0,0,0-.11-.22s0,.07.09,0,.1-.37-.11-.37,0,.17.21.31l.05.07c.12.24.08.45-.21.53a.43.43,0,0,1-.39-.68c.14-.14.22,0,.28-.13s.06-.16.12-.22.28,0,.29.31Z"/><path d="M19.11,73c.29-.12.16-.35.1-.23s0,.19.08.19,0,0-.09,0-.1.27.05.26.13-.26-.16-.3l-.08,0a.35.35,0,0,1,.26-.59c.34,0,.58.42.4.6s-.13.15-.15.23a.51.51,0,0,1-.14.35A.28.28,0,0,1,19,73Z"/><path d="M20.22,73.76c0-.28-.13-.32-.13-.3a.28.28,0,0,0,.14.11c.07,0,.07,0,.05,0l.08.18a.22.22,0,0,0,.07.21.15.15,0,0,0,.14,0c.07,0,0-.31-.32-.19l-.07,0a.3.3,0,0,1-.23-.51.39.39,0,0,1,.3-.06c.11,0,.21.15.24.22l.08.18h0s-.05,0,0,.13.09.17.05.22-.25.09-.37-.16Z"/><path d="M21.91,72.63c.06-.28.09-.37.08-.3l0,.21s0,0,0-.09c.08-.29.09-.32,0,.19l0,.09c-.12.51-.12.47-.06.17,0-.07,0-.11,0-.09l-.05.21q0,.11.06-.3Z"/><path d="M22.47,69.92c-.23-.17-.31-.23-.24-.2l.19.1s0,0-.07-.07c-.24-.18-.26-.22.2,0l.07,0c.44.31.39.31.12.17-.06,0-.1,0-.09,0l.18.13c.05.05,0,0-.29-.14Z"/><path d="M23.15,71.64a.57.57,0,0,0,.31,0c.05,0,0-.07-.1,0s-.06.16-.06.1-.05-.12-.22,0h0l.05.24c0,.1.08.19.14.2a.14.14,0,0,0,.15,0,.22.22,0,0,0,0-.16.17.17,0,0,0-.21-.11h-.09a.24.24,0,0,1-.15-.28.53.53,0,0,1,.16-.27.51.51,0,0,1,.33,0,.37.37,0,0,1,.29.31l.05.24,0,0a.48.48,0,0,1-.41.17c-.09,0-.15,0-.33,0a.2.2,0,0,1-.25-.22c0-.11.1-.2.28-.25Z"/><path d="M24.27,70.07c.25-.14.33-.19.28-.14l-.17.13s0,0,.09,0c.26-.14.3-.14-.13.16l-.07,0c-.46.26-.44.22-.2,0,.06,0,.1-.07.07-.06l-.19.1c-.07,0,0,0,.25-.2Z"/><path d="M24.5,71.82c-.09.16.13.21.17.19s.12-.09,0-.18a.11.11,0,0,0-.18.08s0,0,.06-.09c0-.33-.09-.27.45-.11l.07.05c.34.48-.1.79-.45.52a.39.39,0,0,0-.22-.1c-.08,0-.23.09-.39-.1a.32.32,0,0,1,.07-.44c.1-.1.42-.11.42.1Z"/><path d="M25.94,71.53c0-.29-.06-.37,0-.3a.61.61,0,0,0,.11.18s0,0,0-.09c-.19-.26-.33-.06.21,0l.08,0c.52.19.31.51,0,.34-.07,0-.12-.06-.12,0s0,.17,0,.24-.19,0-.24-.26Z"/><path d="M17.51,59.4a.59.59,0,0,0,.21.23s.07,0,0,.06l-.45-.22c.06.05.16.12.21.09s0-.1,0-.19-.11-.21-.09-.26l.38.54c.11,0,.1-.23-.19-.25l-.08,0c-.21-.25,0-.63.4-.61l.47,0-.1.52a.48.48,0,0,1-.39.39.39.39,0,0,0-.25.07c-.05.05,0,.18-.09.28l-.05.11-.4-.32a.26.26,0,0,1,0-.35.37.37,0,0,1,.39-.13Z"/><path d="M18.55,61c.25.22.43,0,.24,0s-.18.12-.15.1a.2.2,0,0,0,0-.19L18.4,61c-.07-.08-.14-.12-.1-.1a1.08,1.08,0,0,0,.42,0h.08c.23.09.28.2.3.31s-.11.15-.22.15l-.26.11c-.1-.09-.11-.21-.14-.24s-.15,0-.26,0,0-.45.27-.32Z"/><path d="M20,60.81a1.82,1.82,0,0,1-.07.32s0,0-.07-.09-.07-.15-.08-.1,0,.1,0,.23l-.21-.73c0-.2-.07,0,.28.21l.06.07c.21.33,0,.57-.13.45l-.22-.73c.08.12.13.2.17.21s.06,0,.08-.13.06-.15.1-.1a.49.49,0,0,1,.1.3Z"/><path d="M19.1,58.66c.06.28.08.38,0,.31l-.06-.21s0,0,0,.1c0,.3,0,.33-.1-.17l0-.09c-.11-.51-.08-.48,0-.19,0,.07,0,.11,0,.09l0-.22c0-.07,0,0,.1.3Z"/><path d="M18.69,58.3c-.29,0-.39,0-.33-.1s.17-.08.2-.11,0-.05-.11-.06c-.31-.06-.36-.15.14-.34h.09c.53,0,.52.12.23.27-.07,0-.11.07-.08.1l.23,0c.07,0,0,.11-.29.21Z"/><path d="M19.42,56.3c.15-.27.09-.38.1-.3a.28.28,0,0,0,.12.17s0-.05-.08-.06-.2.25,0,.29.25-.31-.05-.32h-.09c-.3-.19,0-.62.3-.57s.47.55.27.67-.15.09-.17.16a1,1,0,0,1-.07.31c-.15.14-.38,0-.39-.27Z"/><path d="M20.55,57.5c.24.18.31.25.23.23l-.2-.08s0,0,.06.08c.23.2.24.26-.24,0l-.07,0c-.43-.32-.37-.34-.09-.23.07,0,.12,0,.1,0s-.12-.11-.16-.15,0,0,.3.1Z"/><path d="M20.18,58.9c.15.24.2.32.15.27L20.21,59s0,0,0,.08c.16.27.17.3-.13-.14l0-.07c-.27-.45-.25-.43-.07-.18l0,.08-.1-.19.17.25Z"/><path d="M20.24,52.65c.05-.29-.08-.37-.06-.29a.4.4,0,0,0,.11.18s0,0-.06-.07-.21-.08-.22,0,.15.12.4,0l.08,0c.27-.06.4.09.42.21a.24.24,0,0,1-.31.15c-.08,0-.12,0-.13,0a.78.78,0,0,1,0,.24c0,.11-.25,0-.27-.25Z"/><path d="M21.63,53.14a.72.72,0,0,1,.06.33c0,.06,0,.1-.14,0l.1-.36c-.14,0-.13.15-.07.08s.08-.21.06-.22c0-.16-.15.14.24.22l.08,0c.32.3-.05.71-.28.57s-.22-.16-.25-.28-.11-.1-.3-.15l.1-.36c0-.13,0-.14.07-.13a.76.76,0,0,1,.28.18Z"/><path d="M22.15,53c0-.29,0-.4.1-.34s.09.17.13.19.05,0,.06-.11c0-.32.15-.38.37.12l0,.08c0,.54-.12.53-.29.26-.05-.07-.08-.11-.11-.08s0,.16,0,.23-.11,0-.23-.27Z"/><path d="M22.58,54.74c.11.3.35.18.26.12a.28.28,0,0,0-.22,0,.2.2,0,0,0,.05-.09c0-.18-.15-.25-.21-.2s0,.29.26.27h.09a.3.3,0,0,1,.1.52.34.34,0,0,1-.5-.2c0-.1,0-.17-.05-.2s-.17-.07-.23-.16.22-.38.42-.13Z"/><path d="M24,53.93l-.3-.08.21,0-.09,0c-.29-.08-.32-.09.19,0H24c.52.13.48.13.19.07l-.1,0,.21.06L24,54Z"/><path d="M23.32,55.9c-.06.17.16.21.25.14s.1-.12,0-.15a.27.27,0,0,0-.22,0s0,0-.07-.12a.17.17,0,0,0-.28-.05c0,.06.12.14.39.09h.08c.28,0,.36.19.34.33a.32.32,0,0,1-.47.1.7.7,0,0,0-.18-.15c-.07,0-.21,0-.28-.1s0-.18.06-.27.37-.1.35.09Z"/><path d="M30.14,63.67a3.23,3.23,0,0,1,.93,2.3,3.41,3.41,0,0,1-.44,1.23,3.78,3.78,0,0,1-.75,1c-.29.32-.47.55-.47.8s.08.65.06,1.12a1.59,1.59,0,0,1-.72,1.28,3.46,3.46,0,0,0-.94.67l-.08,0a2,2,0,0,1,.56-1.14,1,1,0,0,0,.27-.81,5.21,5.21,0,0,1,.06-1.26,1.54,1.54,0,0,1,1-1,1.37,1.37,0,0,0,.78-.77,2.16,2.16,0,0,0,0-1.1c-.08-.7-.26-1.43-.3-2.29Z"/><path d="M30.05,70.7c.09-.3-.09-.37-.06-.26a.14.14,0,0,0,.2,0s-.05,0-.07.05.29.26.34-.07-.49-.14-.27,0l.07,0c.1.37-.63.52-.71-.12s.6-.6.79-.32a1.93,1.93,0,0,1,.11.29.53.53,0,0,1,.17.35.29.29,0,0,1-.57,0Z"/><path d="M31.26,68.28c-.28-.07-.37-.1-.3-.09l.21,0s0,0-.09,0c-.29-.08-.33-.09.19,0l.08,0c.52.12.48.12.18.06h-.09l.21,0-.31-.06Z"/><path d="M31.65,70.23a1,1,0,0,1,.1-.55c0-.13.32-.11.44-.21s0-.24-.15-.16a.76.76,0,0,1-.32,0l-1.15-.39,1-.43a1.11,1.11,0,0,1,.79,0l0,.07a1,1,0,0,1-.33.71L32,68.41a.94.94,0,0,1,.53.44.87.87,0,0,1-.09.74c0,.19.05.47-.12.59a.64.64,0,0,1-.62.12Z"/><path d="M33.28,62.46a3.17,3.17,0,0,0,0,1.3.91.91,0,0,0,.24.63c.17.18.48.18.72.55a1.2,1.2,0,0,1,.06.55,2.91,2.91,0,0,1-.05.4,5.23,5.23,0,0,1-.15.77,4,4,0,0,1-.82,1.4l-.08,0a4.05,4.05,0,0,1,0-1.63,5.44,5.44,0,0,1,.26-.74c0-.12.11-.24.17-.36s.11-.16.14-.23c0-.38-.8-.5-1.16-1a1.15,1.15,0,0,1,.54-1.63Z"/><path d="M34.65,67c.32-.09.12-.38.08-.26a.29.29,0,0,0,0,.21s0,0-.07-.07a.26.26,0,0,0-.21-.05,2.76,2.76,0,0,0,.41-.1H35c.27,0,.37.11.41.22a.31.31,0,0,1-.33.23c-.1,0-.16,0-.19,0a.5.5,0,0,1-.13.25c-.14.11-.45-.23-.16-.43Z"/><path d="M30.91,53.22a3.28,3.28,0,0,1,1.84,0,8,8,0,0,1,.88.44,4,4,0,0,1,.65.75c.34.4.8.35,1.48.74a1.25,1.25,0,0,1,.58,1c0,.36-.1.6-.06.91l-.07,0c-.31-.2-.4-.61-.52-.83s-.22-.28-.41-.4-.47-.24-.76-.42a1.34,1.34,0,0,1-.66-.88c-.07-.31-.13-.61-.36-.72a3.73,3.73,0,0,0-.88,0,3.27,3.27,0,0,1-1.72-.63Z"/><path d="M28.94,48.26c.19-.21.26-.28.22-.22l-.13.17s0,0,.08-.06c.2-.23.24-.24-.08.18L29,48.4c-.35.39-.34.35-.16.11,0-.06.07-.1.05-.08l-.15.16c-.05,0,0,0,.18-.26Z"/><path d="M26,49.17c.3,0,.41,0,.35,0s-.15.12-.15.16.05,0,.06-.07-.13-.25-.25-.07.14.19.35,0l.08,0c.26,0,.48.1.37.45s-.56.28-.65.08-.08-.15-.14-.17a1.57,1.57,0,0,1-.29,0c-.13-.1-.07-.24.19-.38Z"/><path d="M27.66,49.52c.28.08.37.12.3.11l-.22,0s0,0,.09,0c.29.1.31.14-.21.05h-.08c-.51-.15-.47-.18-.17-.14.08,0,.12,0,.1,0l-.2-.07c-.07,0,0,0,.31,0Z"/><path d="M26.77,50.74c.16.28.4.07.29,0a.28.28,0,0,0-.21,0s0,0,.06-.08a.24.24,0,0,0,.05-.22,1.64,1.64,0,0,0,0,.42V51c-.06.27-.12.36-.21.38s-.18-.12-.14-.31,0-.14,0-.16a.56.56,0,0,1-.25-.08c-.11-.12.16-.4.38-.16Z"/><path d="M24.55,43.29c-.1-.33-.23-.36-.16-.46s.14-.16.1-.24a.07.07,0,0,0-.14,0c0,.16.08.25.08.18s-.15-.11-.18,0a.14.14,0,0,0,.13.2l.08,0c.08.2-.18.41-.4.39a.59.59,0,0,1-.54-.49.66.66,0,0,1,.74-.74,1.1,1.1,0,0,1,.42.22.92.92,0,0,1,.4.28.48.48,0,0,1-.46.68Z"/><path d="M25.8,42.55a.33.33,0,0,1-.29-.42l.65.37c0-.1-.29-.1-.21,0s.23,0,.2-.11-.07-.12-.08,0,0,.18.24.26l.07,0a.37.37,0,0,1-.14.52A.43.43,0,0,1,25.7,43c-.16-.16,0-.4,0-.5s-.19-.26-.11-.48l.14-.33.52.69s0,0-.34.14Z"/><path d="M27,41c.24.08.3.12.32.16s-.05.05-.26.05L26.93,41c0-.17,0-.26-.09-.29s0,.13.33.22l.08,0c.26.19.23.43.11.48a.38.38,0,0,1-.41-.17l-.08-.14-.06,0c-.2-.07-.24-.11-.23-.14s.11,0,.36,0Z"/><path d="M32.4,42.62c.18-.22.25-.29.23-.22s-.08.17-.09.2,0,0,.08-.06c.2-.23.25-.24,0,.23l0,.07c-.33.41-.35.36-.22.08,0-.06,0-.11,0-.1l-.14.17c-.06,0,0-.05.12-.3Z"/><path d="M32.47,44.08c-.25.17-.19.34-.14.24s0-.2-.06-.2,0,0,.09,0,0-.24,0-.22.06.13.24.35l0,.08c0,.28-.07.43-.29.47s-.51-.23-.42-.48.07-.2.08-.29a.5.5,0,0,1,.15-.37c.23-.13.48.1.36.39Z"/><path d="M33.94,42.39c0-.28.07-.37.09-.3s0,.18,0,.21,0,0,0-.09c.07-.3.12-.33.14.2v.09c-.07.52-.12.48-.15.18,0-.08,0-.12,0-.1a1.88,1.88,0,0,0,0,.22c0,.06-.05,0-.05-.32Z"/><path d="M34.12,44.85c-.07.27-.09.37-.08.3l0-.21,0,.09c-.07.29-.08.32,0-.19v-.09c.13-.51.13-.47.07-.18,0,.08,0,.12,0,.1l.06-.21c0-.07,0,0-.06.3Z"/><path d="M34.53,29.86a2.21,2.21,0,0,1-1.24,1c-.28.06-.57,0-.84.09a5.82,5.82,0,0,0-.77.26,8.62,8.62,0,0,1-1.48.37,3.09,3.09,0,0,0-1.32.41l-.07,0A1.5,1.5,0,0,1,30,30.73a4,4,0,0,1,1.62.06,1.27,1.27,0,0,0,.75-.06,3.61,3.61,0,0,0,.62-.47,2.86,2.86,0,0,1,1.49-.47Z"/><path d="M29.22,33.81c.14-.33-.16-.39.07-.25s.14-.15-.07,0h0l.64.09c.18,0,.13-.21.07-.21s-.24,0-.2.27v.08c-.13.25-.44.16-.57,0a.44.44,0,0,1,.11-.66l.9-.46-.27.55v0c-.12.35-.28.31-.17.61s-.42.37-.5,0Z"/><path d="M31.09,33.29c.24.16.31.22.24.19l-.19-.09s0,0,.07.06c.25.18.26.22-.2,0l-.07-.05c-.44-.29-.4-.3-.13-.16.07,0,.11,0,.09,0l-.17-.13c-.06,0,0,0,.28.13Z"/><path d="M30.69,34.64l-.29.27.46-.24c-.18-.14-.23-.06-.22,0s.18-.12.14-.19,0-.11,0-.05.11.13.24.34l0,.08a.54.54,0,0,1-.12.43c-.09.09-.23,0-.35-.06s-.11-.34-.16-.39a1,1,0,0,1-.29-.38h0l.4-.42.05.18.12.38Z"/><path d="M31.71,33.37c.3,0,.36-.14.28-.11a.38.38,0,0,0-.16.14s0,0,.06-.07,0-.22,0-.22-.1.18.1.38l.05.07a.3.3,0,0,1-.11.46.24.24,0,0,1-.23-.27c0-.08,0-.13,0-.13s-.16.07-.24.06-.09-.27.21-.31Z"/><path d="M29.55,29.86a.59.59,0,0,1,.68-.38,2.29,2.29,0,0,0,.33.24.48.48,0,0,0,.34-.07.94.94,0,0,1,1.28.21l0,.08a.83.83,0,0,1-1.35.18.41.41,0,0,0-.31-.13,1.61,1.61,0,0,0-.33.2c-.2.07-.36,0-.64-.25Z"/><path d="M33.55,32.59c.19-.24.18-.35.19-.25a.29.29,0,0,0,0,.21s0,0-.08,0-.29.31.08.4c.54-.07.23-.58,0-.35l0,.08c-.34.17-.57-.58.11-.63.51.11.48.59.23.72s-.18,0-.22.08-.08.19-.18.24-.24-.09-.18-.37Z"/><path d="M35,31.49c0,.29.12.36.09.28a.38.38,0,0,0-.14-.16s0,0,.07.06.22,0,.22,0-.17-.09-.39.08l-.07,0c-.26.11-.41,0-.45-.14a.23.23,0,0,1,.28-.21c.08,0,.13,0,.13,0a1.11,1.11,0,0,1-.05-.24c0-.12.26-.08.31.21Z"/><path d="M34.87,33.4c-.27-.1-.33-.21-.25-.22a1.17,1.17,0,0,1,.21.08s0,0,0-.09c-.17-.28.06-.43.23.08l0,.08c.12.53.29.4.08.17l-.07-.06a.7.7,0,0,0,.18.11c.07,0,0-.06-.28-.13Z"/><path d="M35.92,33.88a.89.89,0,0,0,0,.31c0,.05,0,0,0-.09s-.08-.14-.07-.09,0,.09.12.19h0l0-.56c.1-.06.09,0,.09,0a1.35,1.35,0,0,1-.22.33l-.06.06a1.58,1.58,0,0,1-.34.2s-.1,0,0-.09l0-.56h0c.13.07.2.12.24.11s.06,0,.06-.15.07-.16.12-.11.11.14.11.32Z"/><path d="M37,34.55c.29,0,.38-.07.32,0l-.18.12s0,0,.1,0c.28-.15.2-.25,0,.25l0,.08c-.33.42-.52.22-.33-.05,0-.06.07-.11,0-.11s-.16,0-.23,0,0-.14.25-.24Z"/><path d="M38.65,35c-.24.17-.33.23-.32.15a1.38,1.38,0,0,0,.08-.2s0,0-.11,0c-.26.2-.29.21-.14-.33l0-.07c.32-.42.45-.29.37,0,0,.08,0,.13,0,.13s.14-.09.21-.12.08.1-.08.33Z"/><path d="M37.42,32.77c0-.31-.15-.34-.08-.29a.28.28,0,0,0,.21,0s0-.06-.11,0-.19.18,0,.19.1-.1.09-.17-.12-.27-.23-.13l0,.07c-.2.07-.28-.28-.21-.39a.44.44,0,0,1,.34-.29c.38,0,.5.26.47.48s-.05.18,0,.25a.82.82,0,0,1,.15.31c0,.23-.37.33-.54,0Z"/><path d="M39.11,32.64c.09.28.12.38.06.33a.44.44,0,0,0-.18-.11s0,0,.07.07.23-.1.19-.15-.34,0-.25.28l0,.08c0,.32-.45.27-.54.12a.33.33,0,0,1,.14-.48c.09,0,.14,0,.15-.09s-.06-.17-.07-.25.16-.08.36.13Z"/><path d="M39.76,34.07a.32.32,0,0,1-.43.45.57.57,0,0,1-.15-.39,1.68,1.68,0,0,0-.1-.29c-.15-.24.25-.66.62-.52s.39.57.07.7h-.08c-.28-.1-.36.13-.26.18s.3-.19.1-.21-.13,0-.09,0,.12-.11.1-.18-.17.12.14.2Z"/><path d="M39.3,31.1c-.31-.05-.31.18-.29.07A.2.2,0,0,0,39,31s-.09,0-.12.11-.18.3-.12.27a.21.21,0,0,0,0-.21.15.15,0,0,0-.24.08l0,.09c-.14.12-.37-.05-.4-.2a.52.52,0,0,1,.15-.5.4.4,0,0,1,.53,0c.09.05.16.09.23.06s.16-.15.3-.17a.32.32,0,0,1,.13.59Z"/><path d="M37.06,29.6c.15.24.2.33.16.27l-.13-.18a.39.39,0,0,0,0,.09c.15.26.16.3-.13-.15l0-.07c-.27-.45-.24-.42-.07-.18,0,.07.07.1.06.08l-.11-.19.18.26Z"/><path d="M41,78.13c-.22-.19-.29-.26-.23-.22l.18.13s0,0-.06-.07c-.23-.21-.24-.24.18.08l.06,0c.4.35.36.34.12.16l-.08-.05.15.15s0,0-.25-.18Z"/><path d="M38.12,74.84c0-.31-.13-.36-.08-.3a.25.25,0,0,0,.21,0s0,0-.1,0,.1.33.28.1-.2-.35-.3-.07l0,.09c-.1.13-.33,0-.4-.09a.42.42,0,0,1,0-.46c.3-.41.83-.14.79.11s0,.2,0,.27.15.19.15.33-.35.3-.53,0Z"/><path d="M39.24,73.13c.29,0,.37-.08.31,0a.58.58,0,0,0-.16.15s0,0,.1,0c.27-.2.1-.3.12.25v.08c-.18.53-.54.34-.42,0,0-.08,0-.13,0-.14a1.56,1.56,0,0,1-.25,0c-.1,0,0-.21.22-.31Z"/><path d="M40.08,74.73c.11.31.41.18.22.08l-.14-.25c-.08.12-.08.22,0,.14a.4.4,0,0,0,0-.24c0-.13-.09.05.19.31l0,.07c.16.34,0,.56-.2.44s-.14-.16-.16-.26-.09,0-.22.06l-.14-.25c-.2-.21.16-.45.37-.18Z"/><path d="M40.82,73.11c-.28-.07-.38-.09-.3-.08l.21,0-.09,0c-.3-.07-.33-.08.19,0l.08,0c.51.13.48.13.18.07l-.09,0,.21.06-.31-.06Z"/><path d="M41.07,73.38c.28-.09.39-.09.35,0a2,2,0,0,0-.15.17s0,0,.13,0c.31-.06.4,0,0,.37l-.08,0c-.51.17-.53,0-.32-.18,0-.06.08-.11,0-.12s-.16,0-.22,0,0-.1.19-.29Z"/><path d="M44,88a1.06,1.06,0,0,1-.51.7l-.4.26v-.59a1.71,1.71,0,0,1,1-1.52c.54-.27,1.17-.55,1.28-1s.09-.93.28-1.55A1.84,1.84,0,0,1,47,83.05l0,.07a3.68,3.68,0,0,0-.53,1.45,3.1,3.1,0,0,1-.61,1.71c-.58.52-1.24.38-1.52.93s-.48.88-.74,1.33l-.39-.33a2.32,2.32,0,0,0,.66-.22Z"/><path d="M45,89.75c.31-.11.38-.17.48-.11a1.34,1.34,0,0,0,.16.22.14.14,0,0,0,.2-.07,2,2,0,0,0,.11-.37.29.29,0,0,0,0,.19c.13.18.28.11.35-.08l-.31-.24.19,0,.06.06c0,.07,0,.13,0,.19L46,89.34a.4.4,0,0,1,.74,0,.55.55,0,0,1-.09.64.66.66,0,0,1-.7.15.36.36,0,0,0-.29,0,.92.92,0,0,1-.32.18.44.44,0,0,1-.4-.55Z"/><path d="M47.47,88.79c.17.22.22.32.14.3L47.42,89s0,0,0,.11c.17.26.14.34-.29,0L47.09,89c-.32-.42-.24-.45,0-.29.07,0,.11.06.11,0a1.3,1.3,0,0,0-.11-.19c0-.08.07,0,.3.14Z"/><path d="M46.84,91a1.91,1.91,0,0,1-.33-.22c-.07,0,.07-.13.13-.26l.27,0c-.08,0,0,0,.09,0s.11-.12,0-.16,0,0,.05,0l.37.17,0,.06a.53.53,0,0,1-.09.46.41.41,0,0,1-.47.14.45.45,0,0,1-.39-.45,1.41,1.41,0,0,1,.12-.5v0l.25.08c.15,0,.35.14.31.29a.42.42,0,0,1-.33.35Z"/><path d="M48.25,88.91c.18.29.41-.08.27-.06a.25.25,0,0,0-.19.1s0,0,0-.1-.11-.2-.11-.2.1.1.31.28l.06.06c.15.23.16.35.09.44a.28.28,0,0,1-.38-.12c-.07-.08-.09-.14-.13-.15a.68.68,0,0,1-.28,0,.2.2,0,0,1,0-.27.21.21,0,0,1,.35,0Z"/><path d="M48.52,87.26c.18-.22.25-.29.23-.22a1.85,1.85,0,0,0-.1.2s0,0,.08-.06c.21-.23.26-.23,0,.23l0,.07c-.33.41-.35.35-.21.08,0-.06.05-.11,0-.1a1.38,1.38,0,0,0-.15.17c-.06,0,0,0,.12-.3Z"/><path d="M48.68,91c.3,0,.33-.2.25-.16a.29.29,0,0,0-.12.18s0,0,0-.09,0-.22-.08-.21-.05.23.21.33l.08,0a.3.3,0,0,1,0,.49.24.24,0,0,1-.32-.19c0-.08,0-.13-.08-.12s-.14.1-.23.11-.16-.29.14-.37Z"/><path d="M50.48,89.49c-.07.28-.09.37-.08.3l0-.21s0,0,0,.09c-.07.29-.08.32,0-.19l0-.09c.13-.51.13-.47.07-.18,0,.08,0,.12,0,.1l.06-.21q0-.1-.06.3Z"/><path d="M52.71,85.32c.35,0,.1-.41,0-.22s.08.17.12.16,0-.06-.05-.1-.26,0-.14.16.38-.11.15-.29l-.07,0c-.14-.33.35-.52.57-.29s.12.55-.07.61-.15.06-.16.12,0,.21-.06.32c-.26.27-.73-.24-.36-.43Z"/><path d="M54.58,91.26c.32,0,.25-.26.22-.16a.22.22,0,0,0,0,.21s0,0-.05-.08-.21,0-.21-.12a.59.59,0,0,1,.4-.31H55c.26.11.36.12.42.24a.46.46,0,0,1-.3.42.73.73,0,0,0-.25.09c0,.06-.13.19-.25.23s-.45-.31-.17-.51Z"/><path d="M55.86,88.7c.11-.26.13-.36.12-.29a.8.8,0,0,0,0,.22s0,0,0-.09-.25-.08-.27,0a.21.21,0,0,0,.39.07l0-.07c.24-.2.47.11.43.26a.27.27,0,0,1-.4.15c-.07,0-.11-.09-.13-.06a1,1,0,0,1-.1.22c-.08.06-.12-.05-.08-.33Z"/><path d="M56,91.26c.11-.26.16-.34.15-.27l0,.21s0,0,.06-.08c.13-.28.18-.3,0,.21l0,.08c-.21.49-.22.44-.15.15,0-.07,0-.12,0-.1l-.1.19c0,.06,0,0,.06-.31Z"/><path d="M57,89.51c0-.28,0-.38.08-.32a1.56,1.56,0,0,0,.08.21s0,0,0-.1c0-.31.12-.35.25.17v.09c0,.53-.1.5-.2.21,0-.07,0-.12-.07-.09s0,.16,0,.22-.08,0-.14-.3Z"/><path d="M57,89.37c0-.29,0-.39.06-.33s.06.18.08.21,0,0,0-.1c0-.31.09-.35.22.17v.08c0,.53-.07.51-.17.22,0-.08-.05-.12-.07-.09s0,.15,0,.22-.07,0-.14-.3Z"/><path d="M58.82,88.91l.19.36-.53-.52c.1.19.18.15.21.11s-.2-.11-.23,0-.06.12,0,.07.09-.14,0-.37v-.08a.37.37,0,0,1,.44-.28c.19,0,.28.23.29.41s-.23.31-.24.39l-.07.46-.53-.52.41,0Z"/><path d="M57.23,86.65c.23-.19,0-.37,0-.29a.19.19,0,0,0,.05.2s0,0-.05,0l.07.17a.85.85,0,0,1-.18.1s-.07,0,0,.07.3.09.44-.28-.17-.3-.19-.28a.33.33,0,0,0-.12.05c-.09,0-.06.18,0,.14l.08,0c.05,0,.08.12,0,.16a.29.29,0,0,1-.15.05s-.27,0-.22-.34a.43.43,0,0,1,.57-.31.18.18,0,0,1,.12.16,1.36,1.36,0,0,1-.06.2l.06.17c-.06.06-.1.08-.1.16a.34.34,0,0,1-.07.27c-.12.1-.43-.09-.26-.36Z"/><path d="M58.19,84.53c.21-.18.25-.32.1-.24a.2.2,0,0,0,0,.26s0,0,0,.12.33.24.35.09-.12-.18-.36-.06l-.08,0c-.28,0-.42-.21-.33-.45a.46.46,0,0,1,.39-.21.29.29,0,0,1,.31.23c0,.12,0,.2,0,.3a.34.34,0,0,1-.15.39c-.29.09-.37-.13-.26-.39Z"/><path d="M58.89,85.79c.09.29.28.23.19.22a.29.29,0,0,0-.21,0s.05,0,.1,0,0-.23,0-.22,0,.21.25.29l.07,0a.36.36,0,0,1-.16.57.4.4,0,0,1-.48-.35c0-.11,0-.18,0-.24s-.18-.11-.23-.21.21-.41.46-.21Z"/><path d="M65.76,85.32a2.47,2.47,0,0,1,.4,1.65c-.07.29-.21.56-.27.83a4.8,4.8,0,0,0-.08.85,2.54,2.54,0,0,1-.68,1.67,5.38,5.38,0,0,1-1.47.87l-.06,0a3.68,3.68,0,0,1,.86-1.44,8.11,8.11,0,0,0,.9-1.18,1.49,1.49,0,0,0,.25-.75,3.23,3.23,0,0,0-.16-.81,3.05,3.05,0,0,1,.22-1.63Z"/><path d="M68.83,81.1c.27.13.38,0,.29,0a.35.35,0,0,0-.18.11s0,0,.06-.07,0-.24-.09-.22,0,.2.21.33l.07.05a.3.3,0,0,1,0,.49.28.28,0,0,1-.36-.23c0-.09,0-.15-.07-.16s-.18,0-.26,0,0-.32.28-.29Z"/><path d="M70.34,83.58c.07-.28.09-.37.08-.3l0,.21s0,0,0-.09c.07-.29.08-.32,0,.19l0,.09c-.13.51-.13.47-.07.17,0-.07,0-.11,0-.09l-.06.21c0,.07,0,0,.06-.31Z"/><path d="M71.44,82.57a1,1,0,0,1,.27.2c.05,0-.07,0-.19,0l-.23-.28c0,.11.07.06.06,0a.59.59,0,0,1,0-.22s0,0,.09,0a1.34,1.34,0,0,1,.16.31l0,.08a1.16,1.16,0,0,1,0,.35q0,.12-.06.06a.57.57,0,0,1-.13-.17c0-.09-.08-.13-.08,0l-.24-.27c-.09-.07-.19-.14-.12-.14a1.39,1.39,0,0,1,.33.06Z"/><path d="M71.84,81.13A.1.1,0,1,0,72,81c-.1-.07-.16,0-.13,0s.41,0,.32-.13a.21.21,0,0,0-.27-.09c-.06.06.05,0,0-.11l-.06-.6a1,1,0,0,1,.16.31v.08a.86.86,0,0,1-.28.22L69.48,82l2.18-2a.57.57,0,0,1,.79.83c-.15.13,0,.41-.12.64a.46.46,0,0,1-.53.09c-.25-.12-.25-.47,0-.5Z"/><path d="M72,78.57c.15.27.33.18.24.15a.35.35,0,0,0-.21,0s0,0,.08,0,0-.24,0-.23-.07.22.2.32l.07,0a.33.33,0,0,1-.12.54.36.36,0,0,1-.42-.32c0-.11,0-.17,0-.21s-.18-.08-.23-.16.16-.38.41-.19Z"/><path d="M69.55,86c.29,0,.37-.07.31,0a.51.51,0,0,0-.18.12s0,0,.09,0,.13-.18.11-.18-.1.12,0,.4v.08c0,.27-.19.36-.29.36s-.15-.15-.09-.32,0-.12,0-.13-.17,0-.24,0,0-.22.24-.27Z"/><path d="M68.94,88.87c-.35-.14-.44-.29-.43-.39s0-.21,0-.26-.15,0-.12.12.15,0,.14,0,0-.09,0-.09.09.15.43.18l.06.06a.59.59,0,0,1-.72.64.69.69,0,0,1-.5-.48.49.49,0,0,1,.29-.62,1.43,1.43,0,0,1,.49,0,1,1,0,0,1,.51.09c.28.25.16.56,0,.82Z"/><path d="M69.22,90.57c0,.3.17.36.07.29s-.18-.09-.2-.07,0,.07.12.08L69,90.58c.07-.12.07-.19.09-.17a2.69,2.69,0,0,0,.23.35l0,.07a.41.41,0,0,1-.15.47.28.28,0,0,1-.32-.19l-.21-.29c.09-.06.16-.09.17-.13s-.07-.16-.08-.26.27-.21.43.06Z"/><path d="M70.43,89c-.16-.24-.21-.33-.15-.28l.16.15s0,0,0-.1c-.15-.25-.15-.31.21.08l.06.07c.3.43.25.43,0,.22-.06-.05-.09-.08-.09-.06l.12.19c0,.07,0,0-.25-.21Z"/><path d="M70.62,90.74c.28.11.38,0,.29,0a.41.41,0,0,0-.18.12s0,0,0-.08-.07-.22-.12-.2,0,.21.25.29l.08,0a.32.32,0,0,1,.05.51.3.3,0,0,1-.41-.19c0-.09,0-.15-.08-.15s-.18,0-.27,0,0-.33.26-.32Z"/><path d="M42.26,62.93c1,.32,1.81.56,2.7.8a9.36,9.36,0,0,0,1.41.36,2.12,2.12,0,0,1,1.36.75,6.25,6.25,0,0,1,1.37,2.7,6.37,6.37,0,0,1,.11,1.51,1.87,1.87,0,0,0,.22,1.3l0,.07c-.55-.19-.72-.86-.83-1.31s-.22-.91-.34-1.36a17.06,17.06,0,0,0-.86-2.65,1.18,1.18,0,0,0-1-.74c-.46,0-1,.11-1.49.07A3.92,3.92,0,0,1,42.21,63Z"/><path d="M49.32,72.41c.17-.07.18-.2.16-.24s-.1,0,0,.11l-.09.23c.07,0,.14,0,.12,0s0,0,0,.07.24.12.29-.07l-.25-.39c.06-.06,0,.09.18.4l0,.08c-.07.36-.4.48-.57.31l-.26-.27v-.13a.4.4,0,0,1,.56-.35.93.93,0,0,1,.2.15s.14,0,.22.16l-.09.23a.27.27,0,0,1-.38.2.3.3,0,0,1-.14-.42Z"/><path d="M50.39,71.17c.29,0,.39,0,.32.11a2,2,0,0,0-.2.09s0,0,.1.06c.31.06.35.15-.16.29h-.09c-.53,0-.51-.13-.22-.25.07,0,.12-.06.09-.08s-.16,0-.22-.05,0-.09.3-.17Z"/><path d="M50.14,73.65a.4.4,0,0,1-.16-.34c0-.11.1-.15.23-.12l0,.36c0-.15,0-.16-.12-.08s-.12.17-.15.19-.08,0-.37-.28l0-.07c0-.38.21-.6.42-.49a.39.39,0,0,1,.25.25c.06.12.11.16.26.08l0,.37c.06.12.1.19,0,.19a2.18,2.18,0,0,1-.36,0Z"/><path d="M46.91,68.07c-.11-.27-.27-.25-.2-.21a.33.33,0,0,0,.21,0s0,0-.1,0-.14.17-.11.19.15-.12.06-.39v-.08a.32.32,0,0,1,.39-.33.31.31,0,0,1,.11.44c0,.08-.09.12-.07.17s.15.11.18.2-.2.26-.41.05Z"/><path d="M45,65.84c.05-.28,0-.38,0-.31a.59.59,0,0,0,.05.21s0,0,0-.09c-.11-.3-.29-.19.16.11l.07,0c.39.37.15.53,0,.27,0-.06-.08-.1-.08-.08s0,.16,0,.23-.13,0-.12-.31Z"/><path d="M43.23,65.25c.2-.22.32-.27.37-.17s0,.21,0,.25.08,0,.15,0c.29-.19.46-.15.38.4l0,.08c-.38.4-.52.29-.54-.06,0-.08,0-.14-.07-.14s-.15.1-.22.14-.14-.1-.09-.39Z"/><path d="M49.09,66.86a2.81,2.81,0,0,1,.2-.28c0-.06.05,0,.1.15s.1.1.12,0,0-.21,0-.23l-.15.6c0,.15.2.19.24.1s.05-.24-.17-.27l-.08,0c-.19-.15-.06-.42.1-.5a.42.42,0,0,1,.58.22l.21.51-.37.09a.41.41,0,0,1-.29-.12c-.08-.06-.13-.08-.2.06s-.16.2-.23.12a.37.37,0,0,1-.11-.36Z"/><path d="M50,69.48a.87.87,0,0,1,.07.31c0,.06,0,.1-.1,0l.07-.47c-.12.07-.13.21-.08.14a.31.31,0,0,0,0-.24c0-.15-.13.1.24.24l.08,0c.28.31,0,.65-.23.53s-.2-.16-.24-.27-.13,0-.31,0l.07-.47c0-.1,0-.09.08-.08a1.45,1.45,0,0,1,.25.19Z"/><path d="M51.5,68.43c-.27-.07-.37-.1-.3-.1l.22,0-.09,0c-.29-.08-.32-.11.19,0l.09,0c.51.13.47.14.17.09h-.09l.2.06c.07,0,0,0-.3,0Z"/><path d="M51.23,70.66c-.15.26-.16.37-.12.29s0-.2-.07-.21,0,0,.09,0,0-.25,0-.24,0,.14.17.37l0,.08c0,.28-.07.42-.28.45s-.46-.25-.35-.49.09-.19.1-.26a.52.52,0,0,1,.12-.34c.19-.12.33,0,.33.31Z"/><path d="M51.83,72.63c-.32,0-.21.31-.14.18s0-.2-.09-.18,0,.07.09,0,0-.28-.08-.23.13.1.4.2l.06.07a.43.43,0,0,1-.17.6c-.24.14-.76-.15-.65-.47,0-.14.08-.21.09-.3a.46.46,0,0,1,.15-.41.32.32,0,0,1,.42.48Z"/><path d="M53.19,71.09c-.2.1-.2.22-.2.24s0-.13-.07-.18l0-.26c0,.09.11,0,.13-.07s0-.14,0-.16,0,.31.28.06l.06,0a.32.32,0,0,1,.36.32.39.39,0,0,1-.26.43.41.41,0,0,1-.44-.07c-.11-.11-.13-.21-.25-.19h-.05l0-.27c0-.15.18-.39.35-.31a.32.32,0,0,1,.19.45Z"/><path d="M53.55,73l-.19.34.36-.38h0c-.17-.14-.26,0-.22,0s.07-.06,0-.12-.25.07-.08,0l.31.23c.26-.07.12-.32,0-.25l-.08,0c-.19,0-.22-.42.14-.48l.31.22c.26.15.17.61-.2.7-.22,0-.31-.07-.41,0A.52.52,0,0,1,53,73h0l.21-.59.14.2.23.32Z"/><path d="M55.29,71.51c.06.18.23.07.26,0s0-.12-.07-.12-.16.16-.11.18,0,0-.06-.08a.14.14,0,0,0-.2,0s.06-.15.17-.41l.06-.06c.25-.14.42-.13.55,0a.42.42,0,0,1-.14.59,1.11,1.11,0,0,0-.25.14.36.36,0,0,1-.38.18.3.3,0,0,1-.22-.35c0-.14.21-.36.36-.23Z"/><path d="M54.22,69.12c-.06-.29-.22-.31-.16-.25a.4.4,0,0,0,.2.08s0,0-.09,0-.18.13-.15.15.17-.08.14-.36v-.09a.33.33,0,0,1,.46-.23.31.31,0,0,1,0,.46c-.06.07-.11.1-.1.15a.92.92,0,0,1,.14.23c0,.16-.26.22-.42,0Z"/><path d="M37.89,54.28c-.08-.3,0-.43.07-.42s.16.11.2.12,0,0-.07.07-.06.15,0,.19.19,0,.19,0-.1-.11-.38-.14l-.07,0c-.19-.2-.23-.4,0-.59a.48.48,0,0,1,.47,0,.36.36,0,0,1,.22.35.47.47,0,0,1-.11.33.81.81,0,0,0,0,.3q-.06.18-.42-.09Z"/><path d="M39.46,53.87c.29,0,.39,0,.33.09a1.27,1.27,0,0,0-.21.07s0,0,.1,0c.3,0,.35.12-.17.24h-.09c-.53,0-.5-.1-.21-.2.07,0,.12-.05.09-.07a1.17,1.17,0,0,0-.22,0c-.07,0,0-.08.3-.15Z"/><path d="M37.89,55.86c0,.2.18.22.22.15l-.69-.15c-.06,0-.05.16,0,.15s.12-.09.12-.13,0,.15.09.16.14-.14.05-.13-.13.11-.06.36v.09a.41.41,0,0,1-.63.07.53.53,0,0,1,0-.75.73.73,0,0,1,.65-.06.6.6,0,0,1,.36.1.34.34,0,0,1,0,.46l-.87,1.24L37.38,56a.31.31,0,0,1,.47-.25Z"/><path d="M39.7,56.11c0,.29,0,.39-.05.33a.85.85,0,0,0-.14-.17s0,0,0,.12c.11.31.2.24-.33.12l-.08,0c-.43-.35-.18-.61.13-.45.08,0,.13,0,.15,0s0-.17,0-.24.21,0,.31.24Z"/><path d="M39.35,57.79c.29,0,.37-.08.3-.06a.7.7,0,0,0-.18.11s0,0,.08-.05c.24-.22,0-.35,0,.2v.08c-.13.55-.49.36-.33,0,0-.07.06-.11,0-.12A1.07,1.07,0,0,1,39,58c-.1,0,0-.19.25-.24Z"/><path d="M39.39,58.27c.28-.08.38-.08.34,0a1.38,1.38,0,0,0-.17.15s0,0,.11,0c.32,0,.39,0-.05.33l-.08,0c-.52.14-.52,0-.29-.17.06-.05.09-.09.06-.1s-.16,0-.23,0,0-.09.23-.25Z"/><path d="M42.18,57.63c-.29,0-.39-.08-.32-.12l.21-.08s0,0-.09-.07c-.31-.07-.35-.16.17-.27h.09c.53.07.5.16.2.26-.07,0-.12,0-.09.07s.16,0,.22.06,0,.1-.31.15Z"/><path d="M41.85,56.12c.32-.07.12-.37.1-.25a.32.32,0,0,0,0,.21s0,0-.06-.06a.22.22,0,0,0-.21,0,2.41,2.41,0,0,0,.36-.22l.08,0c.28,0,.41.05.46.17a.33.33,0,0,1-.29.35c-.1,0-.17,0-.21.07s0,.19-.14.26-.51-.23-.22-.44Z"/><path d="M49.3,49.18c-.12-.27-.12-.38,0-.37s.17.11.21.11.05-.06,0-.14c-.08-.32,0-.43.44-.09l0,.07c.21.5.08.56-.21.4-.07,0-.13-.06-.14,0a1.29,1.29,0,0,0,.05.24c0,.09-.12.06-.35-.13Z"/><path d="M49.17,52.73a3.8,3.8,0,0,1,1.5.15,3.29,3.29,0,0,0,.72.29,1,1,0,0,1,.74.53c.16.26.26.51.35.62a1,1,0,0,0,.37.22,5.28,5.28,0,0,0,1.34.22l0,.08a1.67,1.67,0,0,1-1.65.57,1.3,1.3,0,0,1-.8-.71,1.77,1.77,0,0,1-.08-.85c0-.23-.09-.42-.33-.41s-.53.13-.81.14a1.82,1.82,0,0,1-1.41-.77Z"/><path d="M50,55.31a.18.18,0,0,0,.27,0s0-.09-.07,0,.14.16.15.08-.07-.16-.12-.19l.51.34c.07.06.19,0,.11-.07s-.22,0-.12.29v.09c-.16.26-.55.19-.71-.12A.55.55,0,0,1,50.4,55l.9-.26-.39.6c-.09.14-.26.18-.33.25s-.11.21-.26.33a.36.36,0,0,1-.51-.12c-.1-.14-.08-.44.13-.49Z"/><path d="M52.47,56.23a.68.68,0,0,1-.3.42l.26-.43c0-.09-.07-.13-.1-.07s0,.14,0,.16l0,.26c-.06-.11-.23,0-.19.1s.09,0,.13-.09a.34.34,0,0,0,0-.27c0-.06-.06-.07,0-.08.21,0,.38.09.71.34l0,.08a.71.71,0,0,1-.83.45.78.78,0,0,1-.39-.22.48.48,0,0,1-.11-.45c.06-.16.17-.18.26-.23.27,0,.39.09.58.09h.19l-.15.25a.53.53,0,0,1-.43.24.44.44,0,0,1-.42-.4l-.06-.44H52a.69.69,0,0,1,.48.2Z"/><path d="M53.89,56c.29-.05.35-.15.29-.11a.53.53,0,0,0-.14.17s0,0,.08-.07.08-.2.06-.2-.06.14,0,.4l0,.08c0,.28-.1.39-.2.42s-.19-.11-.17-.29,0-.13,0-.13a1.25,1.25,0,0,1-.23.07c-.12,0-.1-.2.17-.32Z"/><path d="M52.94,57.82a.8.8,0,0,1-.27-.15l.38.29s.08,0,.08,0-.08-.07-.16-.05,0,.17.12,0,0-.14.07-.09,0,.15.26.32l0,.07a.42.42,0,0,1-.35.49.5.5,0,0,1-.51-.35c-.05-.29.12-.39,0-.57a.35.35,0,0,1,0-.34.36.36,0,0,1,.36-.14l.57.12-.2.18a.74.74,0,0,1-.26.15Z"/><path d="M55.16,57.48c-.2.22-.1.37-.07.29a.36.36,0,0,0,0-.21s0,0,.06.07.24,0,.24,0-.18-.14-.38,0l-.07.06a.3.3,0,0,1-.45-.17.26.26,0,0,1,.33-.24c.09,0,.14.05.16,0a.88.88,0,0,1,.1-.24c.11-.08.29.09.15.36Z"/><path d="M54.37,59.5c0-.28,0-.39,0-.34a2,2,0,0,0,.13.19s0,0,0-.11c0-.32.07-.38.32.09l0,.09c.07.52,0,.52-.21.26,0-.06-.08-.1-.09-.07a1.75,1.75,0,0,0,0,.23c0,.08-.1,0-.23-.26Z"/><path d="M60.61,72.65c-.33-.1-.39.07-.31,0s0-.19-.09-.18,0,.08.08,0,0-.2,0-.21,0-.06,0-.06a1.27,1.27,0,0,0,.49,0l.08,0a.52.52,0,0,1,0,.75.59.59,0,0,1-.45.12c-.18,0-.49-.18-.45-.39A.75.75,0,0,1,60,72.3a.58.58,0,0,1,.36-.34.39.39,0,0,1,.34.67Z"/><path d="M60.85,70.34c.28-.09.33-.21.26-.17a1.06,1.06,0,0,0-.15.16s0,0,.06-.08c.17-.28-.09-.34,0,.19v.08c0,.55-.34.47-.26.14,0-.08,0-.12,0-.12a.62.62,0,0,1-.2.11c-.1,0-.07-.15.18-.28Z"/><path d="M61.64,71.87c.28-.07.36-.14.29-.11a.93.93,0,0,0-.18.12s0,0,.08,0c.24-.21.11-.33,0,.18l0,.08c-.24.49-.44.32-.26.06,0-.07.07-.11,0-.11a1.17,1.17,0,0,1-.21.08c-.09,0,0-.12.24-.23Z"/><path d="M65.35,72.61c.18,0,.11-.18.14-.23s0-.08.13-.09.23.06.31,0a.12.12,0,0,0,0-.2c-.06-.07-.14-.08-.15-.06s-.07.12.17.13.37-.25.3-.37a.2.2,0,0,0-.16-.16c-.17,0,0,.15.08.23l0,.08a.34.34,0,0,1-.47.26.54.54,0,0,1-.3-.4c-.07-.22.24-.57.48-.55a.58.58,0,0,1,.6.45.51.51,0,0,1-.12.5c-.11.13-.21.18-.27.28s-.06.26-.12.38a.39.39,0,0,1-.37.15c-.15,0-.45-.16-.36-.38Z"/><path d="M67.44,70.51a1.29,1.29,0,0,1,.07.37s-.07,0-.27-.13v-.19c.15-.12.14-.22.12-.28s0,.16.24.3l.07,0a.34.34,0,0,1-.21.55.42.42,0,0,1-.38-.42v-.19c-.1-.19-.06-.28,0-.32s.18,0,.34.18Z"/><path d="M67.71,72.72c.29.09.37-.14.26-.14a.37.37,0,0,0-.18.13s0,0,0-.09,0-.23-.09-.22-.14.25.11.38l.07,0a.27.27,0,0,1,0,.47c-.14,0-.25-.07-.25-.25s0-.13,0-.12a.62.62,0,0,1-.24.07c-.13,0-.07-.33.23-.3Z"/><path d="M68.62,70.18c.28-.14.32-.26.27-.19s0,.2,0,.2,0-.07-.08,0c-.14.24.25.32,0,.33s-.14,0-.06-.13a.17.17,0,0,0,0-.14c0-.06-.05-.2-.1-.2s-.2.08-.13.15h.09c.07.14-.17.23-.26.16s-.15-.19-.13-.27a.33.33,0,0,1,.08-.21,3.2,3.2,0,0,1,.26-.25s.71-.06.64.46c0,.15-.13.2-.16.29a.51.51,0,0,1-.24.35c-.29.07-.46-.17-.35-.46Z"/><path d="M68.72,67.06a2.88,2.88,0,0,0,.31,0,.6.6,0,0,0-.21,0s0,0,.1,0c.3-.07.26-.21-.12.16l-.07.06c-.44.3-.53.08-.26-.08.07,0,.11-.07.08-.08s-.16,0-.22,0,0-.11.31-.11Z"/><path d="M68.5,72c-.29.08-.34.16-.36.11L68.6,72c0-.16-.29-.06-.17,0s.21-.13.15-.18,0-.09.06,0,.17.08.36.22L69,72a.51.51,0,0,1-.1.47.38.38,0,0,1-.45,0c-.24-.06-.26-.33-.29-.44s-.31-.21-.22-.53l.06-.22.4.08c.18,0,.3.26.13.52Z"/><path d="M70.43,71.53c.27.09.37.14.29.17s-.19,0-.22,0,0,.05.08.08c.29.12.31.22-.22.23h-.09c-.51-.15-.46-.23-.15-.28.08,0,.12,0,.1-.06l-.2-.09c-.07,0,0-.08.32-.09Z"/><path d="M70.22,73c.24.17.36.13.28.16s-.17.06-.19.11,0,0,.12,0a.44.44,0,0,0,.2-.1.6.6,0,0,0,0,.41v.08a.38.38,0,0,1-.46.28.33.33,0,0,1-.11-.42c0-.09.06-.14,0-.18s-.18,0-.25-.11,0-.32.34-.28Z"/><path d="M56.52,64.08a2,2,0,0,1-.32-.24c-.05-.07-.08-.12,0-.24l.27.17c0-.17-.17-.09-.08,0s.21,0,.21,0,0,0,0,0A.75.75,0,0,0,57,64l.05.07a.47.47,0,0,1-.32.49.54.54,0,0,1-.64-.18.52.52,0,0,1,0-.68,3.09,3.09,0,0,1,.41-.46l.27.17a.27.27,0,0,1,.17.34.46.46,0,0,1-.29.35Z"/><path d="M58.29,61.38c.28-.06.35-.14.3-.09a.45.45,0,0,0-.15.16s0,0,.09-.05c.23-.22.08-.31.09.23v.09c-.15.53-.46.37-.36.05,0-.08,0-.13,0-.13a1.44,1.44,0,0,1-.22.07c-.1,0-.07-.17.19-.31Z"/><path d="M58.46,63.79c-.05-.28-.06-.38,0-.32l.07.21s0,0,0-.1c0-.3,0-.35.15.16l0,.08c.09.52.05.49-.06.21,0-.07-.05-.11-.05-.09l0,.22c0,.07,0,0-.13-.29Z"/><path d="M59.24,62.63c-.23-.18-.26-.31-.17-.31a2.07,2.07,0,0,0,.21.08s0,0,0-.12c-.12-.3.07-.45.35,0l0,.08c.13.52.17.45-.07.26-.06,0-.11-.07-.1,0a.86.86,0,0,0,.13.17c0,.06,0,0-.3-.1Z"/><path d="M60.4,61.1c-.07.27-.09.37-.08.3l0-.21s0,0,0,.09c-.07.29-.08.32,0-.19l0-.09c.13-.51.13-.47.07-.18,0,.08,0,.12,0,.1l.06-.21c0-.07,0,0-.06.3Z"/><path d="M76.41,77.5c.22-.37.17-.59.41-.88.14-.13.33-.26.47-.4a5.07,5.07,0,0,1,.41-.5,1.59,1.59,0,0,1,.63-.26,2.4,2.4,0,0,1,.51-.07,5.82,5.82,0,0,1,1.07.15l0,.08a1.42,1.42,0,0,1-1,.67,2.16,2.16,0,0,1-.57,0,2,2,0,0,1-.44-.11.37.37,0,0,0-.38.23,2.38,2.38,0,0,0-.06.55.84.84,0,0,1-1,.65Z"/><path d="M78.13,77.7a.76.76,0,0,1,.2.21L78,77.6c.14-.17.12-.18.27,0s.14,0,.08,0-.14,0,0,.13.25,0,.26-.08.06-.1,0-.17,0,.15.1.41v.09a.48.48,0,0,1-.75.09.55.55,0,0,1-.14-.59.51.51,0,0,1,.57-.38.42.42,0,0,1,.3.42c0,.12,0,.22,0,.4a.37.37,0,0,1-.56.31l-.34-.28,0,0a.72.72,0,0,1,.25-.14Z"/><path d="M80.05,77.2c.3,0,.36-.14.29-.11a.49.49,0,0,0-.17.14s0,0,.07-.07.06-.22,0-.22-.1.16,0,.4l0,.08c.07.27-.06.4-.16.42s-.19-.11-.16-.28,0-.13,0-.13a1,1,0,0,1-.23.07c-.12,0-.08-.22.21-.29Z"/><path d="M74,75.17c.26-.17.38-.2.42-.1a1.12,1.12,0,0,0,0,.26s.09,0,.16,0,.12-.13,0-.15a.34.34,0,0,0-.28.13.32.32,0,0,0,0,.29c0,.07.06,0,.07-.1s0-.36.25-.33l.06.06c.26,0,.3-.23.49.1a.48.48,0,0,1-.46.64c-.23,0-.28-.13-.3-.23s0-.16-.08-.17-.17.08-.25.1-.17-.15-.08-.43Z"/><path d="M75.4,73.38c-.14-.25-.09-.39,0-.34a1.3,1.3,0,0,1,.13.19s0,0,.06-.11c.06-.32.37-.29.21.23l0,.07c-.27.47-.09.48-.14.17,0-.08,0-.12,0-.09a.69.69,0,0,0,0,.21c0,.06,0,0-.18-.26Z"/><path d="M77.41,73.53a.51.51,0,0,1,.41.09l-.64-.05c-.11,0,.18.07.21,0s-.21,0-.23,0,0,.17.14,0,.08-.28,0-.31-.22,0-.17.13l0,.08c0,.18-.32.13-.42,0a.47.47,0,0,1,.07-.59.51.51,0,0,1,.74,0c.15.19,0,.42.13.52s.36.35.14.54l-.62.52,0-.56c0-.1,0-.21.18-.38Z"/><path d="M77.12,71.78c-.18.21-.25.28-.21.22l.12-.17s0,0-.07.06c-.2.22-.24.24.08-.18l0-.06c.35-.4.34-.36.17-.12-.05.06-.07.1-.05.08l.14-.16c.05,0,0,0-.17.26Z"/><path d="M77.07,67.52c0-.2.32-.13.38-.07s.13.1.09.15l-.18.13s0,0,.06-.07,0-.21,0-.21l.26.35,0,.07c0,.28,0,.41-.15.47a.36.36,0,0,1-.38-.25c0-.1,0-.17-.09-.21a1.81,1.81,0,0,0-.27-.06s0,0,0,0,.24,0,.2-.17Z"/><path d="M78.78,68.25c-.27.09-.37.11-.31.07l.2-.1-.1,0c-.29.08-.33.06.15-.15l.08,0c.5-.16.48-.13.21,0-.07,0-.11.05-.08.05l.21-.06c.07,0,0,0-.28.16Z"/><path d="M77.05,64.8c.29,0,.39.06.37.15l-.52-.23c0,.06.23.21.22.11s-.12-.21-.14-.24,0,0,.37-.17h.09c.41.08.46.44.24.55s-.27.05-.36.07,0,.21-.08.34l-.12.22-.4-.45c-.06-.07,0-.17.25-.32Z"/><path d="M78.08,66.41c0,.31.14.35.07.29l-.29-.5c0,.11.12.28.15.17s0-.24,0-.27,0-.08,0-.07a.77.77,0,0,0,.38-.08h.08a.41.41,0,0,1,.3.39.31.31,0,0,1-.23.32c-.11.08-.31,0-.42,0s-.16.16-.32.25l-.37.23.08-.74a.3.3,0,0,1,.56-.07Z"/><path d="M78.71,64.64c.08-.28,0-.37,0-.3a.43.43,0,0,0,.11.19s0,0-.05-.08-.2-.11-.21-.08.15.13.4,0l.08,0c.28,0,.4.13.4.25a.24.24,0,0,1-.32.14c-.08,0-.13,0-.14,0A1,1,0,0,1,79,65c-.06.11-.27,0-.27-.27Z"/><path d="M75.68,65.86c-.22.17-.21.27-.2.26a.29.29,0,0,0,0-.18c0-.08,0-.06,0,0l0-.3a.24.24,0,0,0,0-.2s0-.08-.08-.07,0,.21.25.28l.08,0a.3.3,0,0,1,0,.53.32.32,0,0,1-.25,0c-.09,0-.13-.17-.15-.24l-.11-.35.14,0s.07,0,.11,0,.11-.16.17-.16.2.16,0,.4Z"/><path d="M76.34,62.54c.16-.28-.17-.37-.14-.21s.15.15.18.13,0,0-.07.07.15.27.24.17,0-.27-.31-.18h-.08A.31.31,0,0,1,76,62c.19-.19.61-.07.61.17s0,.18.05.24a.44.44,0,0,1,.14.33.26.26,0,0,1-.5-.12Z"/><path d="M77,60.31c.34,0,.52.22.51.44s-.12.24-.12.34a.38.38,0,0,0,.15.27,1,1,0,0,1,.3.53c0,.17-.15.2-.16.52l0,.08c-.37.13-.65-.25-.7-.45a.83.83,0,0,1,.14-.59.29.29,0,0,0,0-.29c0-.08-.2-.13-.28-.2s-.09-.32.09-.61Z"/><path d="M73.79,58.2a.85.85,0,0,1,.69.52,1.68,1.68,0,0,0,0,.45.59.59,0,0,0,.31.27,1.38,1.38,0,0,1,1,1.25l0,.07a1.12,1.12,0,0,1-1.29-1,.61.61,0,0,0-.16-.39,2.6,2.6,0,0,0-.4-.23.79.79,0,0,1-.16-.86Z"/><path d="M64.67,48.07c0,.68.08,1.2.06,1.77a2.65,2.65,0,0,0,0,.89,4.06,4.06,0,0,0,.37.87A1.94,1.94,0,0,1,65,53.66c-.37.55-.78.82-.89,1.45l-.08,0c-.5-.62-.06-1.5.2-2a2.32,2.32,0,0,0,.4-1.48,2.37,2.37,0,0,0-.18-.9,8.37,8.37,0,0,1-.42-.9A2,2,0,0,1,64.59,48Z"/><path d="M65.32,54.11a2.12,2.12,0,0,1,.07-.39s0,.07.13,0,0-.13,0,0,.21.1.17-.06l-.38-.21c.12-.15.2,0,.66,0l.07.05a.59.59,0,0,1-.69.78L65,54.18l0-.12a.47.47,0,0,1,.36-.67.94.94,0,0,1,.59.17.42.42,0,0,1,0,.68.55.55,0,0,1-.55-.05Z"/><path d="M66.28,51.59c.09,0,.13.14,0,.22a.36.36,0,0,1-.21.11c-.1,0-.24,0-.27-.23s.22-.24.25-.24,0-.06.06-.15.07-.24,0-.22a.24.24,0,0,0,.17.37h.09c.3.1.14.45.07.48s-.14,0-.16-.19,0-.11,0-.1.2.07.23-.17-.14-.2-.22-.18a.41.41,0,0,0-.16.11c-.08.08,0,.21,0,.19Z"/><path d="M66.5,54.06c-.29-.14-.4,0-.18.08s.22-.18.17-.22.05,0,.07-.1,0-.23,0-.24.06.14.3.3l0,.07a.38.38,0,0,1-.18.52.44.44,0,0,1-.51-.33.73.73,0,0,1,0-.34.36.36,0,0,1,.41-.28c.41.18.2.54-.07.56Z"/><path d="M67,52.39c.33,0,.2-.36.06-.21a.16.16,0,0,0,.1.18s0-.07,0-.14-.18-.16-.17-.09.26.09.28-.2v-.08c.21-.26.57-.05.61.2a.37.37,0,0,1-.34.43c-.09,0-.16,0-.19.08s0,.22-.13.31c-.31.2-.68-.34-.3-.5Z"/><path d="M67.28,49.9C67,50,67,50.08,67,50l.17-.12s0,0-.09,0c-.26.14-.31.14.13-.16l.07,0c.46-.27.44-.23.2-.05l-.08.07.2-.1c.06,0,0,0-.25.19Z"/><path d="M76.14,51.41a7.73,7.73,0,0,1,1.3,1.33,8.76,8.76,0,0,0,.54.81,4.63,4.63,0,0,1,.63.83,4.82,4.82,0,0,1,.3,1.93l0,1.86-.08,0A3.16,3.16,0,0,1,78,56.37a14,14,0,0,1,.15-1.86,1.06,1.06,0,0,0-.38-.77c-.24-.2-.56-.31-.85-.51a2.37,2.37,0,0,1-.86-1.79Z"/><path d="M79.66,61.75c-.2-.23-.23-.35-.13-.38a.74.74,0,0,0,.25,0s0-.08,0-.15c-.16-.3-.11-.45.42-.3l.08.05c.35.42.23.53-.11.5-.08,0-.14,0-.14,0s.09.15.12.22-.11.12-.4,0Z"/><path d="M80.51,58.58c.28,0,.38,0,.32.08l-.21.08s0,0,.1,0c.31,0,.35.11-.17.24h-.08c-.54,0-.51-.1-.21-.21.07,0,.11,0,.08-.06s-.15,0-.22,0,0-.07.3-.14Z"/><path d="M80.41,61.07c.23-.18.36-.19.34-.1s-.11.16-.12.2.05,0,.12,0c.32-.07.43.09,0,.36l-.08,0c-.53.1-.49.1-.27-.13,0,0,.08-.1,0-.1l-.2.09c-.07,0,0-.05.16-.29Z"/><path d="M80.26,63.36c-.11-.14-.24,0-.24.06s.17.16.17.08-.09-.16-.15-.14-.06.11,0,.16.14-.28.06-.22,0,.09.25.32l0,.07c-.06.28-.18.51-.53.49a.57.57,0,0,1-.39-.37.41.41,0,0,1,.14-.48c.12-.06.19-.08.23-.16s0-.25.18-.35.49,0,.53.2,0,.48-.24.41Z"/><path d="M81.5,62.2c-.19,0-.25.12-.26.17s.08,0,.11-.11l.21-.35c-.08.1,0,.11,0,0l.15-.15s0,0,0,.05a1.26,1.26,0,0,0,0,.35v.08a.53.53,0,0,1-.21.31c-.08.06-.15,0-.19,0a.32.32,0,0,1,0-.26c0-.11,0-.15-.1-.11l-.21.08.42-.43c.1-.09.26-.12.29,0s0,.23-.15.34Z"/><path d="M82.18,60.88a.88.88,0,0,1-.34-.58c0-.18.23-.37.24-.56s-.17-.39-.25-.53-.2-.12-.07-.1H82c.17,0,.2-.22.17-.25a.17.17,0,0,0-.1-.1c-.08,0,0,.15.07.29v.08a.42.42,0,0,1-.52,0,.56.56,0,0,1-.2-.41.5.5,0,0,1,.36-.5l.11,0,.13,0a.74.74,0,0,1,.53.83c0,.24-.24.42-.21.62s.3.39.26.59a.8.8,0,0,1-.33.58Z"/><path d="M82.09,61.2c.19-.12.19-.22.19-.25s0,.1.07.18l.07.31c0-.09,0,0,.12,0s.17-.07.12-.18-.08-.08-.09,0a.6.6,0,0,0,.11.33v.09a.41.41,0,0,1-.27.33.36.36,0,0,1-.42-.18.39.39,0,0,1,.06-.54,2.93,2.93,0,0,1,.39-.21l.14-.07-.07.38c0,.16-.18.36-.32.27a.3.3,0,0,1-.17-.42Z"/><path d="M83.58,62.62c-.31.05-.46-.18-.38-.29s.2-.11.23-.16,0-.1-.07-.15-.2-.19-.2-.21.17,0,.32-.25l.06-.06a.38.38,0,0,1,.52.25.33.33,0,0,1-.24.34c-.08,0-.13.07-.11.12s.14.09.2.12,0,0-.25.24Z"/><path d="M83.78,59.68c0,.3.23.32.21.22a.39.39,0,0,0-.15-.16s0,0,.09,0,.23-.07.21-.15-.27-.1-.38.16l0,.08a.26.26,0,0,1-.45.07c0-.11,0-.23.2-.26s.12,0,.11,0-.11-.12-.11-.2.28-.12.3.18Z"/><path d="M84.63,62.34a.12.12,0,0,0-.17.12c0,.08.18.06.18,0s-.3,0-.2.08.13-.23.2-.29a.26.26,0,0,1,.26-.13l.24.63c.17,0,.19-.17.14-.19a.1.1,0,0,0-.17,0l0,.07c-.14,0-.26-.14-.25-.28A.38.38,0,0,1,85.2,62l.49,0-.24.65a.71.71,0,0,1-1.2.12c-.06-.21-.43-.44-.18-.79a.47.47,0,0,1,.6-.1c.15.1.23.39,0,.48Z"/><path d="M86,61.15c-.06.28-.09.37-.08.3l0-.21s0,0,0,.09l.13-.56,0-.06,0-.05-.08.41,0,.08-.1.4s0,0,0-.06v-.06l.12-.56c0,.08,0,.12,0,.1l.06-.21c0-.07,0,0-.06.31Z"/><path d="M85.44,63.69c-.23-.17-.29-.26-.21-.28l.23,0s0-.06,0-.12c-.23-.22-.21-.33.31-.2l.08,0c.42.32.35.4,0,.37-.08,0-.13,0-.12,0s.12.12.16.17-.07.09-.35,0Z"/><path d="M85.32,60.23a2.38,2.38,0,0,0-.11-.3s0,0,.1,0,.16.06.13,0-.06-.09-.18-.13h0l.17.43a.11.11,0,0,0,.2.06c0-.08,0-.22-.22-.27l-.08,0a.31.31,0,0,1,0-.49.35.35,0,0,1,.51.07l.24.42H86c-.15,0-.23,0-.27.08s0,.07,0,.19,0,.19-.06.19a.43.43,0,0,1-.3-.18Z"/><path d="M87.4,51.77A1.75,1.75,0,0,1,87.93,53a5.16,5.16,0,0,0-.1.67,1.42,1.42,0,0,0,.2.61,2.83,2.83,0,0,1,.26,2.57H88.2a2.84,2.84,0,0,1-.63-2.5,1.43,1.43,0,0,0,0-.65c-.07-.2-.23-.39-.33-.6a1.72,1.72,0,0,1,.09-1.31Z"/><path d="M89.88,53.07c.09.31.12.41,0,.43s-.23-.06-.27,0,0,.1.06.13.23,0,.15-.08-.21.16,0,.34l.06.06c.06.35-.39.49-.62.33a.46.46,0,0,1-.07-.71c.08-.07.15-.12.16-.19s-.05-.2-.05-.29.25-.2.51-.06Z"/><path d="M89,57a.13.13,0,0,0-.12.21c.05,0,.18,0,.11,0a.22.22,0,0,0-.24,0s0,0,0,0a.84.84,0,0,1,0-.12.57.57,0,0,1,0-.28,1.4,1.4,0,0,0,.46-.11h.09a.49.49,0,0,1,.14.69.59.59,0,0,1-.7.16.5.5,0,0,1-.24-.2c0-.08,0-.16,0-.22s-.11-.2-.08-.36a.38.38,0,0,1,.46-.25c.17,0,.37.27.22.43Z"/><path d="M90.51,55.23c.24.15.31.23.23.23a1,1,0,0,0-.22,0s0,0,.07.09c.24.19.24.27-.27.11l-.08,0c-.44-.29-.38-.34-.08-.28.08,0,.13,0,.11,0a1.41,1.41,0,0,0-.17-.14c0-.07.05-.06.33,0Z"/><path d="M89.59,58.67c-.23-.09-.3.06-.29.08s.09-.15-.08-.15,0,.18.09.15.13,0,.11-.09l-.34,0c-.06,0,0,.08,0,.1l.64.22c0-.17-.19-.15-.2,0l0,.07c-.19.1-.48-.13-.35-.47l.38-1,.26,1.22a.56.56,0,0,1-.3.63l-.21.1-.13-.06a.6.6,0,0,1-.41-.58c0-.26.18-.37.2-.55s.29-.53.58-.35a.37.37,0,0,1,.12.63Z"/><path d="M91.33,58.57c-.26.2-.31.28-.34.17s0-.19-.08-.2,0,0,0,.1.15,0,.16,0,.08.07.07.11a1.41,1.41,0,0,1-.27.42l-.07,0A.51.51,0,0,1,90.3,59a.43.43,0,0,1,0-.25.52.52,0,0,1,.21-.3c.09-.07.21-.11.27-.16s.15-.21.28-.26.35.18.31.47Z"/><path d="M90.05,60.84c-.15-.07-.23.12-.11.15s.07,0,0,.08-.24,0-.29.12.05.16.1.09.13-.16.44,0a.67.67,0,0,1,.22.46.63.63,0,0,1,0,.28c-.06.1-.2.12-.29.47l-.07,0c-.38,0-.59-.47-.51-.78,0-.14,0,0,.14.11s0-.07-.16-.24a.74.74,0,0,1-.1-.51,1.57,1.57,0,0,1,0-.49.51.51,0,0,1,.48-.32c.34,0,.53.37.3.53Z"/><path d="M92,60.12a1.33,1.33,0,0,1,.14,1.08,3.36,3.36,0,0,0-.27.49,1,1,0,0,0,.06.53,3,3,0,0,1,.22,1,2.74,2.74,0,0,1-.17.64.55.55,0,0,1-.65.31l0-.08a.43.43,0,0,0,0-.42,1.35,1.35,0,0,1-.1-.42,2.2,2.2,0,0,1,.23-1.08,1,1,0,0,0,.12-.53,4.33,4.33,0,0,0-.16-.56,1.21,1.21,0,0,1,.48-1Z"/><path d="M92.62,64.81a8.41,8.41,0,0,0,1.18-1.58,2,2,0,0,0,.41-.9,1.51,1.51,0,0,0-.25-1c-.18-.29-.41-.48-.64-.82A1.65,1.65,0,0,1,93,59.9a1.07,1.07,0,0,1,.18-.81c.3-.39.45-.44.55-.74a1.61,1.61,0,0,0,.08-.94l.07,0a1.31,1.31,0,0,1,.51,1.1A2,2,0,0,1,94,59.58c-.08.15-.1.24,0,.56a3.66,3.66,0,0,1,.39,1.06,11.19,11.19,0,0,1,.09,1.13,3.63,3.63,0,0,1,0,1.18,2,2,0,0,1-1.79,1.38Z"/><path d="M94.58,56.34c.29-.06.43,0,.4.12s-.13.16-.15.22,0,.08.14.1c.35.1.43.37-.09.58h-.09c-.53-.14-.51-.21-.27-.45.06-.06.09-.12,0-.15s-.17,0-.24,0,0-.14.17-.35Z"/><path d="M95.49,59.46c-.27-.07-.37-.1-.3-.1l.22,0-.09,0c-.29-.08-.32-.11.19,0l.09,0c.51.13.47.14.17.09h-.09l.2.06c.07,0,0,0-.3,0Z"/><path d="M96.7,59.69c.23.17.34.17.27.16h-.22s0,0,.1,0c.32,0,.28-.16-.12.21l-.07.06c-.49.25-.59-.09-.28-.23.07,0,.12-.06.09-.08s-.14-.07-.2-.12.08-.16.35-.07Z"/><path d="M96,61.82a.55.55,0,0,1-.35-.13l.56.2c0,.13-.16,0-.32,0s0,.21,0,.31.13.1,0,0-.27,0-.2.24v.08c-.13.26-.5.2-.65-.09a.46.46,0,0,1,.18-.56c.14-.08.36,0,.36-.19s-.06-.4.12-.39l.62,0-.06.17a.58.58,0,0,1-.26.27Z"/><path d="M94.55,63.88c.18-.23.26-.3.23-.23s-.09.17-.1.2,0,0,.09-.06c.2-.22.26-.23,0,.23l-.05.07c-.33.41-.35.36-.21.09,0-.07,0-.12,0-.1s-.11.12-.15.16,0,0,.12-.29Z"/><path d="M70.56,48.09c.23-.18.28-.26.26-.19a.48.48,0,0,0-.07.2s0,0,.07-.07c.17-.27.06-.31.16.21v.09c-.06.54-.33.47-.32.14,0-.08,0-.13,0-.12l-.18.15c-.09,0-.11-.12.07-.35Z"/><path d="M71.77,51c.29.07.37-.05.3,0a.39.39,0,0,0-.16.15s0,0,.09,0,.11-.19.08-.2-.07.16.09.39l0,.07a.33.33,0,0,1-.23.45.27.27,0,0,1-.23-.32c0-.08,0-.14,0-.15a.9.9,0,0,1-.25,0c-.13-.06-.08-.3.22-.34Z"/><path d="M72.06,49.22c-.24.23-.14.39-.26.25s-.18-.14-.2-.08,0,.14.1.18l-.48-.36a.17.17,0,0,0-.17.13s0,.18.12.22.22-.05.21-.1a.16.16,0,0,0-.21-.13h-.08a.3.3,0,0,1,0-.42.49.49,0,0,1,.55-.12.48.48,0,0,1,.29.51.49.49,0,0,1-.32.44l-1.59.5,1.12-.86c.12-.09.25-.12.31-.18s.07-.19.14-.31.55-.1.55.25Z"/><path d="M71.45,46.83a2.84,2.84,0,0,0,.07-.34s0-.06.1,0l-.14.32s.15,0,.15,0,0,0,0,0,.07.23.15.15.08,0,0,0a3.68,3.68,0,0,0-.34.2h-.09A.49.49,0,0,1,71,47a.34.34,0,0,1,.12-.42.36.36,0,0,1,.52,0,1.42,1.42,0,0,0,.18.08.35.35,0,0,1,.28.14l-.15.32c0,.13-.13.13-.22.12a.38.38,0,0,1-.25-.26Z"/><path d="M72.72,47.89c.1.29.28.25.2.21a.32.32,0,0,0-.21,0s0,0,.09,0,.11-.21.07-.21-.14.16,0,.38l0,.07a.31.31,0,1,1-.56,0c0-.09.07-.14,0-.19s-.15-.11-.19-.2.22-.31.44-.08Z"/><path d="M73.25,45.82c-.14-.13-.09-.3-.1-.39s0-.07,0,0,.22.09.22,0-.06,0,0,.1.23.08.17,0-.22.09,0,.33l0,.08a.44.44,0,0,1-.78,0,.52.52,0,0,1,.3-.8,1.79,1.79,0,0,1,.39,0,.41.41,0,0,1,.41.36.34.34,0,0,1-.2.35c-.1,0-.15,0-.32,0Z"/><path d="M74.17,47c-.32.1,0,.47.13.15,0-.13-.15-.15-.17-.12s0,0,.05-.07-.08-.22-.1-.2a3.8,3.8,0,0,1,.39.17l.07,0a.47.47,0,0,1,0,.54A.4.4,0,0,1,74,47.4c-.07-.12-.06-.2-.11-.25a.38.38,0,0,1-.16-.37c.22-.47.84-.06.54.23Z"/><path d="M74.92,44.67c-.16-.24-.16-.36-.08-.33l.16.16s0,0,0-.11c0-.31.16-.39.25.14v.09c0,.53.06.48-.09.21,0-.07-.06-.1-.06-.08a1,1,0,0,0,.08.2c0,.07,0,0-.22-.22Z"/><path d="M77.08,47.94a1.84,1.84,0,0,1,.46,1.27,5.87,5.87,0,0,0-.14.68,1.53,1.53,0,0,0,.17.65,3,3,0,0,1,.12,2.64H77.6a3,3,0,0,1-.49-2.6,1.48,1.48,0,0,0,0-.66c-.06-.22-.21-.42-.29-.64A1.78,1.78,0,0,1,77,48Z"/><path d="M78.11,47.11a1.13,1.13,0,0,1,.8,1.22c0,.25-.17.48-.21.7a1.24,1.24,0,0,0,.07.66,4.92,4.92,0,0,0,.47,1.05,2.37,2.37,0,0,1,.36,1.35l-.08,0a4.37,4.37,0,0,1-1.06-.91,1.79,1.79,0,0,1-.16-1.52,1.79,1.79,0,0,0,.12-.67,2.67,2.67,0,0,0-.21-.64,11.21,11.21,0,0,1-.16-1.21Z"/><path d="M79.72,49.18c-.29,0-.39-.14-.32-.25s.17-.11.2-.16,0-.09-.1-.14c-.31-.17-.36-.4.16-.57h.09c.53.2.51.34.22.54-.07,0-.12.09-.09.14s.16.07.22.11,0,.17-.29.31Z"/><path d="M79.88,46.7c0-.28,0-.39,0-.32a2.16,2.16,0,0,0,.09.2s0,0,0-.1c0-.31.06-.35.21.16l0,.08c0,.53,0,.5-.14.22,0-.07-.06-.11-.07-.08v.22c0,.07-.06,0-.15-.29Z"/><path d="M80.12,46.74c0-.28,0-.38.07-.31a1.27,1.27,0,0,0,0,.22s0,0,0-.09c.05-.3.09-.34.12.19v.09c0,.52-.09.49-.13.18,0-.07,0-.12,0-.09s0,.15,0,.21,0,0,0-.31Z"/><path d="M81.36,48.32c.15.24.19.33.15.27l-.12-.18s0,0,0,.09c.15.26.16.3-.13-.15l0-.07c-.28-.45-.25-.43-.08-.18l.06.08L81.13,48c0-.06,0,0,.18.26Z"/><path d="M81.33,48.2c-.15-.24-.19-.33-.14-.28l.13.18s0,0,0-.09c-.14-.27-.14-.31.16.12l0,.07c.27.46.23.44,0,.2,0-.06-.07-.1-.06-.07l.1.19c0,.07,0,0-.2-.25Z"/><path d="M63.75,68.93a1,1,0,0,1-.06-.32s0-.11.12,0l.41.5a.21.21,0,0,0-.14-.11s0,0,0,0l-.18-.14a.55.55,0,0,0,0-.3.78.78,0,0,0,.4.15l.07,0c.23.2.21.44.09.54a.38.38,0,0,1-.49-.1L63.77,69c0-.06,0-.1,0-.16a.43.43,0,0,1,0-.24l.41.49c0,.1,0,.09-.1.08A.66.66,0,0,1,63.8,69Z"/><path d="M63.87,66.48c-.16-.24-.2-.33-.14-.29a1.58,1.58,0,0,0,.16.14s0,0,0-.1c-.15-.26-.14-.32.23.06l.06.06c.28.45.23.45,0,.25-.06,0-.1-.08-.09,0s.07.13.1.19,0,0-.25-.2Z"/><path d="M64.7,68.29c0-.3-.16-.35-.08-.32a.49.49,0,0,0,.22.06s0-.07-.06-.11a1,1,0,0,0-.22-.1.71.71,0,0,0,.33-.26L65,67.5a.38.38,0,0,1,.51.17.33.33,0,0,1-.23.36c-.09,0-.15.06-.14.12s.08.16.09.25-.25.2-.45,0Z"/><path d="M64.52,67.13c.1-.26.11-.35.15-.36s.29.22.26.08-.24-.15-.24-.13,0,.08.1,0l-.07-.58a1.22,1.22,0,0,1,.31.13l.06.07a1.06,1.06,0,0,1,0,.34L65,66.08a.44.44,0,0,1,.47.45c0,.22-.18.4-.33.47s-.05.35-.21.47-.35,0-.45-.25Z"/><path d="M64.74,64.52c.16-.25,0-.38,0-.29a.32.32,0,0,0,.07.2s0,0,0-.09-.19-.12-.2-.08.13.16.39,0l.08,0a.3.3,0,0,1,.38.29.24.24,0,0,1-.34.13c-.08,0-.13-.06-.14,0a.68.68,0,0,1,0,.25c-.08.1-.3,0-.22-.32Z"/><path d="M73.55,65.11a13.76,13.76,0,0,0-.21,2.31,3.69,3.69,0,0,0,0,1.19,9.84,9.84,0,0,0,.42,1.18,2.68,2.68,0,0,1-.46,2.59,3.39,3.39,0,0,0-.94,2l-.08,0c-.62-.77-.15-1.9.26-2.54a3.23,3.23,0,0,0,.76-2,3.06,3.06,0,0,0-.23-1.18,7.82,7.82,0,0,1-.48-1.21,2.67,2.67,0,0,1,.84-2.41Z"/><path d="M74.08,71.35a1.58,1.58,0,0,1,0,1.07,3.43,3.43,0,0,0-.28.49,1.15,1.15,0,0,0,0,.55,1.89,1.89,0,0,1-.07,1.17c-.2.44-.53.49-.69.8l-.08,0c-.23-.13-.22-.48-.18-.67l.11-.5a4.19,4.19,0,0,1,.45-.9,1,1,0,0,0,.16-.52,4.71,4.71,0,0,0-.14-.57,1.09,1.09,0,0,1,.6-1Z"/><path d="M74.7,72.35c0,.32.31.27.19.15l-.14-.3c-.12.07-.09.26-.06.15s0-.22-.08-.22c-.06-.16,0-.06.39,0l.08,0c.27.27.2.54,0,.56s-.28,0-.37-.11-.16.08-.37.08h0l-.12-.3c-.1-.26.3-.45.47-.17Z"/><path d="M75.23,69.76a.16.16,0,0,0,.22.17c.08,0,.11-.09.06-.12a.25.25,0,0,0-.21,0s0,0,0-.1,0-.22,0-.22a1.42,1.42,0,0,0,.19.37l0,.08c.05.26,0,.38-.07.44a.29.29,0,0,1-.31-.25c0-.1,0-.17-.06-.19a.6.6,0,0,1-.25-.13c0-.07,0-.18.1-.24a.21.21,0,0,1,.33.1Z"/><path d="M75.62,71.68c0,.28,0,.38-.07.34l-.1-.2s0,0-.06.06l.14-.3a.56.56,0,0,0,.22-.13.83.83,0,0,0-.17.38l0,.08c-.15.23-.32.27-.4.22s-.09-.2,0-.35l.14-.3c0,.07.06.08.08,0l0-.22s.09,0,.18.3Z"/><path d="M79.49,73.59c0-.28,0-.38.05-.31a.86.86,0,0,0,.07.21s0,0,0-.1c-.05-.31-.13-.31.22.1l0,.07c.24.48,0,.54-.13.27,0-.06-.07-.1-.08-.08l0,.23c0,.08-.11,0-.15-.3Z"/><path d="M80.37,73.75c-.1-.27-.12-.37-.08-.31s.1.16.12.19,0,0,0-.1c-.09-.29-.07-.34.18.12l0,.08c.18.5.13.48,0,.22,0-.06-.07-.1-.07-.07a1.91,1.91,0,0,1,.06.21c0,.07,0,0-.18-.26Z"/><path d="M81.4,74.85c.09-.29.16-.4.27-.34s.13.16.18.18.1,0,.13-.13c.12-.34.22-.42.65,0l0,.08c0,.57-.26.66-.57.42C82,75,82,74.93,81.91,75s-.08.18-.13.25-.26,0-.38-.28Z"/><path d="M44.22,56.54a2.23,2.23,0,0,1,1.71.69c.2.25.32.56.49.79a2.66,2.66,0,0,0,.66.59,15.84,15.84,0,0,1,1.42,1,2.63,2.63,0,0,1,.92,1.63l-.08,0-1.42-1a4.1,4.1,0,0,1-1.17-1.37,2.71,2.71,0,0,0-.52-.72,3.07,3.07,0,0,0-.76-.44,5.73,5.73,0,0,1-1.28-1.16Z"/><path d="M47.53,57.62a.83.83,0,0,1,.27-.17c.06,0,.12,0,.1.08h-.35c0,.13.08.2.08.18s-.06,0,0,.13l.29,0c.13.09.25,0,.22-.06s-.23-.07-.3.21l0,.08a.34.34,0,0,1-.56-.13.39.39,0,0,1,.33-.48l.3,0a.62.62,0,0,1,.06.31c0,.06.1.21,0,.37h-.34c-.09.06-.11,0-.12-.05a.91.91,0,0,1,.07-.32Z"/><path d="M49.27,58.93c-.13.3.14.34.06.24s-.19,0-.2,0,.08,0,.13,0-.06-.19.05-.24a.62.62,0,0,1,.58.18v.08c0,.29,0,.39-.13.52a.52.52,0,0,1-.7-.11,1.59,1.59,0,0,0-.17-.27.5.5,0,0,1-.26-.34.34.34,0,0,1,.65-.17Z"/><path d="M8.24,86.6a4.63,4.63,0,0,1,2.68-1.35c1.05-.06,2,.37,3,.33a12.26,12.26,0,0,1,2.92.22c.93.19,1.83.38,2.8.63v.08a6,6,0,0,1-3,.18c-1-.2-1.85-.52-2.79-.8A7.65,7.65,0,0,0,11,86c-.88.1-1.74.46-2.73.68Z"/><path d="M13,78.34a3.74,3.74,0,0,1,.54,2,7.48,7.48,0,0,0-.11,1,2.61,2.61,0,0,0,.27,1,13.6,13.6,0,0,0,1,1.69A6,6,0,0,0,16,85.61l0,.08a2.49,2.49,0,0,1-2-1,3.79,3.79,0,0,1-.69-2.11,6.06,6.06,0,0,0-.09-1.06c-.07-.35-.23-.69-.32-1a5.15,5.15,0,0,1,.08-2.1Z"/><path d="M16.73,85.25a14.25,14.25,0,0,1-.42-2.17,4.64,4.64,0,0,0-.1-1.11,4.81,4.81,0,0,0-.53-1,2.4,2.4,0,0,1-.25-1.21,5.24,5.24,0,0,0-.08-1c-.07-.65-.34-1.34-.49-2.13l.07,0a3.87,3.87,0,0,1,1.32,2c.19.91-.19,1.63-.12,2.26A8.05,8.05,0,0,0,17,82.93a3.1,3.1,0,0,1-.19,2.33Z"/><path d="M18.51,78.53a2.09,2.09,0,0,1,.9,1.47c0,.3-.06.6-.06.88a4.21,4.21,0,0,0,.14.84,3.31,3.31,0,0,1,0,1.74c-.16.51-.4.81-.09,1.31l0,.08a.85.85,0,0,1-.76-.65,2,2,0,0,1,0-1c.13-.5.26-1,.43-1.51a1.72,1.72,0,0,0,0-.81,4.21,4.21,0,0,0-.36-.74,4.43,4.43,0,0,1-.29-1.6Z"/><path d="M18.42,74.8a1.68,1.68,0,0,1,1.3.59c.14.21.22.47.34.67a4.87,4.87,0,0,0,.46.58A2.85,2.85,0,0,1,21.11,78,3.21,3.21,0,0,1,21,79.38l-.08,0a3.25,3.25,0,0,1-.68-1.26,8.51,8.51,0,0,1-.12-1.31,1,1,0,0,0-.25-.6,2.59,2.59,0,0,0-.59-.32,2.24,2.24,0,0,1-.88-1Z"/><path d="M17.52,86.38a36.41,36.41,0,0,0,4.18,1.38,4.85,4.85,0,0,0,2.15.09A19.69,19.69,0,0,0,26,87.2,4.34,4.34,0,0,1,28.39,87a12.84,12.84,0,0,1,2.15.81,5.41,5.41,0,0,0,4.15.16l0,.08a4.49,4.49,0,0,1-4.53.6c-.73-.29-1.36-.67-2-.87a5.07,5.07,0,0,0-2.07-.15,14.18,14.18,0,0,0-2.2.48,6.34,6.34,0,0,1-2.31.33,7.88,7.88,0,0,1-4.12-2Z"/><path d="M57.49,73.09a9.78,9.78,0,0,1,1.95.77,5.85,5.85,0,0,0,.91.53,3.1,3.1,0,0,0,1,.1c1.41-.15,2.63-.34,4.12-.41l0,.08a4.15,4.15,0,0,1-4.22.79,8.28,8.28,0,0,0-1.05-.3c-.36-.06-.74-.05-1.11-.13a3,3,0,0,1-1.74-1.36Z"/><path d="M52.1,49.44A6.59,6.59,0,0,0,48,47.81a10.68,10.68,0,0,0-4.34.77c-1.37.5-2.85,1.21-3.47,2.59a8.33,8.33,0,0,0-.39,2.24,2.78,2.78,0,0,1-1.41,1.9,8,8,0,0,0-3,3.19,4.34,4.34,0,0,0,.2,4,5.88,5.88,0,0,1,.83,2.31,4.2,4.2,0,0,1-.62,2.41A6.15,6.15,0,0,1,32,69.82l0-.08a6.46,6.46,0,0,0,3.36-2.8,3.48,3.48,0,0,0,.39-2,6,6,0,0,0-.8-2,4.81,4.81,0,0,1-.71-2.38,5.41,5.41,0,0,1,.56-2.42,7.6,7.6,0,0,1,3.45-3.24,2.26,2.26,0,0,0,1.37-1.57A13.63,13.63,0,0,1,40,51.06a6.49,6.49,0,0,1,3.47-3.13,9,9,0,0,1,4.67-.77,5.93,5.93,0,0,1,4.08,2.22Z"/><path d="M37.12,29.72a4,4,0,0,1,3.31.28,3.55,3.55,0,0,1,1.34,3.14,9.72,9.72,0,0,1-.85,3.2,14.18,14.18,0,0,0-1.2,2.95,2.09,2.09,0,0,0,.16,1.39c.16.37.69.81.79,1.51A5,5,0,0,1,40.53,44c-.07.53-.19,1-.28,1.58a56.71,56.71,0,0,1-1.51,6.28l-.09,0a55.93,55.93,0,0,1,.74-6.44c.09-.53.17-1.07.28-1.6a4.54,4.54,0,0,0,.21-1.43c0-.42-.37-.76-.62-1.37a2.56,2.56,0,0,1,0-1.77c.36-1.08,1-2,1.39-3a7.44,7.44,0,0,0,.41-3.09,3.44,3.44,0,0,0-1-2.62,4.78,4.78,0,0,0-2.91-.72Z"/><path d="M32.15,27.09a1.77,1.77,0,0,1-.32,1.65,6.7,6.7,0,0,1-.68.54,3,3,0,0,0-.52.61c-.28.47-.69.82-.92,1.2s-.56.74-.91,1.22l-.08,0A2.11,2.11,0,0,1,29,30.58a3,3,0,0,1,1.34-1,1.76,1.76,0,0,0,.65-.47,2.63,2.63,0,0,0,.28-.72,5.39,5.39,0,0,1,.83-1.29Z"/></g></g></svg>