<svg xmlns="http://www.w3.org/2000/svg" viewBox="0 0 108.34 142.38"><defs><style>.cls-1{fill:#e58c61;}.cls-2{fill:#dc662d;}</style></defs><g id="Layer_2" data-name="Layer 2"><g id="Ingredients_Map" data-name="Ingredients Map"><path class="cls-1" d="M97.05,56.11c-1.27-1.43-2.07-4.78-3.93-5-1.56-.22-3.41,0-4.87-.68a9.64,9.64,0,0,1-3.39-3.15,9.11,9.11,0,0,1-1-1.64,18,18,0,0,0,1.4-4.92c.37-1.78.82-3.54,1.32-5.28.45-.75.88-1.48,1.25-2.21a50.94,50.94,0,0,0,4-11.36c.59-2.57-3.16-4.46-4.45-1.88A82.41,82.41,0,0,0,82,33.65a46.52,46.52,0,0,0-2.36,4.54,12.81,12.81,0,0,0-1.14,5.6l-.3.05c-1.46.27-2.93.5-4.4.74l-2.11.36a5.91,5.91,0,0,1-1.85.29c-.58-.14-1.24-1.13-1.59-1.68a11.06,11.06,0,0,1-1.73-5.29c-.36-4.78,1.45-9.16,3.58-13.34a83.42,83.42,0,0,0,4.15-8.3c.88-2.35,0-6-3.14-5.8a2.55,2.55,0,0,0-2.35,1.79L63.94,24.7c-.16-1-.23-2-.32-3-.28-3.19-.61-6.48-2.4-9.24-1.58-2.43-4.86-.79-4.46,1.88a56.68,56.68,0,0,1-.28,18.47A60.66,60.66,0,0,1,54.07,42a37.15,37.15,0,0,1-1.57,3.94c-.22.46-.1.37-.58.56a13.49,13.49,0,0,1-2.62.41c-3.18.49-6.36,1-9.56,1.47a13.56,13.56,0,0,1,.12-1.43c.22-1.49.63-2.95,1-4.41.69-2.87,1.24-5.8.61-8.74-.28-1.32-.39-2.91-1.32-3.89C32.22,21.56,45.05,11,45.74,3.5,46,1,42.33.27,41.19,2.27,38,7.91,36.05,14.1,33.86,20.17a74.11,74.11,0,0,1-3.51,8.45c-1.08,2.12-2.43,5.13-4.86,6-1.16.41-5.65,2.15-5.17,3.46,1,2.81,5.48,9.38,3.29,11.4-1.71,1.58-4-.9-3.46,1.4.32,1.36.36,2-.65,3a18.46,18.46,0,0,1-3.38,2.52A32.39,32.39,0,0,0,11.42,60a18.79,18.79,0,0,0-4.06,4.93,6.68,6.68,0,0,0-4.65,5.51c-.6,3.63.06,7.62.81,11.18.37,1.78.93,3.45,2.64,4.36,1.5.8,3.65-1.18,5.29-.91,3.82.62,7.94,1.38,11.76,1.94,7.66,1.12,14,1.34,22.5,4.73,5.06,2,8.19,2.63,12,2.57,1.75,0,2.93-2.26,4.67-2.38a28.49,28.49,0,0,0,5.91-.69,4.45,4.45,0,0,0,3-3.19c.3-1.12-.11-2.88.38-3.72l.73-.7c.46-.37,1-.7,1.41-1.08A5.5,5.5,0,0,0,76,78.65c0-.18,0-.93,0-1.48h.2c1.71.21,3,1.6,4.76,1.52,4-.16,4.78-5,2.8-7.7a13.2,13.2,0,0,0-1.45-1.63C81.91,69,81.21,68.5,81,68c-.26-.81,1.21-1.48,1.86-1.75,3-1.27,6.46-1.13,9.66-.9,3,.21,3.48,1.07,3.82-3.23C96.49,60.68,98.09,57.27,97.05,56.11ZM69.73,14.72v0h0v0Zm-30,34.63c-.11.21,0-.4,0-.45v-.15A.46.46,0,0,1,39.76,49.35Zm27.1,37.23c.08-.07.14-.11.14-.06S67,86.56,66.86,86.58Z"/><path class="cls-2" d="M37.88,104.5H39.5v11.91H38l-8-9.18v9.18h-1.6V104.5h1.38l8,9.25Z"/><path class="cls-2" d="M43,105.27a.88.88,0,0,1,.65.26.88.88,0,0,1,0,1.29.86.86,0,0,1-.65.28.84.84,0,0,1-.63-.28.86.86,0,0,1-.28-.64.87.87,0,0,1,.28-.64A.86.86,0,0,1,43,105.27Zm-.77,3.29h1.55v7.85H42.22Z"/><path class="cls-2" d="M46,111.27a2.41,2.41,0,0,1,.92-2,3.94,3.94,0,0,1,2.5-.73h3.23v1.21H51a3.27,3.27,0,0,1,.64.86,2,2,0,0,1,.18.87,2.28,2.28,0,0,1-.35,1.21,2.38,2.38,0,0,1-.9.91,5.28,5.28,0,0,1-1.8.5c-.58.09-.88.29-.88.61a.5.5,0,0,0,.33.44,5.28,5.28,0,0,0,1.19.37,12.64,12.64,0,0,1,1.85.49,2.38,2.38,0,0,1,.75.51,1.91,1.91,0,0,1,.56,1.42,2,2,0,0,1-1,1.78,5.69,5.69,0,0,1-5.34,0,2.06,2.06,0,0,1-1-1.79c0-1.06.66-1.75,2-2-.52-.34-.78-.67-.78-1a.91.91,0,0,1,.33-.68,2.11,2.11,0,0,1,.91-.46A2.57,2.57,0,0,1,46,111.27Zm2.55,5.5a2.27,2.27,0,0,0-1.28.33,1,1,0,0,0-.5.86c0,.8.73,1.21,2.18,1.21a3.34,3.34,0,0,0,1.6-.31.93.93,0,0,0,.57-.85c0-.36-.24-.66-.72-.89A4.3,4.3,0,0,0,48.51,116.77Zm.37-6.86a1.49,1.49,0,0,0-1.08.43,1.37,1.37,0,0,0-.44,1,1.29,1.29,0,0,0,.43,1,1.7,1.7,0,0,0,2.2,0,1.38,1.38,0,0,0,0-2A1.56,1.56,0,0,0,48.88,109.91Z"/><path class="cls-2" d="M60.84,112.62H55.33a2.57,2.57,0,0,0,.75,1.79,2.52,2.52,0,0,0,1.8.67,4.67,4.67,0,0,0,2.83-1v1.52a5.25,5.25,0,0,1-1.42.68,5.83,5.83,0,0,1-1.65.2,3.72,3.72,0,0,1-2.1-.53,3.92,3.92,0,0,1-1.28-1.45,4.4,4.4,0,0,1-.48-2.1,4.21,4.21,0,0,1,1-2.91,3.4,3.4,0,0,1,2.64-1.12,3.11,3.11,0,0,1,2.49,1.09,4.41,4.41,0,0,1,.92,2.93Zm-5.48-.93h4a2.22,2.22,0,0,0-.55-1.43,1.77,1.77,0,0,0-1.33-.5,1.88,1.88,0,0,0-1.37.5A2.49,2.49,0,0,0,55.36,111.69Z"/><path class="cls-2" d="M64.53,108.56v1.8l.09-.13c.75-1.21,1.5-1.82,2.25-1.82a2.76,2.76,0,0,1,1.83.89l-.82,1.36a2.31,2.31,0,0,0-1.5-.77,1.61,1.61,0,0,0-1.3.72,2.75,2.75,0,0,0-.55,1.7v4.1H63v-7.85Z"/><path class="cls-2" d="M70.93,105.27a.89.89,0,0,1,.66.26.91.91,0,1,1-1.29,1.29.89.89,0,0,1-.27-.64.92.92,0,0,1,.9-.91Zm-.76,3.29h1.55v7.85H70.17Z"/><path class="cls-2" d="M79.24,111.69V115c0,.27.09.41.27.41a1.88,1.88,0,0,0,.88-.42V116a4.85,4.85,0,0,1-.85.47,1.89,1.89,0,0,1-.67.12c-.66,0-1.06-.26-1.18-.78a3.35,3.35,0,0,1-2.1.76,1.86,1.86,0,0,1-1.91-1.9,1.93,1.93,0,0,1,.53-1.32,3.65,3.65,0,0,1,1.52-.93l2-.68v-.42a1.25,1.25,0,0,0-1.41-1.41,3.45,3.45,0,0,0-2.48,1.31v-1.69a3.24,3.24,0,0,1,2.6-1.07,3,3,0,0,1,2,.66,2.21,2.21,0,0,1,.46.57,2,2,0,0,1,.26.71A9.66,9.66,0,0,1,79.24,111.69Zm-1.53,3.16v-2.32l-1,.4a3.56,3.56,0,0,0-1.12.63,1.15,1.15,0,0,0,0,1.59,1.09,1.09,0,0,0,.81.31A1.93,1.93,0,0,0,77.71,114.85Z"/><path class="cls-2" d="M0,126.55a.22.22,0,0,1,.23-.23h6a.22.22,0,0,1,.23.23v1.29a.22.22,0,0,1-.23.23H2a.12.12,0,0,0-.14.14v4.94a.12.12,0,0,0,.14.14H5.66a.22.22,0,0,1,.23.23v1.28a.22.22,0,0,1-.23.24H2c-.1,0-.14,0-.14.14v5.1a.12.12,0,0,0,.14.14H6.22a.22.22,0,0,1,.23.23v1.28a.22.22,0,0,1-.23.24h-6a.22.22,0,0,1-.23-.24Z"/><path class="cls-2" d="M10.77,126.55c0-.14.11-.23.25-.23h1.4a.26.26,0,0,1,.26.23L16,141.93a.2.2,0,0,1-.21.24H14.4c-.16,0-.23-.1-.25-.24l-.7-3.47H9.93l-.7,3.47c0,.14-.09.24-.23.24H7.6a.2.2,0,0,1-.21-.24Zm2.35,10.28-1.35-6.9H11.7l-1.45,6.9Z"/><path class="cls-2" d="M23.51,142.17a.22.22,0,0,1-.25-.17l-2-6.61c-.21,0-.45,0-.66,0h-.95a.12.12,0,0,0-.14.14v6.38a.22.22,0,0,1-.23.24H17.88a.23.23,0,0,1-.24-.24V126.55a.22.22,0,0,1,.24-.23h2.77c2.79,0,4.29,1.21,4.29,4.57,0,2.12-.7,3.4-1.94,4l2.21,7c.05.12,0,.24-.11.24Zm-.46-11.28c0-2.15-.7-2.82-2.38-2.82h-1a.13.13,0,0,0-.14.14v5.36a.13.13,0,0,0,.14.14h1C22.3,133.71,23.05,133.06,23.05,130.89Z"/><path class="cls-2" d="M29.46,142.17a.22.22,0,0,1-.23-.24V128.21a.13.13,0,0,0-.14-.14H26.48a.22.22,0,0,1-.24-.23v-1.29a.22.22,0,0,1,.24-.23h7.38a.22.22,0,0,1,.23.23v1.29a.22.22,0,0,1-.23.23H31.25a.13.13,0,0,0-.14.14v13.72a.22.22,0,0,1-.23.24Z"/><path class="cls-2" d="M35.68,126.55a.22.22,0,0,1,.23-.23h1.43a.22.22,0,0,1,.23.23V133a.12.12,0,0,0,.14.14h3.4a.12.12,0,0,0,.14-.14v-6.48a.22.22,0,0,1,.23-.23H42.9a.22.22,0,0,1,.24.23v15.38a.23.23,0,0,1-.24.24H41.48a.22.22,0,0,1-.23-.24v-6.87a.13.13,0,0,0-.14-.14h-3.4a.13.13,0,0,0-.14.14v6.87a.22.22,0,0,1-.23.24H35.91a.22.22,0,0,1-.23-.24Z"/><path class="cls-2" d="M48,142.17a.22.22,0,0,1-.23-.24v-6.31l-3.06-9.07c0-.14,0-.23.17-.23h1.47c.16,0,.23.07.27.23l2.08,6.64h.07l2.07-6.64c0-.16.12-.23.26-.23h1.44c.17,0,.21.09.17.23l-3.06,9.07v6.31a.22.22,0,0,1-.23.24Z"/><path class="cls-2" d="M58.29,134.24c0-4.49.07-5.08.3-5.77a3.32,3.32,0,0,1,3.47-2.36c2.19,0,3.43,1.24,3.68,3.45,0,.14,0,.26-.16.28l-1.3.26c-.17,0-.26,0-.28-.19-.17-1.31-.77-2-1.91-2A1.62,1.62,0,0,0,60.41,129c-.16.47-.21.82-.21,5.24s0,4.78.21,5.25a1.86,1.86,0,0,0,3.4,0c.14-.45.21-.82.21-4.06a.13.13,0,0,0-.14-.14H62.32a.22.22,0,0,1-.23-.23v-1.24a.22.22,0,0,1,.23-.23H65.6a.22.22,0,0,1,.24.23v.68c0,4.24-.07,4.82-.31,5.52a3.73,3.73,0,0,1-6.94,0C58.36,139.32,58.29,138.74,58.29,134.24Z"/><path class="cls-2" d="M68.08,126.55a.22.22,0,0,1,.23-.23h1.42a.22.22,0,0,1,.23.23v15.38a.22.22,0,0,1-.23.24H68.31a.22.22,0,0,1-.23-.24Z"/><path class="cls-2" d="M72.58,126.55a.22.22,0,0,1,.23-.23h1.75a.32.32,0,0,1,.35.23l3.54,11.89h.09V126.55a.22.22,0,0,1,.23-.23H80a.22.22,0,0,1,.23.23v15.38a.22.22,0,0,1-.23.24H78.35a.32.32,0,0,1-.35-.24l-3.61-11.88h-.11v11.88a.23.23,0,0,1-.24.24H72.81a.22.22,0,0,1-.23-.24Z"/><path class="cls-2" d="M82.6,134.24c0-4.49.07-5.08.3-5.77a3.32,3.32,0,0,1,3.47-2.36c2.19,0,3.43,1.24,3.68,3.45,0,.14,0,.26-.16.28l-1.31.26a.22.22,0,0,1-.28-.19c-.16-1.31-.76-2-1.91-2A1.61,1.61,0,0,0,84.72,129c-.17.47-.21.82-.21,5.24s0,4.78.21,5.25a1.86,1.86,0,0,0,3.4,0c.14-.45.21-.82.21-4.06a.13.13,0,0,0-.14-.14H86.63a.22.22,0,0,1-.24-.23v-1.24a.22.22,0,0,1,.24-.23h3.28a.22.22,0,0,1,.24.23v.68c0,4.24-.07,4.82-.31,5.52a3.73,3.73,0,0,1-6.94,0C82.67,139.32,82.6,138.74,82.6,134.24Z"/><path class="cls-2" d="M92.38,126.55a.22.22,0,0,1,.24-.23h6a.22.22,0,0,1,.23.23v1.29a.22.22,0,0,1-.23.23h-4.2a.13.13,0,0,0-.14.14v4.94a.13.13,0,0,0,.14.14h3.64a.22.22,0,0,1,.23.23v1.28a.22.22,0,0,1-.23.24H94.41a.12.12,0,0,0-.14.14v5.1a.13.13,0,0,0,.14.14h4.2a.22.22,0,0,1,.23.23v1.28a.22.22,0,0,1-.23.24h-6a.23.23,0,0,1-.24-.24Z"/><path class="cls-2" d="M106.62,142.17a.22.22,0,0,1-.25-.17l-2-6.61c-.21,0-.45,0-.66,0h-1a.12.12,0,0,0-.14.14v6.38a.22.22,0,0,1-.23.24H101a.22.22,0,0,1-.23-.24V126.55a.22.22,0,0,1,.23-.23h2.78c2.79,0,4.28,1.21,4.28,4.57,0,2.12-.69,3.4-1.93,4l2.21,7c.05.12,0,.24-.11.24Zm-.46-11.28c0-2.15-.7-2.82-2.38-2.82h-1a.13.13,0,0,0-.14.14v5.36a.13.13,0,0,0,.14.14h1C105.41,133.71,106.16,133.06,106.16,130.89Z"/><path d="M6.12,67.87a5.17,5.17,0,0,0-2.66-.15A1.82,1.82,0,0,0,2.09,69.5c0,.84.19,1.82.23,2.74s.06,1.86.09,2.78a28.16,28.16,0,0,0,.38,5.51,10.43,10.43,0,0,0,2.28,4.92c.55.64,1.41,1.43,1.85.87a7.23,7.23,0,0,0,1.27-2.26,15,15,0,0,0,.61-5.32,30.07,30.07,0,0,0-.74-5.42,5,5,0,0,0-.41-1.24.81.81,0,0,0-.85-.53,1.26,1.26,0,0,0-.79.84,4,4,0,0,0-.15,1.34H5.77a4.22,4.22,0,0,1,0-1.42,1.5,1.5,0,0,1,.94-1.18,1.3,1.3,0,0,1,1.44.65,4.76,4.76,0,0,1,.57,1.35,22.75,22.75,0,0,1,1,5.56,13.47,13.47,0,0,1-.73,5.64,7,7,0,0,1-1.58,2.47,1.17,1.17,0,0,1-.86.31,1.58,1.58,0,0,1-.78-.32,5.28,5.28,0,0,1-1-1.06A13.87,13.87,0,0,1,2.5,80.59a35.71,35.71,0,0,1-.79-5.54l-.28-5.58A2.28,2.28,0,0,1,2,68a2.76,2.76,0,0,1,1.33-.74,4.72,4.72,0,0,1,2.79.51Z"/><path d="M85.05,49.92a3.5,3.5,0,0,1,2.5-1.16,2.38,2.38,0,0,1,1.33.64c.35.28.71.53,1.07.78,1.47,1,3.13,1.68,4.71,2.59a17.53,17.53,0,0,1,2.26,1.57,2.52,2.52,0,0,1,.9,1.14,3.94,3.94,0,0,1,0,1.41,28.94,28.94,0,0,1-1,5.36,11.13,11.13,0,0,1-1.15,2.55,2.06,2.06,0,0,1-1.36.81,7.59,7.59,0,0,1-1.42,0,13.45,13.45,0,0,1-2.78-.34,5,5,0,0,1-1.35-.54,6.39,6.39,0,0,1-1.1-.84c-.13-.07-.12-.07-.28,0l-.58.24-1.24.53a4.55,4.55,0,0,1-1.43.42,2.35,2.35,0,0,1-1.43-.59,1.34,1.34,0,0,0-1-.38,4.37,4.37,0,0,0-1.16.5l-2.44,1.19,0-.07,2.27-1.5a4.83,4.83,0,0,1,1.26-.67,1.86,1.86,0,0,1,1.5.37,1.62,1.62,0,0,0,1,.4,3.73,3.73,0,0,0,1.14-.42l1.23-.57c.21-.09.38-.18.67-.28a1.17,1.17,0,0,1,1,.14c1.33,1.3,3,1.51,4.79,1.65.91,0,1.75.17,2.22-.45a10.29,10.29,0,0,0,1.23-2.3,17.25,17.25,0,0,0,1.15-5.23,3.15,3.15,0,0,0,0-1.27,2.11,2.11,0,0,0-.86-.87,17.54,17.54,0,0,0-2.31-1.33,36.75,36.75,0,0,1-4.75-2.67c-.79-.49-1.32-1.4-2.07-1.51a3.64,3.64,0,0,0-2.41.78Z"/><path d="M79.28,68.25c.81.49,1.57,1,2.32,1.6a11.12,11.12,0,0,1,1.11.94,2.16,2.16,0,0,1,.5,1.53A4.34,4.34,0,0,0,83.52,75a1.42,1.42,0,0,1,.16,1.46,3.07,3.07,0,0,1-1.05,1,12.15,12.15,0,0,1-2.52,1.33,20.08,20.08,0,0,1-2.71.94,2.16,2.16,0,0,1-1.67-.26,2.73,2.73,0,0,1-.81-1.35,1,1,0,0,0-.82-.72,4.68,4.68,0,0,1-1.36-.4l0-.07a7.86,7.86,0,0,0,1.39,0,1.54,1.54,0,0,1,1.34.84c.25.45.41.85.67,1a1.56,1.56,0,0,0,1,0,40.14,40.14,0,0,0,5.18-1.78,2.31,2.31,0,0,0,1-.79,1,1,0,0,0-.14-1.16,5.42,5.42,0,0,1-.78-2.76,1.88,1.88,0,0,0-.37-1.07c-.24-.29-.64-.6-1-.93a23.26,23.26,0,0,1-1.94-2Z"/><path d="M83.21,50.61l-.93-2.48a7.51,7.51,0,0,0-1-2.18c-.47-.48-1.52-.24-2.41-.46a20.6,20.6,0,0,1-2.54-.9,5.16,5.16,0,0,0-4.75.26,3.58,3.58,0,0,1-1.32.66c-.29,0-.33,0-.41.07a1.29,1.29,0,0,0-.28.45c-.17.4-.38.78-.57,1.18-.1.2-.18.39-.31.62s-.52.38-.7.13L68,47.9c.43.17.4-.41.53-.82s.23-.88.37-1.32a1.67,1.67,0,0,1,.36-.7,1.31,1.31,0,0,1,.81-.36,4.58,4.58,0,0,0,1-.63,5.11,5.11,0,0,1,5.42.1,7.36,7.36,0,0,0,2.39,1c.83.2,1.7-.46,2.78.16a2.49,2.49,0,0,1,.85,1.26c.15.42.29.85.4,1.29a11.94,11.94,0,0,1,.38,2.66Z"/><path d="M62,56.07c-.44-2-.88-3.92-1.36-5.85a10.33,10.33,0,0,1-.37-3,5,5,0,0,1,.1-.8c0-.18.18-.23.3-.33l.29-.2a3.22,3.22,0,0,0,.79-1.2,7.39,7.39,0,0,1,.71-1.4,1.4,1.4,0,0,1,.79-.57,1.84,1.84,0,0,1,.94,0A4,4,0,0,1,66.55,45c.44,1,.67,1.92,1.11,2.8a17.58,17.58,0,0,0,1.49,2.58l-.06.06a10,10,0,0,1-2-2.32,25.4,25.4,0,0,1-1.34-2.73A3.45,3.45,0,0,0,64,43.48c-.42-.13-.7-.14-1,.19a9.51,9.51,0,0,0-.82,1.19,4.5,4.5,0,0,1-1,1.21c-.22.19-.5.23-.54.4a3.6,3.6,0,0,0-.07.7A8.2,8.2,0,0,0,61.31,50a16.29,16.29,0,0,1,.77,6Z"/><path d="M65.22,54.17c-.88.74-1.81,1.29-2.67,1.89a4.28,4.28,0,0,0-1.25,1,3.17,3.17,0,0,0-.6,1.48,2.62,2.62,0,0,1-.09.46.72.72,0,0,1-.49.45c-.46.09-.63,0-.88.08a4.45,4.45,0,0,0-1.41.44,17.58,17.58,0,0,0-2.68,1.76l-.07-.06a5.94,5.94,0,0,1,2.34-2.51,3.86,3.86,0,0,1,1.77-.43,4.92,4.92,0,0,1,.77.07s.19-.1.29-.39a11.54,11.54,0,0,1,.82-1.51,7.3,7.3,0,0,1,1-1.39,6.3,6.3,0,0,1,3.07-1.4Z"/><path d="M72.05,78.35a5.29,5.29,0,0,1,1,3.9A3.06,3.06,0,0,1,71.79,84l-1.52,1.2-.75.55s0-.15,0-.15l.12.09L70,86a10.68,10.68,0,0,1,1.48,1.37,4.67,4.67,0,0,1,1.08,1.72,1.11,1.11,0,0,1-.32,1.06c-.36.26-.55.28-.59.57a2.47,2.47,0,0,1-.16.52,1,1,0,0,1-.46.46,6.9,6.9,0,0,1-1,.36l-1,.31a1.4,1.4,0,0,1-1.26-.27c-.59-.53-.92-1-1.27-.93s-.89.57-1.61.87a5.59,5.59,0,0,1-4.12-.34,8.85,8.85,0,0,0-3.73-1v-.09a7.49,7.49,0,0,1,4,.43,5.52,5.52,0,0,0,3.57.17c.52-.16.9-.79,1.86-1a1.53,1.53,0,0,1,1.22.5c.27.26.46.53.65.7a.61.61,0,0,0,.58.16l.94-.23c.31-.08.67-.15.91-.23s.3-.23.43-.6a.92.92,0,0,1,.38-.5c.17-.1.32-.15.42-.21a.74.74,0,0,0,.26-.73,3.54,3.54,0,0,0-1-1.57,6.21,6.21,0,0,0-1.52-1.18l-.42-.22a1,1,0,0,1-.28-.19.43.43,0,0,1-.13-.31.67.67,0,0,1,.12-.27,9.73,9.73,0,0,1,.76-.72c.51-.42,1-.91,1.54-1.27a2.36,2.36,0,0,0,1.07-1.33A6.07,6.07,0,0,0,72,78.39Z"/><path d="M58,93.3a1.86,1.86,0,0,1-.26,1,1.22,1.22,0,0,1-1,.64,2.28,2.28,0,0,1-1-.36,5.76,5.76,0,0,0-.92-.28,6.83,6.83,0,0,1-1.75-.71c-.51-.33-1-.65-1.53-1l0-.09a3.29,3.29,0,0,1,1.94.32A8.51,8.51,0,0,1,55,93.87a2,2,0,0,0,.8.44,1.19,1.19,0,0,0,.81-.08,4.77,4.77,0,0,0,1.27-1Z"/><path d="M53.34,91.24a11.89,11.89,0,0,1-2.15,1.57,3.75,3.75,0,0,1-2.77.21,9,9,0,0,1-2.37-1.27c-.74-.48-1.47-1-2.23-1.37a10.44,10.44,0,0,0-2.33-.94A13.33,13.33,0,0,0,39,89.25a7.56,7.56,0,0,1-4.87-2.11l0-.07A10.93,10.93,0,0,0,39,88.34a9.45,9.45,0,0,1,2.68.33A7.48,7.48,0,0,1,44.07,90a22.3,22.3,0,0,0,2.12,1.53,7.38,7.38,0,0,0,2.39.82,4.45,4.45,0,0,0,2.35-.14c.77-.25,1.52-.75,2.37-1Z"/><path d="M63.63,74.67c-.64.43-1.29.83-2,1.23l-1,.58a3,3,0,0,1-1.16.53,1,1,0,0,1-.75-.32l-.41-.38c-.28-.24-.57-.46-.87-.67a12.14,12.14,0,0,0-1.93-1.07l.49-.29a7.26,7.26,0,0,1-.51,1.78,3.93,3.93,0,0,1-1,1.57,1.65,1.65,0,0,1-.92.35c-.36,0-.64-.18-.85-.11-.49.11-.72.8-1.18,1.19a6.79,6.79,0,0,1-3.28,1.63,2.57,2.57,0,0,1-3.11-2A2.17,2.17,0,0,1,46,76.8a9.83,9.83,0,0,1,1.55-1c1.05-.57,2-1.21,3.15-1.74a6,6,0,0,1,1.83-.5,6.46,6.46,0,0,1,1.81.14c.4.06.9-.51,1.53-.66a3.13,3.13,0,0,1,1.82,0l0,.08a3,3,0,0,0-1.68.24,2.88,2.88,0,0,0-.7.45,1.62,1.62,0,0,1-.94.43,5.17,5.17,0,0,0-3.3.55c-1,.53-2,1.18-3,1.77S45.87,77.7,46,78.62a1.64,1.64,0,0,0,.76,1.17,2.49,2.49,0,0,0,1.5.33,5.62,5.62,0,0,0,3.13-1.27c.46-.34.62-1,1.33-1.26.38-.08.66.12.9.07a1.06,1.06,0,0,0,.69-.32,5.92,5.92,0,0,0,1.08-3.15l.06-.46.43.17A8.59,8.59,0,0,1,57.92,75a9.51,9.51,0,0,1,.92.76c.3.27.57.63.67.56a3.91,3.91,0,0,0,.93-.37l1-.48c.69-.32,1.4-.63,2.11-.91Z"/><path d="M57.18,59.5A2.76,2.76,0,0,1,57,57.4c.13-.35.34-.65.47-1a6.58,6.58,0,0,0,.31-1,3.83,3.83,0,0,1,2.85-3l0,.07c-.84,1.17-1.61,2-2.47,3.1a2.5,2.5,0,0,0-.47.88,4.9,4.9,0,0,0,0,1,8.51,8.51,0,0,1-.4,2Z"/><path d="M6,68.41a5.39,5.39,0,0,1-.55-1.36,2.8,2.8,0,0,1-.14-.79.57.57,0,0,1,.34-.52,2,2,0,0,1,.39-.13l2.68-.92a14.29,14.29,0,0,0,2.63-1,2.71,2.71,0,0,0,1-1,3.1,3.1,0,0,0,.31-1.33,8.44,8.44,0,0,1,2.56-5.26c1.32-1.4,3.21-2.66,5.22-2.48v.09a8.38,8.38,0,0,0-4.55,3,10.12,10.12,0,0,0-2.77,4.72,4.3,4.3,0,0,1-.51,1.4,3.78,3.78,0,0,1-1.07,1A21.42,21.42,0,0,1,9,65.35a12.7,12.7,0,0,1-2.78.89l-.3.07c-.06,0,0,0,0,0a2.8,2.8,0,0,0,0,.63,11.78,11.78,0,0,0,.19,1.42Z"/><path d="M29.09,56.91a13.5,13.5,0,0,1-2.51,2.86,12.26,12.26,0,0,0-1.46,1.17,1,1,0,0,0,.11,1.53,1.8,1.8,0,0,1,.42,2.1c-.43.68-1.07,1-1.12,1.32s.31.93.4,1.58a4.36,4.36,0,0,1-.07,2h-.09a7.77,7.77,0,0,0-.48-1.78,4.22,4.22,0,0,0-.39-.8,1.57,1.57,0,0,1-.25-1.2c.35-1,1.1-1.11,1.32-1.5s.15-.88-.13-1.43a2.13,2.13,0,0,1-.3-1,1.64,1.64,0,0,1,.36-1c.39-.54.79-1,1.19-1.51A13.52,13.52,0,0,1,29,56.85Z"/><path d="M23.73,59.88A2.17,2.17,0,0,1,22,59.31c-.21-.23-.35-.53-.53-.76a5.42,5.42,0,0,0-.63-.64A3,3,0,0,1,20,56.28a2.34,2.34,0,0,1,.43-1.81l.08,0c.13.61.24,1.12.38,1.62s.23,1,.39,1.54a1.64,1.64,0,0,0,.44.71,3.18,3.18,0,0,0,.76.38,5.7,5.7,0,0,1,1.31,1.06Z"/><path d="M27.75,29.83a7.71,7.71,0,0,1-.2,2,6.29,6.29,0,0,0-.3,1,2.83,2.83,0,0,0,.08,1,5.75,5.75,0,0,1-.17,4h-.08a7.81,7.81,0,0,1-.21-4,5.11,5.11,0,0,0,.1-1c0-.34-.11-.69-.12-1a2.74,2.74,0,0,1,.83-1.91Z"/><path d="M26.61,35.24c-1.26.13-2.51.18-3.77.21h-.91c-.28,0-.37.09-.45.27a2,2,0,0,0,.17,1.51,5.48,5.48,0,0,1,.49,1.9A14.49,14.49,0,0,1,21.93,41a3.42,3.42,0,0,0,.11,1.8,7,7,0,0,0,.92,1.6,5.27,5.27,0,0,1,.87,1.76,5.89,5.89,0,0,1,.11,2c-.07.65-.21,1.28-.34,1.9a.93.93,0,0,1-.43.69,2.16,2.16,0,0,1-.44.1h-.26a5.71,5.71,0,0,1-1-.14,8,8,0,0,1-1.85-.69c-.57-.32-1.11-.66-1.45-.54s-.47.79-.39,1.35a8,8,0,0,0,.49,1.77l-.07,0a6.94,6.94,0,0,1-.84-1.73,2.94,2.94,0,0,1-.09-1,1.2,1.2,0,0,1,.63-1c.92-.33,1.54.23,2.07.4a8.45,8.45,0,0,0,1.69.58,5,5,0,0,0,.85.11h.21s0,0,0,0,0,0,0-.11a17.54,17.54,0,0,0,.4-1.79,4.9,4.9,0,0,0-.59-3.42,10.74,10.74,0,0,1-.8-1.75A5.19,5.19,0,0,1,21.63,41a7.61,7.61,0,0,0,0-1.84A5.27,5.27,0,0,0,21,37.51a2.48,2.48,0,0,1-.19-2.12,1.15,1.15,0,0,1,1.08-.63c.36,0,.64,0,1,0,1.26.08,2.51.18,3.76.36Z"/><path d="M84.94,53.72a3.24,3.24,0,0,1,1.42,1.6c.12.35.16.72.28,1.06a4.66,4.66,0,0,0,.47.95,4.79,4.79,0,0,1,.47,4.2H87.5a16,16,0,0,1-.83-4.05,3.13,3.13,0,0,0-.29-1,6.54,6.54,0,0,0-.64-.83,6.3,6.3,0,0,1-.87-1.89Z"/><path d="M71.3,52a8.38,8.38,0,0,1,3.09,2.31c.4.51.71,1.08,1.07,1.62s.75,1,1.13,1.56a8.62,8.62,0,0,1,1.53,7.43H78a28,28,0,0,0-1.86-7.19,6.78,6.78,0,0,0-.94-1.63,11.21,11.21,0,0,0-1.37-1.3C73,53.88,72.11,53,71.25,52Z"/><path d="M67,59.33A10.72,10.72,0,0,1,69.67,63a12.43,12.43,0,0,1,.52,2.23,12.13,12.13,0,0,1,.2,2.27,21.59,21.59,0,0,1-.33,2.18,3.63,3.63,0,0,0,.65,1.84A7.77,7.77,0,0,1,71.5,76h-.09a14.33,14.33,0,0,0-1.5-4,3.75,3.75,0,0,1-.65-2.35c.14-.86.52-1.45.67-2.16a4.78,4.78,0,0,0,0-2.16,7.88,7.88,0,0,0-.9-2c-.66-1.28-1.43-2.52-2.07-3.9Z"/><path d="M78.43,72.64a2.36,2.36,0,0,1-1.06,1,5.41,5.41,0,0,0-.71.25,1.42,1.42,0,0,0-.5.53,7.92,7.92,0,0,1-1.84,2.18l-.08,0a2.48,2.48,0,0,1,1.61-2.5,2.57,2.57,0,0,0,.64-.4c.18-.18.31-.42.48-.61a2.14,2.14,0,0,1,1.41-.54Z"/><path d="M53.2,66.41a15.84,15.84,0,0,1-2.74-2.55,18.06,18.06,0,0,0-1.18-1.44,7.7,7.7,0,0,0-1.49-1.11,43.88,43.88,0,0,0-6.7-3v-.09a9.73,9.73,0,0,1,3.77.61,9.9,9.9,0,0,1,3.2,2.09c.46.43.91.88,1.39,1.28s1,.74,1.51,1.15a11,11,0,0,1,2.29,3Z"/><path d="M55.64,55.75a7.31,7.31,0,0,1-2-1.65,11.46,11.46,0,0,0-.81-1,4.05,4.05,0,0,0-1.06-.72c-1.58-.76-3-1.41-4.63-2.1v-.09A5.47,5.47,0,0,1,52,52a9.06,9.06,0,0,0,1,.89c.35.26.75.47,1.11.73a5.94,5.94,0,0,1,1.6,2.1Z"/><path d="M47.34,55.39a4.37,4.37,0,0,1-1.91-.76c-.27-.21-.51-.48-.79-.66a3,3,0,0,0-1-.33,21.7,21.7,0,0,1-3.88-1v-.09a4.25,4.25,0,0,1,4.07.66,4.73,4.73,0,0,0,.9.51c.32.13.68.18,1,.29a3.85,3.85,0,0,1,1.62,1.31Z"/><path d="M47.6,74.86c-.55-1.07-.91-2.15-1.32-3.18a5.49,5.49,0,0,0-.72-1.53,4,4,0,0,0-1.32-1.07,33.48,33.48,0,0,0-3.12-1.37,12.4,12.4,0,0,1-3-1.76l0-.08c1.14.3,2.24.6,3.35,1a9.72,9.72,0,0,1,3.05,1.83c.44.41.85.83,1.25,1.27a8.32,8.32,0,0,1,1.15,1.41,7.06,7.06,0,0,1,.76,3.46Z"/><path d="M63.24,79.44a7.15,7.15,0,0,1,2.11,2.37c.23.49.38,1,.57,1.51l.63,1.47a5.7,5.7,0,0,1,.3,3.24,8.44,8.44,0,0,1-1.27,3l-.08,0c.2-2.16.82-4,.6-6a4.08,4.08,0,0,0-.43-1.47,9.33,9.33,0,0,0-.93-1.24,13.53,13.53,0,0,1-1.57-2.7Z"/><path d="M57.64,80.6a4,4,0,0,1,1.67,2.16,13,13,0,0,1,.22,1.37c.08.44.2.87.31,1.32a7.19,7.19,0,0,1,.09,2.73,21.8,21.8,0,0,1-.62,2.6h-.09A7.33,7.33,0,0,1,59,88.07l.34-2.58a3.57,3.57,0,0,0-.1-1.3A6.1,6.1,0,0,0,58.66,83c-.39-.76-.73-1.51-1.09-2.37Z"/><path d="M53.59,84.61a4.53,4.53,0,0,1,0,2.34c-.13.37-.34.73-.48,1.09a8.16,8.16,0,0,0-.31,1.13,4.3,4.3,0,0,1-1.18,2.12,3.06,3.06,0,0,1-2.26.88l0-.08A9.29,9.29,0,0,0,51,90.65,13.68,13.68,0,0,0,52.34,89a2.72,2.72,0,0,0,.47-1,6.29,6.29,0,0,0,.06-1.15,6.1,6.1,0,0,1,.63-2.21Z"/><path d="M48.57,84.25A22.15,22.15,0,0,1,47,86.06a7.08,7.08,0,0,0-.86.87c-.25.32-.45.69-.74,1a3.33,3.33,0,0,1-2.36,1.15,5.24,5.24,0,0,1-2.48-.55v-.09c1.7-.31,3.18-.11,4.52-.86a2.31,2.31,0,0,0,.82-.85c.2-.35.31-.77.53-1.15a3.46,3.46,0,0,1,2.08-1.44Z"/><path d="M34.52,75.77a6.71,6.71,0,0,1,1.66,2.36c.16.46.24,1,.38,1.41s.35.89.54,1.34a5.85,5.85,0,0,1,.46,2.93,4.24,4.24,0,0,1-1.32,2.65l-.07,0a10.92,10.92,0,0,0,.49-2.69,16.48,16.48,0,0,0,0-2.72,4.18,4.18,0,0,0-.34-1.36,9.41,9.41,0,0,0-.77-1.2,9.47,9.47,0,0,1-1.09-2.63Z"/><path d="M23,78.81a2.92,2.92,0,0,1,1,1.44,8.79,8.79,0,0,0,.15.87,2.51,2.51,0,0,0,.43.74,4.79,4.79,0,0,1,.84,1.58,1.72,1.72,0,0,1-.47,1.78l-.08,0a3.6,3.6,0,0,0-.34-1.54,9.15,9.15,0,0,1-.38-1.6,2.52,2.52,0,0,0-.25-.82,8.88,8.88,0,0,0-.55-.7,3,3,0,0,1-.4-1.68Z"/><path d="M27.68,72.57A6.34,6.34,0,0,0,26,73.62c-.5.41-.87,1-1.47,1.47a3.91,3.91,0,0,1-2.1.75,3.3,3.3,0,0,1-2.17-.41,1.25,1.25,0,0,1-.62-1.14c.09-.62.65-.84.93-1a12.37,12.37,0,0,1,2-.75,10.19,10.19,0,0,1,4.29-.14v.09a39.22,39.22,0,0,0-4.05.93c-.66.19-1.31.38-2,.61-.33.12-.54.23-.58.35a.77.77,0,0,0,.26.67,2.12,2.12,0,0,0,1.83.5,3,3,0,0,0,1.67-1,8.7,8.7,0,0,1,1.54-1.47,3.83,3.83,0,0,1,2.11-.61Z"/><path d="M20.55,70.92a15.92,15.92,0,0,1-2-1.94,9,9,0,0,0-.88-1.08,4.63,4.63,0,0,0-1.17-.74c-1.72-.76-3.33-1.38-5.06-2.22v-.09a6.93,6.93,0,0,1,5.3,1.92,13.28,13.28,0,0,0,1.09.92c.39.27.83.5,1.21.79a4.94,4.94,0,0,1,1.56,2.4Z"/><path d="M22,65.61a2.5,2.5,0,0,1-1.92-1,8,8,0,0,0-.6-.88,2,2,0,0,0-.86-.53c-.66-.19-1.31-.32-2-.56A2.86,2.86,0,0,1,15,61.15l.06-.06a11.15,11.15,0,0,0,1.91.67,5.88,5.88,0,0,1,1.91,1c.28.25.54.51.82.73s.62.39.91.59c.55.44.91.93,1.45,1.44Z"/><path d="M37.07,47.92a1.64,1.64,0,0,1-1.53,1c-.31,0-.61-.12-.89-.13a1.08,1.08,0,0,0-.75.25c-.35.34-.29.67-.23,1.18l.14,1.66-.07,0a2.54,2.54,0,0,1-1-1.56,1.86,1.86,0,0,1,.1-1,1.11,1.11,0,0,1,.84-.72c.33-.06.63-.05.92-.1a4.59,4.59,0,0,0,.81-.29c.53-.16,1-.16,1.57-.34Z"/><path d="M31.8,45.55a9.81,9.81,0,0,1-2.25-.08,5.14,5.14,0,0,0-1.11-.18,2.67,2.67,0,0,0-1.07.29,13.82,13.82,0,0,0-1.83,1.14,14.45,14.45,0,0,0-1.71,1.37l-.08,0A3.44,3.44,0,0,1,25,46a4.3,4.3,0,0,1,2.25-.86A10.84,10.84,0,0,0,28.41,45c.39-.07.77-.2,1.17-.24a3.42,3.42,0,0,1,2.24.7Z"/><path d="M26.81,53.23A1.43,1.43,0,0,1,25.54,53c-.16-.16-.28-.37-.44-.5a1.41,1.41,0,0,0-.56-.28,2.11,2.11,0,0,1-1.6-1.91l.07,0a3.41,3.41,0,0,1,1.8,1.59,1.23,1.23,0,0,0,.44.41,3.24,3.24,0,0,0,.62.12,1.83,1.83,0,0,1,1,.76Z"/><path d="M59.28,52.33a57.68,57.68,0,0,1,1.78-10.64c1.2-3.43,2.48-6.73,3.8-10.07l4-10q2-5,3.78-10.06l.15.25c-1-.1-2-.26-2.94-.3a.42.42,0,0,0-.4.26l-.32.67-.65,1.35-2.61,5.41-2.65,5.39L60.71,30c-1.46,3.72-2.63,7.57-4.53,11.14a115.45,115.45,0,0,1-6.12,10.36l-.07,0c1.92-3.52,3.92-7,5.61-10.6s2.81-7.46,4.29-11.19l2.57-5.46,2.74-5.35L68,13.55l.69-1.33.36-.68a.92.92,0,0,1,.81-.49c1.09.08,2,.28,3,.41l.24,0-.09.22q-2,5-3.82,10.05c-1.22,3.37-2.37,6.77-3.65,10.12s-2.66,6.69-3.87,10a76,76,0,0,0-2.31,10.45Z"/><path d="M77.59,44.6q1-3.45,2.12-6.86c.79-2.26,1.54-4.54,2.44-6.76s1.83-4.43,2.77-6.62,1.84-4.42,2.72-6.65l.11-.27.18.25c.36.46,1.17.46,1.85.62a2.47,2.47,0,0,1,1.08.46,1.31,1.31,0,0,1,.38,1.2c-.35,1.46-.79,2.76-1.21,4.13-.89,2.7-1.79,5.39-2.73,8.06s-1.85,5.35-2.69,8.05a40.33,40.33,0,0,0-1.84,8.25h-.08A31.74,31.74,0,0,1,83.94,40c.71-2.76,1.59-5.46,2.52-8.15s1.92-5.34,2.87-8c.47-1.31,1-2.69,1.38-4,.17-.63-.34-1-1-1.15s-1.47-.16-2-.88l.29,0c-1,2.19-1.85,4.4-2.69,6.65l-2.42,6.75c-.8,2.25-1.71,4.47-2.52,6.71s-1.73,4.46-2.64,6.68Z"/><path d="M84.14,35.19a2.5,2.5,0,0,1-.36,1.56,7.81,7.81,0,0,0-.53.64,2.17,2.17,0,0,0-.23.76A4.19,4.19,0,0,1,81.55,41l-.07,0a4.17,4.17,0,0,1,1.11-3,2,2,0,0,0,.41-.68,7,7,0,0,0,.12-.8,2.56,2.56,0,0,1,.94-1.32Z"/><path d="M83.4,33.78a3.79,3.79,0,0,1-.41,2,9.13,9.13,0,0,0-.58.85,3.24,3.24,0,0,0-.31,1,6.08,6.08,0,0,1-1.93,3.55l-.08,0a7.5,7.5,0,0,1,1.58-3.71,3.43,3.43,0,0,0,.48-.88c.1-.33.11-.68.18-1a4.32,4.32,0,0,1,1-1.78Z"/><path d="M60.57,39.72a25.07,25.07,0,0,1-1,3.74c-.25.6-.53,1.18-.72,1.8a10.19,10.19,0,0,0-.34,1.91,30.65,30.65,0,0,1-1.45,7.61H57A20.34,20.34,0,0,1,58,47.07a15.44,15.44,0,0,0,.53-1.88c.13-.63.18-1.29.31-1.93a10.11,10.11,0,0,1,1.61-3.57Z"/><path d="M57,47.73a7.35,7.35,0,0,1-.29,2.41c-.13.39-.33.76-.44,1.15a5.4,5.4,0,0,0-.12,1.21,6.57,6.57,0,0,1-1.58,4.61l-.08,0a19.13,19.13,0,0,1,1.2-4.66A5.32,5.32,0,0,0,56,51.24c.05-.4,0-.82,0-1.24a4.63,4.63,0,0,1,.9-2.29Z"/><path d="M56.05,45.24a1.23,1.23,0,0,1,.06,1.07,4.7,4.7,0,0,0-.34.44,1,1,0,0,0,0,.52,1.84,1.84,0,0,1-.67,1.94H55a1.88,1.88,0,0,1,.3-2,1,1,0,0,0,.22-.48,3.7,3.7,0,0,0-.09-.55,1.13,1.13,0,0,1,.55-.91Z"/><path d="M58.22,39.28a1.41,1.41,0,0,1-.32,1.14,3.54,3.54,0,0,0-.47.38,1.12,1.12,0,0,0-.21.53,2.29,2.29,0,0,1-1.34,1.87l-.07,0a2.26,2.26,0,0,1,1-2.06,1.33,1.33,0,0,0,.37-.45,3.76,3.76,0,0,0,.1-.6,1.45,1.45,0,0,1,.86-.82Z"/><path d="M31.25,24.65c.62-2.11,1.33-4.18,2.06-6.26s1.51-4.12,2.38-6.14,1.79-4,2.71-6,1.79-4,2.65-6l.1-.24.18.22c.35.39,1.09.41,1.71.54a3.5,3.5,0,0,1,1,.31,1.14,1.14,0,0,1,.64,1,8.42,8.42,0,0,1-.51,2l-.61,1.87c-.87,2.47-1.75,4.93-2.68,7.37s-1.81,4.88-2.63,7.35a34,34,0,0,0-1.79,7.57h-.08a26.92,26.92,0,0,1,1.2-7.77c.7-2.54,1.56-5,2.47-7.46s1.89-4.88,2.81-7.32l.71-1.82a10,10,0,0,0,.58-1.76c.05-.5-.59-.76-1.2-.89S41.6,1,41.06.4l.29,0c-.93,2-1.81,4-2.63,6l-2.35,6.13c-.79,2.05-1.67,4-2.47,6.09s-1.67,4.05-2.56,6.06Z"/><path d="M36.41,20.64a2.48,2.48,0,0,1-.36,1.56c-.16.22-.38.41-.52.64a2.18,2.18,0,0,0-.24.76,4.18,4.18,0,0,1-1.46,2.81l-.08,0a4.18,4.18,0,0,1,1.12-3,2.37,2.37,0,0,0,.41-.68c.07-.25.07-.54.12-.8a2.58,2.58,0,0,1,.93-1.32Z"/><path d="M36.81,16.32a3.65,3.65,0,0,1-.42,2c-.18.29-.42.56-.58.86a3.85,3.85,0,0,0-.31,1,6,6,0,0,1-1.93,3.56l-.07,0A7.46,7.46,0,0,1,35.08,20a3.49,3.49,0,0,0,.48-.89,8.51,8.51,0,0,0,.17-1,4.31,4.31,0,0,1,1-1.77Z"/><path d="M37,19.71a5,5,0,0,1-.18,2.08,8.24,8.24,0,0,0-.4,1,3.22,3.22,0,0,0-.05,1,10.32,10.32,0,0,1,0,2.08,3.74,3.74,0,0,1-.82,2l-.08,0c0-.73,0-1.37,0-2.05a7.85,7.85,0,0,1,.41-2.05,4.19,4.19,0,0,0,.25-1c0-.34,0-.71,0-1.07a3.75,3.75,0,0,1,.8-1.95Z"/><path d="M57.35,13a10.52,10.52,0,0,0,2.18-.16,4.87,4.87,0,0,0,1-.28.49.49,0,0,0,.09-.06s0,.09,0,.07a1.24,1.24,0,0,0-.32-.21,7.38,7.38,0,0,0-2-.55c-.68-.06-1.28,0-1.37.61a20.64,20.64,0,0,0,.55,8.71A29,29,0,0,1,58,30c-.06,1.47-.17,2.93-.11,4.4,0,.73.06,1.46.13,2.19,0,.18,0,.37.07.52s0,0,0,0,0,0-.07,0a.2.2,0,0,0-.18,0c0,.09,0,0,0,.06s0-.07,0-.11l0-.27a2.93,2.93,0,0,0,0-.52s0,0,0,0,.08,0,.09,0l0,.05,0,.13,0,.27h-.09v-.42a.37.37,0,0,1,0-.09s0-.07.13-.07a.18.18,0,0,1,.07.08,2.47,2.47,0,0,1,.11.58l0,.28v.17a.35.35,0,0,1-.06.12.16.16,0,0,1-.2,0c-.11-.06-.07-.06-.09-.07a.31.31,0,0,1,0-.11,3.35,3.35,0,0,1-.15-.56,18.38,18.38,0,0,1-.38-2.22,29.18,29.18,0,0,1-.1-4.48c.05-1.49.16-2.95.16-4.41A40.56,40.56,0,0,0,57,21.15c-.17-1.47-.37-2.94-.58-4.41a18.83,18.83,0,0,1-.2-4.52,1.43,1.43,0,0,1,.88-1.09A2.57,2.57,0,0,1,58.34,11a7.87,7.87,0,0,1,2.23.72,1.5,1.5,0,0,1,.55.46.53.53,0,0,1,0,.59.64.64,0,0,1-.36.25,5.46,5.46,0,0,1-1.16.21A7.39,7.39,0,0,1,57.33,13Z"/><path d="M65.29,25.2a5.87,5.87,0,0,1-.45,3.12c-.22.48-.5.93-.68,1.42s-.13,1-.32,1.57-.69.9-.81,1.29-.25,1-.37,1.41l-.36,1.5A6.23,6.23,0,0,1,61.61,37l-.08,0,.11-1.56a11.14,11.14,0,0,1,.14-1.57,6.37,6.37,0,0,1,.54-1.57c.29-.59.87-.83,1.11-1.15a6.31,6.31,0,0,0,.47-1.43c.12-.51.16-1,.26-1.55a23.78,23.78,0,0,1,1-2.9Z"/><path d="M61.77,14.21a27.59,27.59,0,0,1,.08,3,11,11,0,0,0-.11,1.51,6.36,6.36,0,0,0,.3,1.49,13,13,0,0,1,.76,6h-.08a17.67,17.67,0,0,1-1.14-6,9.76,9.76,0,0,0-.11-1.53c-.09-.5-.26-1-.33-1.52a5.29,5.29,0,0,1,.55-3Z"/><path d="M63.81,35.05a14.21,14.21,0,0,1,1.06,3.21c.09.55.14,1.12.28,1.66a16.24,16.24,0,0,0,.57,1.61,10.72,10.72,0,0,1,.61,3.39,14.45,14.45,0,0,0,0,1.62,3.8,3.8,0,0,1,0,1.74h-.08a8.44,8.44,0,0,0-.52-1.59A6.89,6.89,0,0,1,65.42,45c0-1.12-.07-2.21-.16-3.32A6.63,6.63,0,0,0,64.89,40c-.21-.53-.5-1-.7-1.56a8.58,8.58,0,0,1-.46-3.38Z"/><path d="M57.58,13.92c0,.08-.1.09-.1.07s-.09,0-.06-.13a.2.2,0,0,1,.18-.1c.09,0,.11,0,.16,0l.24,0a.76.76,0,0,1,.42.09,1.39,1.39,0,0,0,.41.27.61.61,0,0,0,.45-.09A2.45,2.45,0,0,1,61,13.55l0,.06a1.27,1.27,0,0,1-1.77.84,1.11,1.11,0,0,0-.5-.09c-.16,0-.35.12-.53.15a.79.79,0,0,1-.78-.58Z"/><path d="M58.48,15.23c.15-.31.34-.44.57-.41s.25.15.36.16a.44.44,0,0,0,.3-.15c.37-.39.55-.46,1.18-.3l.06.06a.82.82,0,0,1-.41.72,1,1,0,0,1-.74,0,.4.4,0,0,0-.33,0c-.1.05-.18.19-.27.26s-.43.05-.7-.19Z"/><path d="M57.86,16.35c.27-.19.42-.25.55-.14s.11.21.18.25a.23.23,0,0,0,.25-.07c.33-.29.49-.34,1,.06l0,.07a.59.59,0,0,1-1,.34c-.09-.08-.17-.14-.26-.12s-.2.12-.31.16-.38-.14-.42-.48Z"/><path d="M61.09,27.33A4,4,0,0,1,61,29.86c-.17.39-.41.75-.57,1.13a5.53,5.53,0,0,0-.32,1.21,23.87,23.87,0,0,1-1.36,4.7h-.08a6.4,6.4,0,0,1,1-4.86,4.9,4.9,0,0,0,.49-1.13,8.58,8.58,0,0,0,.16-1.24A11.8,11.8,0,0,1,61,27.33Z"/><path d="M59.74,27.21a2.4,2.4,0,0,1-.07,1.55,4.66,4.66,0,0,0-.4.68,1.87,1.87,0,0,0-.1.75,3.86,3.86,0,0,1-.94,2.88l-.08,0a3.88,3.88,0,0,1,.57-3,2,2,0,0,0,.28-.7c0-.26,0-.53,0-.79a2.26,2.26,0,0,1,.68-1.39Z"/><path d="M7.89,66.05a8.11,8.11,0,0,0,1,1.68.9.9,0,0,0,.78.41c.32-.06.54-.36.88-.62a.93.93,0,0,1,.72-.19,1.35,1.35,0,0,1,.63.37,8.15,8.15,0,0,1,.8.75,7.38,7.38,0,0,1,1.2,1.87l-.06.06a7.4,7.4,0,0,1-1.8-1.3,9.17,9.17,0,0,1-.71-.83c-.24-.26-.23-.36-.58-.31s-.62.33-1,.47a1.6,1.6,0,0,1-1.28-.11,2,2,0,0,1-.67-2.23Z"/><path d="M25.5,85.16c.27-.86.65-1.58.79-2.29a2,2,0,0,0,0-1.17c-.11-.41-.33-.78-.45-1.24-.29-1,.35-1.93.61-2.59a5.13,5.13,0,0,0,.46-2.31l.07,0a2.87,2.87,0,0,1,.31,2.69c-.38.88-.93,1.43-1,2.19a2.73,2.73,0,0,0,.25,1.2A3.2,3.2,0,0,1,27,83a3,3,0,0,1-1.43,2.26Z"/><path d="M13.69,63.47a4.18,4.18,0,0,1,2.52,1.18c.63.8.78,1.77,1.32,2.47a3.71,3.71,0,0,0,.85.87,11.59,11.59,0,0,1,1.12.78,3.08,3.08,0,0,1,.88,2.72l-.08,0a5.25,5.25,0,0,0-1.39-2.05,13.4,13.4,0,0,1-1-.86,2.62,2.62,0,0,1-.76-1.27,5.71,5.71,0,0,0-.46-1.28,3,3,0,0,0-.92-.88c-.65-.5-1.38-1-2.08-1.62Z"/><path d="M37.15,87.34a5.68,5.68,0,0,0,.75-2.49,12.1,12.1,0,0,1,.26-1.44A6.74,6.74,0,0,0,38.3,82a8.49,8.49,0,0,0-.43-2.64,4.57,4.57,0,0,1,0-2.9H38a14.72,14.72,0,0,0,.78,2.66,4.76,4.76,0,0,1,0,2.94,6.16,6.16,0,0,0-.33,1.38,5.43,5.43,0,0,0,.17,1.38,2.2,2.2,0,0,1-.32,1.53,3.42,3.42,0,0,1-1.08,1Z"/><path d="M41.08,79.61A3.73,3.73,0,0,1,40.84,82c-.19.36-.44.7-.6,1.06A3.57,3.57,0,0,0,40,84.25a10.29,10.29,0,0,1-.11,1.2,2.27,2.27,0,0,1-.57,1.26,7.24,7.24,0,0,1-2.07,1.35L37.16,88a11.19,11.19,0,0,1,1.45-1.89c.44-.42.52-1.21.91-2A6.77,6.77,0,0,0,40,83c.1-.39.12-.8.19-1.2A11.45,11.45,0,0,1,41,79.6Z"/><path d="M28.85,42.55a8.6,8.6,0,0,1-1.78.62,3.81,3.81,0,0,0-.94.18,1.89,1.89,0,0,0-.73.59,11.82,11.82,0,0,0-1,1.47A9.45,9.45,0,0,0,23.53,47h-.09A2.49,2.49,0,0,1,23.59,45a3.35,3.35,0,0,1,1.52-1.39A8.34,8.34,0,0,0,26,43.1c.27-.18.53-.43.84-.6a2.47,2.47,0,0,1,2,0Z"/><path d="M30,37.27A3.6,3.6,0,0,1,32.42,37a11.07,11.07,0,0,1,1.17.49c.38.15.77.27,1.17.41a4.11,4.11,0,0,1,2,1.53,3.28,3.28,0,0,1,.53,2.48h-.08a9.2,9.2,0,0,0-1.19-2,9.8,9.8,0,0,0-1.53-1.64,2.6,2.6,0,0,0-1-.56,5.16,5.16,0,0,0-1.18-.05,15.31,15.31,0,0,1-2.34-.3Z"/><path d="M33.41,35a2.65,2.65,0,0,1,1.64.52c.22.2.4.46.61.64a4,4,0,0,0,.75.45,3.2,3.2,0,0,1,1.35,1.18c.33.57.3,1.05.66,1.5l0,.08c-.73,0-1.12-.75-1.4-1.09l-.88-1.32a1.81,1.81,0,0,0-.6-.57,5.59,5.59,0,0,0-.82-.26,3.06,3.06,0,0,1-1.32-1.05Z"/><path d="M39.19,69.62a4.4,4.4,0,0,1,2.64,1,5,5,0,0,1,.8,1.24,13.92,13.92,0,0,1,.59,1.3c.38.88.51,1.81.81,2.58A6.78,6.78,0,0,0,45.32,78l0,.07a3.46,3.46,0,0,1-2.1-2,9.29,9.29,0,0,1-.41-2.79,2.55,2.55,0,0,0-.38-1.27,3,3,0,0,0-1-.83,23.84,23.84,0,0,1-2.22-1.52Z"/><path d="M45.63,77.24a3.16,3.16,0,0,1-.22-1.57,2.53,2.53,0,0,0,.12-.77,1.2,1.2,0,0,0-.34-.68,14,14,0,0,1-1-1.15,3.35,3.35,0,0,1-.64-1.53l.07,0a5.15,5.15,0,0,1,1.28,1A3.29,3.29,0,0,1,45.61,74c.06.28.11.55.19.82s.25.52.32.8a2.15,2.15,0,0,1-.41,1.61Z"/><path d="M30.53,86.94c-.1-.77,0-1.43-.09-2a1.69,1.69,0,0,0-.23-1,4.64,4.64,0,0,1-.6-1A3.74,3.74,0,0,1,30,80.76a9.3,9.3,0,0,0,.45-2l.08,0A2.9,2.9,0,0,1,30.84,81a16.75,16.75,0,0,0-.77,1.88,1.24,1.24,0,0,0,.36.9,2.85,2.85,0,0,1,.7,1,2.52,2.52,0,0,1-.52,2.2Z"/><path d="M32.5,81.48c.21.25.34.14.27.21s-.13.15-.11.2.09,0,.12,0a.22.22,0,0,0,0-.22s.16.12.4-.06l.08,0a.44.44,0,0,1,.22.67.52.52,0,0,1-.73.09c-.11-.09-.15-.17-.24-.21a1.16,1.16,0,0,1-.35-.11.34.34,0,0,1,.3-.55Z"/><path d="M32.51,85.5a1.38,1.38,0,0,0-.22.29c0,.07-.09-.11-.21-.14l0-.19c0,.08.09.07.15,0s.09-.12.09-.16.06,0,.15,0a2.25,2.25,0,0,1,.37.16l0,.08a.53.53,0,0,1-.07.43.37.37,0,0,1-.35.19.49.49,0,0,1-.42-.21c-.1-.14-.12-.26-.25-.33h0l0-.2c0-.15.14-.4.32-.36a.36.36,0,0,1,.35.38Z"/><path d="M34.38,83.71a.78.78,0,0,1,.17.3c0,.07-.09,0-.2-.05l-.06-.31c0,.1,0,.06,0,0a.2.2,0,0,0-.09-.18c-.08-.07-.07.2.28.23l.08,0c.33.16.24.53,0,.52a.29.29,0,0,1-.28-.12c-.07-.1-.08-.15-.18-.08l-.07-.31c-.06-.1-.13-.21-.06-.18a.64.64,0,0,1,.31.15Z"/><path d="M34.68,80.89c.26.13.34.2.26.22s-.19,0-.23,0,0,0,.07.09c.26.18.27.27-.26.19l-.08,0c-.48-.24-.42-.31-.1-.3.07,0,.13,0,.11,0a1.22,1.22,0,0,0-.19-.13c0-.06.05-.07.34,0Z"/><path d="M34.6,85.78c-.1.3.2.33.13.24a.3.3,0,0,0-.18-.11s0,0,.07,0-.07-.29-.13-.26-.09.29.2.31h.09c.28.15.12.5-.06.56a.37.37,0,0,1-.48-.36c0-.12,0-.18,0-.24s-.12-.17-.11-.28.43-.24.46.1Z"/><path d="M27.17,85.41c.22-.23,0-.37.07-.28a.3.3,0,0,0,.14.17s0,0-.08-.06-.18.16-.15.17.21-.11.07-.36l0-.08a.35.35,0,0,1,.54-.26.4.4,0,0,1,0,.6c-.08.08-.15.1-.17.17s0,.21-.06.3-.48,0-.41-.3Z"/><path d="M27.9,82.64c.28-.08.39-.08.34,0s-.15.12-.16.15,0,0,.11,0c.31,0,.38,0-.06.33l-.07,0c-.52.14-.53,0-.29-.17.05,0,.09-.09.05-.1a1.12,1.12,0,0,0-.22,0c-.08,0,0-.09.23-.26Z"/><path d="M29.37,85.26a1.08,1.08,0,0,0-.31.11c-.06,0,0-.05.1-.17s0-.08,0,0a.14.14,0,0,0,.23.09l-.67-.53c0-.07,0-.09.11-.07a1,1,0,0,1,.35.11l.06,0a1.17,1.17,0,0,1,.21.31c0,.08,0,.12-.05.12l-.67-.53a.29.29,0,0,1,.44,0c.1.11.09.15.23.11s.24-.07.23,0,0,.2-.19.31Z"/><path d="M28.49,80.79c.21.22.39,0,.29,0a.32.32,0,0,0-.21,0s0,0,0-.09-.16-.23-.21-.18,0,.27.26.27h.09a.29.29,0,0,1,.14.49.31.31,0,0,1-.46-.15c0-.1,0-.16-.07-.18a.6.6,0,0,1-.26-.07c-.12-.11.08-.38.35-.21Z"/><path d="M28.79,78.18c.14.26.2.34.14.29a.7.7,0,0,0-.19-.1s0,0,.09,0,.14-.27.07-.29a.25.25,0,0,0-.19.08.16.16,0,0,0,.06.27l.07,0a.22.22,0,0,1-.07.35.35.35,0,0,1-.32.05.33.33,0,0,1-.08-.53c.07-.05.13-.07.12-.11s-.09-.15-.11-.23.14-.11.36.09Z"/><path d="M17.86,84.8c.25.24.37-.14.25-.07a.3.3,0,0,0-.12.17s0,0,0-.09a.28.28,0,0,0-.12-.18l.43.08.08,0c.21.19.25.33.2.47a.38.38,0,0,1-.48.06c-.1-.06-.15-.11-.21-.11s-.2.08-.31,0-.15-.59.21-.47Z"/><path d="M18.75,82.68a1.38,1.38,0,0,0-.25.24c0,.06,0-.16-.07-.23l.06-.27c0,.07.12,0,.21,0a.4.4,0,0,1,.21-.08c.11,0,.14.15.13.5l0,.08c-.21.25-.39.31-.48.21a.38.38,0,0,1-.1-.23c0-.12,0-.22-.1-.19l-.18,0,.24-.33c.07-.09.22-.29.32-.19a.32.32,0,0,1,.09.41Z"/><path d="M20.07,84c-.15.28-.06.38-.12.32s-.13-.14-.18-.14,0,.08,0,.12.21.08.21.08-.16,0-.26.32l-.05.07a.4.4,0,0,1-.58-.17.41.41,0,0,1,.26-.49c.1-.05.17-.06.2-.12a1,1,0,0,1,.06-.31c.11-.14.4-.07.45.24Z"/><path d="M20.66,85.91c.26.23.45-.06.2,0l-.39-.06c.12.1.18.1.16,0s-.07-.23,0-.27,0-.09.11-.06a1.17,1.17,0,0,1,.31.21l0,.07a.83.83,0,0,1,.11.36q0,.12-.09.09s-.15-.06-.24-.11-.09,0,0,.15h0l-.39-.06c-.33,0-.15-.5.19-.38Z"/><path d="M21.31,83.81c-.13-.26-.2-.32-.15-.27a.86.86,0,0,0,.17.13s0,0-.06-.08c-.22-.21-.3-.12.23,0l.08,0c.5.19.37.4.07.29-.07,0-.12,0-.11,0s.08.14.1.2-.11.07-.29-.16Z"/><path d="M20.2,81.29c.3-.05.26-.29.17-.24a.3.3,0,0,0-.09.2s0,0,0-.1-.11-.2-.18-.15,0,.28.29.27h.08a.27.27,0,0,1,.21.43.22.22,0,0,1-.35-.08c0-.07-.06-.12-.09-.1s-.1.14-.19.17-.23-.27.06-.38Z"/><path d="M20.19,79.17c.28.09.37.13.29.14a1.77,1.77,0,0,0-.22,0s0,0,.09,0c.28.11.31.17-.22.1l-.08,0c-.51-.16-.46-.2-.16-.18.08,0,.12,0,.1,0s-.14,0-.2-.08,0,0,.32,0Z"/><path d="M22.72,81.1c-.15.26,0,.37-.08.3s-.09-.17-.13-.18,0,0,0,.1.21.06.21,0-.17,0-.34.2l-.07.06a.34.34,0,0,1-.5-.19.35.35,0,0,1,.31-.37c.1,0,.16,0,.19-.06s0-.19.06-.27.35,0,.34.29Z"/><path d="M23.5,83.59a.75.75,0,0,1-.26,0l.38,0c0,.2,0,.31-.25.33s-.22.24-.1.4a.58.58,0,0,1,.09.36s-.08,0-.13,0a.16.16,0,0,0,0,.25l0,.08c-.06.17-.3.19-.46.11a.69.69,0,0,1-.3-.4.65.65,0,0,1,.21-.59c.2-.14.35-.23.26-.48s.09-.41.32-.44l.37,0v.06a.73.73,0,0,1-.07.25Z"/><path d="M14,82.22c.27-.1.39-.1.37,0l-.49-.1c.09.06.24.17.21.07s-.09-.23-.08-.27.08-.1.47,0l.07,0c.24.28.21.48,0,.48s-.22,0-.3-.06,0,.16,0,.29l-.49-.1c-.1,0-.06-.12.14-.34Z"/><path d="M13.85,79.25q.06-.42.09-.3c0,.06,0,.18,0,.21s0,0,0-.09c.06-.3.11-.33.13.2v.08c-.07.53-.12.49-.15.19,0-.08,0-.13,0-.1s0,.15,0,.21-.05,0-.05-.31Z"/><path d="M16,79c-.08.29.06.37,0,.3a.53.53,0,0,0-.15-.15s0,0,0,.1.21.09.21.06-.18-.06-.37.14l-.07,0a.33.33,0,0,1-.47-.21.28.28,0,0,1,.3-.28c.09,0,.15,0,.16,0a1.06,1.06,0,0,1,0-.27c.06-.13.32-.08.36.22Z"/><path d="M15.4,83.81c-.3-.13-.38.24-.22.25s.17-.1.19-.12,0,0,0,.1.1.24.22.18a.22.22,0,0,0-.16-.4h-.08a.23.23,0,0,1-.14-.42c.13-.06.23,0,.25.18s0,.12,0,.11.12-.12.2-.12.09.4-.21.28Z"/><path d="M40.59,88.14a4.49,4.49,0,0,1,.8-1.88,7,7,0,0,0,.65-.79,2.64,2.64,0,0,0,.31-1c.09-.69.15-1.26.27-2a4.15,4.15,0,0,1,.36-1,1.2,1.2,0,0,1,1-.6L44,81c-.52.47-.41,1.08-.49,1.74a4.92,4.92,0,0,1-.72,2,5.08,5.08,0,0,0-.5.91c-.12.32-.17.68-.29,1a3.64,3.64,0,0,1-1.34,1.58Z"/><path d="M61.74,82.47a3,3,0,0,1,.52,2.14,8.15,8.15,0,0,0-.19,1.06,2,2,0,0,0,.29,1,7.46,7.46,0,0,1,.53,1,2.38,2.38,0,0,1,0,1.24,7.78,7.78,0,0,1-1,2h-.09A6.79,6.79,0,0,1,62,88.72a2.7,2.7,0,0,0,.07-.89,6.79,6.79,0,0,1-.18-1c-.05-.38-.07-.75-.12-1.12s-.19-.72-.25-1.08a10.85,10.85,0,0,1,.11-2.12Z"/><path d="M4.06,79.67c.22-.19.3-.25.26-.19l-.14.17s0,0,.08-.05c.24-.19.28-.2-.08.19l-.06.06c-.4.34-.39.3-.19.07,0-.06.07-.09,0-.08L3.81,80c-.06,0,0,0,.19-.24Z"/><path d="M6,69c.22-.19.3-.25.26-.19L6.1,69s0,0,.08,0c.24-.19.29-.19-.08.19L6,69.2c-.4.34-.4.3-.2.07l.06-.08-.17.13c-.06,0,0,0,.19-.25Z"/><path d="M7,70.71c.27-.09.37-.11.31-.07l-.19.11s0,0,.1,0c.29-.09.34-.06-.13.18L7,71c-.5.17-.48.13-.22,0,.07,0,.1-.06.08-.06l-.21.06c-.07,0,0,0,.26-.18Z"/><path d="M8.63,71.4c.27.09.36.13.28.14a1.7,1.7,0,0,0-.21,0s0,0,.08,0c.28.11.31.17-.22.1l-.08,0c-.5-.16-.46-.2-.15-.18.07,0,.12,0,.1,0l-.21-.08c-.06,0,0,0,.32,0Z"/><path d="M8.69,73.12c.13-.25.12-.36.11-.29a.86.86,0,0,0,0,.22s0,0,0-.1c0-.31-.18-.28.15.15l0,.06c.24.49,0,.56-.14.25,0-.07,0-.11-.07-.09a1.65,1.65,0,0,1-.09.21c-.06.06-.12-.06,0-.33Z"/><path d="M15.12,72.64c.37.14.49,0,.46.25s.1.23.17.15,0-.21,0-.21l.42.48c0,.09.08.15,0,0s-.14-.09-.16,0a.14.14,0,0,0,.07.22l.06.06c0,.18-.21.3-.39.28a.51.51,0,0,1-.44-.43.55.55,0,0,1,.17-.54.6.6,0,0,1,.42-.19l.84,0-.41.49c-.16.19-.4.16-.53.19s-.26.09-.47.1a.39.39,0,0,1-.42-.27.49.49,0,0,1,.11-.49Z"/><path d="M17.36,75.17c-.15.28-.15.39-.19.31a1.14,1.14,0,0,0-.12-.22s0,.07.09,0,.11-.37-.11-.37,0,.17.21.31l.06.07c.11.24.07.45-.22.53a.43.43,0,0,1-.39-.68c.14-.14.22,0,.28-.13s.06-.16.12-.22.28,0,.29.31Z"/><path d="M17.71,73c.29-.12.16-.35.11-.23s0,.19.07.19,0,0-.09,0-.1.27.05.26.13-.26-.15-.3l-.09,0a.35.35,0,0,1,.26-.59c.34,0,.58.42.4.6s-.13.15-.15.23a.5.5,0,0,1-.13.35.29.29,0,0,1-.36-.43Z"/><path d="M18.82,73.76c0-.28-.13-.32-.13-.3a.28.28,0,0,0,.14.11c.07,0,.07,0,.05,0l.08.18A.22.22,0,0,0,19,74a.15.15,0,0,0,.14,0c.07,0,0-.31-.31-.19l-.08,0a.3.3,0,0,1-.23-.51.39.39,0,0,1,.3-.06c.11,0,.21.15.24.22l.09.18h0s-.05,0,0,.13.08.17,0,.22-.25.09-.38-.16Z"/><path d="M20.51,72.63c.06-.28.09-.37.08-.3l0,.21a.41.41,0,0,0,0-.09c.08-.29.09-.32,0,.19l0,.09c-.13.51-.13.47-.07.17,0-.07,0-.11,0-.09l-.06.21q0,.11.06-.3Z"/><path d="M21.07,69.92c-.23-.17-.31-.23-.24-.2l.19.1s0,0-.07-.07c-.24-.18-.26-.22.2,0l.07,0c.44.31.39.31.13.17-.07,0-.11,0-.09,0l.17.13c.05.05,0,0-.29-.14Z"/><path d="M21.75,71.64a.57.57,0,0,0,.31,0c.05,0,0-.07-.09,0s-.07.16-.07.1,0-.12-.22,0h0l.05.24a.19.19,0,0,0,.14.2.14.14,0,0,0,.15,0A.22.22,0,0,0,22,72a.16.16,0,0,0-.21-.11h-.09a.26.26,0,0,1-.15-.28.48.48,0,0,1,.17-.27.47.47,0,0,1,.32,0,.38.38,0,0,1,.3.31l.05.24,0,0a.47.47,0,0,1-.41.17c-.09,0-.14,0-.33,0a.2.2,0,0,1-.25-.22c0-.11.1-.2.28-.25Z"/><path d="M22.87,70.07c.25-.14.34-.19.28-.14l-.17.13s0,0,.09,0c.26-.14.31-.14-.13.16l-.07,0c-.46.26-.44.22-.2,0,.06,0,.1-.07.07-.06l-.19.1c-.06,0,0,0,.25-.2Z"/><path d="M23.1,71.82c-.09.16.13.21.18.19s.11-.09,0-.18-.19.06-.18.08.05,0,.06-.09c0-.33-.09-.27.45-.11l.07.05c.34.48-.09.79-.45.52a.37.37,0,0,0-.21-.1c-.08,0-.24.09-.4-.1a.32.32,0,0,1,.08-.44c.09-.1.42-.11.41.1Z"/><path d="M24.55,71.53c0-.29-.07-.37,0-.3a.61.61,0,0,0,.11.18s0,0,0-.09c-.19-.26-.33-.06.21,0l.09,0c.52.19.31.51,0,.34-.07,0-.11-.06-.12,0s0,.17,0,.24-.19,0-.24-.26Z"/><path d="M16.11,59.4a.59.59,0,0,0,.21.23s.07,0,0,.06l-.45-.22c.06.05.16.12.21.09s0-.1,0-.19-.11-.21-.09-.26l.38.54c.11,0,.1-.23-.19-.25l-.08,0c-.21-.25,0-.63.4-.61l.47,0-.09.52a.5.5,0,0,1-.4.39.41.41,0,0,0-.25.07c0,.05,0,.18-.09.28l-.05.11-.4-.32a.26.26,0,0,1,0-.35.37.37,0,0,1,.39-.13Z"/><path d="M17.16,61c.24.22.42,0,.23,0s-.18.12-.15.1.06-.1,0-.19L17,61c-.07-.08-.14-.12-.1-.1a1.08,1.08,0,0,0,.42,0h.08c.24.09.29.2.3.31s-.11.15-.22.15l-.26.11c-.1-.09-.11-.21-.14-.24s-.14,0-.26,0-.05-.45.27-.32Z"/><path d="M18.57,60.81a1.82,1.82,0,0,1-.07.32s0,0-.06-.09-.08-.15-.09-.1,0,.1,0,.23l-.21-.73c0-.2-.07,0,.28.21l.06.07c.21.33.05.57-.13.45l-.21-.73c.07.12.12.2.16.21s.06,0,.08-.13.06-.15.1-.1a.49.49,0,0,1,.1.3Z"/><path d="M17.71,58.66c.05.28.07.38,0,.31l-.06-.21s0,0,0,.1c.05.3.05.33-.1-.17l0-.09c-.11-.51-.08-.48,0-.19l0,.09,0-.22c0-.07,0,0,.1.3Z"/><path d="M17.29,58.3c-.29,0-.39,0-.33-.1s.17-.08.2-.11,0-.05-.11-.06c-.31-.06-.36-.15.14-.34h.09c.53,0,.52.12.24.27-.07,0-.12.07-.09.1l.23,0c.08,0,0,.11-.29.21Z"/><path d="M18,56.3c.15-.27.09-.38.1-.3a.32.32,0,0,0,.12.17s0-.05-.07-.06-.2.25,0,.29.25-.31-.05-.32h-.08c-.31-.19,0-.62.29-.57s.48.55.27.67-.15.09-.17.16a1,1,0,0,1-.07.31c-.15.14-.37,0-.39-.27Z"/><path d="M19.16,57.5c.23.18.3.25.22.23l-.2-.08s0,0,.06.08c.23.2.24.26-.24,0l-.07,0c-.43-.32-.37-.34-.09-.23.07,0,.12,0,.1,0s-.12-.11-.16-.15,0,0,.3.1Z"/><path d="M18.78,58.9c.15.24.2.32.15.27L18.81,59l.05.08c.15.27.16.3-.13-.14l-.05-.07c-.27-.45-.24-.43-.07-.18,0,.06.07.1.05.08l-.1-.19.18.25Z"/><path d="M18.84,52.65c.06-.29-.08-.37-.06-.29a.4.4,0,0,0,.11.18s0,0-.06-.07-.21-.08-.22,0,.15.12.4,0l.08,0c.27-.06.4.09.42.21s-.13.19-.31.15-.12,0-.13,0a.56.56,0,0,1,0,.24c0,.11-.25,0-.27-.25Z"/><path d="M20.23,53.14a.72.72,0,0,1,.06.33c0,.06,0,.1-.14,0l.1-.36c-.14,0-.13.15-.07.08s.08-.21.06-.22c0-.16-.15.14.24.22l.08,0c.32.3,0,.71-.28.57s-.22-.16-.25-.28-.11-.1-.3-.15l.1-.36c0-.13,0-.14.07-.13a.69.69,0,0,1,.28.18Z"/><path d="M20.75,53c0-.29,0-.4.1-.34s.09.17.13.19.05,0,.06-.11c.05-.32.15-.38.37.12l0,.08c0,.54-.12.53-.29.26,0-.07-.08-.11-.11-.08a1.29,1.29,0,0,0,0,.23c0,.08-.12,0-.23-.27Z"/><path d="M21.18,54.74c.11.3.35.18.26.12a.28.28,0,0,0-.22,0,.2.2,0,0,0,.05-.09c0-.18-.15-.25-.2-.2s0,.29.25.27h.09a.3.3,0,0,1,.1.52.34.34,0,0,1-.5-.2c0-.1,0-.17,0-.2a.63.63,0,0,1-.24-.16c-.08-.16.22-.38.42-.13Z"/><path d="M22.55,53.93l-.3-.08.22,0-.1,0c-.29-.08-.32-.09.19,0h.09c.51.13.47.13.18.07l-.1,0,.21.06-.3-.06Z"/><path d="M21.92,55.9c-.06.17.16.21.25.14s.1-.12,0-.15a.29.29,0,0,0-.23,0s0,0-.07-.12a.17.17,0,0,0-.28-.05c0,.06.12.14.39.09h.08c.28,0,.36.19.34.33a.32.32,0,0,1-.47.1.7.7,0,0,0-.18-.15c-.06,0-.21,0-.28-.1s0-.18.06-.27.37-.1.36.09Z"/><path d="M28.74,63.67a3.24,3.24,0,0,1,.94,2.3,3.63,3.63,0,0,1-.45,1.23,3.78,3.78,0,0,1-.75,1A1.4,1.4,0,0,0,28,69c0,.28.08.65.06,1.12a1.59,1.59,0,0,1-.72,1.28,3.46,3.46,0,0,0-.94.67l-.08,0a2,2,0,0,1,.56-1.14,1,1,0,0,0,.27-.81,5.21,5.21,0,0,1,.06-1.26,1.54,1.54,0,0,1,1-1,1.37,1.37,0,0,0,.78-.77A2.27,2.27,0,0,0,29,66c-.09-.7-.27-1.43-.31-2.29Z"/><path d="M28.66,70.7c.08-.3-.1-.37-.07-.26a.14.14,0,0,0,.2,0s-.05,0-.07.05.29.26.34-.07-.49-.14-.27,0l.07,0c.1.37-.63.52-.71-.12s.6-.6.79-.32.07.22.12.29.18.18.16.35a.29.29,0,0,1-.56,0Z"/><path d="M29.86,68.28c-.28-.07-.37-.1-.3-.09l.21,0s0,0-.09,0c-.29-.08-.32-.09.19,0l.09,0c.51.12.47.12.18.06H30l.21,0-.31-.06Z"/><path d="M30.25,70.23a1.07,1.07,0,0,1,.1-.55c0-.13.32-.11.45-.21s-.06-.24-.16-.16a.7.7,0,0,1-.31,0l-1.15-.39,1-.43a1.08,1.08,0,0,1,.78,0l.05.07a1.08,1.08,0,0,1-.34.71l-.11-.82a.91.91,0,0,1,.53.44.84.84,0,0,1-.09.74c0,.19.05.47-.12.59a.62.62,0,0,1-.61.12Z"/><path d="M31.88,62.46a3.17,3.17,0,0,0,.05,1.3,1,1,0,0,0,.24.63c.17.18.49.18.72.55a1.2,1.2,0,0,1,.06.55c0,.13,0,.26,0,.4a5.27,5.27,0,0,1-.16.77,4,4,0,0,1-.82,1.4l-.08,0a4.05,4.05,0,0,1,0-1.63,7.25,7.25,0,0,1,.26-.74c0-.12.11-.24.17-.36s.11-.16.14-.23c.05-.38-.8-.5-1.16-1a1.15,1.15,0,0,1,.54-1.63Z"/><path d="M33.25,67c.32-.09.12-.38.08-.26a.29.29,0,0,0,0,.21s0,0-.06-.07a.26.26,0,0,0-.21-.05l.41-.1h.08c.27,0,.38.11.41.22a.3.3,0,0,1-.33.23c-.09,0-.15,0-.18,0s0,.18-.14.25-.45-.23-.16-.43Z"/><path d="M29.51,53.22a3.32,3.32,0,0,1,1.85,0c.27.13.56.25.88.44s.44.54.64.75c.34.4.8.35,1.48.74a1.29,1.29,0,0,1,.59,1,7.7,7.7,0,0,0-.07.91l-.06,0c-.32-.2-.41-.61-.53-.83s-.21-.28-.41-.4-.47-.24-.76-.42a1.37,1.37,0,0,1-.66-.88c-.07-.31-.13-.61-.36-.72a3.65,3.65,0,0,0-.87,0,3.27,3.27,0,0,1-1.73-.63Z"/><path d="M27.55,48.26c.18-.21.25-.28.21-.22l-.12.17s0,0,.07-.06c.2-.23.24-.24-.08.18l-.06.07c-.34.39-.34.35-.16.11.05-.06.07-.1.05-.08l-.15.16s0,0,.18-.26Z"/><path d="M24.62,49.17c.29,0,.4,0,.34,0a.45.45,0,0,0-.15.16s.05,0,.06-.07-.13-.25-.25-.07.14.19.35,0l.08,0c.26,0,.48.1.37.45s-.56.28-.65.08-.08-.15-.14-.17a1.57,1.57,0,0,1-.29,0c-.13-.1-.06-.24.19-.38Z"/><path d="M26.26,49.52c.28.08.37.12.3.11l-.22,0s0,0,.09,0c.29.1.31.14-.21.05h-.08c-.51-.15-.47-.18-.17-.14.08,0,.12,0,.1,0l-.2-.07c-.07,0,0,0,.31,0Z"/><path d="M25.37,50.74c.16.28.4.07.29,0a.29.29,0,0,0-.21,0s0,0,.06-.08a.24.24,0,0,0,0-.22,1.64,1.64,0,0,0,0,.42V51c-.06.27-.12.36-.21.38s-.18-.12-.14-.31,0-.14,0-.16a.52.52,0,0,1-.24-.08c-.12-.12.15-.4.37-.16Z"/><path d="M23.16,43.29c-.11-.33-.24-.36-.17-.46s.14-.16.1-.24-.14,0-.14,0,.08.25.08.18-.15-.11-.18,0A.14.14,0,0,0,23,43l.07,0c.08.2-.18.41-.4.39a.57.57,0,0,1-.53-.49.65.65,0,0,1,.73-.74,1.1,1.1,0,0,1,.42.22.92.92,0,0,1,.4.28.47.47,0,0,1-.46.68Z"/><path d="M24.4,42.55a.33.33,0,0,1-.29-.42l.65.37c0-.1-.29-.1-.21,0s.23,0,.2-.11-.07-.12-.08,0,0,.18.24.26l.07,0a.37.37,0,0,1-.14.52A.43.43,0,0,1,24.3,43c-.16-.16,0-.4,0-.5s-.19-.26-.1-.48l.13-.33.52.69s-.05,0-.34.14Z"/><path d="M25.62,41c.24.08.3.12.32.16s-.05.05-.26.05L25.53,41c0-.17,0-.26-.09-.29s0,.13.33.22l.08,0c.26.19.24.43.12.48a.39.39,0,0,1-.42-.17l-.08-.14-.06,0c-.2-.07-.24-.11-.22-.14s.1,0,.35,0Z"/><path d="M31,42.62c.17-.22.25-.29.22-.22s-.08.17-.09.2,0,0,.08-.06c.2-.23.26-.24,0,.23l0,.07c-.33.41-.35.36-.21.08,0-.06.05-.11,0-.1l-.14.17c-.06,0,0-.05.12-.3Z"/><path d="M31.07,44.08c-.25.17-.19.34-.14.24s0-.2-.06-.2,0,0,.09,0,0-.24,0-.22.06.13.24.35l0,.08c0,.28-.07.43-.28.47s-.51-.23-.43-.48a2.65,2.65,0,0,0,.08-.29.5.5,0,0,1,.15-.37c.23-.13.48.1.36.39Z"/><path d="M32.54,42.39c0-.28.07-.37.09-.3s0,.18,0,.21,0,0,.05-.09c.06-.3.11-.33.13.2v.09c-.08.52-.13.48-.16.18,0-.08,0-.12,0-.1s0,.15,0,.22-.05,0-.05-.32Z"/><path d="M32.72,44.85c-.06.27-.09.37-.08.3l0-.21a.41.41,0,0,0,0,.09c-.08.29-.09.32,0-.19l0-.09c.12-.51.12-.47.06-.18,0,.08,0,.12,0,.1l.06-.21c0-.07,0,0-.06.3Z"/><path d="M33.13,29.86a2.21,2.21,0,0,1-1.24,1c-.27.06-.57,0-.83.09a5.49,5.49,0,0,0-.78.26,8.4,8.4,0,0,1-1.48.37,3,3,0,0,0-1.31.41l-.08,0a1.51,1.51,0,0,1,1.19-1.27,4,4,0,0,1,1.63.06,1.24,1.24,0,0,0,.74-.06,3.26,3.26,0,0,0,.62-.47,2.86,2.86,0,0,1,1.49-.47Z"/><path d="M27.82,33.81c.14-.33-.16-.39.07-.25s.14-.15-.07,0h0l.64.09c.18,0,.13-.21.08-.21s-.24,0-.21.27v.08c-.12.25-.44.16-.57,0a.44.44,0,0,1,.11-.66l.9-.46-.26.55,0,0c-.12.35-.28.31-.17.61s-.42.37-.5,0Z"/><path d="M29.69,33.29c.24.16.31.22.24.19l-.19-.09s0,0,.07.06c.25.18.26.22-.2,0l-.07-.05c-.44-.29-.4-.3-.13-.16.07,0,.11,0,.09,0l-.17-.13c-.06,0,0,0,.29.13Z"/><path d="M29.29,34.64l-.29.27.46-.24c-.18-.14-.23-.06-.22,0s.18-.12.14-.19,0-.11,0-.05.11.13.24.34l0,.08a.51.51,0,0,1-.12.43c-.09.09-.23,0-.35-.06s-.1-.34-.16-.39a1.17,1.17,0,0,1-.29-.38h0l.4-.42.06.18.11.38Z"/><path d="M30.32,33.37c.29,0,.35-.14.27-.11a.45.45,0,0,0-.16.14s0,0,.07-.07,0-.22,0-.22-.1.18.1.38l.05.07a.3.3,0,0,1-.11.46.24.24,0,0,1-.23-.27c0-.08,0-.13,0-.13s-.15.07-.24.06-.09-.27.21-.31Z"/><path d="M28.15,29.86a.59.59,0,0,1,.68-.38c.12.07.22.2.33.24a.48.48,0,0,0,.34-.07,1,1,0,0,1,1.29.21v.08a.83.83,0,0,1-1.35.18.41.41,0,0,0-.31-.13,1.94,1.94,0,0,0-.33.2c-.2.07-.36,0-.63-.25Z"/><path d="M32.15,32.59c.19-.24.18-.35.19-.25a.29.29,0,0,0,0,.21s0,0-.08,0-.28.31.08.4c.54-.07.23-.58,0-.35l0,.08c-.34.17-.56-.58.12-.63.5.11.47.59.22.72s-.18,0-.22.08-.08.19-.17.24-.25-.09-.19-.37Z"/><path d="M33.57,31.49c0,.29.12.36.1.28a.39.39,0,0,0-.15-.16s0,0,.07.06.22,0,.22,0-.17-.09-.38.08l-.08,0c-.26.11-.41,0-.45-.14a.23.23,0,0,1,.28-.21c.09,0,.14,0,.14,0a.7.7,0,0,1-.06-.24c0-.12.26-.08.31.21Z"/><path d="M33.47,33.4c-.27-.1-.33-.21-.25-.22a1.17,1.17,0,0,1,.21.08s0,0,0-.09c-.17-.28.06-.43.23.08l0,.08c.12.53.29.4.08.17l-.07-.06a.7.7,0,0,0,.18.11c.07,0,0-.06-.28-.13Z"/><path d="M34.52,33.88a.89.89,0,0,0,0,.31c0,.05,0,0,0-.09s-.08-.14-.07-.09,0,.09.12.19h0l0-.56c.1-.06.09,0,.09,0a1.35,1.35,0,0,1-.22.33l-.06.06a1.58,1.58,0,0,1-.34.2s-.09,0,0-.09l0-.56h0c.13.07.2.12.24.11s.06,0,.06-.15.07-.16.13-.11a.41.41,0,0,1,.1.32Z"/><path d="M35.62,34.55c.29,0,.38-.07.32,0l-.18.12s0,0,.1,0c.28-.15.2-.25,0,.25l0,.08c-.34.42-.53.22-.34-.05,0-.06.07-.11,0-.11s-.16,0-.24,0,0-.14.25-.24Z"/><path d="M37.25,35c-.24.17-.33.23-.32.15A1.38,1.38,0,0,0,37,35s0,0-.11,0c-.25.2-.29.21-.14-.33l0-.07c.32-.42.45-.29.37,0,0,.08,0,.13,0,.13s.14-.09.21-.12.09.1-.08.33Z"/><path d="M36,32.77c0-.31-.15-.34-.08-.29a.28.28,0,0,0,.21,0s0-.06-.1,0-.2.18,0,.19.1-.1.09-.17-.11-.27-.22-.13l-.06.07c-.2.07-.28-.28-.21-.39a.44.44,0,0,1,.34-.29c.39,0,.51.26.47.48s-.05.18,0,.25.14.19.14.31a.28.28,0,0,1-.53,0Z"/><path d="M37.71,32.64c.09.28.13.38.07.33a.54.54,0,0,0-.19-.11s0,0,.07.07.23-.1.19-.15-.33,0-.25.28l0,.08c0,.32-.45.27-.54.12a.33.33,0,0,1,.14-.48c.09,0,.15,0,.15-.09s-.06-.17-.06-.25.16-.08.35.13Z"/><path d="M38.36,34.07a.32.32,0,0,1-.43.45.51.51,0,0,1-.14-.39c0-.1-.07-.16-.11-.29s.25-.66.62-.52.39.57.07.7h-.08c-.27-.1-.36.13-.26.18s.3-.19.1-.21S38,34,38,34s.12-.11.1-.18-.17.12.14.2Z"/><path d="M37.9,31.1c-.31-.05-.31.18-.29.07a.2.2,0,0,0,0-.21s-.09,0-.12.11-.18.3-.12.27a.21.21,0,0,0,0-.21s-.21-.07-.23.08l0,.09c-.14.12-.36-.05-.4-.2a.52.52,0,0,1,.15-.5.4.4,0,0,1,.53,0c.09.05.16.09.23.06s.17-.15.3-.17a.32.32,0,0,1,.13.59Z"/><path d="M35.67,29.6q.21.36.15.27l-.12-.18s0,0,0,.09c.15.26.16.3-.13-.15l0-.07c-.27-.45-.24-.42-.07-.18,0,.07.07.1.06.08l-.11-.19c0-.06,0,0,.18.26Z"/><path d="M39.55,78.13c-.21-.19-.28-.26-.22-.22l.17.13s0,0-.06-.07c-.22-.21-.24-.24.18.08l.06,0c.4.35.36.34.12.16l-.08-.05.16.15s0,0-.26-.18Z"/><path d="M36.72,74.84c0-.31-.13-.36-.08-.3a.25.25,0,0,0,.21,0s0,0-.1,0,.1.33.29.1-.21-.35-.3-.07l0,.09c-.11.13-.34,0-.41-.09a.44.44,0,0,1,0-.46c.3-.41.83-.14.79.11s0,.2,0,.27.15.19.15.33-.35.3-.53,0Z"/><path d="M37.84,73.13c.29,0,.37-.08.32,0a.39.39,0,0,0-.16.15s0,0,.1,0c.26-.2.09-.3.11.25v.08c-.18.53-.54.34-.42,0,0-.08,0-.13,0-.14a1.42,1.42,0,0,1-.24,0c-.11,0-.06-.21.21-.31Z"/><path d="M38.68,74.73c.11.31.41.18.22.08l-.14-.25c-.08.12-.08.22,0,.14a.43.43,0,0,0,.05-.24c0-.13-.1.05.18.31l0,.07c.17.34,0,.56-.2.44s-.14-.16-.16-.26-.08,0-.22.06l-.14-.25c-.2-.21.17-.45.37-.18Z"/><path d="M39.42,73.11l-.3-.08.21,0-.09,0c-.3-.07-.33-.08.19,0l.08,0c.51.13.48.13.18.07l-.09,0,.21.06-.31-.06Z"/><path d="M39.68,73.38c.27-.09.38-.09.35,0s-.14.13-.15.17,0,0,.12,0c.31-.06.4,0,0,.37l-.08,0c-.51.17-.53,0-.32-.18,0-.06.08-.11,0-.12s-.16,0-.23,0,0-.1.19-.29Z"/><path d="M42.59,88a1,1,0,0,1-.51.7l-.4.26v-.59a1.7,1.7,0,0,1,1-1.52c.53-.27,1.16-.55,1.27-1s.1-.93.28-1.55a1.85,1.85,0,0,1,1.33-1.31l0,.07a3.84,3.84,0,0,0-.53,1.45,3.1,3.1,0,0,1-.61,1.71c-.58.52-1.23.38-1.51.93s-.48.88-.74,1.33l-.4-.33a2.32,2.32,0,0,0,.66-.22Z"/><path d="M43.61,89.75c.31-.11.38-.17.48-.11a1,1,0,0,0,.17.22c.07,0,.14,0,.19-.07a2,2,0,0,0,.11-.37.29.29,0,0,0,0,.19c.13.18.29.11.35-.08l-.31-.24.19,0,.06.06a.65.65,0,0,1,0,.19l-.3-.24a.4.4,0,0,1,.74,0,.57.57,0,0,1-.1.64.65.65,0,0,1-.7.15.36.36,0,0,0-.29,0,.92.92,0,0,1-.32.18.44.44,0,0,1-.4-.55Z"/><path d="M46.07,88.79c.17.22.22.32.14.3L46,89s0,0,0,.11c.16.26.13.34-.3,0L45.69,89c-.32-.42-.24-.45,0-.29.06,0,.11.06.1,0a1.3,1.3,0,0,0-.11-.19c0-.08.07,0,.3.14Z"/><path d="M45.44,91a1.37,1.37,0,0,1-.32-.22c-.07,0,.06-.13.12-.26l.27,0c-.07,0,0,0,.09,0s.11-.12,0-.16,0,0,0,0l.37.17,0,.06a.53.53,0,0,1-.09.46.41.41,0,0,1-.47.14.46.46,0,0,1-.39-.45,1.41,1.41,0,0,1,.12-.5v0l.26.08c.14,0,.34.14.3.29a.42.42,0,0,1-.32.35Z"/><path d="M46.85,88.91c.18.29.42-.08.27-.06a.25.25,0,0,0-.19.1s0,0,0-.1-.11-.2-.11-.2.1.1.31.28l.06.06c.15.23.16.35.09.44a.28.28,0,0,1-.38-.12c-.06-.08-.09-.14-.13-.15a.68.68,0,0,1-.28,0,.2.2,0,0,1,0-.27.21.21,0,0,1,.35,0Z"/><path d="M47.12,87.26c.18-.22.25-.29.23-.22a1.85,1.85,0,0,0-.1.2s0,0,.08-.06c.21-.23.26-.23,0,.23l0,.07c-.33.41-.35.35-.21.08,0-.06,0-.11,0-.1a1.38,1.38,0,0,0-.15.17c-.06,0,0,0,.12-.3Z"/><path d="M47.28,91c.31,0,.33-.2.25-.16a.29.29,0,0,0-.12.18s0,0,0-.09,0-.22-.08-.21,0,.23.21.33l.08,0a.3.3,0,0,1,0,.49.24.24,0,0,1-.32-.19c0-.08,0-.13-.08-.12s-.14.1-.22.11-.16-.29.13-.37Z"/><path d="M49.08,89.49c-.06.28-.09.37-.08.3l0-.21a.41.41,0,0,0,0,.09c-.08.29-.09.32,0-.19l0-.09c.13-.51.13-.47.07-.18,0,.08,0,.12,0,.1l.06-.21q0-.1-.06.3Z"/><path d="M51.31,85.32c.35,0,.1-.41,0-.22s.08.17.12.16,0-.06,0-.1-.26,0-.14.16.38-.11.15-.29l-.07,0c-.13-.33.35-.52.58-.29s.11.55-.08.61-.15.06-.16.12,0,.21-.06.32c-.26.27-.73-.24-.36-.43Z"/><path d="M53.18,91.26c.32,0,.26-.26.22-.16a.22.22,0,0,0,0,.21s0,0,0-.08-.21,0-.21-.12a.59.59,0,0,1,.41-.31h.08c.26.11.37.12.42.24a.45.45,0,0,1-.29.42.71.71,0,0,0-.26.09c0,.06-.13.19-.25.23s-.45-.31-.16-.51Z"/><path d="M54.46,88.7c.11-.26.13-.36.12-.29a.52.52,0,0,0,0,.22s0,0,0-.09-.26-.08-.28,0a.22.22,0,0,0,.39.07l0-.07c.24-.2.47.11.43.26a.27.27,0,0,1-.4.15c-.07,0-.1-.09-.13-.06a1.71,1.71,0,0,1-.09.22c-.09.06-.13-.05-.09-.33Z"/><path d="M54.61,91.26c.12-.26.17-.34.16-.27l-.05.21s0,0,.05-.08c.13-.28.18-.3,0,.21l0,.08c-.21.49-.23.44-.16.15,0-.07,0-.12,0-.1l-.1.19c0,.06,0,0,.06-.31Z"/><path d="M55.58,89.51c0-.28,0-.38.08-.32s.06.18.08.21,0,0,0-.1c0-.31.12-.35.25.17v.09c0,.53-.1.5-.2.21,0-.07,0-.12-.07-.09s0,.16,0,.22-.08,0-.14-.3Z"/><path d="M55.56,89.37c0-.29,0-.39.07-.33a1.71,1.71,0,0,0,.07.21s0,0,0-.1c0-.31.09-.35.23.17v.08c0,.53-.08.51-.18.22,0-.08,0-.12-.06-.09a1.06,1.06,0,0,0,0,.22c0,.07-.07,0-.14-.3Z"/><path d="M57.42,88.91l.19.36-.53-.52c.1.19.18.15.22.11s-.21-.11-.24,0-.06.12,0,.07.09-.14,0-.37l0-.08a.37.37,0,0,1,.44-.28c.19,0,.28.23.29.41s-.22.31-.24.39l-.07.46L57,88.89l.4,0Z"/><path d="M55.83,86.65c.23-.19,0-.37,0-.29a.21.21,0,0,0,0,.2s0,0,0,0l.06.17a.85.85,0,0,1-.18.1c-.05,0-.07,0,0,.07s.3.09.44-.28-.17-.3-.19-.28a.33.33,0,0,0-.12.05c-.09,0-.06.18,0,.14l.08,0c.06,0,.09.12,0,.16a.29.29,0,0,1-.15.05s-.28,0-.23-.34a.43.43,0,0,1,.57-.31.16.16,0,0,1,.12.16,1.36,1.36,0,0,1-.06.2l.07.17c-.07.06-.11.08-.11.16a.37.37,0,0,1-.06.27c-.13.1-.44-.09-.27-.36Z"/><path d="M56.79,84.53c.22-.18.26-.32.1-.24a.2.2,0,0,0,0,.26s0,0,0,.12.33.24.35.09-.11-.18-.36-.06l-.08,0c-.28,0-.42-.21-.33-.45a.47.47,0,0,1,.4-.21.29.29,0,0,1,.3.23,1.77,1.77,0,0,1,0,.3A.37.37,0,0,1,57,85c-.29.09-.37-.13-.26-.39Z"/><path d="M57.49,85.79c.1.29.28.23.19.22a.25.25,0,0,0-.2,0s0,0,.09,0,0-.23,0-.22,0,.21.25.29l.08,0a.36.36,0,0,1-.17.57.4.4,0,0,1-.48-.35c0-.11,0-.18,0-.24S57,86,57,85.92s.21-.41.47-.21Z"/><path d="M64.36,85.32a2.47,2.47,0,0,1,.4,1.65c-.07.29-.2.56-.27.83a4.8,4.8,0,0,0-.08.85,2.54,2.54,0,0,1-.68,1.67,5.33,5.33,0,0,1-1.46.87l-.07,0a3.58,3.58,0,0,1,.87-1.44A8.86,8.86,0,0,0,64,88.52a1.5,1.5,0,0,0,.26-.75,3.77,3.77,0,0,0-.17-.81,3.05,3.05,0,0,1,.22-1.63Z"/><path d="M67.43,81.1c.27.13.38,0,.29,0a.35.35,0,0,0-.18.11s0,0,.06-.07,0-.24-.09-.22,0,.2.21.33l.07.05a.3.3,0,0,1,0,.49.28.28,0,0,1-.37-.23c0-.09,0-.15-.06-.16s-.19,0-.27,0,0-.32.28-.29Z"/><path d="M68.94,83.58c.07-.28.09-.37.08-.3l0,.21s0,0,0-.09c.07-.29.09-.32,0,.19l0,.09c-.12.51-.12.47-.06.17,0-.07,0-.11,0-.09l0,.21c0,.07,0,0,0-.31Z"/><path d="M70,82.57a1,1,0,0,1,.27.2s-.07,0-.18,0l-.24-.28c0,.11.07.06.06,0a1,1,0,0,1,0-.22s0,0,.09,0a1.34,1.34,0,0,1,.16.31l0,.08a1.44,1.44,0,0,1,0,.35q0,.12-.06.06a.45.45,0,0,1-.12-.17c-.06-.09-.09-.13-.08,0l-.24-.27c-.1-.07-.19-.14-.12-.14a1.43,1.43,0,0,1,.32.06Z"/><path d="M70.44,81.13a.1.1,0,1,0,.13-.15c-.11-.07-.17,0-.14,0s.41,0,.32-.13a.21.21,0,0,0-.27-.09c-.06.06,0,0,0-.11l-.06-.6a1.27,1.27,0,0,1,.17.31l0,.08a1,1,0,0,1-.27.22L68.09,82l2.17-2a.57.57,0,0,1,.79.83c-.15.13,0,.41-.12.64a.46.46,0,0,1-.53.09c-.25-.12-.25-.47,0-.5Z"/><path d="M70.58,78.57c.15.27.33.18.25.15a.32.32,0,0,0-.21,0s0,0,.08,0,0-.24,0-.23-.07.22.2.32l.07,0a.33.33,0,0,1-.12.54.34.34,0,0,1-.41-.32c0-.11,0-.17,0-.21s-.19-.08-.24-.16.16-.38.41-.19Z"/><path d="M68.15,86c.29,0,.37-.07.31,0a.51.51,0,0,0-.18.12s0,0,.09,0,.13-.18.11-.18-.09.12,0,.4v.08c0,.27-.19.36-.29.36s-.15-.15-.09-.32,0-.12,0-.13-.17,0-.24,0,0-.22.25-.27Z"/><path d="M67.54,88.87c-.35-.14-.43-.29-.43-.39s0-.21,0-.26-.15,0-.12.12.15,0,.14,0,0-.09,0-.09.09.15.43.18l.06.06a.58.58,0,0,1-.72.64.71.71,0,0,1-.5-.48.49.49,0,0,1,.3-.62,1.36,1.36,0,0,1,.48,0,1,1,0,0,1,.51.09c.28.25.17.56,0,.82Z"/><path d="M67.83,90.57c0,.3.16.36.06.29s-.17-.09-.19-.07,0,.07.11.08l-.21-.29c.07-.12.07-.19.09-.17a2.28,2.28,0,0,0,.24.35l0,.07c.06.27,0,.41-.15.47a.28.28,0,0,1-.32-.19l-.21-.29c.1-.06.16-.09.17-.13s-.07-.16-.08-.26.27-.21.43.06Z"/><path d="M69,89c-.16-.24-.21-.33-.15-.28l.16.15s0,0,0-.1c-.16-.25-.15-.31.21.08l0,.07c.3.43.25.43,0,.22-.06-.05-.09-.08-.09-.06l.12.19q0,.1-.24-.21Z"/><path d="M69.22,90.74c.28.11.38,0,.29,0a.41.41,0,0,0-.18.12s0,0,0-.08-.07-.22-.11-.2,0,.21.25.29l.07,0a.32.32,0,0,1,0,.51.31.31,0,0,1-.41-.19c0-.09,0-.15-.08-.15s-.18,0-.27,0,0-.33.26-.32Z"/><path d="M40.86,62.93c1,.32,1.81.56,2.7.8a9.36,9.36,0,0,0,1.41.36,2.12,2.12,0,0,1,1.36.75,6.25,6.25,0,0,1,1.37,2.7,6.37,6.37,0,0,1,.12,1.51,1.81,1.81,0,0,0,.21,1.3l-.05.07c-.55-.19-.72-.86-.83-1.31s-.22-.91-.34-1.36A17.06,17.06,0,0,0,46,65.1a1.17,1.17,0,0,0-1-.74c-.46,0-1,.11-1.49.07A3.94,3.94,0,0,1,40.81,63Z"/><path d="M47.92,72.41c.18-.07.18-.2.16-.24s-.1,0,0,.11l-.09.23a.12.12,0,0,0,.13,0s0,0,0,.07.24.12.29-.07l-.25-.39c.06-.06,0,.09.19.4v.08c-.07.36-.4.48-.57.31l-.26-.27v-.13a.4.4,0,0,1,.56-.35.93.93,0,0,1,.2.15s.15,0,.22.16l-.09.23a.27.27,0,0,1-.38.2.3.3,0,0,1-.14-.42Z"/><path d="M49,71.17c.29,0,.39,0,.33.11a1.46,1.46,0,0,0-.21.09s0,0,.1.06c.31.06.35.15-.16.29H49c-.53,0-.5-.13-.21-.25.06,0,.11-.06.08-.08s-.16,0-.22-.05,0-.09.3-.17Z"/><path d="M48.74,73.65a.4.4,0,0,1-.16-.34c0-.11.11-.15.24-.12l0,.36c0-.15,0-.16-.12-.08s-.12.17-.15.19-.08,0-.36-.28l0-.07c0-.38.21-.6.42-.49a.37.37,0,0,1,.25.25c.06.12.11.16.26.08l0,.37c.06.12.1.19,0,.19a2.18,2.18,0,0,1-.36,0Z"/><path d="M45.52,68.07c-.12-.27-.28-.25-.21-.21a.34.34,0,0,0,.21,0s0,0-.1,0-.14.17-.11.19.15-.12.06-.39v-.08a.32.32,0,0,1,.39-.33.31.31,0,0,1,.11.44c0,.08-.09.12-.07.17a.74.74,0,0,1,.19.2c0,.15-.21.26-.42.05Z"/><path d="M43.58,65.84c.05-.28,0-.38,0-.31s0,.18.05.21,0,0,0-.09c-.11-.3-.29-.19.16.11l.07,0c.39.37.15.53,0,.27,0-.06-.08-.1-.08-.08s0,.16,0,.23-.13,0-.12-.31Z"/><path d="M41.83,65.25c.21-.22.32-.27.37-.17s0,.21,0,.25.09,0,.15,0c.29-.19.46-.15.38.4l0,.08c-.38.4-.52.29-.54-.06,0-.08,0-.14-.07-.14s-.15.1-.21.14-.15-.1-.1-.39Z"/><path d="M47.69,66.86a2.81,2.81,0,0,1,.2-.28c0-.06,0,0,.1.15s.1.1.12,0,0-.21,0-.23l-.15.6c0,.15.21.19.24.1s.05-.24-.17-.27l-.08,0c-.19-.15-.06-.42.1-.5a.42.42,0,0,1,.58.22l.21.51-.37.09a.39.39,0,0,1-.28-.12c-.09-.06-.14-.08-.21.06s-.16.2-.23.12a.37.37,0,0,1-.11-.36Z"/><path d="M48.63,69.48a.87.87,0,0,1,.07.31c0,.06,0,.1-.1,0l.07-.47c-.11.07-.13.21-.07.14a.43.43,0,0,0,0-.24c0-.15-.14.1.23.24l.08,0c.28.31,0,.65-.23.53s-.2-.16-.24-.27-.13,0-.31,0l.07-.47c0-.1,0-.09.08-.08a1.14,1.14,0,0,1,.25.19Z"/><path d="M50.1,68.43c-.27-.07-.37-.1-.29-.1l.21,0-.09,0c-.29-.08-.32-.11.2,0l.08,0c.51.13.47.14.17.09h-.09l.21.06c.06,0,0,0-.31,0Z"/><path d="M49.83,70.66c-.15.26-.16.37-.12.29s0-.2-.06-.21,0,0,.09,0,0-.25,0-.24,0,.14.17.37l0,.08c0,.28-.07.42-.27.45a.39.39,0,0,1-.36-.49c0-.12.09-.19.1-.26a.59.59,0,0,1,.12-.34c.19-.12.33,0,.33.31Z"/><path d="M50.43,72.63c-.32,0-.21.31-.14.18s0-.2-.09-.18,0,.07.09,0,0-.28-.07-.23.12.1.39.2l.06.07a.42.42,0,0,1-.17.6c-.24.14-.76-.15-.65-.47,0-.14.08-.21.09-.3a.49.49,0,0,1,.15-.41c.3-.19.68.2.42.48Z"/><path d="M51.79,71.09c-.2.1-.2.22-.19.24s0-.13-.08-.18l0-.26c0,.09.11,0,.14-.07s0-.14,0-.16,0,.31.28.06l.07,0a.32.32,0,0,1,.35.32.38.38,0,0,1-.26.43.41.41,0,0,1-.44-.07c-.1-.11-.13-.21-.25-.19h-.05l0-.27c0-.15.18-.39.35-.31a.32.32,0,0,1,.19.45Z"/><path d="M52.15,73l-.18.34.35-.38h0c-.17-.14-.26,0-.22,0s.08-.06,0-.12-.26.07-.09,0l.31.23c.26-.07.13-.32,0-.25l-.08,0c-.19,0-.22-.42.14-.48l.31.22c.27.15.17.61-.2.7s-.3-.07-.41,0a.52.52,0,0,1-.46-.26h0l.21-.59.14.2.23.32Z"/><path d="M53.89,71.51c.06.18.23.07.26,0s0-.12-.06-.12-.17.16-.12.18,0,0,0-.08a.14.14,0,0,0-.21,0s.07-.15.17-.41l.06-.06c.25-.14.42-.13.56,0a.43.43,0,0,1-.15.59,1,1,0,0,0-.24.14.38.38,0,0,1-.39.18.3.3,0,0,1-.22-.35c0-.14.21-.36.36-.23Z"/><path d="M52.82,69.12c0-.29-.22-.31-.16-.25a.4.4,0,0,0,.2.08s0,0-.09,0-.18.13-.15.15.17-.08.14-.36v-.09a.33.33,0,0,1,.46-.23.31.31,0,0,1,0,.46c-.06.07-.11.1-.1.15a.92.92,0,0,1,.14.23c0,.16-.26.22-.42,0Z"/><path d="M36.49,54.28c-.08-.3-.05-.43.07-.42s.16.11.2.12,0,0-.07.07a.15.15,0,0,0,0,.19s.19,0,.2,0-.1-.11-.39-.14l-.07,0c-.19-.2-.23-.4,0-.59a.48.48,0,0,1,.47,0,.36.36,0,0,1,.22.35.47.47,0,0,1-.11.33.81.81,0,0,0,0,.3c0,.12-.17.09-.42-.09Z"/><path d="M38.07,53.87c.28,0,.38,0,.32.09a1.27,1.27,0,0,0-.21.07s0,0,.1,0c.3,0,.35.12-.17.24H38c-.53,0-.5-.1-.21-.2.07,0,.12-.05.09-.07a1.17,1.17,0,0,0-.22,0c-.07,0,0-.08.3-.15Z"/><path d="M36.49,55.86c0,.2.18.22.22.15L36,55.86c-.06,0-.05.16,0,.15s.13-.09.12-.13,0,.15.09.16.14-.14.06-.13-.14.11-.07.36v.09a.41.41,0,0,1-.63.07.53.53,0,0,1,0-.75.71.71,0,0,1,.64-.06.58.58,0,0,1,.36.1.34.34,0,0,1,0,.46l-.87,1.24L36,56a.31.31,0,0,1,.47-.25Z"/><path d="M38.31,56.11c0,.29,0,.39-.05.33a.86.86,0,0,0-.15-.17s0,0,0,.12c.11.31.2.24-.33.12l-.07,0c-.44-.35-.19-.61.12-.45.08,0,.13,0,.15,0s0-.17,0-.24.21,0,.31.24Z"/><path d="M38,57.79c.29,0,.37-.08.3-.06a.7.7,0,0,0-.18.11s0,0,.08-.05c.24-.22,0-.35,0,.2v.08c-.13.55-.48.36-.33,0,0-.07.06-.11,0-.12a1,1,0,0,1-.23,0c-.1,0,0-.19.26-.24Z"/><path d="M38,58.27c.28-.08.38-.08.34,0a1.38,1.38,0,0,0-.17.15s0,0,.11,0c.32,0,.39,0-.05.33l-.08,0c-.52.14-.52,0-.29-.17.06-.05.09-.09.06-.1s-.16,0-.22,0,0-.09.22-.25Z"/><path d="M40.78,57.63c-.29,0-.39-.08-.32-.12l.22-.08s0,0-.1-.07c-.31-.07-.35-.16.18-.27h.08c.53.07.5.16.2.26-.07,0-.11,0-.09.07s.16,0,.22.06,0,.1-.31.15Z"/><path d="M40.45,56.12c.32-.07.12-.37.1-.25a.27.27,0,0,0,.05.21s0,0-.07-.06a.22.22,0,0,0-.21,0,2.41,2.41,0,0,0,.36-.22l.08,0c.28,0,.41.05.46.17a.33.33,0,0,1-.29.35c-.1,0-.17,0-.21.07s0,.19-.14.26-.51-.23-.21-.44Z"/><path d="M47.9,49.18c-.12-.27-.12-.38,0-.37s.16.11.21.11,0-.06,0-.14c-.07-.32,0-.43.44-.09l.05.07c.21.5.08.56-.21.4-.07,0-.12-.06-.14,0a1.29,1.29,0,0,0,0,.24c0,.09-.12.06-.35-.13Z"/><path d="M47.77,52.73a3.78,3.78,0,0,1,1.5.15,3.29,3.29,0,0,0,.72.29,1,1,0,0,1,.74.53c.17.26.26.51.35.62a1,1,0,0,0,.37.22,5.28,5.28,0,0,0,1.34.22l0,.08a1.66,1.66,0,0,1-1.65.57,1.3,1.3,0,0,1-.8-.71,1.77,1.77,0,0,1-.08-.85c0-.23-.09-.42-.33-.41s-.53.13-.8.14a1.82,1.82,0,0,1-1.42-.77Z"/><path d="M48.62,55.31a.18.18,0,0,0,.27,0s0-.09-.06,0,.14.16.14.08-.06-.16-.12-.19l.51.34c.07.06.19,0,.11-.07s-.22,0-.12.29v.09c-.16.26-.55.19-.71-.12A.55.55,0,0,1,49,55l.9-.26-.39.6c-.09.14-.26.18-.33.25s-.11.21-.26.33a.36.36,0,0,1-.51-.12c-.1-.14-.08-.44.13-.49Z"/><path d="M51.08,56.23a.72.72,0,0,1-.31.42l.26-.43c0-.09-.07-.13-.1-.07s0,.14,0,.16l0,.26c-.06-.11-.23,0-.18.1s.08,0,.12-.09a.34.34,0,0,0,0-.27c0-.06-.06-.07,0-.08.21,0,.39.09.71.34l0,.08a.71.71,0,0,1-.83.45.78.78,0,0,1-.39-.22.48.48,0,0,1-.1-.45c.05-.16.16-.18.25-.23.27,0,.39.09.58.09h.19l-.15.25a.53.53,0,0,1-.43.24.44.44,0,0,1-.42-.4l-.06-.44h.32a.69.69,0,0,1,.48.2Z"/><path d="M52.49,56c.29-.05.35-.15.29-.11a.53.53,0,0,0-.14.17s0,0,.08-.07.08-.2.07-.2-.06.14,0,.4l0,.08c0,.28-.1.39-.2.42s-.18-.11-.17-.29,0-.13,0-.13a1,1,0,0,1-.23.07c-.11,0-.1-.2.17-.32Z"/><path d="M51.54,57.82a.74.74,0,0,1-.26-.15l.37.29s.08,0,.09,0-.09-.07-.17-.05,0,.17.12,0,.06-.14.07-.09.05.15.26.32l0,.07a.44.44,0,0,1-.36.49.5.5,0,0,1-.51-.35c-.05-.29.12-.39,0-.57a.35.35,0,0,1,0-.34.36.36,0,0,1,.36-.14l.58.12-.21.18a.74.74,0,0,1-.26.15Z"/><path d="M53.76,57.48c-.2.22-.1.37-.06.29a.35.35,0,0,0,0-.21s0,0,.06.07.24,0,.24,0-.17-.14-.38,0l-.07.06a.3.3,0,0,1-.45-.17.27.27,0,0,1,.34-.24c.09,0,.13.05.16,0a.81.81,0,0,1,.09-.24c.11-.08.3.09.15.36Z"/><path d="M53,59.5c0-.28,0-.39,0-.34s.1.17.14.19,0,0,0-.11c0-.32.07-.38.32.09l0,.09c.07.52,0,.52-.21.26,0-.06-.08-.1-.09-.07a1.75,1.75,0,0,0,0,.23c0,.08-.09,0-.23-.26Z"/><path d="M59.21,72.65c-.33-.1-.39.07-.31,0s0-.19-.09-.18,0,.08.08,0,0-.2,0-.21,0-.06,0-.06a1.27,1.27,0,0,0,.49,0l.08,0a.52.52,0,0,1-.05.75.59.59,0,0,1-.45.12c-.18,0-.49-.18-.45-.39a.75.75,0,0,1,.14-.42A.56.56,0,0,1,59,72a.39.39,0,0,1,.34.67Z"/><path d="M59.45,70.34c.28-.09.33-.21.27-.17a.8.8,0,0,0-.16.16s0,0,.06-.08c.17-.28-.09-.34,0,.19l0,.08c0,.55-.35.47-.26.14,0-.08,0-.12,0-.12a.62.62,0,0,1-.2.11c-.09,0-.07-.15.19-.28Z"/><path d="M60.24,71.87c.28-.07.36-.14.29-.11a1.4,1.4,0,0,0-.18.12s0,0,.08,0c.24-.21.12-.33,0,.18l0,.08c-.24.49-.43.32-.26.06,0-.07.07-.11,0-.11a1.17,1.17,0,0,1-.21.08c-.09,0,0-.12.24-.23Z"/><path d="M64,72.61c.18,0,.11-.18.14-.23s0-.08.13-.09.23.06.31,0a.12.12,0,0,0,0-.2c-.07-.07-.15-.08-.16-.06s-.07.12.17.13.37-.25.3-.37a.2.2,0,0,0-.16-.16c-.17,0,0,.15.08.23l0,.08a.34.34,0,0,1-.47.26.54.54,0,0,1-.3-.4c-.07-.22.24-.57.48-.55a.58.58,0,0,1,.6.45.51.51,0,0,1-.12.5c-.11.13-.21.18-.26.28s-.07.26-.12.38a.42.42,0,0,1-.38.15c-.15,0-.45-.16-.36-.38Z"/><path d="M66,70.51a1.29,1.29,0,0,1,.07.37s-.07,0-.26-.13v-.19c.14-.12.13-.22.11-.28s0,.16.24.3l.07,0a.34.34,0,0,1-.21.55.43.43,0,0,1-.38-.42v-.19c-.1-.19-.06-.28,0-.32s.18,0,.34.18Z"/><path d="M66.31,72.72c.29.09.37-.14.26-.14a.34.34,0,0,0-.17.13.27.27,0,0,0,0-.09c0-.15,0-.23-.09-.22s-.14.25.11.38l.07,0a.27.27,0,0,1,0,.47c-.13,0-.25-.07-.25-.25s0-.13,0-.12A.62.62,0,0,1,66,73c-.13,0-.07-.33.24-.3Z"/><path d="M67.22,70.18c.28-.14.33-.26.27-.19s0,.2.05.2,0-.07-.08,0c-.14.24.26.32.05.33s-.15,0-.06-.13a.29.29,0,0,0,0-.14c0-.06-.06-.2-.11-.2s-.2.08-.13.15h.09c.07.14-.17.23-.26.16a.3.3,0,0,1-.13-.27.33.33,0,0,1,.08-.21,3.2,3.2,0,0,1,.26-.25s.72-.06.64.46c0,.15-.13.2-.16.29a.51.51,0,0,1-.24.35c-.29.07-.46-.17-.35-.46Z"/><path d="M67.33,67.06a1.91,1.91,0,0,0,.31,0,.62.62,0,0,0-.22,0s0,0,.1,0c.3-.07.26-.21-.12.16l-.07.06c-.44.3-.53.08-.26-.08.07,0,.11-.07.08-.08s-.16,0-.22,0,0-.11.31-.11Z"/><path d="M67.1,72c-.29.08-.33.16-.36.11L67.2,72c0-.16-.29-.06-.17,0s.21-.13.15-.18,0-.09.06,0a3.88,3.88,0,0,1,.36.22l0,.08a.51.51,0,0,1-.1.47.38.38,0,0,1-.45,0c-.24-.06-.26-.33-.29-.44s-.31-.21-.22-.53l.06-.22.4.08c.18,0,.3.26.13.52Z"/><path d="M69,71.53c.28.09.37.14.29.17s-.19,0-.22,0,0,.05.08.08c.29.12.31.22-.22.23h-.08c-.52-.15-.47-.23-.16-.28.08,0,.13,0,.1-.06a2.16,2.16,0,0,0-.2-.09c-.07,0,0-.08.32-.09Z"/><path d="M68.82,73c.24.17.36.13.28.16s-.17.06-.19.11,0,0,.12,0a.44.44,0,0,0,.2-.1.6.6,0,0,0,0,.41v.08a.37.37,0,0,1-.45.28.33.33,0,0,1-.12-.42c0-.09.06-.14,0-.18s-.18,0-.25-.11,0-.32.34-.28Z"/><path d="M55.12,64.08a2,2,0,0,1-.32-.24c0-.07-.07-.12,0-.24l.27.17c0-.17-.17-.09-.08,0s.21,0,.21,0,0,0,0,0a.75.75,0,0,0,.34.23l.06.07a.49.49,0,0,1-.32.49.55.55,0,0,1-.65-.18.52.52,0,0,1,0-.68,3.09,3.09,0,0,1,.41-.46l.28.17a.29.29,0,0,1,.17.34.5.5,0,0,1-.3.35Z"/><path d="M56.89,61.38c.28-.06.35-.14.3-.09a.56.56,0,0,0-.15.16s0,0,.09-.05c.24-.22.08-.31.09.23v.09c-.15.53-.47.37-.37.05,0-.08,0-.13,0-.13a2.19,2.19,0,0,1-.23.07c-.1,0-.07-.17.19-.31Z"/><path d="M57.06,63.79c-.05-.28-.06-.38,0-.32l.08.21s0,0,0-.1c0-.3,0-.35.15.16l0,.08c.09.52.05.49-.06.21,0-.07,0-.11,0-.09l0,.22c0,.07,0,0-.13-.29Z"/><path d="M57.84,62.63c-.23-.18-.26-.31-.17-.31s.18.08.21.08,0,0,0-.12c-.12-.3.07-.45.35,0l0,.08c.13.52.17.45-.07.26-.06,0-.1-.07-.1,0a.66.66,0,0,0,.14.17c0,.06,0,0-.31-.1Z"/><path d="M59,61.1c-.07.27-.09.37-.08.3l0-.21a.41.41,0,0,0,0,.09c-.08.29-.09.32,0-.19L59,61c.13-.51.13-.47.07-.18,0,.08,0,.12,0,.1l.06-.21c0-.07,0,0-.06.3Z"/><path d="M75,77.5c.22-.37.17-.59.42-.88.13-.13.33-.26.46-.4a5.07,5.07,0,0,1,.41-.5,1.59,1.59,0,0,1,.63-.26,2.4,2.4,0,0,1,.52-.07,5.84,5.84,0,0,1,1.06.15l0,.08a1.42,1.42,0,0,1-1,.67,2.16,2.16,0,0,1-.57,0,2.35,2.35,0,0,1-.44-.11.37.37,0,0,0-.38.23,2.38,2.38,0,0,0-.06.55.84.84,0,0,1-1,.65Z"/><path d="M76.73,77.7a.76.76,0,0,1,.2.21l-.31-.31c.14-.17.12-.18.27,0s.14,0,.08,0-.13,0,0,.13.25,0,.26-.08,0-.1,0-.17,0,.15.1.41v.09a.48.48,0,0,1-.75.09.52.52,0,0,1-.13-.59A.51.51,0,0,1,77,77a.45.45,0,0,1,.31.42c0,.12,0,.22,0,.4a.37.37,0,0,1-.56.31l-.34-.28,0,0a.82.82,0,0,1,.25-.14Z"/><path d="M78.66,77.2c.29,0,.35-.14.28-.11a.49.49,0,0,0-.17.14s0,0,.07-.07.06-.22,0-.22-.09.16,0,.4l0,.08c.06.27-.07.4-.17.42s-.19-.11-.16-.28,0-.13,0-.13a1,1,0,0,1-.23.07c-.11,0-.08-.22.21-.29Z"/><path d="M72.61,75.17c.26-.17.38-.2.42-.1a1.12,1.12,0,0,0,0,.26s.09,0,.17,0,.11-.13,0-.15a.34.34,0,0,0-.28.13.32.32,0,0,0,0,.29c0,.07.07,0,.07-.1s0-.36.25-.33l.06.06c.26,0,.3-.23.49.1a.48.48,0,0,1-.46.64c-.22,0-.28-.13-.29-.23s0-.16-.09-.17-.17.08-.25.1-.17-.15-.08-.43Z"/><path d="M74,73.38c-.14-.25-.1-.39,0-.34a1.3,1.3,0,0,1,.13.19s0,0,.06-.11c.06-.32.37-.29.21.23l0,.07c-.27.47-.08.48-.14.17,0-.08,0-.12,0-.09a1.23,1.23,0,0,0,0,.21c0,.06,0,0-.17-.26Z"/><path d="M76,73.53a.51.51,0,0,1,.41.09l-.64-.05c-.11,0,.18.07.21,0s-.21,0-.23,0,0,.17.15,0,.07-.28,0-.31-.22,0-.17.13l0,.08c0,.18-.32.13-.42,0a.49.49,0,0,1,.07-.59.51.51,0,0,1,.74,0c.15.19.05.42.13.52s.36.35.14.54l-.62.52,0-.56a.55.55,0,0,1,.18-.38Z"/><path d="M75.73,71.78c-.19.21-.26.28-.22.22l.12-.17s0,0-.07.06c-.2.22-.24.24.08-.18l.06-.06c.34-.4.34-.36.16-.12,0,.06-.07.1,0,.08l.15-.16c.05,0,0,0-.18.26Z"/><path d="M75.68,67.52c0-.2.31-.13.37-.07s.13.1.09.15l-.18.13s0,0,.06-.07,0-.21,0-.21l.26.35,0,.07c0,.28,0,.41-.15.47a.35.35,0,0,1-.37-.25c0-.1,0-.17-.1-.21a2,2,0,0,0-.26-.06c-.06,0,0,0,0,0s.24,0,.2-.17Z"/><path d="M77.38,68.25c-.27.09-.37.11-.31.07l.2-.1-.1,0c-.29.08-.33.06.15-.15l.08,0c.5-.16.48-.13.21,0-.07,0-.11.05-.08.05l.21-.06c.07,0,0,0-.28.16Z"/><path d="M75.65,64.8c.29,0,.39.06.37.15l-.52-.23c0,.06.24.21.22.11s-.12-.21-.14-.24,0,0,.37-.17H76c.41.08.47.44.25.55S76,65,75.93,65s0,.21-.09.34l-.12.22-.4-.45c-.06-.07,0-.17.25-.32Z"/><path d="M76.68,66.41c0,.31.14.35.07.29l-.29-.5c0,.11.12.28.15.17s0-.24,0-.27,0-.08,0-.07A.77.77,0,0,0,77,66h.08a.41.41,0,0,1,.3.39.32.32,0,0,1-.22.32c-.12.08-.32,0-.43,0s-.16.16-.32.25l-.37.23.08-.74a.3.3,0,0,1,.56-.07Z"/><path d="M77.31,64.64c.08-.28,0-.37,0-.3a.43.43,0,0,0,.11.19s0,0,0-.08-.19-.11-.2-.08.14.13.39,0l.08,0c.28,0,.4.13.4.25s-.14.19-.32.14-.13,0-.13,0a2.06,2.06,0,0,1,0,.25c-.06.11-.27,0-.27-.27Z"/><path d="M74.28,65.86c-.21.17-.21.27-.19.26a.42.42,0,0,0,0-.18c0-.08,0-.06,0,0l0-.3a.21.21,0,0,0,0-.2s0-.08-.07-.07,0,.21.25.28l.08,0a.3.3,0,0,1,0,.53.32.32,0,0,1-.25,0A.41.41,0,0,1,74,65.9l-.11-.35.14,0s.07,0,.11,0,.11-.16.17-.16.21.16.06.4Z"/><path d="M74.94,62.54c.16-.28-.16-.37-.14-.21s.15.15.18.13,0,0-.07.07.15.27.24.17,0-.27-.31-.18h-.08a.31.31,0,0,1-.17-.54c.19-.19.61-.07.61.17s0,.18,0,.24a.41.41,0,0,1,.14.33.26.26,0,0,1-.5-.12Z"/><path d="M75.59,60.31c.34,0,.52.22.51.44S76,61,76,61.09a.36.36,0,0,0,.16.27.94.94,0,0,1,.29.53c0,.17-.15.2-.16.52l0,.08c-.37.13-.65-.25-.7-.45a.79.79,0,0,1,.15-.59.31.31,0,0,0,0-.29c0-.08-.2-.13-.28-.2s-.09-.32.09-.61Z"/><path d="M72.39,58.2a.84.84,0,0,1,.69.52,2.22,2.22,0,0,0,0,.45.59.59,0,0,0,.31.27,1.37,1.37,0,0,1,1,1.25l0,.07a1.1,1.1,0,0,1-1.28-1,.67.67,0,0,0-.17-.39,2.6,2.6,0,0,0-.4-.23.79.79,0,0,1-.16-.86Z"/><path d="M63.27,48.07c0,.68.08,1.2.06,1.77a2.65,2.65,0,0,0,0,.89,4.06,4.06,0,0,0,.37.87,1.94,1.94,0,0,1-.08,2.06c-.37.55-.78.82-.89,1.45l-.08,0c-.5-.62,0-1.5.2-2a2.32,2.32,0,0,0,.4-1.48,2.37,2.37,0,0,0-.18-.9,8.37,8.37,0,0,1-.42-.9A2,2,0,0,1,63.19,48Z"/><path d="M63.92,54.11a2.12,2.12,0,0,1,.07-.39c-.05,0,0,.07.13,0s-.05-.13,0,0,.21.1.17-.06l-.38-.21c.12-.15.2,0,.66,0l.07.05a.59.59,0,0,1-.69.78l-.32-.09-.05-.12a.47.47,0,0,1,.36-.67.92.92,0,0,1,.59.17.42.42,0,0,1,0,.68.55.55,0,0,1-.55-.05Z"/><path d="M64.88,51.59c.09,0,.13.14,0,.22a.34.34,0,0,1-.2.11c-.11,0-.25,0-.27-.23s.21-.24.24-.24,0-.06.06-.15.07-.24,0-.22a.24.24,0,0,0,.17.37H65c.3.1.14.45.07.48s-.13,0-.16-.19,0-.11,0-.1.21.07.23-.17-.13-.2-.21-.18a.37.37,0,0,0-.17.11c-.08.08,0,.21.06.19Z"/><path d="M65.1,54.06c-.29-.14-.39,0-.18.08s.22-.18.17-.22,0,0,.07-.1,0-.23,0-.24.06.14.3.3l.06.07a.38.38,0,0,1-.19.52.44.44,0,0,1-.51-.33.61.61,0,0,1,0-.34.35.35,0,0,1,.4-.28c.41.18.2.54-.07.56Z"/><path d="M65.63,52.39c.33,0,.2-.36.06-.21a.15.15,0,0,0,.11.18s0-.07,0-.14-.17-.16-.17-.09.26.09.28-.2l0-.08c.2-.26.57-.05.6.2a.37.37,0,0,1-.34.43c-.09,0-.16,0-.18.08s0,.22-.14.31c-.31.2-.68-.34-.3-.5Z"/><path d="M65.88,49.9c-.25.14-.33.18-.28.13l.17-.12s0,0-.09,0c-.26.14-.3.14.13-.16l.07,0c.46-.27.44-.23.2-.05-.06.05-.1.08-.07.07l.19-.1c.06,0,0,0-.25.19Z"/><path d="M74.74,51.41a7.8,7.8,0,0,1,1.31,1.33,7,7,0,0,0,.53.81,4.63,4.63,0,0,1,.63.83,4.82,4.82,0,0,1,.3,1.93l0,1.86-.08,0a3.16,3.16,0,0,1-.84-1.84,14,14,0,0,1,.15-1.86,1.06,1.06,0,0,0-.38-.77c-.24-.2-.56-.31-.84-.51a2.38,2.38,0,0,1-.87-1.79Z"/><path d="M78.26,61.75c-.19-.23-.23-.35-.13-.38a.74.74,0,0,0,.25,0s0-.08,0-.15c-.16-.3-.1-.45.42-.3l.08.05c.35.42.24.53-.11.5-.08,0-.14,0-.14,0s.09.15.12.22-.11.12-.4,0Z"/><path d="M79.11,58.58c.29,0,.39,0,.32.08l-.21.08s0,0,.1,0c.31,0,.35.11-.17.24h-.08c-.53,0-.51-.1-.21-.21.07,0,.11,0,.09-.06s-.16,0-.23,0,0-.07.3-.14Z"/><path d="M79,61.07c.24-.18.36-.19.34-.1s-.11.16-.12.2,0,0,.12,0c.32-.07.43.09,0,.36l-.08,0c-.53.1-.49.1-.27-.13.05,0,.08-.1.05-.1l-.21.09c-.07,0,0-.05.16-.29Z"/><path d="M78.86,63.36c-.1-.14-.23,0-.24.06s.18.16.18.08-.1-.16-.16-.14-.06.11,0,.16.14-.28.06-.22,0,.09.25.32l0,.07c-.06.28-.18.51-.53.49a.54.54,0,0,1-.38-.37.38.38,0,0,1,.14-.48c.11-.06.19-.08.22-.16s0-.25.18-.35.49,0,.53.2,0,.48-.24.41Z"/><path d="M80.11,62.2c-.2,0-.26.12-.27.17s.08,0,.11-.11l.21-.35c-.08.1,0,.11,0,0l.15-.15s0,0,0,.05a1.89,1.89,0,0,0,0,.35v.08a.49.49,0,0,1-.21.31c-.08.06-.15,0-.19,0a.29.29,0,0,1,0-.26c0-.11,0-.15-.11-.11l-.21.08.42-.43c.1-.09.26-.12.29,0s0,.23-.15.34Z"/><path d="M80.79,60.88a.86.86,0,0,1-.35-.58c0-.18.23-.37.24-.56s-.16-.39-.25-.53-.2-.12-.07-.1h.25c.17,0,.2-.22.17-.25a.13.13,0,0,0-.1-.1c-.08,0,0,.15.07.29v.08a.42.42,0,0,1-.52,0,.56.56,0,0,1-.2-.41.5.5,0,0,1,.36-.5l.11,0,.14,0a.74.74,0,0,1,.52.83c0,.24-.24.42-.21.62s.3.39.26.59a.8.8,0,0,1-.33.58Z"/><path d="M80.69,61.2c.19-.12.19-.22.2-.25s0,.1.06.18l.08.31c0-.09,0,0,.12,0s.16-.07.11-.18-.08-.08-.09,0a.86.86,0,0,0,.11.33v.09A.41.41,0,0,1,81,62a.36.36,0,0,1-.42-.18.39.39,0,0,1,.06-.54,3.72,3.72,0,0,1,.39-.21l.14-.07-.07.38c0,.16-.17.36-.32.27a.31.31,0,0,1-.17-.42Z"/><path d="M82.18,62.62c-.31.05-.46-.18-.37-.29s.19-.11.22-.16,0-.1-.07-.15-.2-.19-.2-.21.17,0,.32-.25l.06-.06a.38.38,0,0,1,.52.25.33.33,0,0,1-.24.34c-.08,0-.13.07-.11.12s.14.09.21.12,0,0-.26.24Z"/><path d="M82.38,59.68c0,.3.23.32.21.22a.34.34,0,0,0-.15-.16s0,0,.1,0,.23-.07.2-.15-.27-.1-.38.16l0,.08a.26.26,0,0,1-.45.07c0-.11,0-.23.2-.26s.13,0,.11,0-.11-.12-.11-.2.28-.12.3.18Z"/><path d="M83.24,62.34a.12.12,0,0,0-.18.12c0,.08.18.06.18,0s-.3,0-.2.08.13-.23.2-.29a.26.26,0,0,1,.26-.13l.24.63c.17,0,.2-.17.14-.19a.1.1,0,0,0-.17,0l0,.07c-.14,0-.26-.14-.25-.28a.39.39,0,0,1,.4-.39l.48,0-.24.65a.71.71,0,0,1-1.2.12c0-.21-.43-.44-.18-.79a.47.47,0,0,1,.6-.1c.15.1.23.39,0,.48Z"/><path d="M84.61,61.15c-.06.28-.09.37-.08.3l0-.21s0,0,0,.09l.13-.56,0-.06,0-.05-.08.41,0,.08-.1.4s0,0,0-.06v-.06l.13-.56c0,.08,0,.12,0,.1l.06-.21c0-.07,0,0-.06.31Z"/><path d="M84.05,63.69c-.24-.17-.3-.26-.22-.28l.23,0s0-.06,0-.12c-.22-.22-.21-.33.31-.2l.08,0c.43.32.35.4,0,.37-.08,0-.13,0-.12,0s.12.12.16.17-.07.09-.35,0Z"/><path d="M83.92,60.23a2.38,2.38,0,0,0-.11-.3s0,0,.1,0,.17.06.13,0-.05-.09-.18-.13h0l.17.43a.11.11,0,0,0,.2.06c0-.08,0-.22-.22-.27l-.08,0a.3.3,0,0,1,0-.49.34.34,0,0,1,.5.07l.24.42h-.08c-.15,0-.23,0-.27.08s0,.07,0,.19,0,.19-.07.19a.43.43,0,0,1-.3-.18Z"/><path d="M86,51.77A1.78,1.78,0,0,1,86.53,53a5.16,5.16,0,0,0-.1.67,1.44,1.44,0,0,0,.21.61,2.86,2.86,0,0,1,.25,2.57H86.8a2.84,2.84,0,0,1-.63-2.5,1.43,1.43,0,0,0,0-.65c-.07-.2-.23-.39-.33-.6a1.72,1.72,0,0,1,.09-1.31Z"/><path d="M88.48,53.07c.09.31.12.41,0,.43s-.23-.06-.27,0,0,.1.06.13.23,0,.15-.08-.21.16,0,.34l0,.06c.06.35-.39.49-.62.33a.46.46,0,0,1-.07-.71c.08-.07.15-.12.16-.19s0-.2,0-.29.25-.2.51-.06Z"/><path d="M87.57,57a.13.13,0,0,0-.12.21s.18,0,.11,0a.22.22,0,0,0-.24,0s0,0,0,0a.84.84,0,0,1,0-.12.57.57,0,0,1,0-.28,1.31,1.31,0,0,0,.46-.11h.09a.5.5,0,0,1,.15.69.61.61,0,0,1-.71.16.5.5,0,0,1-.24-.2c0-.08,0-.16,0-.22s-.11-.2-.08-.36a.39.39,0,0,1,.46-.25c.17,0,.37.27.22.43Z"/><path d="M89.11,55.23c.24.15.31.23.23.23a1,1,0,0,0-.22,0s0,0,.07.09c.24.19.24.27-.27.11l-.08,0c-.44-.29-.38-.34-.07-.28.07,0,.12,0,.1,0a1.41,1.41,0,0,0-.17-.14q-.08-.1.33,0Z"/><path d="M88.19,58.67c-.23-.09-.29.06-.29.08s.09-.15-.08-.15,0,.18.09.15.13,0,.11-.09l-.34,0c-.06,0,0,.08,0,.1l.65.22c0-.17-.2-.15-.21,0l0,.07c-.18.1-.48-.13-.35-.47l.38-1,.26,1.22a.56.56,0,0,1-.3.63l-.21.1-.13-.06a.6.6,0,0,1-.41-.58c0-.26.18-.37.2-.55s.29-.53.58-.35.37.47.12.63Z"/><path d="M89.93,58.57c-.26.2-.31.28-.34.17s0-.19-.08-.2,0,0,0,.1.15,0,.16,0,.08.07.07.11a1.41,1.41,0,0,1-.27.42l-.07,0A.52.52,0,0,1,88.9,59a.36.36,0,0,1,0-.25.5.5,0,0,1,.2-.3c.09-.07.21-.11.28-.16s.14-.21.27-.26.35.18.31.47Z"/><path d="M88.65,60.84c-.15-.07-.23.12-.1.15s.06,0,0,.08-.24,0-.29.12,0,.16.1.09.13-.16.44,0a.64.64,0,0,1,.23.46.77.77,0,0,1,0,.28c-.06.1-.2.12-.29.47l-.06,0c-.39,0-.6-.47-.52-.78,0-.14,0,0,.14.11s0-.07-.16-.24a.74.74,0,0,1-.1-.51,1.57,1.57,0,0,1,0-.49.51.51,0,0,1,.48-.32c.34,0,.53.37.31.53Z"/><path d="M90.59,60.12a1.33,1.33,0,0,1,.14,1.08,3.36,3.36,0,0,0-.27.49,1,1,0,0,0,.06.53,3,3,0,0,1,.22,1,2.33,2.33,0,0,1-.17.64.54.54,0,0,1-.65.31l0-.08a.43.43,0,0,0,0-.42,1.7,1.7,0,0,1-.1-.42,2.2,2.2,0,0,1,.23-1.08,1.12,1.12,0,0,0,.13-.53c0-.18-.13-.37-.16-.56a1.2,1.2,0,0,1,.47-1Z"/><path d="M91.22,64.81a8,8,0,0,0,1.18-1.58,2,2,0,0,0,.41-.9,1.51,1.51,0,0,0-.25-1c-.18-.29-.41-.48-.64-.82a1.65,1.65,0,0,1-.28-.64,1.07,1.07,0,0,1,.18-.81c.31-.39.45-.44.56-.74a1.7,1.7,0,0,0,.07-.94l.07,0a1.31,1.31,0,0,1,.51,1.1,2.07,2.07,0,0,1-.44,1.12c-.09.15-.11.24,0,.56A3.16,3.16,0,0,1,93,61.2a8.88,8.88,0,0,1,.09,1.13,3.63,3.63,0,0,1,0,1.18,2,2,0,0,1-1.79,1.38Z"/><path d="M93.18,56.34c.29-.06.43,0,.4.12s-.13.16-.14.22,0,.08.13.1c.35.1.43.37-.09.58H93.4c-.54-.14-.52-.21-.28-.45.06-.06.09-.12.06-.15a1,1,0,0,0-.25,0c-.09,0,0-.14.17-.35Z"/><path d="M94.09,59.46c-.27-.07-.36-.1-.29-.1l.21,0-.09,0c-.29-.08-.32-.11.2,0l.08,0c.51.13.47.14.17.09h-.09l.21.06c.06,0,0,0-.31,0Z"/><path d="M95.3,59.69c.24.17.34.17.27.16h-.22s0,0,.1,0c.32,0,.28-.16-.12.21l-.06.06c-.49.25-.59-.09-.29-.23.07,0,.12-.06.1-.08s-.15-.07-.21-.12.08-.16.35-.07Z"/><path d="M94.58,61.82a.55.55,0,0,1-.35-.13l.56.2c0,.13-.16,0-.31,0s0,.21,0,.31.14.1,0,0-.26,0-.19.24v.08c-.13.26-.5.2-.64-.09a.45.45,0,0,1,.17-.56c.14-.08.36,0,.36-.19s-.06-.4.12-.39l.63,0-.07.17a.58.58,0,0,1-.26.27Z"/><path d="M93.15,63.88c.18-.23.26-.3.23-.23s-.08.17-.09.2,0,0,.08-.06c.2-.22.26-.23,0,.23l0,.07c-.34.41-.35.36-.22.09,0-.07.05-.12,0-.1s-.11.12-.15.16,0,0,.13-.29Z"/><path d="M69.17,48.09c.23-.18.28-.26.25-.19a.69.69,0,0,0-.07.2s0,0,.07-.07c.17-.27.07-.31.16.21v.09c-.07.54-.34.47-.33.14,0-.08,0-.13,0-.12L69,48.5c-.09,0-.1-.12.07-.35Z"/><path d="M70.37,51c.29.07.37-.05.3,0s-.15.11-.16.15,0,0,.1,0,.1-.19.08-.2-.08.16.09.39l0,.07a.34.34,0,0,1-.24.45.28.28,0,0,1-.23-.32c0-.08,0-.14,0-.15a1,1,0,0,1-.26,0c-.13-.06-.07-.3.22-.34Z"/><path d="M70.67,49.22c-.25.23-.15.39-.27.25s-.18-.14-.2-.08,0,.14.1.18l-.47-.36a.18.18,0,0,0-.18.13s0,.18.13.22a.13.13,0,0,0,.2-.1.16.16,0,0,0-.21-.13h-.08a.3.3,0,0,1,0-.42.47.47,0,0,1,.54-.12.48.48,0,0,1,.29.51.49.49,0,0,1-.32.44l-1.59.5,1.12-.86c.12-.09.25-.12.31-.18s.07-.19.14-.31.55-.1.55.25Z"/><path d="M70.05,46.83a2.84,2.84,0,0,0,.07-.34s0-.06.1,0l-.14.32a.13.13,0,0,0,.16,0s0,0,0,0,.07.23.15.15.08,0,0,0-.15.09-.34.2h-.09a.45.45,0,0,1-.37-.23.32.32,0,0,1,.12-.42.36.36,0,0,1,.52,0,.89.89,0,0,0,.17.08.35.35,0,0,1,.28.14l-.14.32c0,.13-.13.13-.23.12a.38.38,0,0,1-.25-.26Z"/><path d="M71.32,47.89c.1.29.28.25.2.21a.32.32,0,0,0-.21,0s0,0,.09,0,.11-.21.07-.21-.13.16,0,.38l0,.07a.33.33,0,0,1-.33.42.34.34,0,0,1-.23-.44c0-.09.07-.14,0-.19s-.15-.11-.19-.2.22-.31.44-.08Z"/><path d="M71.85,45.82c-.14-.13-.09-.3-.1-.39s0-.07,0,0,.23.09.22,0-.06,0,0,.1.23.08.17,0-.21.09,0,.33l0,.08a.44.44,0,0,1-.78,0,.53.53,0,0,1,.31-.8,1.67,1.67,0,0,1,.38,0,.43.43,0,0,1,.42.36.36.36,0,0,1-.21.35c-.1,0-.15,0-.32,0Z"/><path d="M72.77,47c-.32.1,0,.47.13.15,0-.13-.15-.15-.17-.12s0,0,0-.07-.08-.22-.1-.2a3.41,3.41,0,0,1,.4.17l.06,0a.47.47,0,0,1,0,.54.4.4,0,0,1-.59-.14c-.07-.12-.06-.2-.11-.25a.38.38,0,0,1-.16-.37c.23-.47.84-.06.54.23Z"/><path d="M73.52,44.67c-.16-.24-.16-.36-.08-.33l.16.16s0,0,0-.11c0-.31.16-.39.25.14v.09c0,.53.06.48-.08.21,0-.07-.07-.1-.07-.08a1.13,1.13,0,0,0,.09.2c0,.07,0,0-.23-.22Z"/><path d="M75.68,47.94a1.84,1.84,0,0,1,.46,1.27c0,.23-.13.46-.14.68a1.7,1.7,0,0,0,.17.65,3,3,0,0,1,.12,2.64H76.2a3,3,0,0,1-.49-2.6,1.48,1.48,0,0,0,0-.66c-.06-.22-.21-.42-.29-.64A1.79,1.79,0,0,1,75.6,48Z"/><path d="M76.71,47.11a1.15,1.15,0,0,1,.81,1.22c0,.25-.18.48-.22.7a1.35,1.35,0,0,0,.07.66,4.92,4.92,0,0,0,.47,1.05,2.37,2.37,0,0,1,.36,1.35l-.08,0a4.33,4.33,0,0,1-1.05-.91,1.76,1.76,0,0,1-.17-1.52A1.61,1.61,0,0,0,77,49a2.67,2.67,0,0,0-.21-.64c-.12-.4-.06-.7-.16-1.21Z"/><path d="M78.32,49.18c-.28,0-.39-.14-.32-.25s.18-.11.21-.16,0-.09-.11-.14c-.31-.17-.35-.4.16-.57h.09c.54.2.51.34.22.54-.07,0-.12.09-.09.14a2.25,2.25,0,0,0,.22.11c.08.08,0,.17-.29.31Z"/><path d="M78.48,46.7c0-.28,0-.39,0-.32a2.16,2.16,0,0,0,.09.2s0,0,0-.1c0-.31.06-.35.22.16v.08c0,.53,0,.5-.14.22,0-.07,0-.11-.06-.08s0,.15,0,.22-.06,0-.14-.29Z"/><path d="M78.72,46.74c0-.28,0-.38.07-.31s0,.19,0,.22,0,0,0-.09c0-.3.09-.34.12.19v.09c0,.52-.09.49-.13.18,0-.07,0-.12,0-.09s0,.15,0,.21,0,0,0-.31Z"/><path d="M80,48.32q.23.36.15.27L80,48.41l0,.09c.16.26.16.3-.13-.15l0-.07c-.27-.45-.24-.43-.07-.18l0,.08L79.73,48c0-.06,0,0,.19.26Z"/><path d="M79.93,48.2c-.15-.24-.19-.33-.14-.28l.13.18s0,0,0-.09c-.14-.27-.14-.31.16.12l0,.07c.26.46.22.44,0,.2,0-.06-.07-.1-.06-.07l.1.19c0,.07,0,0-.2-.25Z"/><path d="M62.35,68.93a.74.74,0,0,1-.05-.32s0-.11.11,0l.41.5a.19.19,0,0,0-.14-.11s0,0,0,0l-.18-.14a.61.61,0,0,0,0-.3.66.66,0,0,0,.39.15l.08,0c.22.2.2.44.08.54a.38.38,0,0,1-.49-.1L62.37,69c0-.06.05-.1,0-.16a.43.43,0,0,1,0-.24l.41.49c0,.1,0,.09-.1.08A.66.66,0,0,1,62.4,69Z"/><path d="M62.47,66.48c-.16-.24-.2-.33-.14-.29a1.53,1.53,0,0,0,.17.14s0,0,0-.1c-.15-.26-.13-.32.24.06l0,.06c.29.45.23.45,0,.25-.06,0-.1-.08-.09,0s.08.13.1.19-.05,0-.25-.2Z"/><path d="M63.3,68.29c0-.3-.15-.35-.08-.32a.52.52,0,0,0,.22.06s0-.07-.06-.11a1.63,1.63,0,0,0-.21-.1.77.77,0,0,0,.32-.26l.06-.06a.37.37,0,0,1,.51.17.33.33,0,0,1-.23.36c-.09,0-.15.06-.14.12s.08.16.09.25-.25.2-.45,0Z"/><path d="M63.12,67.13c.1-.26.11-.35.15-.36s.3.22.26.08-.23-.15-.24-.13,0,.08.11,0l-.08-.58a1.26,1.26,0,0,1,.32.13l0,.07a1.06,1.06,0,0,1,0,.34l-.07-.58a.44.44,0,0,1,.47.45c0,.22-.18.4-.32.47s-.06.35-.22.47-.35,0-.45-.25Z"/><path d="M63.34,64.52c.16-.25,0-.38,0-.29a.32.32,0,0,0,.07.2s0,0,0-.09-.19-.12-.2-.08.13.16.39,0l.08,0c.28,0,.4.16.38.29a.24.24,0,0,1-.34.13c-.08,0-.12-.06-.14,0a.91.91,0,0,1,0,.25c-.09.1-.31,0-.22-.32Z"/><path d="M72.15,65.11a13.76,13.76,0,0,0-.21,2.31,4,4,0,0,0,0,1.19,9.84,9.84,0,0,0,.42,1.18A2.7,2.7,0,0,1,72,72.38a3.35,3.35,0,0,0-1,2l-.08,0c-.62-.77-.15-1.9.26-2.54a3.17,3.17,0,0,0,.76-2,3.24,3.24,0,0,0-.22-1.18,7,7,0,0,1-.49-1.21,2.65,2.65,0,0,1,.85-2.41Z"/><path d="M72.68,71.35a1.65,1.65,0,0,1,0,1.07,2.74,2.74,0,0,0-.29.49,1.15,1.15,0,0,0,0,.55,1.82,1.82,0,0,1-.07,1.17c-.2.44-.53.49-.69.8l-.07,0c-.24-.13-.23-.48-.19-.67l.11-.5a4.71,4.71,0,0,1,.45-.9.91.91,0,0,0,.16-.52A4.59,4.59,0,0,0,72,72.3a1.08,1.08,0,0,1,.59-1Z"/><path d="M73.3,72.35c0,.32.31.27.19.15l-.13-.3c-.13.07-.1.26-.07.15s-.05-.22-.08-.22c-.06-.16,0-.06.39,0l.08,0c.27.27.2.54,0,.56s-.29,0-.38-.11-.16.08-.37.08h0l-.12-.3c-.1-.26.3-.45.47-.17Z"/><path d="M73.83,69.76a.16.16,0,0,0,.22.17c.08,0,.11-.09.06-.12a.25.25,0,0,0-.21,0s0,0,0-.1a.19.19,0,0,0-.06-.22,1.42,1.42,0,0,0,.19.37l0,.08c.06.26,0,.38-.07.44a.27.27,0,0,1-.3-.25c0-.1,0-.17-.07-.19a.6.6,0,0,1-.25-.13c-.05-.07,0-.18.1-.24s.3-.06.33.1Z"/><path d="M74.23,71.68c0,.28,0,.38-.08.34l-.1-.2s0,0-.06.06l.15-.3a.57.57,0,0,0,.21-.13.77.77,0,0,0-.16.38l0,.08c-.15.23-.31.27-.4.22a.26.26,0,0,1,0-.35l.15-.3c0,.07,0,.08.07,0l0-.22s.09,0,.18.3Z"/><path d="M78.1,73.59c0-.28,0-.38,0-.31a1.71,1.71,0,0,0,.07.21s0,0,0-.1c0-.31-.13-.31.22.1l0,.07c.23.48,0,.54-.13.27,0-.06-.08-.1-.09-.08l0,.23c0,.08-.11,0-.14-.3Z"/><path d="M79,73.75c-.1-.27-.12-.37-.08-.31s.1.16.12.19,0,0,0-.1c-.09-.29-.07-.34.19.12l0,.08c.18.5.13.48,0,.22,0-.06-.07-.1-.07-.07a1.91,1.91,0,0,1,.06.21c0,.07,0,0-.18-.26Z"/><path d="M80,74.85c.09-.29.16-.4.27-.34s.13.16.19.18.09,0,.12-.13c.12-.34.22-.42.65,0l0,.08c0,.57-.26.66-.57.42-.07-.05-.14-.08-.19-.05s-.08.18-.13.25-.25,0-.38-.28Z"/><path d="M42.82,56.54a2.23,2.23,0,0,1,1.71.69c.2.25.33.56.49.79a2.66,2.66,0,0,0,.66.59c.5.35,1,.61,1.43,1A2.67,2.67,0,0,1,48,61.25l-.08,0-1.42-1a4.22,4.22,0,0,1-1.17-1.37,2.71,2.71,0,0,0-.52-.72,3.07,3.07,0,0,0-.76-.44,5.73,5.73,0,0,1-1.28-1.16Z"/><path d="M46.14,57.62a.66.66,0,0,1,.27-.17c.05,0,.11,0,.09.08h-.34c-.06.13.07.2.07.18s-.06,0,0,.13l.3,0c.13.09.24,0,.21-.06s-.23-.07-.3.21l0,.08a.34.34,0,0,1-.56-.13.39.39,0,0,1,.34-.48l.29,0a.52.52,0,0,1,.06.31c0,.06.1.21,0,.37h-.34c-.09.06-.1,0-.12-.05a.91.91,0,0,1,.07-.32Z"/><path d="M47.87,58.93c-.13.3.14.34.06.24s-.19,0-.2,0,.08,0,.13,0-.06-.19,0-.24a.62.62,0,0,1,.58.18v.08c0,.29,0,.39-.13.52a.52.52,0,0,1-.7-.11,1.59,1.59,0,0,0-.17-.27c-.07-.06-.24-.15-.26-.34,0-.35.51-.52.65-.17Z"/><path d="M6.84,86.6a4.63,4.63,0,0,1,2.68-1.35c1.05-.06,2,.37,3,.33a12.26,12.26,0,0,1,2.92.22c.93.19,1.83.38,2.8.63v.08a6,6,0,0,1-3,.18c-1-.2-1.86-.52-2.8-.8A7.66,7.66,0,0,0,9.61,86c-.88.1-1.74.46-2.73.68Z"/><path d="M11.64,78.34a3.65,3.65,0,0,1,.54,2,9.35,9.35,0,0,0-.11,1,2.61,2.61,0,0,0,.27,1,12.48,12.48,0,0,0,1,1.69,6,6,0,0,0,1.26,1.49l0,.08a2.49,2.49,0,0,1-2-1,3.79,3.79,0,0,1-.69-2.11,5.23,5.23,0,0,0-.09-1.06c-.07-.35-.23-.69-.32-1a5.34,5.34,0,0,1,.09-2.1Z"/><path d="M15.33,85.25a14.25,14.25,0,0,1-.42-2.17A4.63,4.63,0,0,0,14.82,82a4.87,4.87,0,0,0-.54-1A2.4,2.4,0,0,1,14,79.73a5.28,5.28,0,0,0-.07-1c-.08-.65-.35-1.34-.5-2.13l.08,0a3.85,3.85,0,0,1,1.31,2c.19.91-.19,1.63-.12,2.26a7.77,7.77,0,0,0,.88,2.12,3.15,3.15,0,0,1-.2,2.33Z"/><path d="M17.11,78.53A2.09,2.09,0,0,1,18,80c0,.3-.06.6-.06.88a4.21,4.21,0,0,0,.14.84,3.31,3.31,0,0,1,0,1.74c-.16.51-.4.81-.09,1.31l0,.08a.85.85,0,0,1-.76-.65,2.11,2.11,0,0,1,0-1c.14-.5.26-1,.43-1.51a1.72,1.72,0,0,0,.05-.81,3.61,3.61,0,0,0-.36-.74,4.43,4.43,0,0,1-.29-1.6Z"/><path d="M17,74.8a1.68,1.68,0,0,1,1.3.59c.15.21.22.47.34.67a4.87,4.87,0,0,0,.46.58A2.85,2.85,0,0,1,19.71,78a3.35,3.35,0,0,1-.13,1.42l-.09,0a3.39,3.39,0,0,1-.68-1.26,8.51,8.51,0,0,1-.12-1.31,1,1,0,0,0-.25-.6,2.23,2.23,0,0,0-.59-.32,2.24,2.24,0,0,1-.88-1Z"/><path d="M16.12,86.38a36.41,36.41,0,0,0,4.18,1.38,4.86,4.86,0,0,0,2.15.09,19.69,19.69,0,0,0,2.16-.65A4.35,4.35,0,0,1,27,87a13.31,13.31,0,0,1,2.16.81,5.38,5.38,0,0,0,4.14.16l0,.08a4.47,4.47,0,0,1-4.52.6c-.74-.29-1.37-.67-2-.87a5.14,5.14,0,0,0-2.08-.15,14.44,14.44,0,0,0-2.2.48,6.34,6.34,0,0,1-2.31.33,7.88,7.88,0,0,1-4.12-2Z"/><path d="M56.09,73.09a9.55,9.55,0,0,1,1.95.77,5.51,5.51,0,0,0,.92.53,3,3,0,0,0,1,.1c1.42-.15,2.63-.34,4.12-.41l0,.08a4.15,4.15,0,0,1-4.22.79,7.83,7.83,0,0,0-1-.3c-.36-.06-.74-.05-1.11-.13A3,3,0,0,1,56,73.16Z"/><path d="M50.71,49.44a6.62,6.62,0,0,0-4.08-1.63,10.68,10.68,0,0,0-4.34.77c-1.37.5-2.85,1.21-3.46,2.59a8,8,0,0,0-.4,2.24A2.78,2.78,0,0,1,37,55.31a8,8,0,0,0-3,3.19,4.34,4.34,0,0,0,.2,4,5.73,5.73,0,0,1,.83,2.31,4.2,4.2,0,0,1-.62,2.41,6.12,6.12,0,0,1-3.91,2.55l0-.08a6.48,6.48,0,0,0,3.35-2.8,3.48,3.48,0,0,0,.39-2,6,6,0,0,0-.8-2,4.91,4.91,0,0,1-.71-2.38,5.29,5.29,0,0,1,.57-2.42,7.53,7.53,0,0,1,3.44-3.24,2.26,2.26,0,0,0,1.37-1.57,13.63,13.63,0,0,1,.41-2.29A6.51,6.51,0,0,1,42,47.93a9,9,0,0,1,4.66-.77,5.93,5.93,0,0,1,4.08,2.22Z"/><path d="M35.72,29.72A4,4,0,0,1,39,30a3.55,3.55,0,0,1,1.34,3.14,10,10,0,0,1-.84,3.2,13.7,13.7,0,0,0-1.21,2.95,2.16,2.16,0,0,0,.16,1.39,4.49,4.49,0,0,1,.79,1.51A5,5,0,0,1,39.13,44c-.07.53-.19,1-.28,1.58a54.55,54.55,0,0,1-1.51,6.28l-.08,0A55.91,55.91,0,0,1,38,45.35c.09-.53.17-1.07.28-1.6a4.54,4.54,0,0,0,.21-1.43c0-.42-.37-.76-.62-1.37a2.56,2.56,0,0,1,0-1.77c.35-1.08,1-2,1.38-3a7.44,7.44,0,0,0,.41-3.09,3.44,3.44,0,0,0-1-2.62,4.76,4.76,0,0,0-2.91-.72Z"/><path d="M30.75,27.09a1.77,1.77,0,0,1-.32,1.65,6.7,6.7,0,0,1-.68.54,3.36,3.36,0,0,0-.52.61c-.28.47-.69.82-.92,1.2s-.56.74-.91,1.22l-.08,0a2.11,2.11,0,0,1,.24-1.71,3,3,0,0,1,1.34-1,1.76,1.76,0,0,0,.65-.47,2.34,2.34,0,0,0,.28-.72,5.39,5.39,0,0,1,.83-1.29Z"/></g></g></svg>