<svg xmlns="http://www.w3.org/2000/svg" viewBox="0 0 99.72 139.87"><defs><style>.cls-1{fill:#8dc6ba;}</style></defs><g id="Layer_2" data-name="Layer 2"><g id="Ingredients_Map" data-name="Ingredients Map"><path class="cls-1" d="M85.71,48.24c-3.42-1.92-7.74-2.33-10.6-4.87s-4.35-4.2-8-3.94c-3.4.23-6.5-.83-9.45.87,0-1,0-2-.07-3a11.49,11.49,0,0,0-.1-1.18.56.56,0,0,0,.09-.6A5.1,5.1,0,0,1,57,33.59c0-.72.32-.56.93-.65a3.19,3.19,0,0,0,2.59-1.51.6.6,0,0,0-.23-.85,9.39,9.39,0,0,1-2.11-1.65c-.17-.18-.69-.6-.61-.85s1-.14,1.09-.15a16.69,16.69,0,0,0,4.82-.71A2.35,2.35,0,0,0,64.87,26a3.83,3.83,0,0,0-.18-1.89c-.3-1.72,1-2,1.74-3.29a2.81,2.81,0,0,0-.78-3.32c-.52-.52-1.16-.9-1.7-1.4a3.22,3.22,0,0,1-1-1.79c-.35-1.19-1.63-1.31-2.69-1.06a7.1,7.1,0,0,0-1.93.91l-1.23.76-.27.13a12.14,12.14,0,0,1-.19-3.42,5.64,5.64,0,0,0-.81-3c-.62-.93-1.64-1-1.18-2.33a4.45,4.45,0,0,0,.53-2.66c-.13-.49-.88-.59-1.29-.53a3.34,3.34,0,0,0-2.84,2.1,8.92,8.92,0,0,0-.36,1.44,3.08,3.08,0,0,1-.12.42c-.64-.93-1-2-2.08-2.58-.6-.32-1.37-.23-1.9-.64a4.25,4.25,0,0,1-.94-1.55c-.49-1-1-2.09-2.27-2.24-1.65-.2-3,1.17-4,2.29-.8.89-2.06,2.22-2.15,3.47-.08,1.08.92,1.62,1.71,2.11,1.17.73.92,2,.57,3.21-.07.25-.18.79-.42,1s-.62,0-1-.18a10,10,0,0,1-1.85-1.59c-.95-.88-2-1.69-3.35-1.51s-2.18,1.88-3.66,1C28,9,27.18,8.13,25.57,8.65a3,3,0,0,0-1.46.93l-.18-.06c-.46-.39-.85-.82-1.28-1.24a3.31,3.31,0,0,0-3.52-1,2.34,2.34,0,0,0-1.76,2.61c.31,1.72,2.18,1.86,3.24,2.89s.37,1.47-.42,2.13L18,16.69a6.63,6.63,0,0,1-1.14.93c.22.08.14.07-.26,0l-.69-.11a4.42,4.42,0,0,0-2,.34c-.09-.51-.84-.58-1.27-.54A4.48,4.48,0,0,0,9.4,19.05c-.81,1-1.24,2.38-2.59,2.78s-3,.7-3.87,2.11a2,2,0,0,0,.12,2.54A26.49,26.49,0,0,0,2.25,33l-.39,7.16c-.13,2.39-.3,4.78-.38,7.17-.06,1.59.31,3.11,2.14,3.32a6.31,6.31,0,0,0,2.24-.29c.84-.23,1.07-.16,1.51.62.64,1.14,1,2.31,2.41,2.61a4.94,4.94,0,0,0,4-1.39c.21-.16.41-.34.61-.5l.09-.06.43.44a4,4,0,0,0,1,.7A6.84,6.84,0,0,0,21,52.6c2.11-.76,3.91-1.72,6.19-1.88,4.07-.27,8,1.08,11.78,2.56-.1,0-.18,0-.29,0-3.39.94-6.89,2-9.54,4.4a15.25,15.25,0,0,0-4.41,9,24.45,24.45,0,0,1-1.06,5.45c-.54,1.35,1.2,5.48,2.29,6.17.73.46,3.61,5.87,4,5.48,2.47-2.25,1.93-5.65,1.79-8.64a31.14,31.14,0,0,1,.78-9.91A13.76,13.76,0,0,1,44,55.29c.78.29,1.57.58,2.36.84a36.48,36.48,0,0,1,6,2.16l.25.16a5.55,5.55,0,0,0-.84.37c-3,1.75-4.7,4.68-6,7.8-1.45,3.57-2.2,7-.25,10.58,1.75,3.2,2.06,5.94,6.47,8.07,2.11,1,4,3.45,5.8,4.92.81,1.16,4.68,2.23,5.23,2a10.91,10.91,0,0,0-2.32-2.85c-.18-.24-1.59-.87-1.72-1.18A19,19,0,0,1,57.24,83c-.42-3.56,2.66-6.78,3.12-10.29a30.22,30.22,0,0,0,.19-6.44c.3.3.58.6.88.89a100.44,100.44,0,0,0,10.44,9c1.89,1.42,3.84,2.77,5.82,4.06,1,.62,1.94,1.22,2.92,1.81.34.2,3.31,1.74,3,2.09-.44.58.37.94.81,1a2.23,2.23,0,0,0,1.91-.83c1.18-1.56-1.75-2.72-2.73-3.29q-2.7-1.57-5.28-3.32a96.71,96.71,0,0,1-10.17-7.86,100.06,100.06,0,0,1-7.94-7.88v-.05a4.74,4.74,0,0,0-1.76-3.43c-1.28-1.15-1.46-8.34-1.39-10,.49.85,3.52,5.8,4.32,6.39a8.13,8.13,0,0,0,4,1.73,38.22,38.22,0,0,0,6.44,1,38,38,0,0,0,12-1.44c4.6-1.29,9.09-2.42,13.25-4.77C97.9,50.93,89.06,50.11,85.71,48.24ZM52,56.15a36.29,36.29,0,0,1-7.22-1.94c-3.27-1.51-6.27-3.14-9.76-4s-6.92-1.64-10.48-1.12l.47-.28-.32-.25c.67-.43,1.56-.15,2.35-.24a5.86,5.86,0,0,0,2.33-1.09A18.22,18.22,0,0,1,32,45.82a4,4,0,0,1,1.61-.41c1.36,0,2.4,1.23,3.73,1.52a6.44,6.44,0,0,0,1.7,0,18.84,18.84,0,0,1,2.71.1,1.18,1.18,0,0,1,1.09.75,19.52,19.52,0,0,0,3.72,4.09,40.11,40.11,0,0,0,5.19,3.76C52,55.78,52.14,56,52,56.15Zm2.08-2c-.11.24-.47.13-.68,0a18,18,0,0,1-6-6.4l.41-.91c1.32,0,.57-2.57,2.29-3,1.27-.34,1.65-1.77,2.61-2.67a35.18,35.18,0,0,1,1.33,12.72C54.12,54,54.17,54.08,54.12,54.17ZM53.82,40c0-.06.27-.52.27-.6a.41.41,0,0,1,0-.21,6.17,6.17,0,0,0,0-2.93l1.51-.43c.52,1.11-.12,2.62,0,3.84.07.53.15,2,.23,2.49A20.49,20.49,0,0,1,53.82,40Z"/><path class="cls-1" d="M22.93,102h6.75v1.52h-5v3.63h4.87v1.53H24.64v3.7h5.2v1.51H22.93Z"/><path class="cls-1" d="M33.35,106.06v1a3.14,3.14,0,0,1,2.36-1.15,2.61,2.61,0,0,1,1.36.38,2.53,2.53,0,0,1,1,1,5,5,0,0,1,.33,2.1v4.48H36.81v-4.47a3,3,0,0,0-.37-1.71,1.38,1.38,0,0,0-1.23-.52,2.23,2.23,0,0,0-1.86,1.1v5.6H31.76v-7.84Z"/><path class="cls-1" d="M40.47,108.77a2.39,2.39,0,0,1,.92-2,3.88,3.88,0,0,1,2.5-.73h3.23v1.21H45.54a3.3,3.3,0,0,1,.64.85,2.23,2.23,0,0,1,.17.88,2.33,2.33,0,0,1-.34,1.2,2.53,2.53,0,0,1-.9.91,5.43,5.43,0,0,1-1.81.5c-.58.09-.87.29-.87.61a.53.53,0,0,0,.32.45,5.4,5.4,0,0,0,1.19.36,13.32,13.32,0,0,1,1.86.49,2.32,2.32,0,0,1,.74.52,1.88,1.88,0,0,1,.57,1.41,2,2,0,0,1-1,1.78,4.65,4.65,0,0,1-2.65.67,4.79,4.79,0,0,1-2.68-.67,2.08,2.08,0,0,1-1-1.8c0-1.06.66-1.74,2-2.05-.52-.34-.78-.67-.78-1a.88.88,0,0,1,.34-.68,2.12,2.12,0,0,1,.9-.45A2.58,2.58,0,0,1,40.47,108.77Zm2.55,5.5a2.27,2.27,0,0,0-1.28.33,1,1,0,0,0-.5.85c0,.81.73,1.21,2.18,1.21a3.48,3.48,0,0,0,1.6-.3.94.94,0,0,0,.57-.86c0-.36-.24-.66-.72-.89A4.28,4.28,0,0,0,43,114.27Zm.37-6.87a1.54,1.54,0,0,0-1.08.43,1.39,1.39,0,0,0-.44,1,1.32,1.32,0,0,0,.44,1,1.57,1.57,0,0,0,1.1.39,1.55,1.55,0,0,0,1.09-.4,1.33,1.33,0,0,0,.44-1,1.38,1.38,0,0,0-.44-1A1.6,1.6,0,0,0,43.39,107.4Z"/><path class="cls-1" d="M48.71,102h1.55V113.9H48.71Z"/><path class="cls-1" d="M57.78,109.19v3.33c0,.27.09.4.27.4a1.88,1.88,0,0,0,.88-.42v1a5.4,5.4,0,0,1-.85.46,1.9,1.9,0,0,1-.67.13c-.66,0-1.06-.27-1.18-.79a3.38,3.38,0,0,1-2.1.77,1.88,1.88,0,0,1-1.37-.54,1.85,1.85,0,0,1-.54-1.36,1.94,1.94,0,0,1,.53-1.33,3.56,3.56,0,0,1,1.51-.92l2-.68v-.42a1.25,1.25,0,0,0-1.41-1.42,3.43,3.43,0,0,0-2.48,1.32V107A3.24,3.24,0,0,1,55,105.9a3,3,0,0,1,2,.67,1.92,1.92,0,0,1,.46.57,2,2,0,0,1,.26.7A9.84,9.84,0,0,1,57.78,109.19Zm-1.53,3.16V110l-1,.4a3.37,3.37,0,0,0-1.12.64,1.06,1.06,0,0,0-.33.79,1.11,1.11,0,0,0,.31.8,1.13,1.13,0,0,0,.81.3A2,2,0,0,0,56.25,112.35Z"/><path class="cls-1" d="M62.2,106.06v1a3.14,3.14,0,0,1,2.36-1.15,2.67,2.67,0,0,1,1.37.38,2.44,2.44,0,0,1,.95,1,5,5,0,0,1,.33,2.1v4.48H65.66v-4.47a3,3,0,0,0-.37-1.71,1.37,1.37,0,0,0-1.22-.52,2.24,2.24,0,0,0-1.87,1.1v5.6H60.62v-7.84Z"/><path class="cls-1" d="M75,102h1.56V113.9H73.2a3.63,3.63,0,0,1-2.77-1.1,4.13,4.13,0,0,1-1-3A4,4,0,0,1,70.48,107a3.73,3.73,0,0,1,2.78-1.11,5,5,0,0,1,1.7.33Zm0,10.58v-5a3.27,3.27,0,0,0-1.47-.37,2.38,2.38,0,0,0-1.84.76A2.94,2.94,0,0,0,71,110a2.63,2.63,0,0,0,.6,1.86,1.76,1.76,0,0,0,.76.53,5.09,5.09,0,0,0,1.44.14Z"/><path class="cls-1" d="M0,124.05a.22.22,0,0,1,.23-.23h6a.22.22,0,0,1,.23.23v1.28a.22.22,0,0,1-.23.23H2a.12.12,0,0,0-.14.14v4.94c0,.1,0,.14.14.14H5.66a.22.22,0,0,1,.23.24v1.28a.22.22,0,0,1-.23.23H2a.12.12,0,0,0-.14.14v5.1c0,.1,0,.14.14.14H6.22a.22.22,0,0,1,.23.24v1.28a.22.22,0,0,1-.23.23h-6a.22.22,0,0,1-.23-.23Z"/><path class="cls-1" d="M8.37,124.05a.22.22,0,0,1,.23-.23H10a.22.22,0,0,1,.23.23v13.72a.12.12,0,0,0,.14.14h4.15a.22.22,0,0,1,.23.24v1.28a.22.22,0,0,1-.23.23H8.6a.22.22,0,0,1-.23-.23Z"/><path class="cls-1" d="M16.52,124.05a.22.22,0,0,1,.24-.23H20c2,0,3.15.83,3.66,2.47.28.86.37,1.91.37,5.45s-.09,4.59-.37,5.45A3.38,3.38,0,0,1,20,139.66H16.76a.22.22,0,0,1-.24-.23Zm2,13.86h1.3a1.86,1.86,0,0,0,2-1.35c.21-.65.3-1.51.3-4.82s-.09-4.17-.3-4.83a1.86,1.86,0,0,0-2-1.35h-1.3a.13.13,0,0,0-.14.14v12.07A.12.12,0,0,0,18.55,137.91Z"/><path class="cls-1" d="M26.43,124.05a.22.22,0,0,1,.23-.23h6a.22.22,0,0,1,.23.23v1.28a.22.22,0,0,1-.23.23H28.46a.12.12,0,0,0-.14.14v4.94c0,.1,0,.14.14.14h3.63a.22.22,0,0,1,.23.24v1.28a.22.22,0,0,1-.23.23H28.46a.12.12,0,0,0-.14.14v5.1c0,.1,0,.14.14.14h4.19a.22.22,0,0,1,.23.24v1.28a.22.22,0,0,1-.23.23h-6a.22.22,0,0,1-.23-.23Z"/><path class="cls-1" d="M40.67,139.66a.25.25,0,0,1-.26-.16l-2-6.62c-.21,0-.44,0-.65,0h-1a.13.13,0,0,0-.14.14v6.39a.22.22,0,0,1-.23.23H35a.22.22,0,0,1-.23-.23V124.05a.22.22,0,0,1,.23-.23H37.8c2.8,0,4.29,1.21,4.29,4.56,0,2.12-.7,3.4-1.94,4l2.22,7c.05.11,0,.23-.12.23Zm-.47-11.28c0-2.14-.7-2.82-2.38-2.82h-1a.13.13,0,0,0-.14.14v5.36a.12.12,0,0,0,.14.14h1C39.46,131.2,40.2,130.55,40.2,128.38Z"/><path class="cls-1" d="M44.42,124.05a.22.22,0,0,1,.23-.23h6a.22.22,0,0,1,.24.23v1.28a.22.22,0,0,1-.24.23H46.45a.13.13,0,0,0-.14.14v5a.13.13,0,0,0,.14.14h3.63a.22.22,0,0,1,.24.23v1.28a.22.22,0,0,1-.24.23H46.45a.13.13,0,0,0-.14.14v6.67a.22.22,0,0,1-.23.23H44.65a.22.22,0,0,1-.23-.23Z"/><path class="cls-1" d="M52.72,124.05a.22.22,0,0,1,.23-.23h1.42a.22.22,0,0,1,.24.23v13.72c0,.1,0,.14.14.14h4.14a.23.23,0,0,1,.24.24v1.28a.22.22,0,0,1-.24.23H53a.22.22,0,0,1-.23-.23Z"/><path class="cls-1" d="M60.92,137.52c-.23-.7-.3-1.29-.3-5.78s.07-5.08.3-5.78a3.74,3.74,0,0,1,7,0c.23.7.3,1.28.3,5.78s-.07,5.08-.3,5.78a3.74,3.74,0,0,1-7,0Zm5.15-.54c.14-.47.19-.82.19-5.24s-.05-4.78-.19-5.24a1.61,1.61,0,0,0-1.68-1.12,1.58,1.58,0,0,0-1.65,1.12c-.16.46-.21.81-.21,5.24s0,4.77.21,5.24a1.59,1.59,0,0,0,1.65,1.12A1.62,1.62,0,0,0,66.07,137Z"/><path class="cls-1" d="M78,139.66c-.14,0-.21-.09-.24-.23l-1.84-11.28h0l-1.91,11.28c0,.14-.1.23-.24.23H72.46c-.14,0-.21-.09-.24-.23l-2.51-15.38c0-.14,0-.23.18-.23h1.43a.23.23,0,0,1,.25.23l1.54,11.37h0l1.93-11.37c0-.16.09-.23.23-.23h1c.14,0,.21.07.23.23l1.94,11.37h0l1.59-11.37a.23.23,0,0,1,.25-.23h1.38c.16,0,.21.09.18.23l-2.51,15.38c0,.14-.1.23-.24.23Z"/><path class="cls-1" d="M83.76,124.05a.22.22,0,0,1,.24-.23h6a.22.22,0,0,1,.24.23v1.28a.22.22,0,0,1-.24.23H85.79a.13.13,0,0,0-.14.14v4.94a.12.12,0,0,0,.14.14h3.63a.23.23,0,0,1,.24.24v1.28a.22.22,0,0,1-.24.23H85.79a.13.13,0,0,0-.14.14v5.1a.12.12,0,0,0,.14.14H90a.23.23,0,0,1,.24.24v1.28a.22.22,0,0,1-.24.23H84a.22.22,0,0,1-.24-.23Z"/><path class="cls-1" d="M98,139.66a.25.25,0,0,1-.26-.16l-2-6.62c-.21,0-.44,0-.65,0h-1A.12.12,0,0,0,94,133v6.39a.22.22,0,0,1-.24.23H92.36a.22.22,0,0,1-.23-.23V124.05a.22.22,0,0,1,.23-.23h2.77c2.8,0,4.29,1.21,4.29,4.56,0,2.12-.7,3.4-1.93,4l2.21,7c0,.11,0,.23-.12.23Zm-.47-11.28c0-2.14-.7-2.82-2.37-2.82h-1a.12.12,0,0,0-.14.14v5.36c0,.1,0,.14.14.14h1C96.79,131.2,97.53,130.55,97.53,128.38Z"/><path d="M78.93,46a8,8,0,0,0,1,1.26,2.52,2.52,0,0,0,.58.64,1.84,1.84,0,0,0,.82.29,6.48,6.48,0,0,1,3.35,1.19s0,0,0,.06h0a5,5,0,0,1-3.49-.85,5.21,5.21,0,0,0-.78-.47,8.39,8.39,0,0,1-.89-.37A1.59,1.59,0,0,1,78.85,46s0,0,.05,0l0,0"/><path d="M73.93,50.38a2.64,2.64,0,0,1,1.29,1.26c.12.28.18.58.32.84a2.28,2.28,0,0,0,.58.66,26,26,0,0,0,2.71,2,0,0,0,0,1,0,.06,0,0,0,0,1,0,0A2.48,2.48,0,0,1,77,54.85a3.41,3.41,0,0,1-1.19-1.45,3.85,3.85,0,0,0-.44-.77c-.19-.23-.45-.42-.66-.63a4.15,4.15,0,0,1-.79-1.57,0,0,0,0,1,0-.06s0,0,0,0"/><path d="M55.75,35.56a3.35,3.35,0,0,1,.5,1.74A5.82,5.82,0,0,1,56,39a3,3,0,0,0,0,1.69,3.77,3.77,0,0,1,.18,1.85.33.33,0,0,1-.4.26l-.08,0,0,0A4.3,4.3,0,0,1,54,41.17c-.4-.65-.73-1.27-1.13-1.92a0,0,0,0,1,0-.06h0a6.38,6.38,0,0,1,1.71,1.51,8,8,0,0,0,1.47,1.45l-.53.22a4.5,4.5,0,0,0,.21-1.6c0-.57-.15-1.16-.21-1.76a6.67,6.67,0,0,1,0-1.73,13.27,13.27,0,0,0,.09-1.69,0,0,0,0,1,0,0h0"/><path d="M51.69,39.4a5.53,5.53,0,0,1,2.45,3.29,13.64,13.64,0,0,1,.46,4.09,32.12,32.12,0,0,0,.18,4,31,31,0,0,1,.28,4.09.34.34,0,0,1-.35.33h-.08A7.12,7.12,0,0,1,52,53.81a24.56,24.56,0,0,1-2.1-2L48,49.74a3.69,3.69,0,0,1-.72-1.29,7.36,7.36,0,0,0-.69-1.21,0,0,0,0,1,0-.06s0,0,0,0a8.34,8.34,0,0,1,1,1.09,3.17,3.17,0,0,0,.8,1.08c.7.59,1.41,1.29,2.08,1.92s1.34,1.3,2,1.89a6.91,6.91,0,0,0,2.25,1.4l-.42.31a29.9,29.9,0,0,0,.12-4,38.91,38.91,0,0,0-.4-4c-.21-1.35-.27-2.69-.56-4a7,7,0,0,0-1.89-3.39.06.06,0,0,1,0-.06s0,0,0,0"/><path d="M41.38,46c1.81,1.78,3.64,3.52,5.54,5.18s3.84,3.26,5.86,4.79h0a.21.21,0,0,1,0,.29.25.25,0,0,1-.17.08,27.85,27.85,0,0,1-8-1.74c-2.58-.89-5.09-1.94-7.62-2.86a36.11,36.11,0,0,0-7.82-1.81,19.83,19.83,0,0,0-4-.11,6,6,0,0,0-3.64,1.43,0,0,0,0,1-.05,0,0,0,0,0,1,0,0,5.87,5.87,0,0,1,3.64-1.86,16.33,16.33,0,0,1,4.13-.13,31,31,0,0,1,4.07.61A20,20,0,0,1,37.33,51c2.56,1,5,2.2,7.49,3.23a17.83,17.83,0,0,0,7.83,1.69l-.11.38a40.71,40.71,0,0,1-6.06-4.64A43.59,43.59,0,0,1,41.32,46a0,0,0,0,1,0-.06s0,0,.05,0"/><path d="M23.76,52.05a2.21,2.21,0,0,1,1.61-1.49,5.52,5.52,0,0,1,2.2-.21c.73.09,1.42.29,2.12.42s1.4.24,2.11.33a22.17,22.17,0,0,1,4.17,1A16,16,0,0,1,39.8,54a0,0,0,0,1,0,.06s0,0,0,0l-4.06-1.2-4-1.35a9.74,9.74,0,0,0-2.05-.5,13.4,13.4,0,0,0-2.1,0,14.77,14.77,0,0,0-2,.15,2.44,2.44,0,0,0-1.7.92s0,0,0,0a0,0,0,0,1,0,0"/><path d="M38.82,54.63c-3.14-.21-6.5.2-8.94,2.16a8.51,8.51,0,0,0-2.68,3.69A13.77,13.77,0,0,0,26.38,65c-.1,3.14,1,6.19,1.94,9.24.37,1.55,1.3,2.86,1.79,4.43A3.51,3.51,0,0,1,30,81.14a15.22,15.22,0,0,0-1,2.16L29,83.1c.82.42,1.41-.5,1.63-1.32a13,13,0,0,0,.47-2.65,38,38,0,0,0,0-5.44,23.13,23.13,0,0,1,.21-5.56,11.81,11.81,0,0,1,2.5-5,24.7,24.7,0,0,1,8.77-6.76A11,11,0,0,1,48.12,56a12.36,12.36,0,0,1,5.15,1.93s0,0,0,.05,0,0-.05,0a13.38,13.38,0,0,0-5.16-1.59,10.62,10.62,0,0,0-5.27.48,27,27,0,0,0-8.35,6.72,11.78,11.78,0,0,0-2.37,4.69,22.75,22.75,0,0,0-.28,5.37,37.8,37.8,0,0,1-.21,5.52A13.55,13.55,0,0,1,31,81.92a3.19,3.19,0,0,1-.73,1.25,1.2,1.2,0,0,1-1.45.23h0a.17.17,0,0,1-.08-.19A17.48,17.48,0,0,1,29.79,81a3.31,3.31,0,0,0,.08-2.26c-.44-1.5-1.45-2.84-1.85-4.41-1.05-3-2.38-6-2.31-9.33s1.1-6.71,3.8-8.72,6.2-2.23,9.32-1.76c0,0,0,0,0,0s0,0,0,0"/><path d="M51.5,58.85A7.13,7.13,0,0,0,47,62.15a14.94,14.94,0,0,0-1.91,5.33,25.28,25.28,0,0,0-.3,5.7,20.64,20.64,0,0,0,1,5.59,12.88,12.88,0,0,0,3.33,4.55,32,32,0,0,0,4.64,3.43c1.66,1,3.17,2.25,4.76,3.33a14.06,14.06,0,0,0,5.13,2.42l-.26.42a43.37,43.37,0,0,0-3.62-3.54,8.15,8.15,0,0,1-2.54-4.57,19.48,19.48,0,0,1,1.8-10.12,29.43,29.43,0,0,0,2-9.81A12.29,12.29,0,0,0,60.17,60a6.28,6.28,0,0,0-3.45-3.45,0,0,0,1,1,0-.07,6.36,6.36,0,0,1,3.76,3.36,12.69,12.69,0,0,1,1.1,5A27.28,27.28,0,0,1,59.82,75,20,20,0,0,0,58,84.69,7.51,7.51,0,0,0,60.3,88.9a43,43,0,0,1,3.54,3.7h0a.26.26,0,0,1-.05.36.29.29,0,0,1-.22,0c-3.94-1-6.69-4-9.91-6.06a37.17,37.17,0,0,1-4.75-3.37A13.23,13.23,0,0,1,45.27,79a22.34,22.34,0,0,1-.75-11.63,14.38,14.38,0,0,1,2.16-5.46,7.16,7.16,0,0,1,4.81-3.14,0,0,0,0,1,0,0s0,0,0,0"/><path d="M55.76,60.26a27.11,27.11,0,0,1,.73,5.88c0,1-.11,2-.15,3l-.05,3a30.07,30.07,0,0,1-1.08,5.82,8.57,8.57,0,0,0,.53,5.58,0,0,0,0,1,0,.06s0,0,0,0a7.18,7.18,0,0,1-1.28-2.72,7.39,7.39,0,0,1,0-3.07c.42-2,1.14-3.78,1.47-5.7a16.79,16.79,0,0,0,.22-2.93c0-1-.15-2-.25-2.93a50.37,50.37,0,0,1-.15-5.9,0,0,0,0,1,0,0s0,0,0,0"/><path d="M23.93,69.15a21.37,21.37,0,0,1-.29,3.71,6.57,6.57,0,0,0-.16,1.82,3.38,3.38,0,0,0,.67,1.66,9.46,9.46,0,0,0,2.78,2.25,4.4,4.4,0,0,1,2.16,3.13,0,0,0,0,1,0,0l0,0a6.11,6.11,0,0,0-2.55-2.44,6.39,6.39,0,0,1-2.68-2.74,7.76,7.76,0,0,1-.55-1.84A9.43,9.43,0,0,1,23,72.81a11,11,0,0,1,.87-3.67,0,0,0,0,1,0,0,0,0,0,0,1,0,0"/><path d="M57.39,33.62c.85,1.75.49,3.77.38,5.53-.06.88-.09,1.84-.11,2.76l.07,2.79a35.11,35.11,0,0,1-.51,5.54c-.29,1.82-.59,3.62-.75,5.47a0,0,0,0,1,0,0s0,0,0,0a18,18,0,0,1,0-5.58c.26-1.85.64-3.65.9-5.46a14,14,0,0,0,.12-2.75c0-.94-.25-1.82-.29-2.79,0-1.9.5-3.66.19-5.49a0,0,0,0,1,.08,0"/><path d="M62.06,63.82a48,48,0,0,1,5.71,5.24c1.78,1.87,3.54,3.74,5.43,5.45a32.36,32.36,0,0,0,6.3,4.38,34.09,34.09,0,0,1,6.41,4.37.2.2,0,0,1,0,.27,1.29,1.29,0,0,1-.9.63,2.48,2.48,0,0,1-1,0,8,8,0,0,1-1.81-.65A24.74,24.74,0,0,1,79,81.56a68.74,68.74,0,0,1-5.91-4.51c-1.91-1.58-3.74-3.24-5.55-4.92S64,68.7,62.21,67a0,0,0,0,1,0-.06,0,0,0,0,1,0,0C66.1,70,69.8,73.3,73.61,76.42c1.91,1.55,3.82,3.1,5.82,4.52a33.32,33.32,0,0,0,3.08,2,8.61,8.61,0,0,0,1.64.68c.55.14,1.14.15,1.4-.27l0,.27a26.4,26.4,0,0,0-6.21-4.47A40.79,40.79,0,0,1,72.77,75a56.77,56.77,0,0,1-5.45-5.52c-1.73-1.92-3.42-3.85-5.31-5.6a0,0,0,0,1,0-.06h.05"/><path d="M58.14,40.84a7.42,7.42,0,0,1,4.68-2.46,16.26,16.26,0,0,1,5.39.11,18.49,18.49,0,0,1,5.13,1.68,24.23,24.23,0,0,1,4.35,3.19,22.39,22.39,0,0,0,4.25,3.09,34.9,34.9,0,0,0,4.9,2c3.36,1.13,6.85,1.86,10.25,2.92a.21.21,0,0,1,.14.26.22.22,0,0,1-.12.13A36.14,36.14,0,0,1,92,53.46c-1.7.48-3.29,1.33-5,1.89a40.7,40.7,0,0,1-10.64,2.19,32.15,32.15,0,0,1-10.83-1,10.06,10.06,0,0,1-4.72-2.73c-1.39-1.32-1.65-3.26-2.64-4.73,0,0,0,0,0-.05a0,0,0,0,1,0,0c1.1,1.45,1.51,3.32,2.86,4.5A9.54,9.54,0,0,0,65.6,56a36.07,36.07,0,0,0,10.62.73,46.07,46.07,0,0,0,10.46-2.08c1.69-.53,3.33-1.32,5.12-1.76a39.59,39.59,0,0,0,5.14-1.52l0,.39c-3.34-1.17-6.8-2-10.2-3.06a47.16,47.16,0,0,1-5-1.85,21.28,21.28,0,0,1-4.47-3A28.31,28.31,0,0,0,73,40.78a17.65,17.65,0,0,0-4.93-1.69,16.31,16.31,0,0,0-5.21-.3A7.39,7.39,0,0,0,58.2,40.9h-.06a0,0,0,0,1,0-.06"/><path d="M59.39,44.3a21.51,21.51,0,0,0,7.68,3.14,37.65,37.65,0,0,0,8.34,1.21,32.46,32.46,0,0,1,8.33,1.63c2.62.9,5.5.2,8.32.87,0,0,0,0,0,0s0,0,0,0a31.33,31.33,0,0,0-4.21.21,17.25,17.25,0,0,1-2.16,0,12.44,12.44,0,0,1-2.14-.39c-1.39-.33-2.73-.79-4.07-1.16a33.07,33.07,0,0,0-4.1-.83c-2.79-.48-5.61-.57-8.44-1a14,14,0,0,1-7.59-3.72,0,0,0,0,1,0-.06h0"/><path d="M63.9,46.17a3.16,3.16,0,0,1,1.23-1.61c.3-.17.64-.28.93-.44a5.85,5.85,0,0,0,.81-.6,4.24,4.24,0,0,1,3.84-1.05s0,0,0,.05,0,0,0,0a20.52,20.52,0,0,1-3.63,1.36,2.88,2.88,0,0,0-.88.43,6.5,6.5,0,0,0-.65.74A6,6,0,0,1,64,46.22a0,0,0,0,1-.05,0,0,0,0,0,1,0,0"/><path d="M71.16,47.93a1.69,1.69,0,0,1,.58-1.17c.18-.13.4-.22.57-.35a2.26,2.26,0,0,0,.4-.51,2.36,2.36,0,0,1,1-.95,1.69,1.69,0,0,1,1.39,0s0,0,0,.06v0A9.7,9.7,0,0,1,73,46.22a1.17,1.17,0,0,0-.5.37,3.91,3.91,0,0,0-.26.59,1.87,1.87,0,0,1-1,.8.06.06,0,0,1-.06,0v0"/><path d="M66.28,50a6,6,0,0,1,1,1.8,8.36,8.36,0,0,0,.27,1,3,3,0,0,0,.61.81c1,.94,1.91,1.72,2.89,2.76,0,0,0,0,0,.06l0,0a4.19,4.19,0,0,1-3.2-2.59,5.83,5.83,0,0,0-.48-.93c-.19-.29-.45-.55-.65-.84a3.54,3.54,0,0,1-.44-2,0,0,0,0,1,0,0l0,0"/><path d="M60.68,45.59a3.79,3.79,0,0,1,1.21,1.67c.11.33.15.68.28,1a3.14,3.14,0,0,0,.57.83c.94,1,1.78,1.75,2.81,2.75,0,0,0,0,0,.06h0a3.53,3.53,0,0,1-2-.82,4.28,4.28,0,0,1-1.18-1.77,5,5,0,0,0-.43-.94c-.18-.29-.43-.55-.63-.82a5.19,5.19,0,0,1-.7-1.93,0,0,0,0,1,0,0s0,0,0,0"/><path d="M38.2,58.17a13.86,13.86,0,0,1-2.56-.35,6.77,6.77,0,0,0-1.26-.29,3.67,3.67,0,0,0-1.27.2,17.39,17.39,0,0,0-4.32,2.56,0,0,0,0,1-.06,0v0a4.92,4.92,0,0,1,1.7-2.11A5,5,0,0,1,33,57.3c.45,0,.89,0,1.34,0s.89-.11,1.35-.11a4.77,4.77,0,0,1,2.5.92,0,0,0,0,1,0,.06l0,0"/><path d="M34.61,62a6.37,6.37,0,0,1-2.18.27,6.58,6.58,0,0,0-1.09-.08,2.66,2.66,0,0,0-1,.33,5.81,5.81,0,0,0-1.57,1.25,7.28,7.28,0,0,0-1.12,1.73,0,0,0,0,1-.06,0s0,0,0,0a2.86,2.86,0,0,1,.55-2.27,3.23,3.23,0,0,1,2.08-1.11c.39,0,.76-.09,1.12-.17s.72-.25,1.1-.32a4.07,4.07,0,0,1,2.22.31s0,0,0,.05l0,0"/><path d="M31.56,67a1.68,1.68,0,0,1-.89.63,2.09,2.09,0,0,0-.56.06.92.92,0,0,0-.4.36,3.09,3.09,0,0,1-1.58,1.41,0,0,0,0,1-.06,0s0,0,0,0a1.76,1.76,0,0,1,1.4-1.72,1.64,1.64,0,0,0,.52-.23c.15-.12.26-.31.41-.44a1.22,1.22,0,0,1,1.15-.11.05.05,0,0,1,0,.07h0"/><path d="M54.65,62.12c-1,.54-1.87,1.09-2.78,1.66a7.89,7.89,0,0,0-1.36.88,5.73,5.73,0,0,0-1,1.26c-1.13,1.88-2,3.75-3.07,5.74a0,0,0,0,1,0,0,.08.08,0,0,1,0,0,9,9,0,0,1,2.81-6c.4-.39.81-.77,1.19-1.18s.73-.85,1.16-1.23A5.25,5.25,0,0,1,54.63,62a0,0,0,0,1,0,0,.05.05,0,0,1,0,0"/><path d="M55.16,67.43a29.68,29.68,0,0,1-2.48,2.42A12.81,12.81,0,0,0,51.36,71a7.69,7.69,0,0,0-1,1.42c-1.08,2-1.95,4.1-3.12,6.16a0,0,0,0,1,0,0s0,0,0,0A11.27,11.27,0,0,1,50,72.14c.39-.44.78-.87,1.14-1.33s.68-1,1.06-1.43a8.13,8.13,0,0,1,2.89-2s0,0,0,0a0,0,0,0,1,0,.05"/><path d="M55.7,72.23a20.8,20.8,0,0,0-1.84,2.44A8.89,8.89,0,0,0,53,76a5.86,5.86,0,0,0-.46,1.49c-.33,2.07-.61,4-1,6.14a.05.05,0,0,1,0,0,0,0,0,0,1,0,0,9.25,9.25,0,0,1,.69-6.27c.23-.49.45-1,.64-1.47s.31-1,.54-1.52a4.38,4.38,0,0,1,2.37-2.17.07.07,0,0,1,.05,0,.06.06,0,0,1,0,0"/><path d="M26.11,44.21a1.76,1.76,0,0,0-.24-.38c-.07-.1-.18-.16-.2-.12s.1,0,.1,0,.05.07.13.12a.34.34,0,0,1,.1.47.32.32,0,0,1-.18.13l-.07,0c-.25.08-.44.11-.46.29a.3.3,0,0,0,.23.27A.81.81,0,0,0,26,45a.14.14,0,0,1,.17.07v0h0a.67.67,0,0,0,.59.52c.12,0,.2,0,.16,0s0-.05,0-.17a.35.35,0,0,1,.23-.44h.1c.24,0,.37-.16.37-.2l.21.52a2,2,0,0,1-.88-.69l0-.06a.3.3,0,0,1,.1-.4l0,0c.07,0,.12-.07.12,0s.07,0,0-.05a.53.53,0,0,0-.51-.2,0,0,0,0,1-.05,0s0,0,0,0a.68.68,0,0,1,.83-.1.55.55,0,0,1,.28.57.85.85,0,0,1-.35.47l.11-.48a3.45,3.45,0,0,0,.7.32.39.39,0,0,1,.21.49v0a1,1,0,0,1-.5.54,1.41,1.41,0,0,1-.58.14l.34-.46a.9.9,0,0,1-.23.82.75.75,0,0,1-.83.07,1.27,1.27,0,0,1-.66-1l.17.11a1.72,1.72,0,0,1-.6,0,.78.78,0,0,1-.59-.37.74.74,0,0,1,.11-.8,1.11,1.11,0,0,1,.63-.35l-.15.63a1,1,0,0,1-.35-.63c-.05-.33.37-.7.68-.55a.68.68,0,0,1,.42.51,1.44,1.44,0,0,1,0,.51s0,0-.05,0l0,0"/><path d="M21.64,48.23c-.05-.2-.24-.43-.31-.37s.1,0,.12,0,.05,0,.11,0h0l.08.42a.18.18,0,0,1-.14.22h-.1c-.19-.07-.36,0-.36.12s.29.24.5.13a.13.13,0,0,1,.16.05v.07a.41.41,0,0,0,.42.3c.08,0,.1,0,0,0s-.05,0-.08,0a.34.34,0,0,1,.18-.42h0l.12,0a.46.46,0,0,0,.17-.08l.21.52a1.49,1.49,0,0,1-.66-.55l-.06-.11a.25.25,0,0,1,.09-.34l.07,0c.05,0,.07,0,.06,0s.08.08.06,0a.36.36,0,0,0-.33-.19s0,0-.05,0a0,0,0,0,1,0,0,.49.49,0,0,1,.64-.11.46.46,0,0,1,.25.48.76.76,0,0,1-.28.4l.11-.48c.05,0,.22.07.48.18a.38.38,0,0,1,.21.48v0a.87.87,0,0,1-.42.46,1.16,1.16,0,0,1-.46.1l.34-.46a.81.81,0,0,1-.2.69.63.63,0,0,1-.7,0,1,1,0,0,1-.5-.81l.18.11a1.7,1.7,0,0,1-.45,0,.53.53,0,0,1-.35-.87,1.37,1.37,0,0,1,.44-.36l-.15.63h0a.82.82,0,0,1-.22-.54c0-.26.33-.5.54-.38a.47.47,0,0,1,.28.37,1.16,1.16,0,0,1,0,.37s0,0,0,0a.05.05,0,0,1,0,0"/><path d="M14.28,23.88a9.8,9.8,0,0,0-2.42,2,2.9,2.9,0,0,0-.61,1.29c-.09.45,0,1-.19,1.61-.44,1.39-2,1.3-2.33,2.26a4.79,4.79,0,0,0,0,1.56,1.26,1.26,0,0,1-.33.83,5.1,5.1,0,0,0-.57.54,2.4,2.4,0,0,0,.26,2.67A10.11,10.11,0,0,0,9,37.84a1,1,0,0,0,1.08.28,2,2,0,0,1,1,0,1.28,1.28,0,0,1,.83.7,3.36,3.36,0,0,1,.19,1.76,1.58,1.58,0,0,0,.29,1.32,2.55,2.55,0,0,0,1.39.54v.08a2.58,2.58,0,0,1-1.65-.31,2,2,0,0,1-.65-1.64,2.63,2.63,0,0,0-.24-1.38c-.21-.34-.42-.36-1-.24a2.24,2.24,0,0,1-1,0,1.64,1.64,0,0,1-.86-.56A12.67,12.67,0,0,1,7.44,37a2.84,2.84,0,0,1,.06-3.34,4.67,4.67,0,0,1,.67-.49.82.82,0,0,0,.28-.61,7.45,7.45,0,0,1,0-1.63c.48-1.14,1.9-1.41,1.95-2.33.11-.44,0-1,.15-1.59a3.5,3.5,0,0,1,.83-1.54,6.63,6.63,0,0,1,2.85-1.64Z"/><path d="M4.49,35.91A10.32,10.32,0,0,0,3,39.13c-.09.58-.1,1.19-.17,1.8s-.3,1.22-.41,1.79c-.53,2.3.45,4.75,1.17,7C3.82,51,5.16,51,6.06,50.4a4,4,0,0,1,.9-.46,1.38,1.38,0,0,1,1.21.16,2.68,2.68,0,0,1,1,1.84,2.1,2.1,0,0,0,.61,1.38,1.77,1.77,0,0,0,1.45.32,2.49,2.49,0,0,0,1.39-.86c.39-.46,1.33-.8,1.76-.2l-.06.05a.7.7,0,0,0-.77-.11,1.68,1.68,0,0,0-.63.53,2.89,2.89,0,0,1-1.55,1.19,2.47,2.47,0,0,1-2-.3,2.7,2.7,0,0,1-1-1.83,2.1,2.1,0,0,0-.65-1.33c-.28-.24-.72-.06-1.27.26a2.76,2.76,0,0,1-2,.37,1.57,1.57,0,0,1-.92-.6,2.34,2.34,0,0,1-.36-.94c-.26-1.2-.54-2.38-.89-3.55a9.06,9.06,0,0,1-.5-3.71c.11-.63.25-1.22.36-1.79s.14-1.21.26-1.83a7.51,7.51,0,0,1,2-3.12Z"/><path d="M13.53,49.87c.55,1.4,1.06,2.83,2.24,3.46a3.57,3.57,0,0,0,2.06.34,5.66,5.66,0,0,1,2.31.09,1.56,1.56,0,0,0,1.79-.13,2.34,2.34,0,0,0,.61-.75,4.07,4.07,0,0,1,.66-1,1.12,1.12,0,0,1,.68-.35c.22,0,.47,0,.65,0a2.54,2.54,0,0,0,1-.14,3.24,3.24,0,0,0,1.68-1.24l.07,0a2.92,2.92,0,0,1-1.51,1.78,3.11,3.11,0,0,1-1.2.33c-.35.07-.64,0-.76.21a5.81,5.81,0,0,0-.54.85,3.21,3.21,0,0,1-.87.93,2,2,0,0,1-1.27.38A2.51,2.51,0,0,1,20,54.16a3.28,3.28,0,0,0-2.11-.23,4.49,4.49,0,0,1-2.36,0,3.08,3.08,0,0,1-1.64-1.78,6.64,6.64,0,0,1-.41-2.27Z"/><path d="M21.6,47.26a10.22,10.22,0,0,0,2.12.17l1.09,0a2.34,2.34,0,0,1,1.16.15,3.65,3.65,0,0,0,2,.61,2.45,2.45,0,0,0,1.74-1,4.23,4.23,0,0,1,.69-.92c.41-.31.81-.27.94-.45a1.61,1.61,0,0,0,.16-1.6A8.22,8.22,0,0,1,30.86,42a1.93,1.93,0,0,1,.38-1.17,1.06,1.06,0,0,1,1.05-.48v.08A1.25,1.25,0,0,0,31.48,42a12.59,12.59,0,0,0,.81,1.93,2.19,2.19,0,0,1-.48,2.45c-.43.34-.87.25-1,.39a5.67,5.67,0,0,0-.74.7,4.15,4.15,0,0,1-4.26.73,2.64,2.64,0,0,0-1-.08c-.33,0-.7,0-1.09,0a4.94,4.94,0,0,1-2.12-.71Z"/><path d="M33.23,45.52a18.41,18.41,0,0,0,2.61,1.08,9.82,9.82,0,0,0,1.33.37,1.1,1.1,0,0,0,1.08-.31,2.45,2.45,0,0,1,.7-.42,1.37,1.37,0,0,1,.9,0c.49.19.9.4,1.1.28s.34-.48.28-.86-.3-.8-.45-1.3a1.78,1.78,0,0,1,0-.87.73.73,0,0,1,.91-.49,2,2,0,0,1,1.16,1.09,6.9,6.9,0,0,0,1.34,2.42,2.51,2.51,0,0,0,2.53.49A2.24,2.24,0,0,0,48.08,45a4.39,4.39,0,0,0-.1-.69.6.6,0,0,1,.22-.52,1,1,0,0,1,.44-.17A5.71,5.71,0,0,0,50,43.25a1.55,1.55,0,0,0,.84-2,3,3,0,0,0-1.71-1.74c-.41-.2-.8-.33-1.29-.53a2.13,2.13,0,0,1-1.28-1.16c-.2-.78.35-1.29.3-1.5s-.3-.4-.69-.9a1.05,1.05,0,0,1-.1-1,2.1,2.1,0,0,1,.55-.67,7.92,7.92,0,0,1,1.24-.84,2.81,2.81,0,0,1,1.5-.27c.4,0,.55-.27.65-.75a4.82,4.82,0,0,0-.22-2.73l.07,0A4.85,4.85,0,0,1,50.35,32a1.81,1.81,0,0,1-.22.77,1,1,0,0,1-.78.44,2.36,2.36,0,0,0-1.25.3c-.65.41-1.76,1.25-1.35,1.56a5,5,0,0,0,.46.45,1.21,1.21,0,0,1,.4.93c-.12.72-.44,1-.31,1.21s.42.48.82.63a10.29,10.29,0,0,1,1.33.56,3.71,3.71,0,0,1,2,2.29,2.45,2.45,0,0,1-.1,1.62,2.12,2.12,0,0,1-1.22,1.1,6.54,6.54,0,0,1-1.45.29c-.24,0-.27,0-.27.16a3.8,3.8,0,0,1,0,.72,2.67,2.67,0,0,1-1.73,2.31,3,3,0,0,1-2.8-.54,8.39,8.39,0,0,1-1.55-2.41c-.24-.37-.56-.73-.89-.77s-.19,0-.21.1a1.37,1.37,0,0,0,.08.53,11.19,11.19,0,0,1,.5,1.38,1.41,1.41,0,0,1-.69,1.61c-.73.25-1.22-.2-1.59-.3s-.6-.07-1,.24a1.93,1.93,0,0,1-.73.38,1.64,1.64,0,0,1-.83,0,13.83,13.83,0,0,1-1.37-.5,13,13,0,0,1-2.5-1.4Z"/><path d="M49.39,33.86A3.3,3.3,0,0,1,50.2,36c0,.78-.12,1.49.27,2,.75.92,2.45,2.15,3.1,1a2.63,2.63,0,0,0,.23-2,1.14,1.14,0,0,1,.43-1.17,2.08,2.08,0,0,1,1.17-.25,2.65,2.65,0,0,0,1.06-.1.66.66,0,0,0,.48-.72c0-.3-.29-.75,0-1.19a1.77,1.77,0,0,1,1.15-.44A4,4,0,0,0,60,32.36c.49-.39.17-.88-.28-1.51L58.45,29a1,1,0,0,1-.2-.39.66.66,0,0,1,.29-.67,1.61,1.61,0,0,1,.74-.17c.39,0,.77,0,1.14,0a6.32,6.32,0,0,0,2.07-.2c.6-.18,1.21-.68,1.21-1.18s-.81-1.06-.87-2,.77-1.42,1.34-1.84l0,.06c-.52.49-1.07,1.12-1,1.75s.9.95,1.08,2a2.17,2.17,0,0,1-1.56,1.94,6.13,6.13,0,0,1-2.33.31c-.37,0-.73,0-1.08,0l-.34,0s.1-.14.07-.19,0,0,.06.1l1.2,1.88a3.7,3.7,0,0,1,.55,1.09,1.28,1.28,0,0,1-.49,1.32,4.11,4.11,0,0,1-2.23.75,1.49,1.49,0,0,0-.93.23c-.2.19-.06.55,0,1a.91.91,0,0,1-.68,1,3.24,3.24,0,0,1-1.14.16,1.72,1.72,0,0,0-1,.24.76.76,0,0,0-.19.83,3,3,0,0,1-.1,2.37,1.61,1.61,0,0,1-1.1.79,1.92,1.92,0,0,1-1.29-.26A5.23,5.23,0,0,1,50,38.31,3.49,3.49,0,0,1,49.79,36a3.64,3.64,0,0,0-.46-2.07Z"/><path d="M17.37,23.13a4.94,4.94,0,0,1,1.2-1.26,2.64,2.64,0,0,1,1.76-.52,7.54,7.54,0,0,1,1.66.57,3.29,3.29,0,0,0,1.6.21,1.79,1.79,0,0,0,1.2-.72A4.92,4.92,0,0,1,26,20.14a3.88,3.88,0,0,1,3.44-.43v.08a5.61,5.61,0,0,0-2.95,1.05,6.34,6.34,0,0,0-1.16,1.07,2,2,0,0,1-1.74.65,9.71,9.71,0,0,1-1.69-.39,5,5,0,0,0-1.6-.16,6.9,6.9,0,0,0-2.89,1.18Z"/><path d="M14.59,22.3a4,4,0,0,1-.42-2.9,2.08,2.08,0,0,1,1.07-1.24,3.33,3.33,0,0,1,1.52-.26,6.13,6.13,0,0,0,1.36,0,1.47,1.47,0,0,0,1.08-.62c.21-.32.11-1,.69-1.28a6.81,6.81,0,0,1,1.43-.23.78.78,0,0,0,.46-.26.71.71,0,0,0,0-.48,1.89,1.89,0,0,1,.52-1.56,4.09,4.09,0,0,1,2.82-1.22,5.24,5.24,0,0,1,2.86.86,5.19,5.19,0,0,0,2.55,1v.08a4.35,4.35,0,0,1-2.83-.48,5.08,5.08,0,0,0-2.56-.57,3.77,3.77,0,0,0-2.31.88,1.26,1.26,0,0,0-.43,1,1,1,0,0,1-1.06,1.2c-.53.06-1-.11-1.38.07s-.36.65-.58,1.14c-.53,1-1.76,1.11-2.65,1.18s-1.71.25-2,1.06a5,5,0,0,0-.08,2.66Z"/><path d="M22.4,13.26c-.69-.49-1.58,0-2.46-.5a1.07,1.07,0,0,1-.48-.6c-.07-.24-.07-.46-.11-.62s-.09-.21-.21-.25a3,3,0,0,1-.63-.14,1.52,1.52,0,0,1,.13-2.62,3.44,3.44,0,0,1,1.28-.47,4.14,4.14,0,0,1,1.36-.13,1.67,1.67,0,0,1,1.12.93,4.36,4.36,0,0,0,.61,1,1.62,1.62,0,0,0,1,.49c.36.05.81,0,.9-.35a2,2,0,0,1,1.51-1.92,1.88,1.88,0,0,1,1.3.27,2.26,2.26,0,0,1,.82,1c.36.53,1.36.41,2.1.35a5.75,5.75,0,0,0,1.14-.26.86.86,0,0,0,.36-.23c.07-.07,0-.15.14-.47a.88.88,0,0,1,.81-.59,1.46,1.46,0,0,1,.8.2,3.8,3.8,0,0,1,1,.95c.55.69.91,1.46,1.41,2a2.36,2.36,0,0,0,1.81,1,4.35,4.35,0,0,0,2-1.11l.46-.34s0,0,0,0,0,0-.1-.07-.48-.18-.57-.57a.87.87,0,0,1,.32-.74c.69-.55,1.36-1,2-1.47l.05.06L40.54,9.76c-.12.13-.2.31-.16.37s.13.11.35.2a.69.69,0,0,1,.37.32.55.55,0,0,1-.11.58,5.93,5.93,0,0,1-.5.45,4.87,4.87,0,0,1-2.28,1.38,3,3,0,0,1-2.5-1.17c-.6-.68-1-1.43-1.46-2.06a3.07,3.07,0,0,0-.75-.77.92.92,0,0,0-.39-.12C33,9,33,9,33,9a1.85,1.85,0,0,1-.29.69,1.42,1.42,0,0,1-.69.42,6.86,6.86,0,0,1-1.31.21,7,7,0,0,1-1.3-.05,1.55,1.55,0,0,1-1.23-.69,2.06,2.06,0,0,0-.64-1,1.46,1.46,0,0,0-1.07-.27,1.59,1.59,0,0,0-1.29,1.71c-.17.56-.78.62-1.19.61a2.13,2.13,0,0,1-1.26-.49c-.68-.65-.9-1.61-1.54-1.62a3.53,3.53,0,0,0-1.1.15A4,4,0,0,0,19,9.11a1.05,1.05,0,0,0-.54.75c0,.31.06.65.28.73s.32.06.58.16a.83.83,0,0,1,.53.68c.05.51,0,.79.31,1,.55.46,1.61.13,2.28.78Z"/><path d="M38.84,8.48a3.71,3.71,0,0,1-.92-1.22,5.05,5.05,0,0,1-.27-.74,1.15,1.15,0,0,1,.09-.93,6.41,6.41,0,0,1,1.21-1c.37-.3.85-.58,1.18-.84s.37-.49.21-1a1.13,1.13,0,0,1,.06-.86A1.32,1.32,0,0,1,41,1.26a3.64,3.64,0,0,1,3-.15c1,.61,1.24,1.77,1.77,2.44a1.44,1.44,0,0,0,.93.65c.36,0,.84-.09,1.42-.1a1.42,1.42,0,0,1,1,.34,1.44,1.44,0,0,1,.43.87,7.37,7.37,0,0,1,0,1.55,2.21,2.21,0,0,0,.25,1.29A1,1,0,0,0,51,8.59l0,.07a1.17,1.17,0,0,1-1.5-.26A2.57,2.57,0,0,1,49,6.88c-.05-1-.07-2.08-.79-2A7.56,7.56,0,0,1,46.63,5a2.17,2.17,0,0,1-1.42-1c-.61-.93-.7-1.94-1.4-2.51a2.68,2.68,0,0,0-2.67,0,.71.71,0,0,0-.38,1,2.05,2.05,0,0,1,.23.81,1.28,1.28,0,0,1-.42.85,13.28,13.28,0,0,1-1.22.91,7.49,7.49,0,0,0-1.1.81c-.17.18-.07.76.06,1.19a5.19,5.19,0,0,0,.59,1.32Z"/><path d="M51.77,6.11c.07-.65.15-1.29.25-1.93a4.48,4.48,0,0,1,.22-1,1.3,1.3,0,0,1,1-.58,2.56,2.56,0,0,1,2,.75A2.39,2.39,0,0,1,56,5.38a7.91,7.91,0,0,0-.21,1.86,10.36,10.36,0,0,1,.38,1.92c0,.36-.22.65-.24.95s.15.46.47.5a2.24,2.24,0,0,1,.5.14.63.63,0,0,1,.37.49,4.64,4.64,0,0,1-.14,1,5.67,5.67,0,0,0,.06,1.84.9.9,0,0,0,.28.6s0,0,.13,0a2,2,0,0,0,.35-.22,8.57,8.57,0,0,1,1.64-1.18,3.67,3.67,0,0,1,2.14-.13c.33.06.65.14,1,.22a1.08,1.08,0,0,1,.64.38,1,1,0,0,1,.12.76c-.17.73-.39,1.18-.08,1.64a6.77,6.77,0,0,0,1.32,1.29,1.72,1.72,0,0,1,.62,1.84l-.08,0c.17-.64-.34-1.15-.8-1.51a6.11,6.11,0,0,1-1.58-1.25,1.66,1.66,0,0,1-.31-1.13c0-.37.13-.7.16-1a.37.37,0,0,0,0-.18s0,0-.2-.06c-.3-.08-.61-.15-.91-.2a3.28,3.28,0,0,0-1.69.09,9.73,9.73,0,0,0-1.52,1,3.72,3.72,0,0,1-.49.28.83.83,0,0,1-.79-.06,1.43,1.43,0,0,1-.53-1.1,5.44,5.44,0,0,1,.14-2,6.33,6.33,0,0,0,.22-.89c0-.24-.26-.33-.59-.39a.93.93,0,0,1-.5-.26.66.66,0,0,1-.15-.55c0-.35.18-.65.2-.94a6.4,6.4,0,0,0-.54-1.82,7.36,7.36,0,0,1,0-2,1.92,1.92,0,0,0-2-2.14c-.27,0-.55.08-.63.23a4.69,4.69,0,0,0-.28.85c-.17.62-.37,1.24-.57,1.86Z"/><path d="M28.26,36.28a2.2,2.2,0,0,1,.82-2.63,13,13,0,0,1,1.32-.49.81.81,0,0,0,.53-.95,1.37,1.37,0,0,1,.05-.79,1.54,1.54,0,0,1,.49-.65,6.89,6.89,0,0,1,1.17-.72,1.28,1.28,0,0,0,.7-.73,5.14,5.14,0,0,0,.19-1.26l.08,0a2.72,2.72,0,0,1,.34,1.4,1.75,1.75,0,0,1-.87,1.33c-.88.5-1.64.59-1.72,1.45a1.48,1.48,0,0,1-.83,1.17,5.22,5.22,0,0,0-1,.78,3.77,3.77,0,0,0-1.15,2.1Z"/><path d="M25.71,28.9a1.25,1.25,0,0,1,.9-.72c.21,0,.43,0,.62,0a2.53,2.53,0,0,0,.57-.15A2.15,2.15,0,0,1,29,28c.35.11.6.25,1,.41l0,.08a1.4,1.4,0,0,1-1.18.34,4.8,4.8,0,0,1-1-.34.72.72,0,0,0-.52,0,2.36,2.36,0,0,0-.44.34,1.52,1.52,0,0,1-1.1.18Z"/><path d="M6.81,28.44a5.59,5.59,0,0,1-1.91,2,2.92,2.92,0,0,0-.93.92,1.36,1.36,0,0,0,0,1.24c.15.37.66.63.57,1.47a1.19,1.19,0,0,1-.71.71,2.63,2.63,0,0,0-.5.29,1,1,0,0,0-.46.83c-.07.29.5.7.38,1.27H3.15c-.11-.43-.67-.48-.9-1.14a1.55,1.55,0,0,1,.53-1.62,2.27,2.27,0,0,1,.71-.39c.24-.08.28-.11.31-.16s-.15-.63-.27-1.13a2.6,2.6,0,0,1,.21-1.47A4.24,4.24,0,0,1,4.45,30a13.39,13.39,0,0,1,2.3-1.6Z"/><path d="M17.71,48.11a.8.8,0,0,0-1.07.27c-.06.12,0,.18.05.33a4.61,4.61,0,0,0,.49.44l.11.12a.18.18,0,0,1,0,.27.17.17,0,0,1-.19.05c-.18-.05-.46.15-.56.41s-.14.58,0,.7a.53.53,0,0,0,.57,0,1.09,1.09,0,0,0,.38-.52l.73.3c0-.14,0,0,.26.09a1,1,0,0,0,.57.07.51.51,0,0,0,.37-.3c.06-.14-.16-.37-.4-.54,0,0,0,0,0-.06h0a.83.83,0,0,1,.86.54,1,1,0,0,1-.57,1,1.46,1.46,0,0,1-1.14.07,1,1,0,0,1-.71-1.16l.73.3a1.61,1.61,0,0,1-.85.79,1,1,0,0,1-1.12-.36,1.08,1.08,0,0,1,0-1,1.22,1.22,0,0,1,.74-.77l-.08.44a2.25,2.25,0,0,1-.83-.42A.93.93,0,0,1,16.08,48a1,1,0,0,1,1.69.05,0,0,0,0,1,0,0h0"/><path d="M19.5,49.75c.21-.29.16-.43.28-.51A.34.34,0,0,0,20,49a.24.24,0,0,0-.21-.22,2.42,2.42,0,0,0-.49,0c-.12,0-.23-.17-.47.09v0s0,0-.06,0a.44.44,0,0,1-.09-.58.8.8,0,0,1,.52-.36.85.85,0,0,1,.92.53c.07.17.09.32.14.46a1,1,0,0,1,.16.52.56.56,0,0,1-.9.37.06.06,0,0,1,0-.07Z"/><path d="M5.17,47.41c-.45.05-.74.37-.68.65a.27.27,0,0,0,.39.23l.39.58a.45.45,0,0,0-.17.72.52.52,0,0,0,.53.11c.17-.06.28-.3.19-.36l.29-.06a.81.81,0,0,0,.48,0A.82.82,0,0,0,7,48.89c.09-.16,0-.17,0-.24a.51.51,0,0,0-.39,0l.14-.77s.21,0,.24-.05,0-.29-.13-.33L7,46.92c-.24,0-.13.12-.13.08s0-.09,0-.12a.28.28,0,0,0-.41,0s0,0-.06,0a.06.06,0,0,1,0,0A.49.49,0,0,1,7,46.57a.59.59,0,0,1,.31.37.53.53,0,0,1,0,.3.39.39,0,0,1-.41.21.28.28,0,0,1-.21-.33.29.29,0,0,1,.29-.21h0a.9.9,0,0,1,.78,1.15,1,1,0,0,1-1.41.49.42.42,0,0,1,.11-.76h0a1.17,1.17,0,0,1,1.15.3.91.91,0,0,1,0,1.23,1.34,1.34,0,0,1-.92.46,1.4,1.4,0,0,1-.5-.06.48.48,0,0,1-.38-.49v0A.16.16,0,0,1,6,49.08a.14.14,0,0,1,.12.09.57.57,0,0,1-.37.76,1,1,0,0,1-.81-.07A.94.94,0,0,1,5,48.23a.35.35,0,0,1,.47.15.37.37,0,0,1-.07.42h0A.88.88,0,0,1,3.91,48a.91.91,0,0,1,.52-.7.88.88,0,0,1,.76,0s0,0,0,0a0,0,0,0,1,0,0"/><path d="M9.05,48.32c.34.15.16.67-.06.82a1,1,0,0,0-.35.46c0,.14,0,.14.08.17a.84.84,0,0,0,.45,0l-.1.48c.22.09.12,0,.08,0a.25.25,0,0,0-.11.2.44.44,0,0,0,.39.41.6.6,0,0,0,.58-.17.4.4,0,0,0,.06-.46l.58-.16a.23.23,0,0,0,.17,0s.06,0,.08-.11a.13.13,0,0,0,0-.15.37.37,0,0,0-.19-.11l.06-.81c.25,0,.45,0,.48-.17s0-.2-.2-.28-.38-.16-.55-.25a0,0,0,0,1,0-.06l0,0a3.46,3.46,0,0,1,.65,0,.77.77,0,0,1,.65.52.88.88,0,0,1-.32.89,1.19,1.19,0,0,1-.86.2.41.41,0,0,1-.35-.46.42.42,0,0,1,.39-.35h0a1,1,0,0,1,.85.4.92.92,0,0,1,.12,1,.87.87,0,0,1-.85.54.83.83,0,0,1-.73-.64v0a.32.32,0,0,1,.24-.36.31.31,0,0,1,.36.24.88.88,0,0,1-.4.93,1.15,1.15,0,0,1-.88.13.9.9,0,0,1-.66-.61A.67.67,0,0,1,8.77,50a.47.47,0,0,1,.73-.16.23.23,0,0,1,.07.34l-.07.07-.1.07a1,1,0,0,1-1,.11.77.77,0,0,1-.37-1.06,1.25,1.25,0,0,1,.67-.57c.18-.09.36-.19.27-.41H9a0,0,0,0,1,0,0h0"/><path d="M8.16,45.33c0,.34,0,.66.13.78s.12.08.15.06a.48.48,0,0,0,.22-.11l.38.6c.07-.1,0,0,0,.12a.41.41,0,0,0,.5,0c.08-.07.32-.18.46-.09a.42.42,0,0,0,.29,0,.32.32,0,0,0,.23-.39.5.5,0,0,0-.11-.17s-.16-.06,0,0a.18.18,0,0,0,.12,0,.34.34,0,0,0,.1-.37.31.31,0,0,0-.31-.19c-.06,0-.07,0-.08,0l-.05,0v0s0-.06,0-.09a.44.44,0,0,0-.21-.45l-.3-.54c-.13.07.06.11,0,0s-.25-.13-.43,0c0,0,0,0-.06,0a.06.06,0,0,1,0,0,.52.52,0,0,1,.71-.33.54.54,0,0,1,.33.48.54.54,0,0,1-.43.53.31.31,0,0,1-.33-.5l0,0a.82.82,0,0,1,1.21,0,1.13,1.13,0,0,1,.3,1.08,1.48,1.48,0,0,1-.1.27l-.08.12a.8.8,0,0,1-.19.18.57.57,0,0,1-.26.08.45.45,0,0,1-.32-.8.46.46,0,0,1,.3-.09c.41,0,.46.23.59.38a.88.88,0,0,1,.1.55.78.78,0,0,1-.7.66A.74.74,0,0,1,9.91,47c-.1-.07-.11,0-.22.08a.88.88,0,0,1-.94.18.69.69,0,0,1-.08-1.18.36.36,0,1,1,.43.57h0l0,0a1,1,0,0,1-.67.19.75.75,0,0,1-.59-.47,1,1,0,0,1,.28-1.06,0,0,0,0,1,.06,0l0,0"/><path d="M9.15,33.57c-.21,0-.43.1-.47.23s0,.08.11.19a3,3,0,0,0,1.06.28.36.36,0,0,1,.3.4.37.37,0,0,1-.31.3h0a1.55,1.55,0,0,0-.68.24.7.7,0,0,0-.37.62c0,.24.39.29.62.15a.68.68,0,0,0,.35-.63l.47.12c0-.19,0-.09.13-.07a1,1,0,0,0,.29.08c.19,0,.41,0,.47-.1s0-.37-.32-.54l.42-.69c-.09,0,0,0,.14,0a.38.38,0,0,0,.18-.26c0-.08-.1-.24-.27-.3a1,1,0,0,0-.63,0,.05.05,0,0,1,0,0,.06.06,0,0,1,0,0,1.05,1.05,0,0,1,.72-.3.86.86,0,0,1,.79.49,1,1,0,0,1-.28,1,.85.85,0,0,1-1.14.13.41.41,0,0,1-.09-.57.41.41,0,0,1,.47-.14h0a1.3,1.3,0,0,1,.8.76A1,1,0,0,1,11.55,36a1.27,1.27,0,0,1-1.06.12,1.85,1.85,0,0,1-.45-.21c-.07-.09-.4-.18-.28-.65a.24.24,0,0,1,.29-.18.24.24,0,0,1,.18.28v0a1.18,1.18,0,0,1-.73.84.74.74,0,0,1-1-.32,1.16,1.16,0,0,1,.26-1.09,1.37,1.37,0,0,1,1-.55l0,.7a2.26,2.26,0,0,1-1.31-.56A.71.71,0,0,1,8.2,34a.51.51,0,0,1,.22-.45.78.78,0,0,1,.74,0,0,0,0,0,1,0,.06s0,0,0,0"/><path d="M12.23,29.13a2.21,2.21,0,0,1-.47.56.46.46,0,0,0-.14.37s.07,0,.22.07a.78.78,0,0,0,.45,0l.19.43a.39.39,0,0,0-.41.23c-.05.18-.11.38,0,.5a.3.3,0,0,0,.41,0,.31.31,0,0,0,.11-.29.22.22,0,0,1,.1-.29.22.22,0,0,1,.18,0l.39.16a.16.16,0,0,0,.22-.07.72.72,0,0,0,.1-.55l.65-.37c-.12-.11-.28,0-.26.1s.05.05-.07-.06a3.41,3.41,0,0,0-.7-.51,0,0,0,0,1,0-.06l0,0a1.73,1.73,0,0,1,1,.15.75.75,0,0,1,.25.13.56.56,0,0,1,.2.48.57.57,0,0,1-.95.34l.65-.37a1.26,1.26,0,0,1-.25,1.32.9.9,0,0,1-1.46-.22l.67-.14a.83.83,0,0,1-.65.75.75.75,0,0,1-.8-.34c-.2-.24-.09-.54-.05-.79a.91.91,0,0,1,.59-.61.23.23,0,0,1,.24.38l-.05,0a1,1,0,0,1-.85.35.83.83,0,0,1-.8-.72.89.89,0,0,1,.54-.79c.24-.12.46-.14.67-.24a0,0,0,0,1,.06,0v0"/><path d="M13.58,34.57a.72.72,0,0,0-.46.15c-.09.08-.08.2,0,.2s.2.12.58.11l.08.58a.69.69,0,0,0-.54.11.55.55,0,0,0-.22.53c0,.2.19.24.32.21a.38.38,0,0,0,.27-.21l.67.24s0,0,.09,0a.56.56,0,0,0,.26-.31l.66-.16c-.22-.13-.2,0-.19,0a.24.24,0,0,0,.11-.14.79.79,0,0,0-.15-.62,0,0,0,0,1,0-.06h0a.83.83,0,0,1,.6.68.68.68,0,0,1-.14.58.63.63,0,0,1-.33.22.55.55,0,0,1-.54-.15l.66-.16a1.12,1.12,0,0,1-.76,1,.82.82,0,0,1-1.05-.9l.67.25a.92.92,0,0,1-.95.37.67.67,0,0,1-.54-.73,1.31,1.31,0,0,1,.29-.74,1.27,1.27,0,0,1,.71-.49.27.27,0,0,1,.34.21.26.26,0,0,1-.15.31l-.1.05a1,1,0,0,1-.71.09.81.81,0,0,1-.63-.66.68.68,0,0,1,1.16-.53s0,0,0,.06h0"/><path d="M5.12,40.28a.67.67,0,0,0-.45.15c-.1.08-.08.2,0,.2s.19.12.57.11l.09.58a.68.68,0,0,0-.54.11.53.53,0,0,0-.22.53c0,.2.18.24.31.21A.35.35,0,0,0,5.1,42l.67.25s0,0,.1,0a.52.52,0,0,0,.25-.31l.66-.16c-.22-.13-.2,0-.19,0s.08-.06.11-.14a.74.74,0,0,0-.14-.62,0,0,0,0,1,0-.06h0a.87.87,0,0,1,.61.68.78.78,0,0,1-.14.59.65.65,0,0,1-.34.22.55.55,0,0,1-.54-.15L6.86,42A1.1,1.1,0,0,1,6.1,43a.83.83,0,0,1-1-.9l.67.25a.89.89,0,0,1-1,.36A.66.66,0,0,1,4.23,42a1.32,1.32,0,0,1,.3-.74,1.25,1.25,0,0,1,.71-.5.28.28,0,0,1,.33.22.28.28,0,0,1-.15.31l-.09.05a1.05,1.05,0,0,1-.72.09A.8.8,0,0,1,4,40.74a.67.67,0,0,1,.5-.71.68.68,0,0,1,.66.18s0,0,0,.06h0"/><path d="M7,31.19A.4.4,0,0,0,6.7,31c-.07,0-.09.08,0,.06s0,0,.13.23l-.46.36a.39.39,0,0,0-.18-.29.3.3,0,0,0-.35,0c-.11.06,0,.16,0,.19s.14,0,.14,0l.11.71a.12.12,0,0,0,.11-.16.23.23,0,0,0,.14,0l.46.5c0-.3-.12-.26-.14-.26s0,0,0,0,.23-.07.35-.22a0,0,0,0,1,.07,0v0a.59.59,0,0,1-.18.66.54.54,0,0,1-.45.13.5.5,0,0,1-.43-.64l.47.5a.85.85,0,0,1-1-.16.69.69,0,0,1,.25-1.13l.1.71a.7.7,0,0,1-.6-.53.53.53,0,0,1,.31-.63,1.13,1.13,0,0,1,.57-.07.88.88,0,0,1,.6.25.28.28,0,0,1,0,.39.27.27,0,0,1-.32,0l-.13-.07A.77.77,0,0,1,6,31.28a.65.65,0,0,1,.25-.7.53.53,0,0,1,.69.09.5.5,0,0,1,.08.5,0,0,0,0,1-.06,0H7"/><path d="M19.75,35.86a2,2,0,0,1-.11.54,3,3,0,0,0-.13.3c0-.09-.15,0,0,.1s.27,0,.39-.1L20,37c-.07,0,0,.26,0,.37s.06,0,0-.05-.08-.06.07-.06a.71.71,0,0,1,.29.07l.19.13s0,.08.09.11a.53.53,0,0,0,.49,0,0,0,0,0,1,.06,0v0a.63.63,0,0,1-.58.58.84.84,0,0,1-.5-.08l-.08,0h0a.77.77,0,0,1-.53-.18.61.61,0,0,1-.17-.63.77.77,0,0,1,.67-.58h0a.15.15,0,0,1,.15.13A.15.15,0,0,1,20,37c-.17,0-.31.14-.56.2a.59.59,0,0,1-.4-.07.5.5,0,0,1-.24-.48.82.82,0,0,1,.36-.56,1.79,1.79,0,0,1,.52-.25.07.07,0,0,1,.06,0Z"/><path d="M5.75,27.09a1.83,1.83,0,0,1-.5-.07L5,26.92c.11,0,0-.17-.07-.06s0,.24.09.34l-.27.09c0-.06-.23,0-.33,0s0,.06.09,0,.06-.1.06,0a.66.66,0,0,1-.05.29l-.12.17s-.07,0-.1.06a.47.47,0,0,0,0,.44,0,0,0,0,1,0,.06h0a.58.58,0,0,1-.56-.52.76.76,0,0,1,.06-.47l0-.07s0,0,0,0a.81.81,0,0,1,.17-.5.58.58,0,0,1,.6-.18.71.71,0,0,1,.53.63v0a.14.14,0,0,1-.13.15.13.13,0,0,1-.14-.1c0-.15-.13-.28-.2-.5a.48.48,0,0,1,0-.38.46.46,0,0,1,.45-.24.68.68,0,0,1,.52.33,1.12,1.12,0,0,1,.22.48.08.08,0,0,1,0,.06h0"/><path d="M39.27,42.91a2,2,0,0,1-.11.54,2.43,2.43,0,0,0-.13.29c0-.09-.15,0,0,.1s.27,0,.39-.09l.08.27c-.07,0,0,.26,0,.37s.06,0,0-.06-.08,0,.07,0a.58.58,0,0,1,.29.07l.19.13c0,.05,0,.07.09.11a.56.56,0,0,0,.49,0,0,0,0,0,1,.06,0v0a.64.64,0,0,1-.58.58.85.85,0,0,1-.5-.09l-.08,0s0,0,0,0a.83.83,0,0,1-.53-.18.62.62,0,0,1-.17-.64.76.76,0,0,1,.67-.57h0a.14.14,0,0,1,.15.13.14.14,0,0,1-.1.14c-.17,0-.31.14-.55.2a.55.55,0,0,1-.41-.06.51.51,0,0,1-.24-.48.79.79,0,0,1,.36-.56,1.39,1.39,0,0,1,.52-.25.05.05,0,0,1,.06,0Z"/><path d="M40.44,25.88a3,3,0,0,0,3.06-.79,6.13,6.13,0,0,0,.92-1.52,2.13,2.13,0,0,1,1.47-1.23,11.2,11.2,0,0,0,1.7-.41c.42-.2.5-.65.71-1.3a2.35,2.35,0,0,1,.54-.92,3.48,3.48,0,0,1,.84-.59c.6-.29,1.17-.44,1.74-.7l0,.07c-.89.94-2.21,1.35-2.37,2.41a5,5,0,0,1-.34.92,1.7,1.7,0,0,1-.86.79,5.59,5.59,0,0,1-1.94.16,1.37,1.37,0,0,0-1.31.91A8.47,8.47,0,0,1,44,25.5a2.5,2.5,0,0,1-3.62.45Z"/><path d="M37.83,38.6a4.15,4.15,0,0,0-.52.5c-.18.17-.2.35-.15.33a.54.54,0,0,0,.34.13.89.89,0,0,0,.43-.11l.2.57a.36.36,0,0,0-.4.15.75.75,0,0,0-.14.62c0,.23.24.34.38.25a.56.56,0,0,0,.17-.22.88.88,0,0,0,0-.15s0,0,0,0a.11.11,0,0,0,0,.07c0,.07.22.1.25,0l.1-.11a.26.26,0,0,0,.13.18s.09,0,.16,0,.09-.26,0-.38l-1-1.13,1.41.45a.41.41,0,0,0,.36,0,.36.36,0,0,0,.15-.34A.79.79,0,0,0,39.4,39l-.73-.38v-.08a4.54,4.54,0,0,1,.89.06,1.21,1.21,0,0,1,.84.6,1.06,1.06,0,0,1-.22,1.19,1.16,1.16,0,0,1-1.19.25l.45-.68a1.09,1.09,0,0,1,.26.85,1,1,0,0,1-.54.74.81.81,0,0,1-.91-.13.7.7,0,0,1-.14-.86v0l.1-.1c.06,0,.29,0,.33.07a.27.27,0,0,1,.07.15.35.35,0,0,1,0,.23,1.88,1.88,0,0,1-.12.18.92.92,0,0,1-.38.29c-.37.16-.68-.2-.73-.46a1.43,1.43,0,0,1,0-.87.91.91,0,0,1,.82-.61l.82-.06-.62.63a1.16,1.16,0,0,1-.93.32,1,1,0,0,1-.85-.61.62.62,0,0,1,.12-.61,1.34,1.34,0,0,1,.34-.27,1.7,1.7,0,0,1,.75-.24Z"/><path d="M38.86,36.65a3.92,3.92,0,0,0-.06-.52c0-.2-.14-.25-.09-.17s-.09,0-.15.11a1,1,0,0,0-.13.23l-.56-.23c.05,0,.14-.1.12-.23a.46.46,0,0,0-.23-.36c-.14-.1-.27,0-.28.06a.33.33,0,0,0,.05.18l.06.09s0,0,0-.05a.24.24,0,0,0-.08,0c-.07,0-.22.11-.21.16V36a.36.36,0,0,0-.09,0s0,0,0,.05.07,0,.14,0l1,.11-.85.68a.2.2,0,0,0-.07.3.51.51,0,0,0,.4,0l.58-.18,0,.06a2.34,2.34,0,0,1-.44.51.91.91,0,0,1-.81.2.87.87,0,0,1-.62-.78.94.94,0,0,1,.5-.89l.2.79a.9.9,0,0,1-.67-.31A.82.82,0,0,1,36.5,36a.69.69,0,0,1,.61-.5.6.6,0,0,1,.62.4V36c0,.08-.17.22-.26.19a.21.21,0,0,1-.15-.05.29.29,0,0,1-.12-.15,1,1,0,0,1,0-.17.71.71,0,0,1,0-.38.47.47,0,0,1,.67-.2,1.21,1.21,0,0,1,.52.44.78.78,0,0,1,0,.84l-.49.65-.07-.88a.88.88,0,0,1,.3-.74.79.79,0,0,1,.84-.18.48.48,0,0,1,.32.42.93.93,0,0,1,0,.35,1.13,1.13,0,0,1-.28.53Z"/><path d="M33.32,37.68c-.1.11-.09.26,0,.27l.05,0s0-.06-.08,0l.33.51a.93.93,0,0,0-.19.54.2.2,0,0,0,.13.22c.08,0,.21-.1.15-.18l.25,0a.19.19,0,0,0,.21.17.27.27,0,0,0,.24-.15.51.51,0,0,0,.06-.25s0-.13,0-.13,0,0,0,0a.3.3,0,0,0,.26.13l.3-.62c-.13-.16-.13-.07-.14-.08s.07-.07.07-.17-.26-.42-.69-.42l0-.07a.86.86,0,0,1,.67-.23.81.81,0,0,1,.7.47.86.86,0,0,1-.09,1,.72.72,0,0,1-1.18,0l-.38-.52.69-.09a.51.51,0,0,1,.47.24.66.66,0,0,1,.09.27.86.86,0,0,1,0,.37,1,1,0,0,1-.41.59.68.68,0,0,1-1.06-.49v-.79l.22.75a.48.48,0,0,1-.34.61.65.65,0,0,1-.72-.31.94.94,0,0,1,.45-1.32l.33.51a.47.47,0,0,1-.51,0,.49.49,0,0,1-.23-.36.41.41,0,0,1,.4-.44Z"/><path d="M45,42c-.28.3-.62.59-.67.86s0,.12,0,.1a1.31,1.31,0,0,0,.34,0l.13.68a.59.59,0,0,0-.44.15.46.46,0,0,0-.11.53.43.43,0,0,0,.5.23c.2,0,.28-.21.31-.42l.24.32c.19,0,.19-.13.18-.21s0-.06,0-.07a1,1,0,0,0,.2,0,.5.5,0,0,0,.32,0c.19-.11,0-.17.1-.11l.52-.56c-.1-.14-.06,0,0-.07a.18.18,0,0,0,.14-.2.61.61,0,0,0-.27-.4,2.53,2.53,0,0,0-.64-.29v-.08a1.61,1.61,0,0,1,.79,0,1,1,0,0,1,.73.59A.91.91,0,0,1,47.09,44a.82.82,0,0,1-1.24-.32l-.4-.86.92.31a.8.8,0,0,1,.54.9.9.9,0,0,1-.59.71,1.1,1.1,0,0,1-.78,0,1.24,1.24,0,0,1-.32-.17.69.69,0,0,1-.21-.26.33.33,0,0,1,.3-.43l.41-.06-.17.39a.92.92,0,0,1-.73.54.82.82,0,0,1-.77-.4.94.94,0,0,1-.07-.91,1.05,1.05,0,0,1,.8-.59l.14.68a1,1,0,0,1-.86,0,.66.66,0,0,1-.35-.49.77.77,0,0,1,.1-.47A1.64,1.64,0,0,1,45,41.91Z"/><path d="M44.05,39.12c.21.22.13.43,0,.43s-.18-.06-.22-.06,0,.08,0,.12.25,0,.12-.15a.13.13,0,0,0-.16,0,.13.13,0,0,0,0,.23l.07,0c.11.12,0,.31-.16.35a.42.42,0,0,1-.4-.06c-.26-.29-.1-.61.09-.65s.16,0,.17-.09,0-.18,0-.25.08,0,.35,0Z"/><path d="M44.26,40.18a1.29,1.29,0,0,0,.64.2.55.55,0,0,0,.39,0,.62.62,0,0,0,.3-.35h.26a.19.19,0,0,0,.15-.16s0,0,0-.11-.11-.38-.4-.73l0-.08a.94.94,0,0,1,.66,0,.91.91,0,0,1,.54.59.82.82,0,0,1-.33.88.63.63,0,0,1-.85-.15h.26a1.3,1.3,0,0,0-.39.35.94.94,0,0,1-.49.42c-.54.11-1-.44-.8-.87Z"/><path d="M45.65,26.62c0,.2-.1.39-.15.58a1.09,1.09,0,0,0-.11.44s.15.1.5-.06l1.59-.73-1.15,1.23a.34.34,0,0,0,.29.46.52.52,0,0,0,.46-.14c.13-.12.13-.33,0-.36l.19-.2a.54.54,0,0,0,.55.16.52.52,0,0,0,.34-.32.4.4,0,0,0-.35-.56l.11-.84a1.25,1.25,0,0,0,.22,0s0,.05,0,.07,0-.25-.12-.42A1.88,1.88,0,0,0,47,25.12V25a1.67,1.67,0,0,1,1.59.51,1.25,1.25,0,0,1,.39,1,.77.77,0,0,1-.57.58,1.35,1.35,0,0,1-.54,0l.1-.83a1.13,1.13,0,0,1,.92.64A1.07,1.07,0,0,1,48.78,28a1,1,0,0,1-.9.46,1.06,1.06,0,0,1-.79-.45l-.72-1,.91.81a.53.53,0,0,1,0,.75,1.14,1.14,0,0,1-.64.38.87.87,0,0,1-.8-.26.82.82,0,0,1-.13-.94l.44.5a1.33,1.33,0,0,1-.75.1.7.7,0,0,1-.58-.72,1.69,1.69,0,0,1,.35-.61,5.51,5.51,0,0,1,.41-.43Z"/><path d="M49.81,23.5c0,.21.26.26.27.2l-.25.39c.24.27-.1.2.15.52a.28.28,0,0,0,.23.1c.08,0,.18-.14.16-.06s0,0,0,.11a.23.23,0,0,0,.12,0,.29.29,0,0,0,.19-.2s0,0,0,0a.21.21,0,0,0,0,.13c0,.06.2.18.28.15a.35.35,0,0,0,.33-.31.36.36,0,0,0-.21-.37.26.26,0,0,0-.15,0h0s0,.05,0-.1a.42.42,0,0,0-.23-.31l.07-.35c-.07,0,0,0,0,.06s.06,0,0-.08l0-.07a.19.19,0,0,1,.14.27.27.27,0,0,1-.38.14l-.39-.18.46-.17a.79.79,0,0,1,.93.38A.77.77,0,0,1,51.15,25a.54.54,0,0,1-.33,0A.47.47,0,0,1,51,24a.49.49,0,0,1,.42.23.53.53,0,0,1,.08.31.76.76,0,0,1-.1.33.79.79,0,0,1-1,.34.47.47,0,0,1-.28-.52c0-.16.27-.45.54-.14,0,.32-.18.31-.32.41a.75.75,0,0,1-.47.06.71.71,0,0,1-.62-.84.78.78,0,0,1,.35-.5.51.51,0,0,1,.74.14l.42.55L50,24.23a.48.48,0,0,1-.31-.77Z"/><path d="M27.39,25c-.06-.2-.29-.23-.3-.17l.21-.42c-.28-.24.07-.21-.21-.5a.36.36,0,0,0-.25-.06c-.08,0-.16.15-.15.08s0-.05,0-.11a.28.28,0,0,0-.12,0,.29.29,0,0,0-.16.23s0,0,0,0a.2.2,0,0,0-.05-.13.34.34,0,0,0-.29-.12.35.35,0,0,0-.29.35.34.34,0,0,0,.25.34.25.25,0,0,0,.15,0h0s0,0,0,.11a.39.39,0,0,0,.26.27l0,.36c.06,0,0-.05,0-.06s-.06,0,0,.08l0,.07a.19.19,0,0,1-.17-.24.27.27,0,0,1,.36-.19L27,25l-.44.22a.8.8,0,0,1-1-.26.82.82,0,0,1,.12-1.19,1.11,1.11,0,0,1,.19-.09.61.61,0,0,1,.33,0,.49.49,0,0,1,.37.46.48.48,0,0,1-.41.47.56.56,0,0,1-.46-.18.65.65,0,0,1-.11-.3,1.09,1.09,0,0,1,.06-.34.79.79,0,0,1,1-.47.49.49,0,0,1,.35.49c0,.16-.21.48-.52.21,0-.32.15-.34.27-.45a.8.8,0,0,1,.46-.13.72.72,0,0,1,.72.77.75.75,0,0,1-.29.54.51.51,0,0,1-.75-.05l-.48-.49.68.07a.48.48,0,0,1,.4.72Z"/><path d="M18.71,43.44c-.06-.2-.29-.23-.3-.17l.21-.42c-.28-.24.07-.2-.21-.49a.32.32,0,0,0-.25-.07c-.08,0-.16.15-.15.08s0,0,0-.11a.28.28,0,0,0-.12,0,.29.29,0,0,0-.16.23s0,0,0,0a.2.2,0,0,0-.05-.13.31.31,0,0,0-.29-.11.34.34,0,0,0-.29.35.36.36,0,0,0,.25.34.24.24,0,0,0,.15,0h0s0,0,0,.11a.42.42,0,0,0,.26.28l0,.35c.06,0,0,0,0-.06s-.06,0,0,.08l0,.07a.19.19,0,0,1-.17-.24.27.27,0,0,1,.36-.19l.41.13-.44.22a.78.78,0,0,1-1-.26A.82.82,0,0,1,17,42.24a1.11,1.11,0,0,1,.19-.09.61.61,0,0,1,.33,0,.5.5,0,0,1,.37.46.48.48,0,0,1-.41.47.53.53,0,0,1-.46-.18.65.65,0,0,1-.11-.3,1.09,1.09,0,0,1,.06-.34.78.78,0,0,1,1-.46.47.47,0,0,1,.35.48c0,.16-.21.49-.52.21,0-.32.15-.34.27-.45a.79.79,0,0,1,.46-.12.71.71,0,0,1,.72.76.75.75,0,0,1-.29.54.51.51,0,0,1-.75-.05l-.48-.49.68.08a.47.47,0,0,1,.4.72Z"/><path d="M42.54,25.22c-.06-.21-.29-.24-.3-.17l.2-.42c-.27-.24.08-.21-.21-.5a.29.29,0,0,0-.24-.07c-.08,0-.17.16-.15.08s0,0,0-.1a.17.17,0,0,0-.12,0,.28.28,0,0,0-.17.22s0,.05,0,0,0-.06,0-.12a.36.36,0,0,0-.3-.12.35.35,0,0,0-.29.35.37.37,0,0,0,.25.34.25.25,0,0,0,.15,0l0,0s0,0,0,.11a.4.4,0,0,0,.27.28l0,.36c.07,0,.05-.05,0-.07s0,0,0,.08l0,.08a.19.19,0,0,1-.17-.25.27.27,0,0,1,.36-.19l.41.13-.44.23a.8.8,0,0,1-1-.26A.82.82,0,0,1,40.84,24l.19-.1a.61.61,0,0,1,.33,0,.49.49,0,0,1,.36.47.47.47,0,0,1-.41.46.48.48,0,0,1-.45-.18.62.62,0,0,1-.11-.29.69.69,0,0,1,.06-.34.78.78,0,0,1,1-.47.48.48,0,0,1,.35.48c0,.17-.22.49-.52.21,0-.32.14-.33.27-.45a.88.88,0,0,1,.46-.12.72.72,0,0,1,.72.76.77.77,0,0,1-.29.54.51.51,0,0,1-.75,0l-.49-.5.69.08a.47.47,0,0,1,.39.72Z"/><path d="M42,23.17c.18-.12.13-.35.07-.34l.46.07c.15-.33.22,0,.42-.35a.36.36,0,0,0,0-.25c0-.08-.2-.11-.13-.12s.05,0,.1-.07a.31.31,0,0,0,0-.11.29.29,0,0,0-.26-.09s0,0,0,0a.18.18,0,0,0,.1-.08.36.36,0,0,0,0-.32.34.34,0,0,0-.42-.17.35.35,0,0,0-.25.34.2.2,0,0,0,0,.14l0,0s0-.05-.11,0a.41.41,0,0,0-.19.34l-.34.08c0,.06,0,0,.07,0s0,0-.09,0h-.08a.2.2,0,0,1,.19-.24.27.27,0,0,1,.28.29v.43l-.35-.35a.8.8,0,0,1,0-1,.81.81,0,0,1,1.17-.23.67.67,0,0,1,.14.15.64.64,0,0,1,.11.31.48.48,0,0,1-.33.49.49.49,0,0,1-.57-.25.53.53,0,0,1,0-.49.5.5,0,0,1,.25-.19.7.7,0,0,1,.34,0,.77.77,0,0,1,.74.78.49.49,0,0,1-.36.48c-.17,0-.53-.06-.36-.43.31-.11.37,0,.51.12a.85.85,0,0,1,.26.4.74.74,0,0,1-.52.92.84.84,0,0,1-.6-.12.52.52,0,0,1-.18-.74l.33-.6.13.67a.48.48,0,0,1-.57.6Z"/><path d="M27.3,16.09c.18-.12.14-.35.07-.34l.47.07c.14-.33.21,0,.41-.35a.31.31,0,0,0,0-.25c0-.08-.2-.11-.12-.12s0,0,.09-.07a.31.31,0,0,0-.05-.11.28.28,0,0,0-.26-.09s0,0,0,0a.16.16,0,0,0,.11-.08c.05,0,.08-.26,0-.31a.34.34,0,0,0-.42-.18.37.37,0,0,0-.25.34.26.26,0,0,0,0,.14l0,0s0,0-.11,0a.41.41,0,0,0-.18.34l-.35.08c0,.06.06,0,.07,0s-.05-.05-.08,0h-.08a.19.19,0,0,1,.18-.24.28.28,0,0,1,.29.29v.44l-.34-.36a.78.78,0,0,1,0-1,.81.81,0,0,1,1.17-.24.71.71,0,0,1,.15.15.55.55,0,0,1,.1.32.48.48,0,0,1-.33.48.46.46,0,0,1-.56-.25.5.5,0,0,1,0-.49.55.55,0,0,1,.25-.19.92.92,0,0,1,.35-.05.79.79,0,0,1,.73.79.49.49,0,0,1-.36.48c-.17,0-.53-.06-.35-.43.3-.11.36,0,.5.12a.78.78,0,0,1,.26.4.74.74,0,0,1-.52.92.86.86,0,0,1-.6-.12c-.13-.13-.41-.31-.18-.73l.33-.61.13.68a.47.47,0,0,1-.57.59Z"/><path d="M64.21,22.73c.18-.12.14-.35.07-.33l.46.06c.15-.33.22,0,.42-.35a.29.29,0,0,0,0-.24c0-.09-.2-.12-.12-.13s0,0,.09-.07a.31.31,0,0,0-.05-.11.29.29,0,0,0-.26-.09s0,0,0,0a.28.28,0,0,0,.11-.09.34.34,0,0,0,0-.31.35.35,0,0,0-.42-.18.37.37,0,0,0-.25.34.25.25,0,0,0,0,.15l0,0s0-.05-.11,0a.45.45,0,0,0-.19.34l-.34.08c0,.06.06,0,.07,0s0,0-.09,0h-.08a.21.21,0,0,1,.19-.25.28.28,0,0,1,.29.29v.44L63.72,22a.78.78,0,0,1,0-1,.82.82,0,0,1,1.17-.24,1.17,1.17,0,0,1,.15.16.52.52,0,0,1,.1.31.47.47,0,0,1-.9.23.53.53,0,0,1,0-.49.57.57,0,0,1,.25-.19.7.7,0,0,1,.34,0,.78.78,0,0,1,.74.79.48.48,0,0,1-.36.47c-.17,0-.53-.06-.35-.43.3-.11.36,0,.5.12a.83.83,0,0,1,.26.41.73.73,0,0,1-.52.91.8.8,0,0,1-.6-.12c-.13-.13-.41-.3-.18-.73l.33-.61.13.68a.47.47,0,0,1-.57.59Z"/><path d="M60.34,15.73c.18-.12.14-.35.08-.33l.46.07c.14-.34.22,0,.41-.35a.27.27,0,0,0,0-.25c0-.09-.2-.11-.12-.12s0,0,.09-.08a.51.51,0,0,0,0-.11.3.3,0,0,0-.27-.09s0,0,0,0A.23.23,0,0,0,61,14.4a.34.34,0,0,0,0-.31.35.35,0,0,0-.42-.17.38.38,0,0,0-.26.34.46.46,0,0,0,0,.14l0,0s0-.05-.1,0a.38.38,0,0,0-.19.33l-.35.08c0,.06.06,0,.07,0s0,0-.08,0h-.08a.19.19,0,0,1,.18-.24.27.27,0,0,1,.29.29v.43L59.85,15a.81.81,0,0,1,0-1A.82.82,0,0,1,61,13.76a.67.67,0,0,1,.14.15.61.61,0,0,1,.11.31.51.51,0,0,1-.34.49.47.47,0,0,1-.56-.26.48.48,0,0,1,0-.48.52.52,0,0,1,.24-.2.92.92,0,0,1,.35,0,.79.79,0,0,1,.73.79.48.48,0,0,1-.36.47c-.16,0-.52-.06-.35-.43.3-.11.36,0,.51.12a.82.82,0,0,1,.25.41.71.71,0,0,1-.52.91.78.78,0,0,1-.59-.11.51.51,0,0,1-.18-.74l.32-.61.14.68a.48.48,0,0,1-.58.59Z"/><path d="M14,19c.18-.12.14-.35.08-.33l.46.06c.14-.33.22,0,.41-.34a.31.31,0,0,0,0-.25c0-.09-.2-.12-.12-.13s0,0,.09-.07a.31.31,0,0,0,0-.11.28.28,0,0,0-.26-.09s0,0,0,0a.28.28,0,0,0,.11-.09.31.31,0,0,0,0-.31.35.35,0,0,0-.42-.18.37.37,0,0,0-.25.34.3.3,0,0,0,.05.15l0,0c.05,0,0-.05-.11,0a.41.41,0,0,0-.18.34l-.35.08c0,.06.06,0,.07,0s-.05,0-.09,0h-.08a.2.2,0,0,1,.19-.24.27.27,0,0,1,.29.29v.43l-.34-.36a.8.8,0,0,1,0-1A.82.82,0,0,1,14.68,17l.15.16a.52.52,0,0,1,.1.31.48.48,0,0,1-.33.48.47.47,0,0,1-.56-.25.48.48,0,0,1,0-.49.5.5,0,0,1,.24-.19.73.73,0,0,1,.35,0,.78.78,0,0,1,.73.79.48.48,0,0,1-.36.47c-.17,0-.53-.06-.35-.43.3-.11.36,0,.5.12a.77.77,0,0,1,.26.41.72.72,0,0,1-.52.91.8.8,0,0,1-.6-.11.53.53,0,0,1-.18-.74l.33-.61.13.68a.47.47,0,0,1-.57.59Z"/><path d="M4,31c-.21,0-.33.18-.28.21l-.3-.35c-.33.16-.16-.16-.54,0a.29.29,0,0,0-.16.2c-.05.07.08.22,0,.17s0,0-.11,0a.19.19,0,0,0,0,.11.29.29,0,0,0,.14.24h0a.17.17,0,0,0-.14,0c-.06,0-.22.14-.22.22a.35.35,0,0,0,.2.41.37.37,0,0,0,.42-.1.19.19,0,0,0,0-.14v0c0-.05,0,0,.1,0a.39.39,0,0,0,.36-.13l.32.17c0-.06,0-.06-.05-.06s0,.07.06.06l.06.05a.19.19,0,0,1-.29.06.26.26,0,0,1,0-.4l.28-.33,0,.49a.78.78,0,0,1-.62.79.82.82,0,0,1-1-.58,1.48,1.48,0,0,1,0-.21.59.59,0,0,1,.13-.31.47.47,0,0,1,.56-.15.48.48,0,0,1-.08.9.51.51,0,0,1-.31,0,.81.81,0,0,1-.29-.19.78.78,0,0,1,0-1.08.48.48,0,0,1,.58-.12c.14.09.36.39,0,.55-.3-.11-.26-.26-.31-.42a.78.78,0,0,1,.07-.47.73.73,0,0,1,1-.36.83.83,0,0,1,.38.48c0,.19.11.5-.35.67l-.64.25.34-.6a.48.48,0,0,1,.82-.08Z"/><path d="M18.24,52.8c-.22,0-.34.18-.28.21l-.3-.35c-.33.15-.16-.16-.55,0a.31.31,0,0,0-.15.2c-.05.07.08.21,0,.17s0,0-.11,0a.19.19,0,0,0,0,.11.29.29,0,0,0,.14.24s.05,0,0,0a.18.18,0,0,0-.14,0c-.06,0-.23.14-.22.22a.35.35,0,0,0,.2.41.38.38,0,0,0,.42-.1.3.3,0,0,0,.05-.14v0s-.05,0,.1.05a.4.4,0,0,0,.36-.13l.32.17c0-.06,0-.07-.05-.06s0,.07.06.06l.06,0a.2.2,0,0,1-.3.06.27.27,0,0,1,0-.4l.29-.33,0,.49a.8.8,0,0,1-.63.79.81.81,0,0,1-1-.58.74.74,0,0,1,0-.21.67.67,0,0,1,.12-.31.48.48,0,0,1,.84.41.5.5,0,0,1-.35.34.51.51,0,0,1-.31,0,.81.81,0,0,1-.29-.19.79.79,0,0,1-.05-1.08.51.51,0,0,1,.59-.13c.14.1.36.4,0,.56-.3-.11-.25-.26-.31-.42a.87.87,0,0,1,.08-.47.7.7,0,0,1,1-.36.83.83,0,0,1,.38.48c0,.18.12.5-.34.67l-.64.25.34-.6a.48.48,0,0,1,.82-.08Z"/><path d="M13.59,38.92c-.21,0-.33.17-.27.2L13,38.77c-.33.16-.16-.15-.54,0a.29.29,0,0,0-.16.2c-.05.06.08.21,0,.17s0,0-.11,0a.23.23,0,0,0,0,.11.3.3,0,0,0,.15.25s0,0,0,0-.05,0-.13,0-.23.15-.23.23a.35.35,0,0,0,.21.4.37.37,0,0,0,.41-.09.22.22,0,0,0,.05-.14v0c0-.06-.05,0,.1,0a.4.4,0,0,0,.36-.14l.32.17c0-.06,0-.06-.05-.05s0,.06.06.05l.06,0a.19.19,0,0,1-.29.07.28.28,0,0,1,0-.41l.28-.32,0,.49a.79.79,0,0,1-.62.79.82.82,0,0,1-1-.59.74.74,0,0,1,0-.21.46.46,0,0,1,.12-.3.47.47,0,0,1,.83.4.5.5,0,0,1-.35.35.51.51,0,0,1-.31,0,.7.7,0,0,1-.29-.19.77.77,0,0,1,0-1.07.48.48,0,0,1,.58-.13c.14.09.36.39,0,.56-.3-.12-.25-.27-.31-.42a.81.81,0,0,1,.07-.48.72.72,0,0,1,1-.35.78.78,0,0,1,.38.47c0,.19.11.5-.35.68l-.64.25.34-.6a.47.47,0,0,1,.82-.08Z"/><path d="M39.84,12.65c-.21,0-.33.18-.27.21l-.31-.35c-.33.16-.15-.16-.54,0a.28.28,0,0,0-.15.2c0,.07.07.22,0,.17s0,0-.11,0a.19.19,0,0,0,0,.11.27.27,0,0,0,.14.24h0s0,0-.13,0-.23.14-.23.22a.36.36,0,0,0,.62.31.25.25,0,0,0,.06-.14v0c0-.05-.06,0,.09,0a.39.39,0,0,0,.36-.13l.32.17c0-.06,0-.06,0-.06s0,.07.06.06l.06.05a.2.2,0,0,1-.3.06.26.26,0,0,1,0-.4L39.7,13l0,.49a.8.8,0,0,1-.63.79.81.81,0,0,1-1-.58.74.74,0,0,1,0-.21.57.57,0,0,1,.12-.31.48.48,0,0,1,.57-.15.46.46,0,0,1,.26.56.49.49,0,0,1-.34.34.55.55,0,0,1-.32,0,.91.91,0,0,1-.29-.19.8.8,0,0,1,0-1.08.48.48,0,0,1,.58-.12c.14.09.36.39,0,.55-.3-.11-.25-.26-.31-.42a.86.86,0,0,1,.07-.47.73.73,0,0,1,1-.36.83.83,0,0,1,.38.48c0,.18.11.5-.34.67l-.65.25.34-.6a.48.48,0,0,1,.82-.08Z"/><path d="M40.3,25.72c-.21,0-.33.18-.28.21l-.3-.35c-.33.15-.16-.16-.54,0a.29.29,0,0,0-.16.2c-.05.07.08.21,0,.17s0,0-.11,0a.19.19,0,0,0,0,.11.29.29,0,0,0,.14.24s0,0,0,0a.3.3,0,0,0-.14,0c-.06,0-.22.14-.22.22a.35.35,0,0,0,.2.41.37.37,0,0,0,.42-.1.3.3,0,0,0,.05-.14v0c0-.05-.05,0,.1.05a.39.39,0,0,0,.36-.13l.32.17c0-.06,0-.07-.05-.06s0,.07.06.06l.06.05a.19.19,0,0,1-.29.06.27.27,0,0,1,0-.4l.29-.33,0,.49a.78.78,0,0,1-.62.79.82.82,0,0,1-1-.58,1.48,1.48,0,0,1,0-.21.67.67,0,0,1,.12-.31.49.49,0,0,1,.57-.15.48.48,0,0,1-.08.9.51.51,0,0,1-.31,0,.81.81,0,0,1-.29-.19.78.78,0,0,1,0-1.08.48.48,0,0,1,.58-.12c.14.09.36.39,0,.55-.3-.11-.26-.26-.31-.42a.78.78,0,0,1,.07-.47.72.72,0,0,1,1-.36.83.83,0,0,1,.38.48c0,.18.11.5-.35.67l-.64.25.34-.6a.47.47,0,0,1,.82-.08Z"/><path d="M43.16,27.86c-.21,0-.33.17-.28.2l-.3-.35c-.33.16-.16-.15-.54,0a.28.28,0,0,0-.16.19c-.05.07.08.22,0,.17s0,0-.11,0a.19.19,0,0,0,0,.11.27.27,0,0,0,.15.24h0a.23.23,0,0,0-.14,0c-.06,0-.22.14-.22.22a.35.35,0,0,0,.2.41.38.38,0,0,0,.42-.09.3.3,0,0,0,.05-.15v0c0-.05-.05,0,.1.05a.37.37,0,0,0,.36-.13l.32.17c0-.06,0-.06-.05-.05s0,.06.06.05l.06.05a.19.19,0,0,1-.29.07.29.29,0,0,1,0-.41l.29-.33,0,.5a.8.8,0,0,1-.62.79.82.82,0,0,1-1-.59,1.48,1.48,0,0,1,0-.21.67.67,0,0,1,.12-.31.52.52,0,0,1,.57-.15.49.49,0,0,1,.27.56.51.51,0,0,1-.35.35.5.5,0,0,1-.31,0,.7.7,0,0,1-.29-.19.78.78,0,0,1,0-1.08.48.48,0,0,1,.58-.12c.14.09.36.39,0,.55-.3-.11-.26-.26-.31-.42a.78.78,0,0,1,.07-.47.73.73,0,0,1,1-.36.83.83,0,0,1,.38.48c0,.19.11.5-.35.68l-.64.24.34-.6a.48.48,0,0,1,.82-.08Z"/><path d="M47.46,21c-.06-.2-.29-.23-.3-.17l.2-.42c-.27-.24.08-.2-.21-.49a.3.3,0,0,0-.24-.07c-.09,0-.17.15-.15.08s0,0,0-.11a.28.28,0,0,0-.12,0,.29.29,0,0,0-.16.23s0,0,0,0a.19.19,0,0,0,0-.12.29.29,0,0,0-.29-.12.34.34,0,0,0-.29.35.39.39,0,0,0,.25.34.24.24,0,0,0,.15,0h0s0,0,0,.11a.45.45,0,0,0,.26.28l0,.35c.06,0,0,0,0-.06s-.06,0,0,.08l0,.07a.2.2,0,0,1-.18-.24.28.28,0,0,1,.37-.19l.4.13-.43.23a.85.85,0,0,1-.85-1.45.6.6,0,0,1,.51-.11.5.5,0,0,1,.37.46.48.48,0,0,1-.41.47.5.5,0,0,1-.45-.18.48.48,0,0,1-.11-.3.71.71,0,0,1,.06-.34.77.77,0,0,1,1-.46.47.47,0,0,1,.34.48c0,.16-.21.49-.51.21,0-.32.14-.34.26-.45a.83.83,0,0,1,.47-.12.71.71,0,0,1,.71.76.78.78,0,0,1-.28.54.52.52,0,0,1-.76-.05l-.48-.49.68.07a.48.48,0,0,1,.4.73Z"/><path d="M33.91,41.29c0,.35.31.6.48.55l-.25.39c.09.1-.07.05-.14.15a.55.55,0,0,0-.16.31.68.68,0,0,0,.33.69.7.7,0,0,0,.49.1c.16,0,.36-.21.33-.23s-.19,0-.15.21.12.18.26.19a.65.65,0,0,0,.63-.4.27.27,0,0,0,0-.14s0,0,0,.07.17.15.22.12a.3.3,0,0,0,.29-.27.33.33,0,0,0-.17-.32.15.15,0,0,0-.09,0l0,0c.12,0,.22-.26.13-.56a.81.81,0,0,0-.65-.56l.07-.35s0,.06.09,0,.06-.13,0-.2l0-.07a.29.29,0,0,1,.18.39.37.37,0,0,1-.51.17l-.41-.2.48-.15a1.23,1.23,0,0,1,1.36.63,1.16,1.16,0,0,1-.38,1.63,1,1,0,0,1-.26.09.77.77,0,0,1-.39,0,.53.53,0,0,1-.34-.55.52.52,0,0,1,.51-.45.55.55,0,0,1,.48.27.61.61,0,0,1,.09.36,1,1,0,0,1-.13.46,1.15,1.15,0,0,1-1.46.54.67.67,0,0,1-.43-.71.56.56,0,0,1,.25-.35.33.33,0,0,1,.47.11c0,.41-.28.47-.49.59a1.29,1.29,0,0,1-.73.05,1.08,1.08,0,0,1-.87-1.25,1.13,1.13,0,0,1,.49-.72c.24-.11.62-.33,1,.14l.4.52-.65-.13a.74.74,0,0,1-.51-1.12Z"/><path d="M51.64,27.19c-.24.27,0,.53.09.5l1.05-.26-1.11.8a.34.34,0,0,0,0,.45.32.32,0,0,0,.24.17.45.45,0,0,0,.38-.15l.28.09c-.07.13.2.3.38.24a.48.48,0,0,0,.37-.39.32.32,0,0,0-.16-.33s-.07,0,.08,0a.28.28,0,0,0,.1-.33c0-.06,0-.06,0-.06s.33,0,.31-.29-.5-.52-1-.68v-.08a1.34,1.34,0,0,1,1.64.45.94.94,0,0,1-.13,1.15,1,1,0,0,1-1.19.17.6.6,0,0,1-.3-.31.51.51,0,0,1,.19-.66.64.64,0,0,1,.78.12.88.88,0,0,1,.17,1.06,1,1,0,0,1-.8.47.63.63,0,0,1-.71-.54l.28.08a.92.92,0,0,1-.56.51.86.86,0,0,1-.84-.21.91.91,0,0,1-.24-.84.78.78,0,0,1,.67-.63l-.06.54a.68.68,0,0,1-.36-.66.51.51,0,0,1,.45-.43Z"/><path d="M56.17,30.61c-.24.26,0,.52.1.49l1-.26-1.11.81c-.1.06-.12.29,0,.44a.31.31,0,0,0,.23.17.4.4,0,0,0,.38-.14l.28.08c-.07.14.2.3.38.24a.46.46,0,0,0,.38-.39.35.35,0,0,0-.17-.33s-.06,0,.08,0a.26.26,0,0,0,.11-.32c0-.07,0-.06,0-.06.17,0,.33-.06.32-.3s-.51-.52-1-.68v-.08a1.38,1.38,0,0,1,1.65.45,1,1,0,0,1-.13,1.16,1,1,0,0,1-1.2.17.78.78,0,0,1-.3-.32.52.52,0,0,1,.2-.66.66.66,0,0,1,.78.12.89.89,0,0,1,.17,1.06,1,1,0,0,1-.8.48.64.64,0,0,1-.71-.55l.27.09a.83.83,0,0,1-.56.5.82.82,0,0,1-.83-.2.92.92,0,0,1-.24-.84.79.79,0,0,1,.67-.64l-.07.55A.67.67,0,0,1,55.7,31a.52.52,0,0,1,.44-.44Z"/><path d="M58,19.3c0-.26-.2-.26-.19-.19l-.17-.52s-.06-.06-.12-.11,0-.07-.11-.07a.24.24,0,0,0-.2.14l-.28,0c0-.07-.17-.11-.25,0a.24.24,0,0,0-.07.31c.05.06.14.09.16.06s-.05-.07-.18.07a.33.33,0,0,0,0,.4l.1.06s0,0,0,.06.36.22.76.21l0,.07a1,1,0,0,1-1.24.27.78.78,0,0,1,.53-1.42.57.57,0,0,1,.35.14.48.48,0,0,1,.09.63.56.56,0,0,1-.65.19.68.68,0,0,1-.46-.72.79.79,0,0,1,.42-.57.49.49,0,0,1,.66.16l-.28,0a.68.68,0,0,1,.21-.54.65.65,0,0,1,.66-.15A.69.69,0,0,1,58,19.06l-.17-.52a.52.52,0,0,1,.46.38.37.37,0,0,1-.19.43Z"/><path d="M55.06,30.81c-.21-.2-.38,0-.33,0l-.52-.15a.46.46,0,0,0-.23,0,.16.16,0,0,0-.14.1.24.24,0,0,0,0,.27l-.13.26c-.06-.07-.22.1-.19.23a.32.32,0,0,0,.25.29c.09,0,.19-.06.19-.1s-.07,0,0,.16a.31.31,0,0,0,.34.17c.09,0,.1-.05.1,0s0,.07.09.14.44-.24.66-.61h.07a1,1,0,0,1-.53,1.27.8.8,0,0,1-1-.26.84.84,0,0,1,0-1,.61.61,0,0,1,.33-.22.48.48,0,0,1,.58.28.58.58,0,0,1-.21.67.73.73,0,0,1-.91,0,.85.85,0,0,1-.27-.71c.05-.24.19-.52.55-.5l-.13.26a.72.72,0,0,1-.35-.52.68.68,0,0,1,.27-.67.74.74,0,0,1,1.18.57l-.53-.15a.57.57,0,0,1,.61-.19.41.41,0,0,1,.28.43Z"/><path d="M58.49,24.26a.9.9,0,0,0-.14.49.19.19,0,0,0,.08.07s0-.05,0,0l.11.6s-.06.08-.06.2a.74.74,0,0,0,0,.38.33.33,0,0,0,.37.19.35.35,0,0,0,.3-.36h.28c0,.1.1.19.22.2a.4.4,0,0,0,.3-.11.91.91,0,0,0,.28-.27c.07-.1,0-.14,0-.05l.49.2c.59-.49-.25-.6-.13-.52a.4.4,0,0,0,.1-.18.4.4,0,0,0-.27-.46l.24-.4c-.08-.08-.18,0-.15,0l.05,0c0-.06,0-.2-.08-.32l.05-.06a.51.51,0,0,1,.36.37.39.39,0,0,1-.16.36.37.37,0,0,1-.52-.08L60,24.15l.48,0a1,1,0,0,1,.65,1.84.63.63,0,0,1-.76,0,.58.58,0,0,1-.22-.42.51.51,0,0,1,.34-.52l.35-.11.13.31a.77.77,0,0,1-.21.88,1.48,1.48,0,0,1-.57.32,1,1,0,0,1-.7-.05.65.65,0,0,1-.34-.59h.28a.85.85,0,0,1-.48.63.78.78,0,0,1-.87-.08.89.89,0,0,1-.35-.85.8.8,0,0,1,.76-.74l2,0-1.89.65a.5.5,0,0,1-.58-.2.62.62,0,0,1-.1-.49.79.79,0,0,1,.52-.48Z"/><path d="M61.29,20.11c.11.25.17.33.08.36a.58.58,0,0,0-.23,0s0,.09.06.15c.26.22.27.17-.12.52l-.07,0c-.55,0-.57-.47-.24-.64.08,0,.14-.08.13-.14s-.09-.16-.11-.25.18-.23.44-.11Z"/><path d="M54.46,19.94c.12.26.18.33.09.36s-.19,0-.23,0,0,.09,0,.14c.27.22.28.17-.11.52l-.07,0c-.56,0-.58-.47-.24-.64.08,0,.13-.08.13-.14S54,20.08,54,20s.18-.23.44-.11Z"/><path d="M32.2,14.82c.12.25.18.33.09.36a.55.55,0,0,0-.23,0s0,.09,0,.14c.26.22.28.17-.12.53l-.07,0c-.55,0-.57-.47-.23-.64.07,0,.13-.08.12-.14s-.09-.16-.11-.25.18-.23.44-.11Z"/><path d="M22.21,10.55c.12.25.18.33.09.36a.57.57,0,0,0-.23,0s0,.09.05.15c.26.21.28.16-.11.52l-.07,0c-.56,0-.58-.47-.24-.64.08,0,.13-.08.13-.14s-.09-.16-.11-.25.18-.23.44-.11Z"/><path d="M25.37,18.52c.12.25.18.33.09.36a.57.57,0,0,0-.23,0s0,.09.05.15c.26.21.28.16-.11.52l-.08,0c-.55,0-.57-.47-.23-.64.08,0,.13-.08.13-.14s-.1-.16-.12-.25.18-.23.45-.11Z"/><path d="M45.48,16.47a2.49,2.49,0,0,1,.23.23c0,.07.12.18.12.12s-.27-.06-.28,0,0,0,0,.05,0,.17.27.21l.33-.24c0-.17-.07-.2-.05-.16s0,.08.06.12a.28.28,0,0,0,.3.12c.09,0,.18-.15.14-.21s-.14-.07-.12,0l0-.6a.18.18,0,0,0,.05-.11s0,0,0,0,0,0,0,0l0,0s-.07,0,0,0a.24.24,0,0,0,.08-.11.3.3,0,0,0,0-.19.32.32,0,0,0-.2-.23h-.2c-.08,0-.11.13-.09.16a.15.15,0,0,0,.09,0s-.07-.13-.2-.13L46,15.36a.39.39,0,0,1,.5-.16.42.42,0,0,1,.23.37.44.44,0,0,1-.31.43l0,0-.14,0a.35.35,0,0,1-.24-.26.38.38,0,0,1,0-.24.54.54,0,0,1,.14-.18.68.68,0,0,1,.24-.1.63.63,0,0,1,.36,0,.75.75,0,0,1,.43,1.23.76.76,0,0,1-.61.27l0-.6a.52.52,0,0,1,.31.64.63.63,0,0,1-.4.4,1.2,1.2,0,0,1-.54.08.64.64,0,0,1-.3-.09.44.44,0,0,1-.21-.53l.06-.27.27,0a.44.44,0,0,1,.43.42.88.88,0,0,1-.07.33.45.45,0,0,1-.74.12.57.57,0,0,1-.09-.42,1.14,1.14,0,0,1,.08-.33Z"/><path d="M52.39,5.12l.22.24c0,.06.12.18.12.12s-.27-.07-.28,0,0,0,0,0,0,.16.27.2L53,5.49c0-.17-.07-.2-.05-.16s0,.08.06.12a.3.3,0,0,0,.3.12c.09,0,.18-.15.14-.21s-.14-.07-.12,0l.06-.6a.25.25,0,0,0,0-.11s0,0,0,0h0l0,0s-.07,0,0,0a.16.16,0,0,0,.07-.1.32.32,0,0,0,0-.2.3.3,0,0,0-.2-.22h-.19c-.09,0-.12.13-.1.15a.09.09,0,0,0,.09,0s-.07-.13-.2-.12l0-.07a.38.38,0,0,1,.5-.16.41.41,0,0,1,.23.37.44.44,0,0,1-.31.43l0,0-.14,0a.34.34,0,0,1-.23-.26.33.33,0,0,1,0-.24A.54.54,0,0,1,53,4a1.24,1.24,0,0,1,.24-.11.73.73,0,0,1,.36,0,.77.77,0,0,1,.57.46.74.74,0,0,1-.14.76.77.77,0,0,1-.62.28l.06-.61a.55.55,0,0,1,.32.65.7.7,0,0,1-.41.4,1.2,1.2,0,0,1-.54.08.78.78,0,0,1-.3-.09.44.44,0,0,1-.21-.53L52.43,5l.27,0a.44.44,0,0,1,.43.42.88.88,0,0,1-.07.33.45.45,0,0,1-.74.12.57.57,0,0,1-.09-.42,1.3,1.3,0,0,1,.08-.34Z"/><path d="M49.71,12.27c.16.29.19.44.07.54a1.2,1.2,0,0,0-.28.13.15.15,0,0,0,0,.21c.17.09.16-.08.2,0a1.79,1.79,0,0,1,.31.38v.08a.63.63,0,0,1-.64.32c-.27-.06-.52-.53-.31-.78a.84.84,0,0,0,.16-.25,2.54,2.54,0,0,0-.09-.31c0-.19.18-.33.47-.33Z"/><path d="M50.19,13.44a.52.52,0,0,0,.48.53.64.64,0,0,0,.42-.32l.22-.39.12.13a.32.32,0,0,0,.55-.11.2.2,0,0,0-.09-.25c-.08,0-.18,0-.18,0l.1-.45c.12.05.27,0,.25-.08s0-.09-.07-.17a1.4,1.4,0,0,0-.65-.22,4.4,4.4,0,0,1-.86-.26v-.08a5.2,5.2,0,0,1,.9-.26,1.54,1.54,0,0,1,1.05.11A.87.87,0,0,1,52.7,13a.81.81,0,0,1-1.29,0l-.27-.38.37-.07a.62.62,0,0,1,.71.84.89.89,0,0,1-1,.49l.33-.25a.85.85,0,0,1-1,1,.76.76,0,0,1-.44-1.21Z"/><path d="M50.37,16.21c0-.29-.22-.41-.27-.37s-.12,0-.24.07l-.39.16c0-.14-.26-.22-.34-.06s0,.12,0,.15.11,0,.08,0l-.22.4c-.07,0-.12.07-.05.06s0-.07,0,0a.9.9,0,0,0,.36.27,4.2,4.2,0,0,1,.52.41v.08a2.35,2.35,0,0,1-.7.08,1.08,1.08,0,0,1-.77-.27.73.73,0,0,1-.24-.59.74.74,0,0,1,.31-.56.67.67,0,0,1,1,.29l.15.44-.36,0a.5.5,0,0,1-.37-.81.72.72,0,0,1,.82-.2l-.39.16a.68.68,0,0,1,1-.58.58.58,0,0,1,0,1Z"/><path d="M44.26,12.55a2,2,0,0,0,.07,1,.56.56,0,0,0,.23.23c.06,0,.15,0,.06,0s0,.14.08.24.12,0,.11,0-.12.09-.09.19c.06.27.5.38.78.21a.78.78,0,0,0,.43-.74c0-.1-.13-.24,0-.13s.4,0,.31-.35c-.11-.16,0-.05,0-.09s.12-.06.12-.24a.41.41,0,0,0-.13-.24.53.53,0,0,0-.14-.12c-.06-.09-.14.05.13-.15l0-.3c0-.11-.26-.2-.3-.15a.1.1,0,0,0-.07.05.34.34,0,0,0,0,.08s0,0,0,0a.18.18,0,0,0,0-.17,1.08,1.08,0,0,0-.47-.35l0-.07a.93.93,0,0,1,.74.14.63.63,0,0,1,.26.42.38.38,0,0,1,0,.15.41.41,0,0,1-.1.22.47.47,0,0,1-.2.14.39.39,0,0,1-.44-.22l0-.19.08-.1a.43.43,0,0,1,.44-.18l.21.05a1.44,1.44,0,0,1,.33.16,1.07,1.07,0,0,1,.48.66,1,1,0,0,1-.17.88.9.9,0,0,1-.9.31.68.68,0,0,1-.5-.35.48.48,0,0,1,.64-.63.74.74,0,0,1,.33.86,1.4,1.4,0,0,1-.91.91,1.1,1.1,0,0,1-1.22-.27.64.64,0,0,1,0-.82.5.5,0,0,1,.63-.11.52.52,0,0,1,.13.75.75.75,0,0,1-1,.12,1,1,0,0,1-.43-.64,1.43,1.43,0,0,1,.39-1.18Z"/><path d="M39.67,6.78a1.69,1.69,0,0,0,.1.84.37.37,0,0,0,.18.16s.1,0,0,0-.07.17.07.28.15,0,.15,0-.1,0-.08.12.41.33.65.18a.64.64,0,0,0,.34-.63c0-.08-.13-.19,0-.06s.42,0,.33-.37c-.12-.17,0-.07-.07-.11s0,0,0-.14a.35.35,0,0,0-.09-.19l-.11-.1c0-.08-.12.06.16-.15l0-.29c0-.12-.27-.21-.31-.16s-.07,0-.08.06a.3.3,0,0,0,0,.09h0s0-.07,0-.12a.94.94,0,0,0-.39-.32l0-.08a.86.86,0,0,1,.66.11.65.65,0,0,1,.24.38.33.33,0,0,1,0,.14.49.49,0,0,1-.09.22.53.53,0,0,1-.2.13.39.39,0,0,1-.43-.21l0-.2.08-.1a.42.42,0,0,1,.43-.17l.19,0a2,2,0,0,1,.3.14,1,1,0,0,1,.44.6A.93.93,0,0,1,42,7.7a.84.84,0,0,1-.83.29.63.63,0,0,1-.47-.34.45.45,0,0,1,.61-.6.67.67,0,0,1,.31.79,1.21,1.21,0,0,1-.82.8,1,1,0,0,1-1.08-.23.58.58,0,0,1,0-.76.47.47,0,0,1,.6-.1.48.48,0,0,1,.12.71.67.67,0,0,1-.89.12.91.91,0,0,1-.4-.59,1.22,1.22,0,0,1,.38-1Z"/><path d="M47.06,8.49c-.31.42-.55.7-.51.94s0,.23.06.34a.28.28,0,0,0,.42,0l.15.18s0,.2.21.23a.57.57,0,0,0,.4,0A.45.45,0,0,0,48,10c.07-.1-.08-.11.15,0l.21-.78c-.19,0-.17.11-.16.12s0-.08,0-.17a1.12,1.12,0,0,0-.26-.6l0-.07a1,1,0,0,1,.76.43.81.81,0,0,1,.15.54.6.6,0,0,1-.66.56l.21-.78a.74.74,0,0,1,.25,1.14,1.12,1.12,0,0,1-.77.48.94.94,0,0,1-.79-.29c-.15-.17-.43-.52-.08-.8l.15.19a.82.82,0,0,1-.82.23.77.77,0,0,1-.56-.78,1,1,0,0,1,.45-.78A1.34,1.34,0,0,1,47,8.42Z"/><path d="M36.42,13.64c-.31.42-.54.7-.5.93s0,.22,0,.33.32.17.41,0l.15.18s0,.2.21.22a.57.57,0,0,0,.4,0,.41.41,0,0,0,.21-.22c.07-.09-.09-.11.15.05l.2-.78c-.18,0-.16.11-.15.12s0-.08,0-.17a1.12,1.12,0,0,0-.26-.59l0-.07a1,1,0,0,1,.75.42.87.87,0,0,1,.15.54.59.59,0,0,1-.66.55l.21-.78a.74.74,0,0,1,.25,1.14,1.11,1.11,0,0,1-.77.47.94.94,0,0,1-.78-.28c-.14-.17-.42-.52-.08-.79l.15.18a.82.82,0,0,1-.81.24.77.77,0,0,1-.55-.78,1,1,0,0,1,.44-.78,1.32,1.32,0,0,1,.73-.2Z"/><path d="M53,17.08c.18.24.2.41.08.5a1.42,1.42,0,0,0-.27.09.07.07,0,0,0,0,.11c.14-.08.1-.19.06-.18s.13.1.38.23l0,.07a.46.46,0,0,1-.37.54.5.5,0,0,1-.55-.6c.07-.13.15-.18.15-.28a1.52,1.52,0,0,0-.09-.28c0-.15.15-.23.44-.23Z"/><path d="M53.44,18.06a.57.57,0,0,0,.44.28,1.21,1.21,0,0,0,.41,0,1.46,1.46,0,0,0,.54-.13A.47.47,0,0,0,55,18s0-.12,0-.1h0s.12.07.15,0l-.06-.26c0-.05,0-.09,0-.2a1.28,1.28,0,0,0-.18-.35,2.39,2.39,0,0,0-.57-.49l-.06-.69s.09,0,.14-.07a.3.3,0,0,0-.12-.34v-.08a.51.51,0,0,1,.61.33.7.7,0,0,1-.31.83l-.07-.7a1.35,1.35,0,0,1,1.05.86,1.33,1.33,0,0,1,.09.68c0,.23-.27.65-.64.51l-.19-.08.14-.17c.07-.11.3,0,.29.05a.42.42,0,0,1,0,.15c0,.13-.06.15-.08.21a3.59,3.59,0,0,1-.17.34,1.19,1.19,0,0,1-.59.58,1,1,0,0,1-.89-.11.65.65,0,0,1-.24-.81Z"/><path d="M42.65,15.28a2.52,2.52,0,0,1-.29.66c-.06.09-.14.2-.11.18s-.1-.27,0-.14a1.82,1.82,0,0,1,.49.65c.07.27.08.55.22.55a.53.53,0,0,0,.44-.46.79.79,0,0,0-.3-.89v-.08c.54-.21,1.26.42,1.12,1.13a1.15,1.15,0,0,1-.59.8.78.78,0,0,1-1-.2c-.21-.35,0-.6-.15-.75s-.32-.1-.57-.18c-.09,0-.51-.35-.33-.67a.77.77,0,0,1,.32-.36,2,2,0,0,1,.69-.3Z"/><path d="M17.92,18.83a2.52,2.52,0,0,1-.29.66c-.06.09-.14.2-.11.18s-.1-.27,0-.14a1.91,1.91,0,0,1,.49.65c.07.27.08.55.22.56a.54.54,0,0,0,.44-.47.78.78,0,0,0-.3-.88v-.08c.54-.22,1.26.41,1.12,1.13a1.15,1.15,0,0,1-.59.79.78.78,0,0,1-1-.19c-.21-.35,0-.6-.15-.75s-.32-.11-.57-.19c-.09,0-.51-.34-.33-.67a.69.69,0,0,1,.32-.35,2.06,2.06,0,0,1,.69-.31Z"/><path d="M27.64,22.28c.27,0,.37.07.31.14s-.15.09-.17.14,0,.05.12.05c.31,0,.34,0,0,.42l-.06,0c-.48.2-.59-.06-.39-.31.05-.06.08-.11.05-.14a2.19,2.19,0,0,0-.23-.07c-.08-.07,0-.19.25-.28Z"/><path d="M28.25,23.24a.56.56,0,0,0,.75,0,2,2,0,0,0,.22-.23s.07,0,.11-.06l0-.41a.54.54,0,0,0,.72,0,.46.46,0,0,0,.12-.58.57.57,0,0,0-.45-.19,4.93,4.93,0,0,0-.75.08l-.14-.73c-.19.09,0,.17,0,.05s-.25-.17-.44-.29v-.08c.22-.05.49-.2.79,0a.56.56,0,0,1,.26.52.59.59,0,0,1-.49.54l-2.84.52,2.7-1.25a1.86,1.86,0,0,1,1.06-.19,1.14,1.14,0,0,1,1,.84.94.94,0,0,1-.58,1,1.68,1.68,0,0,1-1.05.17l-.81-.12.84-.29a.55.55,0,0,1,.67.7,1,1,0,0,1-.54.59.91.91,0,0,1-.76,0,.58.58,0,0,1-.41-.56Z"/><path d="M30.3,24.63c-.11.27-.15.53-.05.61s0,0,.05,0a1.13,1.13,0,0,0,.17-.12l.14.63c.25,0,.12-.07.12-.07s.12.19.3.25a.64.64,0,0,0,.52,0c.13-.08.24-.26.17-.37l.34-.06s.15.06.17,0a.41.41,0,0,0,.1-.21.54.54,0,0,0-.18-.52l.34-.72s0,0,0,0,.09,0-.06-.11a2.41,2.41,0,0,0-1.15-.23l0-.08a1.6,1.6,0,0,1,1.37-.33.79.79,0,0,1,.67.81.8.8,0,0,1-.9.75l.34-.72A1.24,1.24,0,0,1,33,25.58a.87.87,0,0,1-.62.47.56.56,0,0,1-.63-.47l.34-.06a.67.67,0,0,1-.41.64,1.52,1.52,0,0,1-.69.13.88.88,0,0,1-.77-.29.61.61,0,0,1-.07-.61.57.57,0,0,1,.64-.35l.81.2-.68.43a1.06,1.06,0,0,1-.56.19.58.58,0,0,1-.57-.45.74.74,0,0,1,.48-.83Z"/><path d="M30.91,18.05a1.26,1.26,0,0,0,.21.58.23.23,0,0,0,.15.05c.06,0,0,0,0,0l.19.54s-.13.08-.17.19a.35.35,0,0,0,.05.34.65.65,0,0,0,1-.06.52.52,0,0,0,.11-.28c0-.09-.09,0,.06,0s.13-.17.08-.22.05,0,.12-.09a.77.77,0,0,0,.29-.38c0-.07,0-.16,0-.12s.05.2.31.13l.08-.74a.36.36,0,0,0-.36,0,.37.37,0,0,0-.11.1s0,.14,0,.09A.17.17,0,0,0,33,18a1,1,0,0,0-.35-.37,3.63,3.63,0,0,0-1.15-.56V17a2.19,2.19,0,0,1,1.47.07,1.64,1.64,0,0,1,.69.49,1,1,0,0,1,.21.49.74.74,0,0,1-.07.42.65.65,0,0,1-.22.22.53.53,0,0,1-.53,0l-.6-.54.69-.21a.62.62,0,0,1,.82.52,1,1,0,0,1-.12.59,1.42,1.42,0,0,1-.73.66.86.86,0,0,1-.59,0,.41.41,0,0,1,0-.78.38.38,0,0,1,.4.52,1.48,1.48,0,0,1-.24.37,1.32,1.32,0,0,1-1.59.29.82.82,0,0,1-.39-1,.85.85,0,0,1,.94-.61l.61.11-.43.43a.59.59,0,0,1-.64.12.71.71,0,0,1-.38-.38,1,1,0,0,1,.1-.8Z"/><path d="M20.58,17.76c.14.29.15.47,0,.59a2.08,2.08,0,0,0-.3.13.14.14,0,0,0,0,.21c.12.1.12-.13.12-.08s.13.12.41.25l0,.06a.53.53,0,0,1-.58.53.62.62,0,0,1-.44-.29.38.38,0,0,1,0-.5,1.13,1.13,0,0,0,.19-.28c0-.1,0-.23,0-.33s.19-.32.5-.33Z"/><path d="M20.83,19.07a.54.54,0,0,0,.21.45c.11.06.15,0,.25,0s.22,0,.29-.15,0-.29-.18-.21l.08-.12s.11,0,.24-.09a1.69,1.69,0,0,0,.33-.19.57.57,0,0,0,.26-.42.91.91,0,0,0-.16-.49,8.17,8.17,0,0,0-.6-.63l0-.07a1.52,1.52,0,0,1,1,.2,1.09,1.09,0,0,1,.56,1.09,1.15,1.15,0,0,1-.83.91,1.29,1.29,0,0,1-.55,0l-.27-.05c-.07,0-.25-.07-.27-.27V19l.09,0a.56.56,0,0,1,.7.47.75.75,0,0,1-.51.81.78.78,0,0,1-.92-.39.63.63,0,0,1,.2-.81Z"/><path d="M19.19,30.62a.29.29,0,0,0,.11.27c.09.06,0,0,.2,0a.43.43,0,0,1,.38.27,1.46,1.46,0,0,1,.06.29l.06,0a.38.38,0,0,0,.37,0,1.34,1.34,0,0,0,.49-.51l.23,0a.21.21,0,0,0,.16,0,.86.86,0,0,0,.22-.21,1.1,1.1,0,0,0,.19-.55c0-.11,0-.08,0,0s-.07,0-.18,0a2.88,2.88,0,0,0-.59-.06l.26-.55c-.18-.18-.24-.07-.25-.05s0,.12,0,.07-.19-.22-.45-.28v-.08a.7.7,0,0,1,.87.05.5.5,0,0,1,0,.71.58.58,0,0,1-.37.19.54.54,0,0,1-.5-.25l-.23-.4.49-.15a1.62,1.62,0,0,1,.95,0,1.18,1.18,0,0,1,.53.28.69.69,0,0,1,.14.72,1.26,1.26,0,0,1-.6.75,1.5,1.5,0,0,1-.45.16c-.14,0-.43,0-.47-.28l.23,0c-.18.22-.23.49-.42.76a.79.79,0,0,1-1.07.19.76.76,0,0,1-.32-.61c0-.11,0-.16,0-.09s.13.08.08.05S19,31.24,19,31a.43.43,0,0,1,.17-.47Z"/><path d="M17.25,27.69a3.61,3.61,0,0,1,0,.47c0,.06,0,.16,0,.19s0-.11,0-.12.1,0,.14-.07a.69.69,0,0,0,.12-.14l.28.46c.19-.07-.08-.08,0,.05s.26.27.45.23a.75.75,0,0,0,.52-.3.54.54,0,0,0,.11-.26.28.28,0,0,0,0-.13.19.19,0,0,0,0,.07s-.06.12.23.19a.34.34,0,0,0,.19,0l.14-.21a.3.3,0,0,0-.06-.29l-.07-.05c-.06,0,0,0,0,0a.31.31,0,0,0,.12-.09c.07-.1.12-.19.08-.29a.63.63,0,0,0-.31-.39,2.39,2.39,0,0,0-.63-.27l-.07,0c.29-.28.55-.2.87-.2a1.2,1.2,0,0,1,.87.57A1.07,1.07,0,0,1,20,28.18a1.15,1.15,0,0,1-.54.33.74.74,0,0,1-.39,0,.6.6,0,0,1-.25-.13.47.47,0,0,1-.12-.47l.06-.15.09-.05a.45.45,0,0,1,.23-.06c.35.09.31.26.34.32a.43.43,0,0,1,0,.25.82.82,0,0,1-.12.2,1.27,1.27,0,0,1-.3.31,1.36,1.36,0,0,1-.74.29,1.07,1.07,0,0,1-.81-.25.58.58,0,0,1,.46-1h.41l-.13.46a.84.84,0,0,1-.46.53.81.81,0,0,1-.73,0,.43.43,0,0,1-.19-.49.89.89,0,0,1,.13-.24,2.17,2.17,0,0,1,.31-.37Z"/><path d="M16.56,24.32a2.12,2.12,0,0,1,0-.42c0-.15,0-.25,0-.18s.08.08.08.11l-.07.1-.23-.42c-.25,0-.19.13-.15.07a.19.19,0,0,0,.07-.13.25.25,0,0,0-.29-.26.46.46,0,0,0-.36.28.6.6,0,0,0-.05.24.25.25,0,0,0,0,.1l0,0s.11,0-.16-.2a.34.34,0,0,0-.31.05l-.12.2a.26.26,0,0,0,.24.34s0,0,0,0a.5.5,0,0,0-.08.32.65.65,0,0,0,.14.4,1.34,1.34,0,0,0,.44.33l.07,0c-.27.27-.51.16-.8.1a1.18,1.18,0,0,1-.62-.66,1.21,1.21,0,0,1,.12-1,1,1,0,0,1,.47-.37c.15-.08.84,0,.73.59l0,.12-.11.09a.42.42,0,0,1-.35,0c-.32-.21-.19-.27-.23-.33a.56.56,0,0,1,0-.18,1,1,0,0,1,.1-.18,1.29,1.29,0,0,1,.22-.3.94.94,0,0,1,.65-.31.84.84,0,0,1,.66.36.69.69,0,0,1,.09.45.58.58,0,0,1-.12.27.46.46,0,0,1-.46.15l-.29-.08.06-.34a.75.75,0,0,1,.38-.52.57.57,0,0,1,.79.19.67.67,0,0,1-.11.59,2.16,2.16,0,0,1-.27.33Z"/><path d="M18.86,24.17c.12.33.25.49.34.5s0,0,0,.06a.11.11,0,0,0,.16,0h.28c-.15.14.12.38.28.31a.83.83,0,0,0,.3-.29.67.67,0,0,0,.06-.16s.08,0,.08-.05-.23-.2-.45-.41V24c.26-.09.62-.29,1,0a.84.84,0,0,1-.05,1.19.91.91,0,0,1-1.06.24.87.87,0,0,1-.42-.89l0-.36.23.36a.53.53,0,0,1-.13.68.57.57,0,0,1-.76-.05.71.71,0,0,1,0-1.06Z"/><path d="M42.55,31.89a.68.68,0,0,0,0,.5c.06,0,0,.1.08.21l.22.46-.09,0c-.18-.09-.21.29,0,.3a1.19,1.19,0,0,0,.48-.06,2.89,2.89,0,0,0,.95-.58h.07A1,1,0,0,1,43.38,34a.91.91,0,0,1-.86-.44.85.85,0,0,1,0-1l.12.41a.6.6,0,0,1-.77-.6.62.62,0,0,1,.59-.62Z"/><path d="M37.47,21.35a2.67,2.67,0,0,1-.21.73,1.23,1.23,0,0,0,0,.27c0,.09.23.27.45.29a.79.79,0,0,0,.61-.24l.23.36a.24.24,0,0,0,.2.09,1.55,1.55,0,0,0,.48,0,.41.41,0,0,0,.3-.11c.08,0,.13-.26-.09-.37l0-.08c.29-.2.77.13.72.58a.94.94,0,0,1-.74.81,1.47,1.47,0,0,1-1-.15.65.65,0,0,1-.17-1.09l.24.35a8.05,8.05,0,0,1-.8.11c-.25,0-.53.17-.92-.08a.75.75,0,0,1,0-1.07,2.53,2.53,0,0,1,.66-.44Z"/><path d="M38.26,19.09c.21-.16.3-.2.29-.12a1.38,1.38,0,0,0-.08.2s.05,0,.11,0c.26-.14.35-.1.09.32l-.05.06c-.4.3-.45.21-.33-.06,0-.06,0-.11,0-.11s-.13.08-.19.1,0-.08.09-.31Z"/><path d="M40.56,21.21c-.21-.17-.3-.21-.23-.2l.2,0s0,0-.07-.07c-.27-.1-.3,0,.17-.18h.08c.5,0,.47.23.18.27-.08,0-.12,0-.11.05a1.77,1.77,0,0,1,.17.14c0,.07-.07.11-.32,0Z"/><path d="M22,34c.23.15.34.08.27.09a.38.38,0,0,0-.18.07s0,0,.08,0,.09-.19.07-.19-.08.14.07.36l0,.07a.3.3,0,0,1-.25.4.29.29,0,0,1-.23-.34c0-.09,0-.14,0-.16a.72.72,0,0,1-.24-.09c-.09-.1,0-.29.31-.23Z"/><path d="M23.21,31.79c.16-.22.23-.28.23-.21a1.36,1.36,0,0,0-.06.2s0,0,.09-.05c.19-.21.27-.21.09.25l0,.07c-.3.4-.34.34-.26.06,0-.07,0-.12,0-.1s-.1.11-.15.15,0-.06.06-.3Z"/><path d="M24.49,33.59c.08.19.18.2.23.19s0-.11-.16-.1l-.18-.14c0,.08.06,0,.07-.08a.46.46,0,0,1,.07-.18s.05,0,.08,0a1.13,1.13,0,0,1,.11.3v.08a1.23,1.23,0,0,1,0,.32c0,.08-.05.09-.08.06a.36.36,0,0,1-.09-.17c0-.09-.07-.14-.09-.06l-.18-.14c-.11,0-.23-.2-.12-.26a.23.23,0,0,1,.34.06Z"/><path d="M25.51,32.74c-.26,0-.35,0-.29,0l.2,0h-.09c-.28,0-.31,0,.18-.05h.08c.48,0,.45,0,.18,0h.11l-.29,0Z"/><path d="M7.89,27.13a2,2,0,0,1-.57-.36.47.47,0,0,1-.23-.42.55.55,0,0,1,.45-.51,4,4,0,0,1,1.24,0l0,.26c-.24-.19-.83-.36-.67-1a.79.79,0,0,1,.65-.47l.52,0c.13,0,.15-.07.14,0s0-.11.09-.25a.56.56,0,0,1,.64-.22,1.69,1.69,0,0,1,.92.79l0,.06a6.76,6.76,0,0,0-1-.16c-.06,0,0,.06.15-.06,0,0,.06,0-.05.26a.85.85,0,0,1-.78.42l-.55-.06a.55.55,0,0,0-.26,0c-.19.06,0,.5.36.55l.45.07-.48.2a4.12,4.12,0,0,1-1.14.44c-.09,0,0,0,0-.14s0,0,0,.11a2.19,2.19,0,0,1,.19.58Z"/><path d="M6.26,36.82c.29,0,.32-.2.22-.19a.27.27,0,0,0-.16.13s0,0,0-.09-.06-.22-.15-.19-.11.27.14.35l.08,0a.24.24,0,0,1,.07.42c-.11,0-.22,0-.24-.19s0-.12,0-.1-.12.1-.2.1-.1-.28.19-.28Z"/><path d="M5.71,39.27a.74.74,0,0,1-.27.26c-.08,0-.11-.07-.16-.19s-.12-.07-.19,0a.35.35,0,0,1-.19.15L5.29,39c.09,0-.07.05-.13.38l0,.07a.37.37,0,0,1-.6-.27l.06-.68.33.19a.47.47,0,0,1,.22.22c.07.1.13.16.22.07s.19-.2.25-.12.13.13.14.32Z"/><path d="M6.56,40.05c.22.2.33,0,.26.06a.27.27,0,0,0-.12.16s.07,0,.1-.05.06-.19.11-.2a1.05,1.05,0,0,1,.33.29l0,.07c0,.27,0,.39-.17.46a.38.38,0,0,1-.41-.2c-.06-.08-.08-.14-.14-.16a.79.79,0,0,1-.29,0c-.17-.09-.09-.49.23-.44Z"/><path d="M7.94,39.8c.24.11.32.17.25.17l-.21,0s0,0,.07.07c.25.14.26.2-.22.08l-.07,0c-.44-.21-.39-.25-.11-.2.07,0,.11,0,.1,0l-.18-.11c-.05,0,0,0,.3,0Z"/><path d="M5.4,42.52c.09-.25.13-.33.13-.26s0,.17,0,.2,0,0,0-.08c.12-.26.17-.28.08.21l0,.07c-.17.46-.2.42-.17.14,0-.07,0-.11,0-.09s-.05.13-.08.18,0,0,0-.29Z"/><path d="M51.86,34.91c.21,0,.27-.09.28-.12s-.13.05-.16.12,0,0,.05-.13a.12.12,0,0,0-.1-.13l-.21.69a.22.22,0,0,0,.35,0,.17.17,0,0,0-.08-.27h-.08a.22.22,0,0,1,0-.35.31.31,0,0,1,.45.05l.57.66-.78,0a.24.24,0,0,1-.24-.13c0-.12,0-.23-.08-.19s-.27.12-.26,0,0-.2.22-.25Z"/><path d="M52.31,33.23c.17-.21.23-.27.19-.22l-.11.16.06-.06c.18-.21.21-.23-.09.16l0,.06c-.31.38-.3.35-.13.12,0-.06.06-.09,0-.07l-.13.15s0,0,.17-.24Z"/><path d="M52.42,36.9a.15.15,0,0,0-.27,0h0l.09.08c.22-.13.09-.2.08-.18s.21,0,.19-.1-.12-.18-.17-.09,0,.18.23.22l.08,0a.33.33,0,0,1-.09.51.43.43,0,0,1-.58-.2c-.12-.21.08-.45.15-.52a.55.55,0,0,1,.48-.28h.07l0,.08h0a.35.35,0,0,1-.21.44Z"/><path d="M53.89,33.94c.11-.24.09-.34.07-.28a.72.72,0,0,0,0,.2v-.09c0-.29-.2-.25.09.15l0,.07c.24.44,0,.5-.09.22,0-.07,0-.11-.05-.09a1.36,1.36,0,0,1-.06.2c-.05.06-.1,0,0-.31Z"/><path d="M58.78,16.67c0-.26,0-.36,0-.3s.07.16.09.18,0,0,0-.09c0-.29,0-.33.2.13l0,.07c.07.49,0,.47-.12.22,0-.06-.06-.1-.06-.08A1.7,1.7,0,0,0,59,17c0,.07-.06,0-.16-.26Z"/><path d="M59.84,16.36c0-.27,0-.36,0-.29l0,.2s0,0,0-.09c0-.28,0-.31,0,.17v.08c0,.49,0,.46,0,.18,0-.07,0-.11,0-.09l0,.2c0,.07,0,0,0-.29Z"/><path d="M31.08,12.92c.33,0,.26-.19.4-.11s.17.12.26.09.08-.14,0-.15a.11.11,0,0,0,.05.2.29.29,0,0,0,.28-.21.25.25,0,0,0,0-.24s-.13,0,0,.09.29.19.26.39l-.06,0c-.15,0-.16.14-.26.18a.54.54,0,0,1-.54-.11.55.55,0,0,1-.16-.5.51.51,0,0,1,.49-.39.43.43,0,0,1,.42.56c-.09.2-.21.24-.28.34s-.14.25-.28.34-.77-.1-.61-.49Z"/><path d="M19.55,9.79c.33,0,.26-.2.4-.12a.35.35,0,0,0,.25.1c.08,0,.09-.15,0-.15a.11.11,0,0,0,.05.2.3.3,0,0,0,.28-.21.24.24,0,0,0-.05-.24s-.13,0,0,.09.28.18.26.38l-.06.05c-.15,0-.16.14-.27.18A.52.52,0,0,1,19.9,10a.54.54,0,0,1-.16-.5.5.5,0,0,1,.48-.39.44.44,0,0,1,.43.57c-.09.19-.21.23-.29.33a1.34,1.34,0,0,1-.27.34c-.22.17-.77-.1-.61-.49Z"/><path d="M33.68,13.39c.27,0,.36,0,.32,0s-.14.1-.16.14,0,0,.11,0c.29,0,.36.07-.06.34l-.08,0c-.49.08-.5,0-.27-.21.06,0,.09-.09.06-.1h-.21c-.08,0,0-.1.22-.24Z"/><path d="M14.89,17.05c-1.88,0-3.77.15-5.14,1.26a3.53,3.53,0,0,0-1.42,2.21,1.39,1.39,0,0,1-1.23.8,7.79,7.79,0,0,0-1.33.39,6.76,6.76,0,0,0-2.25,1.36.91.91,0,0,0-.22.44c0,.14,0,.18.12.36a.88.88,0,0,1,.2.55.87.87,0,0,1-.26.61,5.82,5.82,0,0,1-.59.45c-.22.13-.23.46-.11.85a5.08,5.08,0,0,1,.42,1.43c0,1.17-.93,1.79-.81,2.74l-.07,0c-.39-1,.41-2,.26-2.72a5,5,0,0,0-.52-1.2,1.86,1.86,0,0,1-.16-.86,1.26,1.26,0,0,1,.44-.9c.23-.19.45-.31.53-.4s.06.1,0-.12a1.23,1.23,0,0,1-.2-1A1.65,1.65,0,0,1,3,22.57a3.64,3.64,0,0,1,1.29-.83,8.84,8.84,0,0,1,1.38-.44,14.08,14.08,0,0,1,1.42-.25c.46-.05.92-.17,1-.61A6,6,0,0,1,8.45,19a3.78,3.78,0,0,1,.87-1.23A4.6,4.6,0,0,1,12,16.65a7.45,7.45,0,0,1,2.87.32Z"/><path d="M17.63,45.63c-.24.11-.33.13-.28.09l.17-.12-.09,0c-.27.09-.31.08.11-.17l.07,0c.46-.19.45-.14.21,0-.06,0-.09.06-.07.06l.19-.07c.07,0,0,0-.24.18Z"/><path d="M19.6,43.93c0,.31,0,.46-.11.54a.82.82,0,0,0-.29.08.24.24,0,0,0,0,.26c.13.41.11.58-.4.89h-.07a.6.6,0,0,1,.08-1.08c.1-.06.18-.11.21-.2s0-.23,0-.34.28-.3.59-.21Z"/><path d="M20.74,45c.28.08.38.14.33.23s-.14.13-.14.18.06.07.13.06a.43.43,0,0,0,.18-.12s-.06.18.19.31l.05.05a.38.38,0,0,1-.4.47.42.42,0,0,1-.35-.44c0-.1,0-.17,0-.22s-.18-.06-.25-.11,0-.26.22-.4Z"/><path d="M4.4,25.56c.17-.2.24-.26.23-.19a.67.67,0,0,0-.08.18s0,0,.08-.05c.2-.2.26-.2,0,.23l0,.07c-.32.38-.34.33-.23.06,0-.06,0-.11,0-.09l-.14.14c-.06,0,0-.05.1-.28Z"/><path d="M6,25.08c.26.12.35.19.29.26s-.16.09-.17.13.05.07.11,0,.09-.19.07-.18-.09.26.2.25l.08,0c.26.2,0,.57-.24.57a.41.41,0,0,1-.45-.39c0-.11,0-.17,0-.22s-.17-.09-.24-.15,0-.26.29-.34Z"/><path d="M7.3,22.48c.27.11.36.19.31.28s-.15.13-.16.18.06.08.14.07a.71.71,0,0,0,.2-.1s-.06.18.19.32l0,.06c.08.29-.24.48-.45.44a.44.44,0,0,1-.34-.47c0-.1,0-.17,0-.23S7,23,7,22.89s0-.28.26-.4Z"/><path d="M10.29,21.9c.23.18.34.1.28.15s-.14.12-.13.16.06,0,.11,0,.06-.2.06-.2.06.15.33.2l.07,0a.38.38,0,0,1-.12.57.41.41,0,0,1-.52-.2c0-.1-.06-.17-.12-.2s-.2,0-.29-.09,0-.41.26-.43Z"/><path d="M11.28,19.78a1,1,0,0,1,.3-.3.25.25,0,0,1,.3,0,.25.25,0,0,0,.33,0,.42.42,0,0,0,.17-.33h0l.16-1.34.31,1.86a.36.36,0,0,1-.15.35,1.47,1.47,0,0,1-.52.2l-.07,0a.8.8,0,0,1-.1-.55.58.58,0,0,1,.27-.41l.47.53h0a.75.75,0,0,0-.42,0A.36.36,0,0,0,12,20a.33.33,0,0,1-.36.15.57.57,0,0,1-.37-.28Z"/><path d="M39.55,7.22c.26.08.35.07.29.1a.56.56,0,0,0-.19.09s0,0,.1,0c.3,0,.25-.15,0,.29l0,.07c-.4.32-.58,0-.36-.19,0-.06.08-.1,0-.12s-.16,0-.22-.06,0-.18.28-.21Z"/><path d="M43.82,6.6c.19-.2.3-.24.34-.15s0,.19,0,.23.08,0,.14,0c.27-.18.42-.13.31.37l0,.07c-.37.35-.48.25-.48-.06,0-.08,0-.14,0-.13s-.14.09-.2.12-.11-.09,0-.36Z"/><path d="M42.89,4.39c.19-.19.3-.24.33-.14s0,.18,0,.23.08,0,.14,0c.27-.17.41-.13.3.37l0,.07c-.36.36-.48.26-.47-.06,0-.08,0-.13,0-.13a1.51,1.51,0,0,0-.2.12c-.1,0-.12-.09,0-.36Z"/><path d="M45.58,5.66c-.26,0-.35,0-.29,0l.2,0s0,0-.09,0c-.28,0-.31-.06.18-.09h.08c.49,0,.46.06.18.09-.07,0-.11,0-.09,0l.2,0c.07,0,0,0-.29,0Z"/><path d="M52.21,6.53c.25.14.35.1.3.17s-.14.12-.14.17.06.06.14,0,.2-.09.23-.07a1.9,1.9,0,0,0,.12.39V7.3a.41.41,0,0,1-.45.31.39.39,0,0,1-.23-.41c0-.09,0-.16,0-.19s-.18,0-.26-.09,0-.35.24-.4Z"/><path d="M52.53,9.58c.15-.26.08-.35.17-.32a.35.35,0,0,0,.22.06s0-.1,0-.15l.26.25c0,.17-.06.24-.11.29s-.18,0-.46,0l-.08,0a.47.47,0,0,1,0-.62A.5.5,0,0,1,53.05,9l.32.18-.07.06c-.08.08-.15.13-.17.21a.85.85,0,0,1-.05.34.33.33,0,0,1-.56-.14Z"/><path d="M26.9,38.72a.69.69,0,0,1,1,.27,2.77,2.77,0,0,0,.14.46.4.4,0,0,0,.34.17c.27,0,.27-.15.38-.24s.32-.29.63-.51l.08,0A1,1,0,0,1,29.34,40a.81.81,0,0,1-1.2,0,3.34,3.34,0,0,0-.33-.38,2.78,2.78,0,0,0-.44-.19c-.26-.17-.24-.33-.47-.64Z"/><path d="M28.84,37.46a.31.31,0,0,1-.33-.48,1,1,0,0,1,.31-.11c.07,0,.1-.11.17-.21a.47.47,0,0,1,.49-.22.49.49,0,0,1,.27.47l0,.08a1.18,1.18,0,0,1-.4.28c-.07,0-.09-.07-.2-.2S29,37,29,37.05s.07.15.12.18-.08-.1-.23.17Z"/><path d="M29.31,37c0-.27,0-.37.11-.32s.12.14.16.15.05,0,.06-.11c0-.32,0-.37.43-.06l0,.07c.18.48,0,.58-.3.38-.06,0-.11-.07-.14,0s0,.16-.05.22-.18,0-.3-.22Z"/><path d="M31,34.49c.28,0,.35-.08.33,0a.4.4,0,0,0-.07.2s.07,0,.13,0,.15-.16.18-.16a1.81,1.81,0,0,0,.2.36l0,.07a.39.39,0,0,1-.29.42.34.34,0,0,1-.3-.3c0-.08,0-.14-.09-.15s-.17.05-.26,0-.15-.25.07-.43Z"/><path d="M22.37,39.76c.23.13.3.2.22.21a1.56,1.56,0,0,0-.2,0s0,0,.06.08c.23.18.23.26-.25.16l-.08,0c-.42-.25-.37-.32-.08-.29.07,0,.12,0,.11,0a1.25,1.25,0,0,0-.17-.12c-.05-.06.05-.07.31,0Z"/><path d="M21.67,43.23a1.57,1.57,0,0,1,.15.38c0,.07-.18.12-.22.25l-.09-.11c.08.07.19,0,.29-.08a1.34,1.34,0,0,1,.25-.14c.16-.05.31,0,.61.24l0,.07a.57.57,0,0,1-.59.51.61.61,0,0,1-.35-.15c-.11-.11-.2-.2-.31-.19h0l-.08-.1c-.08-.12-.29-.31-.2-.47a.42.42,0,0,1,.47-.26Z"/><path d="M24,45.53c.25.12.3.21.28.28l-.05-.23c0,.06-.17.26-.08.26s.23-.06.28-.06.14,0,.14.44l0,.08c-.25.3-.51.27-.57.05s0-.27,0-.34-.23,0-.33-.06l0,0v-.2c0-.09.08-.15.34-.2Z"/><path d="M27.91,45.82c-.17.2-.24.27-.22.2s.07-.16.08-.19,0,0-.09.05c-.19.21-.26.2,0-.23l.05-.07c.31-.38.34-.32.23-.06,0,.06-.05.11,0,.09s.1-.1.14-.14,0,.05-.1.28Z"/><path d="M35.24,29.31a1,1,0,0,1,.3.24c.06.07.1.09.06.17s-.05.21,0,.23a.08.08,0,0,0,.08-.14l-.34-.38.72.41a.61.61,0,0,1,.26.42c0,.13,0,.22,0,.27s-.07,0-.09.06-.13.13,0,.22l0,.07c0,.2-.36.19-.49.1a.58.58,0,0,1-.28-.43.37.37,0,0,1,0-.27c0-.06.05,0,.1-.08l.38,0a.78.78,0,0,1-.5-.05c-.12,0-.29,0-.46-.11a.37.37,0,0,1-.17-.39.56.56,0,0,1,.23-.37Z"/><path d="M34.2,35.64c0-.29.08-.41.2-.39s.16.13.22.14.1,0,.12-.14c.11-.33.3-.43.67,0l0,.08c0,.53-.24.57-.54.38-.07,0-.14-.07-.18,0a1.23,1.23,0,0,0-.08.25c-.08.09-.21,0-.4-.17Z"/><path d="M61.67,26.77c0-.29.08-.41.2-.39s.16.13.22.14.1-.06.12-.14c.11-.33.3-.44.67-.05l0,.08c0,.53-.25.57-.54.38-.07-.05-.14-.07-.18,0s0,.17-.09.24-.2.05-.39-.16Z"/><path d="M37,27.1c-.09.26-.15.34-.18.27s0-.18,0-.21-.05,0-.08.07c-.13.26-.22.28-.23-.22v-.07c.17-.47.25-.43.29-.13,0,.07,0,.11,0,.09a1,1,0,0,0,.1-.18c0-.06.08,0,.08.3Z"/><path d="M28.09,11.59c.34,0,.33-.21.31,0s.24.09.09-.1h0l.57.24.08.28h0l-.48-.33L29,12l0,.08-.15.4-.48-.33h0v-.29l.56.24h0c-.36,0-.4-.18-.64,0s-.49-.24-.24-.48Z"/><path d="M69,50a6,6,0,0,1,1.31,1.65,6.92,6.92,0,0,0,.46,1,2.86,2.86,0,0,0,.75.72c1.18.79,2.21,1.47,3.39,2.33l0,.08a4.26,4.26,0,0,1-3.68-2.1,6.3,6.3,0,0,0-.64-.87c-.25-.26-.55-.48-.8-.74a3.83,3.83,0,0,1-.84-2Z"/><path d="M83.12,52.15l3.34.58a10.47,10.47,0,0,0,1.69.29,7.42,7.42,0,0,0,1.69-.19,42.71,42.71,0,0,1,6.73-1.38l0,.07a13.74,13.74,0,0,1-6.7,1.74c-.59,0-1.16,0-1.74,0s-1.17.13-1.76.12a6.09,6.09,0,0,1-3.31-1.17Z"/><path d="M55.53,45a4.94,4.94,0,0,1,.85,2.85c0,.5-.13,1-.16,1.48a10.33,10.33,0,0,0,.06,1.47c.24,2,.2,3.8.35,5.77l-.08,0a6.36,6.36,0,0,1-.9-2.86,13.16,13.16,0,0,1,.2-2.95A7.18,7.18,0,0,0,56,49.31a10.06,10.06,0,0,0-.24-1.44c-.13-.95-.18-1.87-.26-2.87Z"/><path d="M45,48.39a9.37,9.37,0,0,1,3.62,2.49c.48.56.89,1.18,1.35,1.75s.94,1.11,1.44,1.65a37.14,37.14,0,0,0,3,3c1.09.88,2.33,1.63,3.51,2.52l0,.07a13.81,13.81,0,0,1-4-1.92,7,7,0,0,1-1.57-1.6c-.46-.58-.9-1.18-1.3-1.8a12.91,12.91,0,0,0-1.3-1.74,20.07,20.07,0,0,0-1.61-1.45c-1.07-1-2.09-1.93-3.2-2.9Z"/><path d="M77.53,51.06a8.55,8.55,0,0,1,1.36,1.56,5,5,0,0,0,.54.89,2.65,2.65,0,0,0,.82.62.94.94,0,0,0,.75.14c.12,0,.27-.1.49-.17a1.15,1.15,0,0,1,.77.07c.87.51.84,1.24,1.56,1.29l0,.07c-.32.3-.86.13-1.17-.07a3.82,3.82,0,0,0-.77-.52c-.14-.08-.29,0-.78.07A1.3,1.3,0,0,1,80,54.47a7.68,7.68,0,0,0-.73-.77c-.28-.23-.6-.42-.87-.66a3.27,3.27,0,0,1-.92-1.94Z"/><path d="M57.8,70.1a1.54,1.54,0,0,1,.88.89c0,.21,0,.44.11.64a1.67,1.67,0,0,0,.33.53,2,2,0,0,1,.26,2.43H59.3a4.57,4.57,0,0,1-.59-2.26,1.15,1.15,0,0,0-.16-.58,3.07,3.07,0,0,0-.45-.43,1.78,1.78,0,0,1-.36-1.17Z"/><path d="M57.29,64.68a2.58,2.58,0,0,1,1.46,1.07c.15.27.24.58.39.84a4.1,4.1,0,0,0,.56.7,3.85,3.85,0,0,1,1.11,3.38l-.07,0a10.47,10.47,0,0,1-1.41-3.18,2.31,2.31,0,0,0-.4-.78,6.13,6.13,0,0,0-.68-.56,4.44,4.44,0,0,1-1-1.43Z"/><path d="M57.75,61.93a1.23,1.23,0,0,1,1.06.42c.11.16.17.37.29.51a1.13,1.13,0,0,0,.45.31A1.94,1.94,0,0,1,60.8,65l-.07,0a2.59,2.59,0,0,1-1.48-1.55,1,1,0,0,0-.33-.43,2.39,2.39,0,0,0-.53-.19,1.5,1.5,0,0,1-.68-.87Z"/><path d="M25.91,62.72a3.73,3.73,0,0,1,.19,3c-.17.47-.43.91-.6,1.36a5.78,5.78,0,0,0-.33,1.41c-.24,1.91,0,3.73-.19,5.74H24.9a9.29,9.29,0,0,1-.67-2.89,6.65,6.65,0,0,1,.52-3,10.52,10.52,0,0,0,.5-1.39,10.2,10.2,0,0,0,.21-1.44,18,18,0,0,0,.38-2.8Z"/><path d="M26.11,66.36A5.23,5.23,0,0,1,26.34,69c-.09.44-.25.87-.31,1.31a4.93,4.93,0,0,0,0,1.33,28.28,28.28,0,0,0,.88,5.08l-.07,0a4.39,4.39,0,0,1-1.31-2.41,7.21,7.21,0,0,1,.07-2.74,8.54,8.54,0,0,0,.18-1.32c0-.45-.06-.9-.08-1.34A11.84,11.84,0,0,1,26,66.37Z"/><path d="M26.61,69.84a3.72,3.72,0,0,1,.63,1.79c0,.32,0,.65,0,1a3.57,3.57,0,0,0,.26.9A6.22,6.22,0,0,1,28,77.24h-.07a6.26,6.26,0,0,1-.86-3.67,3.3,3.3,0,0,0-.09-.94,8.39,8.39,0,0,0-.37-.89,3.8,3.8,0,0,1-.05-1.9Z"/><path d="M63.64,65.32a4.58,4.58,0,0,1,.94,1.55,5.46,5.46,0,0,0,.24.88,2.35,2.35,0,0,0,.54.72,9.47,9.47,0,0,1,2.19,2.84l0,.06A4.29,4.29,0,0,1,65,68.71a3.75,3.75,0,0,0-.4-.83c-.17-.25-.42-.47-.6-.73a2.89,2.89,0,0,1-.42-1.81Z"/><path d="M66.49,68.21a4.58,4.58,0,0,1,1.1,1.67,7.65,7.65,0,0,0,.3,1,2.55,2.55,0,0,0,.6.78c1,.91,1.84,1.68,2.85,2.63l0,.07a3.77,3.77,0,0,1-3.17-2.45,5.91,5.91,0,0,0-.47-.9c-.2-.27-.46-.51-.67-.79a3.93,3.93,0,0,1-.58-1.94Z"/><path d="M59.88,43.52a2.13,2.13,0,0,0,1.06-.37,5.47,5.47,0,0,0,.73-.81,2.35,2.35,0,0,1,1.17-.7A4.29,4.29,0,0,0,64,41.23a3.35,3.35,0,0,0,1.38-1.73,1.7,1.7,0,0,1,1.17-.93,2.48,2.48,0,0,1,1.32.21v.08a5.48,5.48,0,0,0-1.15.3,1.27,1.27,0,0,0-.59.72,2.82,2.82,0,0,1-2,1.76,8.38,8.38,0,0,0-1.23.24,1.58,1.58,0,0,0-.73.85,2.14,2.14,0,0,1-1,1,1.53,1.53,0,0,1-1.37-.09Z"/><path d="M35,55.66a1.87,1.87,0,0,1,1.53-.38c.26.07.51.22.75.3a3.86,3.86,0,0,0,.77.11,2.89,2.89,0,0,1,1.53.49,1.57,1.57,0,0,1,.73,1.49l-.08,0a3.84,3.84,0,0,0-1.11-.8c-.38-.25-.79-.5-1.2-.79a1.47,1.47,0,0,0-.69-.27,3.08,3.08,0,0,0-.74.11,3.94,3.94,0,0,1-1.48-.2Z"/></g></g></svg>