<svg xmlns="http://www.w3.org/2000/svg" viewBox="0 0 101.75 144.55"><defs><style>.cls-1,.cls-2{fill:#8dc6ba;}.cls-2{font-size:17.46px;font-family:GillSans, Gill Sans;letter-spacing:0.02em;}.cls-3{font-size:23.31px;font-family:DINNextLTPro-Condensed, DIN Next LT Pro;letter-spacing:-0.01em;}</style></defs><g id="Layer_2" data-name="Layer 2"><g id="Ingredients_Map" data-name="Ingredients Map"><path class="cls-1" d="M87.11,48.24c-3.42-1.92-7.74-2.33-10.6-4.87s-4.35-4.2-8-3.94c-3.4.23-6.5-.83-9.46.87q0-1.5-.06-3c0-.4-.05-.79-.1-1.18a.56.56,0,0,0,.09-.6,5.1,5.1,0,0,1-.59-1.93c0-.72.32-.56.93-.65a3.19,3.19,0,0,0,2.59-1.51.6.6,0,0,0-.23-.85,9.39,9.39,0,0,1-2.11-1.65c-.17-.18-.69-.6-.62-.85s1-.14,1.1-.15a16.69,16.69,0,0,0,4.82-.71A2.35,2.35,0,0,0,66.27,26a3.83,3.83,0,0,0-.18-1.89c-.31-1.72,1-2,1.74-3.29a2.83,2.83,0,0,0-.78-3.32c-.52-.52-1.16-.9-1.7-1.4a3.16,3.16,0,0,1-1-1.79C64,13.08,62.76,13,61.7,13.21a7.1,7.1,0,0,0-1.93.91l-1.23.76-.27.13a11.78,11.78,0,0,1-.19-3.42,5.64,5.64,0,0,0-.81-3c-.62-.93-1.64-1-1.18-2.33a4.37,4.37,0,0,0,.52-2.66c-.12-.49-.87-.59-1.28-.53a3.34,3.34,0,0,0-2.84,2.1,8.92,8.92,0,0,0-.36,1.44A3.08,3.08,0,0,1,52,7c-.65-.93-1-2-2.08-2.58-.6-.32-1.38-.23-1.9-.64a4.25,4.25,0,0,1-.94-1.55c-.49-1-1-2.09-2.27-2.24-1.65-.2-3,1.17-4,2.29-.8.89-2.06,2.22-2.15,3.47-.08,1.08.92,1.62,1.71,2.11,1.17.73.92,2,.57,3.21-.07.25-.18.79-.42,1s-.62,0-1-.18a10,10,0,0,1-1.85-1.59c-1-.88-2-1.69-3.36-1.51s-2.17,1.88-3.65,1C29.41,9,28.58,8.13,27,8.65a3,3,0,0,0-1.46.93l-.18-.06c-.46-.39-.85-.82-1.29-1.24a3.3,3.3,0,0,0-3.52-1,2.34,2.34,0,0,0-1.75,2.61C19.08,11.56,21,11.7,22,12.73s.37,1.47-.42,2.13l-2.22,1.83a6.63,6.63,0,0,1-1.14.93c.22.08.14.07-.26,0l-.69-.11a4.42,4.42,0,0,0-2,.34c-.09-.51-.84-.58-1.27-.54a4.48,4.48,0,0,0-3.25,1.78c-.81,1-1.25,2.38-2.59,2.78s-3,.7-3.87,2.11a2,2,0,0,0,.12,2.54A25.55,25.55,0,0,0,3.65,33l-.39,7.16c-.13,2.39-.3,4.78-.39,7.17-.05,1.59.32,3.11,2.15,3.32a6.31,6.31,0,0,0,2.24-.29c.84-.23,1.07-.16,1.51.62.64,1.14,1,2.31,2.41,2.61a5,5,0,0,0,4-1.39c.21-.16.4-.34.61-.5l.08-.06.44.44a4,4,0,0,0,1,.7,6.84,6.84,0,0,0,5.07-.13c2.1-.76,3.91-1.72,6.19-1.88,4.06-.27,8,1.08,11.78,2.56-.1,0-.18,0-.29,0-3.39.94-6.89,2-9.54,4.4a15.19,15.19,0,0,0-4.41,9,25,25,0,0,1-1.06,5.45c-.54,1.35,1.2,5.48,2.29,6.17.73.46,3.61,5.87,4,5.48,2.47-2.25,1.92-5.65,1.79-8.64A31.14,31.14,0,0,1,34,65.26a13.74,13.74,0,0,1,11.45-10c.78.29,1.56.58,2.36.84a36.81,36.81,0,0,1,6,2.16l.25.16a5.27,5.27,0,0,0-.85.37c-3,1.75-4.69,4.68-6,7.8-1.45,3.57-2.2,7-.26,10.58,1.76,3.2,2.07,5.94,6.48,8.07,2.11,1,4,3.45,5.8,4.92.81,1.16,4.68,2.23,5.23,2a10.91,10.91,0,0,0-2.32-2.85c-.18-.24-1.59-.87-1.72-1.18A19,19,0,0,1,58.64,83c-.42-3.56,2.66-6.78,3.12-10.29A30.22,30.22,0,0,0,62,66.23c.29.3.58.6.88.89a100.44,100.44,0,0,0,10.44,9q2.83,2.13,5.82,4.06C80.05,80.8,81,81.4,82,82c.34.2,3.3,1.74,3,2.09-.43.58.38.94.82,1a2.23,2.23,0,0,0,1.91-.83C89,82.67,86,81.51,85,80.94q-2.7-1.57-5.28-3.32a96.71,96.71,0,0,1-10.17-7.86,100.06,100.06,0,0,1-7.94-7.88v-.05a4.74,4.74,0,0,0-1.76-3.43c-1.29-1.15-1.46-8.34-1.39-10,.49.85,3.52,5.8,4.32,6.39a8.09,8.09,0,0,0,4,1.73,38.22,38.22,0,0,0,6.44,1,38,38,0,0,0,12-1.44c4.6-1.29,9.09-2.42,13.24-4.77C99.3,50.93,90.46,50.11,87.11,48.24ZM53.44,56.15a36.29,36.29,0,0,1-7.22-1.94c-3.27-1.51-6.28-3.14-9.76-4S29.54,48.55,26,49.07l.47-.28-.32-.25c.67-.43,1.56-.15,2.35-.24a5.76,5.76,0,0,0,2.32-1.09,18.88,18.88,0,0,1,2.63-1.39A4,4,0,0,1,35,45.41c1.36,0,2.4,1.23,3.72,1.52a6.52,6.52,0,0,0,1.71,0,18.84,18.84,0,0,1,2.71.1,1.18,1.18,0,0,1,1.09.75A19.52,19.52,0,0,0,48,51.91a40.11,40.11,0,0,0,5.19,3.76C53.35,55.78,53.54,56,53.44,56.15Zm2.08-2c-.11.24-.47.13-.68,0a18,18,0,0,1-6-6.4l.41-.91c1.32,0,.57-2.57,2.29-3,1.27-.34,1.65-1.77,2.61-2.67a35.18,35.18,0,0,1,1.33,12.72C55.52,54,55.57,54.08,55.52,54.17ZM55.21,40c0-.06.28-.52.28-.6a.41.41,0,0,1,0-.21,6.17,6.17,0,0,0,0-2.93l1.51-.43c.52,1.11-.12,2.62,0,3.84.07.53.15,2,.23,2.49A21.62,21.62,0,0,1,55.21,40Z"/><text class="cls-2" transform="translate(23.02 113.9)">England<tspan class="cls-3"><tspan x="-23.02" y="25.76">ELDERFLOWER</tspan></tspan></text><path d="M80.32,46a8.05,8.05,0,0,0,1.05,1.26,2.52,2.52,0,0,0,.58.64,1.84,1.84,0,0,0,.82.29,6.51,6.51,0,0,1,3.35,1.19s0,0,0,.06h0a5,5,0,0,1-3.49-.85,4.84,4.84,0,0,0-.79-.47,9.21,9.21,0,0,1-.88-.37A1.59,1.59,0,0,1,80.25,46a0,0,0,0,1,0,0,0,0,0,0,1,0,0"/><path d="M75.33,50.38a2.68,2.68,0,0,1,1.29,1.26c.12.28.18.58.32.84a2.28,2.28,0,0,0,.58.66,25,25,0,0,0,2.71,2,0,0,0,0,1,0,.06s0,0,0,0a2.48,2.48,0,0,1-1.86-.32,3.41,3.41,0,0,1-1.19-1.45,3.46,3.46,0,0,0-.45-.77,7.76,7.76,0,0,0-.65-.63,4.32,4.32,0,0,1-.8-1.57.06.06,0,0,1,0-.06h0"/><path d="M57.15,35.56a3.45,3.45,0,0,1,.5,1.74A5.52,5.52,0,0,1,57.43,39a3.14,3.14,0,0,0,0,1.69,3.77,3.77,0,0,1,.18,1.85.34.34,0,0,1-.4.26l-.08,0,0,0a4.3,4.3,0,0,1-1.74-1.61c-.4-.65-.73-1.27-1.13-1.92a0,0,0,0,1,0-.06h0A6.38,6.38,0,0,1,56,40.7a8,8,0,0,0,1.46,1.45l-.52.22a4.74,4.74,0,0,0,.21-1.6c0-.57-.15-1.16-.22-1.76a7.13,7.13,0,0,1,0-1.73,13.27,13.27,0,0,0,.09-1.69,0,0,0,0,1,0,0h0"/><path d="M53.09,39.4a5.53,5.53,0,0,1,2.45,3.29A14,14,0,0,1,56,46.78a32.12,32.12,0,0,0,.17,4,27.92,27.92,0,0,1,.28,4.09.34.34,0,0,1-.34.33H56a7,7,0,0,1-2.61-1.43,24.56,24.56,0,0,1-2.1-2l-1.91-2.1a3.54,3.54,0,0,1-.72-1.29A8.16,8.16,0,0,0,48,47.24s0,0,0-.06a0,0,0,0,1,.05,0A8.34,8.34,0,0,1,49,48.28a3.17,3.17,0,0,0,.8,1.08c.7.59,1.41,1.29,2.08,1.92s1.34,1.3,2,1.89a6.81,6.81,0,0,0,2.25,1.4l-.42.31a29.9,29.9,0,0,0,.12-4,38.91,38.91,0,0,0-.4-4c-.22-1.35-.27-2.69-.56-4A7,7,0,0,0,53,39.47a.06.06,0,0,1,0-.06,0,0,0,0,1,.05,0"/><path d="M42.78,46c1.8,1.78,3.64,3.52,5.54,5.18s3.84,3.26,5.86,4.79h0a.21.21,0,0,1,.05.29.25.25,0,0,1-.17.08,27.85,27.85,0,0,1-8-1.74c-2.58-.89-5.1-1.94-7.62-2.86a36.06,36.06,0,0,0-7.83-1.81,19.73,19.73,0,0,0-4-.11A6,6,0,0,0,23,51.23a0,0,0,0,1-.05,0,0,0,0,0,1,0,0,5.87,5.87,0,0,1,3.63-1.86,16.41,16.41,0,0,1,4.14-.13,30.58,30.58,0,0,1,4.06.61,20.26,20.26,0,0,1,4,1.18c2.56,1,5,2.2,7.49,3.23a17.83,17.83,0,0,0,7.83,1.69l-.11.38a40.71,40.71,0,0,1-6.06-4.64A42.89,42.89,0,0,1,42.72,46a0,0,0,0,1,0-.06,0,0,0,0,1,.05,0"/><path d="M25.16,52.05a2.21,2.21,0,0,1,1.61-1.49,5.52,5.52,0,0,1,2.2-.21c.72.09,1.42.29,2.12.42s1.4.24,2.11.33a22.17,22.17,0,0,1,4.17,1A16,16,0,0,1,41.19,54a0,0,0,0,1,0,.06s0,0,0,0l-4.06-1.2-4-1.35a9.74,9.74,0,0,0-2.05-.5A13.41,13.41,0,0,0,29,51a15,15,0,0,0-2,.15,2.42,2.42,0,0,0-1.69.92,0,0,0,0,1-.05,0,0,0,0,0,1,0,0"/><path d="M40.22,54.63c-3.14-.21-6.5.2-8.94,2.16a8.43,8.43,0,0,0-2.68,3.69A13.77,13.77,0,0,0,27.78,65c-.1,3.14,1,6.19,1.93,9.24.37,1.55,1.31,2.86,1.79,4.43a3.51,3.51,0,0,1-.06,2.43,15.22,15.22,0,0,0-1,2.16l-.09-.2c.82.42,1.4-.5,1.63-1.32a13,13,0,0,0,.47-2.65,38,38,0,0,0,0-5.44,23.64,23.64,0,0,1,.2-5.56,11.72,11.72,0,0,1,2.51-5A24.75,24.75,0,0,1,44,56.34,11.09,11.09,0,0,1,49.52,56a12.36,12.36,0,0,1,5.15,1.93s0,0,0,.05a0,0,0,0,1,0,0,13.38,13.38,0,0,0-5.16-1.59,10.62,10.62,0,0,0-5.27.48,26.86,26.86,0,0,0-8.35,6.72,11.78,11.78,0,0,0-2.37,4.69,21.73,21.73,0,0,0-.28,5.37A37.8,37.8,0,0,1,33,79.19a12.92,12.92,0,0,1-.59,2.73,3.17,3.17,0,0,1-.72,1.25,1.21,1.21,0,0,1-1.46.23h0a.17.17,0,0,1-.08-.19,19,19,0,0,1,1-2.17,3.25,3.25,0,0,0,.09-2.26c-.45-1.5-1.45-2.84-1.85-4.41-1.05-3-2.38-6-2.31-9.33s1.09-6.71,3.8-8.72,6.2-2.23,9.32-1.76c0,0,0,0,0,0s0,0,0,0"/><path d="M52.9,58.85a7.13,7.13,0,0,0-4.46,3.3,14.75,14.75,0,0,0-1.91,5.33,24.71,24.71,0,0,0-.3,5.7,20.64,20.64,0,0,0,1,5.59,12.88,12.88,0,0,0,3.33,4.55,31.43,31.43,0,0,0,4.64,3.43c1.66,1,3.17,2.25,4.76,3.33a14.06,14.06,0,0,0,5.13,2.42l-.27.42a41.88,41.88,0,0,0-3.62-3.54,8.14,8.14,0,0,1-2.53-4.57,19.58,19.58,0,0,1,1.79-10.12,29.44,29.44,0,0,0,2-9.81A12.29,12.29,0,0,0,61.57,60a6.31,6.31,0,0,0-3.45-3.45,0,0,0,0,1,0,0,0,0,0,0,1,0,0,6.35,6.35,0,0,1,3.77,3.36,12.87,12.87,0,0,1,1.1,5A27.28,27.28,0,0,1,61.22,75a20,20,0,0,0-1.78,9.71A7.51,7.51,0,0,0,61.7,88.9a43,43,0,0,1,3.54,3.7h0a.27.27,0,0,1,0,.36A.3.3,0,0,1,65,93c-4-1-6.69-4-9.91-6.06a35.82,35.82,0,0,1-4.75-3.37A13.11,13.11,0,0,1,46.67,79a22.24,22.24,0,0,1-.75-11.63,14.38,14.38,0,0,1,2.16-5.46,7.16,7.16,0,0,1,4.81-3.14,0,0,0,0,1,0,0s0,0,0,0"/><path d="M57.15,60.26a26.52,26.52,0,0,1,.74,5.88c0,1-.11,2-.15,3l-.05,3a30.84,30.84,0,0,1-1.08,5.82,8.51,8.51,0,0,0,.53,5.58,0,0,0,0,1,0,.06s0,0,0,0a7.35,7.35,0,0,1-1.29-2.72,7.56,7.56,0,0,1,0-3.07c.42-2,1.14-3.78,1.47-5.7a16.79,16.79,0,0,0,.22-2.93c0-1-.15-2-.25-2.93a50.37,50.37,0,0,1-.15-5.9,0,0,0,0,1,0,0,0,0,0,0,1,0,0"/><path d="M25.33,69.15a20.42,20.42,0,0,1-.3,3.71,6.56,6.56,0,0,0-.15,1.82,3.38,3.38,0,0,0,.67,1.66,9.41,9.41,0,0,0,2.77,2.25,4.41,4.41,0,0,1,2.17,3.13,0,0,0,0,1,0,0l0,0a6.11,6.11,0,0,0-2.55-2.44,6.33,6.33,0,0,1-2.68-2.74,8.28,8.28,0,0,1-.56-1.84,10.18,10.18,0,0,1-.24-1.91,10.77,10.77,0,0,1,.87-3.67,0,0,0,0,1,.05,0,0,0,0,0,1,0,0"/><path d="M58.78,33.62c.86,1.75.5,3.77.39,5.53-.07.88-.09,1.84-.11,2.76l.07,2.79a36.34,36.34,0,0,1-.51,5.54c-.3,1.82-.6,3.62-.75,5.47a.07.07,0,0,1,0,0s0,0,0,0a18.32,18.32,0,0,1,0-5.58c.27-1.85.65-3.65.91-5.46a14,14,0,0,0,.12-2.75c0-.94-.25-1.82-.3-2.79,0-1.9.51-3.66.2-5.49a.05.05,0,0,1,0,0s0,0,0,0"/><path d="M63.46,63.82a47.15,47.15,0,0,1,5.7,5.24c1.79,1.87,3.55,3.74,5.44,5.45a32.6,32.6,0,0,0,6.29,4.38,33.84,33.84,0,0,1,6.42,4.37.21.21,0,0,1,0,.27,1.29,1.29,0,0,1-.9.63,2.47,2.47,0,0,1-1,0,8,8,0,0,1-1.81-.65,24.09,24.09,0,0,1-3.22-1.9,68.74,68.74,0,0,1-5.91-4.51c-1.91-1.58-3.74-3.24-5.56-4.92S65.37,68.7,63.61,67a0,0,0,0,1,0-.06.06.06,0,0,1,.06,0C67.5,70,71.2,73.3,75,76.42c1.92,1.55,3.83,3.1,5.83,4.52a33.32,33.32,0,0,0,3.08,2,8.61,8.61,0,0,0,1.64.68c.55.14,1.14.15,1.39-.27l0,.27a26.26,26.26,0,0,0-6.22-4.47A41.14,41.14,0,0,1,74.17,75a56.77,56.77,0,0,1-5.45-5.52c-1.73-1.92-3.42-3.85-5.31-5.6a0,0,0,0,1,0-.06h.05"/><path d="M59.53,40.84a7.47,7.47,0,0,1,4.69-2.46,16.2,16.2,0,0,1,5.38.11,18.44,18.44,0,0,1,5.14,1.68,24.23,24.23,0,0,1,4.35,3.19,22.32,22.32,0,0,0,4.24,3.09,35.52,35.52,0,0,0,4.91,2c3.36,1.13,6.85,1.86,10.25,2.92a.21.21,0,0,1,.14.26.22.22,0,0,1-.12.13,36.14,36.14,0,0,1-5.15,1.71c-1.7.48-3.3,1.33-5,1.89a40.77,40.77,0,0,1-10.65,2.19,32.11,32.11,0,0,1-10.82-1,10.06,10.06,0,0,1-4.72-2.73c-1.39-1.32-1.65-3.26-2.64-4.73,0,0,0,0,0-.05a0,0,0,0,1,0,0c1.1,1.45,1.51,3.32,2.86,4.5A9.54,9.54,0,0,0,67,56a36.07,36.07,0,0,0,10.62.73,46.07,46.07,0,0,0,10.46-2.08c1.69-.53,3.33-1.32,5.12-1.76a39.59,39.59,0,0,0,5.14-1.52l0,.39c-3.34-1.17-6.8-2-10.21-3.06a47.81,47.81,0,0,1-5-1.85,21.28,21.28,0,0,1-4.47-3,27.89,27.89,0,0,0-4.26-3.08,17.59,17.59,0,0,0-4.92-1.69,16.31,16.31,0,0,0-5.21-.3A7.37,7.37,0,0,0,59.6,40.9h-.06a0,0,0,0,1,0-.06"/><path d="M60.79,44.3a21.51,21.51,0,0,0,7.68,3.14,37.65,37.65,0,0,0,8.34,1.21,32.46,32.46,0,0,1,8.33,1.63c2.61.9,5.5.2,8.32.87,0,0,0,0,0,0s0,0,0,0a31.16,31.16,0,0,0-4.21.21,17.25,17.25,0,0,1-2.16,0,12.1,12.1,0,0,1-2.14-.39c-1.39-.33-2.73-.79-4.07-1.16a32.86,32.86,0,0,0-4.11-.83c-2.78-.48-5.61-.57-8.43-1a13.92,13.92,0,0,1-7.59-3.72,0,0,0,0,1,0-.06h0"/><path d="M65.29,46.17a3.18,3.18,0,0,1,1.24-1.61c.3-.17.64-.28.93-.44a5.85,5.85,0,0,0,.81-.6,4.24,4.24,0,0,1,3.84-1.05s0,0,0,.05a0,0,0,0,1,0,0,20.52,20.52,0,0,1-3.63,1.36,2.77,2.77,0,0,0-.88.43,6.5,6.5,0,0,0-.65.74,6,6,0,0,1-1.6,1.15.05.05,0,0,1-.06,0"/><path d="M72.56,47.93a1.68,1.68,0,0,1,.57-1.17c.19-.13.41-.22.58-.35a2.26,2.26,0,0,0,.4-.51,2.36,2.36,0,0,1,1-.95,1.69,1.69,0,0,1,1.39,0,0,0,0,0,1,0,.06v0a9.7,9.7,0,0,1-2.09,1.18,1.17,1.17,0,0,0-.5.37,2.58,2.58,0,0,0-.26.59,1.9,1.9,0,0,1-1,.8s-.05,0-.05,0v0"/><path d="M67.68,50a6,6,0,0,1,1,1.8,5.7,5.7,0,0,0,.27,1,3,3,0,0,0,.61.81c1,.94,1.91,1.72,2.89,2.76a.06.06,0,0,1,0,.06l0,0a4.17,4.17,0,0,1-3.2-2.59,6.78,6.78,0,0,0-.48-.93c-.2-.29-.45-.55-.65-.84a3.46,3.46,0,0,1-.44-2,0,0,0,0,1,.05,0l0,0"/><path d="M62.08,45.59a3.79,3.79,0,0,1,1.21,1.67c.1.33.15.68.28,1a3.14,3.14,0,0,0,.57.83c.93,1,1.78,1.75,2.81,2.75,0,0,0,0,0,.06h0a3.5,3.5,0,0,1-2-.82,4.28,4.28,0,0,1-1.18-1.77,5,5,0,0,0-.43-.94c-.18-.29-.44-.55-.64-.82A5.18,5.18,0,0,1,62,45.63s0,0,0,0,0,0,0,0"/><path d="M39.6,58.17A13.86,13.86,0,0,1,37,57.82a6.77,6.77,0,0,0-1.26-.29,3.67,3.67,0,0,0-1.27.2,17.39,17.39,0,0,0-4.32,2.56,0,0,0,0,1-.06,0s0,0,0,0a4.85,4.85,0,0,1,1.7-2.11,5,5,0,0,1,2.61-.83c.45,0,.89,0,1.34,0s.89-.11,1.35-.11a4.77,4.77,0,0,1,2.5.92,0,0,0,0,1,0,.06l0,0"/><path d="M36,62a6.37,6.37,0,0,1-2.18.27,6.67,6.67,0,0,0-1.09-.08,2.61,2.61,0,0,0-1,.33,5.66,5.66,0,0,0-1.57,1.25A7.61,7.61,0,0,0,29,65.54s0,0-.05,0,0,0,0,0a2.86,2.86,0,0,1,.55-2.27,3.23,3.23,0,0,1,2.08-1.11c.39,0,.76-.09,1.12-.17s.72-.25,1.09-.32A4.1,4.1,0,0,1,36,62s0,0,0,.05l0,0"/><path d="M33,67a1.7,1.7,0,0,1-.9.63,2.06,2.06,0,0,0-.55.06.87.87,0,0,0-.4.36,3.09,3.09,0,0,1-1.58,1.41,0,0,0,0,1-.06,0s0,0,0,0a1.75,1.75,0,0,1,1.4-1.72,1.75,1.75,0,0,0,.52-.23c.14-.12.26-.31.41-.44a1.22,1.22,0,0,1,1.15-.11A.05.05,0,0,1,33,67h0"/><path d="M56.05,62.12c-1,.54-1.87,1.09-2.78,1.66a7.89,7.89,0,0,0-1.36.88,5.73,5.73,0,0,0-1,1.26c-1.13,1.88-2,3.75-3.07,5.74a0,0,0,0,1,0,0,0,0,0,0,1,0,0,9,9,0,0,1,2.8-6c.41-.39.82-.77,1.2-1.18s.73-.85,1.16-1.23A5.25,5.25,0,0,1,56,62a0,0,0,0,1,0,0,.05.05,0,0,1,0,0"/><path d="M56.56,67.43a29.68,29.68,0,0,1-2.48,2.42A12.81,12.81,0,0,0,52.76,71a7.69,7.69,0,0,0-1,1.42c-1.08,2-2,4.1-3.12,6.16a0,0,0,0,1-.06,0,.08.08,0,0,1,0,0,11.35,11.35,0,0,1,2.85-6.39c.39-.44.78-.87,1.14-1.33s.68-1,1.06-1.43a8.13,8.13,0,0,1,2.89-2s.05,0,.05,0a0,0,0,0,1,0,.05"/><path d="M57.1,72.23a20.8,20.8,0,0,0-1.84,2.44A8.16,8.16,0,0,0,54.38,76a5.86,5.86,0,0,0-.46,1.49c-.33,2.07-.61,4-1,6.14a.05.05,0,0,1,0,0,0,0,0,0,1,0,0,9.25,9.25,0,0,1,.69-6.27c.23-.49.45-1,.63-1.47s.32-1,.55-1.52a4.4,4.4,0,0,1,2.36-2.17s.05,0,.05,0,0,0,0,0"/><path d="M27.51,44.21a2.26,2.26,0,0,0-.24-.38c-.07-.1-.19-.16-.2-.12s.1,0,.1,0,0,.07.13.12a.33.33,0,0,1,.09.47.27.27,0,0,1-.17.13l-.07,0c-.25.08-.44.11-.46.29a.3.3,0,0,0,.23.27.81.81,0,0,0,.46,0,.13.13,0,0,1,.16.07v0h0a.67.67,0,0,0,.59.52c.12,0,.2,0,.15,0s0-.05-.05-.17a.37.37,0,0,1,.23-.44h.11c.24,0,.37-.16.37-.2l.21.52a2,2,0,0,1-.88-.69l0-.06a.3.3,0,0,1,.1-.4l.05,0c.07,0,.11-.07.12,0s.06,0,0-.05a.54.54,0,0,0-.51-.2s-.05,0-.05,0,0,0,0,0a.68.68,0,0,1,.83-.1.55.55,0,0,1,.27.57.84.84,0,0,1-.34.47l.11-.48a3.57,3.57,0,0,0,.69.32.38.38,0,0,1,.22.49v0a1,1,0,0,1-.5.54,1.45,1.45,0,0,1-.58.14l.34-.46a.93.93,0,0,1-.23.82.75.75,0,0,1-.83.07,1.27,1.27,0,0,1-.66-1l.17.11a1.72,1.72,0,0,1-.6,0,.76.76,0,0,1-.59-.37.72.72,0,0,1,.11-.8,1.08,1.08,0,0,1,.63-.35l-.15.63a.91.91,0,0,1-.35-.63c-.05-.33.37-.7.68-.55a.68.68,0,0,1,.42.51,1.44,1.44,0,0,1,0,.51s0,0-.05,0l0,0"/><path d="M23,48.23c-.05-.2-.24-.43-.31-.37s.1,0,.11,0,.06,0,.12,0h0l.09.42a.18.18,0,0,1-.14.22h-.1c-.19-.07-.36,0-.36.12s.29.24.5.13a.13.13,0,0,1,.16.05v.07a.41.41,0,0,0,.42.3c.08,0,.1,0,0,0s0,0-.07,0a.32.32,0,0,1,.18-.42h0l.12,0a.46.46,0,0,0,.17-.08l.21.52a1.55,1.55,0,0,1-.67-.55l-.05-.11a.25.25,0,0,1,.09-.34l.07,0c.05,0,.06,0,.06,0s.08.08.06,0a.36.36,0,0,0-.33-.19,0,0,0,0,1-.05,0,0,0,0,0,1,0,0,.49.49,0,0,1,.64-.11.46.46,0,0,1,.24.48.7.7,0,0,1-.27.4l.1-.48a4.52,4.52,0,0,1,.48.18.38.38,0,0,1,.22.48v0a.87.87,0,0,1-.42.46,1.2,1.2,0,0,1-.46.1l.33-.46a.75.75,0,0,1-.2.69.63.63,0,0,1-.7,0,1,1,0,0,1-.49-.81L23,49a1.66,1.66,0,0,1-.45,0,.53.53,0,0,1-.34-.87,1.37,1.37,0,0,1,.44-.36l-.15.63h0a.82.82,0,0,1-.22-.54c0-.26.33-.5.54-.38a.49.49,0,0,1,.28.37,1.16,1.16,0,0,1,0,.37s0,0,0,0a.05.05,0,0,1,0,0"/><path d="M15.68,23.88a9.62,9.62,0,0,0-2.42,2,2.92,2.92,0,0,0-.62,1.29c-.08.45,0,1-.18,1.61-.44,1.39-2,1.3-2.33,2.26a4.53,4.53,0,0,0,0,1.56,1.26,1.26,0,0,1-.33.83,5.1,5.1,0,0,0-.57.54,2.4,2.4,0,0,0,.26,2.67,10.11,10.11,0,0,0,.89,1.24,1,1,0,0,0,1.08.28,2,2,0,0,1,1,0,1.28,1.28,0,0,1,.84.7,3.25,3.25,0,0,1,.18,1.76,1.61,1.61,0,0,0,.3,1.32,2.55,2.55,0,0,0,1.39.54v.08a2.58,2.58,0,0,1-1.65-.31,2,2,0,0,1-.66-1.64,2.54,2.54,0,0,0-.23-1.38c-.21-.34-.43-.36-1-.24a2.24,2.24,0,0,1-1,0,1.64,1.64,0,0,1-.86-.56A12.67,12.67,0,0,1,8.84,37a2.82,2.82,0,0,1,.06-3.34,5.27,5.27,0,0,1,.66-.49.83.83,0,0,0,.29-.61,7.45,7.45,0,0,1,0-1.63c.48-1.14,1.9-1.41,2-2.33.11-.44,0-1,.14-1.59a3.61,3.61,0,0,1,.83-1.54,6.69,6.69,0,0,1,2.85-1.64Z"/><path d="M5.89,35.91a10.32,10.32,0,0,0-1.5,3.22c-.09.58-.1,1.19-.17,1.8s-.3,1.22-.41,1.79c-.54,2.3.45,4.75,1.16,7C5.22,51,6.56,51,7.46,50.4a4,4,0,0,1,.9-.46,1.38,1.38,0,0,1,1.21.16,2.63,2.63,0,0,1,1,1.84,2.15,2.15,0,0,0,.62,1.38,1.75,1.75,0,0,0,1.44.32,2.48,2.48,0,0,0,1.4-.86c.39-.46,1.32-.8,1.76-.2l-.06.05a.72.72,0,0,0-.78-.11,1.76,1.76,0,0,0-.63.53,2.83,2.83,0,0,1-1.54,1.19,2.47,2.47,0,0,1-2-.3,2.7,2.7,0,0,1-1-1.83,2.15,2.15,0,0,0-.65-1.33c-.29-.24-.72-.06-1.27.26a2.76,2.76,0,0,1-2,.37,1.57,1.57,0,0,1-.92-.6,2.34,2.34,0,0,1-.36-.94c-.26-1.2-.54-2.38-.89-3.55a9.23,9.23,0,0,1-.51-3.71c.11-.63.26-1.22.37-1.79s.14-1.21.26-1.83a7.32,7.32,0,0,1,2-3.12Z"/><path d="M14.93,49.87c.55,1.4,1.06,2.83,2.24,3.46a3.57,3.57,0,0,0,2.06.34,5.66,5.66,0,0,1,2.31.09,1.56,1.56,0,0,0,1.79-.13,2.34,2.34,0,0,0,.61-.75,4.29,4.29,0,0,1,.65-1,1.15,1.15,0,0,1,.69-.35c.22,0,.47,0,.65,0a2.56,2.56,0,0,0,1-.14,3.24,3.24,0,0,0,1.68-1.24l.07,0a2.92,2.92,0,0,1-1.51,1.78,3.11,3.11,0,0,1-1.2.33c-.35.07-.64,0-.76.21a5.81,5.81,0,0,0-.54.85,3.25,3.25,0,0,1-.88.93,2,2,0,0,1-1.26.38,2.51,2.51,0,0,1-1.14-.45,3.28,3.28,0,0,0-2.11-.23,4.53,4.53,0,0,1-2.37,0,3.15,3.15,0,0,1-1.64-1.78,6.62,6.62,0,0,1-.4-2.27Z"/><path d="M23,47.26a10.22,10.22,0,0,0,2.12.17l1.09,0a2.34,2.34,0,0,1,1.16.15,3.64,3.64,0,0,0,2,.61,2.45,2.45,0,0,0,1.75-1,4.23,4.23,0,0,1,.69-.92c.41-.31.81-.27.94-.45a1.61,1.61,0,0,0,.16-1.6A7.86,7.86,0,0,1,32.26,42a2,2,0,0,1,.37-1.17,1.08,1.08,0,0,1,1.06-.48v.08c-.72.14-.91,1-.82,1.52a13.84,13.84,0,0,0,.82,1.93,2.19,2.19,0,0,1-.48,2.45c-.43.34-.87.25-1.05.39a5.67,5.67,0,0,0-.74.7,4.15,4.15,0,0,1-4.26.73,2.64,2.64,0,0,0-1-.08c-.33,0-.7,0-1.09,0A4.94,4.94,0,0,1,23,47.33Z"/><path d="M34.63,45.52a18.29,18.29,0,0,0,2.6,1.08,10.37,10.37,0,0,0,1.34.37,1.1,1.1,0,0,0,1.08-.31,2.45,2.45,0,0,1,.7-.42,1.37,1.37,0,0,1,.9,0c.49.19.89.4,1.1.28s.34-.48.28-.86-.3-.8-.45-1.3a1.67,1.67,0,0,1,0-.87.73.73,0,0,1,.91-.49,2,2,0,0,1,1.16,1.09,6.9,6.9,0,0,0,1.34,2.42,2.51,2.51,0,0,0,2.53.49A2.24,2.24,0,0,0,49.48,45a6,6,0,0,0-.1-.69.6.6,0,0,1,.22-.52A1,1,0,0,1,50,43.6a5.71,5.71,0,0,0,1.31-.35,1.54,1.54,0,0,0,.83-2,2.94,2.94,0,0,0-1.7-1.74c-.41-.2-.8-.33-1.29-.53a2.11,2.11,0,0,1-1.28-1.16c-.2-.78.34-1.29.3-1.5s-.3-.4-.69-.9a1.05,1.05,0,0,1-.1-1,2.1,2.1,0,0,1,.55-.67,7.92,7.92,0,0,1,1.24-.84,2.8,2.8,0,0,1,1.5-.27c.4,0,.55-.27.65-.75a4.82,4.82,0,0,0-.22-2.73l.07,0A4.85,4.85,0,0,1,51.75,32a1.81,1.81,0,0,1-.22.77,1,1,0,0,1-.78.44,2.36,2.36,0,0,0-1.25.3c-.65.41-1.77,1.25-1.35,1.56a5,5,0,0,0,.46.45,1.21,1.21,0,0,1,.4.93c-.12.72-.44,1-.32,1.21s.43.48.82.63a9.84,9.84,0,0,1,1.34.56,3.74,3.74,0,0,1,2,2.29,2.51,2.51,0,0,1-.1,1.62,2.12,2.12,0,0,1-1.22,1.1,6.54,6.54,0,0,1-1.45.29c-.24,0-.27,0-.27.16a4.87,4.87,0,0,1,0,.72,2.67,2.67,0,0,1-1.73,2.31,3,3,0,0,1-2.8-.54,8.18,8.18,0,0,1-1.55-2.41c-.24-.37-.56-.73-.89-.77-.18,0-.19,0-.21.1a1.37,1.37,0,0,0,.08.53,13.11,13.11,0,0,1,.5,1.38,1.42,1.42,0,0,1-.69,1.61c-.73.25-1.22-.2-1.59-.3s-.61-.07-1,.24a2,2,0,0,1-.73.38,1.64,1.64,0,0,1-.83,0,13.83,13.83,0,0,1-1.37-.5,12.73,12.73,0,0,1-2.5-1.4Z"/><path d="M50.79,33.86A3.3,3.3,0,0,1,51.6,36a3.2,3.2,0,0,0,.27,2c.75.92,2.45,2.15,3.1,1a2.63,2.63,0,0,0,.23-2,1.14,1.14,0,0,1,.43-1.17,2.06,2.06,0,0,1,1.16-.25,2.63,2.63,0,0,0,1.06-.1.66.66,0,0,0,.49-.72c0-.3-.29-.75,0-1.19a1.75,1.75,0,0,1,1.14-.44,4,4,0,0,0,1.88-.81c.49-.39.17-.88-.28-1.51L59.84,29a1.05,1.05,0,0,1-.19-.39.66.66,0,0,1,.29-.67,1.57,1.57,0,0,1,.74-.17c.39,0,.77,0,1.14,0a6.32,6.32,0,0,0,2.07-.2c.6-.18,1.21-.68,1.21-1.18s-.81-1.06-.87-2S65,23,65.57,22.56l0,.06c-.52.49-1.06,1.12-1,1.75s.9.95,1.08,2a2.17,2.17,0,0,1-1.56,1.94,6.18,6.18,0,0,1-2.33.31c-.37,0-.74,0-1.08,0a1.73,1.73,0,0,0-.34,0s.1-.14.07-.19,0,0,.06.1l1.2,1.88a3.7,3.7,0,0,1,.55,1.09,1.28,1.28,0,0,1-.49,1.32,4.12,4.12,0,0,1-2.24.75,1.46,1.46,0,0,0-.92.23c-.2.19-.07.55,0,1a.91.91,0,0,1-.68,1,3.24,3.24,0,0,1-1.14.16,1.72,1.72,0,0,0-1,.24.76.76,0,0,0-.19.83,3,3,0,0,1-.1,2.37,1.61,1.61,0,0,1-1.1.79,1.92,1.92,0,0,1-1.29-.26,5.23,5.23,0,0,1-1.79-1.56A3.49,3.49,0,0,1,51.19,36a3.64,3.64,0,0,0-.46-2.07Z"/><path d="M18.77,23.13A4.94,4.94,0,0,1,20,21.87a2.63,2.63,0,0,1,1.75-.52,7.45,7.45,0,0,1,1.67.57,3.27,3.27,0,0,0,1.59.21,1.75,1.75,0,0,0,1.2-.72,5,5,0,0,1,1.24-1.27,3.88,3.88,0,0,1,3.44-.43v.08a5.61,5.61,0,0,0-3,1.05,6.34,6.34,0,0,0-1.16,1.07,2,2,0,0,1-1.74.65,9.71,9.71,0,0,1-1.69-.39,5,5,0,0,0-1.6-.16,6.9,6.9,0,0,0-2.89,1.18Z"/><path d="M16,22.3a4,4,0,0,1-.42-2.9,2,2,0,0,1,1.07-1.24,3.33,3.33,0,0,1,1.52-.26,6.13,6.13,0,0,0,1.36,0,1.47,1.47,0,0,0,1.08-.62c.21-.32.11-1,.69-1.28a6.81,6.81,0,0,1,1.43-.23.81.81,0,0,0,.46-.26.71.71,0,0,0,0-.48,1.89,1.89,0,0,1,.52-1.56,4.08,4.08,0,0,1,2.81-1.22,5.24,5.24,0,0,1,2.87.86,5.19,5.19,0,0,0,2.55,1v.08a4.35,4.35,0,0,1-2.83-.48,5.1,5.1,0,0,0-2.56-.57,3.77,3.77,0,0,0-2.31.88,1.23,1.23,0,0,0-.43,1,1.18,1.18,0,0,1-.26.87,1.21,1.21,0,0,1-.8.33c-.53.06-1-.11-1.38.07s-.37.65-.58,1.14c-.53,1-1.76,1.11-2.65,1.18s-1.71.25-2,1.06a4.85,4.85,0,0,0-.08,2.66Z"/><path d="M23.79,13.26c-.68-.49-1.58,0-2.46-.5a1.05,1.05,0,0,1-.47-.6c-.07-.24-.07-.46-.11-.62s-.1-.21-.21-.25a3,3,0,0,1-.64-.14A1.52,1.52,0,0,1,20,8.53a3.46,3.46,0,0,1,1.27-.47,4.2,4.2,0,0,1,1.37-.13,1.67,1.67,0,0,1,1.12.93,4.36,4.36,0,0,0,.61,1,1.62,1.62,0,0,0,1,.49c.36.05.81,0,.89-.35A2,2,0,0,1,27.8,8.09a1.89,1.89,0,0,1,1.31.27,2.33,2.33,0,0,1,.82,1c.36.53,1.36.41,2.1.35a5.75,5.75,0,0,0,1.14-.26.86.86,0,0,0,.36-.23c.06-.07,0-.15.14-.47a.88.88,0,0,1,.81-.59,1.46,1.46,0,0,1,.8.2,3.8,3.8,0,0,1,1,.95c.55.69.91,1.46,1.41,2a2.35,2.35,0,0,0,1.81,1,4.35,4.35,0,0,0,2-1.11l.46-.34s0,0,0,0,0,0-.09-.07-.48-.18-.57-.57a.84.84,0,0,1,.32-.74c.69-.55,1.36-1,2-1.47l.05.06L41.93,9.76c-.11.13-.19.31-.15.37s.13.11.35.2a.72.72,0,0,1,.37.32.55.55,0,0,1-.11.58,5.93,5.93,0,0,1-.5.45,4.87,4.87,0,0,1-2.28,1.38,3,3,0,0,1-2.5-1.17c-.6-.68-1-1.43-1.46-2.06a3.25,3.25,0,0,0-.75-.77,1,1,0,0,0-.39-.12c-.1,0-.09,0-.14.08a1.63,1.63,0,0,1-.28.69,1.47,1.47,0,0,1-.69.42,6.86,6.86,0,0,1-1.31.21,7,7,0,0,1-1.3-.05,1.55,1.55,0,0,1-1.23-.69,2.06,2.06,0,0,0-.64-1,1.46,1.46,0,0,0-1.07-.27,1.59,1.59,0,0,0-1.29,1.71c-.17.56-.78.62-1.19.61a2.13,2.13,0,0,1-1.26-.49c-.68-.65-.9-1.61-1.54-1.62a3.62,3.62,0,0,0-1.11.15,4.07,4.07,0,0,0-1.05.38,1.05,1.05,0,0,0-.54.75c-.05.31.06.65.28.73s.31.06.58.16a.83.83,0,0,1,.53.68c0,.51,0,.79.3,1,.56.46,1.61.13,2.29.78Z"/><path d="M40.24,8.48a3.71,3.71,0,0,1-.92-1.22,5.05,5.05,0,0,1-.27-.74,1.15,1.15,0,0,1,.09-.93,6.41,6.41,0,0,1,1.21-1c.37-.3.85-.58,1.18-.84s.37-.49.21-1a1.13,1.13,0,0,1,.06-.86,1.32,1.32,0,0,1,.62-.55,3.64,3.64,0,0,1,3-.15c1,.61,1.24,1.77,1.77,2.44a1.44,1.44,0,0,0,.93.65c.36,0,.83-.09,1.42-.1a1.43,1.43,0,0,1,1,.34,1.44,1.44,0,0,1,.43.87,7.37,7.37,0,0,1,0,1.55,2.21,2.21,0,0,0,.25,1.29,1,1,0,0,0,1.14.44l0,.07a1.17,1.17,0,0,1-1.5-.26,2.57,2.57,0,0,1-.55-1.52c0-1-.07-2.08-.79-2A7.61,7.61,0,0,1,48,5a2.17,2.17,0,0,1-1.42-1c-.61-.93-.7-1.94-1.4-2.51a2.68,2.68,0,0,0-2.67,0,.71.71,0,0,0-.38,1,2.23,2.23,0,0,1,.23.81A1.28,1.28,0,0,1,42,4.2a13.28,13.28,0,0,1-1.22.91,7,7,0,0,0-1.1.81c-.17.18-.07.76.05,1.19a4.89,4.89,0,0,0,.6,1.32Z"/><path d="M53.17,6.11c.06-.65.15-1.29.25-1.93a4.48,4.48,0,0,1,.22-1,1.28,1.28,0,0,1,1-.58,2.53,2.53,0,0,1,2,.75,2.36,2.36,0,0,1,.65,2.05,7.91,7.91,0,0,0-.21,1.86,9.62,9.62,0,0,1,.37,1.92c0,.36-.21.65-.23.95s.15.46.47.5a2.24,2.24,0,0,1,.5.14.6.6,0,0,1,.36.49,4.69,4.69,0,0,1-.13,1,5.67,5.67,0,0,0,.06,1.84.9.9,0,0,0,.28.6s0,0,.13,0a2.45,2.45,0,0,0,.35-.22,8.57,8.57,0,0,1,1.64-1.18,3.64,3.64,0,0,1,2.13-.13c.34.06.66.14,1,.22a1.08,1.08,0,0,1,.64.38,1,1,0,0,1,.12.76c-.17.73-.39,1.18-.08,1.64a6.77,6.77,0,0,0,1.32,1.29,1.72,1.72,0,0,1,.62,1.84l-.08,0c.17-.64-.34-1.15-.8-1.51a5.94,5.94,0,0,1-1.58-1.25,1.66,1.66,0,0,1-.31-1.13c0-.37.13-.7.16-1a.37.37,0,0,0,0-.18s0,0-.2-.06c-.31-.08-.61-.15-.92-.2a3.25,3.25,0,0,0-1.68.09,9.33,9.33,0,0,0-1.53,1,2.76,2.76,0,0,1-.49.28.81.81,0,0,1-.78-.06,1.43,1.43,0,0,1-.53-1.1,5.66,5.66,0,0,1,.13-2,6.54,6.54,0,0,0,.23-.89c0-.24-.26-.33-.6-.39a.91.91,0,0,1-.49-.26.66.66,0,0,1-.15-.55c0-.35.18-.65.2-.94a6.4,6.4,0,0,0-.54-1.82,7.81,7.81,0,0,1,0-2,1.91,1.91,0,0,0-2-2.14c-.27,0-.55.08-.63.23a4,4,0,0,0-.28.85c-.17.62-.37,1.24-.57,1.86Z"/><path d="M29.66,36.28a2.19,2.19,0,0,1,.82-2.63,13,13,0,0,1,1.32-.49.81.81,0,0,0,.53-.95,1.37,1.37,0,0,1,.05-.79,1.6,1.6,0,0,1,.48-.65A7.34,7.34,0,0,1,34,30.05a1.28,1.28,0,0,0,.7-.73,5.67,5.67,0,0,0,.19-1.26L35,28a2.71,2.71,0,0,1,.33,1.4,1.72,1.72,0,0,1-.86,1.33c-.88.5-1.64.59-1.72,1.45a1.5,1.5,0,0,1-.83,1.17,5.22,5.22,0,0,0-1,.78,3.71,3.71,0,0,0-1.15,2.1Z"/><path d="M27.11,28.9a1.25,1.25,0,0,1,.9-.72c.21,0,.43,0,.62,0a2.53,2.53,0,0,0,.57-.15A2.14,2.14,0,0,1,30.37,28c.34.11.6.25,1,.41l0,.08a1.4,1.4,0,0,1-1.18.34,4.61,4.61,0,0,1-1-.34.72.72,0,0,0-.52,0,2.36,2.36,0,0,0-.44.34,1.52,1.52,0,0,1-1.1.18Z"/><path d="M8.21,28.44a5.67,5.67,0,0,1-1.91,2,2.92,2.92,0,0,0-.93.92,1.33,1.33,0,0,0,0,1.24c.15.37.66.63.56,1.47a1.14,1.14,0,0,1-.71.71,2.54,2.54,0,0,0-.49.29,1,1,0,0,0-.46.83c-.07.29.5.7.38,1.27H4.55c-.12-.43-.67-.48-.91-1.14a1.58,1.58,0,0,1,.54-1.62,2.16,2.16,0,0,1,.71-.39c.23-.08.28-.11.31-.16s-.15-.63-.27-1.13a2.6,2.6,0,0,1,.21-1.47A4.24,4.24,0,0,1,5.85,30a13.39,13.39,0,0,1,2.3-1.6Z"/><path d="M19.11,48.11a.8.8,0,0,0-1.07.27c-.06.12,0,.18.05.33a5.58,5.58,0,0,0,.48.44l.12.12a.2.2,0,0,1,0,.27.18.18,0,0,1-.19.05c-.19-.05-.46.15-.57.41s-.13.58.05.7a.52.52,0,0,0,.56,0,1.11,1.11,0,0,0,.39-.52l.73.3c0-.14.05,0,.26.09a1,1,0,0,0,.57.07.51.51,0,0,0,.37-.3c.05-.14-.16-.37-.4-.54a0,0,0,0,1,0-.06h0a.83.83,0,0,1,.86.54,1,1,0,0,1-.57,1,1.46,1.46,0,0,1-1.14.07,1,1,0,0,1-.72-1.16l.74.3a1.61,1.61,0,0,1-.85.79,1,1,0,0,1-1.12-.36,1.06,1.06,0,0,1,0-1,1.22,1.22,0,0,1,.73-.77l-.07.44a2.25,2.25,0,0,1-.83-.42A.91.91,0,0,1,17.48,48a1,1,0,0,1,1.69.05,0,0,0,0,1,0,0h0"/><path d="M20.9,49.75c.21-.29.16-.43.28-.51a.36.36,0,0,0,.21-.25.24.24,0,0,0-.21-.22,2.39,2.39,0,0,0-.49,0c-.12,0-.23-.17-.47.09v0s-.05,0-.07,0a.44.44,0,0,1-.08-.58.8.8,0,0,1,.52-.36.85.85,0,0,1,.92.53c.06.17.08.32.14.46a1.14,1.14,0,0,1,.16.52.57.57,0,0,1-.9.37,0,0,0,0,1,0-.07Z"/><path d="M6.57,47.41c-.45.05-.74.37-.68.65a.27.27,0,0,0,.39.23l.39.58a.45.45,0,0,0-.17.72A.51.51,0,0,0,7,49.7c.17-.06.28-.3.19-.36l.29-.06a.81.81,0,0,0,.48,0,.82.82,0,0,0,.45-.36c.09-.16.05-.17,0-.24a.51.51,0,0,0-.39,0l.14-.77s.21,0,.23-.05,0-.29-.13-.33l.1-.54c-.24,0-.13.12-.14.08s0-.09,0-.12a.29.29,0,0,0-.42,0,0,0,0,0,1,0,0,.06.06,0,0,1,0,0,.49.49,0,0,1,.67-.25.62.62,0,0,1,.31.37.53.53,0,0,1,0,.3.37.37,0,0,1-.41.21.27.27,0,0,1,.09-.54h0a.89.89,0,0,1,.77,1.15,1,1,0,0,1-1.41.49A.41.41,0,0,1,7.56,48a.4.4,0,0,1,.26-.2h0a1.17,1.17,0,0,1,1.15.3.91.91,0,0,1,0,1.23,1.34,1.34,0,0,1-.92.46,1.4,1.4,0,0,1-.5-.06c-.15-.06-.42-.17-.38-.49v0a.16.16,0,0,1,.17-.13.16.16,0,0,1,.12.09.57.57,0,0,1-.37.76,1,1,0,0,1-.81-.07.94.94,0,0,1,.06-1.63.35.35,0,0,1,.47.15.35.35,0,0,1-.08.42h0a.87.87,0,0,1-1,.1A.85.85,0,0,1,5.31,48a.91.91,0,0,1,.52-.7.88.88,0,0,1,.76,0s0,0,0,0,0,0,0,0"/><path d="M10.45,48.32c.34.15.16.67-.06.82a1,1,0,0,0-.35.46c0,.14,0,.14.07.17a.88.88,0,0,0,.46,0l-.1.48c.21.09.11,0,.07,0a.24.24,0,0,0-.1.2.44.44,0,0,0,.39.41.6.6,0,0,0,.58-.17.42.42,0,0,0,.06-.46l.58-.16a.22.22,0,0,0,.17,0s.06,0,.08-.11a.15.15,0,0,0,0-.15.36.36,0,0,0-.2-.11l.07-.81c.25,0,.45,0,.47-.17s0-.2-.19-.28-.38-.16-.55-.25a0,0,0,0,1,0-.06l0,0a3.42,3.42,0,0,1,.65,0,.78.78,0,0,1,.65.52.87.87,0,0,1-.33.89,1.16,1.16,0,0,1-.85.2.41.41,0,0,1-.35-.46A.42.42,0,0,1,12,49h0a1,1,0,0,1,.86.4.92.92,0,0,1,.12,1,.87.87,0,0,1-.85.54.82.82,0,0,1-.73-.64v0a.31.31,0,0,1,.24-.36.3.3,0,0,1,.35.24.86.86,0,0,1-.39.93,1.15,1.15,0,0,1-.88.13.91.91,0,0,1-.67-.61.72.72,0,0,1,.07-.53.47.47,0,0,1,.73-.16.24.24,0,0,1,.07.34l-.07.07-.1.07a1,1,0,0,1-1,.11.77.77,0,0,1-.37-1.06,1.25,1.25,0,0,1,.67-.57c.18-.09.35-.19.27-.41h0a.05.05,0,0,1,0,0h0"/><path d="M9.56,45.33c0,.34,0,.66.13.78s.12.08.15.06a.48.48,0,0,0,.22-.11l.38.6c.06-.1,0,0,0,.12a.4.4,0,0,0,.49,0c.09-.07.32-.18.47-.09a.42.42,0,0,0,.29,0,.32.32,0,0,0,.23-.39.5.5,0,0,0-.11-.17s-.16-.06,0,0a.15.15,0,0,0,.11,0,.33.33,0,0,0,.11-.37.31.31,0,0,0-.31-.19.14.14,0,0,0-.09,0l0,0,0,0s0-.06,0-.09a.44.44,0,0,0-.21-.45l-.3-.54c-.13.07.06.11,0,0s-.24-.13-.42,0c0,0-.05,0-.06,0a.06.06,0,0,1,0,0,.52.52,0,0,1,.71-.33.51.51,0,0,1,.32.48.53.53,0,0,1-.42.53.31.31,0,0,1-.33-.5l0,0a.82.82,0,0,1,1.21,0,1.13,1.13,0,0,1,.3,1.08,1,1,0,0,1-.11.27l-.08.12a.62.62,0,0,1-.18.18.57.57,0,0,1-.26.08.44.44,0,0,1-.32-.8.44.44,0,0,1,.3-.09c.4,0,.46.23.59.38a.88.88,0,0,1,.1.55.79.79,0,0,1-.71.66.71.71,0,0,1-.44-.07c-.1-.07-.11,0-.22.08a.88.88,0,0,1-.94.18.69.69,0,0,1-.08-1.18.36.36,0,1,1,.43.57h0l0,0a1.07,1.07,0,0,1-.67.19.74.74,0,0,1-.59-.47,1,1,0,0,1,.28-1.06,0,0,0,0,1,.06,0l0,0"/><path d="M10.55,33.57c-.21,0-.43.1-.48.23s0,.08.12.19a3,3,0,0,0,1.06.28.36.36,0,0,1,.3.4.37.37,0,0,1-.32.3h0a1.47,1.47,0,0,0-.68.24.7.7,0,0,0-.37.62c0,.24.39.29.62.15a.65.65,0,0,0,.34-.63l.47.12c0-.19,0-.09.14-.07a1,1,0,0,0,.29.08.69.69,0,0,0,.47-.1c.09-.09,0-.37-.32-.54l.42-.69c-.09,0,0,0,.14,0a.38.38,0,0,0,.18-.26c0-.08-.1-.24-.28-.3a1,1,0,0,0-.62,0,.05.05,0,0,1,0,0,.06.06,0,0,1,0,0,1.05,1.05,0,0,1,.72-.3.86.86,0,0,1,.79.49,1,1,0,0,1-.28,1,.85.85,0,0,1-1.14.13.41.41,0,0,1-.09-.57.4.4,0,0,1,.46-.14h.05a1.3,1.3,0,0,1,.8.76A1,1,0,0,1,12.94,36a1.25,1.25,0,0,1-1,.12,1.85,1.85,0,0,1-.45-.21c-.07-.09-.4-.18-.28-.65a.24.24,0,0,1,.29-.18.25.25,0,0,1,.18.28v0a1.15,1.15,0,0,1-.72.84.74.74,0,0,1-1-.32,1.19,1.19,0,0,1,.25-1.09,1.41,1.41,0,0,1,1-.55l0,.7a2.29,2.29,0,0,1-1.32-.56A.76.76,0,0,1,9.6,34a.51.51,0,0,1,.22-.45.78.78,0,0,1,.74,0,0,0,0,0,1,0,.06s0,0,0,0"/><path d="M13.63,29.13a2.21,2.21,0,0,1-.47.56.43.43,0,0,0-.14.37,2,2,0,0,1,.21.07.81.81,0,0,0,.46,0l.19.43a.39.39,0,0,0-.41.23c-.05.18-.11.38,0,.5a.29.29,0,0,0,.4,0A.3.3,0,0,0,14,31a.21.21,0,0,1,.1-.29.22.22,0,0,1,.18,0l.38.16a.17.17,0,0,0,.23-.07.72.72,0,0,0,.1-.55l.65-.37c-.12-.11-.28,0-.26.1s.05.05-.08-.06a3.09,3.09,0,0,0-.69-.51,0,0,0,0,1,0-.06l0,0a1.73,1.73,0,0,1,1,.15.75.75,0,0,1,.25.13.56.56,0,0,1,.2.48.57.57,0,0,1-1,.34l.65-.37a1.28,1.28,0,0,1-.25,1.32.9.9,0,0,1-1.46-.22l.67-.14a.83.83,0,0,1-.65.75.75.75,0,0,1-.8-.34c-.2-.24-.09-.54,0-.79a.91.91,0,0,1,.59-.61.23.23,0,0,1,.28.16.2.2,0,0,1,0,.22l-.05,0a1,1,0,0,1-.84.35.82.82,0,0,1-.8-.72.89.89,0,0,1,.54-.79c.24-.12.46-.14.67-.24a0,0,0,0,1,.06,0v0"/><path d="M15,34.57a.7.7,0,0,0-.46.15c-.09.08-.08.2,0,.2s.2.12.57.11l.09.58a.69.69,0,0,0-.54.11.55.55,0,0,0-.22.53c0,.2.19.24.32.21s.25-.13.26-.21l.68.24s0,0,.09,0a.52.52,0,0,0,.25-.31l.67-.16c-.23-.13-.2,0-.19,0a.24.24,0,0,0,.11-.14.79.79,0,0,0-.15-.62,0,0,0,0,1,0-.06h0a.84.84,0,0,1,.61.68.72.72,0,0,1-.14.58.63.63,0,0,1-.33.22.54.54,0,0,1-.54-.15l.65-.16a1.09,1.09,0,0,1-.76,1,.82.82,0,0,1-1-.9l.67.25a.92.92,0,0,1-.95.37.67.67,0,0,1-.54-.73,1.31,1.31,0,0,1,.29-.74,1.24,1.24,0,0,1,.71-.49.28.28,0,0,1,.34.21.28.28,0,0,1-.15.31l-.1.05a1,1,0,0,1-.72.09.81.81,0,0,1-.62-.66.67.67,0,0,1,.5-.71.68.68,0,0,1,.66.18s0,0,0,.06h0"/><path d="M6.52,40.28a.72.72,0,0,0-.46.15c-.09.08-.07.2,0,.2s.19.12.57.11l.09.58a.68.68,0,0,0-.54.11.51.51,0,0,0-.22.53c0,.2.18.24.31.21A.35.35,0,0,0,6.5,42l.67.25s0,0,.09,0a.52.52,0,0,0,.26-.31l.66-.16c-.22-.13-.2,0-.19,0a.24.24,0,0,0,.11-.14A.78.78,0,0,0,8,40.92s0-.05,0-.06H8a.89.89,0,0,1,.61.68.78.78,0,0,1-.14.59.65.65,0,0,1-.34.22.55.55,0,0,1-.54-.15L8.26,42A1.1,1.1,0,0,1,7.5,43a.83.83,0,0,1-1-.9l.67.25a.89.89,0,0,1-1,.36A.66.66,0,0,1,5.63,42a1.25,1.25,0,0,1,.3-.74,1.26,1.26,0,0,1,.7-.5A.29.29,0,0,1,7,41a.28.28,0,0,1-.15.31l-.09.05A1.06,1.06,0,0,1,6,41.4a.8.8,0,0,1-.62-.66.67.67,0,0,1,.5-.71.68.68,0,0,1,.66.18,0,0,0,0,1,0,.06h0"/><path d="M8.37,31.19A.4.4,0,0,0,8.1,31c-.07,0-.09.08,0,.06s0,0,.13.23l-.47.36a.38.38,0,0,0-.17-.29.3.3,0,0,0-.35,0c-.11.06,0,.16,0,.19s.14,0,.14,0l.11.71a.12.12,0,0,0,.11-.16s0,0,.13,0l.46.5c0-.3-.11-.26-.13-.26s0,0,0,0,.23-.07.35-.22,0,0,.06,0l0,0a.61.61,0,0,1-.18.66.57.57,0,0,1-.46.13.5.5,0,0,1-.42-.64l.46.5A.84.84,0,0,1,7,32.75a.69.69,0,0,1,.25-1.13l.1.71a.68.68,0,0,1-.6-.53.53.53,0,0,1,.31-.63,1.13,1.13,0,0,1,.57-.07.88.88,0,0,1,.6.25.28.28,0,0,1,0,.39.29.29,0,0,1-.33,0l-.13-.07a.75.75,0,0,1-.33-.43.66.66,0,0,1,.24-.7.53.53,0,0,1,.69.09.48.48,0,0,1,.09.5,0,0,0,0,1-.06,0h0"/><path d="M21.15,35.86a2,2,0,0,1-.11.54,1.55,1.55,0,0,0-.13.3c0-.09-.15,0,0,.1s.27,0,.39-.1l.08.27c-.08,0,0,.26,0,.37s.06,0,0-.05-.08-.06.08-.06a.75.75,0,0,1,.29.07l.19.13s0,.08.09.11a.52.52,0,0,0,.49,0,0,0,0,0,1,.06,0v0a.61.61,0,0,1-.58.58.83.83,0,0,1-.49-.08l-.09,0h0a.77.77,0,0,1-.53-.18.59.59,0,0,1-.17-.63.77.77,0,0,1,.67-.58h0a.15.15,0,0,1,.05.28c-.17,0-.32.14-.56.2a.59.59,0,0,1-.4-.07.5.5,0,0,1-.24-.48.76.76,0,0,1,.36-.56,1.79,1.79,0,0,1,.52-.25.07.07,0,0,1,.06,0Z"/><path d="M7.15,27.09a1.83,1.83,0,0,1-.5-.07l-.25-.1c.1,0,0-.17-.07-.06s0,.24.09.34l-.27.09c0-.06-.23,0-.33,0s0,.06.09,0,.06-.1.06,0a.56.56,0,0,1-.06.29l-.12.17s-.06,0-.09.06a.49.49,0,0,0-.06.44,0,0,0,0,1,0,.06h0A.59.59,0,0,1,5,27.84a.85.85,0,0,1,.07-.47l0-.07s0,0,0,0a.77.77,0,0,1,.16-.5.6.6,0,0,1,.61-.18.72.72,0,0,1,.53.63v0a.15.15,0,0,1-.13.15.13.13,0,0,1-.14-.1c0-.15-.14-.28-.2-.5a.48.48,0,0,1,0-.38.46.46,0,0,1,.45-.24.68.68,0,0,1,.52.33,1.25,1.25,0,0,1,.22.48.08.08,0,0,1,0,.06h0"/><path d="M40.67,42.91a2,2,0,0,1-.11.54,1.35,1.35,0,0,0-.13.29c0-.09-.15,0,0,.1s.27,0,.39-.09l.08.27c-.08,0,0,.26,0,.37s.06,0,0-.06-.07,0,.08,0a.58.58,0,0,1,.29.07l.19.13c0,.05,0,.07.09.11a.55.55,0,0,0,.49,0,0,0,0,0,1,.06,0v0a.64.64,0,0,1-.58.58.85.85,0,0,1-.5-.09l-.08,0s0,0,0,0a.83.83,0,0,1-.53-.18.6.6,0,0,1-.17-.64.76.76,0,0,1,.67-.57h0a.14.14,0,0,1,.15.13.14.14,0,0,1-.1.14c-.17,0-.32.14-.56.2a.53.53,0,0,1-.4-.06.51.51,0,0,1-.24-.48.76.76,0,0,1,.36-.56,1.39,1.39,0,0,1,.52-.25.05.05,0,0,1,.06,0Z"/><path d="M41.83,25.88a3,3,0,0,0,3.06-.79,5.86,5.86,0,0,0,.93-1.52,2.13,2.13,0,0,1,1.47-1.23,11.5,11.5,0,0,0,1.7-.41c.42-.2.5-.65.7-1.3a2.51,2.51,0,0,1,.55-.92,3.29,3.29,0,0,1,.84-.59c.59-.29,1.17-.44,1.74-.7l0,.07c-.88.94-2.2,1.35-2.36,2.41a5,5,0,0,1-.34.92,1.7,1.7,0,0,1-.86.79,5.59,5.59,0,0,1-1.94.16,1.36,1.36,0,0,0-1.31.91,9.72,9.72,0,0,1-.64,1.82,2.5,2.5,0,0,1-3.62.45Z"/><path d="M39.23,38.6a4.15,4.15,0,0,0-.52.5c-.18.17-.2.35-.15.33a.54.54,0,0,0,.34.13.89.89,0,0,0,.43-.11l.2.57a.38.38,0,0,0-.41.15.74.74,0,0,0-.13.62c0,.23.24.34.37.25a.5.5,0,0,0,.18-.22s0-.1.05-.15,0,0,0,0a.11.11,0,0,0,0,.07c0,.07.21.1.25,0l.1-.11a.25.25,0,0,0,.12.18c.06,0,.1,0,.17,0s.09-.26,0-.38l-.95-1.13,1.41.45a.42.42,0,0,0,.36,0,.36.36,0,0,0,.15-.34A.83.83,0,0,0,40.8,39l-.73-.38v-.08a4.44,4.44,0,0,1,.88.06,1.2,1.2,0,0,1,.85.6,1.08,1.08,0,0,1-.22,1.19,1.16,1.16,0,0,1-1.19.25l.45-.68a1.09,1.09,0,0,1,.26.85,1,1,0,0,1-.54.74.81.81,0,0,1-.91-.13.72.72,0,0,1-.15-.86v0l.1-.1c.06,0,.29,0,.33.07a.27.27,0,0,1,.07.15.43.43,0,0,1,0,.23,1.88,1.88,0,0,1-.12.18.92.92,0,0,1-.38.29c-.37.16-.68-.2-.74-.46a1.52,1.52,0,0,1,0-.87.91.91,0,0,1,.81-.61l.82-.06-.62.63a1.13,1.13,0,0,1-.92.32,1,1,0,0,1-.85-.61.62.62,0,0,1,.12-.61,1.34,1.34,0,0,1,.34-.27,1.7,1.7,0,0,1,.75-.24Z"/><path d="M40.26,36.65a3.85,3.85,0,0,0-.07-.52c0-.2-.13-.25-.08-.17s-.09,0-.15.11a.76.76,0,0,0-.13.23l-.56-.23s.13-.1.12-.23a.46.46,0,0,0-.23-.36c-.15-.1-.27,0-.28.06a.33.33,0,0,0,0,.18l.06.09s0,0,0-.05a.24.24,0,0,0-.08,0c-.07,0-.22.11-.21.16V36s-.08,0-.09,0,0,0,0,.05.06,0,.13,0l1.06.11-.86.68a.2.2,0,0,0-.06.3.51.51,0,0,0,.4,0l.58-.18,0,.06a2.39,2.39,0,0,1-.45.51A.85.85,0,0,1,38,37.12a1,1,0,0,1,.51-.89l.2.79a.9.9,0,0,1-.67-.31A.82.82,0,0,1,37.9,36a.69.69,0,0,1,.61-.5.6.6,0,0,1,.62.4V36c0,.08-.17.22-.26.19a.21.21,0,0,1-.15-.05A.31.31,0,0,1,38.6,36c0-.06,0-.11,0-.17a.84.84,0,0,1,0-.38.47.47,0,0,1,.67-.2,1.27,1.27,0,0,1,.52.44.78.78,0,0,1,0,.84l-.5.65-.06-.88a.86.86,0,0,1,.3-.74.79.79,0,0,1,.84-.18.48.48,0,0,1,.32.42.93.93,0,0,1,0,.35,1.23,1.23,0,0,1-.28.53Z"/><path d="M34.72,37.68c-.11.11-.09.26,0,.27l.06,0s0-.06-.08,0l.33.51a.93.93,0,0,0-.19.54.2.2,0,0,0,.12.22c.09,0,.22-.1.16-.18l.24,0a.2.2,0,0,0,.22.17.26.26,0,0,0,.23-.15.43.43,0,0,0,.07-.25.9.9,0,0,0,0-.13l0,0a.3.3,0,0,0,.26.13l.3-.62c-.13-.16-.13-.07-.14-.08s.07-.07.06-.17-.25-.42-.68-.42l0-.07a.85.85,0,0,1,.67-.23.81.81,0,0,1,.7.47.87.87,0,0,1-.09,1,.72.72,0,0,1-1.18,0l-.38-.52L36,38a.52.52,0,0,1,.47.24.66.66,0,0,1,.09.27,1,1,0,0,1,0,.37,1,1,0,0,1-.41.59.69.69,0,0,1-1.07-.49l0-.79.22.75a.49.49,0,0,1-.34.61.67.67,0,0,1-.73-.31.94.94,0,0,1,.45-1.32l.34.51a.47.47,0,0,1-.51,0,.53.53,0,0,1-.24-.36.41.41,0,0,1,.41-.44Z"/><path d="M46.42,42c-.29.3-.62.59-.67.86s0,.12,0,.1a1.31,1.31,0,0,0,.34,0l.13.68a.59.59,0,0,0-.44.15.48.48,0,0,0-.12.53.44.44,0,0,0,.51.23c.2,0,.28-.21.31-.42l.24.32c.19,0,.19-.13.18-.21s0-.06,0-.07a1,1,0,0,0,.2,0,.5.5,0,0,0,.32,0c.19-.11,0-.17.1-.11l.51-.56c-.09-.14,0,0,0-.07a.18.18,0,0,0,.14-.2.61.61,0,0,0-.27-.4,2.53,2.53,0,0,0-.64-.29v-.08a1.61,1.61,0,0,1,.79,0,1,1,0,0,1,.73.59A.91.91,0,0,1,48.49,44a.82.82,0,0,1-1.24-.32l-.41-.86.93.31a.81.81,0,0,1,.54.9.91.91,0,0,1-.59.71,1.22,1.22,0,0,1-1.1-.18.61.61,0,0,1-.21-.26.33.33,0,0,1,.3-.43l.41-.06-.18.39a.92.92,0,0,1-.73.54.81.81,0,0,1-.76-.4.94.94,0,0,1-.07-.91,1.05,1.05,0,0,1,.8-.59l.14.68a1,1,0,0,1-.86,0,.64.64,0,0,1-.35-.49.77.77,0,0,1,.1-.47,1.64,1.64,0,0,1,1.17-.69Z"/><path d="M45.45,39.12c.21.22.13.43,0,.43s-.18-.06-.22-.06,0,.08,0,.12.25,0,.11-.15-.11,0-.16,0a.14.14,0,0,0,.06.23l.07,0c.11.12,0,.31-.16.35a.42.42,0,0,1-.4-.06c-.26-.29-.1-.61.09-.65s.15,0,.17-.09,0-.18,0-.25.08,0,.35,0Z"/><path d="M45.65,40.18a1.29,1.29,0,0,0,.65.2.54.54,0,0,0,.39,0,.62.62,0,0,0,.3-.35h.26a.2.2,0,0,0,.15-.16s0,0,0-.11a1.37,1.37,0,0,0-.4-.73L47,39a.94.94,0,0,1,.66,0,.91.91,0,0,1,.54.59.83.83,0,0,1-.33.88A.62.62,0,0,1,47,40.3h.26a1.19,1.19,0,0,0-.39.35.94.94,0,0,1-.49.42c-.54.11-1-.44-.8-.87Z"/><path d="M47.05,26.62c0,.2-.1.39-.15.58a1.38,1.38,0,0,0-.12.44s.16.1.51-.06l1.58-.73-1.14,1.23a.34.34,0,0,0,.29.46.52.52,0,0,0,.46-.14c.13-.12.13-.33,0-.36l.19-.2a.53.53,0,0,0,.55.16.52.52,0,0,0,.34-.32.41.41,0,0,0-.35-.56l.11-.84a1.19,1.19,0,0,0,.22,0s-.06.05,0,.07,0-.25-.12-.42a1.88,1.88,0,0,0-1.07-.83V25a1.67,1.67,0,0,1,1.59.51,1.22,1.22,0,0,1,.38,1,.74.74,0,0,1-.56.58,1.35,1.35,0,0,1-.54,0l.1-.83a1.13,1.13,0,0,1,.92.64A1.07,1.07,0,0,1,50.18,28a1,1,0,0,1-.9.46,1.06,1.06,0,0,1-.79-.45l-.72-1,.91.81a.54.54,0,0,1,0,.75,1.14,1.14,0,0,1-.64.38.87.87,0,0,1-.8-.26.84.84,0,0,1-.14-.94l.45.5a1.33,1.33,0,0,1-.75.1.68.68,0,0,1-.58-.72,1.55,1.55,0,0,1,.35-.61,5.51,5.51,0,0,1,.41-.43Z"/><path d="M51.2,23.5c0,.21.27.26.28.2l-.25.39c.24.27-.1.2.15.52a.28.28,0,0,0,.23.1c.08,0,.18-.14.16-.06s0,0,0,.11a.23.23,0,0,0,.12,0,.29.29,0,0,0,.19-.2s0,0,0,0,0,.06,0,.13.2.18.28.15a.35.35,0,0,0,.33-.31.38.38,0,0,0-.21-.37.27.27,0,0,0-.15,0h0s0,.05,0-.1a.38.38,0,0,0-.23-.31l.07-.35c-.06,0,0,0,0,.06s.06,0,0-.08l0-.07a.2.2,0,0,1,.14.27.27.27,0,0,1-.38.14l-.39-.18.46-.17a.79.79,0,0,1,.93.38.81.81,0,0,1-.27,1.16.62.62,0,0,1-.19.07.54.54,0,0,1-.33,0,.48.48,0,0,1-.31-.5.47.47,0,0,1,.46-.41.5.5,0,0,1,.43.23.5.5,0,0,1,.07.31.64.64,0,0,1-.1.33.78.78,0,0,1-1,.34.47.47,0,0,1-.28-.52c.05-.16.27-.45.54-.14,0,.32-.18.31-.32.41a.78.78,0,0,1-.48.06.7.7,0,0,1-.61-.84.74.74,0,0,1,.35-.5.51.51,0,0,1,.74.14l.42.55-.67-.16a.48.48,0,0,1-.31-.77Z"/><path d="M28.79,25c-.06-.2-.29-.23-.3-.17l.21-.42c-.28-.24.07-.21-.22-.5a.32.32,0,0,0-.24-.06c-.08,0-.17.15-.15.08s0-.05,0-.11a.28.28,0,0,0-.12,0,.29.29,0,0,0-.16.23s0,0,0,0a.2.2,0,0,0-.05-.13.33.33,0,0,0-.59.23.36.36,0,0,0,.25.34.29.29,0,0,0,.16,0h0s0,0,0,.11a.37.37,0,0,0,.26.27l0,.36c.07,0,.05-.05,0-.06s0,0,0,.08l0,.07a.19.19,0,0,1-.17-.24.27.27,0,0,1,.36-.19l.41.13-.44.22A.8.8,0,0,1,27,25a.82.82,0,0,1,.12-1.19,1.11,1.11,0,0,1,.19-.09.61.61,0,0,1,.33,0,.47.47,0,0,1,.36.46.47.47,0,0,1-.4.47.55.55,0,0,1-.46-.18.65.65,0,0,1-.11-.3.86.86,0,0,1,.06-.34.79.79,0,0,1,1-.47.49.49,0,0,1,.35.49c0,.16-.21.48-.52.21,0-.32.14-.34.27-.45a.8.8,0,0,1,.46-.13.72.72,0,0,1,.72.77.75.75,0,0,1-.29.54.51.51,0,0,1-.75-.05l-.49-.49.69.07a.48.48,0,0,1,.4.72Z"/><path d="M20.11,43.44c-.06-.2-.29-.23-.3-.17l.21-.42c-.28-.24.07-.2-.22-.49a.29.29,0,0,0-.24-.07c-.08,0-.17.15-.15.08s0,0,0-.11a.28.28,0,0,0-.12,0,.29.29,0,0,0-.16.23s0,0,0,0a.2.2,0,0,0-.05-.13c0-.06-.22-.15-.29-.11a.35.35,0,0,0-.3.35.39.39,0,0,0,.25.34.28.28,0,0,0,.16,0h0s0,0,0,.11a.4.4,0,0,0,.26.28l0,.35c.07,0,.05,0,0-.06s0,0,0,.08l0,.07a.18.18,0,0,1-.17-.24.27.27,0,0,1,.36-.19l.41.13-.44.22a.78.78,0,0,1-1-.26.82.82,0,0,1,.12-1.19,1.11,1.11,0,0,1,.19-.09.61.61,0,0,1,.33,0,.48.48,0,0,1,.36.46.47.47,0,0,1-.4.47.52.52,0,0,1-.46-.18.65.65,0,0,1-.11-.3.86.86,0,0,1,.06-.34.78.78,0,0,1,1-.46.47.47,0,0,1,.35.48c0,.16-.21.49-.52.21,0-.32.14-.34.27-.45a.79.79,0,0,1,.46-.12.71.71,0,0,1,.72.76.75.75,0,0,1-.29.54.51.51,0,0,1-.75-.05l-.49-.49.69.08a.47.47,0,0,1,.4.72Z"/><path d="M43.94,25.22c-.06-.21-.29-.24-.3-.17l.2-.42c-.27-.24.08-.21-.21-.5a.29.29,0,0,0-.24-.07c-.08,0-.17.16-.15.08s0,0-.05-.1a.15.15,0,0,0-.11,0,.28.28,0,0,0-.17.22s0,.05,0,0a.22.22,0,0,0,0-.12.37.37,0,0,0-.3-.12.35.35,0,0,0-.29.35.37.37,0,0,0,.25.34.25.25,0,0,0,.15,0l0,0s0,0,0,.11a.4.4,0,0,0,.27.28l0,.36c.06,0,0-.05,0-.07s0,0,0,.08l0,.08a.2.2,0,0,1-.18-.25.28.28,0,0,1,.37-.19l.41.13-.44.23a.8.8,0,0,1-1-.26A.81.81,0,0,1,42.24,24a.85.85,0,0,1,.19-.1.61.61,0,0,1,.33,0,.49.49,0,0,1,.36.47.47.47,0,0,1-.41.46.48.48,0,0,1-.45-.18.53.53,0,0,1-.11-.29.69.69,0,0,1,.06-.34.78.78,0,0,1,1-.47.49.49,0,0,1,.35.48c0,.17-.22.49-.52.21,0-.32.14-.33.26-.45a.94.94,0,0,1,.47-.12.72.72,0,0,1,.72.76.81.81,0,0,1-.29.54.51.51,0,0,1-.75,0l-.49-.5.69.08a.47.47,0,0,1,.39.72Z"/><path d="M43.35,23.17c.17-.12.13-.35.07-.34l.46.07c.15-.33.22,0,.41-.35a.31.31,0,0,0,0-.25c0-.08-.2-.11-.13-.12s.05,0,.09-.07a.16.16,0,0,0,0-.11.3.3,0,0,0-.27-.09s0,0,0,0,.05,0,.1-.08a.36.36,0,0,0,0-.32.34.34,0,0,0-.42-.17.35.35,0,0,0-.25.34.2.2,0,0,0,.05.14v0s0-.05-.1,0a.41.41,0,0,0-.19.34l-.34.08c0,.06.05,0,.06,0s0,0-.08,0h-.08a.2.2,0,0,1,.18-.24.27.27,0,0,1,.29.29v.43l-.35-.35a.8.8,0,0,1,0-1A.81.81,0,0,1,44,21.19a.67.67,0,0,1,.14.15.64.64,0,0,1,.11.31.5.5,0,0,1-.33.49.48.48,0,0,1-.57-.25.5.5,0,0,1,.29-.68.7.7,0,0,1,.34,0,.76.76,0,0,1,.73.78.49.49,0,0,1-.36.48c-.16,0-.52-.06-.35-.43.31-.11.37,0,.51.12a.93.93,0,0,1,.26.4.74.74,0,0,1-.52.92.84.84,0,0,1-.6-.12.52.52,0,0,1-.18-.74l.33-.6.13.67c.08.43-.31.71-.57.6Z"/><path d="M28.7,16.09c.18-.12.14-.35.07-.34l.46.07c.15-.33.22,0,.42-.35a.31.31,0,0,0,0-.25c0-.08-.2-.11-.12-.12s0,0,.09-.07a.31.31,0,0,0-.05-.11.29.29,0,0,0-.26-.09s0,0,0,0a.16.16,0,0,0,.11-.08c.05,0,.08-.26,0-.31a.34.34,0,0,0-.42-.18.35.35,0,0,0-.25.34.26.26,0,0,0,.05.14l0,0c.05,0,0,0-.11,0a.41.41,0,0,0-.18.34l-.35.08c0,.06.06,0,.07,0s-.05-.05-.09,0h-.08a.2.2,0,0,1,.19-.24.28.28,0,0,1,.29.29v.44l-.34-.36a.78.78,0,0,1,0-1,.81.81,0,0,1,1.17-.24.67.67,0,0,1,.14.15.56.56,0,0,1,.11.32.48.48,0,0,1-.33.48.46.46,0,0,1-.56-.25.49.49,0,0,1,.28-.68.88.88,0,0,1,.34-.05.79.79,0,0,1,.74.79.49.49,0,0,1-.36.48c-.17,0-.53-.06-.35-.43.3-.11.36,0,.5.12a.85.85,0,0,1,.26.4.74.74,0,0,1-.52.92.84.84,0,0,1-.6-.12c-.13-.13-.41-.31-.18-.73l.33-.61.13.68a.47.47,0,0,1-.57.59Z"/><path d="M65.61,22.73c.17-.12.13-.35.07-.33l.46.06c.15-.33.22,0,.42-.35a.33.33,0,0,0,0-.24c0-.09-.2-.12-.13-.13s0,0,.09-.07a.16.16,0,0,0,0-.11.29.29,0,0,0-.26-.09s0,0,0,0a.22.22,0,0,0,.1-.09.34.34,0,0,0,0-.31.35.35,0,0,0-.67.16.25.25,0,0,0,0,.15l0,0s0-.05-.11,0a.42.42,0,0,0-.19.34l-.34.08c0,.06,0,0,.07,0s0,0-.09,0H65a.21.21,0,0,1,.19-.25.27.27,0,0,1,.28.29v.44L65.11,22a.78.78,0,0,1,0-1,.82.82,0,0,1,1.17-.24.73.73,0,0,1,.14.16.61.61,0,0,1,.11.31.47.47,0,0,1-.9.23.53.53,0,0,1,0-.49.57.57,0,0,1,.25-.19.7.7,0,0,1,.34,0,.78.78,0,0,1,.74.79.48.48,0,0,1-.36.47c-.17,0-.53-.06-.36-.43.31-.11.37,0,.51.12a.83.83,0,0,1,.26.41.73.73,0,0,1-.52.91.8.8,0,0,1-.6-.12.51.51,0,0,1-.18-.73l.33-.61.13.68a.47.47,0,0,1-.57.59Z"/><path d="M61.74,15.73c.18-.12.14-.35.08-.33l.46.07c.14-.34.22,0,.41-.35a.31.31,0,0,0,0-.25c0-.09-.2-.11-.12-.12s0,0,.09-.08a.31.31,0,0,0,0-.11.28.28,0,0,0-.26-.09s0,0,0,0a.23.23,0,0,0,.11-.09.34.34,0,0,0,0-.31.35.35,0,0,0-.43-.17.37.37,0,0,0-.25.34.29.29,0,0,0,.05.14l0,0s0-.05-.11,0a.4.4,0,0,0-.18.33l-.35.08c0,.06.06,0,.07,0s0,0-.08,0h-.08a.19.19,0,0,1,.18-.24.27.27,0,0,1,.29.29v.43L61.25,15a.85.85,0,0,1,1.13-1.24.54.54,0,0,1,.15.15.52.52,0,0,1,.1.31.48.48,0,0,1-.33.49.47.47,0,0,1-.56-.26.48.48,0,0,1,0-.48.52.52,0,0,1,.24-.2.9.9,0,0,1,.35,0,.79.79,0,0,1,.73.79.48.48,0,0,1-.36.47c-.17,0-.53-.06-.35-.43.3-.11.36,0,.51.12a.82.82,0,0,1,.25.41.72.72,0,0,1-.52.91.81.81,0,0,1-.6-.11.53.53,0,0,1-.18-.74l.33-.61.14.68a.48.48,0,0,1-.58.59Z"/><path d="M15.44,19c.18-.12.14-.35.07-.33l.46.06c.15-.33.22,0,.42-.34a.31.31,0,0,0,0-.25c0-.09-.2-.12-.12-.13s0,0,.09-.07a.31.31,0,0,0-.05-.11.29.29,0,0,0-.26-.09s0,0,0,0a.28.28,0,0,0,.11-.09.34.34,0,0,0,0-.31.35.35,0,0,0-.67.16.23.23,0,0,0,0,.15l0,0s0-.05-.11,0a.45.45,0,0,0-.19.34l-.34.08c0,.06.06,0,.07,0s-.05,0-.09,0h-.08a.19.19,0,0,1,.19-.24.27.27,0,0,1,.29.29v.43L15,18.23a.78.78,0,0,1,0-1A.82.82,0,0,1,16.08,17l.15.16a.52.52,0,0,1,.1.31.47.47,0,0,1-.9.23.53.53,0,0,1,0-.49.57.57,0,0,1,.25-.19.7.7,0,0,1,.34,0,.78.78,0,0,1,.74.79.48.48,0,0,1-.36.47c-.17,0-.53-.06-.36-.43.31-.11.37,0,.51.12a.83.83,0,0,1,.26.41.72.72,0,0,1-.52.91.79.79,0,0,1-.6-.11.53.53,0,0,1-.18-.74l.33-.61.13.68a.47.47,0,0,1-.57.59Z"/><path d="M5.4,31c-.22,0-.34.18-.28.21l-.3-.35c-.33.16-.16-.16-.54,0a.29.29,0,0,0-.16.2c0,.07.08.22,0,.17s0,0-.11,0a.19.19,0,0,0,0,.11.29.29,0,0,0,.14.24h0a.18.18,0,0,0-.14,0c-.06,0-.22.14-.22.22a.35.35,0,0,0,.2.41.37.37,0,0,0,.42-.1.24.24,0,0,0,0-.14v0c0-.05,0,0,.1,0a.4.4,0,0,0,.36-.13l.32.17c0-.06,0-.06-.05-.06s0,.07.06.06l.06.05a.19.19,0,0,1-.29.06.27.27,0,0,1,0-.4l.29-.33,0,.49a.79.79,0,0,1-.63.79.81.81,0,0,1-1-.58.74.74,0,0,1,0-.21.67.67,0,0,1,.12-.31.49.49,0,0,1,.57-.15.48.48,0,0,1-.08.9.51.51,0,0,1-.31,0,.81.81,0,0,1-.29-.19.78.78,0,0,1,0-1.08.47.47,0,0,1,.58-.12c.14.09.36.39,0,.55-.3-.11-.25-.26-.31-.42a.87.87,0,0,1,.08-.47.72.72,0,0,1,1-.36.89.89,0,0,1,.39.48c0,.19.11.5-.35.67l-.64.25.34-.6a.48.48,0,0,1,.82-.08Z"/><path d="M19.63,52.8c-.21,0-.33.18-.27.21l-.3-.35c-.33.15-.16-.16-.55,0a.31.31,0,0,0-.15.2c-.05.07.08.21,0,.17s0,0-.11,0a.19.19,0,0,0,0,.11.27.27,0,0,0,.14.24s0,0,0,0-.05,0-.13,0-.23.14-.23.22a.37.37,0,0,0,.21.41.36.36,0,0,0,.41-.1.33.33,0,0,0,.06-.14v0s-.05,0,.1.05a.41.41,0,0,0,.36-.13l.31.17c0-.06,0-.07,0-.06s0,.07.06.06l.06,0a.2.2,0,0,1-.3.06.26.26,0,0,1,0-.4l.29-.33,0,.49a.8.8,0,0,1-.63.79.81.81,0,0,1-1-.58.74.74,0,0,1,0-.21.67.67,0,0,1,.12-.31.48.48,0,0,1,.57-.15.46.46,0,0,1,.26.56.49.49,0,0,1-.34.34.51.51,0,0,1-.31,0,.73.73,0,0,1-.29-.19.79.79,0,0,1-.05-1.08.5.5,0,0,1,.58-.13c.14.1.36.4,0,.56-.3-.11-.25-.26-.31-.42a1,1,0,0,1,.07-.47.72.72,0,0,1,1-.36.83.83,0,0,1,.38.48c0,.18.11.5-.34.67l-.65.25.35-.6a.47.47,0,0,1,.81-.08Z"/><path d="M15,38.92c-.21,0-.33.17-.28.2l-.3-.35c-.33.16-.16-.15-.54,0a.29.29,0,0,0-.16.2c-.05.06.08.21,0,.17s0,0-.11,0a.23.23,0,0,0,0,.11.3.3,0,0,0,.15.25s0,0,0,0a.23.23,0,0,0-.14,0c-.06,0-.22.15-.22.23a.34.34,0,0,0,.2.4A.38.38,0,0,0,14,40a.3.3,0,0,0,0-.14v0c0-.06,0,0,.1,0a.41.41,0,0,0,.36-.14l.32.17c0-.06,0-.06-.05-.05s0,.06.06.05l.06,0a.19.19,0,0,1-.29.07.28.28,0,0,1,0-.41l.29-.32,0,.49a.8.8,0,0,1-.63.79.81.81,0,0,1-1-.59,1.34,1.34,0,0,1,0-.21.6.6,0,0,1,.12-.3.49.49,0,0,1,.57-.15.47.47,0,0,1,.27.55.49.49,0,0,1-.66.33.7.7,0,0,1-.29-.19.77.77,0,0,1,0-1.07.48.48,0,0,1,.58-.13c.14.09.36.39,0,.56-.3-.12-.26-.27-.31-.42a.81.81,0,0,1,.07-.48.72.72,0,0,1,1-.35.78.78,0,0,1,.38.47c0,.19.11.5-.35.68l-.64.25.34-.6a.47.47,0,0,1,.82-.08Z"/><path d="M41.24,12.65c-.21,0-.33.18-.27.21l-.31-.35c-.33.16-.16-.16-.54,0a.28.28,0,0,0-.15.2c-.06.07.07.22,0,.17s0,0-.12,0a.32.32,0,0,0,0,.11.28.28,0,0,0,.15.24h0s0,0-.13,0-.23.14-.23.22a.36.36,0,0,0,.62.31.25.25,0,0,0,.06-.14v0c0-.05-.06,0,.09,0a.39.39,0,0,0,.36-.13l.32.17c0-.06,0-.06,0-.06s0,.07.06.06l0,.05a.19.19,0,0,1-.29.06.26.26,0,0,1,0-.4L41.1,13l0,.49a.78.78,0,0,1-.62.79.81.81,0,0,1-1-.58.5.5,0,0,1,0-.21.57.57,0,0,1,.12-.31.48.48,0,0,1,.57-.15.48.48,0,0,1,.26.56.49.49,0,0,1-.34.34.55.55,0,0,1-.32,0,.81.81,0,0,1-.29-.19.79.79,0,0,1,0-1.08.48.48,0,0,1,.58-.12c.14.09.36.39,0,.55-.3-.11-.25-.26-.31-.42a.78.78,0,0,1,.07-.47.73.73,0,0,1,1-.36.83.83,0,0,1,.38.48c0,.18.11.5-.34.67l-.65.25.34-.6a.48.48,0,0,1,.82-.08Z"/><path d="M41.7,25.72c-.22,0-.34.18-.28.21l-.3-.35c-.33.15-.16-.16-.54,0a.29.29,0,0,0-.16.2c-.05.07.08.21,0,.17s0,0-.11,0a.19.19,0,0,0,0,.11.29.29,0,0,0,.14.24s0,0,0,0a.3.3,0,0,0-.14,0c-.06,0-.23.14-.22.22a.35.35,0,0,0,.2.41.38.38,0,0,0,.42-.1.3.3,0,0,0,0-.14v0c0-.05,0,0,.1.05a.4.4,0,0,0,.36-.13l.32.17c0-.06,0-.07-.05-.06s0,.07.06.06l.06.05a.19.19,0,0,1-.29.06.27.27,0,0,1,0-.4l.29-.33,0,.49a.8.8,0,0,1-.63.79.81.81,0,0,1-1-.58.74.74,0,0,1,0-.21.67.67,0,0,1,.12-.31.49.49,0,0,1,.57-.15.48.48,0,0,1,.27.56.5.5,0,0,1-.35.34.51.51,0,0,1-.31,0,.81.81,0,0,1-.29-.19.79.79,0,0,1-.05-1.08.49.49,0,0,1,.59-.12c.14.09.36.39,0,.55-.3-.11-.25-.26-.31-.42a.87.87,0,0,1,.08-.47.71.71,0,0,1,1-.36.83.83,0,0,1,.38.48c0,.18.12.5-.34.67l-.64.25.34-.6a.47.47,0,0,1,.82-.08Z"/><path d="M44.56,27.86c-.21,0-.34.17-.28.2l-.3-.35c-.33.16-.16-.15-.54,0a.28.28,0,0,0-.16.19c-.05.07.08.22,0,.17s0,0-.11,0a.19.19,0,0,0,0,.11.28.28,0,0,0,.14.24h0a.25.25,0,0,0-.14,0c-.06,0-.22.14-.22.22a.35.35,0,0,0,.2.41.38.38,0,0,0,.42-.09.3.3,0,0,0,0-.15v0c0-.05,0,0,.1.05a.38.38,0,0,0,.36-.13l.31.17c0-.06,0-.06,0-.05s0,.06.06.05l.06.05a.19.19,0,0,1-.29.07.28.28,0,0,1,0-.41l.29-.33,0,.5a.85.85,0,0,1-1.67.2.74.74,0,0,1,0-.21.67.67,0,0,1,.12-.31.52.52,0,0,1,.57-.15.49.49,0,0,1,.27.56.51.51,0,0,1-.35.35.5.5,0,0,1-.31,0,.7.7,0,0,1-.29-.19.78.78,0,0,1,0-1.08.47.47,0,0,1,.58-.12c.14.09.36.39,0,.55-.3-.11-.25-.26-.31-.42a.87.87,0,0,1,.08-.47.72.72,0,0,1,1-.36.83.83,0,0,1,.38.48c0,.19.12.5-.34.68l-.64.24.34-.6a.48.48,0,0,1,.82-.08Z"/><path d="M48.85,21c-.06-.2-.29-.23-.29-.17l.2-.42c-.28-.24.08-.2-.21-.49a.31.31,0,0,0-.24-.07c-.09,0-.17.15-.16.08s0,0,0-.11a.28.28,0,0,0-.12,0,.29.29,0,0,0-.16.23s0,0,0,0a.19.19,0,0,0-.05-.12.29.29,0,0,0-.29-.12.34.34,0,0,0-.29.35.37.37,0,0,0,.25.34.24.24,0,0,0,.15,0h0s0,0,0,.11a.45.45,0,0,0,.26.28l0,.35c.06,0,0,0,0-.06s-.06,0,0,.08l0,.07a.19.19,0,0,1-.18-.24.27.27,0,0,1,.36-.19l.41.13-.44.23a.85.85,0,0,1-.84-1.45.52.52,0,0,1,.18-.1.61.61,0,0,1,.33,0,.5.5,0,0,1,.37.46.48.48,0,0,1-.41.47.5.5,0,0,1-.45-.18.48.48,0,0,1-.11-.3.71.71,0,0,1,.06-.34.77.77,0,0,1,1-.46.47.47,0,0,1,.34.48c0,.16-.21.49-.51.21,0-.32.14-.34.26-.45a.81.81,0,0,1,.47-.12.71.71,0,0,1,.71.76.78.78,0,0,1-.28.54.52.52,0,0,1-.76-.05l-.48-.49.68.07a.48.48,0,0,1,.4.73Z"/><path d="M35.31,41.29c0,.35.31.6.48.55l-.25.39c.08.1-.07.05-.14.15a.63.63,0,0,0-.17.31.72.72,0,0,0,.83.79.44.44,0,0,0,.33-.23s-.19,0-.16.21.13.18.27.19a.66.66,0,0,0,.63-.4.27.27,0,0,0,0-.14s0,0,0,.07.17.15.22.12a.29.29,0,0,0,.28-.27.31.31,0,0,0-.16-.32.15.15,0,0,0-.09,0l0,0c.12,0,.22-.26.13-.56a.81.81,0,0,0-.65-.56l.07-.35s0,.06.08,0,.07-.13,0-.2l0-.07a.29.29,0,0,1,.18.39.37.37,0,0,1-.51.17l-.41-.2.48-.15a1.22,1.22,0,0,1,1.35.63,1.08,1.08,0,0,1-.63,1.72.77.77,0,0,1-.39,0,.53.53,0,0,1-.34-.55.52.52,0,0,1,.51-.45.55.55,0,0,1,.48.27.61.61,0,0,1,.09.36,1,1,0,0,1-.14.46,1.14,1.14,0,0,1-1.45.54.65.65,0,0,1-.43-.71.56.56,0,0,1,.25-.35.33.33,0,0,1,.47.11c0,.41-.28.47-.49.59a1.3,1.3,0,0,1-.73.05,1.08,1.08,0,0,1-.87-1.25,1.15,1.15,0,0,1,.48-.72c.24-.11.63-.33,1,.14l.39.52-.64-.13a.73.73,0,0,1-.51-1.12Z"/><path d="M53,27.19c-.25.27,0,.53.09.5l1-.26-1.11.8a.34.34,0,0,0,0,.45.32.32,0,0,0,.24.17.45.45,0,0,0,.38-.15l.27.09c-.06.13.21.3.39.24a.48.48,0,0,0,.37-.39.34.34,0,0,0-.16-.33s-.07,0,.07,0a.27.27,0,0,0,.11-.33c0-.06,0-.06,0-.06s.33,0,.31-.29-.5-.52-1-.68v-.08a1.35,1.35,0,0,1,1.65.45,1,1,0,0,1-1.32,1.32.65.65,0,0,1-.31-.31.52.52,0,0,1,.2-.66.65.65,0,0,1,.78.12.88.88,0,0,1,.17,1.06,1,1,0,0,1-.8.47.62.62,0,0,1-.71-.54l.28.08a.91.91,0,0,1-.57.51.84.84,0,0,1-.83-.21.91.91,0,0,1-.24-.84.78.78,0,0,1,.67-.63l-.06.54a.68.68,0,0,1-.36-.66.51.51,0,0,1,.44-.43Z"/><path d="M57.57,30.61c-.24.26,0,.52.1.49l1-.26-1.11.81a.35.35,0,0,0,0,.44.34.34,0,0,0,.24.17.4.4,0,0,0,.38-.14l.28.08c-.07.14.2.3.38.24a.46.46,0,0,0,.38-.39.35.35,0,0,0-.17-.33s-.06,0,.08,0a.26.26,0,0,0,.11-.32c0-.07-.05-.06,0-.06s.33-.06.32-.3-.51-.52-1-.68v-.08a1.38,1.38,0,0,1,1.65.45,1,1,0,0,1-.13,1.16,1,1,0,0,1-1.2.17.78.78,0,0,1-.3-.32.52.52,0,0,1,.19-.66.65.65,0,0,1,.78.12.86.86,0,0,1,.17,1.06,1,1,0,0,1-.79.48.64.64,0,0,1-.71-.55l.27.09a.83.83,0,0,1-.56.5.82.82,0,0,1-.83-.2,1,1,0,0,1-.25-.84.81.81,0,0,1,.67-.64l-.06.55A.67.67,0,0,1,57.1,31a.52.52,0,0,1,.44-.44Z"/><path d="M59.41,19.3c0-.26-.2-.26-.19-.19l-.17-.52s-.07-.06-.12-.11,0-.07-.11-.07a.24.24,0,0,0-.2.14l-.29,0c0-.07-.16-.11-.24,0a.24.24,0,0,0-.07.31c0,.06.13.09.15.06s0-.07-.17.07a.31.31,0,0,0,0,.4l.1.06s0,0,0,.06.36.22.76.21l0,.07a1,1,0,0,1-1.24.27.78.78,0,0,1,.53-1.42.57.57,0,0,1,.35.14.48.48,0,0,1,.09.63.56.56,0,0,1-.65.19.68.68,0,0,1-.46-.72.77.77,0,0,1,.42-.57.49.49,0,0,1,.66.16l-.28,0a.66.66,0,0,1,.87-.69.69.69,0,0,1,.17,1.22l-.18-.52a.53.53,0,0,1,.47.38.37.37,0,0,1-.19.43Z"/><path d="M56.46,30.81c-.21-.2-.38,0-.33,0l-.52-.15a.46.46,0,0,0-.23,0,.16.16,0,0,0-.14.1.24.24,0,0,0,0,.27l-.13.26c-.06-.07-.22.1-.19.23a.32.32,0,0,0,.25.29c.09,0,.18-.06.18-.1s-.06,0,0,.16a.31.31,0,0,0,.34.17c.08,0,.09-.05.1,0s0,.07.09.14.44-.24.65-.61h.08a1,1,0,0,1-.53,1.27.8.8,0,0,1-1-.26.84.84,0,0,1,0-1,.61.61,0,0,1,.33-.22.48.48,0,0,1,.58.28.58.58,0,0,1-.21.67.73.73,0,0,1-.91,0,.82.82,0,0,1-.27-.71.53.53,0,0,1,.55-.5l-.13.26a.72.72,0,0,1-.35-.52.68.68,0,0,1,.27-.67.73.73,0,0,1,1.17.57l-.52-.15a.57.57,0,0,1,.61-.19.39.39,0,0,1,.27.43Z"/><path d="M59.89,24.26a.82.82,0,0,0-.14.49.19.19,0,0,0,.08.07s0-.05,0,0l.1.6s-.05.08-.05.2a.74.74,0,0,0,.05.38.32.32,0,0,0,.36.19.35.35,0,0,0,.31-.36h.27A.24.24,0,0,0,61,26a.42.42,0,0,0,.31-.11.91.91,0,0,0,.28-.27c.07-.1,0-.14,0-.05l.48.2c.6-.49-.25-.6-.12-.52a.53.53,0,0,0,.1-.18.4.4,0,0,0-.27-.46l.23-.4c-.07-.08-.17,0-.14,0l.05,0c0-.06,0-.2-.09-.32l.06-.06a.51.51,0,0,1,.36.37.39.39,0,0,1-.16.36.37.37,0,0,1-.52-.08l-.24-.34.48,0a1,1,0,0,1,.65,1.84.63.63,0,0,1-.76,0,.58.58,0,0,1-.22-.42.5.5,0,0,1,.34-.52l.35-.11.13.31a.79.79,0,0,1-.22.88,1.45,1.45,0,0,1-.56.32,1,1,0,0,1-.7-.05.65.65,0,0,1-.34-.59h.27a.82.82,0,0,1-.47.63.78.78,0,0,1-.87-.08.89.89,0,0,1-.35-.85.8.8,0,0,1,.76-.74l2,0L60,25.37a.5.5,0,0,1-.58-.2.62.62,0,0,1-.1-.49.77.77,0,0,1,.52-.48Z"/><path d="M62.68,20.11c.12.25.18.33.09.36a.58.58,0,0,0-.23,0s0,.09.05.15c.27.22.28.17-.11.52l-.07,0c-.56,0-.58-.47-.24-.64.08,0,.13-.08.13-.14s-.09-.16-.11-.25.18-.23.44-.11Z"/><path d="M55.86,19.94c.12.26.18.33.09.36s-.19,0-.23,0,0,.09.05.14c.26.22.28.17-.11.52l-.07,0c-.56,0-.58-.47-.24-.64.08,0,.13-.08.13-.14s-.09-.16-.12-.25.18-.23.45-.11Z"/><path d="M33.6,14.82c.12.25.18.33.09.36a.55.55,0,0,0-.23,0s0,.09,0,.14c.26.22.28.17-.12.53l-.07,0c-.55,0-.57-.47-.24-.64.08,0,.14-.08.13-.14s-.09-.16-.11-.25.18-.23.44-.11Z"/><path d="M23.61,10.55c.12.25.18.33.09.36a.55.55,0,0,0-.23,0s0,.09.05.15c.26.21.28.16-.11.52l-.08,0c-.55,0-.57-.47-.23-.64.08,0,.13-.08.13-.14s-.1-.16-.12-.25.18-.23.44-.11Z"/><path d="M26.77,18.52c.12.25.18.33.09.36a.55.55,0,0,0-.23,0s0,.09.05.15c.26.21.28.16-.11.52l-.08,0c-.55,0-.57-.47-.23-.64.08,0,.13-.08.13-.14s-.1-.16-.12-.25.18-.23.45-.11Z"/><path d="M46.88,16.47a2.49,2.49,0,0,1,.23.23c0,.07.12.18.12.12s-.27-.06-.28,0,0,0,0,.05,0,.17.27.21l.33-.24c0-.17-.07-.2-.06-.16s0,.08.07.12a.28.28,0,0,0,.3.12c.09,0,.18-.15.14-.21s-.14-.07-.12,0l0-.6A.18.18,0,0,0,48,16s0,0,0,0,0,0,0,0l0,0s-.07,0,0,0a.24.24,0,0,0,.08-.11.3.3,0,0,0,0-.19.32.32,0,0,0-.2-.23h-.2c-.08,0-.11.13-.09.16a.15.15,0,0,0,.09,0s-.07-.13-.21-.13l0-.07a.39.39,0,0,1,.5-.16.47.47,0,0,1,.23.37.44.44,0,0,1-.31.43l0,0-.14,0a.35.35,0,0,1-.24-.26.38.38,0,0,1,0-.24.44.44,0,0,1,.14-.18.82.82,0,0,1,.6-.11.75.75,0,0,1,.43,1.23.76.76,0,0,1-.62.27l.06-.6a.52.52,0,0,1,.31.64.63.63,0,0,1-.4.4,1.23,1.23,0,0,1-.54.08.58.58,0,0,1-.3-.09.46.46,0,0,1-.22-.53l.07-.27.27,0a.44.44,0,0,1,.43.42.88.88,0,0,1-.07.33.45.45,0,0,1-.75.12.6.6,0,0,1-.08-.42.89.89,0,0,1,.08-.33Z"/><path d="M53.78,5.12a2.49,2.49,0,0,1,.23.24c0,.06.12.18.12.12s-.27-.07-.28,0,0,0,0,0,0,.16.27.2l.33-.23c0-.17-.07-.2-.06-.16s0,.08.07.12a.3.3,0,0,0,.3.12c.09,0,.18-.15.14-.21s-.14-.07-.12,0l.05-.6a.18.18,0,0,0,0-.11s0,0,0,0,0,0,0,0l0,0s-.07,0,0,0,.05,0,.08-.1a.32.32,0,0,0,0-.2.3.3,0,0,0-.2-.22h-.2c-.08,0-.11.13-.09.15a.09.09,0,0,0,.09,0s-.07-.13-.21-.12l0-.07a.38.38,0,0,1,.5-.16.41.41,0,0,1,.23.37.44.44,0,0,1-.31.43l-.05,0-.14,0a.35.35,0,0,1-.21-.5A.44.44,0,0,1,54.44,4a1.24,1.24,0,0,1,.24-.11.73.73,0,0,1,.36,0,.74.74,0,0,1,.43,1.22.77.77,0,0,1-.62.28l.06-.61a.53.53,0,0,1,.31.65.66.66,0,0,1-.4.4,1.2,1.2,0,0,1-.54.08.69.69,0,0,1-.3-.09.44.44,0,0,1-.21-.53L53.83,5l.27,0a.44.44,0,0,1,.43.42.88.88,0,0,1-.07.33.46.46,0,0,1-.75.12.6.6,0,0,1-.08-.42,1.3,1.3,0,0,1,.08-.34Z"/><path d="M51.11,12.27c.16.29.19.44.07.54a1.2,1.2,0,0,0-.28.13.15.15,0,0,0,0,.21c.17.09.16-.08.19,0a1.43,1.43,0,0,1,.32.38v.08a.63.63,0,0,1-.64.32c-.27-.06-.52-.53-.31-.78s.14-.17.15-.25-.06-.2-.08-.31.18-.33.47-.33Z"/><path d="M51.59,13.44a.52.52,0,0,0,.48.53.64.64,0,0,0,.42-.32l.21-.39.13.13a.32.32,0,0,0,.55-.11.2.2,0,0,0-.09-.25c-.08,0-.19,0-.18,0l.1-.45c.12.05.27,0,.25-.08s0-.09-.07-.17a1.4,1.4,0,0,0-.66-.22,4.53,4.53,0,0,1-.85-.26v-.08a5.2,5.2,0,0,1,.9-.26,1.54,1.54,0,0,1,1,.11A.87.87,0,0,1,54.1,13a.81.81,0,0,1-1.29,0l-.27-.38.37-.07a.61.61,0,0,1,.7.84.88.88,0,0,1-1,.49l.33-.25a.85.85,0,0,1-1,1,.77.77,0,0,1-.45-1.21Z"/><path d="M51.77,16.21c0-.29-.23-.41-.27-.37s-.12,0-.24.07l-.39.16c0-.14-.26-.22-.34-.06s0,.12,0,.15.11,0,.07,0l-.21.4c-.07,0-.12.07-.06.06s0-.07,0,0a1,1,0,0,0,.37.27,4.2,4.2,0,0,1,.52.41v.08a2.35,2.35,0,0,1-.7.08,1.08,1.08,0,0,1-.77-.27.73.73,0,0,1-.24-.59.74.74,0,0,1,.31-.56.67.67,0,0,1,1,.29l.15.44-.37,0a.5.5,0,0,1-.37-.81.74.74,0,0,1,.83-.2l-.39.16a.68.68,0,0,1,1-.58.58.58,0,0,1,0,1Z"/><path d="M45.65,12.55a2.07,2.07,0,0,0,.08,1,.51.51,0,0,0,.23.23c.06,0,.15,0,.06,0s-.06.14.07.24.13,0,.12,0-.12.09-.09.19c.06.27.5.38.77.21a.79.79,0,0,0,.44-.74c0-.1-.13-.24,0-.13s.4,0,.31-.35c-.11-.16,0-.05,0-.09s.12-.06.12-.24a.41.41,0,0,0-.13-.24.53.53,0,0,0-.14-.12c-.07-.09-.14.05.13-.15l0-.3c0-.11-.26-.2-.29-.15a.1.1,0,0,0-.07.05.34.34,0,0,0,0,.08h0a.22.22,0,0,0,0-.17,1.15,1.15,0,0,0-.47-.35l0-.07a.94.94,0,0,1,.74.14.67.67,0,0,1,.26.42.38.38,0,0,1,0,.15.41.41,0,0,1-.1.22.45.45,0,0,1-.21.14A.38.38,0,0,1,47,12.3l0-.19L47,12a.44.44,0,0,1,.45-.18l.21.05A1.66,1.66,0,0,1,48,12a1.07,1.07,0,0,1,.48.66,1,1,0,0,1-.17.88.9.9,0,0,1-.9.31.68.68,0,0,1-.5-.35.48.48,0,0,1,.64-.63.74.74,0,0,1,.33.86,1.4,1.4,0,0,1-.91.91,1.1,1.1,0,0,1-1.22-.27.64.64,0,0,1,0-.82.5.5,0,0,1,.63-.11.51.51,0,0,1,.12.75.74.74,0,0,1-1,.12,1.07,1.07,0,0,1-.44-.64,1.44,1.44,0,0,1,.4-1.18Z"/><path d="M41.07,6.78a1.69,1.69,0,0,0,.1.84.37.37,0,0,0,.18.16s.1,0,0,0-.07.17.07.28.15,0,.15,0-.1,0-.08.12.41.33.64.18a.63.63,0,0,0,.35-.63c0-.08-.13-.19,0-.06s.42,0,.33-.37c-.12-.17,0-.07-.07-.11s0,0,0-.14a.35.35,0,0,0-.09-.19l-.11-.1c-.06-.08-.12.06.16-.15l0-.29c0-.12-.27-.21-.31-.16s-.07,0-.08.06a.3.3,0,0,0,0,.09h0s0-.07,0-.12A.84.84,0,0,0,42,5.89V5.81a.88.88,0,0,1,.67.11.7.7,0,0,1,.24.38.65.65,0,0,1,0,.14.49.49,0,0,1-.09.22.53.53,0,0,1-.2.13.39.39,0,0,1-.43-.21l0-.2.08-.1a.42.42,0,0,1,.43-.17l.18,0a1.73,1.73,0,0,1,.31.14,1.06,1.06,0,0,1,.44.6.93.93,0,0,1-.16.81.84.84,0,0,1-.83.29.63.63,0,0,1-.47-.34.45.45,0,0,1,.61-.6.67.67,0,0,1,.31.79,1.21,1.21,0,0,1-.82.8,1,1,0,0,1-1.09-.23.59.59,0,0,1,0-.76.47.47,0,0,1,.6-.1.48.48,0,0,1,.12.71.67.67,0,0,1-.89.12.91.91,0,0,1-.4-.59,1.24,1.24,0,0,1,.37-1Z"/><path d="M48.46,8.49c-.32.42-.55.7-.51.94s0,.23.06.34a.28.28,0,0,0,.42,0l.15.18s0,.2.21.23a.57.57,0,0,0,.4,0,.45.45,0,0,0,.22-.23c.07-.1-.08-.11.15,0l.2-.78c-.18,0-.16.11-.15.12s0-.08,0-.17a1.12,1.12,0,0,0-.26-.6l0-.07a1,1,0,0,1,.76.43.81.81,0,0,1,.15.54.61.61,0,0,1-.66.56l.21-.78a.74.74,0,0,1,.25,1.14,1.14,1.14,0,0,1-.77.48.94.94,0,0,1-.79-.29c-.15-.17-.43-.52-.08-.8l.15.19a.82.82,0,0,1-.82.23.77.77,0,0,1-.56-.78,1,1,0,0,1,.45-.78,1.31,1.31,0,0,1,.73-.21Z"/><path d="M37.81,13.64c-.31.42-.53.7-.49.93a.64.64,0,0,0,0,.33c.08.12.32.17.41,0l.15.18s0,.2.21.22a.57.57,0,0,0,.4,0,.41.41,0,0,0,.21-.22c.07-.09-.09-.11.15.05l.2-.78c-.18,0-.16.11-.15.12s0-.08,0-.17a1.21,1.21,0,0,0-.26-.59l0-.07a1,1,0,0,1,.76.42.87.87,0,0,1,.15.54.59.59,0,0,1-.66.55l.21-.78a.74.74,0,0,1,.25,1.14,1.13,1.13,0,0,1-.77.47.93.93,0,0,1-.78-.28c-.14-.17-.42-.52-.08-.79l.15.18a.83.83,0,0,1-.81.24.77.77,0,0,1-.55-.78,1,1,0,0,1,.44-.78,1.29,1.29,0,0,1,.72-.2Z"/><path d="M54.37,17.08c.18.24.2.41.08.5a1.42,1.42,0,0,0-.27.09.07.07,0,0,0,0,.11c.14-.08.1-.19.06-.18s.13.1.38.23l0,.07a.46.46,0,0,1-.37.54.5.5,0,0,1-.55-.6c.07-.13.15-.18.15-.28a1.52,1.52,0,0,0-.09-.28c0-.15.14-.23.44-.23Z"/><path d="M54.84,18.06a.57.57,0,0,0,.43.28,1.25,1.25,0,0,0,.42,0,1.46,1.46,0,0,0,.54-.13.47.47,0,0,0,.2-.22s0-.12,0-.1h0s.12.07.15,0l-.06-.26c0-.05,0-.09,0-.2a1.28,1.28,0,0,0-.18-.35,2.39,2.39,0,0,0-.57-.49l-.06-.69s.09,0,.14-.07a.3.3,0,0,0-.12-.34v-.08a.5.5,0,0,1,.61.33.7.7,0,0,1-.3.83l-.07-.7a1.38,1.38,0,0,1,1,.86,1.33,1.33,0,0,1,.09.68c0,.23-.27.65-.64.51l-.19-.08.14-.17c.07-.11.3,0,.29.05a.27.27,0,0,1,0,.15c0,.13,0,.15-.07.21a3.59,3.59,0,0,1-.17.34,1.23,1.23,0,0,1-.59.58,1,1,0,0,1-.89-.11.65.65,0,0,1-.24-.81Z"/><path d="M44.05,15.28a2.52,2.52,0,0,1-.29.66c-.06.09-.14.2-.11.18s-.1-.27,0-.14a1.82,1.82,0,0,1,.49.65c.07.27.08.55.21.55a.53.53,0,0,0,.45-.46.79.79,0,0,0-.3-.89v-.08c.54-.21,1.26.42,1.12,1.13a1.13,1.13,0,0,1-.6.8.78.78,0,0,1-1-.2c-.2-.35,0-.6-.14-.75s-.32-.1-.58-.18c-.08,0-.5-.35-.32-.67a.77.77,0,0,1,.32-.36,2,2,0,0,1,.69-.3Z"/><path d="M19.32,18.83a2.52,2.52,0,0,1-.29.66c-.06.09-.14.2-.11.18s-.1-.27,0-.14a2,2,0,0,1,.49.65c.07.27.08.55.21.56a.54.54,0,0,0,.45-.47.78.78,0,0,0-.3-.88v-.08c.54-.22,1.26.41,1.12,1.13a1.14,1.14,0,0,1-.6.79.78.78,0,0,1-1-.19c-.2-.35,0-.6-.14-.75s-.32-.11-.58-.19c-.08,0-.5-.34-.32-.67a.69.69,0,0,1,.32-.35,2.06,2.06,0,0,1,.69-.31Z"/><path d="M29,22.28c.27,0,.36.07.31.14s-.15.09-.17.14,0,.05.12.05c.31,0,.34,0,0,.42l-.06,0c-.48.2-.59-.06-.39-.31.05-.06.08-.11.05-.14s-.17,0-.23-.07,0-.19.25-.28Z"/><path d="M29.64,23.24a.57.57,0,0,0,.76,0,2,2,0,0,0,.22-.23s.07,0,.11-.06l0-.41a.52.52,0,0,0,.71,0,.46.46,0,0,0,.13-.58.57.57,0,0,0-.45-.19,5.17,5.17,0,0,0-.76.08l-.13-.73c-.19.09,0,.17,0,.05s-.25-.17-.44-.29v-.08c.22-.05.49-.2.79,0a.56.56,0,0,1,.25.52.58.58,0,0,1-.48.54l-2.85.52,2.71-1.25a1.84,1.84,0,0,1,1-.19,1.15,1.15,0,0,1,1,.84.94.94,0,0,1-.58,1,1.68,1.68,0,0,1-1.05.17l-.81-.12.84-.29a.54.54,0,0,1,.66.7,1,1,0,0,1-.53.59.91.91,0,0,1-.76,0,.57.57,0,0,1-.41-.56Z"/><path d="M31.7,24.63c-.11.27-.16.53-.05.61s0,0,.05,0a1.13,1.13,0,0,0,.17-.12l.14.63c.25,0,.12-.07.12-.07s.12.19.3.25A.64.64,0,0,0,33,26c.13-.08.24-.26.17-.37l.34-.06s.14.06.17,0a.41.41,0,0,0,.1-.21.57.57,0,0,0-.18-.52l.34-.72s0,0,0,0,.09,0-.07-.11a2.35,2.35,0,0,0-1.14-.23l0-.08A1.63,1.63,0,0,1,34,23.36a.79.79,0,0,1,.67.81.8.8,0,0,1-.9.75l.34-.72a1.24,1.24,0,0,1,.23,1.38.83.83,0,0,1-.61.47.56.56,0,0,1-.63-.47l.34-.06a.68.68,0,0,1-.41.64,1.52,1.52,0,0,1-.69.13.88.88,0,0,1-.77-.29.59.59,0,0,1-.07-.61.56.56,0,0,1,.63-.35l.82.2-.68.43a1.07,1.07,0,0,1-.57.19.57.57,0,0,1-.56-.45.74.74,0,0,1,.48-.83Z"/><path d="M32.31,18.05a1.16,1.16,0,0,0,.21.58.21.21,0,0,0,.15.05c.06,0,0,0,0,0l.19.54s-.13.08-.17.19a.35.35,0,0,0,0,.34.65.65,0,0,0,1-.06.52.52,0,0,0,.11-.28c0-.09-.09,0,.06,0s.13-.17.07-.22.05,0,.12-.09a.79.79,0,0,0,.3-.38c0-.07,0-.16,0-.12s.05.2.3.13l.09-.74a.36.36,0,0,0-.36,0c-.08.05-.1.08-.11.1s0,.14,0,.09a.17.17,0,0,0,0-.13,1,1,0,0,0-.35-.37,3.58,3.58,0,0,0-1.16-.56V17a2.16,2.16,0,0,1,1.46.07,1.6,1.6,0,0,1,.7.49,1.09,1.09,0,0,1,.21.49.68.68,0,0,1-.08.42.51.51,0,0,1-.74.2l-.6-.54.69-.21a.62.62,0,0,1,.82.52,1,1,0,0,1-.13.59,1.37,1.37,0,0,1-.72.66.86.86,0,0,1-.59,0,.41.41,0,0,1,0-.78.38.38,0,0,1,.4.52,1.48,1.48,0,0,1-.24.37,1.33,1.33,0,0,1-1.6.29.83.83,0,0,1-.38-1,.84.84,0,0,1,.93-.61l.62.11-.43.43a.6.6,0,0,1-.65.12.72.72,0,0,1-.37-.38,1,1,0,0,1,.1-.8Z"/><path d="M22,17.76c.14.29.15.47,0,.59a2.08,2.08,0,0,0-.3.13.14.14,0,0,0,0,.21c.12.1.12-.13.11-.08s.14.12.42.25l0,.06a.53.53,0,0,1-.57.53.62.62,0,0,1-.44-.29.38.38,0,0,1,0-.5,1.52,1.52,0,0,0,.19-.28,1.91,1.91,0,0,0-.06-.33c0-.19.2-.32.51-.33Z"/><path d="M22.23,19.07a.54.54,0,0,0,.21.45c.11.06.15,0,.25,0s.22,0,.29-.15-.05-.29-.18-.21l.08-.12c-.05,0,.11,0,.24-.09a1.69,1.69,0,0,0,.33-.19.52.52,0,0,0,.25-.42.81.81,0,0,0-.15-.49,8.17,8.17,0,0,0-.6-.63l0-.07a1.53,1.53,0,0,1,1,.2,1.12,1.12,0,0,1,.56,1.09,1.16,1.16,0,0,1-.84.91,1.24,1.24,0,0,1-.54,0l-.27-.05c-.08,0-.26-.07-.27-.27V19l.09,0a.56.56,0,0,1,.7.47.75.75,0,0,1-.51.81.77.77,0,0,1-.92-.39.62.62,0,0,1,.2-.81Z"/><path d="M20.59,30.62a.27.27,0,0,0,.11.27c.09.06,0,0,.2,0a.44.44,0,0,1,.38.27.75.75,0,0,1,0,.29l.06,0a.41.41,0,0,0,.38,0,1.42,1.42,0,0,0,.49-.51l.23,0a.21.21,0,0,0,.16,0,.86.86,0,0,0,.22-.21,1.1,1.1,0,0,0,.19-.55c0-.11,0-.08,0,0s-.07,0-.18,0a2.88,2.88,0,0,0-.59-.06l.26-.55c-.18-.18-.25-.07-.25-.05s0,.12,0,.07-.18-.22-.44-.28v-.08a.7.7,0,0,1,.87.05.5.5,0,0,1,0,.71.58.58,0,0,1-.37.19.53.53,0,0,1-.5-.25l-.23-.4.49-.15a1.62,1.62,0,0,1,1,0,1.23,1.23,0,0,1,.53.28.69.69,0,0,1,.14.72,1.26,1.26,0,0,1-.6.75,1.5,1.5,0,0,1-.45.16c-.14,0-.43,0-.47-.28l.23,0c-.18.22-.23.49-.42.76a.79.79,0,0,1-1.07.19.76.76,0,0,1-.32-.61c0-.11,0-.16,0-.09s.13.08.07.05-.4-.2-.41-.4a.43.43,0,0,1,.17-.47Z"/><path d="M18.65,27.69a3.61,3.61,0,0,1,0,.47c0,.06,0,.16,0,.19s0-.11,0-.12.1,0,.14-.07l.12-.14.28.46c.19-.07-.08-.08,0,.05s.26.27.45.23a.75.75,0,0,0,.52-.3.54.54,0,0,0,.11-.26.56.56,0,0,0,0-.13.19.19,0,0,0,0,.07s-.06.12.23.19a.31.31,0,0,0,.18,0l.15-.21a.3.3,0,0,0-.06-.29l-.08-.05c-.05,0,0,0,0,0a.29.29,0,0,0,.11-.09c.07-.1.13-.19.09-.29a.63.63,0,0,0-.31-.39,2.39,2.39,0,0,0-.63-.27l-.08,0c.3-.28.56-.2.88-.2a1.17,1.17,0,0,1,.86.57,1.07,1.07,0,0,1-.16,1.18,1.15,1.15,0,0,1-.54.33.74.74,0,0,1-.39,0,.6.6,0,0,1-.25-.13.47.47,0,0,1-.12-.47l.06-.15.09-.05a.45.45,0,0,1,.23-.06c.35.09.31.26.34.32a.43.43,0,0,1,0,.25,1.32,1.32,0,0,1-.12.2,1.48,1.48,0,0,1-.3.31,1.39,1.39,0,0,1-.74.29,1.11,1.11,0,0,1-.82-.25.58.58,0,0,1,.47-1h.41l-.13.46a.84.84,0,0,1-.46.53.81.81,0,0,1-.73,0,.43.43,0,0,1-.19-.49,1.33,1.33,0,0,1,.12-.24,2.83,2.83,0,0,1,.32-.37Z"/><path d="M18,24.32a2.12,2.12,0,0,1,0-.42c0-.15,0-.25,0-.18s.08.08.08.11l-.07.1-.23-.42c-.25,0-.19.13-.15.07a.19.19,0,0,0,.07-.13.25.25,0,0,0-.29-.26.46.46,0,0,0-.36.28.6.6,0,0,0-.05.24.25.25,0,0,0,0,.1l0,0s.11,0-.16-.2a.34.34,0,0,0-.31.05l-.13.2a.27.27,0,0,0,.24.34s0,0,0,0a.56.56,0,0,0-.07.32.65.65,0,0,0,.14.4,1.42,1.42,0,0,0,.43.33l.08,0c-.27.27-.51.16-.8.1a1.18,1.18,0,0,1-.62-.66,1.21,1.21,0,0,1,.12-1,1,1,0,0,1,.47-.37c.14-.08.84,0,.73.59l0,.12-.11.09a.43.43,0,0,1-.36,0c-.31-.21-.18-.27-.23-.33a.58.58,0,0,1,0-.18,1,1,0,0,1,.1-.18,1.29,1.29,0,0,1,.22-.3.93.93,0,0,1,.64-.31.81.81,0,0,1,.66.36.64.64,0,0,1,.09.45.47.47,0,0,1-.11.27.46.46,0,0,1-.46.15l-.29-.08.06-.34a.71.71,0,0,1,.37-.52.58.58,0,0,1,.8.19.67.67,0,0,1-.11.59,1.75,1.75,0,0,1-.28.33Z"/><path d="M20.26,24.17c.11.33.25.49.34.5s0,0,0,.06a.13.13,0,0,0,.17,0h.27c-.14.14.13.38.29.31a.83.83,0,0,0,.3-.29l.06-.16s.08,0,.08-.05-.23-.2-.45-.41V24c.26-.09.62-.29,1,0a.84.84,0,0,1-.05,1.19.91.91,0,0,1-1.06.24.87.87,0,0,1-.42-.89l0-.36.23.36a.52.52,0,0,1-.14.68.58.58,0,0,1-.76-.05.68.68,0,0,1-.23-.6.7.7,0,0,1,.25-.46Z"/><path d="M44,31.89a.63.63,0,0,0,0,.5c.06,0,0,.1.08.21l.22.46-.09,0c-.18-.09-.21.29,0,.3a1.19,1.19,0,0,0,.48-.06,2.77,2.77,0,0,0,.94-.58h.08A1,1,0,0,1,44.78,34a.91.91,0,0,1-.86-.44.83.83,0,0,1,0-1l.12.41a.6.6,0,0,1-.77-.6.62.62,0,0,1,.58-.62Z"/><path d="M38.87,21.35a2.34,2.34,0,0,1-.22.73c0,.18,0,.25,0,.27s.24.27.45.29a.76.76,0,0,0,.61-.24l.24.36a.24.24,0,0,0,.2.09,1.55,1.55,0,0,0,.48,0,.41.41,0,0,0,.3-.11c.08,0,.13-.26-.09-.37l0-.08c.29-.2.77.13.72.58a.94.94,0,0,1-.74.81,1.46,1.46,0,0,1-1-.15.65.65,0,0,1-.17-1.09l.24.35a8.05,8.05,0,0,1-.8.11c-.26,0-.53.17-.92-.08a.75.75,0,0,1,0-1.07,2.38,2.38,0,0,1,.66-.44Z"/><path d="M39.65,19.09c.22-.16.31-.2.3-.12a1.38,1.38,0,0,0-.08.2s.05,0,.11,0c.26-.14.35-.1.09.32l0,.06c-.4.3-.45.21-.33-.06,0-.06,0-.11,0-.11s-.13.08-.19.1,0-.08.09-.31Z"/><path d="M42,21.21c-.21-.17-.3-.21-.23-.2l.2,0s0,0-.07-.07c-.27-.1-.31,0,.17-.18h.08c.5,0,.47.23.17.27-.07,0-.12,0-.1.05s.12.09.17.14-.07.11-.32,0Z"/><path d="M23.4,34c.23.15.34.08.27.09a.34.34,0,0,0-.18.07s0,0,.08,0,.09-.19.07-.19-.08.14.07.36l0,.07a.31.31,0,0,1-.25.4.29.29,0,0,1-.23-.34c0-.09,0-.14,0-.16a.76.76,0,0,1-.23-.09c-.09-.1,0-.29.31-.23Z"/><path d="M24.61,31.79c.15-.22.23-.28.23-.21a1.36,1.36,0,0,0-.06.2s0,0,.09-.05c.19-.21.27-.21.09.25l0,.07c-.3.4-.34.34-.26.06,0-.07,0-.12,0-.1s-.1.11-.15.15,0-.06.06-.3Z"/><path d="M25.89,33.59c.08.19.18.2.22.19s0-.11-.16-.1l-.17-.14c0,.08.06,0,.07-.08a.35.35,0,0,1,.07-.18s0,0,.08,0a1.13,1.13,0,0,1,.11.3v.08a1.23,1.23,0,0,1-.05.32c0,.08-.05.09-.08.06a.36.36,0,0,1-.09-.17c0-.09-.07-.14-.09-.06l-.18-.14c-.11,0-.23-.2-.12-.26a.23.23,0,0,1,.34.06Z"/><path d="M26.91,32.74c-.26,0-.35,0-.29,0l.2,0h-.09c-.28,0-.31,0,.18-.05H27c.49,0,.46,0,.18,0h.12l-.29,0Z"/><path d="M9.29,27.13a2,2,0,0,1-.57-.36.45.45,0,0,1-.23-.42.55.55,0,0,1,.45-.51,4,4,0,0,1,1.24,0l0,.26c-.24-.19-.83-.36-.67-1a.79.79,0,0,1,.65-.47l.52,0c.13,0,.15-.07.14,0s0-.11.09-.25a.56.56,0,0,1,.64-.22,1.69,1.69,0,0,1,.92.79l0,.06a6.76,6.76,0,0,0-1-.16c-.06,0,0,.06.15-.06,0,0,.06,0-.05.26a.85.85,0,0,1-.78.42l-.55-.06a.55.55,0,0,0-.26,0c-.19.06,0,.5.36.55l.45.07-.48.2a4.12,4.12,0,0,1-1.14.44c-.09,0,0,0,0-.14s0,0,0,.11a2.19,2.19,0,0,1,.2.58Z"/><path d="M7.66,36.82c.28,0,.32-.2.21-.19a.28.28,0,0,0-.15.13s0,0,0-.09-.07-.22-.15-.19-.11.27.14.35l.07,0a.24.24,0,0,1,.08.42c-.11,0-.22,0-.24-.19s0-.12,0-.1-.12.1-.2.1-.1-.28.19-.28Z"/><path d="M7.11,39.27a.74.74,0,0,1-.27.26c-.08,0-.11-.07-.16-.19s-.12-.07-.19,0a.35.35,0,0,1-.19.15L6.69,39c.09,0-.08.05-.14.38l0,.07a.36.36,0,0,1-.6-.27L6,38.51l.33.19a.51.51,0,0,1,.22.22c.07.1.13.16.22.07s.19-.2.25-.12.13.13.14.32Z"/><path d="M8,40.05c.22.2.33,0,.26.06a.27.27,0,0,0-.12.16s.07,0,.1-.05.06-.19.11-.2a1.35,1.35,0,0,1,.33.29l0,.07c0,.27-.05.39-.17.46a.38.38,0,0,1-.41-.2C8,40.56,8,40.5,8,40.48s-.2,0-.29,0S7.57,40,7.89,40Z"/><path d="M9.34,39.8c.24.11.32.17.25.17l-.21,0s0,0,.07.07c.25.14.26.2-.22.08l-.07,0c-.44-.21-.4-.25-.11-.2.06,0,.11,0,.09,0L9,39.74c-.05,0,0,0,.3,0Z"/><path d="M6.79,42.52c.09-.25.14-.33.14-.26s0,.17,0,.2,0,0,0-.08c.11-.26.16-.28.08.21l0,.07c-.17.46-.2.42-.17.14,0-.07,0-.11,0-.09s0,.13-.08.18,0,0,0-.29Z"/><path d="M53.26,34.91c.21,0,.26-.09.28-.12s-.13.05-.16.12,0,0,0-.13a.11.11,0,0,0-.09-.13l-.21.69a.22.22,0,0,0,.35,0,.17.17,0,0,0-.09-.27h-.07a.22.22,0,0,1,0-.35.33.33,0,0,1,.46.05l.57.66-.78,0a.24.24,0,0,1-.24-.13c0-.12,0-.23-.08-.19s-.27.12-.26,0,0-.2.22-.25Z"/><path d="M53.71,33.23c.17-.21.23-.27.19-.22l-.12.16s0,0,.07-.06c.18-.21.21-.23-.09.16l0,.06c-.31.38-.3.35-.13.12,0-.06.06-.09,0-.07l-.13.15s0,0,.17-.24Z"/><path d="M53.82,36.9a.15.15,0,0,0-.27,0h0l.09.08c.22-.13.09-.2.08-.18s.2,0,.19-.1-.12-.18-.17-.09,0,.18.23.22l.08,0a.33.33,0,0,1-.09.51.43.43,0,0,1-.58-.2c-.12-.21.07-.45.15-.52a.55.55,0,0,1,.48-.28h.07l0,.08h0a.35.35,0,0,1-.21.44Z"/><path d="M55.29,33.94c.11-.24.09-.34.07-.28a.72.72,0,0,0,0,.2s0,0,0-.09c0-.29-.19-.25.1.15l0,.07c.24.44,0,.5-.09.22,0-.07,0-.11,0-.09a1.36,1.36,0,0,1-.06.2c-.05.06-.1,0,0-.31Z"/><path d="M60.18,16.67c0-.26,0-.36,0-.3s.07.16.09.18,0,0,0-.09c0-.29,0-.33.2.13l0,.07c.07.49,0,.47-.11.22,0-.06-.06-.1-.07-.08s0,.15,0,.21-.06,0-.16-.26Z"/><path d="M61.24,16.36c0-.27,0-.36,0-.29l0,.2s0,0,0-.09c0-.28,0-.31,0,.17v.08c.05.49,0,.46,0,.18,0-.07,0-.11,0-.09l0,.2c0,.07,0,0,0-.29Z"/><path d="M32.48,12.92c.33,0,.26-.19.4-.11s.17.12.25.09.09-.14,0-.15a.11.11,0,0,0,.05.2.29.29,0,0,0,.28-.21.25.25,0,0,0,0-.24s-.13,0,0,.09.28.19.26.39l-.06,0c-.15,0-.16.14-.27.18a.52.52,0,0,1-.53-.11.55.55,0,0,1-.16-.5.5.5,0,0,1,.48-.39.44.44,0,0,1,.43.56c-.09.2-.21.24-.29.34a1.34,1.34,0,0,1-.27.34c-.22.17-.77-.1-.61-.49Z"/><path d="M21,9.79c.33,0,.26-.2.4-.12a.35.35,0,0,0,.25.1c.08,0,.09-.15,0-.15a.11.11,0,0,0,.06.2A.3.3,0,0,0,22,9.61a.24.24,0,0,0-.05-.24s-.13,0,0,.09.28.18.26.38l-.06.05c-.15,0-.16.14-.27.18a.53.53,0,0,1-.69-.61.5.5,0,0,1,.48-.39.44.44,0,0,1,.43.57c-.09.19-.22.23-.29.33a1.34,1.34,0,0,1-.27.34c-.23.17-.78-.1-.61-.49Z"/><path d="M35.08,13.39c.27,0,.36,0,.32,0s-.14.1-.16.14,0,0,.11,0c.29,0,.36.07-.07.34l-.07,0c-.49.08-.5,0-.27-.21.06,0,.09-.09.06-.1h-.21c-.08,0,0-.1.21-.24Z"/><path d="M16.29,17.05c-1.88,0-3.77.15-5.15,1.26a3.48,3.48,0,0,0-1.41,2.21,1.39,1.39,0,0,1-1.23.8,7.53,7.53,0,0,0-1.33.39,6.66,6.66,0,0,0-2.25,1.36.91.91,0,0,0-.22.44c0,.14,0,.18.12.36a.88.88,0,0,1,.2.55.87.87,0,0,1-.26.61,5.82,5.82,0,0,1-.59.45c-.22.13-.23.46-.12.85a5.06,5.06,0,0,1,.43,1.43c0,1.17-.93,1.79-.81,2.74l-.07,0c-.39-1,.41-2,.26-2.72a5,5,0,0,0-.52-1.2,1.86,1.86,0,0,1-.16-.86,1.26,1.26,0,0,1,.44-.9c.23-.19.44-.31.53-.4s.06.1,0-.12a1.27,1.27,0,0,1-.21-1,1.83,1.83,0,0,1,.44-.79,3.77,3.77,0,0,1,1.3-.83A8.21,8.21,0,0,1,7,21.3a14.08,14.08,0,0,1,1.42-.25c.46-.05.92-.17,1-.61A6,6,0,0,1,9.85,19a3.78,3.78,0,0,1,.87-1.23,4.6,4.6,0,0,1,2.72-1.16A7.4,7.4,0,0,1,16.3,17Z"/><path d="M19,45.63c-.24.11-.33.13-.28.09l.17-.12-.09,0c-.27.09-.31.08.11-.17l.07,0c.46-.19.44-.14.21,0-.06,0-.1.06-.07.06l.19-.07c.06,0,0,0-.24.18Z"/><path d="M21,43.93c.05.31,0,.46-.11.54a1,1,0,0,0-.3.08.26.26,0,0,0,0,.26c.12.41.11.58-.4.89h-.08a.6.6,0,0,1,.09-1.08c.1-.06.18-.11.2-.2s0-.23,0-.34.28-.3.58-.21Z"/><path d="M22.14,45c.27.08.38.14.33.23s-.14.13-.15.18.07.07.14.06a.43.43,0,0,0,.18-.12s-.06.18.19.31l.05.05a.38.38,0,0,1-.4.47.43.43,0,0,1-.36-.44c0-.1,0-.17,0-.22s-.18-.06-.25-.11,0-.26.22-.4Z"/><path d="M5.8,25.56c.17-.2.24-.26.23-.19a.67.67,0,0,0-.08.18s0,0,.08-.05c.2-.2.26-.2,0,.23l0,.07c-.31.38-.33.33-.22.06,0-.06,0-.11,0-.09l-.14.14c-.06,0,0-.05.1-.28Z"/><path d="M7.38,25.08c.26.12.35.19.29.26a.52.52,0,0,0-.18.13c0,.05,0,.07.12,0s.09-.19.07-.18-.09.26.2.25l.08,0c.26.2,0,.57-.24.57a.41.41,0,0,1-.45-.39c0-.11,0-.17,0-.22s-.17-.09-.24-.15,0-.26.29-.34Z"/><path d="M8.69,22.48c.27.11.37.19.32.28s-.15.13-.16.18S8.91,23,9,23a.71.71,0,0,0,.2-.1s-.06.18.19.32l0,.06c.08.29-.24.48-.45.44a.46.46,0,0,1-.35-.47c0-.1,0-.17,0-.23s-.18-.08-.25-.14,0-.28.25-.4Z"/><path d="M11.69,21.9c.23.18.34.1.27.15s-.13.12-.13.16.07,0,.12,0S12,22,12,22s.06.15.32.2l.08,0a.38.38,0,0,1-.12.57.41.41,0,0,1-.52-.2c0-.1-.06-.17-.12-.2s-.21,0-.29-.09,0-.41.26-.43Z"/><path d="M12.68,19.78a1,1,0,0,1,.3-.3.25.25,0,0,1,.3,0,.25.25,0,0,0,.33,0,.42.42,0,0,0,.17-.33h0l.16-1.34.31,1.86a.38.38,0,0,1-.15.35,1.47,1.47,0,0,1-.52.2l-.07,0a.75.75,0,0,1-.1-.55.58.58,0,0,1,.27-.41l.47.53h0a.75.75,0,0,0-.42,0,.35.35,0,0,0-.31.21.33.33,0,0,1-.36.15.57.57,0,0,1-.37-.28Z"/><path d="M41,7.22c.26.08.35.07.29.1a.56.56,0,0,0-.19.09s0,0,.1,0c.3,0,.25-.15,0,.29l0,.07c-.41.32-.59,0-.37-.19,0-.06.08-.1,0-.12s-.15,0-.21-.06,0-.18.28-.21Z"/><path d="M45.22,6.6c.19-.2.3-.24.33-.15s0,.19,0,.23.08,0,.14,0c.27-.18.41-.13.3.37l0,.07c-.37.35-.48.25-.48-.06,0-.08,0-.14,0-.13s-.14.09-.2.12-.12-.09,0-.36Z"/><path d="M44.28,4.39c.2-.19.31-.24.34-.14a.88.88,0,0,0,0,.23s.07,0,.14,0c.26-.17.41-.13.3.37l0,.07c-.36.36-.48.26-.47-.06,0-.08,0-.13-.06-.13s-.13.09-.19.12-.12-.09,0-.36Z"/><path d="M47,5.66c-.27,0-.35,0-.29,0l.2,0s0,0-.09,0c-.28,0-.31-.06.18-.09h.08c.49,0,.46.06.18.09-.07,0-.12,0-.09,0l.2,0c.06,0,0,0-.29,0Z"/><path d="M53.61,6.53c.25.14.35.1.3.17s-.14.12-.14.17.06.06.13,0,.21-.09.24-.07a1.36,1.36,0,0,0,.12.39V7.3a.41.41,0,0,1-.45.31.39.39,0,0,1-.23-.41c0-.09,0-.16,0-.19s-.19,0-.27-.09,0-.35.25-.4Z"/><path d="M53.93,9.58c.15-.26.08-.35.17-.32s.16.08.21.06,0-.1,0-.15l.26.25a1.24,1.24,0,0,1-.11.29c-.07,0-.18,0-.46,0l-.08,0a.45.45,0,0,1,0-.62A.49.49,0,0,1,54.45,9l.31.18-.06.06c-.08.08-.15.13-.17.21a.85.85,0,0,1-.05.34.33.33,0,0,1-.56-.14Z"/><path d="M28.3,38.72a.69.69,0,0,1,1,.27,2.77,2.77,0,0,0,.14.46.38.38,0,0,0,.34.17c.27,0,.27-.15.37-.24s.33-.29.64-.51l.08,0A1,1,0,0,1,30.74,40a.81.81,0,0,1-1.2,0,3.34,3.34,0,0,0-.33-.38,2.78,2.78,0,0,0-.44-.19c-.26-.17-.25-.33-.48-.64Z"/><path d="M30.24,37.46a.31.31,0,0,1-.33-.48c.09-.08.24-.08.31-.11s.1-.11.17-.21a.47.47,0,0,1,.49-.22.49.49,0,0,1,.27.47l0,.08a1.09,1.09,0,0,1-.39.28c-.08,0-.09-.07-.2-.2s-.12-.06-.13,0,.07.15.12.18-.08-.1-.23.17Z"/><path d="M30.71,37c0-.27,0-.37.11-.32s.12.14.16.15.05,0,.05-.11c0-.32,0-.37.44-.06l0,.07c.18.48,0,.58-.3.38-.07,0-.12-.07-.14,0s0,.16-.05.22-.18,0-.3-.22Z"/><path d="M32.43,34.49c.27,0,.35-.08.33,0a.4.4,0,0,0-.07.2s.07,0,.13,0,.15-.16.18-.16a1.5,1.5,0,0,0,.19.36l0,.07a.39.39,0,0,1-.29.42.34.34,0,0,1-.3-.3c0-.08,0-.14-.09-.15s-.18.05-.26,0-.15-.25.07-.43Z"/><path d="M23.76,39.76c.24.13.31.2.23.21a1.62,1.62,0,0,0-.21,0s0,0,.07.08c.23.18.23.26-.25.16l-.08,0c-.43-.25-.37-.32-.08-.29.07,0,.12,0,.11,0a1.25,1.25,0,0,0-.17-.12c-.05-.06.05-.07.31,0Z"/><path d="M23.07,43.23a1.57,1.57,0,0,1,.15.38c0,.07-.18.12-.22.25l-.09-.11c.08.07.19,0,.29-.08a1.08,1.08,0,0,1,.25-.14c.16-.05.31,0,.61.24l0,.07a.57.57,0,0,1-.59.51.67.67,0,0,1-.36-.15c-.1-.11-.19-.2-.3-.19h0l-.08-.1c-.09-.12-.29-.31-.2-.47a.42.42,0,0,1,.47-.26Z"/><path d="M25.4,45.53c.25.12.3.21.28.28l-.05-.23c0,.06-.18.26-.08.26s.22-.06.28-.06.13,0,.14.44l0,.08c-.25.3-.51.27-.57.05s0-.27,0-.34S25.13,46,25,46l0,0v-.2c0-.09.08-.15.34-.2Z"/><path d="M29.31,45.82c-.17.2-.24.27-.23.2a.87.87,0,0,0,.08-.19s0,0-.08.05c-.2.21-.26.2,0-.23l.05-.07c.31-.38.33-.32.22-.06,0,.06,0,.11,0,.09l.14-.14c.06,0,0,.05-.1.28Z"/><path d="M36.64,29.31a1.19,1.19,0,0,1,.3.24c.06.07.1.09.06.17s0,.21,0,.23a.08.08,0,0,0,.08-.14l-.34-.38.72.41a.61.61,0,0,1,.26.42.54.54,0,0,1,0,.27s-.07,0-.09.06-.14.13,0,.22l0,.07c0,.2-.36.19-.49.1a.58.58,0,0,1-.28-.43.37.37,0,0,1,0-.27c0-.06.05,0,.1-.08l.37,0a.75.75,0,0,1-.49-.05c-.12,0-.29,0-.46-.11a.39.39,0,0,1-.18-.39.57.57,0,0,1,.24-.37Z"/><path d="M35.6,35.64c0-.29.08-.41.2-.39s.16.13.22.14.09,0,.12-.14c.11-.33.3-.43.67,0l0,.08c0,.53-.25.57-.54.38-.07,0-.14-.07-.18,0a1.2,1.2,0,0,0-.09.25c-.07.09-.21,0-.39-.17Z"/><path d="M63.07,26.77c0-.29.08-.41.2-.39s.16.13.22.14.09-.06.12-.14c.11-.33.3-.44.66-.05l0,.08c0,.53-.25.57-.54.38-.08-.05-.14-.07-.18,0a1.34,1.34,0,0,0-.09.24c-.08.1-.21.05-.4-.16Z"/><path d="M38.39,27.1c-.09.26-.15.34-.18.27s0-.18,0-.21,0,0-.08.07c-.14.26-.23.28-.23-.22v-.07c.17-.47.25-.43.29-.13,0,.07,0,.11,0,.09a1,1,0,0,0,.1-.18c0-.06.08,0,.08.3Z"/><path d="M29.49,11.59c.34,0,.33-.21.31,0s.23.09.09-.1h0l.57.24.08.28h0l-.48-.33.31.29,0,.08-.15.4-.48-.33h0v-.29l.56.24h0c-.36,0-.4-.18-.65,0s-.48-.24-.23-.48Z"/><path d="M70.37,50a6,6,0,0,1,1.31,1.65,8.25,8.25,0,0,0,.45,1,2.9,2.9,0,0,0,.76.72c1.17.79,2.21,1.47,3.39,2.33l0,.08a4.26,4.26,0,0,1-3.68-2.1,7.29,7.29,0,0,0-.65-.87c-.24-.26-.54-.48-.79-.74a3.83,3.83,0,0,1-.84-2Z"/><path d="M84.52,52.15l3.34.58a10.54,10.54,0,0,0,1.68.29,7.51,7.51,0,0,0,1.7-.19A42.71,42.71,0,0,1,98,51.45l0,.07a13.74,13.74,0,0,1-6.7,1.74c-.59,0-1.17,0-1.74,0s-1.17.13-1.76.12a6.09,6.09,0,0,1-3.31-1.17Z"/><path d="M56.93,45a4.94,4.94,0,0,1,.85,2.85c0,.5-.13,1-.16,1.48a9,9,0,0,0,.06,1.47c.24,2,.2,3.8.35,5.77l-.08,0a6.24,6.24,0,0,1-.9-2.86,12.59,12.59,0,0,1,.2-2.95,7.18,7.18,0,0,0,.11-1.46,14,14,0,0,0-.24-1.44C57,46.92,56.93,46,56.85,45Z"/><path d="M46.41,48.39A9.33,9.33,0,0,1,50,50.88c.48.56.89,1.18,1.34,1.75s.95,1.11,1.45,1.65a37.14,37.14,0,0,0,3,3c1.09.88,2.33,1.63,3.5,2.52l0,.07a13.81,13.81,0,0,1-4-1.92,7,7,0,0,1-1.57-1.6c-.46-.58-.9-1.18-1.3-1.8a12.91,12.91,0,0,0-1.3-1.74,18.61,18.61,0,0,0-1.62-1.45c-1.06-1-2.08-1.93-3.19-2.9Z"/><path d="M78.93,51.06a8.55,8.55,0,0,1,1.36,1.56,5.65,5.65,0,0,0,.53.89,2.82,2.82,0,0,0,.83.62.94.94,0,0,0,.75.14c.12,0,.27-.1.49-.17a1.15,1.15,0,0,1,.77.07c.86.51.84,1.24,1.56,1.29l0,.07c-.32.3-.86.13-1.17-.07a3.82,3.82,0,0,0-.77-.52c-.14-.08-.29,0-.78.07a1.3,1.3,0,0,1-1.15-.54,6.77,6.77,0,0,0-.74-.77c-.27-.23-.59-.42-.86-.66a3.27,3.27,0,0,1-.92-1.94Z"/><path d="M59.2,70.1a1.54,1.54,0,0,1,.88.89c.05.21,0,.44.1.64a1.91,1.91,0,0,0,.34.53,2,2,0,0,1,.25,2.43h-.08a4.67,4.67,0,0,1-.58-2.26,1.15,1.15,0,0,0-.16-.58,3.07,3.07,0,0,0-.45-.43,1.84,1.84,0,0,1-.37-1.17Z"/><path d="M58.69,64.68a2.61,2.61,0,0,1,1.46,1.07c.15.27.24.58.39.84a4.1,4.1,0,0,0,.56.7,3.85,3.85,0,0,1,1.11,3.38l-.08,0a11,11,0,0,1-1.41-3.18,2.29,2.29,0,0,0-.39-.78,5.44,5.44,0,0,0-.69-.56,4.58,4.58,0,0,1-1-1.43Z"/><path d="M59.15,61.93a1.2,1.2,0,0,1,1.05.42c.11.16.18.37.29.51a1.25,1.25,0,0,0,.46.31A1.94,1.94,0,0,1,62.2,65l-.07,0a2.59,2.59,0,0,1-1.48-1.55,1,1,0,0,0-.33-.43,2.39,2.39,0,0,0-.53-.19A1.55,1.55,0,0,1,59.1,62Z"/><path d="M27.31,62.72a3.77,3.77,0,0,1,.19,3c-.17.47-.43.91-.61,1.36a6.26,6.26,0,0,0-.32,1.41c-.24,1.91,0,3.73-.19,5.74H26.3a9.29,9.29,0,0,1-.67-2.89,6.78,6.78,0,0,1,.51-3A9.32,9.32,0,0,0,26.65,67a10.2,10.2,0,0,0,.21-1.44,18,18,0,0,0,.37-2.8Z"/><path d="M27.51,66.36A5.23,5.23,0,0,1,27.74,69c-.09.44-.25.87-.31,1.31a4.93,4.93,0,0,0,0,1.33,28.28,28.28,0,0,0,.88,5.08l-.07,0a4.32,4.32,0,0,1-1.31-2.41A7,7,0,0,1,27,71.65a8.54,8.54,0,0,0,.18-1.32c0-.45-.07-.9-.09-1.34a12.49,12.49,0,0,1,.35-2.62Z"/><path d="M28,69.84a3.72,3.72,0,0,1,.63,1.79c0,.32-.05.65,0,1a3.57,3.57,0,0,0,.26.9,6.22,6.22,0,0,1,.51,3.74H29.3a6.25,6.25,0,0,1-.85-3.67,3.7,3.7,0,0,0-.09-.94c-.09-.3-.26-.59-.37-.89a3.8,3.8,0,0,1-.06-1.9Z"/><path d="M65,65.32A4.58,4.58,0,0,1,66,66.87a5.46,5.46,0,0,0,.24.88,2.35,2.35,0,0,0,.54.72A9.47,9.47,0,0,1,69,71.31l0,.06a4.29,4.29,0,0,1-2.51-2.66,3.75,3.75,0,0,0-.4-.83c-.17-.25-.42-.47-.6-.73A2.82,2.82,0,0,1,65,65.34Z"/><path d="M67.89,68.21A4.58,4.58,0,0,1,69,69.88a6.29,6.29,0,0,0,.3,1,2.55,2.55,0,0,0,.6.78c1,.91,1.83,1.68,2.85,2.63l0,.07a3.77,3.77,0,0,1-3.17-2.45,6,6,0,0,0-.48-.9c-.19-.27-.45-.51-.66-.79a3.93,3.93,0,0,1-.58-1.94Z"/><path d="M61.28,43.52a2.05,2.05,0,0,0,1-.37,5,5,0,0,0,.74-.81,2.35,2.35,0,0,1,1.17-.7,4.29,4.29,0,0,0,1.16-.41,3.4,3.4,0,0,0,1.38-1.73A1.7,1.7,0,0,1,68,38.57a2.49,2.49,0,0,1,1.32.21v.08a5.17,5.17,0,0,0-1.15.3,1.27,1.27,0,0,0-.59.72,2.82,2.82,0,0,1-2,1.76,7.89,7.89,0,0,0-1.23.24,1.58,1.58,0,0,0-.73.85,2.14,2.14,0,0,1-1,1,1.53,1.53,0,0,1-1.37-.09Z"/><path d="M36.35,55.66a1.86,1.86,0,0,1,1.53-.38c.26.07.5.22.75.3a3.86,3.86,0,0,0,.77.11,2.89,2.89,0,0,1,1.53.49,1.57,1.57,0,0,1,.73,1.49l-.08,0a3.84,3.84,0,0,0-1.11-.8c-.39-.25-.79-.5-1.2-.79a1.47,1.47,0,0,0-.69-.27,3,3,0,0,0-.74.11,3.91,3.91,0,0,1-1.48-.2Z"/></g></g></svg>