<svg xmlns="http://www.w3.org/2000/svg" viewBox="0 0 151.79 145.38"><defs><style>.cls-1,.cls-2{fill:#e1b17c;}.cls-2{font-size:17.46px;font-family:GillSans, Gill Sans;letter-spacing:0.02em;}.cls-3{font-size:23.31px;font-family:DINNextLTPro-Condensed, DIN Next LT Pro;letter-spacing:-0.01em;}</style></defs><g id="Layer_2" data-name="Layer 2"><g id="Ingredients_Map" data-name="Ingredients Map"><path class="cls-1" d="M124.55,44.79A7.34,7.34,0,0,0,120.21,42a2.59,2.59,0,0,0-.47-.05l-.19,0c-3.92-.48-6.68,2.46-9.62,4.49-.11.08-.69.37-1.22.64,0-.19,0-.39,0-.59L108.53,39l-.6-30.77c-.06-3.22-5-3.23-5,0l.18,23.35c0,1.84,0,3.69,0,5.53a2.7,2.7,0,0,1-.46-.16c-2.14-1.2-3.42-3.62-4.29-5.85-.09-5.07-2.06-10.83-2.49-15.88C95.54,10.89,97,6.93,94.57,3.12A2.51,2.51,0,0,0,90.84,2l-.11.07-.19.14a2.14,2.14,0,0,0-.87,2.26C89.28,13.63,95,21.86,93.41,32c.06,4.39,0,8.8-.22,13.19a21.33,21.33,0,0,1-1,6,22.61,22.61,0,0,1-3.08,5.35c-2.07,2.85-4.48,6.16-7.86,7.52a12.82,12.82,0,0,1-8,.25c2.42-2.83,5.64-4.93,8.67-7.07,2.13-1.5,4.48-3,6.11-5.06,1.8-2.26,2.35-5.45.26-7.74-3.32-3.65-8.79-1.78-13-2.71A5.1,5.1,0,0,1,71,38.22c-1-2.9-1.47-6-2.16-8.95Q67.7,24.14,66.49,19C65.76,15.85,65,12,60.81,12.51A2.49,2.49,0,0,0,59,14.92c1.35,11,9.17,23.38,7.19,34.59-.94,5.35-6.69,8.51-10.56,12.27-2,1.9-4,3.72-6.14,5.46-1.79,1.47-3.94,3.11-6.26,3.61a4.57,4.57,0,0,1-.52.05c0-.22,0-.53,0-.65a6.81,6.81,0,0,1,1.54-3.41c1.86-2.34,4.76-3.66,7.38-5a2.52,2.52,0,0,0,.5-3.93c-1.74-1.45-1.81-3.74-1.78-5.86.06-3.17.32-6.34.49-9.5s.39-6.6.52-9.91c.12-2.76-.23-5.74-2.39-7.7-1.27-1.15-3.85-.87-4.18,1.1-.51,3-1.33,5.88-1.9,8.85A115.4,115.4,0,0,0,41.1,48.17c-.08,1-.14,2.06-.19,3.1,0,.53.18,1.83-.14,2.27a4.53,4.53,0,0,1-1.55.67c-.93.32-1.9.55-2.86.78-3.68.88-7.57,2.17-9.44,5.78a6.77,6.77,0,0,0-.47,5.56c.53,1.42,1.76,2.74,1.74,4.13-.06,2.67-2.15,5.59-3,8.22A10.32,10.32,0,0,0,27,88.85c2.24,2.8,5.93,5.75,9.73,5.38s6.28-3.52,9.19-5.74a22.16,22.16,0,0,1,5-3c1.71-.69,3-.3,4.64.4a14.88,14.88,0,0,0,11.56.49,17.54,17.54,0,0,0,2.53-1.26,3.52,3.52,0,0,1,2-.8,10.22,10.22,0,0,1,2.45.91c.91.36,1.83.68,2.77,1a42.4,42.4,0,0,0,23,.36,31.19,31.19,0,0,0,10.44-4.53c3.07-2.3,4.62-7,1.27-9.81a19.55,19.55,0,0,0-3.59-2,5.41,5.41,0,0,0-.53-.3c-.1-.1-.21-.28-.24-.3a.16.16,0,0,1,0-.09c.17-.2.21-.41.43-.62,1.21-1.12,3.31-1.5,4.79-2.16a27.92,27.92,0,0,0,4.89-2.81C123.08,59.87,130,51.78,124.55,44.79Zm-17.29,24.9c.06.18,0,.07,0-.06S107.25,69.64,107.26,69.69Z"/><text class="cls-2" transform="translate(32.73 114.72)">Ivory Coast<tspan class="cls-3"><tspan x="-32.73" y="25.76">FRESH GREEN GINGER</tspan></tspan></text><path d="M70.12,43c.26,0,.25.2.38.28l.07.1,0,0h0c.07,0-.16-.05-.15,0a.08.08,0,0,0,0,.08l-.07-.22-.28-.9-.51-1.81-1-3.6c-.58-2.42-1-4.9-1.67-7.31a38.81,38.81,0,0,1-1.59-7.35c-.13-1.25-.19-2.52-.22-3.76a4.86,4.86,0,0,0-1-3.23l.38.19c-.91,0-1.43-.6-1.9-.74a1.28,1.28,0,0,0-.73,0,.43.43,0,0,0-.46.28c-.13.35.45.94.73,1.47.16.27.33.54.51.79s.42.56.64.43l.07.06c-.14.17-.38.07-.51,0a2.85,2.85,0,0,1-.38-.31c-.24-.23-.45-.47-.66-.71l-.6-.75A1.35,1.35,0,0,1,60.78,15a1,1,0,0,1,.88-.86,2.13,2.13,0,0,1,1.15,0c.74.24,1.22.65,1.63.58l.22,0,.17.23a7,7,0,0,1,1,1.75,6,6,0,0,1,.29,2c0,1.25,0,2.48.07,3.72a30.54,30.54,0,0,0,1,7.35c.65,2.41,1.67,4.71,2.19,7.17.26,1.22.56,2.44.78,3.67l.32,1.85.13.93,0,.23a.16.16,0,0,1,0,.1c0,.08-.24,0-.18,0l0,0,0-.05-.06-.11c0-.14-.22-.28-.13-.41Z"/><path d="M61.7,16.94A61.07,61.07,0,0,1,63,25.06a53.31,53.31,0,0,0,.89,8.17,151,151,0,0,1,2.25,16.28l-.09,0a81.3,81.3,0,0,1-2.65-16.24,59,59,0,0,0-1.14-8.14,60.59,60.59,0,0,1-.67-8.2Z"/><path d="M66.17,30.33c.35.13.52.32.52.57s-.12.28-.11.4a.47.47,0,0,0,.2.31A.92.92,0,0,1,67,33l-.08,0a.93.93,0,0,1-.62-1.27.47.47,0,0,0,0-.37c-.07-.1-.23-.17-.32-.26s-.12-.45.1-.77Z"/><path d="M67,39.37a1.18,1.18,0,0,1,.54,1,4.15,4.15,0,0,0-.12.57,1,1,0,0,0,.2.5,1.87,1.87,0,0,1,.22,2.11l-.09,0a1.92,1.92,0,0,1-.61-2,1,1,0,0,0,0-.53,2.86,2.86,0,0,0-.33-.47A1.22,1.22,0,0,1,67,39.39Z"/><path d="M66.59,42.19a1.76,1.76,0,0,1,.61,1.09,3.42,3.42,0,0,0,0,.64,1.1,1.1,0,0,0,.34.52,3.23,3.23,0,0,1,1.22,2.12l-.07.06a2.13,2.13,0,0,1-1.59-2,1.72,1.72,0,0,0-.17-.62c-.11-.19-.31-.34-.44-.52a1.43,1.43,0,0,1,0-1.32Z"/><path d="M95.25,39.91a45.23,45.23,0,0,0-1.11-4.77,26.33,26.33,0,0,1-.86-4.9C93,27,93,23.66,92.72,20.4a62.62,62.62,0,0,0-1.14-9.72c-.36-1.59-.79-3.16-1.27-4.71s-1.19-3.25-.6-5l.07-.2.19,0L91.53.3A9.77,9.77,0,0,1,93.2,0,1,1,0,0,1,94,.53a.85.85,0,0,1-.1,1,3.27,3.27,0,0,1-1.49.74l0-.09a3,3,0,0,0,1.27-.84.53.53,0,0,0-.51-.8,10,10,0,0,0-1.46.42l-1.54.48.26-.24c-.4,1.45.26,3,.76,4.54a33.29,33.29,0,0,1,1.24,4.81c.71,3.27.47,6.6.6,9.88s.7,6.52,1,9.79c.14,3.24,1.33,6.39,1.28,9.74Z"/><path d="M93.91,2.59a49.31,49.31,0,0,1,1.76,7.86,64.6,64.6,0,0,0,1.12,8,96.05,96.05,0,0,1,2.06,15.94h-.09a105.45,105.45,0,0,1-2.45-15.88,48.33,48.33,0,0,0-1.38-7.91,72.92,72.92,0,0,1-1.11-8Z"/><path d="M108,35.45c-.08-2.53-.11-5.06-.14-7.59s0-5.05,0-7.58L108,12.7c0-2.53-.08-5-.24-7.58l.33.16c-.78.5-1.55.17-2.21.14s-1.35,0-1.49.49a9.26,9.26,0,0,0-.13,2V10c0,2.79.13,5.58.19,8.37A95.39,95.39,0,0,1,104,35.16h-.09c.22-5.6-.17-11.16-.37-16.77-.13-2.79-.15-5.61-.08-8.42,0-.7,0-1.4.1-2.1a9.32,9.32,0,0,1,.28-2.19,1.34,1.34,0,0,1,1-.8,3.31,3.31,0,0,1,1.14,0c.68.1,1.43.34,1.89,0l.32-.22v.37q0,3.79.18,7.59c.1,2.52.26,5.05.3,7.58s0,5.06-.08,7.59-.23,5.06-.45,7.58Z"/><path d="M106.05,23.56a4,4,0,0,1,.45,2.13c0,.37-.17.73-.2,1.09a3.9,3.9,0,0,0,.11,1.07,6.43,6.43,0,0,1-.41,4.29h-.1a8.39,8.39,0,0,1,0-4.28,3.54,3.54,0,0,0,.1-1.07,10.23,10.23,0,0,0-.26-1.06,4.82,4.82,0,0,1,.21-2.15Z"/><path d="M42.29,55.23c.15-2.32.4-4.62.66-6.93s.6-4.6,1-6.88.91-4.55,1.4-6.81.92-4.54,1.33-6.82l0-.28.24.18c.45.34,1.21.18,1.89.17a3.81,3.81,0,0,1,1.1.08,1.25,1.25,0,0,1,.9.88A9.59,9.59,0,0,1,50.81,31l-.2,2.06c-.32,2.75-.65,5.49-1,8.22s-.73,5.46-1,8.2a35.87,35.87,0,0,0-.08,8.22l-.09,0a28.51,28.51,0,0,1-.56-8.29c.12-2.78.43-5.53.8-8.27s.81-5.47,1.19-8.19l.3-2.05A9.42,9.42,0,0,0,50.32,29c-.06-.53-.77-.64-1.44-.64s-1.42.16-2.13-.38l.29-.09c-.5,2.26-.94,4.54-1.3,6.83l-1,6.87c-.33,2.29-.77,4.56-1.12,6.85s-.78,4.56-1.24,6.84Z"/><path d="M46.67,49.53a2.64,2.64,0,0,1,0,1.69,8.1,8.1,0,0,0-.39.78,2.36,2.36,0,0,0-.07.84,4.4,4.4,0,0,1-.85,3.24l-.09,0a4.45,4.45,0,0,1,.46-3.31A2.3,2.3,0,0,0,46,52a8.28,8.28,0,0,0-.06-.86,2.8,2.8,0,0,1,.65-1.58Z"/><path d="M46.08,45.35a4.07,4.07,0,0,1,0,2.16c-.12.34-.31.67-.4,1a3.78,3.78,0,0,0-.1,1.07,6.41,6.41,0,0,1-1.16,4.11l-.08,0a7.88,7.88,0,0,1,.76-4.19,3.71,3.71,0,0,0,.29-1c0-.36,0-.73,0-1.09a4.42,4.42,0,0,1,.61-2Z"/><path d="M46.72,32.59a4.61,4.61,0,0,1,.21,2.16,7.77,7.77,0,0,0-.25,1.06,3.26,3.26,0,0,0,.09,1.07,8.17,8.17,0,0,1,0,4.28h-.09a6.34,6.34,0,0,1-.41-4.28,4,4,0,0,0,.1-1.08c0-.36-.15-.72-.2-1.08a4,4,0,0,1,.45-2.13Z"/><path d="M47.1,47.48a5.16,5.16,0,0,1,.29,2.18,10.32,10.32,0,0,0-.18,1.09,3.31,3.31,0,0,0,.18,1.08A11.32,11.32,0,0,1,47.91,54a4.11,4.11,0,0,1-.38,2.25h-.09c-.19-.75-.35-1.41-.48-2.12a8.14,8.14,0,0,1-.06-2.21,5.16,5.16,0,0,0,0-1.11c-.06-.36-.21-.73-.28-1.09A4,4,0,0,1,47,47.47Z"/><path d="M95.61,39A1.59,1.59,0,0,1,97,37.69a5.16,5.16,0,0,1,1,.12,7.39,7.39,0,0,0,.94,0,5,5,0,0,1,1.82.24,11.29,11.29,0,0,1,1.62.77v.09a3.31,3.31,0,0,1-1.89.07,9.16,9.16,0,0,1-1.64-.69A1.7,1.7,0,0,0,98,38.1a2.17,2.17,0,0,0-.8.32,14.61,14.61,0,0,0-1.5.64Z"/><path d="M26,84.37a4.09,4.09,0,0,1,2.49-2.47,6.83,6.83,0,0,1,1.79-.2,9.68,9.68,0,0,1,1.77.11,5.94,5.94,0,0,1,3.16,1.62,9.63,9.63,0,0,1,2,2.89l-.07.05c-1.86-1.45-3.19-3.16-5.2-4.09A3.11,3.11,0,0,0,30.27,82a4.08,4.08,0,0,0-1.51.61,13.4,13.4,0,0,0-2.71,1.82Z"/><path d="M30.36,66.53a4.88,4.88,0,0,1,1.66.36,3.49,3.49,0,0,0,.77.39,1.88,1.88,0,0,0,.85,0,14.91,14.91,0,0,1,3.28-.69l0,.08a3,3,0,0,1-3.33,1.1,4,4,0,0,0-.89-.16c-.29,0-.61.06-.93.05a2.16,2.16,0,0,1-1.51-1Z"/><path d="M30.53,72.56a5.67,5.67,0,0,1,1.92.33,2.85,2.85,0,0,0,.9.32,3,3,0,0,0,.91-.28c.57-.3,1.09-.64,1.62-1s1.09-.58,1.75-.86l.06.06a3.48,3.48,0,0,1-1.31,1.62,3.78,3.78,0,0,1-2,.6c-.71,0-1.34.23-2.09.23a2.81,2.81,0,0,1-1.8-1Z"/><path d="M37.86,80.74a6.39,6.39,0,0,1,1,1.87,5.1,5.1,0,0,0,.3,1,2.28,2.28,0,0,0,.72.76,12,12,0,0,0,1.73,1,10.64,10.64,0,0,0,1.89.74v.09a2.83,2.83,0,0,1-2.28,0,3.69,3.69,0,0,1-1.72-1.52,9.77,9.77,0,0,0-.59-.93c-.23-.29-.52-.54-.74-.85a3.27,3.27,0,0,1-.4-2.17Z"/><path d="M40.34,78.46a10.16,10.16,0,0,0,2.28,2.3,4.37,4.37,0,0,0,1.38.87,3.26,3.26,0,0,0,1.64.05,4,4,0,0,1,1.82-.17,3.41,3.41,0,0,1,1.64,1A4.62,4.62,0,0,0,51.86,84v.09a3.38,3.38,0,0,1-3.4-.87,3.84,3.84,0,0,0-1.21-.85,7.26,7.26,0,0,0-1.58-.16,11.18,11.18,0,0,1-1.75-.26,6.8,6.8,0,0,1-1.72-.52,3.77,3.77,0,0,1-2-2.9Z"/><path d="M52.65,75.56a7.41,7.41,0,0,1,2.63,3.27,18.15,18.15,0,0,0,.79,1.93,5.55,5.55,0,0,0,1.27,1.57A7.89,7.89,0,0,0,59,83.4a5.28,5.28,0,0,1,1.85,1.21A6.23,6.23,0,0,0,62.15,86a3,3,0,0,0,1.85.46l0,.09a2.61,2.61,0,0,1-2.19.08,4.88,4.88,0,0,1-1.7-1.39,6.51,6.51,0,0,0-1.55-1.12A5.27,5.27,0,0,1,57,82.67c-.43-.58-.78-1.18-1.16-1.76l-1.21-1.72c-.71-1.2-1.25-2.39-2-3.57Z"/><path d="M60.08,67.78c-.88.5-1.73.82-2.48,1.25a2.12,2.12,0,0,0-1,.83,2.06,2.06,0,0,0-.16,1.34,17.63,17.63,0,0,0,.83,2.61c.3.87.67,1.7,1,2.62l-.07.06a5.44,5.44,0,0,1-1.87-2.32,5.9,5.9,0,0,1-.43-3,4.82,4.82,0,0,1,1.22-2.79,4,4,0,0,1,2.89-.72Z"/><path d="M62.25,71.22a8.8,8.8,0,0,1,1.83,3.68,11.75,11.75,0,0,0,.51,2,5,5,0,0,0,1.16,1.61,4.47,4.47,0,0,0,3.34,1.34c.34,0,.53-.07,1-.1a1,1,0,0,1,.76.41,4.74,4.74,0,0,1,.26.48A16.78,16.78,0,0,1,72,82.47l-.07,0A18.1,18.1,0,0,1,70.56,81c-.1-.12-.22-.29-.3-.37s0,0-.12,0a5.74,5.74,0,0,1-1,.18,4.12,4.12,0,0,1-3.77-2,20.69,20.69,0,0,1-1-1.81c-.33-.6-.68-1.21-1-1.84-.52-1.28-.78-2.56-1.2-3.88Z"/><path d="M64,54.69a5.68,5.68,0,0,1,.88,1.63,3.49,3.49,0,0,0,.26.89,1.71,1.71,0,0,0,.66.62,12,12,0,0,0,1.59.69,10.23,10.23,0,0,0,1.69.53l0,.09a2.39,2.39,0,0,1-2,.29,3.09,3.09,0,0,1-1.62-1.24,6.82,6.82,0,0,0-.56-.81c-.21-.24-.49-.46-.7-.73a2.44,2.44,0,0,1-.29-1.94Z"/><path d="M62.63,61.39A6.6,6.6,0,0,1,64,62.62a3.23,3.23,0,0,0,.53.74,2,2,0,0,0,.82.36c1.22.2,2.21.3,3.5.62l0,.08a3.08,3.08,0,0,1-3.73-.26,5.56,5.56,0,0,0-.77-.56c-.28-.16-.61-.26-.89-.44a2.25,2.25,0,0,1-.89-1.73Z"/><path d="M69,54.09a15.67,15.67,0,0,1,1.79,1.74,3,3,0,0,0,.9.8,1.58,1.58,0,0,0,1.17.06,5.36,5.36,0,0,1,.62-.22,1.18,1.18,0,0,1,.87.12,6.66,6.66,0,0,1,1,.87,4.18,4.18,0,0,0,2.07,1v.09a2.65,2.65,0,0,1-2.7-.38c-.41-.33-.61-.73-.83-.89s-.47-.13-1-.13a5.31,5.31,0,0,1-1.34-.27,5,5,0,0,1-1.28-.52,3.85,3.85,0,0,1-1.38-2.25Z"/><path d="M73.53,54.24a1.71,1.71,0,0,1,1.17,1c.08.25.08.53.18.76a1.5,1.5,0,0,0,.48.55c.41.29.75.54,1.09.74a4.51,4.51,0,0,1,1.16.91l0,.09a2.92,2.92,0,0,1-1.6-.16,2.22,2.22,0,0,1-1-1.29,2.45,2.45,0,0,0-.33-.69,5.68,5.68,0,0,0-.57-.52,2.94,2.94,0,0,1-.59-1.34Z"/><path d="M74.25,51a6.9,6.9,0,0,1,2,1.78,6.25,6.25,0,0,0,.8,1,2.82,2.82,0,0,0,1.15.6c1.67.41,3.33.3,5.14.79v.09a7.38,7.38,0,0,1-2.71.44A5.3,5.3,0,0,1,78,54.88l-1.12-.81c-.37-.25-.8-.47-1.16-.76a6.09,6.09,0,0,1-1.53-2.23Z"/><path d="M75.36,44.76a8.58,8.58,0,0,1,1.38,1.7,6.52,6.52,0,0,0,.54,1,2.71,2.71,0,0,0,.87.66A35.32,35.32,0,0,1,82,50.13l0,.09a4.49,4.49,0,0,1-4.11-1.76,6.78,6.78,0,0,0-.76-.84c-.28-.24-.63-.44-.92-.71a3.19,3.19,0,0,1-.87-2.11Z"/><path d="M80.38,45.57c.77.63,1.43,1.22,2.1,1.85a6.25,6.25,0,0,0,1,1,3.87,3.87,0,0,0,1.31.5,32.36,32.36,0,0,0,5.53.41l0,.09a5.61,5.61,0,0,1-5.72,0c-.44-.25-.85-.5-1.28-.72A12.68,12.68,0,0,1,82,48a4.24,4.24,0,0,1-1.71-2.39Z"/><path d="M73.9,71.66A4.86,4.86,0,0,1,75.06,74c.06.43,0,.87.11,1.29a6.56,6.56,0,0,0,.36,1.22A8.33,8.33,0,0,1,76.1,79a9.68,9.68,0,0,1-.19,2.54h-.09A9.22,9.22,0,0,1,75.14,79c-.06-.82-.11-1.64-.09-2.49a4.31,4.31,0,0,0-.16-1.24,12.12,12.12,0,0,0-.55-1.15,7.6,7.6,0,0,1-.52-2.46Z"/><path d="M78.76,72a7.94,7.94,0,0,1,.54,3.66c-.08.63-.25,1.23-.35,1.84s-.13,1.22-.17,1.84a29.44,29.44,0,0,0-.33,3.51,2.84,2.84,0,0,0,.46,1.48c.29.43.93,1,.83,1.68h-.09c-.2-.58-.76-.77-1.25-1.22a2.93,2.93,0,0,1-.9-1.86,9.29,9.29,0,0,1,.8-3.69,7.31,7.31,0,0,0,.36-1.78,12.27,12.27,0,0,0-.11-1.82A26.25,26.25,0,0,1,78.67,72Z"/><path d="M83.93,71.16a20.82,20.82,0,0,1,.56,5.24,9.71,9.71,0,0,0,1.22,4.85c1,1.42,2.62,2.22,4,3.29a5.47,5.47,0,0,0,1,.7c.4.1.77.21,1.18.3l2.58.51-.41.8a5.61,5.61,0,0,1-1.65-2.09c-.34-.92-.28-1.7-.57-2.39-.54-1.42-1.82-2.76-2-4.47l.09,0c.53,1.57,1.89,2.56,2.66,4.17a17.48,17.48,0,0,1,.7,2.37,5.79,5.79,0,0,0,1.41,1.75l1.2,1.19L94.33,87l-2.55-.64c-.44-.13-.9-.3-1.33-.47a5.29,5.29,0,0,1-1-.91c-1.21-1.22-2.8-2.09-4-3.45a7.32,7.32,0,0,1-1.68-5.06c0-1.79.22-3.5.11-5.25Z"/><path d="M95.33,73.71a24.79,24.79,0,0,1,1.28,3.62,17.63,17.63,0,0,0,.47,1.87A7.8,7.8,0,0,0,98,80.89a5,5,0,0,0,1.23,1.27,6.29,6.29,0,0,0,1.65.61,20.5,20.5,0,0,1,3.62,1.4l0,.09a20.55,20.55,0,0,1-3.85-.57,4.68,4.68,0,0,1-1.9-.85,3.82,3.82,0,0,1-1.16-1.72c-.24-.62-.45-1.22-.73-1.81s-.64-1.15-.91-1.74a9.2,9.2,0,0,1-.66-3.85Z"/><path d="M38.5,60.77a8.79,8.79,0,0,1,2.09,1.09,6,6,0,0,0,.95.71,2.8,2.8,0,0,0,1.14.23,11.41,11.41,0,0,0,2.23-.21,10.07,10.07,0,0,0,2.2-.57l.06.07a3.22,3.22,0,0,1-2.07,1.44,4.25,4.25,0,0,1-2.52-.25c-.39-.16-.76-.32-1.14-.44s-.82-.18-1.21-.33a3.76,3.76,0,0,1-1.79-1.67Z"/><path d="M42.76,59a8.34,8.34,0,0,1,2.16,1,4.91,4.91,0,0,0,1,.65,2.67,2.67,0,0,0,1.15.18,10.89,10.89,0,0,0,2.21-.32,1.45,1.45,0,0,0,.77-.35.57.57,0,0,0,0-.8l0-.09c.52,0,.84.67.64,1.2a1.77,1.77,0,0,1-1.14,1A4.15,4.15,0,0,1,47,61.3c-.4-.14-.78-.28-1.17-.39s-.82-.13-1.22-.26a3.83,3.83,0,0,1-1.88-1.56Z"/><path d="M49.33,66.92a5.8,5.8,0,0,1-.66,2,7.43,7.43,0,0,0-.58.88,3.11,3.11,0,0,0-.18,1,13.39,13.39,0,0,1-.54,4.09h-.09a4.7,4.7,0,0,1,.15-4.2,4.85,4.85,0,0,0,.39-1c.08-.35.08-.72.16-1.08a3.21,3.21,0,0,1,1.27-1.73Z"/><path d="M80.35,67.24a2.39,2.39,0,0,1,.72-1.43c.2-.16.5-.27.72-.41s.42-.34.65-.52a1.62,1.62,0,0,1,1.83-.15,1.36,1.36,0,0,1,.59.83,1.63,1.63,0,0,1-.07.88H84.7c-.37-.48-.61-.8-.91-.89a2.19,2.19,0,0,0-1.15-.23,1,1,0,0,0-.66.29,2.24,2.24,0,0,0-.35.69,2.31,2.31,0,0,1-1.21,1Z"/><path d="M32.47,85.25c.28.14.36.21.28.23a1.1,1.1,0,0,0-.24,0s0,.05.07.09c.28.18.28.28-.27.17l-.09,0c-.49-.27-.43-.33-.1-.3.08,0,.13,0,.11,0a2,2,0,0,0-.19-.13c-.06-.07.05-.07.35,0Z"/><path d="M36.86,83.81c.18-.25.13-.38.11-.3a.83.83,0,0,0,0,.23s0,0,0-.1-.12-.21-.14-.19.06.17.34.26l.08,0c.25.16.26.34.2.44s-.21.07-.33-.07S37,84,37,84a1.33,1.33,0,0,1-.1.23c-.09.07-.22-.09-.1-.37Z"/><path d="M36.38,83.28l.33,0-.23,0h.1c.32,0,.36,0-.2,0h-.09c-.56,0-.52,0-.2,0h.1l-.23,0,.33,0Z"/><path d="M36.76,81.24l-.3.14.2-.11-.09,0c-.29.13-.33.14.16-.12l.08,0c.51-.24.48-.22.2-.06l-.09,0,.21-.1c.07,0,0,0-.29.17Z"/><path d="M34,81.8c-.21-.22-.26-.31-.18-.29l.21.1s0,0,0-.1c-.2-.26-.18-.34.29,0l.07.06c.38.41.31.44,0,.29-.08,0-.13,0-.12,0a1.89,1.89,0,0,1,.14.19c0,.07-.06,0-.32-.13Z"/><path d="M30.72,76.21c.3-.07.3-.28.21-.24a.46.46,0,0,0-.14.19s0,0,0-.1-.22-.17-.26-.11.05.25.34.25h.09c.29,0,.34.27.29.38a.25.25,0,0,1-.4,0c-.05-.07-.07-.12-.1-.1s-.12.13-.21.15-.17-.23.12-.35Z"/><path d="M31.22,74.45c.17-.25.23-.33.2-.26l-.1.21s0,0,.07-.08c.19-.26.23-.28,0,.22l-.05.08c-.31.46-.31.41-.17.13,0-.07.05-.12,0-.1l-.13.19c-.05,0,0,0,.13-.31Z"/><path d="M32.34,75.46c.17.27.24.35.16.34a.49.49,0,0,0-.23,0s0,.06.09.06.21-.12.17-.14-.27.09-.12.36l0,.08a.36.36,0,0,1-.55.28.39.39,0,0,1,0-.56c.07-.07.13-.1.12-.16s-.12-.16-.15-.25.16-.18.43,0Z"/><path d="M33.13,74.72c.07-.29.12-.39.15-.31s0,.2,0,.23,0,0,.07-.09c.11-.31.19-.33.19.23v.09c-.14.54-.21.5-.24.17,0-.08,0-.13,0-.11a1.65,1.65,0,0,0-.09.22c0,.07-.07,0-.07-.34Z"/><path d="M34.05,76.82c-.16.21,0,.33,0,.34s.14-.12,0-.26h0l0-.19a.76.76,0,0,1,.32-.16s0,.14-.19.41l-.06.07c-.24.21-.36.27-.38.24a.89.89,0,0,1,.11-.34l0-.19s0,0,0,0a.22.22,0,0,1,.14-.37.25.25,0,0,1,.2.38Z"/><path d="M43,84.42c0-.29,0-.4,0-.33s.06.19.08.22,0,0,0-.11c0-.32,0-.36.16.17l0,.09c.07.55,0,.53-.09.22,0-.07,0-.12-.05-.09a2.15,2.15,0,0,0,0,.23c0,.08,0,0-.13-.31Z"/><path d="M44.35,84c-.39.33.08.48-.08.06h0l.07-.16a.82.82,0,0,1,.36.07s-.08.13-.38.26l-.09,0c-.33,0-.46,0-.46,0a.76.76,0,0,1,.29-.23l.07-.16s0,0,0,0c0-.48.59-.3.29.14Z"/><path d="M45.63,85.18c.27-.15.28-.29.23-.23a.92.92,0,0,0-.1.2s0,0,0-.09,0-.23,0-.23,0,.18.16.4l.06.07c.14.25.06.41,0,.47s-.2,0-.24-.22,0-.14-.06-.12-.11.13-.18.16-.15-.15.08-.36Z"/><path d="M46.21,83.92H46c-.31,0-.35,0,.21,0h.09c.55,0,.52,0,.2,0h-.29Z"/><path d="M40.39,83c0-.32,0-.42,0-.36s.13.14.17.14,0,0-.1,0-.2.1-.24.06a2.07,2.07,0,0,0,.15-.43l0-.08a.34.34,0,1,1,.54.4c-.06.09-.13.15-.14.22a1.21,1.21,0,0,1,0,.33c-.1.16-.28.11-.44-.16Z"/><path d="M40.59,80.79l-.24.23.16-.17s0,0-.08.07c-.23.22-.26.24.13-.16l.06-.06c.4-.39.38-.36.16-.13l-.07.07.17-.15-.23.24Z"/><path d="M42.59,82.83c.28.14.2.39.08.35a.64.64,0,0,1-.16-.19s0,0-.07.11-.2.19-.3.13-.08-.33.2-.43l.09,0c.29-.06.31-.26.26-.34s-.17,0-.21.16,0,.13,0,.11a.39.39,0,0,0-.11-.21c-.09,0-.14.17.15.29Z"/><path d="M39.18,79.5c-.19-.14-.31-.06-.34,0s.18.05.24,0,0,0-.07.16a.16.16,0,0,0,.18.16L39,78.87s.11.12.23.39l0,.08c.06.3.06.43,0,.45L39,78.86a.32.32,0,0,1,.33.18c0,.16-.05.27,0,.26s.34,0,.29.11a.24.24,0,0,1-.37.14Z"/><path d="M47.13,85.35a1.84,1.84,0,0,0,.32-.2c0-.06,0,.16.14.23s.12-.11,0-.22a.25.25,0,0,0-.1-.13l.9-.13c0-.07-.22.07,0,.37v.09a.45.45,0,0,1-.82,0l.9-.12a.57.57,0,0,1-.36.38c-.21,0-.35,0-.44.09s-.29.34-.44.22a.37.37,0,0,1-.18-.5Z"/><path d="M48.45,84.35c.22-.21.3-.27.26-.21l-.16.17s0,0,.09-.06c.24-.21.28-.22-.11.18l-.06.07c-.41.38-.39.34-.18.1l.06-.08-.17.15c-.06,0,0,0,.21-.26Z"/><path d="M39.49,73.16c.19-.24.23-.34.2-.27s-.07.17-.08.21,0,0,.06-.09c.13-.3,0-.34,0,.23v.09c-.09.55-.25.47-.2.15,0-.08,0-.13,0-.11l-.14.19c-.07,0-.06-.06.08-.32Z"/><path d="M39,74.66c.28-.14.27-.3.2-.25a.57.57,0,0,0-.1.21s0,0,0-.1S39,74.28,39,74.3s0,.2.19.38l.07.06c.19.22.14.39.06.47s-.21,0-.26-.2,0-.13-.05-.12a1,1,0,0,1-.18.18c-.11,0-.16-.17.09-.36Z"/><path d="M40.63,73.26c.28.21.49,0,.23,0s-.18,0-.13,0a.57.57,0,0,0,.14-.17l0,0-.66.17c-.1,0-.06,0,0,0a3,3,0,0,1,.38.11l.09,0,.36.18s.07,0,0,0l-.66.17v0a2.34,2.34,0,0,0,.09-.24s0,0-.15-.07,0-.31.26-.14Z"/><path d="M40.28,75.14a1,1,0,0,1,.06.34c0,.07-.05,0-.11-.1l-.1-.47c0,.14,0,.11,0,0a2.09,2.09,0,0,0,0-.23c0-.06,0,0,0,0a2.68,2.68,0,0,0,.22.32l.05.08a.54.54,0,0,1,.07.36c0,.08-.06.12-.12.07a.32.32,0,0,1-.17-.19c0-.1-.07-.11-.1.05L40,74.93c0-.13,0-.21,0-.16a.89.89,0,0,1,.19.29Z"/><path d="M41.1,72.83c-.08-.29-.11-.39-.08-.32l.08.22s0,0,0-.1c-.08-.31-.08-.35.1.18l0,.08c.16.54.13.51,0,.21,0-.07,0-.12,0-.09l.06.22c0,.07,0,0-.12-.31Z"/><path d="M38.5,71.78l.19-.31s0,.28,0,.28.06-.21.06-.26,0-.09,0-.06h0l-.3.55a.33.33,0,0,0,.33.2.18.18,0,0,0,.15-.1c0-.07,0-.23-.06-.22l-.08,0c-.11,0-.09-.22,0-.29a.26.26,0,0,1,.2-.11.4.4,0,0,1,.35.24l.1.28-.4.27h0c-.05.06-.13,0-.2,0s-.12-.28-.16-.26-.14.29-.2.23-.09-.13,0-.38Z"/><path d="M39.54,70.69c.28-.09.39-.11.32-.06l-.2.1s0,0,.1,0c.32-.07.37,0-.14.19l-.09,0c-.53.16-.51.11-.23,0,.07,0,.12-.06.09-.06l-.23,0c-.07,0,0,0,.29-.17Z"/><path d="M39.86,72.19a.3.3,0,0,0-.34.07l.65-.07c-.14-.24-.24-.1-.21-.09s.15-.17.17-.21,0-.12.09-.06a1.39,1.39,0,0,0,.32.29l.05.07a.49.49,0,0,1-.12.51c-.11.11-.28,0-.4,0s-.21-.36-.29-.39a.59.59,0,0,1-.31-.51l.64-.07a.65.65,0,0,1-.16.46Z"/><path d="M41,71.7a.73.73,0,0,0,.28.23s0-.05-.26-.07l-.12-.17a.45.45,0,0,0,0-.33s0,.14.27.33l.06.06c.2.27.13.48,0,.5a.37.37,0,0,1-.34-.28l0-.13-.08,0c-.21-.09-.21-.19-.18-.24s.17-.08.37.06Z"/><path d="M40.65,70.58c0,.3,0,.41,0,.33v-.23s0,0,0,.1c0,.32,0,.36,0-.2v-.09c0-.56,0-.52,0-.2,0,.08,0,.13,0,.1v-.23c0-.07,0,0,0,.33Z"/><path d="M41.9,70.65c.06.31.18.38.19.16s-.23-.15-.25-.11,0,0,0-.1,0-.22,0-.22.06.16.34.25l.07.05a.38.38,0,0,1,0,.55.35.35,0,0,1-.45-.14c-.05-.08-.08-.13-.17-.14a.36.36,0,0,1-.32-.29c0-.39.35-.32.51-.1Z"/><path d="M30.09,71.16c.25-.18.22-.34.17-.26a.46.46,0,0,0,0,.22s0,0,0-.1-.17-.17-.19-.14.09.17.38.17h.09c.28.09.33.3.28.42a.28.28,0,0,1-.41,0c-.07-.06-.1-.1-.14-.07s-.09.15-.17.2-.24-.15,0-.4Z"/><path d="M30.54,72.14c.25-.18.23-.33.19-.26a.41.41,0,0,0-.06.22s0,0,0-.1-.07-.23-.1-.21,0,.19.26.33l.07.06c.21.21.17.39.09.47s-.23,0-.31-.16-.05-.13-.08-.1-.1.14-.17.18-.19-.15,0-.38Z"/><path d="M31.09,70.63c0-.3,0-.41,0-.33a1,1,0,0,0,.07.22s0,0,0-.1c-.11-.31-.26-.25.17.12l.07.06c.37.43.14.54-.05.27-.05-.06-.08-.1-.09-.07a1.75,1.75,0,0,1,0,.23c0,.09-.12,0-.14-.31Z"/><path d="M31.76,71.76c.31-.09.34-.23.27-.16a.23.23,0,0,0-.15.18s0,0-.13,0-.18,0-.2,0-.07,0-.06-.06.15-.1.44-.15H32c.28.06.39.11.43.16s0,0-.06.11a.3.3,0,0,1-.24.19c-.14,0-.21,0-.26,0s-.16.16-.3.14-.16-.25.09-.42Z"/><path d="M31.34,69.71c-.31-.14-.27-.43-.19-.41a.8.8,0,0,0,.23,0s0,0-.08.05,0,.25-.07.25a1.28,1.28,0,0,0,0-.13.13.13,0,0,0,0-.16s0-.23-.14-.15l0,.08s-.14,0-.14-.11a.24.24,0,0,1,0-.15.27.27,0,0,1,.16-.21.33.33,0,0,1,.59.28,1.68,1.68,0,0,0,0,.29c0,.07.11.19.14.28s-.07,0-.37,0Z"/><path d="M32.12,68.41c.16-.26.18-.36.18-.29a1.39,1.39,0,0,0,0,.23s0,0,.05-.09c.09-.31,0-.35.14.2l0,.09c0,.56-.2.53-.23.2,0-.08,0-.14,0-.11l-.12.2c-.07.06-.09-.06,0-.35Z"/><path d="M32.52,70.12c-.08.14-.11.22-.06.29s.35-.09.26-.28-.23,0-.23,0,.06,0,.08-.07c.11-.31,0-.35.4.13l0,.09c0,.58-.32.63-.53.26,0-.09-.06-.15-.14-.16s-.26.05-.36-.21.3-.51.42-.43a.28.28,0,0,1,.17.32Z"/><path d="M33.17,68.84c-.12-.27-.13-.38-.06-.34a2.32,2.32,0,0,0,.18.16s0,0,0-.12c-.09-.32,0-.4.33,0l0,.08c.22.52.13.53-.11.31-.06-.06-.11-.09-.11,0a1.36,1.36,0,0,0,.07.22c0,.09-.09,0-.29-.21Z"/><path d="M34,70.77c0,.11.17.1.21,0a.23.23,0,0,0,.05-.16.14.14,0,0,0,0-.09.18.18,0,0,0-.12-.12s0,0,0,0a.42.42,0,0,0,0,.23s0,0,0-.11c0-.35-.18-.25.34,0l.08,0c.19.23.15.41.07.51a.29.29,0,0,1-.38-.08c-.07-.07-.11-.11-.15-.09s-.09.17-.16.22a.09.09,0,0,1-.1,0A.38.38,0,0,1,33.7,71a.18.18,0,0,1,0-.12.29.29,0,0,1,0-.21c0-.08.24-.13.28,0Z"/><path d="M34.52,69.21c.2-.23.17-.37.14-.29a.63.63,0,0,0,0,.23s0,0,0-.11-.09-.21-.12-.2,0,.18.31.3l.08,0c.22.18.21.36.15.45s-.21,0-.32-.11-.07-.12-.1-.09a1.72,1.72,0,0,1-.12.22c-.1.06-.2-.1-.06-.38Z"/><path d="M30.05,61.16c.29-.09.4-.11.34,0l-.2.11s0,0,.1,0c.32-.07.37,0-.13.21l-.08,0c-.54.16-.53.1-.25-.06.07,0,.11-.07.09-.07l-.23.05c-.08,0,0-.06.28-.19Z"/><path d="M30.2,63.08c.12.27-.07.47,0,.36s-.12-.17-.15-.17,0,0,0-.15-.41-.09-.42.12a.29.29,0,0,0,.08.34s.09,0,.11-.07.15-.2,0-.32l-.09,0c-.16-.22.11-.38.19-.41a.53.53,0,0,1,.35,0,.49.49,0,0,1,.2.55c0,.29-.52.42-.62.22a.67.67,0,0,1-.1-.35.61.61,0,0,1,0-.38c.19-.2.17-.05.44.15Z"/><path d="M31.33,61.92a1.34,1.34,0,0,0,.16.29,1.07,1.07,0,0,0-.17-.15s0,0,.06.08c.24.23.33.13-.22,0l-.09,0c-.52-.23-.38-.42-.08-.28.08,0,.12,0,.12,0s-.09-.14-.12-.21.11,0,.29.2Z"/><path d="M31,64.09c-.28.14-.35.25-.25.21a.18.18,0,0,0,.05-.22s0,0,.11,0,0-.39,0-.36a.56.56,0,0,1,.18.43v.09c-.13.28-.18.39-.28.43a.45.45,0,0,1-.32-.19.37.37,0,0,1,0-.46c.11-.14.2-.13.25-.18s.11-.22.27-.25.3.21.12.46Z"/><path d="M32,62.83c.15.27.23.33.17.28A1.29,1.29,0,0,0,32,63s0,0,.06.08c.26.21.34.09-.23.07l-.09,0c-.55-.15-.43-.39-.1-.3.08,0,.13,0,.12,0a1.49,1.49,0,0,1-.12-.2c0-.1.12-.07.32.15Z"/><path d="M31.25,65.39c-.25.2-.13.4,0,.27a.2.2,0,0,0-.08-.23s0,0,.07-.12a.26.26,0,0,0-.12-.28s.28.09.31.41l0,.09c-.09.28.05.37-.06.44a.4.4,0,0,1-.47-.34,1.15,1.15,0,0,1,0-.3.44.44,0,0,1,0-.36c.25-.19.51.06.36.34Z"/><path d="M36.76,64.71c.34-.23.58-.28.78-.2s.22.19.35.2.2-.12.26-.25a1.38,1.38,0,0,1,.08-.17.43.43,0,0,1,.11-.12.49.49,0,0,1,.52,0c.33.32.23.39.27.36s0,0,0,0a.63.63,0,0,0,.34.46l0,.08a.69.69,0,0,1-1.1.08.85.85,0,0,1-.17-.31c0-.15-.1-.23.12,0a.3.3,0,0,0,.34,0s0,0-.07,0a1.1,1.1,0,0,1-.26,0A1.5,1.5,0,0,0,38,65a4.68,4.68,0,0,1-.44.27.7.7,0,0,1-.78-.46Z"/><path d="M38.32,63.08c.15-.29.46-.21.46-.09s-.09.2-.09.25.06,0,.13,0,.11-.21.06-.21,0,.15.19.4l0,.09c0,.29-.07.43-.26.47a.35.35,0,0,1-.35-.4c0-.09,0-.15,0-.16a.59.59,0,0,0-.24.07c-.11,0,.07,0,.07-.33Z"/><path d="M40.07,64.23c-.07-.26-.07-.35,0-.42s.12,0,.31.09l.25.15a.18.18,0,0,0,.19,0,.12.12,0,0,0,0-.16c-.12-.09-.25.18.08.32l.07,0a.38.38,0,0,1-.53.5.54.54,0,0,1-.25-.39.46.46,0,0,1,.15-.36l.24.15c.08.21,0,.3,0,.34s-.2,0-.39-.16Z"/><path d="M37,61.75l.23.24L37,61.83s0,0,.07.08c.22.23.24.26-.16-.13l-.06-.07c-.39-.39-.36-.37-.13-.15.06,0,.09.09.07.07l-.15-.17.24.23Z"/><path d="M36.81,61.64c-.3,0-.4,0-.33,0h.23s0,0-.1,0c-.32,0-.36,0,.2,0h.09c.56,0,.52,0,.2,0-.07,0-.12,0-.1,0h.23c.08,0,0,0-.33,0Z"/><path d="M39.81,60.31c.3,0,.41,0,.35,0s-.17.09-.2.12,0,0,.11,0c.33,0,.39.07-.12.3l-.09,0c-.56.07-.55,0-.26-.19.07,0,.11-.07.08-.09h-.24c-.08,0,0-.09.28-.21Z"/><path d="M40.66,61c.29-.08.39-.1.33-.06l-.21.09s0,0,.1,0c.31-.07.36-.06-.16.15l-.09,0c-.54.15-.51.11-.22,0,.07,0,.12-.06.09-.06l-.22.06q-.12,0,.3-.15Z"/><path d="M41.29,59.86c.29-.1.39-.12.34-.06a1.22,1.22,0,0,0-.19.13s0,0,.1,0c.32-.08.37,0-.11.23l-.08,0c-.53.18-.52.11-.25-.07.06,0,.1-.08.07-.08s-.16.05-.22.06,0-.06.26-.21Z"/><path d="M41.73,61.75c-.31-.1-.35-.38-.22-.53l.73.17c-.07.06-.29.19-.2.26s.26,0,.28,0,0-.11-.07,0,0,.23.19.29l.08,0c.15.24-.06.49-.28.55a.47.47,0,0,1-.55-.28c-.1-.17,0-.39.06-.49s-.2-.16-.29-.28l.73.16s-.08,0-.37.13Z"/><path d="M45.08,59.26q.44-.13.33-.06l-.2.1s0,0,.1,0c.32-.08.37-.06-.14.18l-.09,0c-.53.16-.51.11-.23,0,.07,0,.11-.06.09-.06l-.23.05c-.07,0,0,0,.29-.17Z"/><path d="M45.39,59.91s0,.11-.07.1a.17.17,0,0,1-.1,0s-.19-.1-.06-.29a.37.37,0,0,1,.41-.11c.14,0,.07,0,.06,0a.37.37,0,0,0-.07.21s0,0,.06-.08,0-.24,0-.23,0,.16.25.34l.07.06c.14.26.06.44-.05.51s-.26,0-.33-.2-.06-.13-.11-.12a.92.92,0,0,1-.23.14s-.16-.1-.07-.08a.38.38,0,0,0,.33-.12c.12-.19,0-.28-.05-.26h-.08c-.08,0-.1.11-.06.09Z"/><path d="M45.61,58.3c.23.12.29.17.31.2s-.06,0-.28,0l-.06-.16a.79.79,0,0,1,.3-.22s0,.13-.13.43l0,.08c-.2.25-.31.33-.33.3a.87.87,0,0,1,.07-.36l0-.12-.1-.05c-.2-.1-.23-.14-.22-.16s.11,0,.36.06Z"/><path d="M46.62,59c.25.18.34.23.26.25a.9.9,0,0,0-.24,0s0,.06.09.09c.31.13.34.09-.19.31l-.09,0c-.57,0-.55-.3-.21-.39.08,0,.13-.05.11-.09s-.14-.1-.19-.16.08-.15.38-.08Z"/><path d="M47,60c-.08-.3-.12-.4-.09-.33a2.2,2.2,0,0,0,.12.19s0,0,0-.1c-.14-.28-.22-.26.21.11l.07.07c.36.41.21.48,0,.24-.06-.06-.09-.09-.09-.06l.06.22c0,.09-.09,0-.2-.26Z"/><path d="M47.56,58.18l-.23.23.15-.17-.07.07c-.23.22-.26.24.13-.16l.06-.06c.4-.39.38-.36.16-.13-.06,0-.09.09-.07.08l.17-.16-.23.24Z"/><path d="M46.54,57.48c-.13.27-.18.36-.16.29l.07-.22s0,0-.06.09c-.14.28-.17.31,0-.22l0-.08c.23-.51.24-.47.15-.16,0,.07,0,.12,0,.1l.1-.21c0-.06,0,0-.09.32Z"/><path d="M50.34,58.88c.13.27.17.36.13.3l-.11-.2,0,.09c.13.29.14.33-.12-.17l0-.08c-.24-.5-.21-.47-.06-.19,0,.06.06.11,0,.08l-.09-.2c0-.07,0,0,.16.28Z"/><path d="M47.54,77.89a6.83,6.83,0,0,1,.76,1.86,2.35,2.35,0,0,0,.29.93c.18.27.49.41.79.7a3.35,3.35,0,0,1,.54.92,1.74,1.74,0,0,0,.57.48c.43.32,1.26.62,1.57,1.37l-.07.06c-.65-.28-1.25-.23-2-.6a1.88,1.88,0,0,1-.85-1c-.15-.44-.09-.73-.18-1-.22-.58-.95-1-1.36-1.63a2.84,2.84,0,0,1-.16-2.12Z"/><path d="M44,79.78c-.15-.27-.26-.34-.21-.22s.21.09.23,0,0,0,0,.11.29,0,.27,0-.15,0-.4.17l-.09,0c-.29,0-.44-.1-.46-.32s.34-.52.56-.35.18.11.27.15a.44.44,0,0,1,.32.27c0,.29-.21.35-.47.19Z"/><path d="M45.28,80.55c-.13.25-.51.2-.24.2.1,0,.15-.29.07-.31s0,0,0-.12-.14-.21-.15-.19.13,0,.44.08l.08,0a.51.51,0,0,1,.16.56.45.45,0,0,1-.66,0,1.33,1.33,0,0,1-.17-.3c-.1-.13,0-.44.23-.49.47,0,.22.13.25.46Z"/><path d="M45,78.77c.26-.17.28-.3.22-.24a.62.62,0,0,0-.1.2s0,0,0-.09c.09-.34-.21-.32.08.18l.05.08c.2.55-.21.58-.23.22,0-.08,0-.14,0-.12s-.12.13-.18.17-.13-.14.1-.35Z"/><path d="M46.29,79.65a.38.38,0,0,1,.37,0c.08,0,.09.14,0,.22s-.16.13-.11.18.17.1.12-.2c0-.14-.22-.17-.17-.17s0,0,0,0a2.41,2.41,0,0,0,.2.38l0,.09a.51.51,0,0,1-.13.43c-.05,0-.09.06-.14.05s-.29-.05-.34-.2c-.11-.36.1-.38.08-.43s0-.06-.12,0-.14,0-.1,0a1.07,1.07,0,0,0,.24-.23Z"/><path d="M49,78.51c.27-.15.34-.22.3-.16a.55.55,0,0,0-.14.18s0,0,.08-.06c.23-.24.15-.32,0,.24l0,.08c-.23.52-.43.39-.31.08,0-.08.05-.13,0-.12s-.14.09-.21.12-.06-.12.17-.31Z"/><path d="M50,80.07c-.14-.12-.21-.14-.26-.14s0,.2.15.22.18-.24.11-.21,0,.09.06.13.14-.14.08-.23-.17-.13-.08-.12.11.14.28.41l0,.09a.5.5,0,0,1-.37.45s-.26,0-.4-.19a.39.39,0,0,1-.12-.31A.26.26,0,0,1,49.6,80c.09-.07.16-.09.18-.18a.34.34,0,0,1,.39-.33.37.37,0,0,1,.29.49.39.39,0,0,1-.36.17Z"/><path d="M51.28,78.93c0,.26-.08.34-.11.36s-.08,0-.11-.27l0-.26a1.73,1.73,0,0,0,.15-.33s0,.11.08.44V79c0,.32-.11.44-.19.42A.43.43,0,0,1,51,79l0-.27c0-.23.08-.27.11-.27s.07.1.11.36Z"/><path d="M51.09,80.68c.22.21.35.21.27.18a.44.44,0,0,0-.22,0s0,0,.1,0c.35,0,.25-.23-.12.21l-.06.06c-.24.17-.4.13-.48.06s0-.22.16-.3.13-.06.11-.09a1.19,1.19,0,0,1-.21-.15c0-.11.11-.19.38,0Z"/><path d="M52.23,81.46a1.58,1.58,0,0,1-.13.31c0,.06-.05,0,0-.14l.3-.22c-.15,0-.13,0,0,0l.23,0c.06,0,0,0,0,0l-.36.11-.09,0a.76.76,0,0,1-.37,0c-.08,0-.1-.06,0-.1s.1-.07.22-.1.12,0,0-.09l.3-.22c0-.12.08-.18.09-.11a1.35,1.35,0,0,1,0,.34Z"/><path d="M51.67,82.94c-.28.18-.54.06-.37.1s.07-.18.06-.21.08,0,.1-.15,0-.24.11-.25.15.14.3.42l0,.09a.53.53,0,0,1-.34.45.51.51,0,0,1-.48-.4.41.41,0,0,1,.15-.42.57.57,0,0,1,.37-.22c.36.14.21.23.12.51Z"/><path d="M53,82.14c.19-.25.14-.38.13-.3a.55.55,0,0,0,0,.23s0,0,0-.11-.11-.2-.12-.19.07.16.35.24l.08,0c.25.15.26.34.21.44s-.22.08-.35,0-.1-.11-.12-.08a2.35,2.35,0,0,1-.11.24c-.1.07-.24-.08-.13-.37Z"/><path d="M53.09,80.26c-.2-.23-.26-.32-.2-.27l.19.14s0,0,0-.1c-.2-.25-.2-.3.22.06l.07.07c.36.42.31.42.06.22-.06,0-.11-.08-.1,0l.15.18c0,.07,0,0-.28-.19Z"/><path d="M53,79c-.12.32.25.35.18.23s-.15-.13-.18-.13a.14.14,0,0,0,.09,0c.16-.09.12-.23.09-.24s-.12.13-.07.41v.09c0,.29-.22.38-.36.36a.32.32,0,0,1-.12-.45c0-.1.1-.14.08-.19s-.12-.16-.12-.27.47-.22.45.14Z"/><path d="M53.21,78.93c.07-.29.1-.39.1-.32l0,.23s0,0,0-.1c.08-.3.11-.33,0,.22l0,.08c-.13.55-.15.51-.11.19,0-.08,0-.13,0-.1l-.06.22c0,.07,0,0,0-.33Z"/><path d="M54.59,81c.3,0,.41,0,.33,0h-.23s0,0,.1,0c.32,0,.36.05-.2.07H54.5c-.56,0-.52,0-.2-.07.08,0,.13,0,.1,0h-.23c-.07,0,0,0,.33,0Z"/><path d="M52.9,83.42c.32,0,.37-.16.29-.11s-.12.16-.11.19,0,0,0-.09-.15-.2-.17-.16.08.2.38.15h.09a.35.35,0,0,1,.24.51.34.34,0,0,1-.51,0c-.08-.07-.11-.13-.16-.12a1.32,1.32,0,0,1-.28.09c-.17,0-.2-.34.11-.45Z"/><path d="M54.76,82.55c.29.08.38.13.31.13h-.24s0,0,.1.06c.3.11.33.16-.23.1l-.09,0c-.53-.16-.49-.2-.17-.18.08,0,.13,0,.11,0l-.22-.08c-.07,0,0,0,.34,0Z"/><path d="M54.54,83.8l-.42,0,.73-.19h0c-.21-.08-.24,0-.24,0s.17-.16.11-.22-.06-.12,0,0a1.26,1.26,0,0,0,.32.27l0,.08a.45.45,0,0,1,0,.48c-.08.12-.26.09-.4,0s-.18-.33-.24-.38a1.26,1.26,0,0,1-.38-.3l.73-.19-.17.38Z"/><path d="M55.72,82.88c-.17.2,0,.35.05.35s.2-.13,0-.29h0V82.8c.19-.06.24-.12.28-.19s-.14,0-.32.31l-.05.07c-.2.25-.36.27-.39.21a.33.33,0,0,1,.2-.29v-.12s0,0,0,0c-.14-.19,0-.35.11-.34a.22.22,0,0,1,.13.38Z"/><path d="M56.26,84.23c-.26-.14-.35-.2-.28-.17l.21.1-.09,0c-.28-.16-.31-.18.19.06l.08,0c.5.26.46.25.17.12l-.09,0,.2.11c.06,0,0,0-.3-.13Z"/><path d="M48.74,70.9c-.23-.2-.31-.27-.24-.23l.19.12s0,0-.07-.07c-.24-.21-.26-.25.2.06l.08.06c.43.35.39.35.12.17-.07,0-.11-.06-.09,0l.17.15s0,0-.29-.17Z"/><path d="M46.33,70.71c-.31-.18-.38.26-.24.2a.33.33,0,0,0,.17-.16s0,0,.05.09.19.16.2.15-.12-.09-.38-.21l-.08,0c-.23-.18-.28-.29-.26-.39a.27.27,0,0,1,.39,0c.09.06.12.11.16.1a.69.69,0,0,1,.27-.11c.19,0,.15.53-.21.4Z"/><path d="M45.61,72.84a2.38,2.38,0,0,1-.33.17s.21-.2.19-.2-.19.1-.24.13-.09,0-.06,0l.27.15s0-.06.1-.1a.33.33,0,0,0,.22-.14c.06,0,.12-.35,0-.44s0,0-.08-.05h0s0,0,0,0a.69.69,0,0,0,0,.2l-.05.08a.61.61,0,0,1-.09.18l0,0h0s0,0-.09,0-.09-.43,0-.44a.37.37,0,0,1,.23-.14c.16,0,.1-.07.14-.1l.27.15s0,0,0,.09-.2.21-.17.22.27-.15.25-.11,0,.09-.25.25Z"/><path d="M50.31,67.71c0-.3,0-.42-.06-.3a.26.26,0,0,0,.13.2s0,0-.08.07,0,.26-.16.19-.08-.2,0-.46l0-.07c.23-.2.31-.29.36-.32s.22.19.13.4a.6.6,0,0,0,0,.24.46.46,0,0,1,0,.34c-.13.19-.3.09-.39-.2Z"/><path d="M51.41,66.58c.29.06.39.09.32.12l-.23,0s0,0,.09,0c.32.08.35.14-.21.15h-.09c-.55-.1-.51-.15-.19-.18.08,0,.13,0,.11,0L51,66.63c-.07,0,0,0,.34,0Z"/><path d="M51.05,68.51c.2.24.29.3.21.3a.6.6,0,0,0-.24,0s0,.06.1.06.21-.1.19-.11-.2.1-.1.38l0,.09a.34.34,0,1,1-.59-.27c.06-.08.11-.13.09-.18a2.38,2.38,0,0,1-.18-.22c0-.15.13-.23.43-.12Z"/><path d="M52.31,67.31c-.3-.07-.4-.1-.32-.09l.23,0-.1,0c-.31-.09-.34-.12.21,0l.09,0c.54.13.5.14.19.1H52.5l.22.06c.07,0,0,0-.33,0Z"/><path d="M54.3,67.07c0,.3,0,.4,0,.33a.71.71,0,0,0-.07-.22s0,0,0,.09c.13.31.29.22-.17-.11L54,67.1c-.4-.4-.18-.54,0-.27,0,.06.08.1.09.07a1,1,0,0,1,0-.24c0-.08.13,0,.14.32Z"/><path d="M52.65,69.49c-.1-.19-.2-.23-.23-.22l.64.35c.09.08-.09,0-.24,0s0,.08,0,.07.06-.06,0-.16a.3.3,0,0,0-.18-.11c-.06-.06,0-.16,0-.13l.42.16.07.06a.48.48,0,0,1,0,.52c-.09.13-.18.11-.41.11a.42.42,0,0,1-.3-.13c-.1-.12-.06-.19-.06-.27s.08-.12,0-.19-.21-.39,0-.43l1.24-.3-.6.65a.34.34,0,0,1-.42.08Z"/><path d="M54.3,64.8c.05-.3,0-.4,0-.33a.58.58,0,0,0,.09.21s0,0,0-.11c-.09-.32-.23-.25.25.05l.07.06c.39.43.13.6-.11.34-.06-.06-.1-.1-.11-.06s0,.17,0,.24-.16,0-.19-.31Z"/><path d="M54.39,64.65c-.13-.28-.16-.38-.12-.31l.12.19,0-.09c-.12-.3-.12-.34.15.15l0,.08c.23.51.2.48,0,.21,0-.07-.06-.11,0-.08l.08.21c0,.07,0,0-.17-.28Z"/><path d="M56.13,64.8c.29.1.38.15.3.17l-.23,0s0,0,.09.07c.3.13.32.21-.24.18H56c-.53-.18-.49-.24-.16-.26.08,0,.13,0,.11,0l-.21-.09c-.07,0,0-.07.34,0Z"/><path d="M54.89,66.33c.32.06.37-.15.3-.08a.32.32,0,0,0-.1.2s0,0,.07-.08c.09-.31,0-.34.37.15l0,.09c.06.57-.28.61-.47.25,0-.09-.07-.15-.13-.15a.78.78,0,0,1-.28.08c-.16,0-.19-.37.13-.46Z"/><path d="M57,64.14l-.24.23.16-.17s0,0-.08.07c-.23.22-.26.24.13-.16l.06-.06c.4-.39.38-.36.16-.13,0,.06-.09.09-.07.08l.17-.16-.23.24Z"/><path d="M56.35,79.7c.11-.28.13-.39.14-.31a1.4,1.4,0,0,0,0,.23s0,0,0-.1c.05-.33,0-.35.23.15l0,.08c.12.56-.12.58-.24.26,0-.07,0-.12-.07-.1s-.06.16-.1.22-.13,0-.09-.35Z"/><path d="M57.85,80.36c-.15.26-.19.36-.19.28a.92.92,0,0,0,0-.23s0,0-.06.09c-.1.31,0,.35-.2-.19v-.09c0-.57.21-.54.27-.21,0,.08,0,.13.06.11s.08-.15.13-.2.11.06,0,.36Z"/><path d="M57,81.73a1.71,1.71,0,0,1,.09-.43c0-.09.17,0,.32,0l.28.22c-.08-.06,0,.07.08-.05s0-.14.07-.19.21,0,.6.14l.06.06a.54.54,0,0,1-.51.71.6.6,0,0,1-.54-.29.81.81,0,0,1,0-.61l.16-.77.12,1c0,.18,0,.42-.16.45a.47.47,0,0,1-.52-.14Z"/><path d="M58.69,79.69c.29.1.39,0,.32,0a.85.85,0,0,0-.22.06s0,0,.1,0c.32-.1.2-.28-.08.21l-.05.08c-.39.43-.6.12-.33-.1.06-.06.1-.09.07-.1a2.07,2.07,0,0,1-.24-.06c-.08-.06,0-.17.34-.14Z"/><path d="M59.41,81.8c-.31.13-.09.39-.06.24s-.11-.16-.15-.15,0,.07.06.12.23,0,.16-.11-.08.14-.05.43l0,.09c-.17.24-.36.32-.6.17a.44.44,0,0,1,0-.68c.09-.06.16-.1.17-.17s0-.24.06-.36.7.05.48.38Z"/><path d="M60.64,80.54c.3,0,.4,0,.33.06l-.23,0s0,0,.1,0c.32,0,.35.08-.2.12h-.09c-.56,0-.52-.08-.21-.12.08,0,.13,0,.1,0l-.22,0c-.08,0,0,0,.33-.06Z"/><path d="M60.39,82.91c.07.31.27.29.19.25a.32.32,0,0,0-.23,0s0,.05.1,0c.34-.06.23-.23,0,.34l0,.08c-.42.42-.75,0-.49-.3.06-.08.11-.12.09-.18s-.15-.13-.18-.23.27-.31.47-.05Z"/><path d="M62.21,81.6c0,.3,0,.4,0,.33V81.8c0,.32,0,.36,0-.2v-.09c0-.56,0-.52,0-.2v-.13c0-.08,0,0,0,.33Z"/><path d="M62.53,79.25a21.88,21.88,0,0,1,2.11,3.21A4.85,4.85,0,0,0,67,85.24a1.86,1.86,0,0,0,2.49-1.19,1.24,1.24,0,0,0-.45-1.24.59.59,0,0,0-1,.45l-.08,0a.75.75,0,0,1,.23-1,1.28,1.28,0,0,1,1.2-.08,1.92,1.92,0,0,1,1.06,2,2.38,2.38,0,0,1-3.65,1.45,8.26,8.26,0,0,1-1.45-1.37A18.51,18.51,0,0,1,64,82.87a10,10,0,0,1-1.56-3.58Z"/><path d="M65.18,82c.18-.19.25-.23.29-.23s0,.06-.09.27l-.22.13c-.11,0-.12.21,0,.31l.13-.79c0-.13,0-.08.08,0a2,2,0,0,1,.07.41v.09a2.62,2.62,0,0,1-.08.4s0,.08-.08,0l.13-.79c.11.13.14.34.06.41l-.22.14c-.16.16-.21.17-.23.16s0-.12.14-.35Z"/><path d="M66.13,81.12c.29.07.39.11.31.1l-.22,0s0,0,.09,0c.31.09.34.12-.21,0l-.08,0c-.55-.13-.51-.15-.19-.1.08,0,.13,0,.1,0l-.22-.06c-.07,0,0,0,.33,0Z"/><path d="M66.23,82.91c-.18.25-.27.3-.31.24l.39-.05a.16.16,0,0,0,0-.24c-.07,0-.08,0-.06,0s.14-.23.08-.26,0-.11,0,0l.18.38,0,.08a.53.53,0,0,1-.12.41c-.08.08-.11.07-.25,0S66,83.11,66,83s0-.09-.11-.16a.3.3,0,0,1,0-.37l.4,0c.07,0,.09.09,0,.38Z"/><path d="M67.17,81.57c.08.29.22.35.19.26a.7.7,0,0,0-.13-.18s0,0,.09,0c.31.17.4-.14-.17-.09h-.09c-.58,0-.47-.32-.15-.18.07,0,.12,0,.11,0a1,1,0,0,1-.12-.21c0-.09.14,0,.24.24Z"/><path d="M63.13,84.51c-.23-.22-.37-.17-.28-.15s.21.07.24,0,0,0,0,.12.35.12.3.17a1.13,1.13,0,0,0-.39-.2l-.08,0c-.22-.19-.25-.33-.22-.43a.39.39,0,0,1,.54,0c.08.11.06.19.11.21a.59.59,0,0,1,.25.18c0,.12-.12.26-.4.12Z"/><path d="M57.65,71.57c-.18-.24-.25-.31-.19-.27a.88.88,0,0,0,.2.12s0,0-.07-.08c-.25-.21-.31-.15.24,0l.08,0c.53.22.41.39.1.29-.08,0-.13,0-.12,0l.14.19c0,.09-.1.06-.32-.15Z"/><path d="M58.42,70.15c.23-.21.3-.27.26-.21l-.15.17.08-.06c.24-.21.28-.23-.1.18l-.07.06c-.4.38-.39.35-.18.11l.06-.08-.17.15c-.06,0,0,0,.21-.26Z"/><path d="M58.78,72.18c-.3-.05-.42,0-.23.11s.21-.15.19-.18l.1,0c.29.24.33.17-.26.33h-.09C58,72.36,58,72,58.38,72a.42.42,0,0,0,.23-.12.37.37,0,0,1,.38-.17c.32.18.15.42-.12.51Z"/><path d="M60,71.15c0-.31,0-.42,0-.36s.09.17.12.2,0,0,0-.12c0-.32-.05-.35.32.1l0,.07c.2.52,0,.55-.18.29-.05-.06-.09-.1-.1-.07a1.85,1.85,0,0,0,0,.25c0,.09-.12,0-.22-.27Z"/><path d="M60,73.31c-.27-.22-.4.13-.24.1s.16-.15.13-.18,0,0,0,.09.26,0,.23,0-.17,0-.31.27l-.06.07a.38.38,0,0,1-.57-.17c-.06-.21.13-.53.38-.5s.19,0,.26,0a.47.47,0,0,1,.38-.12c.28.07.22.64-.17.55Z"/><path d="M60,74.79c0,.3,0,.4,0,.33v-.23s0,0,0,.1c0,.32,0,.35,0-.2V74.7c0-.56,0-.52,0-.21,0,.08,0,.13,0,.1v-.23c0-.07,0,0,0,.34Z"/><path d="M54.71,75c0,.31,0,.41,0,.33v-.22s0,0,0,.09c0,.32,0,.36,0-.2v-.09c0-.56,0-.52,0-.2,0,.08,0,.13,0,.1v-.23c0-.07,0,0,0,.33Z"/><path d="M54.45,75.11c.09.29.12.39.09.32l-.09-.21s0,0,0,.1c.09.3.09.34-.1-.18l0-.08c-.16-.54-.14-.51,0-.21l0,.09-.06-.22c0-.07,0,0,.12.31Z"/><path d="M53,73.18h-.2c-.32,0-.35,0,.2,0h.09c.56,0,.53,0,.2,0H53Z"/><path d="M53.56,73.9c0-.3,0-.4,0-.33l0,.23s0,0,0-.1c0-.32,0-.36.07.2V74c0,.56-.05.52-.07.2,0-.08,0-.13,0-.1l0,.23c0,.07,0,0,0-.33Z"/><path d="M62.36,64.42c0-.3-.2-.42-.23-.13a.22.22,0,0,0,.27.11s0,0,0,.1.11.13.19.09,0,.08,0,.09-.16,0-.42-.11l-.07,0c-.21-.22-.26-.34-.27-.43s0,0,.11-.07a.28.28,0,0,1,.34,0c.09.06.13.11.21.12a.36.36,0,0,1,.33.26c0,.41-.34.35-.48.1Z"/><path d="M62.73,66.15c0-.31,0-.41,0-.35a1,1,0,0,0,.1.21s0,0,0-.11c0-.32,0-.35.25.14l0,.09c.15.53,0,.54-.16.25,0-.07-.07-.11-.08-.08s0,.17,0,.24-.1,0-.17-.3Z"/><path d="M63.3,65.23c.13-.28.13-.39.12-.31a.92.92,0,0,0,0,.23s0,0,0-.1c0-.33-.11-.34.14.17l0,.08c.16.55-.08.57-.16.24,0-.08,0-.13-.06-.1a1.13,1.13,0,0,1-.09.22c-.06.06-.11-.06,0-.35Z"/><path d="M64.16,64.6c.23-.19.29-.29.25-.22a1,1,0,0,0-.11.2s0,0,.07-.08c.16-.28.06-.34,0,.22l0,.09c-.12.55-.32.46-.25.14,0-.08,0-.13,0-.12L64,65c-.09,0-.07-.09.12-.32Z"/><path d="M64.91,64.8c.25-.18.34-.23.29-.18l-.17.16.09,0c.26-.18.31-.18-.12.18l-.07,0c-.46.32-.45.27-.21.07.06,0,.1-.09.07-.08l-.19.13c-.07,0,0,0,.24-.23Z"/><path d="M65.4,71.16a4.54,4.54,0,0,1,1,2.22c0,.41,0,.83.05,1.22a5.5,5.5,0,0,0,.32,1.17,12.16,12.16,0,0,0,.83,2.12c.35.67.45,1.47,1.07,1.92l0,.09a1.49,1.49,0,0,1-1.19-.56,6.27,6.27,0,0,1-.73-1,4.33,4.33,0,0,1-.44-2.45,4,4,0,0,0-.13-1.19,9.73,9.73,0,0,0-.49-1.1,6.19,6.19,0,0,1-.33-2.37Z"/><path d="M67.53,74.86c.16-.26.21-.35.2-.28a1.23,1.23,0,0,0-.06.22s0,0,.06-.09c.12-.3.09-.34.09.23V75c-.1.55-.23.48-.21.16,0-.08,0-.13,0-.12l-.12.21c-.07,0-.08-.06,0-.33Z"/><path d="M68.12,77.12c0,.28-.18.45,0,.26S68,77.06,68,77.1s0,0,0-.1c.09-.35-.06-.31.44,0l.06.07c.25.55-.21.74-.46.41a1.06,1.06,0,0,0-.23-.16c-.13,0-.3-.29-.17-.49s.35-.18.33-.11a1,1,0,0,1,.16.3Z"/><path d="M69.09,75.34c0-.3-.09-.39,0-.33a.88.88,0,0,0,.16.17s0,0,0-.1c-.2-.28-.3-.16.26-.07l.09,0c.52.26.31.55,0,.4-.08,0-.13-.06-.14,0s0,.17,0,.25-.18,0-.31-.23Z"/><path d="M69.46,76.73c.3.09.4,0,.31,0a.44.44,0,0,0-.18.14s0,0,.08-.08,0-.23,0-.22,0,.19.22.35l.06.06a.34.34,0,0,1-.07.52.3.3,0,0,1-.37-.26c0-.09,0-.15-.07-.17a.83.83,0,0,1-.28,0c-.13-.08-.06-.33.26-.35Z"/><path d="M69.28,78.61c-.28-.17-.36-.2-.35-.28l.55.3c0-.06-.25-.21-.23-.09s.22.15.24.08,0-.11,0,0,0,.19.14.37l0,.08a.43.43,0,0,1-.48.39.51.51,0,0,1-.45-.46c-.06-.25.19-.42.24-.53s0-.4.18-.54l.51-.31,0,.61a.41.41,0,0,1-.35.43Z"/><path d="M70.64,77.89c.21-.22.22-.34.21-.26a.46.46,0,0,0,0,.23s0,0,0-.1c0-.34-.17-.29.26.1l.06.07c.28.52-.13.66-.29.32,0-.07-.07-.12-.1-.1a1.15,1.15,0,0,1-.16.2c-.1.06-.19-.1-.06-.38Z"/><path d="M71,77.5c-.3.06-.4.08-.33,0l.22-.07h-.1c-.31.06-.35.05.18-.1l.09,0c.55-.12.51-.09.21,0l-.1,0,.23,0c.07,0,0,0-.31.11Z"/><path d="M68.71,71.58c-.15-.3-.33-.33-.21-.15s.21-.09.16-.13-.09,0-.09.11.09.15.13.08.1-.26,0-.3-.19.07-.06.35v.08c-.1.27-.41.44-.74.09a.55.55,0,0,1,0-.66.4.4,0,0,1,.45-.11.56.56,0,0,0,.29.07.43.43,0,0,1,.46.07c.24.42-.1.65-.39.55Z"/><path d="M69.79,70.45c.3,0,.4,0,.34,0a1.34,1.34,0,0,0-.21.11s0,0,.11,0c.33-.06.34-.11-.07.28l-.07.06c-.5.25-.57.07-.31-.15.06,0,.1-.09.07-.1s-.17,0-.24,0,0-.13.29-.22Z"/><path d="M70.2,71.74c-.3-.09-.34-.28-.23-.31a2.33,2.33,0,0,1,.25.06s0,0,0-.13,0-.29.13-.32.25.13.24.42l0,.09c-.08.28,0,.39,0,.42s0-.08-.08-.21-.09-.09-.08-.06a.52.52,0,0,0,.17.15c.07,0,0-.08-.31-.1Z"/><path d="M71.29,69.72a.82.82,0,0,1,0,.35s-.05.07,0,0,.23-.37,0-.48-.15.13-.13.14.08,0,0-.11-.19-.05-.22,0,0,.22,0,.23,0,0,.06-.11v-.06s.08,0,.09,0,0,0,0-.09,0-.16,0-.12l-.07.05c-.08,0-.07-.16,0-.19a.26.26,0,0,1,.11-.1.31.31,0,0,1,.17,0l.08,0a.41.41,0,0,1,.31.1.54.54,0,0,1,.1.53.38.38,0,0,1-.41.28c-.14,0-.2-.08-.27-.06s-.14.22-.44,0-.06-.61.08-.63.14,0,.17,0a.78.78,0,0,1,.27.22Z"/><path d="M72.53,74.07c.29-.08.38-.14.31-.1a1.38,1.38,0,0,0-.17.15s0,0,.09,0c.27-.2.18-.3,0,.23l0,.09c-.31.48-.5.3-.32,0,0-.07.07-.12,0-.12a1.3,1.3,0,0,1-.23.07c-.09,0,0-.13.24-.26Z"/><path d="M73.41,74.93c-.24.23,0,.41,0,.3a.41.41,0,0,0-.07-.22s0,0,.1,0a.17.17,0,0,0,.14-.27c-.07,0-.31.06-.2.34l0,.09a.32.32,0,0,1-.5.26.36.36,0,0,1,.05-.56c.1-.06.17-.06.19-.11a.75.75,0,0,1,.07-.29c.13-.13.43.07.28.37Z"/><path d="M73,76.61c-.33,0-.34.2-.32.12a.26.26,0,0,0-.06-.23s-.07.06,0,.13.09.16.16,0a.32.32,0,0,0-.06-.31c-.05-.07-.09-.08-.09-.08a2.61,2.61,0,0,1,.2.47v.09a.54.54,0,0,1-.52.35A.51.51,0,0,1,72,77a.59.59,0,0,1-.11-.47.34.34,0,0,1,.37-.28.63.63,0,0,0,.29,0c.07,0,.16-.19.3-.22a.32.32,0,0,1,.22.57Z"/><path d="M73.89,76.25a.92.92,0,0,0,0,.35s0,0-.16-.21h0l0-.24a.67.67,0,0,1,.3-.25c.06,0,.08.14,0,.47l0,.08c-.16.29-.26.38-.32.35a.7.7,0,0,1-.07-.39l0-.24h0c-.09-.22,0-.31.07-.33s.21,0,.26.31Z"/><path d="M73.68,78.25c-.23-.09-.26-.22-.24-.31a.13.13,0,0,0,0,.17s.2.15.29,0c0,.15.2.09.18.17l.07.12s-.12,0-.45-.1l-.09,0c-.26-.18-.29-.36-.22-.44a.58.58,0,0,1,.19,0s.31-.06.35,0c.14-.12.34,0,.38.13a.32.32,0,0,1,0,.33,1.08,1.08,0,0,0-.39-.06Z"/><path d="M81.45,85.33c-.26.16-.32.25-.3.17a.5.5,0,0,0,.08-.21s0,0-.09.06c-.19.29-.06.33-.21-.22V85c0-.58.39-.51.4-.14,0,.08,0,.14.05.13s.14-.11.21-.14.14.15-.06.39Z"/><path d="M80.09,83.41c.27-.15.29-.29.22-.25a1.09,1.09,0,0,0-.15.18s0,0,0-.1c.1-.33-.21-.35,0,.19l0,.09c.14.56-.22.53-.17.19,0-.08,0-.13,0-.12a.73.73,0,0,1-.18.16c-.09,0-.08-.13.17-.3Z"/><path d="M80.79,82.28c0-.3.09-.4.11-.32s0,.19,0,.23,0,0,0-.1c.08-.31.15-.34.16.22v.08c-.11.56-.16.51-.2.19,0-.08,0-.13,0-.1s0,.16-.06.22,0,0-.06-.33Z"/><path d="M82.86,74.31a4.91,4.91,0,0,1,.91,2,6.51,6.51,0,0,0,.16,1.09,2.9,2.9,0,0,0,.54.93c.48.55.92,1,1.4,1.56A5.32,5.32,0,0,1,87,81.82l-.07.05a11.18,11.18,0,0,1-1.76-1.34,4.84,4.84,0,0,1-1.13-2,5.92,5.92,0,0,0-.37-1c-.17-.33-.42-.63-.6-1a4,4,0,0,1-.28-2.2Z"/><path d="M80.87,76.53a.77.77,0,0,0,0-.36.82.82,0,0,0,.17.21h0l.23.13a1.66,1.66,0,0,1,.32.23c0,.06-.12.1-.45.2H81.1c-.32,0-.44-.16-.42-.26a.52.52,0,0,1,.35-.22l.23.13h0c.08.23,0,.34-.12.36s-.24-.06-.28-.33Z"/><path d="M81.94,77.76c-.1.29-.13.38-.21.38s-.11-.1-.18-.15-.11,0-.13,0l0-.27a1,1,0,0,1,.41-.11c.07,0,.09.19.18.5l0,.09c-.16.28-.39.35-.55.29a.52.52,0,0,1-.24-.51v-.28h0c.07,0,.13,0,.16-.1s0-.22.11-.26.31,0,.43.29Z"/><path d="M82.92,78.51c-.2.31.34.39.27.08a.15.15,0,0,0-.22,0s0,0,.12,0c.34-.1.4-.08.09.41l-.06.07c-.48.29-.6.11-.43-.19,0-.08.06-.14,0-.17a.39.39,0,0,1-.26-.2c-.07-.44.67-.47.56,0Z"/><path d="M83.69,79.86c-.19.24-.2.35-.16.28a1.23,1.23,0,0,0,.06-.22s0,0,0,.1c-.06.33.14.33-.1-.19l0-.08c-.14-.55.15-.56.19-.22,0,.08,0,.13,0,.11a1.32,1.32,0,0,1,.13-.2c.08,0,.11.08,0,.35Z"/><path d="M82.71,81.06c-.17-.3-.27-.34-.17-.35s.2.06.24.05.18.11.24.1.2.13.2.15a1,1,0,0,0-.39.22l-.08,0a.42.42,0,0,1-.49-.31.41.41,0,0,1,.36-.38.46.46,0,0,1,.26,0c.11,0,.16.13.18.16a3.48,3.48,0,0,1,.17.31c0,.15-.2.26-.46.12Z"/><path d="M84.49,81c.08.33.36.2.27.14a.33.33,0,0,0-.22,0s0,0,.09,0,.14-.18.14-.18a1.71,1.71,0,0,0-.14.41l0,.08c-.16.24-.27.31-.37.3a.28.28,0,0,1,0-.37c0-.09.08-.13,0-.16s-.17-.08-.22-.17.27-.35.43,0Z"/><path d="M84.63,83c-.32,0-.33.21-.27.13a.3.3,0,0,0,.07-.21s-.05,0-.05.09c0,.32.06.34-.38,0l0-.07c-.21-.54.12-.68.41-.37.07.07.1.13.15.12s.17-.12.27-.12.26.36-.06.48Z"/><path d="M83.59,83.87a.63.63,0,0,1,.2-.31l0,.73s.09,0,.06,0a.19.19,0,0,0-.17-.1c-.13,0,.08.15.18.09s.14,0,.13,0,0,.19-.1.45l0,.08a.54.54,0,0,1-.52.1c-.13,0-.18-.25-.16-.43s.27-.3.21-.44a.48.48,0,0,1,0-.32.28.28,0,0,1,.31-.15l0,.72a.76.76,0,0,1-.16-.33Z"/><path d="M84.53,85.42c-.1-.29-.13-.39-.08-.33l.11.2s0,0,0-.1c-.1-.31-.08-.35.17.14l0,.09c.19.52.14.5,0,.22,0-.06-.07-.11-.06-.08l.06.22c0,.08,0,0-.17-.28Z"/><path d="M85.44,83.81l-.26-.2.2.11s0,0-.08-.06c-.25-.2-.28-.23.2.07l.07,0c.46.32.42.31.14.15l-.09-.05.19.14s0,0-.29-.16Z"/><path d="M86.26,83.82c.31,0,.43,0,.38.05s-.16.12-.18.16.05,0,.13,0c.33,0,.39,0,0,.4l-.07.05c-.53.18-.58,0-.33-.25,0-.06.09-.11,0-.13s-.18,0-.25,0,0-.14.23-.28Z"/><path d="M87.66,85.06c-.14.27-.2.35-.17.28l.1-.2s0,0,0,.08c-.16.28-.18.31.06-.19l0-.08c.26-.49.26-.46.12-.16l0,.09.11-.2c0-.07,0,0-.13.3Z"/><path d="M78,68.31c0-.36-.42-.15-.3-.1a.33.33,0,0,0,.23,0s0,0-.09,0-.21.11-.26,0a.38.38,0,0,1,.33-.37H78a.42.42,0,0,0,.39-.16.58.58,0,0,1-.12.24c0,.08-.09.12,0,.15s.17.07.22.15-.32.42-.44.06Z"/><path d="M77.31,66.65c.16-.26.23-.34.22-.26l-.07.22s0,0,.08-.07c.19-.26.25-.27,0,.25l0,.08c-.3.47-.33.42-.23.11,0-.07,0-.12,0-.11s-.09.14-.13.19,0,0,.07-.33Z"/><path d="M78.59,66.43c.3-.17,0-.41,0-.25s.14.14.17.12,0-.08-.09-.11c-.35-.12-.33,0,0-.57l.07-.06c.58-.22.8.29.48.6-.08.08-.13.14-.13.22s.1.23,0,.39-.74.07-.56-.31Z"/><path d="M78.72,65c0,.3,0,.4,0,.33v-.23s0,0,0,.1c0,.32,0,.35-.06-.2v-.09c0-.56,0-.52.06-.21,0,.08,0,.13,0,.1v-.23c0-.07,0,0,0,.34Z"/><path d="M64.72,60.82c.29-.11.4-.12.35,0a1.45,1.45,0,0,0-.18.16s0,0,.12,0c.32-.08.39,0-.07.3l-.07,0c-.53.2-.54.11-.29-.11.06,0,.09-.09.06-.1s-.17,0-.23.06,0-.08.23-.26Z"/><path d="M65.57,62.29c-.2.25-.24.39-.13.28s-.08-.22-.11-.2,0,0,.09,0,0-.23,0-.24a.64.64,0,0,1,.44.32v.09c-.06.32-.08.44-.21.52a.5.5,0,0,1-.6-.32,2.46,2.46,0,0,0-.06-.33.44.44,0,0,1,0-.47c.31-.22.51,0,.52.3Z"/><path d="M67,63.1c.09.32.35.22.27.15a.34.34,0,0,0-.22-.06s0,0,.09,0c.35-.11.26-.29,0,.22l0,.07c-.41.4-.61.11-.36-.1,0-.08.1-.11.07-.15s-.16-.08-.21-.17.26-.31.42,0Z"/><path d="M67.91,62.24c-.3,0-.41,0-.33,0h.13c-.32,0-.36,0,.2,0H68c.56,0,.52,0,.2,0h.13c.07,0,0,0-.33,0Z"/><path d="M68.68,63.46c.3-.05.41-.06.35,0a1.34,1.34,0,0,0-.21.11s0,0,.11,0c.32,0,.38,0-.14.24l-.08,0c-.55.1-.54,0-.25-.12.07,0,.11-.07.08-.08l-.23,0c-.08,0,0-.07.29-.19Z"/><path d="M69.22,64.23c.3-.07.35-.19.29-.14a.55.55,0,0,0-.14.18s0,0,.07-.08.06-.22,0-.22-.06.16.07.42l0,.08c0,.29-.06.42-.16.46s-.2-.1-.19-.29,0-.14,0-.13a1.94,1.94,0,0,1-.24.1c-.11,0-.1-.2.17-.34Z"/><path d="M70.38,64.29c-.3-.09-.4-.13-.33-.17a1.37,1.37,0,0,0,.23,0s0,0-.1-.07c-.32-.09-.35-.11.2-.28h.09c.56,0,.52.19.2.3-.08,0-.13,0-.1.07a1.3,1.3,0,0,0,.23.1c.07.06,0,.12-.33.12Z"/><path d="M69.68,62.87c-.22-.2-.29-.28-.22-.25l.19.13s0,0-.06-.09c-.22-.23-.23-.28.23.05l.06,0c.41.39.36.39.09.22-.06,0-.11-.07-.09,0l.16.17c0,.06-.05,0-.29-.17Z"/><path d="M69.75,61.56c.27-.13.37-.17.3-.13l-.2.11.1,0c.29-.13.32-.14-.17.12l-.08,0c-.5.24-.48.21-.19.06l.08,0-.21.09.29-.16Z"/><path d="M71.21,62.26c.08.31.11.41.12.27a.24.24,0,0,0-.22-.08s0,0,.06-.08c.2-.3.12-.32.48.15l0,.08c0,.61-.47.63-.65.24a.8.8,0,0,0-.18-.23.48.48,0,0,1-.23-.35c.07-.34.33-.27.55-.08Z"/><path d="M71.94,63.79c.11-.29.1-.4.14-.33s.08.19.12.21,0,0,0-.12c0-.35-.17-.28.37-.07l.08,0c.4.45.07.7-.23.48-.08,0-.13-.09-.16,0s0,.18-.09.25-.24,0-.27-.32Z"/><path d="M73.09,62.35c0,.31-.25.38-.3.25a1.33,1.33,0,0,1,0-.26s0,0-.14-.05a.25.25,0,0,1-.23-.32c.07-.11.28-.19.49,0l.05.07c.16.25.32.23.38.19s0-.16-.23-.13-.11.05-.09,0a.35.35,0,0,0,.12-.19c0-.09-.15,0-.1.3Z"/><path d="M72.27,61.09c-.24.2-.38.2-.36.1s.13-.16.15-.2,0,0-.13,0c-.34,0-.42-.27.15-.33h.09c.56.1.51,0,.22.13-.07,0-.1.08-.07.07a.62.62,0,0,0,.2-.1c.07,0,0,0-.19.27Z"/><path d="M64.9,53.11c-.06-.21-.11-.29-.12-.35l0,.45c.06.11.17.14.2.07s0-.12-.1-.14,0,.21.1.28.11.15-.16.61l-.08,0a.48.48,0,0,1-.49-.77c.14-.17.34-.21.39-.38s0-.26.16-.37a.42.42,0,0,1,.54.15l.23.32-.19.12a.46.46,0,0,1-.46,0Z"/><path d="M66,52.26c0,.3.11.39.06.33a1.36,1.36,0,0,0-.16-.17s0,0,0,.11c.18.28.28.2-.27,0l-.08,0c-.48-.33-.28-.54,0-.37.08,0,.13.06.13,0a2.42,2.42,0,0,1,0-.24c0-.1.16,0,.29.23Z"/><path d="M66.19,54.8a.82.82,0,0,1-.38.05c-.08,0-.2-.08-.09-.06s.26-.1.22-.14-.08,0-.1,0,0,.13.08.18a1,1,0,0,1,.35.21c0,.11,0,.26-.08.59l-.06.06a.72.72,0,0,1-.69-.17.57.57,0,0,1,0-.66.8.8,0,0,0,.14-.3c0-.06,0-.1,0-.24s.32-.24.43-.19c.26.08.23.15.27.25a.68.68,0,0,1,0,.39Z"/><path d="M66.9,54.24c.25.17.33.23.26.2L67,54.35s0,0,.08.07c.26.18.28.22-.22,0l-.07,0c-.47-.31-.42-.32-.14-.18.07,0,.12.06.1,0l-.19-.14c-.05-.05,0,0,.31.14Z"/><path d="M67.55,56c0,.34.24.3.13.3s-.2,0-.22.06,0,.09.13.1a.74.74,0,0,1,.32.09c0,.09-.23.12-.08.42l0,.08c-.1.38-.6.25-.67.13a.42.42,0,0,1,0-.52c0-.1.07-.18,0-.25s-.18-.15-.22-.29a.33.33,0,0,1,.59-.2Z"/><path d="M67.74,51.5c.21.22.28.29.22.24l-.16-.15.07.07c.22.23.24.26-.16-.13l-.06-.06c-.39-.4-.36-.38-.13-.16,0,.06.09.09.07.07l-.16-.17.24.23Z"/><path d="M70.9,54.65c.07-.18.11-.27.13-.31s0,0,0,.1,0,.17,0,.12,0-.08.1-.22L70.7,55c-.11.06-.08,0-.07,0a2.65,2.65,0,0,1,.28-.3l.07,0a2.54,2.54,0,0,1,.36-.21s.09,0,0,.08l-.43.63a.69.69,0,0,0,0-.24s0,0-.06.11-.06.13-.06.08a2.35,2.35,0,0,1,.06-.33Z"/><path d="M70.56,44.41c.14.15.06.09.11.14l0,.08s0,0,.06.06,0,0,.08-.08l0-.31-.25-.15H70.5l-.1,0c-.07,0,0,0-.05,0l0,0h0l-.09.11c.19.09.21.08.24.07s-.18-.15-.2-.19-.08-.1,0-.07a2.77,2.77,0,0,1,.37.16l.07,0a2.36,2.36,0,0,1,.31.26c.06.06,0,0-.06,0s-.25-.11-.25-.09,0,0,.17.17l-.09.11s0,0,0,0l-.06,0,0,0-.1,0h-.08l-.25-.16,0-.3c.06-.12.06-.08.08-.09a.24.24,0,0,1,.09,0l.08.05c.05,0,0,0,.13.12Z"/><path d="M70.94,43.33c.18-.24.24-.33.21-.26l-.12.2.07-.08c.19-.25.22-.28-.07.2l0,.07c-.33.46-.32.42-.16.14,0-.07.07-.11.05-.09l-.14.19s0,0,.16-.29Z"/><path d="M71.76,44.52H72c.32,0,.36,0-.2,0h-.09c-.55,0-.52,0-.2,0h.29Z"/><path d="M78.89,52.79c.23-.21.31-.27.26-.21l-.15.17s0,0,.09,0c.24-.21.29-.22-.09.2l-.06.06c-.42.38-.41.33-.2.09.05-.06.08-.1.06-.09l-.18.15c-.06,0,0,0,.21-.26Z"/><path d="M75.52,55.5a1.08,1.08,0,0,1,0-.36c0-.08.11.1.17.18s0,0,0-.17a.41.41,0,0,1,0-.19l.47-1,.17,1.39c0,.14-.17.34-.46.24l-.08-.05c-.28-.2-.45-.1-.41,0l.63.38a.31.31,0,0,1-.14-.13c-.07-.1-.14-.2-.14-.1s0,.29,0,.24-.1-.09-.21-.3Z"/><path d="M76.9,56.39c.2.24.29.3.21.28a.46.46,0,0,0-.22,0s0,0,.09,0,.19-.17.14-.2-.28.11-.12.37l0,.09c0,.32-.32.41-.47.32a.34.34,0,0,1-.06-.51c.07-.07.12-.1.1-.15a1.37,1.37,0,0,1-.18-.21c0-.13.14-.18.41,0Z"/><path d="M78.61,57.59c-.14-.27-.19-.36-.11-.33a1.08,1.08,0,0,0,.21.11s0,0,0-.12c-.2-.26-.24-.26.31-.14l.09,0c.47.32.32.51,0,.4-.08,0-.13,0-.13,0a1.78,1.78,0,0,0,.09.23c0,.1-.13.08-.35-.13Z"/><path d="M80.1,56.37c0-.3,0-.4,0-.33l0,.23s0,0,0-.1c0-.32,0-.36.08.2v.09c0,.56-.05.52-.08.2,0-.07,0-.12,0-.1l0,.23c0,.08,0,0,0-.33Z"/><path d="M77.05,51.12c.06-.26.07-.33.08-.36s0,0,.11.26l0,.12.12,0a2.25,2.25,0,0,0,.36,0,2.89,2.89,0,0,0-.4.21l-.08,0c-.3.09-.45,0-.45,0a.42.42,0,0,1,.3-.23l.16.13c0,.23-.06.28-.11.28s-.13-.1-.14-.36Z"/><path d="M78.61,50.85c-.22.21-.29.28-.24.22l.16-.16s0,0-.08.06c-.23.22-.26.25.13-.15l.07-.07c.39-.39.37-.35.15-.13l-.07.08.17-.16-.23.24Z"/><path d="M79.26,52c.28.15.41,0,.32,0a.52.52,0,0,0-.22.07s0,0,.08-.06.09-.22,0-.24-.19.15,0,.41l0,.09a.3.3,0,0,1-.24.42c-.12,0-.19-.16-.12-.33s.06-.13,0-.14a.79.79,0,0,1-.26,0c-.11-.08,0-.3.33-.22Z"/><path d="M80.27,51.3a1.19,1.19,0,0,1,.29.23s0,0-.26-.09l-.07-.2a.74.74,0,0,0,.1-.34,1.29,1.29,0,0,0,.06.44l0,.09c0,.32-.09.45-.17.43a.47.47,0,0,1-.11-.36l0-.14-.09-.06c-.19-.13-.21-.17-.2-.18a1,1,0,0,1,.33.14Z"/><path d="M80.7,53.14c0,.26,0,.33-.09.36s-.06,0-.1-.26L80.6,53a.65.65,0,0,0,.23-.25,1.19,1.19,0,0,0,0,.43v.09c-.08.33-.26.42-.35.36a.4.4,0,0,1,0-.43L80.5,53v0c0-.23.06-.27.09-.27s.07.1.11.36Z"/><path d="M81.9,54.4c.18-.25.22-.35.2-.27a1.2,1.2,0,0,0,0,.23s0,0,.06-.09c.12-.31,0-.35.13.21v.09c0,.56-.24.51-.24.18,0-.08,0-.14,0-.12l-.14.2c-.07.05-.09-.07,0-.35Z"/><path d="M83.42,54.14c.25-.18.26-.31.21-.25a.69.69,0,0,0-.09.21s0,0,0-.09c.08-.34-.2-.32.1.17l0,.08c.2.55-.19.59-.23.23,0-.08,0-.13,0-.11s-.1.13-.17.17-.13-.13.08-.35Z"/><path d="M83.54,54.12c.07-.29.1-.39.1-.31l0,.22s0,0,0-.09c.08-.31.11-.34,0,.21l0,.09c-.13.54-.15.5-.11.18,0-.08,0-.12,0-.1l-.06.22c0,.07,0,0,0-.33Z"/><path d="M82.93,52.31c0,.31,0,.41,0,.33v-.13c0,.32,0,.36,0-.2v-.09c0-.55,0-.52,0-.2v-.13c0-.07,0,0,0,.33Z"/><path d="M84.11,54.15a.16.16,0,0,0-.28.09h0l.49,0c0-.26-.15-.19-.15-.17s.18-.14.15-.21-.06-.12,0-.07l.26.35,0,.08a.54.54,0,0,1-.15.46c-.07.11-.27,0-.4-.05s-.12-.4-.15-.49a.7.7,0,0,1,0-.55l.5,0h0a.4.4,0,0,1-.17.53Z"/><path d="M77,45.15c.26,0,.34.05.36.08s0,0-.25.06l-.1-.13c.07-.17,0-.27,0-.32s-.07.16.19.36l.07.07c.2.27.09.49,0,.5a.37.37,0,0,1-.29-.34V45.3h-.09c-.22,0-.27,0-.26-.07a1.13,1.13,0,0,1,.36-.07Z"/><path d="M77.89,44.61c.3.06.39.09.32.1H78s0,0,.09,0c.32.07.35.11-.21.06h-.09c-.55-.11-.51-.14-.18-.13.07,0,.12,0,.1,0l-.22-.06q-.12,0,.33,0Z"/><path d="M77.83,46.28c.27.16.41,0,.32,0a.4.4,0,0,0-.23,0,.3.3,0,0,0,.08-.07c.1-.15,0-.26,0-.26s-.14.17,0,.42l0,.08c.09.27-.06.43-.19.45a.26.26,0,0,1-.19-.35c0-.08,0-.13,0-.15a.69.69,0,0,1-.25-.06c-.1-.09,0-.27.35-.17Z"/><path d="M78.66,47.05c.08.29.16.37.14.29a.81.81,0,0,0-.17-.16s0,0,.07-.11a.2.2,0,0,0-.19-.28s0,.15.23.35l.05.07a.4.4,0,0,1,0,.51.36.36,0,0,1-.46-.34c0-.13,0-.18,0-.25a1,1,0,0,1-.1-.29c0-.15.21-.13.38.13Z"/><path d="M80.15,44.16c.3,0,.38-.12.31-.1a.87.87,0,0,0-.2.12s0,0,.09-.06c.25-.21.07-.36,0,.2l0,.09c-.22.53-.49.34-.3.05,0-.07.08-.11,0-.11a2.14,2.14,0,0,1-.23,0c-.09,0,0-.15.27-.23Z"/><path d="M81.42,43.32c.26-.17.34-.25.29-.19l-.15.17s0,0,.08-.07c.23-.23.18-.29,0,.23l0,.09c-.29.47-.4.34-.24.06,0-.07.07-.11,0-.1l-.2.13c-.08,0,0-.08.19-.27Z"/><path d="M81.21,45.06a.87.87,0,0,1,.28.18l-.22-.44c.06-.11,0,.05,0,.21s.09-.08.11-.19,0-.15.28.27l0,.08c.09.49-.15.57-.29.38s-.11-.31-.19-.21-.21.28-.24.14L80.79,45a1.19,1.19,0,0,1,.34,0Z"/><path d="M83,43.12c0,.32.11.39.06.32s-.1-.18-.15-.18,0,0,.1,0-.09-.39,0-.35.18.18.11.48l0,.07c-.16.25-.08.38-.2.4s-.46-.24-.3-.52c.07-.11.13-.13.13-.19a.86.86,0,0,1,0-.29c0-.11.25-.08.36.21Z"/><path d="M83.09,44.7c0,.31.12.39.08.31a.49.49,0,0,0-.14-.17s0,0,.06.08.22.09.22.06-.15-.09-.42,0l-.08,0c-.3,0-.42-.11-.44-.22s.13-.2.31-.17.14,0,.14,0a1.31,1.31,0,0,1,0-.25c0-.12.24-.07.31.23Z"/><path d="M82.59,46.26c.08.39.47.07.32.08a.43.43,0,0,0-.22,0s0,0,.1,0,.2-.12.2-.13-.13.11-.16.4l0,.09c-.14.26-.33.29-.45.24a.28.28,0,0,1,0-.39c.05-.07.09-.12.05-.15s-.18-.06-.24-.12,0-.22.1-.27a.6.6,0,0,1,.22-.05c.09,0,.23.1.17.19Z"/><path d="M83.69,46.38a6.65,6.65,0,0,1,1.46.76,2.73,2.73,0,0,0,.66.5,1.54,1.54,0,0,0,.83,0,1.05,1.05,0,0,1,1,.39,2,2,0,0,0,.51.43,15.47,15.47,0,0,0,1.41.75v.09a2.19,2.19,0,0,1-1.89,0,1.74,1.74,0,0,1-.69-.75c-.13-.21-.12-.28-.41-.41a5.2,5.2,0,0,0-.85-.26,6.24,6.24,0,0,1-.93-.12,1.87,1.87,0,0,1-1.18-1.37Z"/><path d="M87.68,80c.24-.19.29-.28.25-.22a2.19,2.19,0,0,0-.11.2s0,0,.07-.07c.17-.29.06-.35.07.22v.09c-.11.55-.33.46-.26.13,0-.08,0-.13,0-.11a1.58,1.58,0,0,1-.18.15c-.08,0-.08-.09.12-.33Z"/><path d="M88.66,79.72c.28.12.37.17.29.2a2.18,2.18,0,0,0-.24,0s0,0,.09.08c.29.15.3.24-.25.17l-.09,0c-.52-.21-.47-.27-.14-.27.08,0,.13,0,.11,0l-.21-.11c-.06,0,0-.06.35,0Z"/><path d="M88.14,81.81c.3-.11.23-.33.17-.25a.4.4,0,0,0,0,.22s0,0,0-.1c-.05-.36-.2-.31.26,0l.06.06c.31.47,0,.62-.18.36-.07-.06-.1-.1-.14-.07s-.09.15-.18.19-.29-.22,0-.42Z"/><path d="M87.78,70.42c.18.26.26.33.21.27a.38.38,0,0,0-.22,0s0,0,.08-.05-.3-.28-.23-.26c-.15.11.43-.09.44.33l-.06.07c-.12.32.33.26.07.45-.09,0-.09.06-.32,0a.28.28,0,0,1-.26-.3c0-.12,0-.18,0-.24s-.17-.14-.2-.25.16-.22.43-.08Z"/><path d="M88.16,72.59c.21.26.26.38.15.44s-.2-.09-.23-.06,0,0,0-.1-.28-.15-.26.1.35.07.23-.21l0-.09c.1-.34.63-.28.74.13s-.41.74-.66.56-.19-.17-.29-.25a.64.64,0,0,1-.2-.38c0-.15.15-.23.46-.18Z"/><path d="M89.27,70.06c.24-.19.41-.19.42-.06s-.08.2-.08.25.07.06.16,0c.37,0,.54.24,0,.56l-.09,0c-.58,0-.55,0-.35-.3,0-.07.06-.13,0-.14a.7.7,0,0,0-.23.08c-.1,0-.05-.1.07-.38Z"/><path d="M89.62,72.46A1.66,1.66,0,0,1,90,73.75c-.06.21-.19.44-.24.61s.15.28.28.3.24-.1.24-.14a1.77,1.77,0,0,0,.05-.3c0-.26.28-.58.1-1l0-.09a.68.68,0,0,1,.67.45,1.47,1.47,0,0,1,.14.81,1,1,0,0,1-.5.8.79.79,0,0,1-1-.11,1.12,1.12,0,0,1-.34-.74,2.37,2.37,0,0,0-.22-.65,1.6,1.6,0,0,1,.32-1.24Z"/><path d="M91.56,74.72c.28-.13.33-.24.28-.18a.68.68,0,0,0-.14.18s0,0,.07-.07c.18-.29,0-.36,0,.21V75c-.06.57-.37.47-.29.13,0-.08,0-.13,0-.12s-.14.1-.21.12-.08-.13.16-.32Z"/><path d="M91.71,77.16c-.31.08-.25.31-.18.24a.34.34,0,0,0,.06-.22s0,0,0,.09.24.1.25,0-.14-.16-.41,0l-.08,0c-.3,0-.42-.17-.41-.32a.31.31,0,0,1,.43-.16c.09,0,.13.09.18.06s.11-.16.2-.19.29.26,0,.43Z"/><path d="M90.25,81.82c.31,0,.34-.24.24-.21s-.15.13-.17.16,0,0,0-.11-.21-.19-.26-.13,0,.26.3.29h.09c.29.08.32.3.25.41a.24.24,0,0,1-.38-.08c0-.08,0-.14-.09-.12a1.06,1.06,0,0,1-.22.13c-.14,0-.13-.26.17-.34Z"/><path d="M89.92,83.79c.11-.29.14-.4.15-.33a.79.79,0,0,0,0,.23s0,0,0-.1c.07-.32,0-.35.22.2l0,.09c0,.55-.16.53-.25.2,0-.08,0-.13-.06-.1s-.06.16-.1.23-.11,0-.08-.33Z"/><path d="M91.06,82.43c.21-.22.24-.33.19-.27a1.31,1.31,0,0,0-.1.21s0,0,0-.1c.1-.31-.08-.35,0,.2l0,.09c0,.57-.21.52-.18.19,0-.08,0-.13,0-.12a1.73,1.73,0,0,1-.15.19c-.07,0-.08-.09.11-.33Z"/><path d="M91.32,84.14c0,.35.41.21.29.07a.22.22,0,0,0-.24-.06s0,0,0-.1-.11-.23-.09-.24a.85.85,0,0,0,.23.36l.06.08c.11.26.06.41,0,.48a.29.29,0,0,1-.35-.22c0-.09,0-.15-.08-.18a.37.37,0,0,1-.29-.18c-.11-.23.37-.47.47-.1Z"/><path d="M92.34,83.18a2.36,2.36,0,0,0,.34,0,.8.8,0,0,0-.23,0s0,0,.1,0c.32,0,.32-.15-.19.11l-.08,0c-.52.18-.53,0-.22-.09.08,0,.12,0,.1,0l-.23,0c-.08,0,0-.08.32,0Z"/><path d="M92.25,85c-.29-.11-.41,0-.33,0a.75.75,0,0,0,.23,0l-.09,0c-.14.09-.16.17-.13.2s.19-.06.27-.33l0-.09c.12-.27.27-.31.36-.29s.06.17-.08.29-.1.08-.07.09a1.2,1.2,0,0,1,.24,0c.08,0,0,.18-.34.1Z"/><path d="M95.31,84c0-.31,0-.41,0-.34a1,1,0,0,0,.06.22s0,0,0-.11c-.06-.32-.13-.32.18.16l0,.08c.22.51.06.53-.09.24,0-.07-.06-.12-.07-.09v.24c0,.08-.09,0-.12-.31Z"/><path d="M97,84.59c.17.26.35.22.3.13a.62.62,0,0,0-.2-.12s0,0,.11,0,.22-.13.18-.19-.23-.07-.39.17l0,.08c-.17.23-.35.21-.42.16s0-.18.18-.23.13,0,.11,0a.92.92,0,0,1-.2-.14c0-.09.15-.14.33.11Z"/><path d="M97.94,84.78l.37,0L98,84.48c-.07.21,0,.24,0,.26s-.09-.2-.15-.21-.14,0-.08,0,.13.12.38.09h.09a.35.35,0,0,1,.35.27c0,.12-.1.17-.19.19S98.1,85,98.06,85a1.37,1.37,0,0,0-.19.28L97.55,85l.31-.21Z"/><path d="M95.61,83.11c-.18-.28-.39-.1-.28-.09a.31.31,0,0,0,.21-.08s0,0-.09,0-.11.19-.14.19,0-.16-.08-.45v-.09c.09-.28.18-.38.3-.4a.32.32,0,0,1,.22.36c0,.11,0,.17,0,.2a.62.62,0,0,1,.28.11c.13.13-.12.46-.4.27Z"/><path d="M93.62,81.59c-.09-.29-.15-.37-.1-.32a.88.88,0,0,0,.16.17s0,0-.05-.1c-.18-.27-.27-.21.25,0l.08,0c.46.33.3.49,0,.31-.07,0-.12-.06-.12,0l.08.23c0,.09-.12,0-.27-.23Z"/><path d="M93.34,80c.29,0,.32-.16.27-.18s-.19.29-.17.18-.22-.19-.27-.11-.07.2.08.23l.54.11a1.56,1.56,0,0,1-.26-.21l-.06-.07a1.67,1.67,0,0,1-.12-.31l0-.2.58.31a.32.32,0,0,1,.09.5c-.09.16-.37.12-.48.06s-.26.21-.43.1a.25.25,0,0,1,.18-.42Z"/><path d="M94.87,80.43c.3,0,.4,0,.33,0l-.23,0s0,0,.1,0c.32,0,.35.07-.2.11h-.09c-.56,0-.53-.08-.21-.11.08,0,.13,0,.11,0l-.23,0c-.08,0,0,0,.33,0Z"/><path d="M94.92,81.4c-.06-.29-.08-.4,0-.33l.07.22s0,0,0-.1c0-.31,0-.35.11.18l0,.09c.12.55.09.52,0,.21,0-.08,0-.12,0-.09l0,.22c0,.08,0,0-.11-.31Z"/><path d="M95.36,79.26c-.09-.29-.12-.39-.09-.32l.09.21a.42.42,0,0,1,0-.1c-.08-.3-.08-.34.11.18l0,.08c.16.54.13.51,0,.21l0-.09.06.22c0,.07,0,0-.13-.31Z"/><path d="M95.3,79.19c-.29-.07-.38-.14-.3-.15l.24,0s0,0-.08-.07c-.28-.18-.22-.34.23,0l.06.06c.43.38.46.28.16.16-.07,0-.12,0-.1,0l.21.08c.07,0,0,0-.33-.06Z"/><path d="M96.58,80.3c.1-.15.1-.23.08-.28s0,0,0,0a.15.15,0,0,0-.13.12c0,.11.13.25.2.24s.09,0,.14.1.15,0,.17.07.06.06.05.08-.17,0-.47.08h-.09c-.27-.09-.35-.23-.36-.36s.06-.1.1-.14a.35.35,0,0,1,.3-.11.78.78,0,0,1,.35.07.4.4,0,0,1,.19.45.3.3,0,0,1-.22.18.27.27,0,0,1-.15-.05.31.31,0,0,1-.15-.33Z"/><path d="M97,82.15l-.33.17s.22-.18.2-.18-.17.13-.21.16,0,.07,0,0h.54c.07-.22-.13-.36-.25-.3l-.08,0a.3.3,0,0,1-.21-.45h.54s0,0,0,.11S97,82,97,82s.28-.15.27-.1,0,.11-.26.25Z"/><path d="M97.8,82.21c-.27.13-.36.17-.3.13l.2-.11-.09,0c-.29.13-.33.14.16-.12l.09,0c.5-.24.47-.21.19-.06l-.09,0,.21-.1c.07,0,0,0-.29.17Z"/><path d="M96.45,73.23c.26-.17.32-.26.24-.22a.37.37,0,0,0-.09.21s0,0-.11,0a.14.14,0,0,0-.21.09.35.35,0,0,0,.22.4c.37,0,.27-.22.06-.37l-.06-.06c-.15-.22-.15-.52.32-.48a.47.47,0,0,1,.31.52.29.29,0,0,1-.27.23.66.66,0,0,0-.25,0,.68.68,0,0,1-.24.18c-.17,0-.17-.16,0-.4Z"/><path d="M96.8,75c.1.28.22.37.2.2s-.22-.15-.24-.11,0,0,0-.11c.07-.34-.06-.31.37.07l.05.07c.21.56-.19.68-.41.36a.37.37,0,0,0-.19-.16.37.37,0,0,1-.31-.3c0-.3.26-.31.48-.1Z"/><path d="M97.57,74.25c.26-.19.33-.26.29-.2a1.3,1.3,0,0,0-.13.19s0,0,.08-.07c.23-.23.2-.28,0,.26l0,.08c-.29.47-.4.35-.26,0,0-.07.06-.11,0-.1l-.2.13c-.08,0,0-.08.17-.29Z"/><path d="M97.81,75.68c-.27.16-.33.29-.16.25a.24.24,0,0,0,0-.25s0,0,.1,0a.15.15,0,0,0,.11-.24c-.06,0-.05.14-.06.44l0,.08c-.13.26-.26.35-.44.29s-.28-.42-.08-.57.14-.11.17-.19a.39.39,0,0,1,.22-.31c.3,0,.35.2.18.44Z"/><path d="M98.79,75.49c.3.05.4.08.33.11l-.24,0s0,0,.1,0c.31.08.35.14-.21.15h-.09c-.55-.1-.51-.15-.19-.18.08,0,.13,0,.1,0l-.22-.06c-.07,0,0,0,.33,0Z"/><path d="M98.06,77.48c.27.13.39.08.31.09a.65.65,0,0,0-.22.05s0,0,.1,0c.34-.1.18-.3,0,.24l0,.08c-.37.46-.65.12-.38-.13.06-.06.1-.1.07-.12a1.17,1.17,0,0,1-.25-.08c-.08-.08,0-.21.35-.16Z"/><path d="M98.92,78.14c.08-.3.12-.39.14-.31s0,.19,0,.23,0,0,.06-.09c.11-.31.16-.34.11.22v.09c-.15.54-.2.49-.19.17,0-.08,0-.13,0-.1s0,.15-.08.21,0,0,0-.34Z"/><path d="M98.61,80.22c-.22.21-.25.38,0,.26a.21.21,0,0,0,0-.27s0,0,.06-.09-.14-.26-.1-.24.19.08.34.34l0,.09c0,.29.06.4-.07.49s-.54,0-.51-.31a.77.77,0,0,0,0-.27.4.4,0,0,1,.08-.44c.34-.16.46.09.36.37Z"/><path d="M99.67,79.61c-.12.31.18.38.14.27a.32.32,0,0,0-.15-.17s0,0,.1,0,.22-.07.22-.07a3,3,0,0,0-.36.25l-.08,0c-.27.1-.39.09-.46,0a.26.26,0,0,1,.19-.3c.09,0,.14-.06.14-.1s-.09-.17-.08-.26.42-.12.37.22Z"/><path d="M99.49,81.14c.23,0,.22-.24.16-.28s-.24,0-.2.19l.21.34c-.07-.13,0,0,.06.1s.14.07.16,0L99.71,81s-.16.09-.13.4v.09a.35.35,0,0,1-.42.3l-.36-.14L99,81.2a.27.27,0,0,1,.29-.16c.16,0,.24.13.26,0l.2.34c0,.2-.26.36-.38.22a.24.24,0,0,1,.05-.43Z"/><path d="M100.58,80.48c.3,0,.4,0,.33,0l-.22.06s0,0,.1,0c.32,0,.37,0-.18.14h-.09c-.56,0-.53,0-.22-.09.08,0,.13,0,.1,0h-.23c-.08,0,0,0,.32-.09Z"/><path d="M100.5,82.13c.19.26.38.12.28.1a.33.33,0,0,0-.21.06s0,0,.06-.07-.11-.25-.16-.21,0,.26.3.25h.09a.34.34,0,0,1,.08.58.38.38,0,0,1-.54-.2c0-.1,0-.17-.08-.21a.61.61,0,0,1-.28-.12c-.12-.16.12-.45.41-.26Z"/><path d="M102.15,83.19c-.11-.29-.19-.37-.17-.28a.4.4,0,0,0,.19.13s0,0-.07.09a.14.14,0,0,0,.06.23.33.33,0,0,0,.42-.14c.08-.31-.13-.27-.35-.12l-.08,0c-.26,0-.51,0-.39-.42a.47.47,0,0,1,.55-.19.27.27,0,0,1,.19.31c0,.11-.06.16,0,.23s.13.16.14.27-.2.15-.4-.08Z"/><path d="M103.43,82.46c.25.16.36.18.29.15a.73.73,0,0,0-.22-.06s0,0,.1,0c.32,0,.34-.11-.19.09l-.09,0c-.55.12-.55-.13-.21-.16.08,0,.13,0,.1,0a1.16,1.16,0,0,1-.2-.12c-.06-.06.07-.09.34,0Z"/><path d="M103.67,83.75c.35,0,.33-.22.23-.13a.15.15,0,0,0,.06.2s0-.07-.07,0-.1,0-.08.11.17.23.31.2c.36-.11.39-.32.28-.52s-.2-.06-.18,0a.5.5,0,0,1,.12.35l0,.08a3,3,0,0,0-.23.26.41.41,0,0,1-.48-.17.52.52,0,0,1,.37-.82.43.43,0,0,1,.46.27.29.29,0,0,1,0,.28c-.09.16-.21.18-.26.25s-.12.25-.28.3a.33.33,0,0,1-.25-.6Z"/><path d="M104.61,82.29c.1-.29,0-.4,0-.32a.67.67,0,0,0,0,.22s0,0,0-.09c-.13-.32-.35-.14.18.09l.08,0c.48.33.18.59,0,.31-.06-.06-.09-.1-.1-.07s0,.17-.05.24-.18,0-.13-.33Z"/><path d="M104.27,79.53c-.15-.28-.36-.19-.29-.13a.61.61,0,0,0,.22.07s0,0-.1,0c-.32,0-.36,0,.18-.14l.09,0c.55-.05.53,0,.22.14-.07,0-.12,0-.1.06a.69.69,0,0,1,.21.14c.06.1-.19.23-.38,0Z"/><path d="M104.2,78.18c.18.19.28.2.31.18s0-.09-.24-.08l-.11-.14s0-.17,0-.19a.31.31,0,0,0-.14-.09c-.09,0-.09.27.25.33l.08,0c.33.14.27.45.13.49a.39.39,0,0,1-.24-.06c-.08,0-.12-.16-.14-.2L104,78.3h0c-.2,0-.24-.15-.19-.22s.17-.11.37,0Z"/><path d="M102.37,78.41a.12.12,0,0,0-.22-.08l0,.27c-.11.12,0,.22,0,0s0-.15,0-.1.1.09.18.05.1-.27,0-.33a.2.2,0,0,0-.22-.14c-.07,0-.08.15.12.36l.05.08a.39.39,0,0,1-.25.5.41.41,0,0,1-.39-.23c-.09-.1-.11-.42,0-.5.32-.16.37,0,.49-.2s.38,0,.35.16l.06.27c-.12.18-.33.1-.34,0Z"/><path d="M102.74,76.87c.25-.19.23-.34.15-.27a.32.32,0,0,0,0,.22s0,0-.09-.06-.37.17-.16.39.5-.07.28-.31l-.08,0c-.17-.31.29-.52.49-.32s0,.68-.17.62-.15,0-.19,0-.09.18-.18.23-.25-.15-.06-.4Z"/><path d="M101.05,77.77c-.3,0-.41,0-.33,0a.62.62,0,0,0,.2-.1s0,0-.09,0-.06.25,0,.26.23-.23,0-.41l-.07-.06A.3.3,0,0,1,101,77a.29.29,0,0,1,.23.38c0,.09-.06.13,0,.15a1.29,1.29,0,0,1,.25,0c.09.06,0,.14-.3.21Z"/><path d="M100.57,71.68a.46.46,0,0,1,.07-.37c-.07,0-.11,0-.11.12s.08.25.15.23,0,0,0,.09,0,.16,0,.18l.08-.79s-.11.08,0,.42v.09c-.09.36-.45.43-.6.23l-.53-.68.61-.11a.4.4,0,0,1,.4.12c.11.14.09.17.3.23s.19.26.16.38a.3.3,0,0,1-.25.23c-.09,0-.13-.11-.29-.29Z"/><path d="M101.57,70.62c.21.28.43,0,.3,0a.31.31,0,0,0-.21.08s0,0,0-.1,0-.23,0-.23.06.14.21.39l0,.08c.07.28,0,.41,0,.47a.29.29,0,0,1-.31-.24c0-.1,0-.16-.08-.17s-.2,0-.29,0,.08-.51.36-.28Z"/><path d="M102.27,72.28l-.35,0c-.06,0-.09,0,0-.09l.51,0c0-.17-.24-.1-.12-.07s.23-.11.17-.16-.06,0,.26.31l0,.09a.45.45,0,0,1-.2.44.37.37,0,0,1-.47-.07.42.42,0,0,1-.11-.52c.07-.12-.1-.24,0-.52v0l.5.07c.11,0,.13.13.12.22a.36.36,0,0,1-.21.3Z"/><path d="M103.29,70.66c.2-.23.16-.37.12-.3a.65.65,0,0,0,0,.23s0,0,0-.1-.11-.21-.14-.19,0,.19.3.3l.08,0c.23.17.23.35.18.44s-.22,0-.32-.11-.07-.12-.09-.09-.07.16-.12.22-.2-.1,0-.37Z"/><path d="M103.89,71.92c-.12.24.08.34.15.31s.13-.2-.09-.27c0,0,0,0,0,0l-.13-.15a1.23,1.23,0,0,0,.1-.33s0,.12.17.42l0,.09c0,.31-.05.45-.14.44a.42.42,0,0,1-.21-.31l-.13-.15s0,0,0,0a.23.23,0,0,1,0-.41.24.24,0,0,1,.3.31Z"/><path d="M104.84,70.3c-.21.21-.29.27-.24.22l.16-.17s0,0-.07.07c-.23.22-.26.25.13-.15l.06-.07c.4-.39.38-.36.16-.13l-.07.08.16-.16c.06,0,0,0-.22.24Z"/><path d="M103.68,73.25c.07.3.14.38.09.32a.86.86,0,0,0-.15-.17s0,0,0,.1c.2.26.3.15-.25,0l-.08,0c-.51-.28-.33-.51,0-.34.07,0,.12.06.12,0s-.06-.16-.07-.23.15,0,.28.23Z"/><path d="M104.35,73.93c0-.31,0-.41,0-.33v.23s0,0,0-.1c0-.32,0-.36,0,.2V74c0,.55,0,.52,0,.2,0-.08,0-.13,0-.1v.23c0,.07,0,0,0-.33Z"/><path d="M104.47,74.06c.27-.15.36-.19.31-.14l-.19.14s0,0,.1,0c.29-.14.33-.13-.13.18l-.08,0c-.49.27-.47.22-.21,0,.06,0,.1-.08.07-.07l-.2.1c-.08,0,0,0,.26-.21Z"/><path d="M104.64,75.76a.84.84,0,0,1-.36-.05s0,0,.22-.07l.1.15h0a.42.42,0,0,0,.28.1c.07,0,.09,0,.11.08s-.14.19-.25.17a.24.24,0,0,1-.24,0,.32.32,0,0,1-.14-.2.27.27,0,0,1,0-.23c.06-.07.11-.05.14,0l0,.08s.08.07.13,0,0-.17,0-.21,0-.15-.09-.18a.22.22,0,0,0-.21-.06c-.08,0-.25.19-.2.15s.07,0,.16,0a.48.48,0,0,1,.37.07h0l.1.15c.19,0,.25,0,.23.05a1,1,0,0,1-.35.07Z"/><path d="M100,70.08c-.09-.24-.24-.22-.26-.2s.22.08.24,0-.07.12,0,.21.23,0,.24-.13l-.3-.55c-.15,0-.23.21,0,.36l.07,0c.16.28-.11.55-.42.49l-.38-.08.07-.47a.46.46,0,0,1,.52-.38c.21.06.28.26.37.31s.42.18.33.36a.29.29,0,0,1-.48.11Z"/><path d="M99.45,69c.11.29.16.38.12.32l-.13-.18s0,0,0,.09c.17.28.24.26-.2-.1l-.07-.06c-.38-.4-.25-.47,0-.24,0,.06.09.09.09.06l-.08-.22c0-.09.07,0,.21.25Z"/><path d="M91.42,64.84a2,2,0,0,1,.09-.33s0,0,0,.11,0,.17,0,.12,0-.09.09-.23l.06.78c.17.18.27-.16-.17-.26l-.09,0c-.42-.2-.23-.63,0-.48l.06.78a.79.79,0,0,0,0-.24c0-.06,0,0-.07.11s0,.14-.07.09a2.38,2.38,0,0,1,0-.33Z"/><path d="M92.7,65.45c.3,0,.4,0,.33.07a2.18,2.18,0,0,0-.22.06s0,0,.1,0c.32,0,.36.09-.19.19h-.09c-.56,0-.52-.08-.21-.17.08,0,.12,0,.1-.05l-.24,0c-.07,0,0-.06.33-.11Z"/><path d="M93.09,66.62c0-.3,0-.4,0-.33v.23s0,0,0-.1c0-.32,0-.36.06.2v.09c0,.56,0,.52-.06.2,0-.08,0-.13,0-.1V67c0,.07,0,0,0-.33Z"/><path d="M93.79,65.2c-.27.13-.36.17-.3.13l.2-.1s0,0-.09,0c-.29.14-.33.14.16-.11l.09-.05c.5-.23.47-.21.19-.06l-.09,0,.21-.09-.29.16Z"/><path d="M94.72,67.06c-.12-.28-.13-.38-.07-.33s.12.15.15.17,0,0,0-.11c-.09-.31,0-.38.27.08l.05.08c.2.53.12.52-.09.28,0-.06-.09-.1-.09-.07a1.83,1.83,0,0,0,.07.23c0,.08-.08,0-.25-.25Z"/><path d="M96.06,66.54c0,.31.1.39.08.31a.57.57,0,0,0-.13-.19s0,0,.07.08.22.08.22,0-.15-.12-.42,0l-.08,0c-.29.05-.42-.1-.44-.21s.13-.2.31-.16.14,0,.14,0a1.31,1.31,0,0,1,0-.25c0-.12.25-.06.29.25Z"/><path d="M96.34,67.87c-.3,0-.4,0-.33,0h.13c-.32,0-.36,0,.2,0h.09c.56,0,.52,0,.2,0h.13c.08,0,0,0-.33,0Z"/><path d="M97.29,66.13c0-.31,0-.41,0-.34V66s0,0,0-.1c0-.32,0-.35,0,.21v.08c0,.56,0,.52,0,.21,0-.08,0-.13,0-.1v.23c0,.07,0,0,0-.34Z"/><path d="M98.45,66.63c.22-.22.16-.37.11-.31a.61.61,0,0,0-.07.22s0,0,0-.1-.13-.2-.17-.17,0,.21.25.35l.07,0c.24.16.24.34.19.42s-.19,0-.26-.15,0-.12-.07-.1a1.12,1.12,0,0,1-.11.22c-.09.06-.17-.11,0-.36Z"/><path d="M99.83,66.51c.22.21.38.14.3.1a.46.46,0,0,0-.22,0s0,0,.09,0,.2-.15.16-.18-.21,0-.27.32l0,.09c-.12.27-.32.29-.42.23s-.07-.21.08-.32.11-.08.09-.1a1.17,1.17,0,0,1-.23-.11c-.07-.1.12-.22.37,0Z"/><path d="M99.54,67.94l.06.36.09-.66c-.15.12-.16.18-.16.2a.44.44,0,0,0,0-.26s-.09-.11-.09,0a.43.43,0,0,0,.21.35l.06,0a.4.4,0,0,1,.1.42c0,.11-.16.06-.22,0s-.11-.29-.14-.28a2.16,2.16,0,0,0-.28.15l.09-.67.24.28Z"/><path d="M99.91,64.56c0-.08-.13,0-.11.11a.2.2,0,0,0,0,.12s.11.14.24.09.13,0,.1-.07a.28.28,0,0,0-.2-.09s0,0,.1,0a1.43,1.43,0,0,1,.23-.11A1.59,1.59,0,0,0,100,65l-.05.08c-.21.18-.37.18-.46.14s-.08-.16,0-.35.11-.1.09-.15-.15-.13-.17-.24a.21.21,0,0,1,.21-.18.28.28,0,0,1,.32.1.39.39,0,0,1,0,.14c0,.09-.1.21-.12.14Z"/><path d="M100.87,65.92c-.1.3,0,.41,0,.31s0-.23,0-.24,0,0,.11-.08c.11-.27-.12-.38,0-.37s0,.15,0,.45v.09c0,.28-.14.37-.22.4a.39.39,0,0,1-.24-.46c.06-.13.14-.14.14-.2a.56.56,0,0,1,0-.3c.08-.1.28,0,.25.31Z"/><path d="M102.11,65.32c.23.2.33.23.26.2a1.36,1.36,0,0,0-.22-.07s0,0,.09,0c.31.12.35,0-.2.09h-.1c-.56,0-.51-.24-.17-.23.08,0,.13,0,.11,0s-.14-.1-.19-.15.09-.09.35.06Z"/><path d="M101.41,67.07c0,.31.08.4.09.31a.53.53,0,0,0-.11-.2s0,0,.1,0a.2.2,0,0,0,.11-.33.22.22,0,0,0-.25.33l.06.08c.12.31-.31.42-.44.31a.32.32,0,0,1,0-.51c.09,0,.15,0,.16-.08a.56.56,0,0,1,0-.27c.06-.12.26,0,.28.26Z"/><path d="M103,67.2c-.1-.29-.12-.39-.07-.33s.1.17.12.2,0,0,0-.11c-.08-.31-.06-.36.21.13l0,.08c.18.53.12.52,0,.24,0-.07-.07-.1-.07-.08s.05.16.06.23,0,0-.19-.28Z"/><path d="M102.62,68.5c0,.07.16,0,.21,0a.22.22,0,0,0,0-.3c-.25.08-.19.18-.21.19s-.06-.21-.07-.26,0-.13,0-.07a1.36,1.36,0,0,1,.25.32l0,.08a1.64,1.64,0,0,1,.13.39c0,.08,0,0-.09,0s-.16-.23-.19-.2,0,.14-.35.22a.3.3,0,0,1,0-.36c0-.07.19-.14.24-.07Z"/><path d="M104.2,66.42c-.3,0-.41,0-.34,0l.23,0s0,0-.1,0c-.33,0-.37-.06.18-.16h.09c.56,0,.53,0,.21.12-.07,0-.12,0-.09,0h.23c.08,0,0,0-.32.1Z"/><path d="M89.51,60.57c-.27-.14-.36-.19-.28-.17l.21.09-.09-.06c-.27-.16-.3-.19.21,0l.08,0c.49.27.45.27.16.15-.07,0-.12,0-.1,0l.2.11c.06,0,0,0-.31-.12Z"/><path d="M89.2,62.15l.37,0L88.84,62a.58.58,0,0,0,.24.12.68.68,0,0,0-.26-.07s-.13,0,0,0a.91.91,0,0,0,.4,0l.09,0a.54.54,0,0,1,.41.06c.08,0,0,.09-.06.12s-.29,0-.28,0,0,.06.2.21l-.74-.1.33-.18Z"/><path d="M87.91,60.71c-.17-.14-.27-.15-.31-.14s.08,0,.19,0l.29.1c0-.15,0-.07.09-.19a.24.24,0,0,0-.12-.27s-.07,0,.07,0a.43.43,0,0,1,.22.33v.08a.93.93,0,0,0,0,.38c.06.07,0,.13-.18.09s-.36-.11-.36-.34a1.36,1.36,0,0,1,.11-.43l.29.09c.14,0,.3.13.22.24s-.17.17-.39.11Z"/><path d="M89.34,59.26c.11-.28.16-.37.16-.29s0,.19,0,.22,0,0,.07-.08c.13-.29.19-.32.06.23l0,.08c-.21.52-.24.47-.18.16,0-.08,0-.13,0-.11a1.34,1.34,0,0,0-.11.21c0,.06,0,0,0-.34Z"/><path d="M90,58.47c.14-.27.19-.36.16-.29l-.09.21.05-.09c.15-.28.18-.31-.06.19l0,.08c-.26.5-.25.46-.12.17l0-.09-.11.2c0,.06,0,0,.13-.3Z"/><path d="M90.84,59.75c0,.31-.23.36-.25.26a2,2,0,0,1,.08-.23s0,0-.11,0-.27,0-.29-.1.16-.22.44-.14l.08,0c.27.1.4,0,.43-.05s-.1-.09-.25,0l-.09,0a.75.75,0,0,0,.11-.2c0-.09-.14,0-.15.28Z"/><path d="M92.12,58.34a.7.7,0,0,0,.28.17s.06,0-.08,0-.2,0-.14,0a.36.36,0,0,0,.2-.05h0l-.55-.19a.3.3,0,0,0-.27.3.37.37,0,0,0,.25.34c.38.09.45-.3.19-.35h-.09c-.25-.12-.1-.55.33-.44a.45.45,0,0,1,.29.43.36.36,0,0,1-.31.37l-.86.08.32-.27h0c.11-.1.16-.13.17-.17s0-.06-.14-.12-.1-.13,0-.16a.41.41,0,0,1,.34,0Z"/><path d="M93.15,58.21c.2.22.26.31.2.27l-.18-.15s0,0,0,.09c.21.25.21.3-.21-.08L93,58.28c-.37-.42-.32-.41-.08-.21.06,0,.11.08.09,0l-.14-.18c0-.06,0,0,.27.2Z"/><path d="M92.64,59.58c-.23.37.51.42.32-.08a.16.16,0,0,0-.24,0s0,0,0-.09,0-.24-.11-.2-.09.38.22.34l.09,0a.31.31,0,0,1,.08.57.3.3,0,0,1-.38-.2c0-.08,0-.14-.09-.13a.31.31,0,0,1-.33-.06c-.24-.59.68-.64.48-.17Z"/><path d="M93.92,58.09c.26.17.34.23.26.2l-.2-.1s0,0,.08.07c.25.19.27.23-.22,0l-.08,0c-.46-.31-.41-.31-.13-.17.07,0,.12.05.1,0l-.19-.14c-.05,0,0,0,.31.14Z"/><path d="M94.36,59.59c.22.27.47.14.22.07s-.19,0-.13,0a.41.41,0,0,0,.16-.15,0,0,0,0,0,0,0l-.49-.11c-.09-.16-.13,0,.26.26l.07,0c.31.28.2.54,0,.45L94,60l0,0c.06-.14.12-.2.12-.24s0,0-.13-.11,0-.33.29-.09Z"/><path d="M94.81,58c-.1-.29-.19-.35-.16-.29a1,1,0,0,0,.14.18l-.07-.07c-.25-.21-.37,0,.19,0l.09,0c.55.16.4.41.1.25-.07,0-.12-.06-.11,0s.08.15.1.21-.13,0-.25-.23Z"/><path d="M95.59,56.15c0-.3,0-.4,0-.32a.73.73,0,0,0,.07.21s0,0-.09,0a.21.21,0,0,0-.23.29.3.3,0,0,0,.23.07c.11,0,.23-.14.16-.27l0-.08c-.05-.15.1-.27.23-.27a.36.36,0,0,1,.29.12.31.31,0,0,1-.24.44c-.09,0-.14,0-.15,0a1,1,0,0,1,0,.25c-.06.1-.14,0-.19-.3Z"/><path d="M96.83,57.09c0-.31,0-.41,0-.33V57s0,0,0-.1c0-.31,0-.35,0,.21v.09c0,.56,0,.52,0,.2,0-.08,0-.13,0-.1v.23c0,.07,0,0,0-.33Z"/><path d="M102.1,61c-.16.15-.15.26-.13.3s0,0,0-.17-.07,0,0,0,.16.09.21,0l0-.33c.08-.07-.14,0-.23.31l0,.08c-.23.3-.56.22-.55,0l0-.33a.29.29,0,0,1,.33-.14c.13,0,.17.06.2-.07s.13-.28.23-.19a.29.29,0,0,1,.07.39Z"/><path d="M102.63,61.75c.27-.15.37-.19.32-.12s-.14.13-.16.16,0,0,.11,0c.29-.14.35-.12-.07.25l-.08,0c-.48.28-.49.21-.26,0,.06,0,.09-.1.06-.09l-.21.1c-.08,0,0-.06.22-.26Z"/><path d="M103.26,61.31h-.2c-.32,0-.35,0,.2,0h.09c.56,0,.52,0,.21,0h-.3Z"/><path d="M103.72,62.09c.15.27.22.35.17.3a1,1,0,0,0-.18-.14s0,0,.06.09c.21.24.27.21-.26,0l-.08,0c-.45-.31-.32-.42,0-.26.07,0,.12.06.11,0l-.12-.21c0-.09.09,0,.28.18Z"/><path d="M103.15,63.38c-.26.09-.21.28-.16.31s.22,0,.13-.24c0,0,0,0,0,0l-.08-.27.1-.33s0,.11.16.42l0,.09c0,.32-.06.45-.13.44a.43.43,0,0,1-.18-.32l-.08-.27s0,0,0,0a.23.23,0,0,1,.31-.27.24.24,0,0,1,0,.43Z"/><path d="M103.93,64.06l-.3-.21.67-.12c-.17.13-.17.17-.18.2s.12-.19.12-.24,0-.13,0-.06a.85.85,0,0,0,0,.4l0,.09a.49.49,0,0,1-.1.41c-.07.08-.13,0-.16-.07s0-.3,0-.3-.08,0-.27.12l.66-.12L104,64.1Z"/><path d="M100.72,60.48c-.18.13-.24.2-.28.22s0-.1,0-.22-.06,0-.1.09a1,1,0,0,0,0,.18l.43-.66c-.07-.25-.45-.11-.29.21l0,.08c0,.38-.5.46-.63.08l-.38-1.14.81.48a.29.29,0,0,1,.19.2c0,.12,0,.22.12.16s.24-.2.26-.11,0,.19-.1.37Z"/><path d="M96.89,52.69c.22-.21.25-.32.22-.25a1.71,1.71,0,0,0-.09.22s0,0,0-.08-.07-.24-.13-.22-.1.26.18.38l.08,0a.29.29,0,0,1,0,.49c-.12,0-.26,0-.3-.21s0-.14,0-.13a2.09,2.09,0,0,1-.16.18c-.09,0-.1-.1.07-.35Z"/><path d="M98.32,52.69c.29-.1.39-.13.33-.08l-.2.11s0,0,.1,0c.31-.1.35-.08-.14.17l-.09,0c-.52.19-.5.14-.22,0,.06,0,.11-.06.08-.06L98,52.9c-.08,0,0,0,.28-.17Z"/><path d="M99,53.29c-.26-.15-.35-.21-.28-.19l.22.08s0,0-.08-.06c-.27-.17-.29-.22.22,0l.08,0c.49.28.44.29.14.17-.07,0-.12,0-.1,0l.19.12c.06.05,0,0-.31-.11Z"/><path d="M100,52.27c.3,0,.4,0,.33.07l-.23,0s0,0,.1,0c.32,0,.36.09-.2.13h-.09c-.56,0-.52-.09-.2-.13.08,0,.13,0,.1,0l-.23,0c-.07,0,0-.05.33-.07Z"/><path d="M100,53c-.25-.17-.33-.23-.26-.21l.21.09s0,0-.07-.08c-.26-.19-.27-.24.23,0l.08.05c.47.31.42.32.12.2-.07,0-.12,0-.1,0l.18.14c.06.05,0,0-.31-.12Z"/><path d="M99.3,49.1c0,.3,0,.4,0,.33V49.3c0,.32,0,.36,0-.2V49c0-.56,0-.52,0-.2v-.13c0-.08,0,0,0,.33Z"/><path d="M99.32,49.07c.17-.25.25-.32.24-.24s-.06.19-.06.22,0,0,.09-.06c.22-.25.29-.25.09.27l-.05.08c-.32.46-.36.4-.27.08,0-.07,0-.13,0-.11s-.1.13-.15.18,0-.06.07-.34Z"/><path d="M99.34,45.33a2.53,2.53,0,0,1-.3-.15s0,0,.11,0,.16,0,.12,0l-.22-.12.77.26c.22,0,.06-.28-.34-.06l-.08,0c-.41.17-.58-.15-.36-.21l.77.26a.74.74,0,0,0-.24,0s0,0,.1.07.13.07.07.07l-.32-.09Z"/><path d="M100.83,44.61c.17.26.22.35.17.29l-.14-.18s0,0,0,.09c.17.27.18.31-.15-.14l0-.08c-.29-.47-.26-.45-.07-.19l.07.08-.12-.2c0-.07,0,0,.2.26Z"/><path d="M100.77,46c.12.49.46.18,0,.07h0l-.08-.14a.6.6,0,0,0,.1-.33s-.06.11,0,.44v.09c0,.32-.1.44-.17.41a.37.37,0,0,1-.07-.35l-.08-.15s0,0,0,0c-.41-.2,0-.59.22-.12Z"/><path d="M102.23,44.5c.24-.12.24-.24.21-.27a.16.16,0,0,0-.2,0,.18.18,0,0,0,0,.26.21.21,0,0,0-.21.1l-.13,0s.1-.05.37-.25l.07-.05c.3-.12.45-.1.46,0a.94.94,0,0,1-.09.12.29.29,0,0,1-.21.22.23.23,0,0,1-.1.31.29.29,0,0,1-.3,0c-.07-.08-.11-.24.09-.41Z"/><path d="M102,42.56c-.27-.43-.51,0-.08,0h0l.18.09c.08.19.18.22.27.22s0-.19-.36-.22l-.09,0c-.32-.08-.38-.29-.3-.36a.31.31,0,0,1,.39.12l.18.1h0c.45.06.16.57-.18.19Z"/><path d="M103.32,43.16l-.14-.3.11.2s0,0,0-.09c-.13-.29-.14-.33.12.16l0,.09c.24.5.22.47.06.19,0-.07-.06-.11,0-.09l.1.21c0,.07,0,0-.16-.29Z"/><path d="M103.17,45.12s0,.12,0,.13.12,0,.19-.07a.27.27,0,0,0,.06-.34c-.19.13-.12.21-.12.23s0-.22,0-.27-.07-.1,0,0,.07.16.29.28l.07.05a.42.42,0,0,1,.12.44c0,.12-.18.09-.27.06s-.17-.27-.22-.27-.09.06-.33.14a.38.38,0,0,1,0-.4c.08-.13.18-.11.22-.09s.12.11.07.15Z"/><path d="M104.64,44.82c.29.12.42,0,.32,0a.42.42,0,0,0-.22,0s0,0,0-.09,0-.26-.1-.26-.13.21.07.42l.06.07c.17.24,0,.43-.06.47a.25.25,0,0,1-.25-.29c0-.09,0-.14,0-.15a.78.78,0,0,1-.26,0c-.11-.08,0-.28.32-.2Z"/><path d="M99.56,37.09c-.26-.16-.36-.18-.29-.18a1,1,0,0,0,.23,0s0,0-.09-.05c-.32-.07-.35,0,.17-.19l.09,0c.56-.07.56.18.23.25-.08,0-.13,0-.11.07a1.72,1.72,0,0,1,.21.12c.06.07-.07.12-.36,0Z"/><path d="M100.25,35.66c.18-.25.23-.35.22-.27s0,.18,0,.22,0,0,.07-.09c.15-.29.11-.33.13.25v.09c-.11.54-.27.47-.25.14,0-.08,0-.14,0-.12s-.1.14-.15.2-.08-.06,0-.34Z"/><path d="M101.05,37.51a.46.46,0,0,0,0,.34c0,.06,0,0,0-.12v-.49c0,.16,0,.17,0,.08s.08-.2.1-.22,0-.05,0,0a2.18,2.18,0,0,0,.14.34l0,.09a.59.59,0,0,1-.08.39c-.06.08-.13.1-.19,0s-.12-.13-.14-.25,0-.13-.16,0h0v-.49c0-.14.09-.2.17-.15a.32.32,0,0,1,.16.32Z"/><path d="M97.49,40.56c.16-.29.14-.4.24-.36s.16.12.23.11.08-.09,0-.17l.43.18a.13.13,0,0,0,.15-.1s-.07-.14-.12-.13,0,.15.31.27l.06.07a.46.46,0,0,1-.44.62.62.62,0,0,1-.49-.33.46.46,0,0,1,.07-.5l.43.18c-.12,0-.2.06-.24.14a1.22,1.22,0,0,1-.11.34c-.15.15-.46.09-.57-.23Z"/><path d="M99.5,39.6c.24-.18.33-.23.29-.17l-.16.17s0,0,.09,0c.27-.18.32-.18-.08.21l-.07.06c-.46.33-.45.28-.23,0,.06-.06.09-.09.06-.08l-.19.12c-.07,0,0,0,.22-.25Z"/><path d="M100,40.66c.14-.27.18-.37.16-.3s0,.19,0,.22,0,0,.05-.09c.09-.31,0-.35.08.22v.09c0,.55-.19.5-.19.17,0-.08,0-.13,0-.1l-.11.2c-.06.07-.08,0,0-.32Z"/><path d="M101,39.86a1.5,1.5,0,0,0,.07-.34c0-.06,0-.08.11,0l.07.48c.08-.14,0-.25-.08-.13a.16.16,0,0,0,0,.15s.18.06.12-.3a.37.37,0,0,0-.18-.22s0,0,0,0a.12.12,0,0,1,.07.07l.27.35,0,.09a.56.56,0,0,1-.34.41.37.37,0,0,1-.23,0,.31.31,0,0,1-.13,0,.61.61,0,0,1-.3-.31c-.1-.46.16-.51.23-.56a.63.63,0,0,1,.31,0c.16.06.25,0,.51-.07h.06v.49a.26.26,0,0,1-.27.26A.41.41,0,0,1,101,40Z"/><path d="M103.09,39.18c.21-.23.12-.39.08-.3a.42.42,0,0,0,0,.22.25.25,0,0,0,0-.08c-.13-.13-.24-.09-.26,0s.14.17.41.08l.09,0c.29,0,.41.15.4.27a.25.25,0,0,1-.37.12c-.08,0-.12-.08-.14,0a.73.73,0,0,1-.1.23c-.11.08-.26-.09-.1-.37Z"/><path d="M104.6,37.86c.26,0,.27-.19.25-.22s-.14,0-.11.21v0l-.11.1c-.13,0-.09.26,0,.3s.16.12.32,0,.09-.15,0-.18a.68.68,0,0,0-.34,0h-.09c-.16-.06-.28-.12-.31-.21a.27.27,0,0,1,.12-.34.46.46,0,0,1,.51,0c.12.06.22.34.07.44l-.05,0-.06.07v0a.24.24,0,0,1-.37.16.26.26,0,0,1,.09-.44Z"/><path d="M105,55.05c.09-.18,0-.29,0-.33s-.12.06-.06.18l-.06.25c.17,0,.11,0,.13.11a.19.19,0,0,0,.31.12.21.21,0,0,0,.08-.35.22.22,0,0,0-.36.08l0,.09a.26.26,0,0,1-.42,0,.3.3,0,0,1,.11-.46.26.26,0,0,1,.42.09c0,.14,0,.14.21.19l-.06.25c0,.14,0,.28-.16.22s-.18-.15-.13-.35Z"/><path d="M42.6,71.07a5.05,5.05,0,0,0-1.06-5.22l-.23-.25.24-.24a15.53,15.53,0,0,1,2.51-2.21A16.21,16.21,0,0,1,47,61.52a29.69,29.69,0,0,1,3.11-1.13c1-.34,2.29-.45,2.79-1.3l.11.24a19.42,19.42,0,0,1-5.36-2.2,7.44,7.44,0,0,0-2.41-1.2,3.64,3.64,0,0,0-2.41.62,6.92,6.92,0,0,1-2.85,1c-1,.08-2,0-2.89,0A11.64,11.64,0,0,0,31.69,59l-.05-.07A10.07,10.07,0,0,1,37,56.8c1-.1,2,0,2.84-.16a5.89,5.89,0,0,0,2.5-.93,4.22,4.22,0,0,1,3-.66A7.9,7.9,0,0,1,48,56.47a20.64,20.64,0,0,0,5,2.53l.2.07-.1.17a2.29,2.29,0,0,1-1.42,1c-.54.16-1.06.3-1.57.48a17.48,17.48,0,0,0-3,1.35,29.1,29.1,0,0,0-2.7,1.76,24.17,24.17,0,0,0-2.46,2.06v-.48a4.94,4.94,0,0,1,.61,5.73Z"/><path d="M29.64,60.22a4.88,4.88,0,0,0-.58,3.13,5.22,5.22,0,0,0,1.47,2.78,1.65,1.65,0,0,1,.4,1,2,2,0,0,1-.24,1c-.3.55-.67,1-.86,1.41a3.26,3.26,0,0,0,.15,3,2.35,2.35,0,0,1,.29,1.75,5.54,5.54,0,0,1-.93,1.45,4.6,4.6,0,0,0-.89,3.07,7.89,7.89,0,0,1-2.8,6.18v-.68c.92.75,1.86,1.48,2.8,2.2s1.94,1.35,2.93,2a71.54,71.54,0,0,1,5.92,4.08l0,.08c-2.1-1.16-4.21-2.27-6.31-3.45a35.58,35.58,0,0,1-5.87-4.26l-.39-.35.4-.32A7.85,7.85,0,0,0,28,78.71a5.56,5.56,0,0,1,1.11-3.2A4.31,4.31,0,0,0,30,74.13a1.7,1.7,0,0,0-.37-1.44,3.74,3.74,0,0,1-.46-3.47c.51-1.16,1.45-1.92.8-2.65a5.21,5.21,0,0,1-1.41-3.16,4.51,4.51,0,0,1,1-3.24Z"/><path d="M38,92.31c1-.85,2-1.67,3-2.46.51-.41,1-.79,1.45-1.21a1.6,1.6,0,0,0,.61-1.37l-.11-.45h.49c.78,0,1.56,0,2.35,0a3.7,3.7,0,0,0,1-.06c.23-.06.39-.3.64-.67a6.14,6.14,0,0,1,4.19-2.28,7.11,7.11,0,0,1,2.39.1c.78.19,1.52.47,2.27.72a46.15,46.15,0,0,0,4.48,1.34c1.5.37,3,.72,4.55,1a6.69,6.69,0,0,0,4.29-.54c.32-.18.63-.37.94-.58.11-.09.37-.28.34-.27a1.6,1.6,0,0,0,.14-.41,12.27,12.27,0,0,1,.4-2.39,1.11,1.11,0,0,1,1.36-.51,3.63,3.63,0,0,1,1.09.63,4.53,4.53,0,0,0,2,1.15v.09a4.75,4.75,0,0,1-2.2-.9,3.1,3.1,0,0,0-1-.46c-.29-.08-.62.06-.65.26a17.11,17.11,0,0,0-.21,2.26,2.07,2.07,0,0,1-.21.71,3.1,3.1,0,0,1-.52.52,7.56,7.56,0,0,1-1,.7,7.41,7.41,0,0,1-4.86.67,42,42,0,0,1-4.61-1.15A42.87,42.87,0,0,1,56.15,85a7.4,7.4,0,0,0-4.46-.92A5.23,5.23,0,0,0,48,86.42c-.17.27-.39.82-.94,1a4.09,4.09,0,0,1-1.29.14c-.78,0-1.57,0-2.35,0l.37-.45a2.27,2.27,0,0,1-.88,2,11.45,11.45,0,0,1-1.6,1.17c-1.07.72-2.16,1.42-3.27,2.08Z"/><path d="M73.86,83.64a11,11,0,0,0,3.79,1.93,40.24,40.24,0,0,0,4.16,1.06,64.64,64.64,0,0,0,8.53,1.11,20.9,20.9,0,0,0,4.26-.06,6,6,0,0,0,2-.61c.62-.33,1.18-.78,1.8-1.18,2.54-1.67,5.91-.76,8-2.79a13.12,13.12,0,0,0,2.69-3.26,35.86,35.86,0,0,0,2.07-3.74c.62-1.23,1.18-2.72.47-3.61s-2.3-.84-3.76-1.28a8.29,8.29,0,0,1-2-1.06,3.21,3.21,0,0,0-1.81-.55,14.15,14.15,0,0,1-4.38-.45c-2.8-.68-5.55-2-8.4-1.19l0-.08a8.11,8.11,0,0,1,4.34-.33c1.44.24,2.85.62,4.24.91a13.31,13.31,0,0,0,4.23.27,4,4,0,0,1,2.28.64,7.42,7.42,0,0,0,1.81,1c.63.19,1.35.26,2.09.42a3.45,3.45,0,0,1,2.14,1.16,2.89,2.89,0,0,1,.39,2.46,9.11,9.11,0,0,1-.83,2.1,30.45,30.45,0,0,1-2.26,3.76,13.92,13.92,0,0,1-3,3.26c-2.44,2-5.84,1-8.18,2.66-.59.4-1.15.86-1.79,1.24a6.61,6.61,0,0,1-2.09.78,20.8,20.8,0,0,1-4.38.32,46.54,46.54,0,0,1-8.64-1.18c-2.78-.73-5.76-1.51-7.88-3.6Z"/><path d="M103.6,68.39a9.27,9.27,0,0,1,5.13-2.49c1.89-.4,3.8-.52,5.59-1a3.19,3.19,0,0,0,.56-.19c.05,0,.06,0,0-.28a1.53,1.53,0,0,1,.13-.91,1.67,1.67,0,0,1,.63-.66,6.5,6.5,0,0,1,2.92-.66c.84-.11,1.92-.36,2-1,.07-.32-.19-.72-.4-1.18a1.53,1.53,0,0,1-.17-.82,1.13,1.13,0,0,1,.43-.76c.41-.34.87-.49,1.18-.78a1.34,1.34,0,0,0,.33-1.18c0-.45-.18-.92-.21-1.41a2.09,2.09,0,0,1,.43-1.44A6.34,6.34,0,0,1,124.64,52c.83-.38,1.86-.76,2-1.58a1.9,1.9,0,0,0-1.4-1.87,5.7,5.7,0,0,0-1.31-.32,6,6,0,0,1-1.51-.27,1.13,1.13,0,0,1-.61-.78,2.34,2.34,0,0,1,0-.83,3.71,3.71,0,0,0-1.23-3.5l.64-.06a2.06,2.06,0,0,1-1.79.71,4.82,4.82,0,0,1-1.68-.4c-1-.41-1.85-.78-2.63-.38s-1.72,1.12-2.57,1.67-1.64,1.21-2.49,1.8a17.85,17.85,0,0,0-2,2.37,11.14,11.14,0,0,1-2.3,2.25,29.14,29.14,0,0,1-5.57,3l0-.09a34.24,34.24,0,0,0,5.25-3.36,11.93,11.93,0,0,0,2.08-2.24,18.78,18.78,0,0,1,2-2.55c.83-.65,1.68-1.38,2.55-2s1.65-1.19,2.7-1.76a2.86,2.86,0,0,1,1.82-.2,8,8,0,0,1,1.57.56c.83.41,2,.54,2.39,0l.31-.38.34.31a4.61,4.61,0,0,1,1.47,2.71c.2,1-.41,2.23.13,2.44a7.19,7.19,0,0,0,1.29.25,6.41,6.41,0,0,1,1.44.43,2.38,2.38,0,0,1,1.6,2.47,1.87,1.87,0,0,1-1,1.19c-.43.25-.88.41-1.31.61a5.82,5.82,0,0,0-2.33,1.46c-.62.74-.26,1.69-.11,2.65a1.72,1.72,0,0,1-.4,1.47c-.37.39-.84.58-1.14.87s-.29.6-.07,1a2.77,2.77,0,0,1,.53,1.48,1.69,1.69,0,0,1-1.08,1.3,5.28,5.28,0,0,1-1.47.4,6,6,0,0,0-2.59.59.74.74,0,0,0-.41.83,1.7,1.7,0,0,1,0,.48.89.89,0,0,1-.37.51,3.25,3.25,0,0,1-.79.26c-1.91.46-3.82.54-5.68.8a9.84,9.84,0,0,0-5.16,2Z"/><path d="M62.75,66a23.11,23.11,0,0,1,9.61-1.59A10.36,10.36,0,0,0,77,64.12a5.77,5.77,0,0,1,2.45-.69c.86,0,1.64.08,2.4,0,3.1-.33,5.7-2.65,7.42-5.31a10.47,10.47,0,0,1,3.2-3.68,4,4,0,0,0,1.69-1.58,6.36,6.36,0,0,0,.33-2.33c.12-3.26,1.21-6.47.66-9.59a10,10,0,0,0-.27-1.15,1.55,1.55,0,0,1,.23-1.48c.69-.77,1.54-.95,2.08-1.4s.56-1,.8-2a2,2,0,0,1,.9-1.2,2.77,2.77,0,0,1,1.39-.36c2,0,3.2,1.4,4.65,1.58a6.91,6.91,0,0,0,2.27.06l.59-.09a1.11,1.11,0,0,1,1,.24,1.1,1.1,0,0,1,.29.94,5.06,5.06,0,0,1-.12.65,40.61,40.61,0,0,0-1.16,4.66,4.15,4.15,0,0,0,1.68,3.94l.86.54h-1a10.32,10.32,0,0,0-7.58,3l-.07-.06a10.08,10.08,0,0,1,7.66-3.54l-.15.53A4.81,4.81,0,0,1,107,41.36a31.54,31.54,0,0,1,1-4.8,1.82,1.82,0,0,0,.08-.74,4.55,4.55,0,0,0-.8.11,7.93,7.93,0,0,1-2.57-.06c-1.79-.29-3.06-1.62-4.46-1.58a1.33,1.33,0,0,0-1.46.91c-.11.32-.15.73-.29,1.17a2.24,2.24,0,0,1-.84,1.19,17.91,17.91,0,0,0-2,1.22.77.77,0,0,0-.13.81,11.44,11.44,0,0,1,.25,1.22c.44,3.38-.8,6.52-1,9.72A6.5,6.5,0,0,1,94.43,53a4.49,4.49,0,0,1-1.81,1.68,9.8,9.8,0,0,0-3,3.66,14.89,14.89,0,0,1-3.13,3.81,8.55,8.55,0,0,1-4.54,2.07,22.83,22.83,0,0,1-2.46,0,5,5,0,0,0-2.19.59,10.82,10.82,0,0,1-5,.3,25.52,25.52,0,0,0-9.54,1Z"/><path d="M38,72.49c3.08.3,5.89-1.37,8.07-3.37,1.12-1,2.17-2.12,3.36-3.1a19.57,19.57,0,0,1,3.89-2.54C56.06,62,59.56,62,61,59.24a12.63,12.63,0,0,1,1.36-1.91c.57-.58,1.2-1,1.23-1.65a12,12,0,0,1,.07-2.29,6.46,6.46,0,0,1,.94-2.15,43.67,43.67,0,0,1,2.91-3.53,9.67,9.67,0,0,0,2.08-4A2.58,2.58,0,0,1,71.23,42a1.75,1.75,0,0,1,1.27.07,2.45,2.45,0,0,1,.91.83c.44.65.87,1.23,1.55,1.24a4,4,0,0,0,2-.65,28.39,28.39,0,0,1,4.24-1.83,11.56,11.56,0,0,1,2.3-.6,3.48,3.48,0,0,1,2.41.69,50.69,50.69,0,0,1,7,6l.48.5-.64.27a8,8,0,0,0-4.66,4.88,3,3,0,0,1-1.21,1.71,5.27,5.27,0,0,1-1.91.52,2.5,2.5,0,0,0-1.43.58c-.14.18-.15.24-.17.64a.94.94,0,0,1-.28.64,1.43,1.43,0,0,1-.52.31,23.26,23.26,0,0,1-3.69.53c-1.09.21-2.37.84-2.2,2a2.84,2.84,0,0,1-.06,1,2,2,0,0,1-.54.85,8.82,8.82,0,0,1-1.55,1.08c-1.06.63-2.2,1.09-3.29,1.65l0-.08c1-.62,2.16-1.15,3.17-1.84s2.17-1.37,1.84-2.62A2,2,0,0,1,77,58.55a4.47,4.47,0,0,1,1.78-.8,23.54,23.54,0,0,0,3.55-.62c.27-.13.32-.15.32-.34A1.57,1.57,0,0,1,83,55.71a3.24,3.24,0,0,1,1.87-.9,4.58,4.58,0,0,0,1.6-.46,2.16,2.16,0,0,0,.81-1.26,9,9,0,0,1,5.15-5.44l-.15.77a54.16,54.16,0,0,0-6.82-5.94c-1.12-1-2.53-.53-4-.08a26.47,26.47,0,0,0-4.19,1.66,4.51,4.51,0,0,1-2.32.64c-1-.05-1.52-.91-1.89-1.49a1.44,1.44,0,0,0-1.68-.78,2.2,2.2,0,0,0-1.42,1.44,10.28,10.28,0,0,1-2.21,4,40.88,40.88,0,0,0-2.84,3.55c.33,5.82-5.42,11.69-11.19,12.74a19.13,19.13,0,0,0-3.78,2.39c-1.16,1-2.25,2-3.44,3-2.28,2-5.35,3.55-8.45,3Z"/><path d="M92.9,61a19.55,19.55,0,0,1,3.9.12c.64.13,1.27.35,1.91.51l1.93.45A6.14,6.14,0,0,1,104,64.3a5.42,5.42,0,0,0,3,2v.09a4.1,4.1,0,0,1-3.72-1.43A12,12,0,0,0,102,63.58a9.39,9.39,0,0,0-1.53-1,5.93,5.93,0,0,0-1.8-.63,13.79,13.79,0,0,0-1.93,0,10.69,10.69,0,0,1-3.83-.78Z"/><path d="M99.45,57.61c1.08.29,2.07.54,3.09.78s2.29.48,3,1.48a9.37,9.37,0,0,1,1.22,3.07,7.43,7.43,0,0,0,.65,1.39,1.87,1.87,0,0,1,.18,1.73l-.09,0c-.05-1.08-1.2-1.52-1.65-2.76s-.34-2.19-.73-3.14a1.6,1.6,0,0,0-1.08-1,12.5,12.5,0,0,0-1.63,0,4.82,4.82,0,0,1-3-1.43Z"/><path d="M98.41,51.18a15,15,0,0,0,2.83-.76,5,5,0,0,0,1.36-.6,10.1,10.1,0,0,0,1.14-1,5.16,5.16,0,0,1,2.86-1.44,19.55,19.55,0,0,0,3-.55l.06.08a5.2,5.2,0,0,1-2.82,1.41,9,9,0,0,0-2.76.89,6.79,6.79,0,0,0-1.26.88,9.6,9.6,0,0,1-1.22,1.05,3.59,3.59,0,0,1-3.16.17Z"/><path d="M108.27,56.47a3.73,3.73,0,0,1,2.27,1.59c.24.41.4.85.64,1.23a5,5,0,0,0,.89,1,11.09,11.09,0,0,0,2.07,1.52,16.54,16.54,0,0,1,2.23,1.48l0,.08a7.89,7.89,0,0,1-2.69-.74,4.83,4.83,0,0,1-2-2,7.24,7.24,0,0,0-.75-1.14,10.78,10.78,0,0,0-1-.92c-.61-.64-1.1-1.28-1.72-2Z"/><path d="M120.61,61.23c-.08-1.21-.17-2.23-.92-2.9a9.26,9.26,0,0,0-1.26-1.13,4.45,4.45,0,0,1-1.29-1.27c-.35-.51-.55-1.07-.83-1.48a3.87,3.87,0,0,0-1.09-1,24.55,24.55,0,0,0-3-1.58l0-.09a6.66,6.66,0,0,1,3.47.87A3.74,3.74,0,0,1,117,54a8.77,8.77,0,0,1,.54,1.68,2.15,2.15,0,0,0,1,1.25c.49.29,1.06.44,1.59.81a2.21,2.21,0,0,1,.91,1.7,3.6,3.6,0,0,1-.39,1.77Z"/><path d="M100.41,73.24a10.89,10.89,0,0,1,2.32,2.65,5.73,5.73,0,0,0,1,1.37,3.07,3.07,0,0,0,1.53.7,3,3,0,0,0,2.77-.94,2.89,2.89,0,0,0,.74-1.29c.14-.44,0-1-.59-1l0-.09a.78.78,0,0,1,1,.19,1.39,1.39,0,0,1,.35,1,3,3,0,0,1-.72,1.85,3.08,3.08,0,0,1-3.64.78,9.36,9.36,0,0,1-1.56-.94,10.38,10.38,0,0,1-1.44-1.13,11.67,11.67,0,0,1-1.8-3.06Z"/><path d="M118.2,48a3.93,3.93,0,0,1,1.57,1.69c.14.37.2.77.32,1.14s.29.7.45,1.08a2,2,0,0,1-.62,2.48,1.1,1.1,0,0,1-.9.11,1.16,1.16,0,0,1-.61-.53,1.2,1.2,0,0,1,0-1.29l.08,0c.09.77.81,1.16.91.87a1.83,1.83,0,0,0,.63-1.56,2.22,2.22,0,0,0-.23-1.07,4.86,4.86,0,0,0-.7-.87,5.91,5.91,0,0,1-1-2Z"/><path d="M105.39,83.6c0,.2,0,.29,0,.35l.09-.46c0-.09-.11-.17-.15-.12a.15.15,0,0,0,0,.19c.12.06,0-.12-.16-.1s-.15,0-.18-.15a.66.66,0,0,1,.21-.48l.08,0a1.06,1.06,0,0,1,.54.1c.08,0,.13.27.07.46s-.3.32-.38.49a.45.45,0,0,1-.28.28.42.42,0,0,1-.43-.29l-.12-.42.21,0a.46.46,0,0,1,.41.13Z"/><path d="M106.15,82.06a.88.88,0,0,0-.11-.32s0,0,.07.05l0,.34c.19.09.22-.08.23,0a.13.13,0,0,0,.09,0,.2.2,0,0,0,.16-.16l-.3-.29c0-.09,0-.16,0-.11s0,.15.23.35l0,.07a.39.39,0,0,1,0,.48c-.1.07-.23,0-.32-.1l-.29-.28a.28.28,0,0,1,.18-.25.56.56,0,0,1,.16,0c.07,0,.18-.12.4,0l0,.34c.06.13,0,.17-.1.17a.42.42,0,0,1-.27-.21Z"/><path d="M106.61,80c-.12-.28-.14-.38-.09-.33l.13.19s0,0,0-.1c-.11-.3-.09-.35.2.12l0,.08c.22.52.16.51,0,.24,0-.06-.07-.1-.07-.08l.08.22c0,.08,0,0-.21-.26Z"/><path d="M107.71,80.2c.12.28.24.32.19.26a.57.57,0,0,0-.21-.1s0,0,.1,0,.09-.29,0-.3a.2.2,0,0,0-.06.39l.07,0c.22.27-.16.52-.33.46a.35.35,0,0,1-.18-.51c.07-.08.12-.11.11-.15a.9.9,0,0,1-.15-.24c0-.14.19-.17.4.06Z"/><path d="M110,76.62c-.19-.24-.31-.26-.26-.21l.21.11s0,0-.08,0-.22.18-.17.25a.23.23,0,0,0,.34-.26V76.4a.28.28,0,0,1,.46-.21.26.26,0,0,1-.14.39c-.08,0-.14,0-.12,0s.13.1.17.16-.12.12-.34-.09Z"/><path d="M110.9,76.15h-.35c-.06,0-.06,0,.06-.08s.15-.11.09-.11-.09,0-.21.06l.71-.25c.12-.24-.12-.41-.34-.36s-.21.37,0,.38H111c.26.09.22.43-.09.53s-.6-.17-.49-.49l.7-.25c-.09.13-.14.2-.14.24s0,.06.16.06.17,0,.13.09-.11.12-.28.18Z"/><path d="M109.49,73.77c.22-.21.3-.28.25-.22l-.16.16s0,0,.07-.06c.23-.22.26-.25-.13.15l-.06.07c-.4.39-.38.35-.16.12l.07-.07-.16.16c-.06,0,0,0,.22-.24Z"/><path d="M111.23,72.56c-.13-.28-.16-.37-.12-.31l.11.2s0,0,0-.1c-.12-.29-.12-.34.15.15l0,.08c.23.51.2.49,0,.21,0-.06-.06-.11-.06-.08l.09.21c0,.07,0,0-.17-.28Z"/><path d="M105.36,63.61c-.27.15-.36.19-.32.12l.17-.15s0,0-.1,0c-.29.14-.35.12.08-.24l.08,0c.49-.27.49-.21.25,0-.06.05-.09.09-.06.08s.15-.07.21-.09,0,0-.23.24Z"/><path d="M105.82,45.37a.22.22,0,0,0,.33-.06l-.44-.24c0,.2.07.22.1.24s-.08-.21-.12-.24-.1-.08,0,0a.82.82,0,0,0,.36.17l.09,0a.5.5,0,0,1,.27.33c0,.11-.09.12-.17.12s-.25-.17-.27-.14-.05.08-.08.3l-.44-.24c.07-.19.22-.31.33-.29Z"/><path d="M105.75,43.6c0-.2-.19-.24-.27-.16l.28.5c0,.08,0,0-.05-.15s-.08-.09-.07,0,.09.3,0,.17l-.38-.65a1.17,1.17,0,0,1,.23.27l0,.08a1.39,1.39,0,0,1,0,.35l-.4,2.59V43.39c0-.24.24-.24.41,0s.12.14.18,0,.15-.22.2-.13l.28.48v0a.24.24,0,0,1-.42,0Z"/><path d="M105.08,39.75c.12-.28,0-.4,0-.32a.48.48,0,0,0,0,.22s0,0,0-.09-.17-.16-.2-.13.08.17.37.22l.08,0c.28.1.32.27.3.36s-.18.08-.31,0-.1-.09-.11-.06a1.32,1.32,0,0,1,0,.24c-.07.09-.2,0-.14-.33Z"/><path d="M112.21,57.93c0-.3-.1-.39-.08-.31a1.2,1.2,0,0,0,.11.2s0,0,0-.09c-.22-.26-.37,0,.2,0h.09c.55.18.35.5,0,.32-.08,0-.12-.07-.12,0s0,.16,0,.23-.18,0-.24-.27Z"/><path d="M108.23,62.44c.12.25.12.37.08.47a.08.08,0,0,1-.14,0c0-.05-.18,0-.17,0s.19-.06.29-.1.11,0,.1,0a.19.19,0,0,0-.14,0,.55.55,0,0,0-.18.11.45.45,0,0,0-.12.34l.23.37a.12.12,0,0,0,.12-.11s.11-.11.06-.2-.18-.17-.19-.06l.06.07c-.07.15-.32,0-.28-.16s.18-.27.21-.3a.54.54,0,0,1,.5,0l.17.09,0,.28a.57.57,0,0,1-.14.42.51.51,0,0,1-.26.14.43.43,0,0,1-.3,0,.59.59,0,0,1-.2-.17c-.1-.13-.13-.32-.24-.48s-.16-.56-.07-.59a.48.48,0,0,1,.5,0Z"/><path d="M109.07,60.52a2,2,0,0,1,.29,1.29,3.1,3.1,0,0,0-.19.66,1.26,1.26,0,0,0,.18.63,5.35,5.35,0,0,1,.5,1.17c.09.4.1.74.22,1.24l-.06.06a1.55,1.55,0,0,1-1.08-1,2.85,2.85,0,0,1-.07-1.39,2,2,0,0,0,0-.68c-.06-.22-.2-.43-.27-.65a1.54,1.54,0,0,1,.38-1.33Z"/><path d="M110.55,63.16c.37.19.53.42.52.69a3.6,3.6,0,0,0-.12.44.43.43,0,0,0,.21.33c.25.16.36.33.44.35s.09.2.48.34l0,.08a.7.7,0,0,1-1,.38.88.88,0,0,1-.38-1,.85.85,0,0,0,0-.43c-.06-.12-.22-.22-.32-.33a.77.77,0,0,1,.12-.86Z"/><path d="M112.31,64.14c.09.26.21.26.23.23a.15.15,0,0,0,0-.21.17.17,0,0,0-.26,0c0-.1-.16-.14-.16-.17a.75.75,0,0,0-.09-.09l.46,0,.08,0c.28.18.36.34.26.46a.51.51,0,0,1-.25.1.56.56,0,0,1-.38-.07.26.26,0,0,1-.35-.11.32.32,0,0,1,0-.35.3.3,0,0,1,.45.07Z"/><path d="M111.15,61.62c-.13-.27-.17-.37-.12-.31l.11.2s0,0,0-.09c-.12-.3-.12-.34.15.15l0,.08c.23.51.19.48,0,.21,0-.07-.07-.11-.06-.09l.09.22c0,.07,0,0-.17-.28Z"/><path d="M113.16,63.3c-.2-.24-.24-.34-.17-.31a1.32,1.32,0,0,0,.2.13s0,0,0-.1c-.18-.28-.16-.35.28,0l.06.07c.35.44.28.46,0,.28-.07,0-.11-.07-.11,0a2.36,2.36,0,0,1,.13.2c0,.07-.06,0-.3-.17Z"/><path d="M105.87,56.35c0-.31,0-.42,0-.35a1,1,0,0,0,0,.22s0,0,0-.11c0-.32-.12-.32.2.16l0,.08c.21.5,0,.53-.13.24,0-.07-.07-.12-.08-.09l0,.24c0,.08-.1,0-.13-.3Z"/><path d="M106.5,54.54c0,.3,0,.4,0,.33v-.23s0,0,0,.1c0,.32,0,.36,0-.2v-.09c0-.56,0-.52,0-.2,0,.07,0,.12,0,.1v-.23c0-.08,0,0,0,.33Z"/><path d="M106.61,54.66c.23-.2.32-.25.29-.18a1.82,1.82,0,0,0-.14.19s0,0,.1-.05c.26-.19.33-.18,0,.25l-.06.07c-.43.36-.44.29-.26,0,0-.06.07-.11,0-.1l-.19.14c-.07,0,0-.06.18-.29Z"/><path d="M107.71,53.08c-.16-.25-.21-.34-.16-.28l.13.18s0,0,0-.09c-.17-.28-.17-.32.15.14l0,.07c.3.48.26.46.07.2l-.07-.08.12.2c0,.07,0,0-.2-.26Z"/><path d="M112.18,53.38c.23-.24.27-.33.3-.22a.28.28,0,0,0,.07.21s0-.07-.06-.06,0,.38,0,.36,0,.07,0,.06a.24.24,0,0,0,.14-.24c0-.09-.18-.2-.26-.06l-.05.08c-.18.09-.35-.15-.32-.33a.5.5,0,0,1,.4-.4.48.48,0,0,1,.35.1.54.54,0,0,1,.22.26c.07.17,0,.26-.08.35s-.22.08-.28.15-.12.21-.25.26-.32-.13-.28-.44Z"/><path d="M113.81,53.64c0,.3.16.37.13.3a.49.49,0,0,0-.14-.19s0,0,.07.07.23.09.23.06-.14-.11-.42-.05h-.09c-.29,0-.39-.11-.42-.21s.13-.14.3-.09.13,0,.13,0a1,1,0,0,1-.08-.23c0-.11.18-.06.28.23Z"/><path d="M113.29,54.93h-.2c-.32,0-.36,0,.2,0h.09c.56,0,.52,0,.2,0h-.29Z"/><path d="M113.28,55.69c0,.3,0,.41,0,.33v-.13c0,.32,0,.36,0-.2V55.6c0-.55,0-.52,0-.2v-.13c0-.07,0,0,0,.33Z"/><path d="M113.55,57.75a7.2,7.2,0,0,1,1.36,2.46c.08.46.23.92.35,1.41s-.06,1.12.19,1.28a.94.94,0,0,0,.47.08c.23,0,.43,0,.4-.06a1.81,1.81,0,0,0,.2-.42,2.9,2.9,0,0,0,.18-.57,1.87,1.87,0,0,0,0-1.09c-.06-.28-.57-.69-.51-.34l0,.09c-.19,0-.27-.26-.13-.44a.52.52,0,0,1,.5-.15,1.29,1.29,0,0,1,.76.48,2.11,2.11,0,0,1,.29,1.65,2.91,2.91,0,0,1-.26.77,2.21,2.21,0,0,1-.59.73,1.19,1.19,0,0,1-1,0,1.15,1.15,0,0,1-.77-.49c-.28-.69.16-1.06-.07-1.48s-.54-.75-.75-1.18a7.24,7.24,0,0,1-.77-2.75Z"/><path d="M114.78,57.17c.08-.2.14-.28.19-.31s.06.09.08.22l-.17.33c.07-.08,0,0,0,.07s.12.16.23.1.15-.28,0-.33a.19.19,0,0,0-.3.15v.09c-.08.21-.39.13-.47,0a.37.37,0,0,1,.08-.55c.17-.11.37-.11.45,0s.09.18.22.15h0l-.2.34c-.07.11-.14.24-.16.16a.75.75,0,0,1,0-.36Z"/><path d="M116.32,57.58c.29-.1.38-.14.33-.08a.8.8,0,0,0-.16.16s0,0,.1,0c.29-.16.29-.21,0,.28l0,.08c-.4.39-.52.23-.34,0,.05-.07.08-.11,0-.11s-.16,0-.23.06,0-.12.22-.28Z"/><path d="M116.58,58.74c-.15-.28-.19-.39-.1-.38a1,1,0,0,0,.24.09s0-.07,0-.14-.13-.11-.18,0,0,.41.22.43a.32.32,0,0,0,.39-.28.15.15,0,0,0-.28-.08l0,.08c-.14.1-.35-.05-.34-.27a.47.47,0,0,1,.57-.36.49.49,0,0,1,.32.61.23.23,0,0,1-.27.18c-.09,0-.15,0-.16,0s.07.17.09.25-.15.11-.4-.07Z"/><path d="M117.91,57.92c.28.13.37.19.3.21a1.91,1.91,0,0,0-.24,0s0,0,.09.08c.29.15.32.19-.26.22h-.08c-.54-.15-.48-.28-.15-.31.08,0,.14,0,.12,0s-.15-.08-.21-.12,0-.1.35,0Z"/><path d="M117.66,59.57c-.19.26-.22.37-.18.29a.17.17,0,0,0-.1-.19s0,.06.08,0,.09-.16.05-.2a.14.14,0,0,1,.12,0,1.15,1.15,0,0,1,.19.49V60a.56.56,0,0,1-.42.36.35.35,0,0,1-.18-.11.41.41,0,0,1-.2-.38c0-.18.1-.24.11-.32a.53.53,0,0,1,.14-.38c.24-.15.42,0,.43.33Z"/><path d="M118.35,59.58h-.21c-.31,0-.35,0,.21,0h.09c.55,0,.52,0,.2,0h-.29Z"/><path d="M112.09,48.37c-.33,0-.33.24-.26.16a.45.45,0,0,0,.1-.21s-.05,0-.07.09-.12.22-.22.21a.41.41,0,0,1-.11-.51l0-.07a.63.63,0,0,0,.21-.37s.08.07.14.25,0,.14.1.13.15-.12.25-.13.24.39-.1.46Z"/><path d="M110.94,46.79c.12-.28.17-.37.15-.29l-.07.22s0,0,.06-.09c.14-.29.18-.31,0,.21l0,.09c-.23.51-.24.46-.14.16,0-.08,0-.13,0-.1l-.1.2c0,.07,0,0,.08-.32Z"/><path d="M112.46,46.94c.27-.15.25-.31.2-.25a.61.61,0,0,0-.07.22s0,0,0-.09-.17-.19-.2-.15.07.19.37.21h.09c.27.1.31.31.25.43a.27.27,0,0,1-.4,0c-.07-.06-.09-.11-.13-.09s-.11.15-.18.19-.23-.18,0-.4Z"/><path d="M112.72,45.22c-.09-.29-.12-.39-.08-.32l.08.22s0,0,0-.1c-.09-.31-.09-.35.1.17l0,.09c.16.53.14.5,0,.2l0-.09.06.22q0,.12-.12-.3Z"/><path d="M114.09,48.13a1.17,1.17,0,0,1-.21-.08l.32.19c0,.2,0,.29-.23.18s-.27.06-.17.23.2,0,.06-.24-.16-.15-.1-.15a1.5,1.5,0,0,1,.29.45v.09a.61.61,0,0,1-.47.39c-.07,0-.22,0-.45-.27s.08-.62.14-.59c.23-.06.36-.07.33-.35s.24-.3.43-.19l.33.18v0a1.06,1.06,0,0,1-.18.13Z"/><path d="M116.76,51.42c-.25-.18-.25-.33-.17-.3s.14.15.17.17,0,0,0-.11c0-.34.32-.35.14.2l0,.08c-.2.54.12.53,0,.19,0-.07,0-.12,0-.1a.68.68,0,0,0,.14.18c.08,0,.06-.1-.2-.26Z"/><path d="M121.88,51.53c.23-.2.19-.33.15-.3a.28.28,0,0,0,0,.21c0,.07,0,0,0,0a.19.19,0,0,0-.3.09c0,.1.22.23.34.06l-.14-.45.17.13.06.06a1.22,1.22,0,0,1,.1.2l-.14-.45c.23-.16.57.06.54.26a.37.37,0,0,1-.39.37c-.07,0-.11,0-.14.07s-.09.2-.16.22-.28-.15-.12-.42Z"/><path d="M122.89,49.52c.3,0,.4,0,.33.06a1,1,0,0,0-.22.07s0,0,.11,0c.33,0,.32-.14-.1.25l-.07.05c-.5.27-.58,0-.3-.14.07,0,.11-.09.08-.1s-.17,0-.24,0,0-.14.32-.17Z"/><path d="M123.38,51.45a.34.34,0,0,1,.13.17c0,.06,0,.14.08.08s.08-.11,0-.26-.32-.16-.35-.1.08.18.14.15.06-.09,0-.18-.15-.2-.16-.17.23.06.31-.24l0-.08a.41.41,0,0,1,.61.33.43.43,0,0,1-.41.46c-.1,0-.18,0-.2.08s.06.22-.13.37a.41.41,0,0,1-.53-.57c.07-.11.12-.08.16-.07a.66.66,0,0,0,.21,0Z"/><path d="M124.29,50c.29.08.4,0,.32,0a.49.49,0,0,0-.22,0l.09,0c.32-.11.2-.32-.13.15l0,.07c-.39.42-.57.14-.28-.05.07,0,.11-.07.08-.08s-.17,0-.23,0,0-.15.33-.1Z"/><path d="M124.77,51.16c-.13-.28-.14-.39-.06-.36s.15.14.19.15,0-.05,0-.12c-.09-.32,0-.41.36,0l0,.08c.23.52.12.54-.14.33-.06-.05-.11-.08-.11,0s0,.16.06.23-.1,0-.3-.2Z"/><path d="M125.41,50.27c-.17.27-.38.24-.36.12s.13-.16.15-.2,0,0-.11,0-.25-.15-.22-.25.24-.16.47,0l.07.06c.19.22.34.2.39.17s-.06-.11-.23-.08l-.09,0a.46.46,0,0,0,.19-.12c0-.06-.11-.05-.22.23Z"/><path d="M120.15,48.88c.08-.33-.19-.36-.11-.22s.21,0,.21,0-.08,0-.06.07.2.21.29-.17a.45.45,0,0,0-.3-.4,0,0,0,0,0,0,0s0,.19.32.26l.08.05a.43.43,0,0,1-.27.64.38.38,0,0,1-.21,0,.54.54,0,0,1-.44-.48c.09-.52.45-.44.55-.37s.18.16.27.21a.47.47,0,0,1,.33.32.34.34,0,0,1-.63.21Z"/><path d="M120.23,46.84c0-.3,0-.4,0-.33v.23s0,0,0-.1c0-.32,0-.36,0,.2v.09c0,.56,0,.52,0,.2,0-.08,0-.13,0-.1v.23c0,.07,0,0,0-.33Z"/><path d="M120.34,46.84c0-.3,0-.4,0-.33l0,.23s0,0,0-.1c0-.32.06-.36.09.2v.09c0,.56-.06.52-.09.2,0-.08,0-.13,0-.1l0,.23c0,.07,0,0,0-.33Z"/><path d="M121.46,48.43c0-.31-.08-.39,0-.34a.62.62,0,0,0,.17.16s0,0,0-.11c-.21-.28-.31-.1.27-.18h.09c.58.15.39.58,0,.49-.09,0-.14,0-.15,0s0,.17,0,.26-.23.08-.35-.21Z"/><path d="M119.62,46c.13.27.17.37.13.3l-.11-.2,0,.09c.14.3.14.33-.12-.16l0-.08c-.25-.51-.22-.48-.07-.2,0,.07.06.12.05.09l-.09-.21c0-.07,0,0,.16.29Z"/><path d="M119.34,45.86c-.28.1-.39.12-.32.08l.2-.12-.11,0c-.3.09-.35.08.15-.18l.08,0c.53-.19.51-.14.23,0-.07,0-.11.06-.09.06l.22-.07c.08,0,0,0-.28.18Z"/><path d="M119.87,44.24c-.09.29-.13.38-.14.3a2.15,2.15,0,0,0,0-.23s0,0,0,.1c-.11.3-.16.33-.08-.23l0-.09c.16-.53.19-.49.16-.17,0,.08,0,.13,0,.11a1.77,1.77,0,0,0,.08-.22c0-.07,0,0,0,.34Z"/></g></g></svg>