<svg xmlns="http://www.w3.org/2000/svg" viewBox="0 0 70.84 115.18"><defs><style>.cls-1,.cls-2{fill:#dfddb3;}.cls-2{font-size:17.46px;font-family:GillSans, Gill Sans;letter-spacing:0.02em;}.cls-3{font-size:23.69px;font-family:DINNextLTPro-Condensed, DIN Next LT Pro;letter-spacing:-0.01em;}.cls-4{fill:#262626;}</style></defs><g id="Layer_2" data-name="Layer 2"><g id="Ingredients_Map" data-name="Ingredients Map"><path class="cls-1" d="M63.31,20.13a27.84,27.84,0,0,0-3.37-11.9c-2.16-3.6-7.65-5.14-7.65-5.14C44.4-1.49,33.91-.67,25.78,3.52S11.62,14.81,7,22.4c-2.15,3.54-2.45,6.2-3.13,10.23S10.78,51.55,13.1,53c10.15,6.42,13.4,7.32,25.49,5.65,3.17-.44,7.66,2.09,10,0,1.79-1.62,7.94-4.12,9-6.25A62.2,62.2,0,0,0,63.31,20.13Z"/><text class="cls-2" transform="translate(8.64 84.75)">Jamaica<tspan class="cls-3"><tspan x="-8.64" y="25.46">KOLA NUT</tspan></tspan></text><path class="cls-4" d="M7.24,44.7C6,41.61,5.51,38.28,4.45,35.12a12.66,12.66,0,0,1-.5-5,11,11,0,0,1,.55-2.47c.27-.8.59-1.56.86-2.34a16.15,16.15,0,0,1,2-4.61A32.58,32.58,0,0,1,10.76,17c.59-.59,1.16-1.18,1.73-1.78s1.11-1.23,1.7-1.83c1.16-1.21,2.39-2.34,3.6-3.47s2.53-2.21,3.79-3.26,2.36-2.32,3.71-3.35A11.31,11.31,0,0,1,27.45,2a13.07,13.07,0,0,1,2.34-.92,24.6,24.6,0,0,1,5-.7c.83,0,1.67-.07,2.5-.09a16.06,16.06,0,0,1,2.5.06c.83.07,1.66.17,2.48.23s1.66.05,2.49.07a8.68,8.68,0,0,1,4.83,1.26,2.89,2.89,0,0,1,.9.94,3.52,3.52,0,0,1,.3.58.9.9,0,0,1,0,.38.4.4,0,0,1-.33.35,1.51,1.51,0,0,1-.69-.09c-.21-.06-.41-.16-.6-.22a1.91,1.91,0,0,0-1.11-.15c-.34.08-.62.41-1.06.59a3.17,3.17,0,0,0-.56.21c-.17.09-.33.22-.5.33a5.55,5.55,0,0,1-1.11.67,2.72,2.72,0,0,1-1.32.2,7.16,7.16,0,0,0-1.19-.14c-.37,0-.53.24-.73.63a2.62,2.62,0,0,1-.4.56L41,7l-.2.21-.83.93A6.31,6.31,0,0,1,39,9a2.12,2.12,0,0,1-1.35.41,2.37,2.37,0,0,1-1.25-.6l-.48-.39a1.05,1.05,0,0,0-.39-.23s0,0-.08,0l0,0-.1.08-.16.09-.58.27L34,9a1.78,1.78,0,0,0-.42.28s0,0,0,0,0-.16-.06-.15.08,0,.17,0,.39.06.62.12a1.49,1.49,0,0,1,.37.13.83.83,0,0,1,.33.31c.15.21.23.38.32.49s.48.21.85.12a3,3,0,0,1,1.4-.11l.22.1a1,1,0,0,1,.2.2.79.79,0,0,1,.14.49,1.83,1.83,0,0,1-.2.73,3.73,3.73,0,0,1-.8,1.12c-.75.62-1.6.77-2.2,1.23a4.88,4.88,0,0,0-1.45,1.8A9.69,9.69,0,0,1,32.2,18a3.1,3.1,0,0,1-1.13.84,2.1,2.1,0,0,1-.74.13A1.58,1.58,0,0,1,30,19a1,1,0,0,1-.42-.16,3.38,3.38,0,0,1-.5-.46c-.14-.13-.21-.16-.27-.15l-.08,0-.13,0c-.08,0-.16.08-.24.12a2.21,2.21,0,0,0-.45.3c-.28.24-.54.56-.85.88a3.09,3.09,0,0,1-1.14.78l-.59.2a5.38,5.38,0,0,0-.55.24c-.36.17-.72.36-1.07.57a13.24,13.24,0,0,0-2,1.42,6.5,6.5,0,0,0-1.18,2,5.94,5.94,0,0,1-.66,1.13,6.25,6.25,0,0,1-.94.92,8,8,0,0,0-1.66,1.74A21.33,21.33,0,0,0,16,30.68c-.39.73-.75,1.47-1.06,2.22a8,8,0,0,0-.63,2.34c-.36,3.29-.29,6.62-.33,9.95l-.06,1.25a3.22,3.22,0,0,1-.21,1.25.69.69,0,0,1-.57.34,1.74,1.74,0,0,1-.64-.08,9.16,9.16,0,0,1-1.18-.42,16.66,16.66,0,0,1-2.22-1.15,10.41,10.41,0,0,1-1-.72A2.69,2.69,0,0,1,7.24,44.7Zm.06,0a2.57,2.57,0,0,0,.8.91,8.86,8.86,0,0,0,1,.71,17,17,0,0,0,2.21,1.12,9.06,9.06,0,0,0,1.17.41c.38.09.87.14,1.05-.21a3.07,3.07,0,0,0,.18-1.19l0-1.24c0-3.32-.2-6.65.08-10a8.4,8.4,0,0,1,.59-2.48,18.36,18.36,0,0,1,1-2.3,20.8,20.8,0,0,1,1.29-2.18,8.44,8.44,0,0,1,.8-1,12.58,12.58,0,0,1,.94-.87,5.91,5.91,0,0,0,.83-.83,7.72,7.72,0,0,0,.58-1,7.06,7.06,0,0,1,1.32-2.25,14.21,14.21,0,0,1,2.07-1.51c.37-.22.74-.42,1.13-.61.2-.09.4-.18.6-.25l.59-.2a2.46,2.46,0,0,0,.89-.63c.27-.27.54-.61.89-.91a2.6,2.6,0,0,1,.58-.4,3.13,3.13,0,0,1,.32-.15l.16-.06.23-.05a1.09,1.09,0,0,1,.83.34,3.13,3.13,0,0,0,.4.38.26.26,0,0,0,.17.06,1,1,0,0,0,.24,0,1.34,1.34,0,0,0,.48-.08,2.45,2.45,0,0,0,.85-.64,5.43,5.43,0,0,0,.64-1c.18-.34.35-.74.56-1.11a5.53,5.53,0,0,1,1.67-2c.75-.54,1.63-.71,2.16-1.18a3.17,3.17,0,0,0,.64-.9,1.35,1.35,0,0,0,.14-.45c0-.13,0-.11-.1-.16a1.46,1.46,0,0,0-.47,0l-.59.12a1.89,1.89,0,0,1-.72.06,1.13,1.13,0,0,1-.75-.39,5.68,5.68,0,0,1-.35-.55.38.38,0,0,0-.12-.11.79.79,0,0,0-.22-.08l-.6-.11a1.33,1.33,0,0,1-.42-.16A.63.63,0,0,1,33,9.38a.5.5,0,0,1,0-.26.52.52,0,0,1,.15-.29,2,2,0,0,1,.6-.43c.19-.1.39-.19.58-.27l.55-.26.11-.06h0l.09-.07a.66.66,0,0,1,.5-.14,1.32,1.32,0,0,1,.69.36l.48.4a1.85,1.85,0,0,0,1,.49c.67.07,1.33-.51,1.88-1.09l.84-.91.23-.23.23-.21A2,2,0,0,0,41.17,6a2.41,2.41,0,0,1,.41-.56,1.09,1.09,0,0,1,.7-.29,5.32,5.32,0,0,1,1.28.16,3,3,0,0,0,2.15-.76,5.77,5.77,0,0,1,.55-.35,3.47,3.47,0,0,1,.6-.22c.34-.12.64-.47,1.12-.59,1-.21,1.75.53,2.43.49.06,0,.06,0,.07-.06a.55.55,0,0,0,0-.23A2.89,2.89,0,0,0,50.18,3a2.62,2.62,0,0,0-.8-.86,7,7,0,0,0-2.22-1A10.53,10.53,0,0,0,44.71.88c-.82,0-1.66,0-2.49-.08S40.56.63,39.73.56A15.81,15.81,0,0,0,37.25.5c-.83,0-1.66.06-2.49.11a24.38,24.38,0,0,0-4.89.74,12.93,12.93,0,0,0-2.28.95,12,12,0,0,0-2.07,1.3c-1.27,1-2.34,2.34-3.63,3.42s-2.53,2.13-3.71,3.31-2.42,2.27-3.56,3.47c-.57.59-1.11,1.22-1.69,1.84s-1.16,1.19-1.75,1.78A31.6,31.6,0,0,0,7.82,21a16.74,16.74,0,0,0-2.06,4.45,19.36,19.36,0,0,0-1.51,4.7,12.5,12.5,0,0,0,.37,4.9C5.61,38.25,6.07,41.58,7.3,44.68Z"/><path class="cls-4" d="M17,46.07c.05-1.76.12-3.52,0-5.27s.09-3.52-.08-5.26a9.45,9.45,0,0,1-.08-2.66,2.31,2.31,0,0,1,.68-1.19,9.57,9.57,0,0,1,1.08-.79,11.19,11.19,0,0,0,1-.81,12.81,12.81,0,0,1,1-.89,1.87,1.87,0,0,1,.64-.3,1,1,0,0,0,.48-.26A1.88,1.88,0,0,0,22,27.5a3.76,3.76,0,0,1,.28-1.36,6,6,0,0,1,.7-1.18,12.7,12.7,0,0,1,1.71-2.07A7.16,7.16,0,0,1,27,21.53,15.76,15.76,0,0,1,29.63,21a8.94,8.94,0,0,0,1.25-.24,3.22,3.22,0,0,0,1-.61c.64-.53,1.25-1.2,1.92-1.78s1.33-1.15,2-1.75c.31-.3.62-.6.9-.92s.54-.68.85-1a19.64,19.64,0,0,1,2-1.81,8.67,8.67,0,0,0,.93-.87,8.6,8.6,0,0,1,1-1c.66-.59,1.33-1.15,2-1.75a19.58,19.58,0,0,1,2-1.69c.73-.51,1.52-.93,2.28-1.36S49.17,5.31,50,4.89A10,10,0,0,1,52.45,4a4.23,4.23,0,0,1,2.65.22c.41.15.84.25,1.25.44a2.45,2.45,0,0,1,1.06.85A5.17,5.17,0,0,1,58,6.67l.48,1.23c.64,1.63,1.28,3.27,1.9,4.91l1.89,4.92a16.57,16.57,0,0,1,.88,2.51,13.93,13.93,0,0,1,.34,2.64c.08,1.77,0,3.53,0,5.29,0,.87,0,1.74.06,2.61s.2,1.73.3,2.61a13.39,13.39,0,0,1,.06,2.69,14.88,14.88,0,0,1-.58,2.62,27.61,27.61,0,0,1-1.79,5,8.59,8.59,0,0,1-.73,1.15c-.27.35-.52.7-.78,1.06-.52.71-1,1.43-1.62,2.11a6.8,6.8,0,0,1-2.1,1.79,14.75,14.75,0,0,0-2.24,1.29c-.73.48-1.47,1-2.27,1.4a23.48,23.48,0,0,1-2.46,1,20,20,0,0,1-2.5,1c-.87.23-1.74.39-2.61.55a18.17,18.17,0,0,1-2.67.28c-.91,0-1.79-.07-2.66-.11l-1.33-.09a4.47,4.47,0,0,1-1.4-.32,1.5,1.5,0,0,1-.37-.28.88.88,0,0,1-.14-.23l-.06-.12c-.08-.15-.2-.26-.37-.52a.8.8,0,0,1-.11-.29.61.61,0,0,1,.07-.34,1.22,1.22,0,0,1,.31-.35c.2-.16.4-.27.58-.39a5.85,5.85,0,0,0,1-.74c.28-.29.42-.58.3-.87a4.24,4.24,0,0,0-.24-.57.86.86,0,0,0-.13-.2s0,0,0,0a.11.11,0,0,0,.09,0,.91.91,0,0,0-.19.41,2.19,2.19,0,0,0-.06.59,2.73,2.73,0,0,1,0,.37.72.72,0,0,1-.27.45,1.42,1.42,0,0,1-.79.21,4.77,4.77,0,0,1-1.37-.17,1.65,1.65,0,0,0-.55-.07.52.52,0,0,0-.2.09.28.28,0,0,0-.12.14,7.41,7.41,0,0,0-.06,1.24,1.17,1.17,0,0,1-.31.73,3.47,3.47,0,0,1-.57.44,1.15,1.15,0,0,1-.76.1c-.23,0-.44,0-.66-.09L28.51,54a20.27,20.27,0,0,1-5.15-1.18c-.82-.31-1.66-.55-2.49-.88a2.42,2.42,0,0,1-1.11-.74,2.76,2.76,0,0,1-.27-1.31c0-.44-.07-.87-.14-1.31a2,2,0,0,0-.47-1.17A2.14,2.14,0,0,0,17.67,47c-.2,0-.48-.05-.6-.28A1.71,1.71,0,0,1,17,46.07Zm.07,0a1.64,1.64,0,0,0,.05.63c.09.18.34.21.54.24a2.16,2.16,0,0,1,1.27.39,2.12,2.12,0,0,1,.51,1.22c.06.43.11.87.15,1.31a2.65,2.65,0,0,0,.26,1.24,2.28,2.28,0,0,0,1.06.69c.81.32,1.66.54,2.5.83a20.09,20.09,0,0,0,5.12,1.05l2.62.31c.42,0,.92.16,1.17,0a4.14,4.14,0,0,0,.46-.37.76.76,0,0,0,.17-.48A6.15,6.15,0,0,1,33,51.75a.82.82,0,0,1,.28-.36,1,1,0,0,1,.4-.18,2,2,0,0,1,.75,0,4.13,4.13,0,0,0,1.24.13,1.18,1.18,0,0,0,.47-.1s.07-.16.07-.39a2.62,2.62,0,0,1,.07-.72,1.9,1.9,0,0,1,.12-.36,1,1,0,0,1,.28-.39.5.5,0,0,1,.39-.08.53.53,0,0,1,.28.16,1.4,1.4,0,0,1,.25.34,4,4,0,0,1,.28.64,1.19,1.19,0,0,1,0,.85,1.92,1.92,0,0,1-.42.66,6.63,6.63,0,0,1-1.09.86c-.2.13-.37.23-.52.35s-.13.12-.13.14,0-.08,0,0a4.18,4.18,0,0,1,.4.54l.08.18s0,0,0,0a.61.61,0,0,0,.16.11,3.83,3.83,0,0,0,1.16.24c.42,0,.86.07,1.3.09.89,0,1.75.14,2.6.11a17.26,17.26,0,0,0,2.57-.28c.86-.16,1.72-.32,2.54-.55a17.65,17.65,0,0,0,2.42-.93,20.68,20.68,0,0,0,2.39-1c.76-.4,1.49-.87,2.22-1.35A15.36,15.36,0,0,1,56,49.2a6.15,6.15,0,0,0,1.88-1.6c.56-.65,1.08-1.35,1.6-2.06.26-.36.52-.71.79-1.06A7.41,7.41,0,0,0,61,43.42a28.43,28.43,0,0,0,1.77-4.89,13.46,13.46,0,0,0,.6-2.51,12.37,12.37,0,0,0,0-2.58c-.08-.86-.2-1.74-.26-2.63a26,26,0,0,1,0-2.65c.06-1.76.13-3.51.08-5.26a14.77,14.77,0,0,0-.29-2.58A16,16,0,0,0,62,17.84L60.15,12.9Q59.24,10.43,58.27,8l-.48-1.23a5.15,5.15,0,0,0-.55-1.16,2.39,2.39,0,0,0-1-.77c-.39-.17-.82-.27-1.24-.42a4.1,4.1,0,0,0-2.52-.2,10.16,10.16,0,0,0-2.41.95c-.75.42-1.47.94-2.23,1.38s-1.52.88-2.23,1.39a18.55,18.55,0,0,0-2,1.7c-.64.61-1.3,1.19-1.94,1.78a7.71,7.71,0,0,0-.89.92,9.68,9.68,0,0,1-1,.95A19.94,19.94,0,0,0,38,15.05c-.29.31-.53.66-.84,1s-.61.66-.93,1c-.65.62-1.32,1.18-2,1.77S33,20,32.29,20.62a3.46,3.46,0,0,1-1.23.7,8.54,8.54,0,0,1-1.34.26,14.82,14.82,0,0,0-2.54.48A6.76,6.76,0,0,0,25,23.29a12.89,12.89,0,0,0-1.66,2,3.69,3.69,0,0,0-.95,2.26,2.18,2.18,0,0,1-.32,1.39,1.47,1.47,0,0,1-.67.36,1.37,1.37,0,0,0-.55.23c-.33.23-.65.55-1,.83a12,12,0,0,1-1.06.82,10,10,0,0,0-1.07.73,2.11,2.11,0,0,0-.63,1.05,9.78,9.78,0,0,0,0,2.59c.13,1.77-.16,3.53,0,5.27A51.66,51.66,0,0,1,17.09,46.07Z"/><path class="cls-4" d="M56.05,49.86A23.86,23.86,0,0,0,53,51.7a15.56,15.56,0,0,1-3.21,1.61,28.29,28.29,0,0,1-3.36,1.27,35.37,35.37,0,0,1-3.53.66,17.33,17.33,0,0,1-3.6,0c-.59,0-1.19-.05-1.79-.11a5.76,5.76,0,0,1-.91-.15,1.1,1.1,0,0,1-.78-.57,1.12,1.12,0,0,0-.23-.35,1.27,1.27,0,0,1-.27-.42.56.56,0,0,1,.22-.52,2.47,2.47,0,0,1,.38-.28,6.34,6.34,0,0,0,1.36-1.08.92.92,0,0,0,.25-.7,3.78,3.78,0,0,0-.3-.78.89.89,0,0,0-.21-.26h0l-.09.13a1.69,1.69,0,0,0-.18.78c0,.15,0,.29,0,.47a.67.67,0,0,1-.31.51,2,2,0,0,1-1,.16,3.93,3.93,0,0,1-.92-.12,1.68,1.68,0,0,0-.78-.06c-.45.11-.25.78-.28,1.41a1.21,1.21,0,0,1-.45.95,4.37,4.37,0,0,1-.37.29,1,1,0,0,1-.54.17c-.67,0-1.22-.14-1.83-.2l-1.77-.22c-1.19-.16-2.38-.31-3.57-.59a7,7,0,0,1-.89-.26l-.84-.31-1.7-.55a4.68,4.68,0,0,1-1.71-.86,1.56,1.56,0,0,1-.45-1c0-.32,0-.61-.08-.9A7.75,7.75,0,0,0,19,48.22a.9.9,0,0,0-.42-.51,2.54,2.54,0,0,0-.78-.16,2.51,2.51,0,0,1-.49-.1.7.7,0,0,1-.31-.19.58.58,0,0,1-.17-.34,5.3,5.3,0,0,1,0-1l.06-1.79a32.53,32.53,0,0,0-.06-3.56c-.09-1.22.05-2.42,0-3.6a17.63,17.63,0,0,0-.09-1.77,7.51,7.51,0,0,1,0-1.84,2.48,2.48,0,0,1,.31-.94,2.65,2.65,0,0,1,.64-.73c.26-.21.52-.36.76-.52s.48-.33.71-.51c.47-.36.87-.77,1.36-1.17a2.09,2.09,0,0,1,.43-.27,4.39,4.39,0,0,1,.45-.14c.27-.1.44-.2.51-.43a2.94,2.94,0,0,0,.09-.82,3.65,3.65,0,0,1,.12-.93,4.58,4.58,0,0,1,.87-1.65c.37-.47.7-1,1.1-1.43a5.93,5.93,0,0,1,1.39-1.21,7.94,7.94,0,0,1,1.67-.78,11.07,11.07,0,0,1,1.78-.38c.59-.08,1.19-.15,1.76-.27a3.34,3.34,0,0,0,1.49-.8c.45-.38.85-.82,1.3-1.23s.89-.8,1.34-1.2a17.08,17.08,0,0,0,2.51-2.52A19.71,19.71,0,0,1,39.88,13c.22-.2.44-.4.63-.61a5.64,5.64,0,0,1,.63-.66c.43-.42.89-.8,1.34-1.2.9-.78,1.72-1.65,2.69-2.38s2-1.27,3.06-1.9a15.51,15.51,0,0,1,3.16-1.7l0,.23-.87-.68h.17a.53.53,0,0,1-.4.11,1.86,1.86,0,0,1-.34-.06c-.22-.06-.42-.14-.62-.21a2.26,2.26,0,0,0-1.15-.21c-.38,0-.66.37-1.08.57a2.55,2.55,0,0,1-.33.11,1.39,1.39,0,0,0-.26.1A4.13,4.13,0,0,0,46,4.8a5.63,5.63,0,0,1-1.12.67,2.7,2.7,0,0,1-1.32.2,6.09,6.09,0,0,0-1.22-.14c-.39,0-.58.31-.78.7a2.13,2.13,0,0,1-.41.55c-.17.16-.3.27-.45.43l-.85,1a5.16,5.16,0,0,1-1,.85,1.78,1.78,0,0,1-1.34.31,2.69,2.69,0,0,1-1.18-.66,5.48,5.48,0,0,0-.48-.39c-.15-.12-.31-.18-.39-.14s-.08.06-.23.15a2.19,2.19,0,0,1-.3.16l-.58.27c-.18.09-.37.18-.54.28a2.29,2.29,0,0,0-.23.16c-.07,0-.07.12-.07,0s0,0,.11,0l.29,0a3.72,3.72,0,0,1,.67.15,1,1,0,0,1,.34.26,2,2,0,0,1,.19.29,1,1,0,0,0,.32.4,1.53,1.53,0,0,0,1.07,0,3.71,3.71,0,0,1,.68-.1.9.9,0,0,1,.77.3.93.93,0,0,1,.06.82,3,3,0,0,1-.28.63,2.87,2.87,0,0,1-.92,1,13.32,13.32,0,0,0-2.17,1.23,5.83,5.83,0,0,0-1.38,2,6.34,6.34,0,0,1-1.45,2.19,2.33,2.33,0,0,1-1.31.59,1.82,1.82,0,0,1-.77-.11,2.13,2.13,0,0,1-.56-.47.57.57,0,0,0-.34-.22,1.29,1.29,0,0,0-.45.15,3.08,3.08,0,0,0-.9.73,6.37,6.37,0,0,1-.94.93,4.18,4.18,0,0,1-1.23.56,10.82,10.82,0,0,0-2.17,1.16,12.09,12.09,0,0,0-1,.72,3.21,3.21,0,0,0-.81.84c-.43.65-.68,1.48-1.14,2.25a4.64,4.64,0,0,1-.87,1.05l-1,.84a9.31,9.31,0,0,0-1.5,1.93,20.77,20.77,0,0,0-2.14,4.49A6.89,6.89,0,0,0,14.44,35c0,.41-.08.83-.11,1.25-.05.83-.09,1.67-.11,2.52,0,1.68,0,3.36,0,5.06,0,.85,0,1.72-.05,2.56A3.85,3.85,0,0,1,14,47.79a1,1,0,0,1-.76.55,2.06,2.06,0,0,1-.76-.06c-.86-.25-1.64-.51-2.45-.83a8,8,0,0,1-2.33-1.28l.57-.39a16.06,16.06,0,0,0,.89,1.82c.16.3.33.62.47.95.07.17.13.35.18.51a2.6,2.6,0,0,0,.19.42,12.71,12.71,0,0,0,2.57,3,15.23,15.23,0,0,0,1.55,1.28l.2.13.2.11.45.24.92.48,3.66,1.93-.08,0,5.38,1.25,1.35.3.67.14a2.13,2.13,0,0,0,.64,0c.92,0,1.84,0,2.77.08,1.84.07,3.68.19,5.52.32s3.68.25,5.5.55a16.75,16.75,0,0,0,2.73.22,14.38,14.38,0,0,0,2.7-.37,15.86,15.86,0,0,0,5-2.25,19.52,19.52,0,0,0,4.07-3.68A15.12,15.12,0,0,0,57.31,51a3.86,3.86,0,0,0,.59-2.61l.05,0C57.25,48.78,56.82,49.54,56.05,49.86Zm0-.07c.73-.3,1.15-1.06,1.89-1.43l0,0,0,.05a4,4,0,0,1-.58,2.68,14.79,14.79,0,0,1-1.57,2.27,19.81,19.81,0,0,1-4.07,3.74,20.42,20.42,0,0,1-2.4,1.38,16,16,0,0,1-2.61,1,14.17,14.17,0,0,1-2.75.42,16.1,16.1,0,0,1-2.78-.18c-1.82-.27-3.65-.35-5.49-.47s-3.67-.2-5.51-.25c-.92,0-1.84,0-2.76,0a2.68,2.68,0,0,1-.73,0l-.68-.13-1.35-.29-5.4-1.17h0l0,0-3.66-1.87-.91-.47-.46-.23-.26-.14-.23-.15A17.88,17.88,0,0,1,12.07,53,13.57,13.57,0,0,1,9.34,49.8a4.06,4.06,0,0,1-.22-.52C9.06,49.11,9,49,9,48.82s-.28-.6-.44-.9A15.65,15.65,0,0,1,7.58,46L7,44.68l1.1,1a7.36,7.36,0,0,0,2.11,1.14c.76.3,1.59.57,2.36.79a1.5,1.5,0,0,0,.49,0c.13,0,.16,0,.22-.16a3.49,3.49,0,0,0,.14-1.11c0-.85.06-1.67,0-2.52,0-1.69-.05-3.39,0-5.09,0-.85.06-1.7.12-2.55,0-.43.07-.86.12-1.28a7,7,0,0,1,.28-1.3A21.42,21.42,0,0,1,16.25,29a10,10,0,0,1,1.63-2.06l.95-.84a3.56,3.56,0,0,0,.75-.9c.42-.68.67-1.5,1.17-2.27a4,4,0,0,1,.95-1c.34-.27.69-.52,1.05-.76A12.27,12.27,0,0,1,25.05,20a3.26,3.26,0,0,0,1.08-.47,5.73,5.73,0,0,0,.86-.85,3.64,3.64,0,0,1,1.08-.85l.33-.13a1,1,0,0,1,.42-.08,1.15,1.15,0,0,1,.73.4,2,2,0,0,0,.4.36,1.07,1.07,0,0,0,.21.05,2.35,2.35,0,0,0,.26,0,1.71,1.71,0,0,0,1-.44,5.93,5.93,0,0,0,1.33-2,6.5,6.5,0,0,1,1.52-2.14,12.37,12.37,0,0,1,2.24-1.25,2.46,2.46,0,0,0,.78-.85,2.42,2.42,0,0,0,.24-.52.5.5,0,0,0,0-.4c0-.07-.19-.12-.38-.11a2.9,2.9,0,0,0-.57.08,1.91,1.91,0,0,1-1.41,0c-.49-.31-.54-.88-.79-.93a3.71,3.71,0,0,0-.57-.13l-.33-.06c-.11-.05-.28,0-.41-.31a.48.48,0,0,1,.2-.49,2.17,2.17,0,0,1,.29-.2,5.46,5.46,0,0,1,.59-.3l.58-.26L35,7.94a1.3,1.3,0,0,1,.3-.19.81.81,0,0,1,.77.2c.18.13.34.28.5.41a2.19,2.19,0,0,0,1,.58c.74.15,1.44-.45,2-1L40.4,7a6.31,6.31,0,0,1,.47-.44,1.86,1.86,0,0,0,.35-.47,2.31,2.31,0,0,1,.38-.56,1,1,0,0,1,.67-.3,5.73,5.73,0,0,1,1.29.14,3.06,3.06,0,0,0,2.22-.8,5.21,5.21,0,0,1,.56-.34,1.79,1.79,0,0,1,.32-.13A1.84,1.84,0,0,0,46.94,4a4.34,4.34,0,0,1,1.16-.59,2.52,2.52,0,0,1,1.31.24l.58.21c.18.05.42.07.48,0l.08-.09.09.08.9.7.19.15-.23.08a15.73,15.73,0,0,0-3.14,1.66c-1,.63-2.1,1.16-3,1.88s-1.78,1.57-2.7,2.34c-.44.4-.9.8-1.32,1.21a6.15,6.15,0,0,0-.61.64,5.61,5.61,0,0,1-.65.64,20.71,20.71,0,0,0-2.55,2.49A18,18,0,0,1,35,18.2c-.44.4-.89.8-1.32,1.21s-.84.84-1.3,1.24a3.57,3.57,0,0,1-1.63.89c-.6.13-1.19.2-1.78.29A7.78,7.78,0,0,0,25.64,23a9,9,0,0,0-2.37,2.56A4.47,4.47,0,0,0,22.48,27a3.33,3.33,0,0,0-.1.84,3.33,3.33,0,0,1-.11,1,.9.9,0,0,1-.32.46,1.69,1.69,0,0,1-.46.24,4.06,4.06,0,0,0-.41.13,2,2,0,0,0-.33.21c-.43.36-.87.81-1.35,1.18-.24.19-.48.37-.74.54s-.51.33-.72.5a2.05,2.05,0,0,0-.77,1.37,7.72,7.72,0,0,0,.06,1.72c.06.6.09,1.22.1,1.82,0,1.21-.12,2.4,0,3.56a33.74,33.74,0,0,1,.1,3.62L17.36,46a5.71,5.71,0,0,0,0,.83v.05l.08,0a1.8,1.8,0,0,0,.38.08,3,3,0,0,1,1,.21,1.53,1.53,0,0,1,.72.83,7.78,7.78,0,0,1,.31,1.85c0,.3,0,.61.07.88a.94.94,0,0,0,.27.63,4.26,4.26,0,0,0,1.48.72l1.7.57.85.32a7.27,7.27,0,0,0,.83.25c1.14.27,2.32.44,3.5.6l1.78.23c.59.08,1.21.21,1.74.23a.54.54,0,0,0,.31-.09c.1-.06.21-.16.33-.25a.77.77,0,0,0,.29-.62c0-.27,0-.57,0-.89a1.18,1.18,0,0,1,.13-.53.86.86,0,0,1,.47-.36,1.88,1.88,0,0,1,1,.06,4.27,4.27,0,0,0,.85.13,1.7,1.7,0,0,0,.78-.1c.16-.05.13-.34.14-.66a2.12,2.12,0,0,1,.24-.94.9.9,0,0,1,.18-.23.36.36,0,0,1,.39,0,.85.85,0,0,1,.36.41,2.69,2.69,0,0,1,.19.43,1.53,1.53,0,0,1,.14.47,1.25,1.25,0,0,1-.33.94,6.41,6.41,0,0,1-1.45,1.12c-.23.14-.53.36-.49.5s.36.42.47.72a.86.86,0,0,0,.62.44,5.94,5.94,0,0,0,.86.16c.59.06,1.19.09,1.78.13a16.39,16.39,0,0,0,3.57,0,30.22,30.22,0,0,0,3.52-.64,26,26,0,0,0,3.35-1.24,15.36,15.36,0,0,0,3.2-1.58A24,24,0,0,1,56,49.79Z"/><path class="cls-4" d="M39.18,50.18c-.21-.15-.24-.3-.15-.4s.18-.06.22-.1,0-.11,0-.19a.44.44,0,0,1,.05-.41.49.49,0,0,1,.48,0l.05,0a.67.67,0,0,1,0,.44.4.4,0,0,1-.3.14c-.07,0-.14.05-.13.11s.08.14.1.19-.06.17-.31.23Z"/><path class="cls-4" d="M41.6,48.16c-.23,0-.3-.11-.23-.15l.18,0s0,0,0-.08-.12-.17-.07-.24a.26.26,0,0,1,.36.16v.06c0,.23.19.24.2.24s0,0-.15-.08-.1,0-.08,0l.16.06s0,0-.25,0Z"/><path class="cls-4" d="M41.83,45.82c-.24-.06-.3-.14-.24-.2s.16,0,.19,0,0-.06-.05-.11a.21.21,0,0,1,0-.29c.07-.06.23-.08.39.09l0,.06a.45.45,0,0,0,.16.28l-.18,0c-.07,0-.11,0-.09,0s.11.07.15.09,0,.06-.25.11Z"/><path class="cls-4" d="M43.26,46.49c-.23,0-.3-.06-.25-.1a1.43,1.43,0,0,0,.18,0s0,0-.07-.06-.16-.13-.14-.2a.28.28,0,0,1,.37,0l0,0a.42.42,0,0,0,.27.18h-.18c-.06,0-.11,0-.08,0l.17,0c.05,0,0,.06-.25.09Z"/><path class="cls-4" d="M33.85,40.45c.13-.2.24-.23.28-.16s0,.17,0,.2.07,0,.13,0,.21-.07.27,0,.05.19-.07.38l0,0c-.2.1-.28.14-.33.13s-.05-.08,0-.23,0-.11,0-.1-.11.09-.15.12-.08-.05-.06-.29Z"/><path class="cls-4" d="M32.52,38.41c0-.24.1-.31.16-.25a1.47,1.47,0,0,0,.07.17s.06,0,.09-.07.13-.16.2-.15.14.15.1.37l0,.06c-.13.18-.16.26-.2.28s-.06,0-.1-.19,0-.1-.07-.08a1.47,1.47,0,0,0-.07.17c-.05.06-.1,0-.15-.25Z"/><path class="cls-4" d="M32.37,48.61c-.21-.16-.22-.35-.11-.44s.19,0,.24-.08.06-.11.06-.19a.42.42,0,0,1,.17-.4.46.46,0,0,1,.49.1l0,.06a1,1,0,0,1-.09.43.42.42,0,0,1-.32,0c-.08,0-.15,0-.15.07s.05.16.07.21-.07.13-.32.2Z"/><path class="cls-4" d="M34.19,47.62c-.18-.18-.2-.3-.12-.37s.18,0,.22-.08,0-.1,0-.17a.35.35,0,0,1,0-.36.45.45,0,0,1,.45-.09l.05,0c.12.21.14.32.12.41a.35.35,0,0,1-.28.16c-.07,0-.13.05-.13.1s.09.14.11.2-.09.17-.34.18Z"/><path class="cls-4" d="M36.68,48.16c-.23,0-.3,0-.25-.08l.18,0s0,0-.08,0-.17,0-.18-.08a.87.87,0,0,1,.33-.07h.07a.81.81,0,0,1,.33.07s0,0-.18.08-.1,0-.07,0l.17,0s0,.05-.25.08Z"/><path class="cls-4" d="M38.2,47.14c-.15-.21-.14-.34,0-.4s.18,0,.23,0,.06-.09.05-.17a.38.38,0,0,1,.13-.37.43.43,0,0,1,.46.06l0,.06a.73.73,0,0,1,0,.43.46.46,0,0,1-.32.07c-.08,0-.14,0-.15.06s0,.16.05.22-.12.15-.37.12Z"/><path class="cls-4" d="M38.12,37.19c-.23,0-.3-.09-.25-.13l.18-.07s0,0-.08-.06-.17-.09-.18-.14.11-.09.33-.13h.07c.22,0,.3.09.33.13s0,.09-.18.14-.1,0-.07.06a1.47,1.47,0,0,0,.17.07c.05,0,0,.09-.25.13Z"/><path class="cls-4" d="M35.47,41.58c-.23-.08-.29-.18-.23-.26s.16-.06.19-.09,0-.08,0-.13-.12-.22-.08-.3a.36.36,0,0,1,.4-.07l.06,0c.15.18.2.26.2.32s-.07.09-.22.11-.11,0-.1.08.12.09.16.12,0,.11-.26.19Z"/><path class="cls-4" d="M36.08,43.78c-.24,0-.29-.11-.23-.13a1,1,0,0,1,.18,0s0,0-.06-.07-.11-.14-.1-.16.13,0,.3.16l0,0a1.24,1.24,0,0,0,.24.22l0,0-.12-.07s-.09,0-.07,0l.16.06s0,0-.24,0Z"/><path class="cls-4" d="M34.27,38.23c-.14-.19-.2-.22-.14-.22s.14.06.17.05,0,0,0-.08-.13-.14-.11-.17.13,0,.34,0l.06,0c.18.12.24.19.25.24s-.08.06-.21,0-.11,0-.1,0,.09.1.11.15-.08.09-.28,0Z"/><path class="cls-4" d="M21.32,34.27a1.21,1.21,0,0,1-.53.74,3.25,3.25,0,0,0-.43.18.65.65,0,0,0-.21.39,6.67,6.67,0,0,1-.2.8,4.37,4.37,0,0,1-.42.78h-.07a1.2,1.2,0,0,1-.21-1,1.43,1.43,0,0,1,.59-.81,1.21,1.21,0,0,0,.36-.31c.09-.13.12-.32.21-.46a1,1,0,0,1,.87-.38Z"/><path class="cls-4" d="M29.75,49.46c.06.29,0,.46-.14.56s-.22,0-.29.11a.27.27,0,0,0-.09.25.9.9,0,0,1-.15.53.84.84,0,0,1-.56.26l-.06,0a.81.81,0,0,1,0-.62.83.83,0,0,1,.45-.34.34.34,0,0,0,.22-.18c0-.08,0-.22,0-.31s.24-.28.53-.26Z"/><path class="cls-4" d="M30,32.91c.08.26,0,.42-.16.48s-.21,0-.28,0-.11.09-.15.18a.47.47,0,0,1-.85.15l0-.07a.81.81,0,0,1,.28-.42.58.58,0,0,1,.41,0c.09,0,.17,0,.21,0s0-.18.06-.25.18-.14.45-.08Z"/><path class="cls-4" d="M29.88,26c.11.26.1.42,0,.54s-.21.07-.27.13-.07.15-.08.26a.57.57,0,0,1-.39.54.5.5,0,0,1-.62-.28l0-.07.34-.32.35-.09a.23.23,0,0,0,.19-.15c0-.08,0-.2,0-.29s.18-.3.47-.31Z"/><path class="cls-4" d="M29.63,23.7c.09.23.07.35,0,.38s-.17,0-.22,0-.07.07-.07.15a.35.35,0,0,1-.15.33.43.43,0,0,1-.43-.15l0-.06a.64.64,0,0,1,.06-.41.36.36,0,0,1,.31,0c.07,0,.13,0,.15,0s0-.16,0-.22.15-.11.37,0Z"/><path class="cls-4" d="M21.22,31.64c.09.23.07.35,0,.37S21,32,21,32s-.07.07-.07.15a.33.33,0,0,1-.15.32.44.44,0,0,1-.43-.14l0-.06a.64.64,0,0,1,.06-.41.33.33,0,0,1,.31,0c.07,0,.14,0,.15,0s0-.16,0-.22.15-.11.38,0Z"/><path class="cls-4" d="M26.9,26.13c.17.17.17.27.1.27s-.14-.08-.17-.08,0,.05,0,.1,0,.19,0,.22-.1-.07-.29-.17l-.06,0a.39.39,0,0,1-.12-.35s.09,0,.21.06.09.05.09,0-.07-.12-.09-.16,0,0,.26.09Z"/><path class="cls-4" d="M27.36,27.34c.16.18.17.29.09.32s-.17,0-.21,0,0,.07,0,.14a.25.25,0,0,1,0,.3c-.08,0-.21.05-.4-.08l0-.05c-.08-.22-.1-.31-.08-.37s.11-.06.26,0,.12,0,.12,0-.06-.13-.08-.18.09-.11.33,0Z"/><path class="cls-4" d="M28.72,28.22c.17.16.18.27.1.27s-.14-.07-.17-.07,0,0,0,.11,0,.21-.1.24a.25.25,0,0,1-.16-.06.23.23,0,0,1-.08-.26l0-.05a.26.26,0,0,0,0-.32s0,.05.11.14.09.07.08,0a.6.6,0,0,0-.09-.15c0-.06,0,0,.25.08Z"/><path class="cls-4" d="M26.85,30.54c.16.19.16.3.07.33s-.16-.05-.2,0,0,.05,0,.13a.24.24,0,0,1-.15.28.31.31,0,0,1-.32-.28v-.07a1.16,1.16,0,0,0,.06-.33l.17.1c.06,0,.11,0,.11,0s0-.13-.06-.17.06-.06.29,0Z"/><path class="cls-4" d="M25.81,28.84c.17.16.2.24.13.24s-.15,0-.18,0,0,0,0,.11,0,.2,0,.25-.22,0-.32-.2l0-.06a.67.67,0,0,0-.11-.31.62.62,0,0,1,.17.07c.06,0,.11,0,.1,0a1.12,1.12,0,0,0-.11-.15c0-.06.06-.05.27.05Z"/><path class="cls-4" d="M24.59,29.07c.18.16.17.27.1.25a.87.87,0,0,1-.14-.12s0,0,0,.09,0,.19,0,.2-.09-.09-.16-.3v-.07c0-.21-.05-.29-.05-.32a.79.79,0,0,0,.08.16c0,.05.06.08.05.05l-.09-.14s0,0,.18.16Z"/><path class="cls-4" d="M24.73,31.69c.14.22.14.34,0,.4s-.18,0-.22,0-.05.1,0,.17a.37.37,0,0,1,0,.36.52.52,0,0,1-.44.08l-.06,0a.52.52,0,0,1-.11-.44.4.4,0,0,1,.32-.16c.08,0,.14,0,.15-.09s-.05-.16-.06-.22.13-.17.38-.13Z"/><path class="cls-4" d="M23.21,31c.18.15.22.22.16.22l-.17-.06s0,0,0,.08.11.15.09.18-.13,0-.33-.1l-.06,0c-.16-.15-.21-.22-.22-.26s.07,0,.2,0,.1,0,.09,0L22.89,31c0-.06.05-.05.27.05Z"/><path class="cls-4" d="M23.65,33.16c.18.15.23.2.17.19l-.16-.06s0,0,0,.07.12.14.11.16a.8.8,0,0,1-.31-.12l-.06,0c-.17-.14-.22-.21-.23-.24s.06,0,.18,0,.1,0,.08,0a.71.71,0,0,0-.12-.13s0,0,.24.08Z"/><path class="cls-4" d="M32.44,45.69c-.23.08-.35,0-.34-.07s.08-.14.08-.19,0-.06-.12-.08a.28.28,0,0,1-.26-.17c0-.1.06-.21.26-.33h.06c.23,0,.32.06.37.11s0,.13-.09.25-.06.11,0,.13a.67.67,0,0,0,.2,0c.08,0,.05.11-.09.32Z"/><path class="cls-4" d="M28.68,40.18c-.21-.14-.24-.25-.16-.31s.17,0,.2,0,0-.08,0-.13-.11-.21-.08-.27.14-.07.37-.08l.07,0c.19.13.23.25.23.33s-.1.13-.25.15-.13,0-.12.06.1.12.13.16-.06.11-.3.12Z"/><path class="cls-4" d="M20.81,39.76c-.23,0-.3,0-.26,0a1.18,1.18,0,0,1,.16-.08s0,0-.08,0-.18-.08-.17-.14.14-.14.35-.06l.06,0a.43.43,0,0,0,.31.11l-.18,0c-.06,0-.1,0-.07,0h.18c.05,0,0,0-.23.13Z"/><path class="cls-4" d="M24.9,40.26c.15.21.16.32.07.36a1.25,1.25,0,0,0-.21,0c-.05,0,0,.09,0,.15a.35.35,0,0,1,.09.27.75.75,0,0,1-.37.18h-.06c-.21-.11-.27-.24-.27-.36a.31.31,0,0,1,.27-.23c.07,0,.13,0,.13-.1s-.06-.15-.07-.21.11-.16.35-.1Z"/><path class="cls-4" d="M19.48,33.71c-.17.17-.24.2-.25.14a.74.74,0,0,0,0-.18s-.05,0-.09,0-.13.14-.16.13a1.58,1.58,0,0,1,0-.34v-.07c.07-.21.17-.27.24-.28s.12.08.11.23,0,.11,0,.1.11-.08.16-.11.08.08,0,.3Z"/><path class="cls-4" d="M32.43,48.76c-.18.17-.28.18-.3.1s0-.16,0-.2-.06,0-.13,0a.23.23,0,0,1-.29,0,.38.38,0,0,1,.11-.39l.06,0c.22-.06.29-.1.35-.09s0,.09,0,.24,0,.12,0,.11.12-.07.17-.09.1.08,0,.31Z"/><path class="cls-4" d="M44.84,46.83c-.15.18-.18.24-.17.19a.58.58,0,0,0,0-.18s0,0,0,.07,0,.18,0,.18a1.36,1.36,0,0,1-.15-.31v-.06c0-.23,0-.31.07-.35s.13,0,.17.17,0,.11.06.09.09-.12.13-.15.11.07,0,.29Z"/><path class="cls-4" d="M22.87,47.58c-.16.18-.18.24-.18.19s0-.15,0-.18,0,0,0,.07,0,.18-.05.18a2.33,2.33,0,0,1-.15-.3v-.07c0-.22,0-.31.07-.35s.13,0,.17.17,0,.11.06.09.09-.11.13-.14.11.07,0,.28Z"/><path class="cls-4" d="M31.31,50.62c-.23.09-.37,0-.34-.13s.13-.13.15-.17,0-.08-.07-.13a.26.26,0,0,1-.09-.31c.06-.08.18-.12.4-.06l.06,0a1.3,1.3,0,0,1,.21.31s-.07.05-.21.08-.11,0-.08.07.14,0,.18,0,0,0-.16.23Z"/><path class="cls-4" d="M23,36.53c.16.18.18.27.1.29s-.16,0-.19,0,0,.06,0,.12.07.2,0,.26-.16,0-.38,0l-.06,0a.6.6,0,0,1-.17-.35c0-.05.11-.08.26-.06s.12,0,.11,0-.07-.13-.09-.18.08-.1.31,0Z"/><path class="cls-4" d="M24.63,36.3c.18.16.21.24.13.25a1.35,1.35,0,0,0-.18,0s0,0,0,.1.09.18.07.22-.14,0-.35-.06l-.06,0c-.15-.17-.19-.25-.19-.3s.08-.06.22,0,.11,0,.1,0-.08-.11-.1-.15.06-.07.29,0Z"/><path class="cls-4" d="M31.62,31.33c.14.2.13.32,0,.36s-.17,0-.21,0-.05.07,0,.14a.3.3,0,0,1-.07.31.47.47,0,0,1-.41-.09l0-.06a.57.57,0,0,1,0-.4c.06-.05.14-.07.29,0s.13,0,.14,0-.05-.15-.06-.2.1-.1.34,0Z"/><path class="cls-4" d="M31.85,34.87c0,.27,0,.4-.17.42s-.19,0-.25,0-.1.08-.12.16a.47.47,0,0,1-.26.35.53.53,0,0,1-.5-.14l0-.07a.69.69,0,0,1,.19-.44.51.51,0,0,1,.39,0c.08,0,.16,0,.2,0s0-.18.05-.24.21-.13.45,0Z"/><path class="cls-4" d="M26.07,49.56c.18.15.22.22.16.21l-.17-.05s0,0,0,.08.11.15.09.18-.13,0-.32-.11l-.06,0c-.17-.15-.21-.22-.22-.27s.07,0,.2,0,.1,0,.09,0-.1-.09-.12-.13,0-.05.26.06Z"/><path class="cls-4" d="M25.87,46.71c0,.24-.06.32-.14.29s-.1-.14-.14-.15-.06,0-.08.1-.09.19-.16.21-.15-.08-.27-.28v-.07c0-.22.07-.31.13-.36s.14,0,.23.13.09.09.12.05,0-.14.06-.19.13,0,.25.21Z"/><path class="cls-4" d="M28.92,36.73c0,.27-.12.39-.27.39s-.19-.09-.26-.08-.12.05-.17.13a.51.51,0,0,1-.39.26.55.55,0,0,1-.44-.31v-.07a.77.77,0,0,1,.35-.34.54.54,0,0,1,.38.1.19.19,0,0,0,.2,0c.06,0,.07-.17.12-.23s.23-.08.45.07Z"/><path class="cls-4" d="M27,35.47c0,.24,0,.31,0,.26a1.62,1.62,0,0,0-.06-.17s0,0,0,.08,0,.18,0,.17.07-.18-.12-.29l-.06,0c-.17-.15-.11-.32,0-.37s.14,0,.16.16,0,.1,0,.07a.86.86,0,0,0,0-.17c0-.06,0,0,.09.24Z"/><path class="cls-4" d="M25.66,46.17c.17.17.2.25.12.27a1.37,1.37,0,0,0-.19,0s0,0,0,.11.08.19.06.24-.16,0-.37-.05l-.06,0c-.15-.17-.18-.26-.18-.32s.09-.07.24,0,.11,0,.11,0a1.4,1.4,0,0,0-.1-.16c0-.08.07-.08.3,0Z"/><path class="cls-4" d="M49.84,50.2c.18.16.17.28.08.29s-.15-.07-.19-.08,0,0,0,.11-.12.2-.18.2-.12-.12-.14-.34v-.06a2.39,2.39,0,0,1,.12-.33s0,0,.07.17.07.09.07.06a.79.79,0,0,0-.08-.16s0,0,.24.1Z"/><path class="cls-4" d="M53.08,44.84c.18.16.15.29.08.27S53,45,53,45s0,0,0,.09,0,.11,0,.13,0,0,0,0a.61.61,0,0,0-.24-.22l-.06,0c-.16-.15-.15-.28-.13-.33s.1,0,.19.1.07.07.06,0a.66.66,0,0,0-.07-.15s0,0,.19.16Z"/><path class="cls-4" d="M49.4,45.48c0,.24,0,.33-.09.31s-.13-.1-.18-.1-.05.05-.06.12a.26.26,0,0,1-.14.27c-.1,0-.23,0-.36-.22v-.07c0-.23,0-.32.07-.37s.13,0,.26.07.12,0,.14,0,0-.15,0-.21.15-.06.32.12Z"/><path class="cls-4" d="M43.56,52.46c0,.25,0,.33-.09.32s-.13-.1-.18-.1,0,0-.06.12a.27.27,0,0,1-.14.27.39.39,0,0,1-.35-.23l0-.07c0-.23,0-.32.08-.37s.13,0,.25.07.12.05.14,0,0-.15,0-.2.16-.07.32.12Z"/><path class="cls-4" d="M41.17,50.79c0,.24,0,.33-.08.32S41,51,40.91,51s-.06.05-.06.12-.07.23-.15.26-.23,0-.35-.23V51.1c0-.23,0-.32.07-.37s.13,0,.26.07.11.05.14,0,0-.15,0-.21.15-.06.32.13Z"/><path class="cls-4" d="M47.34,48.85c-.18.16-.27.18-.3.1a1.54,1.54,0,0,0,0-.19s-.06,0-.12,0-.2.08-.25,0,0-.16,0-.38l0-.06c.17-.15.26-.18.33-.17s.09.1.07.25,0,.12,0,.12.12-.08.17-.09.1.08,0,.31Z"/><path class="cls-4" d="M45,51.81c-.18.17-.27.19-.3.11s0-.16,0-.2-.06,0-.12,0-.2.07-.25,0,0-.16,0-.38l0-.06c.17-.15.26-.18.34-.17s.08.1.06.25,0,.12,0,.12.13-.08.18-.1.1.09,0,.32Z"/><path class="cls-4" d="M45.25,49.83c-.23,0-.3,0-.26,0l.17-.06s0,0-.08,0-.12.14-.1.15.06-.09.18-.27l0-.06c.14-.16.2-.22.27-.2a.16.16,0,0,1,0,.24s-.09.06-.06.07l.17,0c.06,0,0,.05-.22.12Z"/><path class="cls-4" d="M30,52.44c-.23,0-.3,0-.25,0l.16-.06s0,0-.07,0-.11.16-.1.17.06-.1.17-.29l0-.06c.13-.17.19-.22.25-.22a.17.17,0,0,1,0,.26c-.05,0-.08.06-.06.07h.18c.06,0,0,0-.23.11Z"/><path class="cls-4" d="M47.75,49.33c-.14.19-.19.23-.18.18s.07-.13.08-.16,0,0-.06,0-.12.13-.14.13a.93.93,0,0,1,.14-.31l0,0c.13-.18.19-.24.22-.25s0,0-.06.17,0,.1,0,.08a1.67,1.67,0,0,0,.12-.13s0,0-.1.23Z"/><path class="cls-4" d="M43.9,50.08c-.14.18-.19.23-.18.18s.07-.13.08-.16l-.06.06c-.09.1-.12.13-.13.12a1,1,0,0,1,.13-.3l0-.06c.12-.18.18-.24.21-.25s0,0-.05.17,0,.1,0,.08.08-.1.11-.13,0,0-.09.23Z"/><path class="cls-4" d="M23.3,50.05c-.14.19-.19.23-.18.18a.79.79,0,0,0,.08-.16s0,0-.06,0-.12.13-.14.12a2.46,2.46,0,0,1,.14-.29l0-.06a1.85,1.85,0,0,1,.22-.25s0,0-.06.17,0,.1,0,.08a1.67,1.67,0,0,0,.12-.13s0,0-.1.23Z"/><path class="cls-4" d="M52.6,49c0,.24,0,.31,0,.26s-.06-.14-.08-.16,0,0,0,.09,0,.17.05.17,0-.13-.22-.24l-.06,0c-.16-.15-.13-.29-.09-.35s.13,0,.21.1.06.09.07.06,0-.13,0-.18.07,0,.14.23Z"/><path class="cls-4" d="M50.56,47.36c.19.15.14.33,0,.3s-.11-.16-.12-.18,0,0-.12,0-.21,0-.23,0,.08-.12.29-.18h.06a.81.81,0,0,0,.33-.07s-.06,0-.17.06-.07.07-.07.05a.18.18,0,0,0-.06-.18c-.12,0-.15.12.07.23Z"/><path class="cls-4" d="M27.73,50.49c.19.15.22.23.14.24a.61.61,0,0,1-.18-.07s0,0-.06.1a.2.2,0,0,1-.25.14c-.05,0-.05-.15.05-.34l0-.06c.14-.16.19-.23.18-.27s-.08,0-.09.17,0,.1,0,.07a.45.45,0,0,0-.12-.12l.23.11Z"/><path class="cls-4" d="M27.77,46.92c.19.13.22.22.13.24s-.15-.07-.18-.08,0,0-.07.1-.19.16-.24.14-.05-.15.05-.35l0,0c.14-.17.19-.24.19-.27s-.07,0-.08.16,0,.1,0,.08-.08-.1-.12-.12,0,0,.22.11Z"/><path class="cls-4" d="M24.91,27.12c.16.18.19.26.11.28a1.48,1.48,0,0,0-.19,0s0,.06,0,.11.09.19.06.24-.15,0-.37,0l-.06,0c-.15-.16-.18-.26-.18-.32s.1-.07.24-.05.12,0,.11,0-.07-.13-.09-.17.07-.09.3,0Z"/><path class="cls-4" d="M22.73,29.27c.16.17.19.25.12.27s-.16,0-.19,0,0,.05,0,.11.09.18.06.23-.15,0-.37,0l-.05,0c-.16-.16-.19-.25-.19-.32s.1-.07.24,0,.12,0,.11,0-.08-.12-.1-.17.08-.08.3,0Z"/><path class="cls-4" d="M47.75,51.73c0,.24,0,.31-.1.26s0-.16,0-.18,0,0-.08.06-.15.13-.19.11,0-.13.08-.33l0-.06.22-.25a1.5,1.5,0,0,0,0,.17c0,.06,0,.11,0,.08a.74.74,0,0,0,0-.17c0-.05,0,0,.06.24Z"/><path class="cls-4" d="M29.38,38.3c.16.18.15.3.06.3s-.14-.07-.18-.07,0,0,0,.12,0,.21,0,.24-.15,0-.3-.2l0-.06c-.07-.22-.06-.31,0-.36s.1,0,.21.07.1.06.1,0-.05-.13-.06-.17,0,0,.26.07Z"/><path class="cls-4" d="M31.37,37.86c.19.14.19.25.12.24s-.12-.1-.14-.11,0,0,0,.09,0,.18,0,.2-.11-.09-.17-.3v-.06a1.57,1.57,0,0,0-.07-.33.68.68,0,0,0,.09.16s.06.08.05.06l-.11-.14s0,0,.2.15Z"/><path class="cls-4" d="M30.45,47.74c0,.24,0,.31,0,.27s-.1-.12-.13-.13,0,0,0,.1,0,.19,0,.22S30.1,48.14,30,48l0-.06c-.06-.21-.06-.3,0-.35s.11,0,.21.09.09.07.1,0,0-.14,0-.19.12,0,.23.18Z"/><path class="cls-4" d="M31.24,50.73c.18.15.22.22.15.22a1.77,1.77,0,0,0-.17-.06s0,0,0,.09.11.14.1.17a.62.62,0,0,1-.33-.09L31,51c-.17-.14-.22-.21-.23-.25s.07,0,.2,0,.11,0,.09,0-.09-.1-.12-.13.05,0,.27.05Z"/><path class="cls-4" d="M46.61,26.9c-.13-.21-.06-.34,0-.31s.11.13.14.14.05,0,.09-.07.17-.15.23-.13.09.15,0,.36l0,.06a2.5,2.5,0,0,1-.22.26s0,0,0-.18,0-.1,0-.08a.39.39,0,0,0,0,.18c0,.05,0,0-.18-.18Z"/><path class="cls-4" d="M45.15,31c-.15.19-.25.19-.26.11a.74.74,0,0,1,.1-.16s0,0-.1,0-.2-.07-.2-.12.1-.09.33-.1h.06l.33.05a.74.74,0,0,0-.17,0c-.06,0-.09.05-.07,0a.33.33,0,0,0,.14-.1s0,0-.13.21Z"/><path class="cls-4" d="M47,29.25c-.18-.15-.22-.22-.15-.23a.59.59,0,0,0,.17,0s0,0,0-.09-.11-.15-.1-.19.14,0,.35.07l0,0c.17.15.22.23.23.28s-.08,0-.22,0-.1,0-.09,0a1.3,1.3,0,0,0,.12.14c0,.06-.06.06-.27,0Z"/><path class="cls-4" d="M46.14,28.32c0-.23,0-.3,0-.25l.06.16s0,0,0-.06a.14.14,0,0,0-.2-.06s.09.06.3.15l.06,0c.19.11.25.15.26.21a.16.16,0,0,1-.25,0c-.05-.05-.07-.09-.07-.06s0,.13,0,.17,0,0-.11-.22Z"/><path class="cls-4" d="M43.73,31c-.21-.11-.26-.15-.21-.13l.15.08s0,0-.06-.05l-.15-.09.29.14.06,0,.29.17s0,0-.17-.07l-.07,0,.15.09-.22-.1Z"/><path class="cls-4" d="M46,32.6c-.23,0-.3,0-.25,0l.16-.07s0,0-.08,0-.16.06-.15.08.15,0,.24-.21l0-.06c.13-.18.28-.16.33-.13s0,.11-.1.18-.09.06-.06.06a.56.56,0,0,0,.17,0c.06,0,0,0-.22.13Z"/><path class="cls-4" d="M46.93,31.29c-.11.21-.3.16-.28,0a.23.23,0,0,1,.18-.11s0-.05,0-.11,0-.19,0-.21.11.07.19.27l0,.07c0,.21.09.28.12.3s0-.06-.07-.17-.07-.07,0-.07.14,0,.17-.07-.14-.17-.23.05Z"/><path class="cls-4" d="M39.18,50.18c-.21-.15-.24-.3-.15-.4s.18-.06.22-.1,0-.11,0-.19a.44.44,0,0,1,.05-.41.49.49,0,0,1,.48,0l.05,0a.67.67,0,0,1,0,.44.4.4,0,0,1-.3.14c-.07,0-.14.05-.13.11s.08.14.1.19-.06.17-.31.23Z"/><path class="cls-4" d="M41.6,48.16c-.23,0-.3-.11-.23-.15l.18,0s0,0,0-.08-.12-.17-.07-.24a.26.26,0,0,1,.36.16v.06c0,.23.19.24.2.24s0,0-.15-.08-.1,0-.08,0l.16.06s0,0-.25,0Z"/><path class="cls-4" d="M41.83,45.82c-.24-.06-.3-.14-.24-.2s.16,0,.19,0,0-.06-.05-.11a.21.21,0,0,1,0-.29c.07-.06.23-.08.39.09l0,.06a.45.45,0,0,0,.16.28l-.18,0c-.07,0-.11,0-.09,0s.11.07.15.09,0,.06-.25.11Z"/><path class="cls-4" d="M43.26,46.49c-.23,0-.3-.06-.25-.1a1.43,1.43,0,0,0,.18,0s0,0-.07-.06-.16-.13-.14-.2a.28.28,0,0,1,.37,0l0,0a.42.42,0,0,0,.27.18h-.18c-.06,0-.11,0-.08,0l.17,0c.05,0,0,.06-.25.09Z"/><path class="cls-4" d="M27,44.66c.14-.21.24-.24.28-.16s0,.17,0,.2.06,0,.12,0,.22-.06.28,0,0,.18-.08.38l-.05,0a.87.87,0,0,1-.33.14s0-.09,0-.23,0-.12,0-.11S27.06,45,27,45,27,45,27,44.72Z"/><path class="cls-4" d="M32.52,38.41c0-.24.1-.31.16-.25a1.47,1.47,0,0,0,.07.17s.06,0,.09-.07.13-.16.2-.15.14.15.1.37l0,.06c-.13.18-.16.26-.2.28s-.06,0-.1-.19,0-.1-.07-.08a1.47,1.47,0,0,0-.07.17c-.05.06-.1,0-.15-.25Z"/><path class="cls-4" d="M34.19,47.62c-.18-.18-.2-.3-.12-.37s.18,0,.22-.08,0-.1,0-.17a.35.35,0,0,1,0-.36.45.45,0,0,1,.45-.09l.05,0c.12.21.14.32.12.41a.35.35,0,0,1-.28.16c-.07,0-.13.05-.13.1s.09.14.11.2-.09.17-.34.18Z"/><path class="cls-4" d="M36.68,48.16c-.23,0-.3,0-.25-.08l.18,0s0,0-.08,0-.17,0-.18-.08a.87.87,0,0,1,.33-.07h.07a.81.81,0,0,1,.33.07s0,0-.18.08-.1,0-.07,0l.17,0s0,.05-.25.08Z"/><path class="cls-4" d="M38.2,47.14c-.15-.21-.14-.34,0-.4s.18,0,.23,0,.06-.09.05-.17a.38.38,0,0,1,.13-.37.43.43,0,0,1,.46.06l0,.06a.73.73,0,0,1,0,.43.46.46,0,0,1-.32.07c-.08,0-.14,0-.15.06s0,.16.05.22-.12.15-.37.12Z"/><path class="cls-4" d="M38.12,37.19c-.23,0-.3-.09-.25-.13l.18-.07s0,0-.08-.06-.17-.09-.18-.14.11-.09.33-.13h.07c.22,0,.3.09.33.13s0,.09-.18.14-.1,0-.07.06a1.47,1.47,0,0,0,.17.07c.05,0,0,.09-.25.13Z"/><path class="cls-4" d="M35.47,41.58c-.23-.08-.29-.18-.23-.26s.16-.06.19-.09,0-.08,0-.13-.12-.22-.08-.3a.36.36,0,0,1,.4-.07l.06,0c.15.18.2.26.2.32s-.07.09-.22.11-.11,0-.1.08.12.09.16.12,0,.11-.26.19Z"/><path class="cls-4" d="M36.08,43.78c-.24,0-.29-.11-.23-.13a1,1,0,0,1,.18,0s0,0-.06-.07-.11-.14-.1-.16.13,0,.3.16l0,0a1.24,1.24,0,0,0,.24.22l0,0-.12-.07s-.09,0-.07,0l.16.06s0,0-.24,0Z"/><path class="cls-4" d="M34.27,38.23c-.14-.19-.2-.22-.14-.22s.14.06.17.05,0,0,0-.08-.13-.14-.11-.17.13,0,.34,0l.06,0c.18.12.24.19.25.24s-.08.06-.21,0-.11,0-.1,0,.09.1.11.15-.08.09-.28,0Z"/><path class="cls-4" d="M21.32,34.27a1.21,1.21,0,0,1-.53.74,3.25,3.25,0,0,0-.43.18.65.65,0,0,0-.21.39,6.67,6.67,0,0,1-.2.8,4.37,4.37,0,0,1-.42.78h-.07a1.2,1.2,0,0,1-.21-1,1.43,1.43,0,0,1,.59-.81,1.21,1.21,0,0,0,.36-.31c.09-.13.12-.32.21-.46a1,1,0,0,1,.87-.38Z"/><path class="cls-4" d="M29.75,49.46c.06.29,0,.46-.14.56s-.22,0-.29.11a.27.27,0,0,0-.09.25.9.9,0,0,1-.15.53.84.84,0,0,1-.56.26l-.06,0a.81.81,0,0,1,0-.62.83.83,0,0,1,.45-.34.34.34,0,0,0,.22-.18c0-.08,0-.22,0-.31s.24-.28.53-.26Z"/><path class="cls-4" d="M51.27,48.25c.08.26,0,.42-.15.47s-.21,0-.29,0-.11.09-.14.18a.54.54,0,0,1-.35.34.56.56,0,0,1-.51-.19V49a.71.71,0,0,1,.28-.42.58.58,0,0,1,.41,0,.19.19,0,0,0,.2,0c0-.06,0-.18.06-.25s.19-.14.45-.08Z"/><path class="cls-4" d="M29.88,26c.11.26.1.42,0,.54s-.21.07-.27.13-.07.15-.08.26a.57.57,0,0,1-.39.54.5.5,0,0,1-.62-.28l0-.07.34-.32.35-.09a.23.23,0,0,0,.19-.15c0-.08,0-.2,0-.29s.18-.3.47-.31Z"/><path class="cls-4" d="M29.63,23.7c.09.23.07.35,0,.38s-.17,0-.22,0-.07.07-.07.15a.35.35,0,0,1-.15.33.43.43,0,0,1-.43-.15l0-.06a.64.64,0,0,1,.06-.41.36.36,0,0,1,.31,0c.07,0,.13,0,.15,0s0-.16,0-.22.15-.11.37,0Z"/><path class="cls-4" d="M21.22,31.64c.09.23.07.35,0,.37S21,32,21,32s-.07.07-.07.15a.33.33,0,0,1-.15.32.44.44,0,0,1-.43-.14l0-.06a.64.64,0,0,1,.06-.41.33.33,0,0,1,.31,0c.07,0,.14,0,.15,0s0-.16,0-.22.15-.11.38,0Z"/><path class="cls-4" d="M26.9,26.13c.17.17.17.27.1.27s-.14-.08-.17-.08,0,.05,0,.1,0,.19,0,.22-.1-.07-.29-.17l-.06,0a.39.39,0,0,1-.12-.35s.09,0,.21.06.09.05.09,0-.07-.12-.09-.16,0,0,.26.09Z"/><path class="cls-4" d="M27.36,27.34c.16.18.17.29.09.32s-.17,0-.21,0,0,.07,0,.14a.25.25,0,0,1,0,.3c-.08,0-.21.05-.4-.08l0-.05c-.08-.22-.1-.31-.08-.37s.11-.06.26,0,.12,0,.12,0-.06-.13-.08-.18.09-.11.33,0Z"/><path class="cls-4" d="M28.72,28.22c.17.16.18.27.1.27s-.14-.07-.17-.07,0,0,0,.11,0,.21-.1.24a.25.25,0,0,1-.16-.06.23.23,0,0,1-.08-.26l0-.05a.26.26,0,0,0,0-.32s0,.05.11.14.09.07.08,0a.6.6,0,0,0-.09-.15c0-.06,0,0,.25.08Z"/><path class="cls-4" d="M33.52,22.07c.13.24.1.4,0,.49s-.2,0-.26.07-.07.12-.07.21a.55.55,0,0,1-.15.45.54.54,0,0,1-.55,0l0-.06a.81.81,0,0,1,.07-.49.61.61,0,0,1,.38-.17c.09,0,.16,0,.18-.11s0-.19,0-.26.16-.22.44-.2Z"/><path class="cls-4" d="M26.85,30.54c.16.19.16.3.07.33s-.16-.05-.2,0,0,.05,0,.13a.24.24,0,0,1-.15.28.31.31,0,0,1-.32-.28v-.07a1.16,1.16,0,0,0,.06-.33l.17.1c.06,0,.11,0,.11,0s0-.13-.06-.17.06-.06.29,0Z"/><path class="cls-4" d="M25.81,28.84c.17.16.2.24.13.24s-.15,0-.18,0,0,0,0,.11,0,.2,0,.25-.22,0-.32-.2l0-.06a.67.67,0,0,0-.11-.31.62.62,0,0,1,.17.07c.06,0,.11,0,.1,0a1.12,1.12,0,0,0-.11-.15c0-.06.06-.05.27.05Z"/><path class="cls-4" d="M24.59,29.07c.18.16.17.27.1.25a.87.87,0,0,1-.14-.12s0,0,0,.09,0,.19,0,.2-.09-.09-.16-.3v-.07c0-.21-.05-.29-.05-.32a.79.79,0,0,0,.08.16c0,.05.06.08.05.05l-.09-.14s0,0,.18.16Z"/><path class="cls-4" d="M24.73,31.69c.14.22.14.34,0,.4s-.18,0-.22,0-.05.1,0,.17a.37.37,0,0,1,0,.36.52.52,0,0,1-.44.08l-.06,0a.52.52,0,0,1-.11-.44.4.4,0,0,1,.32-.16c.08,0,.14,0,.15-.09s-.05-.16-.06-.22.13-.17.38-.13Z"/><path class="cls-4" d="M23.21,31c.18.15.22.22.16.22l-.17-.06s0,0,0,.08.11.15.09.18-.13,0-.33-.1l-.06,0c-.16-.15-.21-.22-.22-.26s.07,0,.2,0,.1,0,.09,0L22.89,31c0-.06.05-.05.27.05Z"/><path class="cls-4" d="M23.65,33.16c.18.15.23.2.17.19l-.16-.06s0,0,0,.07.12.14.11.16a.8.8,0,0,1-.31-.12l-.06,0c-.17-.14-.22-.21-.23-.24s.06,0,.18,0,.1,0,.08,0a.71.71,0,0,0-.12-.13s0,0,.24.08Z"/><path class="cls-4" d="M22.52,42.25c-.21-.13-.24-.25-.16-.31s.17,0,.2,0,0-.08,0-.13-.11-.21-.08-.27.14-.07.37-.08l.07,0c.19.13.23.25.23.33s-.1.13-.25.15-.13,0-.12.07.1.11.13.16-.06.1-.3.11Z"/><path class="cls-4" d="M20.81,39.76c-.23,0-.3,0-.26,0a1.18,1.18,0,0,1,.16-.08s0,0-.08,0-.18-.08-.17-.14.14-.14.35-.06l.06,0a.43.43,0,0,0,.31.11l-.18,0c-.06,0-.1,0-.07,0h.18c.05,0,0,0-.23.13Z"/><path class="cls-4" d="M24.9,40.26c.15.21.16.32.07.36a1.25,1.25,0,0,0-.21,0c-.05,0,0,.09,0,.15a.35.35,0,0,1,.09.27.75.75,0,0,1-.37.18h-.06c-.21-.11-.27-.24-.27-.36a.31.31,0,0,1,.27-.23c.07,0,.13,0,.13-.1s-.06-.15-.07-.21.11-.16.35-.1Z"/><path class="cls-4" d="M19.48,33.71c-.17.17-.24.2-.25.14a.74.74,0,0,0,0-.18s-.05,0-.09,0-.13.14-.16.13a1.58,1.58,0,0,1,0-.34v-.07c.07-.21.17-.27.24-.28s.12.08.11.23,0,.11,0,.1.11-.08.16-.11.08.08,0,.3Z"/><path class="cls-4" d="M32.43,48.76c-.18.17-.28.18-.3.1s0-.16,0-.2-.06,0-.13,0a.23.23,0,0,1-.29,0,.38.38,0,0,1,.11-.39l.06,0c.22-.06.29-.1.35-.09s0,.09,0,.24,0,.12,0,.11.12-.07.17-.09.1.08,0,.31Z"/><path class="cls-4" d="M44.84,46.83c-.15.18-.18.24-.17.19a.58.58,0,0,0,0-.18s0,0,0,.07,0,.18,0,.18a1.36,1.36,0,0,1-.15-.31v-.06c0-.23,0-.31.07-.35s.13,0,.17.17,0,.11.06.09.09-.12.13-.15.11.07,0,.29Z"/><path class="cls-4" d="M31,38.94c-.15.18-.18.24-.17.19a.58.58,0,0,0,0-.18s0,0-.05.07,0,.18-.05.18a2.33,2.33,0,0,1-.15-.3v-.07c0-.22,0-.31.07-.35s.13,0,.17.17,0,.11.06.09.09-.12.13-.14.12.07,0,.28Z"/><path class="cls-4" d="M31.31,50.62c-.23.09-.37,0-.34-.13s.13-.13.15-.17,0-.08-.07-.13a.26.26,0,0,1-.09-.31c.06-.08.18-.12.4-.06l.06,0a1.3,1.3,0,0,1,.21.31s-.07.05-.21.08-.11,0-.08.07.14,0,.18,0,0,0-.16.23Z"/><path class="cls-4" d="M23,36.53c.16.18.18.27.1.29s-.16,0-.19,0,0,.06,0,.12.07.2,0,.26-.16,0-.38,0l-.06,0a.6.6,0,0,1-.17-.35c0-.05.11-.08.26-.06s.12,0,.11,0-.07-.13-.09-.18.08-.1.31,0Z"/><path class="cls-4" d="M24.63,36.3c.18.16.21.24.13.25a1.35,1.35,0,0,0-.18,0s0,0,0,.1.09.18.07.22-.14,0-.35-.06l-.06,0c-.15-.17-.19-.25-.19-.3s.08-.06.22,0,.11,0,.1,0-.08-.11-.1-.15.06-.07.29,0Z"/><path class="cls-4" d="M31.62,31.33c.14.2.13.32,0,.36s-.17,0-.21,0-.05.07,0,.14a.3.3,0,0,1-.07.31.47.47,0,0,1-.41-.09l0-.06a.57.57,0,0,1,0-.4c.06-.05.14-.07.29,0s.13,0,.14,0-.05-.15-.06-.2.1-.1.34,0Z"/><path class="cls-4" d="M20.14,39.42c-.25,0-.34-.12-.31-.23S20,39.08,20,39s0-.09-.1-.13a.31.31,0,0,1-.22-.23c0-.09.07-.18.26-.32l.07,0a.46.46,0,0,1,.38.21.3.3,0,0,1-.12.3c-.05.06-.09.11-.05.15s.14.06.19.1,0,.16-.19.31Z"/><path class="cls-4" d="M22.37,40.69c-.25.06-.35,0-.36-.08s.07-.16.06-.21-.06-.07-.14-.07a.37.37,0,0,1-.31-.14.48.48,0,0,1,.13-.4l.05,0a.59.59,0,0,1,.44,0,.35.35,0,0,1,0,.32c0,.07,0,.13,0,.15s.16,0,.22,0,.09.15,0,.36Z"/><path class="cls-4" d="M21.37,43.5c-.28,0-.44-.1-.46-.28s.09-.2.09-.28a.31.31,0,0,0-.12-.21.55.55,0,0,1-.19-.48.54.54,0,0,1,.41-.4l.07,0a.94.94,0,0,1,.24.43.68.68,0,0,1-.16.37c-.05.07-.08.15,0,.2s.17.09.23.12.07.2,0,.45Z"/><path class="cls-4" d="M20.14,39.42c-.25,0-.34-.12-.31-.23S20,39.08,20,39s0-.09-.1-.13a.31.31,0,0,1-.22-.23c0-.09.07-.18.26-.32l.07,0a.46.46,0,0,1,.38.21.3.3,0,0,1-.12.3c-.05.06-.09.11-.05.15s.14.06.19.1,0,.16-.19.31Z"/><path class="cls-4" d="M22.37,40.69c-.25.06-.35,0-.36-.08s.07-.16.06-.21-.06-.07-.14-.07a.37.37,0,0,1-.31-.14.48.48,0,0,1,.13-.4l.05,0a.59.59,0,0,1,.44,0,.35.35,0,0,1,0,.32c0,.07,0,.13,0,.15s.16,0,.22,0,.09.15,0,.36Z"/><path class="cls-4" d="M21.37,43.5c-.28,0-.44-.1-.46-.28s.09-.2.09-.28a.31.31,0,0,0-.12-.21.55.55,0,0,1-.19-.48.54.54,0,0,1,.41-.4l.07,0a.94.94,0,0,1,.24.43.68.68,0,0,1-.16.37c-.05.07-.08.15,0,.2s.17.09.23.12.07.2,0,.45Z"/><path class="cls-4" d="M21.5,46.65c0,.27,0,.39-.17.42s-.19,0-.26,0-.09.08-.12.16a.47.47,0,0,1-.26.35.54.54,0,0,1-.49-.14l0-.07a.75.75,0,0,1,.2-.44.5.5,0,0,1,.39,0c.08,0,.16,0,.19,0s0-.18.06-.24.21-.13.45,0Z"/><path class="cls-4" d="M26.07,49.56c.18.15.22.22.16.21l-.17-.05s0,0,0,.08.11.15.09.18-.13,0-.32-.11l-.06,0c-.17-.15-.21-.22-.22-.27s.07,0,.2,0,.1,0,.09,0-.1-.09-.12-.13,0-.05.26.06Z"/><path class="cls-4" d="M25.87,46.71c0,.24-.06.32-.14.29s-.1-.14-.14-.15-.06,0-.08.1-.09.19-.16.21-.15-.08-.27-.28v-.07c0-.22.07-.31.13-.36s.14,0,.23.13.09.09.12.05,0-.14.06-.19.13,0,.25.21Z"/><path class="cls-4" d="M28.92,36.73c0,.27-.12.39-.27.39s-.19-.09-.26-.08-.12.05-.17.13a.51.51,0,0,1-.39.26.55.55,0,0,1-.44-.31v-.07a.77.77,0,0,1,.35-.34.54.54,0,0,1,.38.1.19.19,0,0,0,.2,0c.06,0,.07-.17.12-.23s.23-.08.45.07Z"/><path class="cls-4" d="M27,35.47c0,.24,0,.31,0,.26a1.62,1.62,0,0,0-.06-.17s0,0,0,.08,0,.18,0,.17.07-.18-.12-.29l-.06,0c-.17-.15-.11-.32,0-.37s.14,0,.16.16,0,.1,0,.07a.86.86,0,0,0,0-.17c0-.06,0,0,.09.24Z"/><path class="cls-4" d="M25.66,46.17c.17.17.2.25.12.27a1.37,1.37,0,0,0-.19,0s0,0,0,.11.08.19.06.24-.16,0-.37-.05l-.06,0c-.15-.17-.18-.26-.18-.32s.09-.07.24,0,.11,0,.11,0a1.4,1.4,0,0,0-.1-.16c0-.08.07-.08.3,0Z"/><path class="cls-4" d="M49.84,50.2c.18.16.17.28.08.29s-.15-.07-.19-.08,0,0,0,.11-.12.2-.18.2-.12-.12-.14-.34v-.06a2.39,2.39,0,0,1,.12-.33s0,0,.07.17.07.09.07.06a.79.79,0,0,0-.08-.16s0,0,.24.1Z"/><path class="cls-4" d="M53.08,44.84c.18.16.15.29.08.27S53,45,53,45s0,0,0,.09,0,.11,0,.13,0,0,0,0a.61.61,0,0,0-.24-.22l-.06,0c-.16-.15-.15-.28-.13-.33s.1,0,.19.1.07.07.06,0a.66.66,0,0,0-.07-.15s0,0,.19.16Z"/><path class="cls-4" d="M49.4,45.48c0,.24,0,.33-.09.31s-.13-.1-.18-.1-.05.05-.06.12a.26.26,0,0,1-.14.27c-.1,0-.23,0-.36-.22v-.07c0-.23,0-.32.07-.37s.13,0,.26.07.12,0,.14,0,0-.15,0-.21.15-.06.32.12Z"/><path class="cls-4" d="M43.56,52.46c0,.25,0,.33-.09.32s-.13-.1-.18-.1,0,0-.06.12a.27.27,0,0,1-.14.27.39.39,0,0,1-.35-.23l0-.07c0-.23,0-.32.08-.37s.13,0,.25.07.12.05.14,0,0-.15,0-.2.16-.07.32.12Z"/><path class="cls-4" d="M41.17,50.79c0,.24,0,.33-.08.32S41,51,40.91,51s-.06.05-.06.12-.07.23-.15.26-.23,0-.35-.23V51.1c0-.23,0-.32.07-.37s.13,0,.26.07.11.05.14,0,0-.15,0-.21.15-.06.32.13Z"/><path class="cls-4" d="M47.34,48.85c-.18.16-.27.18-.3.1a1.54,1.54,0,0,0,0-.19s-.06,0-.12,0-.2.08-.25,0,0-.16,0-.38l0-.06c.17-.15.26-.18.33-.17s.09.1.07.25,0,.12,0,.12.12-.08.17-.09.1.08,0,.31Z"/><path class="cls-4" d="M45,51.81c-.18.17-.27.19-.3.11s0-.16,0-.2-.06,0-.12,0-.2.07-.25,0,0-.16,0-.38l0-.06c.17-.15.26-.18.34-.17s.08.1.06.25,0,.12,0,.12.13-.08.18-.1.1.09,0,.32Z"/><path class="cls-4" d="M45.25,49.83c-.23,0-.3,0-.26,0l.17-.06s0,0-.08,0-.12.14-.1.15.06-.09.18-.27l0-.06c.14-.16.2-.22.27-.2a.16.16,0,0,1,0,.24s-.09.06-.06.07l.17,0c.06,0,0,.05-.22.12Z"/><path class="cls-4" d="M30,52.44c-.23,0-.3,0-.25,0l.16-.06s0,0-.07,0-.11.16-.1.17.06-.1.17-.29l0-.06c.13-.17.19-.22.25-.22a.17.17,0,0,1,0,.26c-.05,0-.08.06-.06.07h.18c.06,0,0,0-.23.11Z"/><path class="cls-4" d="M47.75,49.33c-.14.19-.19.23-.18.18s.07-.13.08-.16,0,0-.06,0-.12.13-.14.13a.93.93,0,0,1,.14-.31l0,0c.13-.18.19-.24.22-.25s0,0-.06.17,0,.1,0,.08a1.67,1.67,0,0,0,.12-.13s0,0-.1.23Z"/><path class="cls-4" d="M43.9,50.08c-.14.18-.19.23-.18.18s.07-.13.08-.16l-.06.06c-.09.1-.12.13-.13.12a1,1,0,0,1,.13-.3l0-.06c.12-.18.18-.24.21-.25s0,0-.05.17,0,.1,0,.08.08-.1.11-.13,0,0-.09.23Z"/><path class="cls-4" d="M23.38,49.34c-.14.18-.19.23-.18.18l.08-.16s0,0-.06,0-.13.13-.14.12a.94.94,0,0,1,.14-.3l0,0a1.3,1.3,0,0,1,.22-.25s0,0-.06.17,0,.09,0,.08l.11-.13s0,0-.09.23Z"/><path class="cls-4" d="M52.6,49c0,.24,0,.31,0,.26s-.06-.14-.08-.16,0,0,0,.09,0,.17.05.17,0-.13-.22-.24l-.06,0c-.16-.15-.13-.29-.09-.35s.13,0,.21.1.06.09.07.06,0-.13,0-.18.07,0,.14.23Z"/><path class="cls-4" d="M50.56,47.36c.19.15.14.33,0,.3s-.11-.16-.12-.18,0,0-.12,0-.21,0-.23,0,.08-.12.29-.18h.06a.81.81,0,0,0,.33-.07s-.06,0-.17.06-.07.07-.07.05a.18.18,0,0,0-.06-.18c-.12,0-.15.12.07.23Z"/><path class="cls-4" d="M27.73,50.49c.19.15.22.23.14.24a.61.61,0,0,1-.18-.07s0,0-.06.1a.2.2,0,0,1-.25.14c-.05,0-.05-.15.05-.34l0-.06c.14-.16.19-.23.18-.27s-.08,0-.09.17,0,.1,0,.07a.45.45,0,0,0-.12-.12l.23.11Z"/><path class="cls-4" d="M27.77,46.92c.19.13.22.22.13.24s-.15-.07-.18-.08,0,0-.07.1-.19.16-.24.14-.05-.15.05-.35l0,0c.14-.17.19-.24.19-.27s-.07,0-.08.16,0,.1,0,.08-.08-.1-.12-.12,0,0,.22.11Z"/><path class="cls-4" d="M24.91,27.12c.16.18.19.26.11.28a1.48,1.48,0,0,0-.19,0s0,.06,0,.11.09.19.06.24-.15,0-.37,0l-.06,0c-.15-.16-.18-.26-.18-.32s.1-.07.24-.05.12,0,.11,0-.07-.13-.09-.17.07-.09.3,0Z"/><path class="cls-4" d="M22.73,29.27c.16.17.19.25.12.27s-.16,0-.19,0,0,.05,0,.11.09.18.06.23-.15,0-.37,0l-.05,0c-.16-.16-.19-.25-.19-.32s.1-.07.24,0,.12,0,.11,0-.08-.12-.1-.17.08-.08.3,0Z"/><path class="cls-4" d="M47.75,51.73c0,.24,0,.31-.1.26s0-.16,0-.18,0,0-.08.06-.15.13-.19.11,0-.13.08-.33l0-.06.22-.25a1.5,1.5,0,0,0,0,.17c0,.06,0,.11,0,.08a.74.74,0,0,0,0-.17c0-.05,0,0,.06.24Z"/><path class="cls-4" d="M30.46,45.09c.16.17.15.29.07.3s-.15-.07-.19-.07,0,0,0,.11,0,.21-.05.24-.15,0-.3-.2l0-.06a.55.55,0,0,1,0-.36c.05,0,.1,0,.21.08s.1,0,.1,0-.05-.13-.06-.17,0,0,.26.07Z"/><path class="cls-4" d="M30.89,40.79c.19.14.19.25.12.24s-.12-.1-.14-.11,0,0,0,.09,0,.18,0,.2-.1-.09-.16-.3v-.07a1.57,1.57,0,0,0-.07-.32.79.79,0,0,0,.08.16s.06.08,0,.06a.53.53,0,0,0-.1-.14s0,0,.19.15Z"/><path class="cls-4" d="M30.45,47.74c0,.24,0,.31,0,.27s-.1-.12-.13-.13,0,0,0,.1,0,.19,0,.22S30.1,48.14,30,48l0-.06c-.06-.21-.06-.3,0-.35s.11,0,.21.09.09.07.1,0,0-.14,0-.19.12,0,.23.18Z"/><path class="cls-4" d="M31.24,50.73c.18.15.22.22.15.22a1.77,1.77,0,0,0-.17-.06s0,0,0,.09.11.14.1.17a.62.62,0,0,1-.33-.09L31,51c-.17-.14-.22-.21-.23-.25s.07,0,.2,0,.11,0,.09,0-.09-.1-.12-.13.05,0,.27.05Z"/><path class="cls-4" d="M47.27,23.36c-.12-.21-.05-.34,0-.31s.12.13.14.14.06,0,.09-.07.17-.15.24-.13.08.15,0,.36l0,.06-.22.26s0,0,0-.18,0-.1,0-.08a.39.39,0,0,0,0,.18c0,.05,0,0-.18-.18Z"/><path class="cls-4" d="M52,28.93c-.18-.16-.22-.23-.16-.23s.15,0,.18,0,0,0,0-.09-.11-.16-.1-.19.14,0,.34.06l.06,0c.17.15.22.22.23.27s-.08.05-.22,0-.1,0-.09,0a.75.75,0,0,0,.12.14c0,.07-.06.07-.28,0Z"/><path class="cls-4" d="M46.14,28.32c0-.23,0-.3,0-.25l.06.16s0,0,0-.06a.14.14,0,0,0-.2-.06s.09.06.3.15l.06,0c.19.11.25.15.26.21a.16.16,0,0,1-.25,0c-.05-.05-.07-.09-.07-.06s0,.13,0,.17,0,0-.11-.22Z"/><path class="cls-4" d="M43.73,31c-.21-.11-.26-.15-.21-.13l.15.08s0,0-.06-.05l-.15-.09.29.14.06,0,.29.17s0,0-.17-.07l-.07,0,.15.09-.22-.1Z"/><path class="cls-4" d="M46.17,37.76c-.23,0-.3,0-.26,0l.16-.07s0,0-.08,0-.16.06-.15.08.15,0,.25-.21l0-.06c.13-.18.27-.16.33-.13s0,.11-.11.19-.08.05-.06.05a1.21,1.21,0,0,0,.18,0s0,0-.23.12Z"/><path class="cls-4" d="M49.62,33.62c-.12.21-.31.16-.29,0a.23.23,0,0,1,.18-.11s0,0,0-.1,0-.2,0-.22.12.07.19.27l0,.07c0,.21.09.28.12.3s0-.06-.06-.17-.08-.07,0-.07.15,0,.18-.07-.15-.17-.24.05Z"/><path class="cls-4" d="M39.92,34.82c-.23,0-.31,0-.26,0s.16,0,.18,0,0,0-.07,0-.15-.13-.13-.16.12,0,.32.09l.06,0,.28.18,0,0-.13,0h.1a1.55,1.55,0,0,0-.24,0Z"/><path class="cls-4" d="M39.49,31.51c.22-.08.3-.06.27,0a1.06,1.06,0,0,1-.17.1s0,0,0,.1a.18.18,0,0,1,0,.27c-.07,0-.14,0-.23-.25l0-.06c-.06-.21-.09-.29-.13-.3s0,.09.07.18.09.05.06.05a.38.38,0,0,0-.17,0s0,0,.23-.1Z"/><path class="cls-4" d="M8.69,22.87a5.67,5.67,0,0,1-1,2.13,9,9,0,0,0-.7.93A3,3,0,0,0,6.65,27a14.08,14.08,0,0,0-.17,2.24,18.67,18.67,0,0,1-.15,2.32H6.26a6.61,6.61,0,0,1-.5-2.32,5,5,0,0,1,.53-2.36c.19-.36.38-.7.53-1.06s.25-.76.41-1.12a7.49,7.49,0,0,1,1.4-1.88Z"/><path class="cls-4" d="M6,33.23a3.09,3.09,0,0,1,.6,1.5c0,.28,0,.56,0,.83a3,3,0,0,0,.25.77,6.64,6.64,0,0,1,.54,1.53,4.94,4.94,0,0,1,0,1.63l-.07,0A4.88,4.88,0,0,1,6.73,38a6.55,6.55,0,0,1-.19-1.6,2.7,2.7,0,0,0-.1-.8c-.08-.26-.25-.49-.35-.74A3.18,3.18,0,0,1,6,33.24Z"/><path class="cls-4" d="M9.44,27.46C9.28,28.67,9,29.82,8.79,31a8,8,0,0,0-.26,1.76,7.13,7.13,0,0,0,.3,1.76,12.38,12.38,0,0,1,.43,3.62,9.78,9.78,0,0,0,.4,3.48l-.06,0a5.63,5.63,0,0,1-1.06-3.5c0-.61,0-1.2,0-1.79s0-1.17-.08-1.78-.09-1.21-.15-1.81a12.67,12.67,0,0,1-.08-1.85,8.84,8.84,0,0,1,1.14-3.46Z"/><path class="cls-4" d="M8,42.39a2.73,2.73,0,0,1,1.21,1.09c.13.23.2.51.33.74a2.75,2.75,0,0,0,.53.6,9.67,9.67,0,0,1,1.12,1.09,11.76,11.76,0,0,1,.94,1.28l0,.06a3,3,0,0,1-1.43-.84A4.52,4.52,0,0,1,9.81,45a3.15,3.15,0,0,0-.41-.69c-.18-.2-.42-.35-.61-.54A3.67,3.67,0,0,1,8,42.44Z"/><path class="cls-4" d="M11.7,46.63A5.65,5.65,0,0,1,11,44c0-.45.06-.9,0-1.34a4.72,4.72,0,0,0-.28-1.29c-.15-.41-.32-.82-.44-1.26a4.26,4.26,0,0,1-.22-1.39,6,6,0,0,1,.76-2.62H11c0,.92-.13,1.79-.1,2.61A7.66,7.66,0,0,0,11,40a11,11,0,0,1,.19,1.32,11.7,11.7,0,0,0,.13,1.34c.07.44.21.88.3,1.31a16.62,16.62,0,0,1,.17,2.65Z"/><path class="cls-4" d="M13.78,28.31A1.72,1.72,0,0,1,14,26.83c.16-.21.39-.36.55-.54A4.58,4.58,0,0,0,15,25.7a4,4,0,0,1,1-1,7.81,7.81,0,0,0,1.12-.78l.06,0a1.79,1.79,0,0,1-.74,1.34,8.05,8.05,0,0,1-1.24.69,1.39,1.39,0,0,0-.53.46,3.2,3.2,0,0,0-.22.66,5.71,5.71,0,0,1-.66,1.23Z"/><path class="cls-4" d="M18.44,21.38a1.46,1.46,0,0,1,.47-1.15c.16-.14.37-.22.53-.35a1.81,1.81,0,0,0,.39-.47,2.82,2.82,0,0,1,.86-.86c.33-.2.63-.33,1-.57l.06,0a1.5,1.5,0,0,1-.63,1.13,3.1,3.1,0,0,1-.52.31,3.69,3.69,0,0,1-.53.24,1.16,1.16,0,0,0-.47.35,2.65,2.65,0,0,0-.25.54,2.34,2.34,0,0,1-.85.83Z"/><path class="cls-4" d="M16.71,19c0-.29.14-.44.31-.49s.23,0,.32,0a.36.36,0,0,0,.19-.21.8.8,0,0,1,.35-.43.85.85,0,0,1,.63,0l0,.05a.83.83,0,0,1-.27.56.81.81,0,0,1-.55.14.29.29,0,0,0-.26.07c-.07.07-.08.21-.14.29s-.3.18-.58.07Z"/><path class="cls-4" d="M17.16,51.92l.8,1c.27.31.55.6.82.92a6.28,6.28,0,0,0,.83,1,4.84,4.84,0,0,0,1.09.67A25.4,25.4,0,0,1,23,56.61a20.41,20.41,0,0,0,2.21,1.21v.06a4.83,4.83,0,0,1-2.55-.63c-.39-.21-.74-.45-1.1-.69a8.54,8.54,0,0,1-1-.79,8.74,8.74,0,0,0-1-.81c-.36-.24-.75-.45-1.1-.72A3.7,3.7,0,0,1,17.1,52Z"/><path class="cls-4" d="M22.63,55a2.43,2.43,0,0,1,1.52.9c.18.24.3.52.48.74a2.31,2.31,0,0,0,.67.54,10.28,10.28,0,0,0,1.44.73,4.42,4.42,0,0,0,1.55.4l0,.06a2,2,0,0,1-1.83.22,3.1,3.1,0,0,1-1.43-1.13,4,4,0,0,0-.57-.66c-.22-.19-.5-.33-.73-.5A6.92,6.92,0,0,1,22.6,55Z"/><path class="cls-4" d="M39.3,57.48c.73,0,1.33-.19,2-.26.34,0,.7,0,1-.07a6.44,6.44,0,0,0,1-.3,10.34,10.34,0,0,1,2-.49,16.62,16.62,0,0,0,2-.35l0,.06a3.46,3.46,0,0,1-1.93,1,11.45,11.45,0,0,1-2.1.13,3.57,3.57,0,0,0-1,.16c-.34.1-.65.29-1,.4a2.68,2.68,0,0,1-2.14-.22Z"/><path class="cls-4" d="M49.59,56a1.88,1.88,0,0,1,.77-1.1c.19-.11.43-.17.62-.29a1.71,1.71,0,0,0,.48-.45,3.57,3.57,0,0,1,1-.85A2.73,2.73,0,0,1,53.85,53l0,.06a4.14,4.14,0,0,1-1,.84,6.2,6.2,0,0,1-1.17.52,1.53,1.53,0,0,0-.57.32,5.22,5.22,0,0,0-.38.54,2.54,2.54,0,0,1-1.09.72Z"/><path class="cls-4" d="M11.3,27a1.21,1.21,0,0,1-.11-1,4.21,4.21,0,0,0,.28-.45,1.14,1.14,0,0,0,0-.49,2.15,2.15,0,0,1,.15-1,1.64,1.64,0,0,1,.69-.77l.07,0a2.31,2.31,0,0,1-.09,1,2.86,2.86,0,0,1-.47.85.86.86,0,0,0-.19.44,2.85,2.85,0,0,0,.07.51,1.4,1.4,0,0,1-.38.91Z"/></g></g></svg>