<svg xmlns="http://www.w3.org/2000/svg" viewBox="0 0 69.23 110.42"><defs><style>.cls-1{fill:#dfddb3;}.cls-2{fill:#262626;}</style></defs><g id="Layer_2" data-name="Layer 2"><g id="Ingredients_Map" data-name="Ingredients Map"><path class="cls-1" d="M61.89,20.13a27.84,27.84,0,0,0-3.37-11.9c-2.17-3.6-7.65-5.14-7.65-5.14C43-1.49,32.48-.67,24.36,3.52S10.2,14.81,5.59,22.4c-2.15,3.54-2.45,6.2-3.13,10.23S9.36,51.55,11.67,53c10.16,6.42,13.41,7.32,25.5,5.65,3.16-.44,7.66,2.09,10,0,1.78-1.62,7.94-4.12,9-6.25A62.1,62.1,0,0,0,61.89,20.13Z"/><path class="cls-1" d="M8.55,72.85h1.7V84.6A6.64,6.64,0,0,1,9.92,87,2.8,2.8,0,0,1,8.83,88.3,3.36,3.36,0,0,1,7,88.77l-.55,0-.32-1.59h.44A2.75,2.75,0,0,0,7.71,87a1.29,1.29,0,0,0,.61-.63,5.12,5.12,0,0,0,.23-1.92Z"/><path class="cls-1" d="M18,80v3.33c0,.27.09.4.27.4a1.83,1.83,0,0,0,.88-.41v.94a5.18,5.18,0,0,1-.85.47,1.85,1.85,0,0,1-.67.12q-1,0-1.17-.78a3.38,3.38,0,0,1-2.11.76A1.85,1.85,0,0,1,13,84.33,1.81,1.81,0,0,1,12.4,83a1.9,1.9,0,0,1,.54-1.32,3.54,3.54,0,0,1,1.51-.93l2-.68v-.42A1.25,1.25,0,0,0,15,78.21a3.41,3.41,0,0,0-2.47,1.31v-1.7a3.22,3.22,0,0,1,2.6-1.06,3,3,0,0,1,2,.66,2.05,2.05,0,0,1,.46.57,1.86,1.86,0,0,1,.26.71A9.56,9.56,0,0,1,18,80ZM16.43,83.2V80.88l-1,.4a3.68,3.68,0,0,0-1.12.63,1.1,1.1,0,0,0,.79,1.9A1.91,1.91,0,0,0,16.43,83.2Z"/><path class="cls-1" d="M27.26,79.06v5.69H25.7V80.39a3.45,3.45,0,0,0-.35-1.82,1.37,1.37,0,0,0-1.22-.52,1.82,1.82,0,0,0-.89.23,3.49,3.49,0,0,0-.92.78v5.69H20.76V76.91h1.56v1a3.36,3.36,0,0,1,2.31-1.18,2.54,2.54,0,0,1,2.31,1.41,3.52,3.52,0,0,1,2.6-1.43,2.39,2.39,0,0,1,1.88.84,3.7,3.7,0,0,1,.74,2.55v4.62H30.61V80.11a2.41,2.41,0,0,0-.4-1.5,1.36,1.36,0,0,0-1.15-.52A2.38,2.38,0,0,0,27.26,79.06Z"/><path class="cls-1" d="M39.57,80v3.33c0,.27.09.4.27.4a1.83,1.83,0,0,0,.88-.41v.94a5.63,5.63,0,0,1-.85.47,1.89,1.89,0,0,1-.67.12c-.66,0-1.06-.26-1.18-.78a3.35,3.35,0,0,1-2.1.76,1.84,1.84,0,0,1-1.36-.54A1.81,1.81,0,0,1,34,83a1.93,1.93,0,0,1,.53-1.32,3.65,3.65,0,0,1,1.52-.93L38,80v-.42a1.25,1.25,0,0,0-1.41-1.41,3.45,3.45,0,0,0-2.48,1.31v-1.7a3.23,3.23,0,0,1,2.6-1.06,3,3,0,0,1,2,.66,2.28,2.28,0,0,1,.72,1.28A9.56,9.56,0,0,1,39.57,80ZM38,83.2V80.88l-1,.4a3.56,3.56,0,0,0-1.12.63,1.06,1.06,0,0,0-.33.8,1.06,1.06,0,0,0,1.12,1.1A1.93,1.93,0,0,0,38,83.2Z"/><path class="cls-1" d="M43.24,73.61a.91.91,0,0,1,.66.27.86.86,0,0,1,.27.65.87.87,0,0,1-.27.64.92.92,0,0,1-.66.28.87.87,0,0,1-.63-.28.89.89,0,0,1,0-1.28A.87.87,0,0,1,43.24,73.61Zm-.77,3.3H44v7.84H42.47Z"/><path class="cls-1" d="M52.5,82.92v1.54a6.52,6.52,0,0,1-2.29.43,3.77,3.77,0,0,1-4-4,4.2,4.2,0,0,1,1.07-3,3.68,3.68,0,0,1,2.8-1.13,5.08,5.08,0,0,1,1.09.11,7.41,7.41,0,0,1,1.19.43V79a4.13,4.13,0,0,0-2.18-.75,2.24,2.24,0,0,0-1.73.73,2.69,2.69,0,0,0-.67,1.88,2.51,2.51,0,0,0,.73,1.91,2.65,2.65,0,0,0,2,.71A5.11,5.11,0,0,0,52.5,82.92Z"/><path class="cls-1" d="M59.54,80v3.33c0,.27.09.4.27.4a1.83,1.83,0,0,0,.88-.41v.94a5.63,5.63,0,0,1-.85.47,1.89,1.89,0,0,1-.67.12c-.66,0-1.06-.26-1.17-.78a3.4,3.4,0,0,1-2.11.76,1.84,1.84,0,0,1-1.36-.54A1.81,1.81,0,0,1,54,83a1.93,1.93,0,0,1,.53-1.32A3.65,3.65,0,0,1,56,80.72L58,80v-.42a1.25,1.25,0,0,0-1.41-1.41,3.45,3.45,0,0,0-2.48,1.31v-1.7a3.24,3.24,0,0,1,2.61-1.06,3,3,0,0,1,2,.66,2.05,2.05,0,0,1,.46.57,1.86,1.86,0,0,1,.26.71A9.56,9.56,0,0,1,59.54,80ZM58,83.2V80.88l-1,.4a3.56,3.56,0,0,0-1.12.63,1.06,1.06,0,0,0-.33.8,1.06,1.06,0,0,0,1.12,1.1A1.93,1.93,0,0,0,58,83.2Z"/><path class="cls-1" d="M0,94.33a.23.23,0,0,1,.24-.24H1.68a.23.23,0,0,1,.24.24v7.4l3.67-7.44a.29.29,0,0,1,.31-.2H7.44a.15.15,0,0,1,.14.22l-3.2,6.23L8.08,110c.05.14,0,.24-.14.24H6.37a.24.24,0,0,1-.26-.17l-2.89-7.49-1.3,2.66V110a.23.23,0,0,1-.24.24H.24A.23.23,0,0,1,0,110Z"/><path class="cls-1" d="M9.9,108c-.23-.71-.31-1.3-.31-5.88s.08-5.16.31-5.87a3.39,3.39,0,0,1,3.53-2.4A3.36,3.36,0,0,1,17,96.28c.24.71.31,1.3.31,5.87S17.2,107.32,17,108a3.35,3.35,0,0,1-3.53,2.39A3.38,3.38,0,0,1,9.9,108Zm5.24-.55c.14-.47.19-.83.19-5.33s-.05-4.86-.19-5.33a1.66,1.66,0,0,0-1.71-1.14,1.63,1.63,0,0,0-1.68,1.14c-.17.47-.21.83-.21,5.33s0,4.86.21,5.33a1.62,1.62,0,0,0,1.68,1.14A1.65,1.65,0,0,0,15.14,107.48Z"/><path class="cls-1" d="M19.66,94.33a.23.23,0,0,1,.24-.24h1.45a.22.22,0,0,1,.23.24v14c0,.1.05.14.15.14h4.21a.23.23,0,0,1,.24.24V110a.23.23,0,0,1-.24.24h-6a.23.23,0,0,1-.24-.24Z"/><path class="cls-1" d="M30.4,94.33c0-.14.12-.24.26-.24h1.42a.26.26,0,0,1,.26.24L35.73,110a.2.2,0,0,1-.21.24H34.09c-.16,0-.23-.1-.26-.24l-.71-3.53H29.54L28.83,110c0,.14-.09.24-.23.24H27.17A.2.2,0,0,1,27,110Zm2.39,10.45-1.37-7h-.08l-1.46,7Z"/><path class="cls-1" d="M41.7,94.33a.22.22,0,0,1,.23-.24h1.78a.34.34,0,0,1,.36.24l3.6,12.09h.09V94.33a.23.23,0,0,1,.24-.24h1.26a.22.22,0,0,1,.23.24V110a.22.22,0,0,1-.23.24H47.57a.31.31,0,0,1-.35-.24L43.54,97.89h-.11V110a.23.23,0,0,1-.24.24H41.93a.22.22,0,0,1-.23-.24Z"/><path class="cls-1" d="M52.12,106.25V94.33a.23.23,0,0,1,.24-.24H53.8a.23.23,0,0,1,.24.24v12.16c0,1.4.71,2.13,1.85,2.13s1.85-.73,1.85-2.13V94.33a.22.22,0,0,1,.23-.24h1.45a.23.23,0,0,1,.24.24v11.92c0,2.77-1.47,4.17-3.77,4.17S52.12,109,52.12,106.25Z"/><path class="cls-1" d="M64.51,110.21a.23.23,0,0,1-.24-.24V96a.12.12,0,0,0-.14-.14H61.48a.22.22,0,0,1-.24-.23V94.33a.23.23,0,0,1,.24-.24H69a.23.23,0,0,1,.24.24v1.31a.22.22,0,0,1-.24.23H66.34c-.1,0-.15,0-.15.14v14a.22.22,0,0,1-.23.24Z"/><path class="cls-2" d="M5.82,44.7C4.54,41.61,4.09,38.28,3,35.12a12.66,12.66,0,0,1-.5-5,11,11,0,0,1,.55-2.47c.27-.8.59-1.56.86-2.34a16.15,16.15,0,0,1,2-4.61A32.58,32.58,0,0,1,9.34,17c.58-.59,1.16-1.18,1.73-1.78s1.11-1.23,1.7-1.83c1.16-1.21,2.38-2.34,3.6-3.47s2.53-2.21,3.79-3.26,2.36-2.32,3.7-3.35A11.71,11.71,0,0,1,26,2a13.07,13.07,0,0,1,2.34-.92,24.5,24.5,0,0,1,5-.7c.83,0,1.66-.07,2.49-.09a16.19,16.19,0,0,1,2.51.06c.83.07,1.65.17,2.48.23s1.65.05,2.49.07a8.7,8.7,0,0,1,4.83,1.26,3.11,3.11,0,0,1,.9.94,3.49,3.49,0,0,1,.29.58.76.76,0,0,1,.06.38.4.4,0,0,1-.33.35,1.51,1.51,0,0,1-.69-.09c-.21-.06-.42-.16-.6-.22a1.91,1.91,0,0,0-1.11-.15c-.34.08-.62.41-1.07.59A3.35,3.35,0,0,0,45,4.5a5.39,5.39,0,0,0-.5.33,5.85,5.85,0,0,1-1.11.67,2.74,2.74,0,0,1-1.33.2,6.93,6.93,0,0,0-1.19-.14c-.36,0-.52.24-.73.63a2.27,2.27,0,0,1-.39.56L39.54,7l-.2.21-.83.93a6.31,6.31,0,0,1-1,.88,2.14,2.14,0,0,1-1.35.41,2.44,2.44,0,0,1-1.26-.6l-.48-.39a1,1,0,0,0-.38-.23s0,0-.08,0l0,0-.1.08-.16.09-.58.27L32.57,9a1.78,1.78,0,0,0-.42.28s0,0,0,0,0-.16-.06-.15a1.37,1.37,0,0,0,.17,0c.18,0,.39.06.62.12a1.49,1.49,0,0,1,.37.13.9.9,0,0,1,.33.31c.15.21.22.38.32.49s.47.21.85.12a3,3,0,0,1,1.4-.11l.22.1a1,1,0,0,1,.2.2.86.86,0,0,1,.14.49,2,2,0,0,1-.2.73,3.73,3.73,0,0,1-.8,1.12c-.75.62-1.6.77-2.2,1.23a4.88,4.88,0,0,0-1.45,1.8A9.69,9.69,0,0,1,30.78,18a3.1,3.1,0,0,1-1.13.84,2.11,2.11,0,0,1-.75.13,1.55,1.55,0,0,1-.37,0,.91.91,0,0,1-.42-.16,3.38,3.38,0,0,1-.5-.46c-.14-.13-.21-.16-.28-.15l-.07,0-.13,0c-.08,0-.16.08-.24.12a2.21,2.21,0,0,0-.45.3,12.1,12.1,0,0,0-.85.88,3.26,3.26,0,0,1-1.14.78l-.59.2a5.38,5.38,0,0,0-.55.24c-.36.17-.72.36-1.07.57a13.24,13.24,0,0,0-2,1.42,6.32,6.32,0,0,0-1.18,2,6.52,6.52,0,0,1-.66,1.13,6.25,6.25,0,0,1-.94.92,8,8,0,0,0-1.66,1.74,19.57,19.57,0,0,0-1.29,2.09c-.39.73-.75,1.47-1.06,2.22a8,8,0,0,0-.63,2.34c-.36,3.29-.29,6.62-.33,9.95l-.06,1.25a3.06,3.06,0,0,1-.22,1.25.66.66,0,0,1-.56.34,1.71,1.71,0,0,1-.64-.08,9.16,9.16,0,0,1-1.18-.42,16.66,16.66,0,0,1-2.22-1.15,10.41,10.41,0,0,1-1-.72A2.69,2.69,0,0,1,5.82,44.7Zm.06,0a2.57,2.57,0,0,0,.8.91,8.07,8.07,0,0,0,1,.71,17,17,0,0,0,2.21,1.12,9.06,9.06,0,0,0,1.17.41c.38.09.87.14,1.05-.21a3.07,3.07,0,0,0,.18-1.19l0-1.24c0-3.32-.2-6.65.08-10A8.4,8.4,0,0,1,13,32.72a18.36,18.36,0,0,1,1-2.3,20.8,20.8,0,0,1,1.29-2.18,8.44,8.44,0,0,1,.8-1,12.58,12.58,0,0,1,.94-.87,5.91,5.91,0,0,0,.83-.83,7.72,7.72,0,0,0,.58-1,6.88,6.88,0,0,1,1.32-2.25,13.69,13.69,0,0,1,2.07-1.51c.37-.22.74-.42,1.13-.61a6.32,6.32,0,0,1,.6-.25c.2-.08.43-.15.59-.2a2.55,2.55,0,0,0,.89-.63c.27-.27.54-.61.89-.91a2.79,2.79,0,0,1,.57-.4c.11-.05.21-.11.32-.15l.17-.06.23-.05a1.1,1.1,0,0,1,.83.34,3.13,3.13,0,0,0,.4.38.26.26,0,0,0,.16.06,1.1,1.1,0,0,0,.25,0,1.34,1.34,0,0,0,.48-.08,2.41,2.41,0,0,0,.84-.64,5.47,5.47,0,0,0,.65-1c.18-.34.35-.74.55-1.11a5.55,5.55,0,0,1,1.68-2c.75-.54,1.62-.71,2.15-1.18a3,3,0,0,0,.65-.9,1.3,1.3,0,0,0,.13-.45c0-.13,0-.11-.09-.16a1.46,1.46,0,0,0-.47,0c-.2,0-.35.07-.59.12a1.92,1.92,0,0,1-.73.06,1.13,1.13,0,0,1-.74-.39,4.5,4.5,0,0,1-.36-.55A.29.29,0,0,0,33,9.9a.93.93,0,0,0-.22-.08l-.6-.11a1.33,1.33,0,0,1-.42-.16.63.63,0,0,1-.14-.17.42.42,0,0,1,0-.26.52.52,0,0,1,.14-.29,2.15,2.15,0,0,1,.61-.43,6.11,6.11,0,0,1,.58-.27l.55-.26.11-.06h0l.09-.07a.66.66,0,0,1,.5-.14,1.36,1.36,0,0,1,.69.36l.48.4a1.85,1.85,0,0,0,1,.49c.67.07,1.33-.51,1.88-1.09L39,6.84a2.5,2.5,0,0,1,.23-.23l.23-.21A2,2,0,0,0,39.75,6a2.66,2.66,0,0,1,.4-.56,1.13,1.13,0,0,1,.71-.29,5.39,5.39,0,0,1,1.28.16,3,3,0,0,0,2.15-.76,4.74,4.74,0,0,1,.55-.35,3.47,3.47,0,0,1,.6-.22c.34-.12.63-.47,1.12-.59,1-.21,1.75.53,2.43.49.06,0,0,0,.07-.06a.79.79,0,0,0,0-.23A2.89,2.89,0,0,0,48.76,3a2.74,2.74,0,0,0-.8-.86,7,7,0,0,0-2.22-1A10.59,10.59,0,0,0,43.29.88c-.83,0-1.66,0-2.5-.08S39.14.63,38.31.56A15.81,15.81,0,0,0,35.83.5c-.83,0-1.66.06-2.49.11a24.27,24.27,0,0,0-4.89.74,12.93,12.93,0,0,0-2.28.95A11.28,11.28,0,0,0,24.1,3.6c-1.28,1-2.34,2.34-3.63,3.42s-2.53,2.13-3.71,3.31S14.34,12.6,13.2,13.8c-.58.59-1.11,1.22-1.69,1.84s-1.16,1.19-1.75,1.78A31.6,31.6,0,0,0,6.4,21a16.74,16.74,0,0,0-2.06,4.45,18.94,18.94,0,0,0-1.51,4.7,12.31,12.31,0,0,0,.37,4.9C4.19,38.25,4.65,41.58,5.88,44.68Z"/><path class="cls-2" d="M15.6,46.07c.05-1.76.12-3.52,0-5.27s.09-3.52-.09-5.26a9.45,9.45,0,0,1-.07-2.66,2.24,2.24,0,0,1,.68-1.19,9.57,9.57,0,0,1,1.08-.79,11.19,11.19,0,0,0,1-.81c.33-.29.62-.61,1-.89a2,2,0,0,1,.65-.3,1,1,0,0,0,.48-.26,2,2,0,0,0,.19-1.14,3.76,3.76,0,0,1,.28-1.36,6,6,0,0,1,.7-1.18,12.7,12.7,0,0,1,1.71-2.07,7.06,7.06,0,0,1,2.36-1.36A15.56,15.56,0,0,1,28.21,21a8.52,8.52,0,0,0,1.24-.24,3.16,3.16,0,0,0,1-.61c.64-.53,1.24-1.2,1.92-1.78s1.33-1.15,2-1.75c.31-.3.62-.6.9-.92s.53-.68.84-1a20.9,20.9,0,0,1,2-1.81A9.73,9.73,0,0,0,39,12a8.52,8.52,0,0,1,1-1c.66-.59,1.34-1.15,2-1.75A17.71,17.71,0,0,1,44,7.6c.73-.51,1.52-.93,2.28-1.36s1.48-.93,2.27-1.35A10,10,0,0,1,51,4a4.23,4.23,0,0,1,2.65.22c.4.15.84.25,1.25.44A2.51,2.51,0,0,1,56,5.46a4.77,4.77,0,0,1,.57,1.21L57,7.9q1,2.44,1.91,4.91l1.89,4.92a16.57,16.57,0,0,1,.88,2.51,14.79,14.79,0,0,1,.34,2.64c.08,1.77,0,3.53,0,5.29,0,.87,0,1.74.06,2.61s.2,1.73.29,2.61a12.69,12.69,0,0,1,.07,2.69,14.88,14.88,0,0,1-.58,2.62,27.61,27.61,0,0,1-1.79,5,7.76,7.76,0,0,1-.74,1.15c-.26.35-.52.7-.77,1.06-.52.71-1,1.43-1.62,2.11a6.8,6.8,0,0,1-2.1,1.79,14.75,14.75,0,0,0-2.24,1.29c-.73.48-1.48,1-2.27,1.4a24.42,24.42,0,0,1-2.46,1,20.58,20.58,0,0,1-2.5,1c-.87.23-1.74.39-2.61.55a18.31,18.31,0,0,1-2.67.28c-.91,0-1.8-.07-2.66-.11l-1.33-.09a4.41,4.41,0,0,1-1.4-.32,1.34,1.34,0,0,1-.37-.28,1.3,1.3,0,0,1-.15-.23l-.05-.12c-.08-.15-.2-.26-.37-.52a.65.65,0,0,1-.11-.29.61.61,0,0,1,.07-.34,1.21,1.21,0,0,1,.3-.35c.21-.16.41-.27.58-.39a5.94,5.94,0,0,0,1-.74c.28-.29.42-.58.3-.87a4.24,4.24,0,0,0-.24-.57.86.86,0,0,0-.13-.2s0,0,0,0,.09,0,.08,0a1.2,1.2,0,0,0-.19.41,3.46,3.46,0,0,0-.06.59,2.56,2.56,0,0,1,0,.37.77.77,0,0,1-.27.45,1.42,1.42,0,0,1-.79.21,4.72,4.72,0,0,1-1.37-.17,1.65,1.65,0,0,0-.55-.07.52.52,0,0,0-.2.09.28.28,0,0,0-.12.14A7.41,7.41,0,0,0,32,53.17a1.22,1.22,0,0,1-.31.73,3.47,3.47,0,0,1-.57.44,1.16,1.16,0,0,1-.76.1,6.57,6.57,0,0,1-.66-.09L27.09,54a20.27,20.27,0,0,1-5.15-1.18c-.82-.31-1.66-.55-2.49-.88a2.42,2.42,0,0,1-1.11-.74,2.76,2.76,0,0,1-.27-1.31c0-.44-.08-.87-.14-1.31a2,2,0,0,0-.47-1.17A2.14,2.14,0,0,0,16.25,47c-.21,0-.48-.05-.6-.28A1.71,1.71,0,0,1,15.6,46.07Zm.06,0a2.15,2.15,0,0,0,.05.63c.1.18.34.21.55.24a2.13,2.13,0,0,1,1.26.39A2.07,2.07,0,0,1,18,48.55c.06.43.11.87.15,1.31a2.65,2.65,0,0,0,.26,1.24,2.28,2.28,0,0,0,1.06.69c.81.32,1.66.54,2.49.83a20.26,20.26,0,0,0,5.13,1.05l2.62.31c.42,0,.91.16,1.17,0a4.14,4.14,0,0,0,.46-.37.82.82,0,0,0,.17-.48,6.15,6.15,0,0,1,.06-1.38.82.82,0,0,1,.28-.36,1,1,0,0,1,.4-.18,2,2,0,0,1,.75,0,4.1,4.1,0,0,0,1.24.13,1.18,1.18,0,0,0,.47-.1s.07-.16.07-.39A2.11,2.11,0,0,1,35,49.82a1,1,0,0,1,.28-.39.5.5,0,0,1,.39-.08.53.53,0,0,1,.28.16,1.73,1.73,0,0,1,.25.34,5.17,5.17,0,0,1,.28.64,1.24,1.24,0,0,1,0,.85,2.08,2.08,0,0,1-.42.66,6.3,6.3,0,0,1-1.1.86c-.19.13-.37.23-.51.35s-.13.12-.13.14,0-.08,0,0a3.49,3.49,0,0,1,.39.54,1,1,0,0,1,.09.18s0,0,0,0a.61.61,0,0,0,.16.11,3.83,3.83,0,0,0,1.16.24c.42,0,.86.07,1.3.09.88,0,1.75.14,2.6.11a17.26,17.26,0,0,0,2.57-.28c.85-.16,1.72-.32,2.54-.55a17.65,17.65,0,0,0,2.42-.93,20.68,20.68,0,0,0,2.39-1c.76-.4,1.49-.87,2.22-1.35a14.9,14.9,0,0,1,2.34-1.33,6.15,6.15,0,0,0,1.88-1.6c.56-.65,1.08-1.35,1.6-2.06.26-.36.52-.71.79-1.06a7.35,7.35,0,0,0,.68-1.06,27.64,27.64,0,0,0,1.78-4.89,13.46,13.46,0,0,0,.6-2.51,11.73,11.73,0,0,0,0-2.58c-.08-.86-.19-1.74-.25-2.63a26,26,0,0,1,0-2.65c.06-1.76.13-3.51.08-5.26a14.77,14.77,0,0,0-.29-2.58,16,16,0,0,0-.83-2.48L58.73,12.9Q57.82,10.43,56.85,8l-.48-1.23a5.18,5.18,0,0,0-.56-1.16,2.3,2.3,0,0,0-1-.77c-.39-.17-.82-.27-1.24-.42a4.11,4.11,0,0,0-2.52-.2,10.16,10.16,0,0,0-2.41.95c-.76.42-1.47.94-2.24,1.38s-1.52.88-2.22,1.39a17.61,17.61,0,0,0-2,1.7c-.64.61-1.31,1.19-1.95,1.78a8.58,8.58,0,0,0-.89.92,8.67,8.67,0,0,1-1,.95,18.91,18.91,0,0,0-1.89,1.79c-.28.31-.53.66-.83,1s-.61.66-.93,1c-.65.62-1.32,1.18-2,1.77S31.58,20,30.87,20.62a3.55,3.55,0,0,1-1.23.7,8.54,8.54,0,0,1-1.34.26,14.64,14.64,0,0,0-2.54.48,6.76,6.76,0,0,0-2.19,1.23,13.54,13.54,0,0,0-1.67,2A3.74,3.74,0,0,0,21,27.52a2.26,2.26,0,0,1-.33,1.39,1.4,1.4,0,0,1-.66.36,1.37,1.37,0,0,0-.55.23c-.34.23-.65.55-1,.83a12,12,0,0,1-1.06.82,10,10,0,0,0-1.07.73,2.11,2.11,0,0,0-.63,1.05,9.78,9.78,0,0,0,0,2.59c.12,1.77-.16,3.53,0,5.27A51.67,51.67,0,0,1,15.66,46.07Z"/><path class="cls-2" d="M54.63,49.86a24.68,24.68,0,0,0-3.07,1.84,15.23,15.23,0,0,1-3.2,1.61A28.29,28.29,0,0,1,45,54.58a35.37,35.37,0,0,1-3.53.66,17.33,17.33,0,0,1-3.6,0c-.6,0-1.19-.05-1.79-.11a5.57,5.57,0,0,1-.91-.15,1.1,1.1,0,0,1-.78-.57,1.32,1.32,0,0,0-.23-.35,1.27,1.27,0,0,1-.27-.42.54.54,0,0,1,.22-.52,2.47,2.47,0,0,1,.38-.28,6.34,6.34,0,0,0,1.36-1.08.92.92,0,0,0,.25-.7,3.33,3.33,0,0,0-.31-.78.75.75,0,0,0-.2-.26h0l-.09.13a1.57,1.57,0,0,0-.18.78c0,.15,0,.29,0,.47A.67.67,0,0,1,35,52a2,2,0,0,1-1,.16,4.08,4.08,0,0,1-.93-.12,1.63,1.63,0,0,0-.77-.06c-.45.11-.25.78-.29,1.41a1.24,1.24,0,0,1-.44.95,4.37,4.37,0,0,1-.37.29,1,1,0,0,1-.55.17c-.66,0-1.21-.14-1.82-.2L27,54.34c-1.18-.16-2.38-.31-3.56-.59a7,7,0,0,1-.89-.26l-.84-.31-1.7-.55a4.6,4.6,0,0,1-1.71-.86,1.46,1.46,0,0,1-.45-1c0-.32-.05-.61-.08-.9a7.74,7.74,0,0,0-.29-1.68.89.89,0,0,0-.41-.51,2.54,2.54,0,0,0-.78-.16,2.51,2.51,0,0,1-.49-.1.7.7,0,0,1-.31-.19.67.67,0,0,1-.18-.34,6.25,6.25,0,0,1,0-1l.06-1.79a32.53,32.53,0,0,0-.06-3.56c-.1-1.22,0-2.42,0-3.6a17.63,17.63,0,0,0-.09-1.77,8,8,0,0,1,0-1.84,2.89,2.89,0,0,1,.31-.94,2.68,2.68,0,0,1,.65-.73c.26-.21.52-.36.76-.52s.48-.33.71-.51c.47-.36.87-.77,1.36-1.17a2.09,2.09,0,0,1,.43-.27c.17-.07.32-.1.44-.14.28-.1.45-.2.52-.43a3,3,0,0,0,.08-.82,3.66,3.66,0,0,1,.13-.93,4.58,4.58,0,0,1,.87-1.65c.37-.47.7-1,1.1-1.43A5.93,5.93,0,0,1,24,22.64a8.1,8.1,0,0,1,1.66-.78,11.19,11.19,0,0,1,1.79-.38c.59-.08,1.19-.15,1.76-.27a3.34,3.34,0,0,0,1.49-.8c.44-.38.85-.82,1.3-1.23s.89-.8,1.34-1.2a16.54,16.54,0,0,0,2.5-2.52A20.43,20.43,0,0,1,38.46,13c.22-.2.44-.4.63-.61a6.52,6.52,0,0,1,.62-.66c.44-.42.9-.8,1.35-1.2.9-.78,1.72-1.65,2.69-2.38s2-1.27,3-1.9A15.85,15.85,0,0,1,50,4.52l0,.23-.87-.68h.17a.55.55,0,0,1-.4.11,1.72,1.72,0,0,1-.34-.06c-.22-.06-.42-.14-.62-.21a2.26,2.26,0,0,0-1.15-.21c-.38,0-.66.37-1.09.57a2,2,0,0,1-.32.11,1.17,1.17,0,0,0-.26.1,4.13,4.13,0,0,0-.52.33,5.93,5.93,0,0,1-1.12.67,2.7,2.7,0,0,1-1.32.2,6.17,6.17,0,0,0-1.22-.14c-.39,0-.58.31-.78.7a2.39,2.39,0,0,1-.41.55c-.17.16-.3.27-.45.43l-.85,1a5.16,5.16,0,0,1-1,.85,1.78,1.78,0,0,1-1.34.31,2.69,2.69,0,0,1-1.18-.66,5.48,5.48,0,0,0-.48-.39c-.16-.12-.32-.18-.39-.14s-.08.06-.23.15a3,3,0,0,1-.3.16l-.58.27c-.19.09-.37.18-.54.28a1.52,1.52,0,0,0-.23.16c-.07,0-.07.12-.07,0s0,0,.11,0l.29,0a3.72,3.72,0,0,1,.67.15,1.06,1.06,0,0,1,.34.26l.19.29a.9.9,0,0,0,.32.4,1.53,1.53,0,0,0,1.07,0,3.71,3.71,0,0,1,.68-.1.9.9,0,0,1,.77.3,1,1,0,0,1,.06.82,2.59,2.59,0,0,1-.29.63,2.75,2.75,0,0,1-.91,1,13.44,13.44,0,0,0-2.18,1.23,6,6,0,0,0-1.37,2,6.24,6.24,0,0,1-1.46,2.19A2.3,2.3,0,0,1,29,19a1.8,1.8,0,0,1-.77-.11,2.13,2.13,0,0,1-.56-.47.57.57,0,0,0-.34-.22,1.23,1.23,0,0,0-.45.15,3.08,3.08,0,0,0-.9.73,6.37,6.37,0,0,1-.94.93,4.29,4.29,0,0,1-1.23.56,10.82,10.82,0,0,0-2.17,1.16,12.26,12.26,0,0,0-1,.72,3.57,3.57,0,0,0-.81.84c-.42.65-.67,1.48-1.14,2.25a4.59,4.59,0,0,1-.86,1.05l-.95.84a9,9,0,0,0-1.5,1.93,20.77,20.77,0,0,0-2.14,4.49A6.89,6.89,0,0,0,13,35c0,.41-.08.83-.11,1.25-.06.83-.09,1.67-.11,2.52-.05,1.68,0,3.36,0,5.06,0,.85,0,1.72-.05,2.56a3.85,3.85,0,0,1-.21,1.39,1,1,0,0,1-.76.55,2.06,2.06,0,0,1-.76-.06c-.86-.25-1.64-.51-2.45-.83a7.87,7.87,0,0,1-2.33-1.28l.57-.39A16.06,16.06,0,0,0,7.7,47.6c.16.3.33.62.47.95.07.17.13.35.18.51a2.6,2.6,0,0,0,.19.42,12.71,12.71,0,0,0,2.57,3,15.23,15.23,0,0,0,1.55,1.28l.2.13.19.11.46.24.92.48,3.65,1.93-.07,0,5.38,1.25,1.35.3.67.14a2.11,2.11,0,0,0,.64,0c.92,0,1.84,0,2.76.08,1.85.07,3.69.19,5.52.32s3.69.25,5.51.55a16.75,16.75,0,0,0,2.73.22,14.5,14.5,0,0,0,2.7-.37,15.86,15.86,0,0,0,5-2.25,19.78,19.78,0,0,0,4.07-3.68A15.12,15.12,0,0,0,55.89,51a3.8,3.8,0,0,0,.58-2.61l.06,0C55.82,48.78,55.4,49.54,54.63,49.86Zm0-.07c.74-.3,1.16-1.06,1.9-1.43l0,0v.05A3.9,3.9,0,0,1,56,51.06a14.79,14.79,0,0,1-1.57,2.27,18.66,18.66,0,0,1-6.48,5.12,16.23,16.23,0,0,1-2.6,1,14.17,14.17,0,0,1-2.75.42,16,16,0,0,1-2.78-.18c-1.82-.27-3.65-.35-5.49-.47s-3.68-.2-5.51-.25c-.92,0-1.84,0-2.76,0a2.68,2.68,0,0,1-.73,0l-.68-.13-1.36-.29-5.39-1.17h0l0,0-3.66-1.87-.91-.47-.46-.23-.26-.14-.23-.15A16.61,16.61,0,0,1,10.65,53,13.57,13.57,0,0,1,7.92,49.8a4.09,4.09,0,0,1-.23-.52c-.06-.17-.1-.31-.17-.46a9.19,9.19,0,0,0-.43-.9A15.65,15.65,0,0,1,6.16,46l-.55-1.36,1.11,1A7.22,7.22,0,0,0,8.83,46.8c.76.3,1.59.57,2.36.79a1.5,1.5,0,0,0,.49,0c.13,0,.16,0,.22-.16A3.8,3.8,0,0,0,12,46.37c0-.85.06-1.67,0-2.52,0-1.69-.05-3.39,0-5.09q0-1.27.12-2.55c0-.43.07-.86.12-1.28a7,7,0,0,1,.28-1.3A21.42,21.42,0,0,1,14.83,29a9.66,9.66,0,0,1,1.63-2.06l.95-.84a3.78,3.78,0,0,0,.75-.9c.42-.68.67-1.5,1.16-2.27a4.44,4.44,0,0,1,.95-1c.34-.27.7-.52,1.06-.76A12.27,12.27,0,0,1,23.63,20a3.26,3.26,0,0,0,1.08-.47,5.73,5.73,0,0,0,.86-.85,3.51,3.51,0,0,1,1.08-.85l.32-.13a1.06,1.06,0,0,1,.43-.08,1.17,1.17,0,0,1,.73.4,1.72,1.72,0,0,0,.39.36,1.49,1.49,0,0,0,.22.05,2.26,2.26,0,0,0,.26,0A1.66,1.66,0,0,0,30,18a5.65,5.65,0,0,0,1.33-2,6.53,6.53,0,0,1,1.53-2.14,12.37,12.37,0,0,1,2.24-1.25,2.43,2.43,0,0,0,.77-.85,2.06,2.06,0,0,0,.25-.52.5.5,0,0,0,0-.4c0-.07-.19-.12-.38-.11a2.9,2.9,0,0,0-.57.08,1.91,1.91,0,0,1-1.41,0c-.49-.31-.54-.88-.79-.93a3.71,3.71,0,0,0-.57-.13l-.33-.06c-.11-.05-.28,0-.41-.31a.48.48,0,0,1,.2-.49,2.17,2.17,0,0,1,.29-.2,5.46,5.46,0,0,1,.59-.3l.57-.26.27-.13a1.3,1.3,0,0,1,.3-.19.82.82,0,0,1,.77.2c.18.13.34.28.49.41a2.27,2.27,0,0,0,1,.58c.74.15,1.44-.45,2-1L39,7a6.31,6.31,0,0,1,.47-.44,1.83,1.83,0,0,0,.34-.47,3.08,3.08,0,0,1,.38-.56,1.06,1.06,0,0,1,.67-.3,5.82,5.82,0,0,1,1.3.14,3.06,3.06,0,0,0,2.22-.8,4.38,4.38,0,0,1,.56-.34,1.79,1.79,0,0,1,.32-.13A1.84,1.84,0,0,0,45.52,4a4.19,4.19,0,0,1,1.16-.59A2.52,2.52,0,0,1,48,3.63a5.71,5.71,0,0,0,.58.21c.18.05.42.07.48,0l.08-.09.09.08.9.7.19.15-.23.08a16.08,16.08,0,0,0-3.15,1.66c-1,.63-2.09,1.16-3,1.88s-1.79,1.57-2.7,2.34c-.45.4-.9.8-1.32,1.21a6.15,6.15,0,0,0-.61.64,5.61,5.61,0,0,1-.65.64,20,20,0,0,0-2.55,2.49,18,18,0,0,1-2.52,2.57c-.45.4-.89.8-1.32,1.21s-.84.84-1.3,1.24a3.63,3.63,0,0,1-1.63.89c-.6.13-1.19.2-1.78.29A7.73,7.73,0,0,0,24.22,23a9,9,0,0,0-2.37,2.56A4.3,4.3,0,0,0,21.06,27a3.33,3.33,0,0,0-.1.84,3.33,3.33,0,0,1-.11,1,.9.9,0,0,1-.32.46,1.69,1.69,0,0,1-.46.24,3.37,3.37,0,0,0-.41.13,2,2,0,0,0-.33.21c-.44.36-.87.81-1.35,1.18-.24.19-.49.37-.74.54s-.51.33-.72.5a2.05,2.05,0,0,0-.77,1.37,7.72,7.72,0,0,0,.06,1.72c.06.6.09,1.22.09,1.82,0,1.21-.11,2.4,0,3.56S16,43,16,44.18L15.94,46a4.57,4.57,0,0,0,0,.83c0,.05,0,.05,0,.05l.08,0a1.8,1.8,0,0,0,.38.08,3,3,0,0,1,1,.21,1.51,1.51,0,0,1,.71.83,7.81,7.81,0,0,1,.32,1.85c0,.3,0,.61.07.88a.9.9,0,0,0,.27.63,4.26,4.26,0,0,0,1.48.72l1.7.57.85.32a6.71,6.71,0,0,0,.83.25c1.14.27,2.32.44,3.5.6l1.78.23c.58.08,1.21.21,1.74.23a.51.51,0,0,0,.3-.09,3.25,3.25,0,0,0,.34-.25.74.74,0,0,0,.28-.62c0-.27,0-.57,0-.89a1.2,1.2,0,0,1,.14-.53.86.86,0,0,1,.47-.36,1.88,1.88,0,0,1,1,.06,4.27,4.27,0,0,0,.85.13,1.66,1.66,0,0,0,.77-.1c.16-.05.14-.34.15-.66a2.12,2.12,0,0,1,.24-.94.9.9,0,0,1,.18-.23.36.36,0,0,1,.39,0,.91.91,0,0,1,.36.41,2.69,2.69,0,0,1,.19.43,1.86,1.86,0,0,1,.14.47,1.25,1.25,0,0,1-.33.94,6.41,6.41,0,0,1-1.45,1.12c-.23.14-.53.36-.49.5s.36.42.47.72a.84.84,0,0,0,.62.44,5.94,5.94,0,0,0,.86.16c.59.06,1.19.09,1.78.13a16.39,16.39,0,0,0,3.57,0A30.22,30.22,0,0,0,45,54.45a26.54,26.54,0,0,0,3.35-1.24,15.36,15.36,0,0,0,3.2-1.58A24.56,24.56,0,0,1,54.6,49.79Z"/><path class="cls-2" d="M37.76,50.18c-.21-.15-.24-.3-.15-.4s.18-.06.22-.1,0-.11,0-.19a.44.44,0,0,1,0-.41.49.49,0,0,1,.48,0l.05,0a.67.67,0,0,1,0,.44.42.42,0,0,1-.3.14c-.08,0-.14.05-.14.11s.09.14.11.19-.06.17-.31.23Z"/><path class="cls-2" d="M40.18,48.16c-.24,0-.3-.11-.24-.15l.19,0s0,0-.06-.08-.11-.17-.06-.24a.26.26,0,0,1,.36.16v.06c0,.23.19.24.2.24s0,0-.15-.08-.1,0-.08,0l.16.06s0,0-.25,0Z"/><path class="cls-2" d="M40.41,45.82c-.24-.06-.3-.14-.24-.2s.16,0,.19,0,0-.06,0-.11a.23.23,0,0,1-.05-.29.29.29,0,0,1,.39.09l0,.06a.48.48,0,0,0,.17.28l-.19,0c-.06,0-.11,0-.09,0a.61.61,0,0,0,.16.09c.05,0,0,.06-.26.11Z"/><path class="cls-2" d="M41.84,46.49c-.23,0-.3-.06-.25-.1s.16,0,.18,0,0,0-.07-.06-.16-.13-.14-.2a.28.28,0,0,1,.37,0l0,0a.41.41,0,0,0,.26.18h-.17c-.06,0-.11,0-.08,0l.17,0c.05,0,0,.06-.25.09Z"/><path class="cls-2" d="M32.43,40.45c.13-.2.24-.23.28-.16s0,.17,0,.2.06,0,.12,0,.22-.07.28,0,.05.19-.07.38l0,0c-.2.1-.28.14-.34.13s0-.08,0-.23,0-.11,0-.1-.11.09-.14.12-.08-.05-.06-.29Z"/><path class="cls-2" d="M31.1,38.41c0-.24.1-.31.15-.25s.05.15.08.17.05,0,.09-.07.13-.16.2-.15a.34.34,0,0,1,.1.37l0,.06c-.14.18-.16.26-.2.28s-.06,0-.1-.19,0-.1-.07-.08-.05.13-.08.17-.09,0-.14-.25Z"/><path class="cls-2" d="M31,48.61c-.21-.16-.22-.35-.11-.44s.19,0,.24-.08.06-.11.06-.19a.42.42,0,0,1,.17-.4.46.46,0,0,1,.49.1l0,.06a1,1,0,0,1-.09.43.42.42,0,0,1-.32,0c-.08,0-.15,0-.16.07s.06.16.08.21-.07.13-.32.2Z"/><path class="cls-2" d="M32.77,47.62c-.18-.18-.21-.3-.12-.37s.18,0,.22-.08,0-.1,0-.17a.36.36,0,0,1,0-.36.48.48,0,0,1,.46-.09l0,0c.12.21.14.32.12.41a.37.37,0,0,1-.28.16c-.07,0-.13.05-.13.1s.08.14.1.2-.08.17-.34.18Z"/><path class="cls-2" d="M35.26,48.16c-.23,0-.3,0-.25-.08l.17,0s0,0-.07,0-.17,0-.18-.08a.81.81,0,0,1,.33-.07h.07a.81.81,0,0,1,.33.07s0,0-.18.08-.1,0-.07,0l.17,0c.05,0,0,.05-.25.08Z"/><path class="cls-2" d="M36.78,47.14c-.15-.21-.14-.34,0-.4s.19,0,.24,0,.06-.09.05-.17a.38.38,0,0,1,.12-.37.44.44,0,0,1,.47.06l0,.06a.63.63,0,0,1,0,.43.42.42,0,0,1-.31.07c-.08,0-.14,0-.15.06s0,.16.05.22-.12.15-.37.12Z"/><path class="cls-2" d="M36.7,37.19c-.23,0-.3-.09-.25-.13a1.47,1.47,0,0,0,.17-.07s0,0-.07-.06-.18-.09-.18-.14.11-.09.33-.13h.07c.22,0,.3.09.33.13s0,.09-.18.14-.1,0-.08.06a1.13,1.13,0,0,0,.18.07s0,.09-.25.13Z"/><path class="cls-2" d="M34.05,41.58c-.24-.08-.3-.18-.23-.26s.16-.06.19-.09,0-.08,0-.13-.12-.22-.08-.3a.36.36,0,0,1,.4-.07l.06,0c.15.18.2.26.2.32s-.07.09-.22.11-.12,0-.1.08.12.09.16.12,0,.11-.26.19Z"/><path class="cls-2" d="M34.66,43.78c-.24,0-.3-.11-.23-.13a.79.79,0,0,1,.17,0s0,0-.05-.07-.12-.14-.1-.16.12,0,.29.16l0,0c.15.16.21.21.24.22s0,0,0,0l-.12-.07c-.05,0-.1,0-.07,0l.16.06c.05,0,0,0-.25,0Z"/><path class="cls-2" d="M32.85,38.23c-.15-.19-.21-.22-.14-.22s.14.06.17.05,0,0,0-.08-.13-.14-.11-.17.13,0,.34,0l.06,0c.18.12.23.19.25.24s-.08.06-.22,0-.1,0-.09,0,.09.1.11.15-.08.09-.28,0Z"/><path class="cls-2" d="M19.9,34.27a1.25,1.25,0,0,1-.53.74,2.41,2.41,0,0,0-.43.18.65.65,0,0,0-.21.39c-.06.31-.14.55-.21.8a4.25,4.25,0,0,1-.41.78H18a1.2,1.2,0,0,1-.21-1,1.43,1.43,0,0,1,.59-.81,1.21,1.21,0,0,0,.36-.31c.08-.13.12-.32.21-.46a1,1,0,0,1,.87-.38Z"/><path class="cls-2" d="M28.32,49.46c.07.29,0,.46-.13.56s-.23,0-.29.11-.09.15-.1.25a.89.89,0,0,1-.14.53.87.87,0,0,1-.57.26l-.05,0a.81.81,0,0,1,0-.62.79.79,0,0,1,.45-.34.34.34,0,0,0,.22-.18,3,3,0,0,0,0-.31c.07-.18.24-.28.53-.26Z"/><path class="cls-2" d="M28.59,32.91c.07.26,0,.42-.16.48s-.21,0-.28,0-.11.09-.15.18a.54.54,0,0,1-.34.34.57.57,0,0,1-.52-.19v-.07a.81.81,0,0,1,.28-.42.58.58,0,0,1,.41,0c.09,0,.17,0,.21,0s0-.18,0-.25.19-.14.46-.08Z"/><path class="cls-2" d="M28.46,26c.11.26.1.42,0,.54s-.22.07-.28.13a.35.35,0,0,0-.07.26.57.57,0,0,1-.39.54.5.5,0,0,1-.62-.28v-.07c.21-.18.3-.27.35-.32l.35-.09c.09,0,.17-.07.18-.15s0-.2,0-.29.18-.3.46-.31Z"/><path class="cls-2" d="M28.21,23.7c.09.23.06.35,0,.38s-.18,0-.23,0-.06.07-.06.15a.35.35,0,0,1-.15.33.43.43,0,0,1-.43-.15l0-.06a.64.64,0,0,1,.06-.41.36.36,0,0,1,.31,0c.07,0,.13,0,.15,0s0-.16,0-.22.14-.11.37,0Z"/><path class="cls-2" d="M19.8,31.64c.09.23.07.35,0,.37s-.18,0-.23,0-.06.07-.06.15a.33.33,0,0,1-.15.32.44.44,0,0,1-.43-.14l0-.06a.7.7,0,0,1,.07-.41.33.33,0,0,1,.31,0c.07,0,.13,0,.15,0a.83.83,0,0,0,0-.22c0-.1.15-.11.38,0Z"/><path class="cls-2" d="M25.48,26.13c.17.17.17.27.1.27s-.14-.08-.17-.08,0,.05,0,.1,0,.19,0,.22-.1-.07-.29-.17l-.06,0a.39.39,0,0,1-.12-.35s.09,0,.2.06.1.05.1,0-.07-.12-.09-.16,0,0,.25.09Z"/><path class="cls-2" d="M25.94,27.34c.16.18.17.29.09.32s-.17,0-.21,0,0,.07,0,.14a.25.25,0,0,1,0,.3c-.08,0-.21.05-.4-.08l0-.05c-.08-.22-.1-.31-.08-.37s.11-.06.26,0,.12,0,.12,0-.07-.13-.08-.18.09-.11.32,0Z"/><path class="cls-2" d="M27.29,28.22c.18.16.19.27.11.27s-.14-.07-.17-.07,0,0,0,.11,0,.21-.1.24a.23.23,0,0,1-.16-.06.23.23,0,0,1-.08-.26l0-.05a.25.25,0,0,0,0-.32s0,.05.11.14.09.07.08,0a.6.6,0,0,0-.09-.15c0-.06,0,0,.25.08Z"/><path class="cls-2" d="M25.43,30.54c.16.19.16.3.07.33s-.17-.05-.21,0,0,.05,0,.13a.24.24,0,0,1-.15.28.31.31,0,0,1-.32-.28v-.07a1,1,0,0,0,.05-.33s.06,0,.18.1.11,0,.11,0-.05-.13-.07-.17.07-.06.3,0Z"/><path class="cls-2" d="M24.39,28.84c.17.16.2.24.13.24s-.15,0-.18,0,0,0,0,.11.05.2,0,.25-.22,0-.32-.2l0-.06a.67.67,0,0,0-.11-.31.62.62,0,0,1,.17.07c.06,0,.1,0,.09,0s-.08-.11-.1-.15.06-.05.27.05Z"/><path class="cls-2" d="M23.16,29.07c.19.16.18.27.11.25a.87.87,0,0,1-.14-.12s0,0,0,.09,0,.19,0,.2-.1-.09-.16-.3v-.07c0-.21-.05-.29-.05-.32A.79.79,0,0,0,23,29C23,29,23,29,23,29a.94.94,0,0,0-.1-.14s0,0,.19.16Z"/><path class="cls-2" d="M23.3,31.69c.14.22.14.34,0,.4s-.18,0-.23,0,0,.1,0,.17a.4.4,0,0,1,0,.36.54.54,0,0,1-.45.08l-.05,0a.52.52,0,0,1-.11-.44.4.4,0,0,1,.32-.16c.08,0,.14,0,.15-.09s-.05-.16-.06-.22.13-.17.38-.13Z"/><path class="cls-2" d="M21.79,31c.18.15.22.22.16.22l-.17-.06s0,0,0,.08.12.15.1.18-.13,0-.33-.1l-.06,0c-.17-.15-.22-.22-.22-.26s.07,0,.2,0,.1,0,.09,0L21.47,31c0-.06.05-.05.26.05Z"/><path class="cls-2" d="M22.23,33.16c.18.15.22.2.17.19l-.16-.06s0,0,0,.07.12.14.11.16a.8.8,0,0,1-.31-.12l-.06,0a1.14,1.14,0,0,1-.24-.24s.06,0,.19,0,.1,0,.08,0a.71.71,0,0,0-.12-.13s0,0,.24.08Z"/><path class="cls-2" d="M31,45.69c-.23.08-.35,0-.35-.07s.09-.14.09-.19-.05-.06-.12-.08a.28.28,0,0,1-.26-.17c0-.1.06-.21.25-.33h.07c.23,0,.32.06.37.11s0,.13-.09.25-.06.11,0,.13.15,0,.2,0,.05.11-.09.32Z"/><path class="cls-2" d="M27.26,40.18c-.21-.14-.24-.25-.16-.31s.17,0,.2,0,0-.08,0-.13-.1-.21-.08-.27.15-.07.38-.08l.07,0c.19.13.23.25.23.33a.28.28,0,0,1-.25.15c-.07,0-.13,0-.12.06s.1.12.12.16-.05.11-.29.12Z"/><path class="cls-2" d="M19.39,39.76c-.23,0-.31,0-.26,0l.16-.08s0,0-.08,0-.18-.08-.18-.14.15-.14.36-.06l.06,0a.42.42,0,0,0,.3.11l-.17,0c-.06,0-.1,0-.07,0h.17c.06,0,0,0-.22.13Z"/><path class="cls-2" d="M23.48,40.26c.15.21.16.32.07.36a1.15,1.15,0,0,0-.21,0c-.05,0,0,.09,0,.15a.35.35,0,0,1,.09.27.75.75,0,0,1-.37.18H23a.41.41,0,0,1-.26-.36.31.31,0,0,1,.27-.23c.07,0,.13,0,.13-.1s-.07-.15-.08-.21.12-.16.36-.1Z"/><path class="cls-2" d="M18.06,33.71c-.18.17-.25.2-.25.14s0-.16,0-.18-.05,0-.09,0-.13.14-.16.13a1.08,1.08,0,0,1,0-.34v-.07c.08-.21.17-.27.25-.28s.11.08.11.23,0,.11,0,.1.11-.08.16-.11.08.08,0,.3Z"/><path class="cls-2" d="M31,48.76c-.18.17-.28.18-.31.1a1.5,1.5,0,0,0,0-.2s-.06,0-.13,0a.23.23,0,0,1-.29,0c0-.08,0-.21.11-.39l.06,0a1.45,1.45,0,0,1,.34-.09s0,.09,0,.24,0,.12,0,.11.12-.07.17-.09.09.08,0,.31Z"/><path class="cls-2" d="M43.42,46.83c-.15.18-.18.24-.17.19a.58.58,0,0,0,0-.18s0,0-.05.07,0,.18,0,.18a1.36,1.36,0,0,1-.15-.31v-.06c0-.23,0-.31.07-.35s.13,0,.17.17,0,.11.06.09.08-.12.13-.15.11.07,0,.29Z"/><path class="cls-2" d="M21.45,47.58c-.16.18-.18.24-.18.19a.58.58,0,0,0,0-.18s0,0,0,.07,0,.18-.05.18a2.33,2.33,0,0,1-.15-.3v-.07c0-.22,0-.31.07-.35s.13,0,.17.17,0,.11.06.09.08-.11.13-.14.11.07,0,.28Z"/><path class="cls-2" d="M29.89,50.62c-.23.09-.37,0-.34-.13s.13-.13.15-.17,0-.08-.07-.13a.28.28,0,0,1-.1-.31c.07-.08.18-.12.41-.06l0,0c.15.18.2.25.21.31s-.06.05-.2.08-.11,0-.08.07.14,0,.18,0,0,0-.16.23Z"/><path class="cls-2" d="M21.62,36.53c.16.18.18.27.1.29s-.16,0-.2,0,0,.06,0,.12.08.2,0,.26-.16,0-.38,0l-.06,0C21,37,21,36.85,21,36.78s.11-.08.25-.06.12,0,.12,0-.08-.13-.09-.18.08-.1.31,0Z"/><path class="cls-2" d="M23.21,36.3c.17.16.2.24.13.25s-.15,0-.18,0,0,0,0,.1.09.18.07.22-.15,0-.35-.06l-.06,0c-.15-.17-.19-.25-.19-.3s.08-.06.22,0,.11,0,.1,0-.08-.11-.1-.15.06-.07.28,0Z"/><path class="cls-2" d="M30.19,31.33c.15.2.14.32,0,.36s-.17,0-.22,0,0,.07,0,.14a.32.32,0,0,1-.07.31A.47.47,0,0,1,29.5,32l0-.06c-.07-.22-.07-.33,0-.4s.14-.07.29,0,.13,0,.13,0,0-.15-.05-.2.1-.1.34,0Z"/><path class="cls-2" d="M30.43,34.87c0,.27,0,.4-.17.42s-.19,0-.25,0-.1.08-.13.16a.45.45,0,0,1-.26.35.51.51,0,0,1-.49-.14l0-.07a.69.69,0,0,1,.19-.44.51.51,0,0,1,.39,0c.08,0,.16,0,.19,0s0-.18.06-.24.21-.13.45,0Z"/><path class="cls-2" d="M24.65,49.56c.18.15.22.22.16.21l-.17-.05s0,0,0,.08.11.15.1.18-.13,0-.33-.11l-.05,0c-.17-.15-.22-.22-.22-.27s.06,0,.19,0,.11,0,.09,0-.09-.09-.11-.13,0-.05.26.06Z"/><path class="cls-2" d="M24.45,46.71c0,.24-.07.32-.14.29s-.1-.14-.14-.15-.06,0-.08.1-.1.19-.16.21-.16-.08-.27-.28v-.07c0-.22.06-.31.12-.36s.14,0,.24.13.09.09.11.05,0-.14.07-.19.13,0,.25.21Z"/><path class="cls-2" d="M27.49,36.73c0,.27-.12.39-.26.39S27,37,27,37s-.12.05-.17.13a.51.51,0,0,1-.39.26.55.55,0,0,1-.44-.31v-.07a.77.77,0,0,1,.35-.34.56.56,0,0,1,.38.1.19.19,0,0,0,.2,0c.05,0,.07-.17.11-.23s.23-.08.45.07Z"/><path class="cls-2" d="M25.57,35.47c0,.24,0,.31-.05.26a.88.88,0,0,1-.06-.17s0,0,0,.08,0,.18,0,.17.07-.18-.13-.29l-.05,0c-.17-.15-.11-.32,0-.37s.14,0,.16.16,0,.1,0,.07a.86.86,0,0,0,0-.17c0-.06,0,0,.09.24Z"/><path class="cls-2" d="M24.24,46.17c.17.17.2.25.12.27a1.54,1.54,0,0,0-.19,0s0,0,0,.11.08.19,0,.24-.15,0-.36-.05l-.06,0c-.15-.17-.18-.26-.18-.32s.09-.07.24,0,.11,0,.1,0-.07-.12-.1-.16.08-.08.31,0Z"/><path class="cls-2" d="M48.42,50.2c.18.16.17.28.08.29s-.15-.07-.19-.08,0,0-.05.11-.12.2-.18.2-.12-.12-.14-.34v-.06a2.39,2.39,0,0,1,.12-.33s0,0,.07.17.06.09.06.06-.05-.12-.08-.16,0,0,.24.1Z"/><path class="cls-2" d="M51.65,44.84c.19.16.15.29.09.27S51.62,45,51.6,45s0,0,0,.09a.79.79,0,0,1,0,.13l0,0a.71.71,0,0,0-.24-.22l-.06,0c-.16-.15-.15-.28-.13-.33s.09,0,.18.1.08.07.07,0a.44.44,0,0,0-.08-.15.61.61,0,0,0,.2.16Z"/><path class="cls-2" d="M48,45.48c0,.24,0,.33-.08.31s-.14-.1-.18-.1-.06.05-.06.12a.25.25,0,0,1-.15.27.36.36,0,0,1-.35-.22v-.07c0-.23,0-.32.07-.37s.13,0,.26.07.11,0,.13,0,0-.15,0-.21.16-.06.33.12Z"/><path class="cls-2" d="M42.14,52.46c0,.25,0,.33-.09.32s-.13-.1-.18-.1,0,0-.06.12a.27.27,0,0,1-.14.27.41.41,0,0,1-.36-.23v-.07c0-.23,0-.32.07-.37s.13,0,.26.07.12.05.14,0,0-.15,0-.2.16-.07.32.12Z"/><path class="cls-2" d="M39.75,50.79c0,.24,0,.33-.08.32s-.14-.1-.18-.1-.06.05-.07.12-.06.23-.14.26-.23,0-.35-.23V51.1c0-.23,0-.32.07-.37s.13,0,.26.07.11.05.13,0,0-.15,0-.21.16-.06.32.13Z"/><path class="cls-2" d="M45.92,48.85c-.19.16-.27.18-.3.1a1.54,1.54,0,0,0,0-.19s-.07,0-.12,0-.2.08-.25,0-.05-.16,0-.38l0-.06c.16-.15.26-.18.33-.17s.09.1.07.25,0,.12,0,.12.13-.08.18-.09.1.08,0,.31Z"/><path class="cls-2" d="M43.57,51.81c-.19.17-.28.19-.3.11s0-.16,0-.2-.06,0-.12,0-.2.07-.25,0,0-.16,0-.38l0-.06c.17-.15.26-.18.33-.17s.09.1.07.25,0,.12,0,.12.13-.08.18-.1.1.09,0,.32Z"/><path class="cls-2" d="M43.83,49.83c-.23,0-.3,0-.26,0l.16-.06s0,0-.07,0-.12.14-.11.15.07-.09.18-.27l.05-.06c.14-.16.2-.22.26-.2a.15.15,0,0,1,0,.24s-.08.06,0,.07l.17,0c.06,0,0,.05-.23.12Z"/><path class="cls-2" d="M28.59,52.44c-.23,0-.3,0-.25,0l.16-.06s0,0-.07,0-.11.16-.1.17a1.84,1.84,0,0,0,.17-.29l0-.06c.14-.17.2-.22.26-.22a.18.18,0,0,1,0,.26c-.05,0-.09.06-.06.07h.18c.06,0,0,0-.23.11Z"/><path class="cls-2" d="M46.33,49.33c-.14.19-.19.23-.18.18s.07-.13.08-.16,0,0-.06,0-.13.13-.14.13a.93.93,0,0,1,.14-.31l0,0c.14-.18.19-.24.22-.25s0,0-.05.17,0,.1,0,.08.08-.1.12-.13,0,0-.1.23Z"/><path class="cls-2" d="M42.48,50.08c-.14.18-.19.23-.18.18l.08-.16s0,0-.06.06-.12.13-.14.12a2.18,2.18,0,0,1,.14-.3l0-.06c.13-.18.19-.24.22-.25s0,0,0,.17,0,.1,0,.08.08-.1.11-.13,0,0-.09.23Z"/><path class="cls-2" d="M21.88,50.05c-.14.19-.19.23-.18.18l.08-.16s0,0-.06,0-.13.13-.14.12a1,1,0,0,1,.14-.29l0-.06a1.85,1.85,0,0,1,.22-.25s0,0-.06.17,0,.1,0,.08.08-.1.11-.13,0,0-.09.23Z"/><path class="cls-2" d="M51.17,49c0,.24,0,.31,0,.26s-.06-.14-.07-.16,0,0,0,.09,0,.17.05.17,0-.13-.22-.24l-.06,0c-.16-.15-.13-.29-.09-.35s.13,0,.21.1.06.09.07.06,0-.13,0-.18.07,0,.14.23Z"/><path class="cls-2" d="M49.14,47.36c.19.15.14.33,0,.3S49,47.5,49,47.48s0,0-.11,0-.21,0-.23,0,.07-.12.29-.18H49a.68.68,0,0,0,.32-.07s-.05,0-.16.06-.08.07-.07.05A.18.18,0,0,0,49,47.1c-.13,0-.15.12.06.23Z"/><path class="cls-2" d="M26.31,50.49c.19.15.22.23.14.24a.61.61,0,0,1-.18-.07s0,0-.07.1a.19.19,0,0,1-.24.14c-.05,0-.06-.15.05-.34l0-.06c.14-.16.19-.23.18-.27s-.08,0-.09.17,0,.1,0,.07a.45.45,0,0,0-.12-.12l.23.11Z"/><path class="cls-2" d="M26.35,46.92c.19.13.22.22.13.24s-.15-.07-.18-.08,0,0-.07.1-.19.16-.24.14,0-.15.05-.35l0,0c.14-.17.19-.24.19-.27s-.07,0-.08.16,0,.1,0,.08a.45.45,0,0,0-.12-.12c-.05,0,0,0,.22.11Z"/><path class="cls-2" d="M23.49,27.12c.16.18.18.26.11.28a1.48,1.48,0,0,0-.19,0s0,.06,0,.11.08.19.06.24-.16,0-.37,0l-.06,0c-.15-.16-.19-.26-.18-.32s.1-.07.24-.05.12,0,.11,0-.08-.13-.09-.17.07-.09.29,0Z"/><path class="cls-2" d="M21.31,29.27c.16.17.19.25.11.27s-.15,0-.19,0,0,.05,0,.11.09.18.06.23-.15,0-.37,0l-.06,0c-.15-.16-.19-.25-.18-.32s.09-.07.24,0,.12,0,.11,0-.08-.12-.1-.17.07-.08.3,0Z"/><path class="cls-2" d="M46.32,51.73c0,.24,0,.31-.09.26a1.43,1.43,0,0,0,0-.18s0,0-.07.06S46,52,45.92,52s0-.13.08-.33l0-.06.22-.25a1.5,1.5,0,0,0,0,.17c0,.06,0,.11,0,.08s0-.13,0-.17,0,0,.06.24Z"/><path class="cls-2" d="M28,38.3c.16.18.15.3.06.3s-.15-.07-.18-.07,0,0,0,.12,0,.21-.05.24-.15,0-.3-.2l0-.06c-.07-.22-.06-.31,0-.36s.1,0,.21.07.1.06.1,0-.05-.13-.07-.17.05,0,.27.07Z"/><path class="cls-2" d="M30,37.86c.19.14.19.25.12.24S30,38,29.93,38s0,0,0,.09,0,.18,0,.2-.1-.09-.16-.3l0-.06a1.28,1.28,0,0,0-.06-.33.79.79,0,0,0,.08.16s.06.08.05.06a.53.53,0,0,0-.1-.14s0,0,.19.15Z"/><path class="cls-2" d="M29,47.74c0,.24,0,.31,0,.27s-.1-.12-.13-.13,0,0,0,.1,0,.19,0,.22-.13-.06-.28-.23l0-.06c-.06-.21-.06-.3,0-.35s.1,0,.21.09.09.07.1,0,0-.14,0-.19.12,0,.23.18Z"/><path class="cls-2" d="M29.81,50.73c.18.15.22.22.16.22a1.77,1.77,0,0,0-.17-.06s0,0,0,.09.11.14.1.17-.13,0-.33-.09l-.06,0c-.17-.14-.22-.21-.23-.25s.07,0,.2,0,.11,0,.09,0a.71.71,0,0,0-.12-.13c0-.06.05,0,.27.05Z"/><path class="cls-2" d="M45.18,26.9c-.12-.21,0-.34,0-.31s.11.13.14.14.05,0,.09-.07.17-.15.23-.13.08.15,0,.36l0,.06a2.5,2.5,0,0,1-.22.26s0,0,0-.18,0-.1,0-.08a.39.39,0,0,0,0,.18c0,.05,0,0-.18-.18Z"/><path class="cls-2" d="M43.72,31c-.14.19-.24.19-.25.11s.09-.14.09-.16,0,0-.09,0-.2-.07-.21-.12.11-.09.33-.1h.07l.33.05a.63.63,0,0,0-.17,0c-.06,0-.09.05-.07,0a.53.53,0,0,0,.14-.1s0,0-.13.21Z"/><path class="cls-2" d="M45.61,29.25c-.18-.15-.22-.22-.16-.23a.74.74,0,0,0,.18,0s0,0,0-.09-.1-.15-.09-.19.14,0,.34.07l.06,0c.17.15.22.23.22.28s-.07,0-.21,0-.1,0-.09,0a1.3,1.3,0,0,0,.12.14c0,.06-.06.06-.28,0Z"/><path class="cls-2" d="M44.72,28.32c0-.23-.06-.3,0-.25l.07.16s0,0,0-.06a.13.13,0,0,0-.19-.06s.09.06.29.15l.06,0c.19.11.26.15.26.21a.15.15,0,0,1-.24,0c0-.05-.07-.09-.07-.06a1.55,1.55,0,0,0,0,.17c0,.06,0,0-.11-.22Z"/><path class="cls-2" d="M42.3,31c-.2-.11-.26-.15-.21-.13l.16.08s0,0-.06-.05L42,30.79l.29.14.06,0,.28.17s0,0-.16-.07l-.07,0,.15.09s0,0-.23-.1Z"/><path class="cls-2" d="M44.6,32.6c-.23,0-.3,0-.26,0l.16-.07s0,0-.07,0-.17.06-.16.08.16,0,.25-.21l0-.06c.13-.18.27-.16.33-.13s0,.11-.11.18-.08.06-.06.06a.58.58,0,0,0,.18,0c.06,0,0,0-.23.13Z"/><path class="cls-2" d="M45.51,31.29c-.11.21-.31.16-.28,0s.15-.11.17-.11,0-.05,0-.11,0-.19,0-.21.11.07.19.27l0,.07a.74.74,0,0,0,.11.3s0-.06-.06-.17-.07-.07,0-.07.14,0,.17-.07-.14-.17-.23.05Z"/><path class="cls-2" d="M37.76,50.18c-.21-.15-.24-.3-.15-.4s.18-.06.22-.1,0-.11,0-.19a.44.44,0,0,1,0-.41.49.49,0,0,1,.48,0l.05,0a.67.67,0,0,1,0,.44.42.42,0,0,1-.3.14c-.08,0-.14.05-.14.11s.09.14.11.19-.06.17-.31.23Z"/><path class="cls-2" d="M40.18,48.16c-.24,0-.3-.11-.24-.15l.19,0s0,0-.06-.08-.11-.17-.06-.24a.26.26,0,0,1,.36.16v.06c0,.23.19.24.2.24s0,0-.15-.08-.1,0-.08,0l.16.06s0,0-.25,0Z"/><path class="cls-2" d="M40.41,45.82c-.24-.06-.3-.14-.24-.2s.16,0,.19,0,0-.06,0-.11a.23.23,0,0,1-.05-.29.29.29,0,0,1,.39.09l0,.06a.48.48,0,0,0,.17.28l-.19,0c-.06,0-.11,0-.09,0a.61.61,0,0,0,.16.09c.05,0,0,.06-.26.11Z"/><path class="cls-2" d="M41.84,46.49c-.23,0-.3-.06-.25-.1s.16,0,.18,0,0,0-.07-.06-.16-.13-.14-.2a.28.28,0,0,1,.37,0l0,0a.41.41,0,0,0,.26.18h-.17c-.06,0-.11,0-.08,0l.17,0c.05,0,0,.06-.25.09Z"/><path class="cls-2" d="M25.56,44.66c.13-.21.24-.24.28-.16a1.48,1.48,0,0,1,0,.2s.07,0,.13,0,.21-.06.27,0,.05.18-.07.38l-.05,0a.87.87,0,0,1-.33.14s-.05-.09,0-.23,0-.12,0-.11-.11.09-.15.12-.08,0-.06-.29Z"/><path class="cls-2" d="M31.1,38.41c0-.24.1-.31.15-.25s.05.15.08.17.05,0,.09-.07.13-.16.2-.15a.34.34,0,0,1,.1.37l0,.06c-.14.18-.16.26-.2.28s-.06,0-.1-.19,0-.1-.07-.08-.05.13-.08.17-.09,0-.14-.25Z"/><path class="cls-2" d="M32.77,47.62c-.18-.18-.21-.3-.12-.37s.18,0,.22-.08,0-.1,0-.17a.36.36,0,0,1,0-.36.48.48,0,0,1,.46-.09l0,0c.12.21.14.32.12.41a.37.37,0,0,1-.28.16c-.07,0-.13.05-.13.1s.08.14.1.2-.08.17-.34.18Z"/><path class="cls-2" d="M35.26,48.16c-.23,0-.3,0-.25-.08l.17,0s0,0-.07,0-.17,0-.18-.08a.81.81,0,0,1,.33-.07h.07a.81.81,0,0,1,.33.07s0,0-.18.08-.1,0-.07,0l.17,0c.05,0,0,.05-.25.08Z"/><path class="cls-2" d="M36.78,47.14c-.15-.21-.14-.34,0-.4s.19,0,.24,0,.06-.09.05-.17a.38.38,0,0,1,.12-.37.44.44,0,0,1,.47.06l0,.06a.63.63,0,0,1,0,.43.42.42,0,0,1-.31.07c-.08,0-.14,0-.15.06s0,.16.05.22-.12.15-.37.12Z"/><path class="cls-2" d="M36.7,37.19c-.23,0-.3-.09-.25-.13a1.47,1.47,0,0,0,.17-.07s0,0-.07-.06-.18-.09-.18-.14.11-.09.33-.13h.07c.22,0,.3.09.33.13s0,.09-.18.14-.1,0-.08.06a1.13,1.13,0,0,0,.18.07s0,.09-.25.13Z"/><path class="cls-2" d="M34.05,41.58c-.24-.08-.3-.18-.23-.26s.16-.06.19-.09,0-.08,0-.13-.12-.22-.08-.3a.36.36,0,0,1,.4-.07l.06,0c.15.18.2.26.2.32s-.07.09-.22.11-.12,0-.1.08.12.09.16.12,0,.11-.26.19Z"/><path class="cls-2" d="M34.66,43.78c-.24,0-.3-.11-.23-.13a.79.79,0,0,1,.17,0s0,0-.05-.07-.12-.14-.1-.16.12,0,.29.16l0,0c.15.16.21.21.24.22s0,0,0,0l-.12-.07c-.05,0-.1,0-.07,0l.16.06c.05,0,0,0-.25,0Z"/><path class="cls-2" d="M32.85,38.23c-.15-.19-.21-.22-.14-.22s.14.06.17.05,0,0,0-.08-.13-.14-.11-.17.13,0,.34,0l.06,0c.18.12.23.19.25.24s-.08.06-.22,0-.1,0-.09,0,.09.1.11.15-.08.09-.28,0Z"/><path class="cls-2" d="M19.9,34.27a1.25,1.25,0,0,1-.53.74,2.41,2.41,0,0,0-.43.18.65.65,0,0,0-.21.39c-.06.31-.14.55-.21.8a4.25,4.25,0,0,1-.41.78H18a1.2,1.2,0,0,1-.21-1,1.43,1.43,0,0,1,.59-.81,1.21,1.21,0,0,0,.36-.31c.08-.13.12-.32.21-.46a1,1,0,0,1,.87-.38Z"/><path class="cls-2" d="M28.32,49.46c.07.29,0,.46-.13.56s-.23,0-.29.11-.09.15-.1.25a.89.89,0,0,1-.14.53.87.87,0,0,1-.57.26l-.05,0a.81.81,0,0,1,0-.62.79.79,0,0,1,.45-.34.34.34,0,0,0,.22-.18,3,3,0,0,0,0-.31c.07-.18.24-.28.53-.26Z"/><path class="cls-2" d="M49.85,48.25c.08.26,0,.42-.16.47s-.21,0-.28,0-.11.09-.15.18a.52.52,0,0,1-.34.34.55.55,0,0,1-.51-.19l0-.07a.76.76,0,0,1,.29-.42.58.58,0,0,1,.41,0,.19.19,0,0,0,.2,0c.05-.06,0-.18.06-.25s.19-.14.45-.08Z"/><path class="cls-2" d="M28.46,26c.11.26.1.42,0,.54s-.22.07-.28.13a.35.35,0,0,0-.07.26.57.57,0,0,1-.39.54.5.5,0,0,1-.62-.28v-.07c.21-.18.3-.27.35-.32l.35-.09c.09,0,.17-.07.18-.15s0-.2,0-.29.18-.3.46-.31Z"/><path class="cls-2" d="M28.21,23.7c.09.23.06.35,0,.38s-.18,0-.23,0-.06.07-.06.15a.35.35,0,0,1-.15.33.43.43,0,0,1-.43-.15l0-.06a.64.64,0,0,1,.06-.41.36.36,0,0,1,.31,0c.07,0,.13,0,.15,0s0-.16,0-.22.14-.11.37,0Z"/><path class="cls-2" d="M19.8,31.64c.09.23.07.35,0,.37s-.18,0-.23,0-.06.07-.06.15a.33.33,0,0,1-.15.32.44.44,0,0,1-.43-.14l0-.06a.7.7,0,0,1,.07-.41.33.33,0,0,1,.31,0c.07,0,.13,0,.15,0a.83.83,0,0,0,0-.22c0-.1.15-.11.38,0Z"/><path class="cls-2" d="M25.48,26.13c.17.17.17.27.1.27s-.14-.08-.17-.08,0,.05,0,.1,0,.19,0,.22-.1-.07-.29-.17l-.06,0a.39.39,0,0,1-.12-.35s.09,0,.2.06.1.05.1,0-.07-.12-.09-.16,0,0,.25.09Z"/><path class="cls-2" d="M25.94,27.34c.16.18.17.29.09.32s-.17,0-.21,0,0,.07,0,.14a.25.25,0,0,1,0,.3c-.08,0-.21.05-.4-.08l0-.05c-.08-.22-.1-.31-.08-.37s.11-.06.26,0,.12,0,.12,0-.07-.13-.08-.18.09-.11.32,0Z"/><path class="cls-2" d="M27.29,28.22c.18.16.19.27.11.27s-.14-.07-.17-.07,0,0,0,.11,0,.21-.1.24a.23.23,0,0,1-.16-.06.23.23,0,0,1-.08-.26l0-.05a.25.25,0,0,0,0-.32s0,.05.11.14.09.07.08,0a.6.6,0,0,0-.09-.15c0-.06,0,0,.25.08Z"/><path class="cls-2" d="M32.1,22.07c.12.24.1.4,0,.49s-.2,0-.26.07-.07.12-.07.21a.52.52,0,0,1-.16.45.54.54,0,0,1-.55,0l0-.06a.8.8,0,0,1,.08-.49.59.59,0,0,1,.38-.17c.09,0,.16,0,.18-.11s0-.19,0-.26.16-.22.43-.2Z"/><path class="cls-2" d="M25.43,30.54c.16.19.16.3.07.33s-.17-.05-.21,0,0,.05,0,.13a.24.24,0,0,1-.15.28.31.31,0,0,1-.32-.28v-.07a1,1,0,0,0,.05-.33s.06,0,.18.1.11,0,.11,0-.05-.13-.07-.17.07-.06.3,0Z"/><path class="cls-2" d="M24.39,28.84c.17.16.2.24.13.24s-.15,0-.18,0,0,0,0,.11.05.2,0,.25-.22,0-.32-.2l0-.06a.67.67,0,0,0-.11-.31.62.62,0,0,1,.17.07c.06,0,.1,0,.09,0s-.08-.11-.1-.15.06-.05.27.05Z"/><path class="cls-2" d="M23.16,29.07c.19.16.18.27.11.25a.87.87,0,0,1-.14-.12s0,0,0,.09,0,.19,0,.2-.1-.09-.16-.3v-.07c0-.21-.05-.29-.05-.32A.79.79,0,0,0,23,29C23,29,23,29,23,29a.94.94,0,0,0-.1-.14s0,0,.19.16Z"/><path class="cls-2" d="M23.3,31.69c.14.22.14.34,0,.4s-.18,0-.23,0,0,.1,0,.17a.4.4,0,0,1,0,.36.54.54,0,0,1-.45.08l-.05,0a.52.52,0,0,1-.11-.44.4.4,0,0,1,.32-.16c.08,0,.14,0,.15-.09s-.05-.16-.06-.22.13-.17.38-.13Z"/><path class="cls-2" d="M21.79,31c.18.15.22.22.16.22l-.17-.06s0,0,0,.08.12.15.1.18-.13,0-.33-.1l-.06,0c-.17-.15-.22-.22-.22-.26s.07,0,.2,0,.1,0,.09,0L21.47,31c0-.06.05-.05.26.05Z"/><path class="cls-2" d="M22.23,33.16c.18.15.22.2.17.19l-.16-.06s0,0,0,.07.12.14.11.16a.8.8,0,0,1-.31-.12l-.06,0a1.14,1.14,0,0,1-.24-.24s.06,0,.19,0,.1,0,.08,0a.71.71,0,0,0-.12-.13s0,0,.24.08Z"/><path class="cls-2" d="M21.1,42.25c-.21-.13-.24-.25-.17-.31s.18,0,.21,0,0-.08,0-.13-.1-.21-.08-.27.15-.07.38-.08l.06,0c.2.13.24.25.24.33s-.1.13-.26.15-.12,0-.11.07.1.11.12.16-.05.1-.29.11Z"/><path class="cls-2" d="M19.39,39.76c-.23,0-.31,0-.26,0l.16-.08s0,0-.08,0-.18-.08-.18-.14.15-.14.36-.06l.06,0a.42.42,0,0,0,.3.11l-.17,0c-.06,0-.1,0-.07,0h.17c.06,0,0,0-.22.13Z"/><path class="cls-2" d="M23.48,40.26c.15.21.16.32.07.36a1.15,1.15,0,0,0-.21,0c-.05,0,0,.09,0,.15a.35.35,0,0,1,.09.27.75.75,0,0,1-.37.18H23a.41.41,0,0,1-.26-.36.31.31,0,0,1,.27-.23c.07,0,.13,0,.13-.1s-.07-.15-.08-.21.12-.16.36-.1Z"/><path class="cls-2" d="M18.06,33.71c-.18.17-.25.2-.25.14s0-.16,0-.18-.05,0-.09,0-.13.14-.16.13a1.08,1.08,0,0,1,0-.34v-.07c.08-.21.17-.27.25-.28s.11.08.11.23,0,.11,0,.1.11-.08.16-.11.08.08,0,.3Z"/><path class="cls-2" d="M31,48.76c-.18.17-.28.18-.31.1a1.5,1.5,0,0,0,0-.2s-.06,0-.13,0a.23.23,0,0,1-.29,0c0-.08,0-.21.11-.39l.06,0a1.45,1.45,0,0,1,.34-.09s0,.09,0,.24,0,.12,0,.11.12-.07.17-.09.09.08,0,.31Z"/><path class="cls-2" d="M43.42,46.83c-.15.18-.18.24-.17.19a.58.58,0,0,0,0-.18s0,0-.05.07,0,.18,0,.18a1.36,1.36,0,0,1-.15-.31v-.06c0-.23,0-.31.07-.35s.13,0,.17.17,0,.11.06.09.08-.12.13-.15.11.07,0,.29Z"/><path class="cls-2" d="M29.57,38.94c-.16.18-.18.24-.18.19a.58.58,0,0,0,0-.18s0,0,0,.07,0,.18-.05.18a2.33,2.33,0,0,1-.15-.3v-.07c0-.22,0-.31.07-.35s.13,0,.17.17,0,.11.06.09.09-.12.13-.14.11.07,0,.28Z"/><path class="cls-2" d="M29.89,50.62c-.23.09-.37,0-.34-.13s.13-.13.15-.17,0-.08-.07-.13a.28.28,0,0,1-.1-.31c.07-.08.18-.12.41-.06l0,0c.15.18.2.25.21.31s-.06.05-.2.08-.11,0-.08.07.14,0,.18,0,0,0-.16.23Z"/><path class="cls-2" d="M21.62,36.53c.16.18.18.27.1.29s-.16,0-.2,0,0,.06,0,.12.08.2,0,.26-.16,0-.38,0l-.06,0C21,37,21,36.85,21,36.78s.11-.08.25-.06.12,0,.12,0-.08-.13-.09-.18.08-.1.31,0Z"/><path class="cls-2" d="M23.21,36.3c.17.16.2.24.13.25s-.15,0-.18,0,0,0,0,.1.09.18.07.22-.15,0-.35-.06l-.06,0c-.15-.17-.19-.25-.19-.3s.08-.06.22,0,.11,0,.1,0-.08-.11-.1-.15.06-.07.28,0Z"/><path class="cls-2" d="M30.19,31.33c.15.2.14.32,0,.36s-.17,0-.22,0,0,.07,0,.14a.32.32,0,0,1-.07.31A.47.47,0,0,1,29.5,32l0-.06c-.07-.22-.07-.33,0-.4s.14-.07.29,0,.13,0,.13,0,0-.15-.05-.2.1-.1.34,0Z"/><path class="cls-2" d="M18.72,39.42c-.26,0-.34-.12-.31-.23s.13-.11.15-.16,0-.09-.1-.13a.31.31,0,0,1-.22-.23c0-.09.07-.18.26-.32l.07,0a.46.46,0,0,1,.38.21.32.32,0,0,1-.12.3c-.06.06-.09.11-.06.15s.15.06.2.1,0,.16-.19.31Z"/><path class="cls-2" d="M21,40.69c-.25.06-.36,0-.37-.08s.08-.16.07-.21-.07-.07-.14-.07a.37.37,0,0,1-.31-.14.5.5,0,0,1,.12-.4l.06,0a.55.55,0,0,1,.43,0,.32.32,0,0,1,0,.32c0,.07,0,.13,0,.15s.16,0,.22,0,.09.15-.05.36Z"/><path class="cls-2" d="M20,43.5c-.28,0-.44-.1-.46-.28s.09-.2.09-.28a.31.31,0,0,0-.12-.21.52.52,0,0,1-.19-.48.54.54,0,0,1,.41-.4l.07,0a.94.94,0,0,1,.24.43.64.64,0,0,1-.17.37c-.05.07-.07.15,0,.2S20,43,20,43s.08.2,0,.45Z"/><path class="cls-2" d="M18.72,39.42c-.26,0-.34-.12-.31-.23s.13-.11.15-.16,0-.09-.1-.13a.31.31,0,0,1-.22-.23c0-.09.07-.18.26-.32l.07,0a.46.46,0,0,1,.38.21.32.32,0,0,1-.12.3c-.06.06-.09.11-.06.15s.15.06.2.1,0,.16-.19.31Z"/><path class="cls-2" d="M21,40.69c-.25.06-.36,0-.37-.08s.08-.16.07-.21-.07-.07-.14-.07a.37.37,0,0,1-.31-.14.5.5,0,0,1,.12-.4l.06,0a.55.55,0,0,1,.43,0,.32.32,0,0,1,0,.32c0,.07,0,.13,0,.15s.16,0,.22,0,.09.15-.05.36Z"/><path class="cls-2" d="M20,43.5c-.28,0-.44-.1-.46-.28s.09-.2.09-.28a.31.31,0,0,0-.12-.21.52.52,0,0,1-.19-.48.54.54,0,0,1,.41-.4l.07,0a.94.94,0,0,1,.24.43.64.64,0,0,1-.17.37c-.05.07-.07.15,0,.2S20,43,20,43s.08.2,0,.45Z"/><path class="cls-2" d="M20.07,46.65c0,.27,0,.39-.16.42s-.19,0-.26,0-.1.08-.12.16a.47.47,0,0,1-.26.35.56.56,0,0,1-.5-.14l0-.07a.75.75,0,0,1,.19-.44.53.53,0,0,1,.4,0c.08,0,.15,0,.19,0s0-.18.06-.24.21-.13.44,0Z"/><path class="cls-2" d="M24.65,49.56c.18.15.22.22.16.21l-.17-.05s0,0,0,.08.11.15.1.18-.13,0-.33-.11l-.05,0c-.17-.15-.22-.22-.22-.27s.06,0,.19,0,.11,0,.09,0-.09-.09-.11-.13,0-.05.26.06Z"/><path class="cls-2" d="M24.45,46.71c0,.24-.07.32-.14.29s-.1-.14-.14-.15-.06,0-.08.1-.1.19-.16.21-.16-.08-.27-.28v-.07c0-.22.06-.31.12-.36s.14,0,.24.13.09.09.11.05,0-.14.07-.19.13,0,.25.21Z"/><path class="cls-2" d="M27.49,36.73c0,.27-.12.39-.26.39S27,37,27,37s-.12.05-.17.13a.51.51,0,0,1-.39.26.55.55,0,0,1-.44-.31v-.07a.77.77,0,0,1,.35-.34.56.56,0,0,1,.38.1.19.19,0,0,0,.2,0c.05,0,.07-.17.11-.23s.23-.08.45.07Z"/><path class="cls-2" d="M25.57,35.47c0,.24,0,.31-.05.26a.88.88,0,0,1-.06-.17s0,0,0,.08,0,.18,0,.17.07-.18-.13-.29l-.05,0c-.17-.15-.11-.32,0-.37s.14,0,.16.16,0,.1,0,.07a.86.86,0,0,0,0-.17c0-.06,0,0,.09.24Z"/><path class="cls-2" d="M24.24,46.17c.17.17.2.25.12.27a1.54,1.54,0,0,0-.19,0s0,0,0,.11.08.19,0,.24-.15,0-.36-.05l-.06,0c-.15-.17-.18-.26-.18-.32s.09-.07.24,0,.11,0,.1,0-.07-.12-.1-.16.08-.08.31,0Z"/><path class="cls-2" d="M48.42,50.2c.18.16.17.28.08.29s-.15-.07-.19-.08,0,0-.05.11-.12.2-.18.2-.12-.12-.14-.34v-.06a2.39,2.39,0,0,1,.12-.33s0,0,.07.17.06.09.06.06-.05-.12-.08-.16,0,0,.24.1Z"/><path class="cls-2" d="M51.65,44.84c.19.16.15.29.09.27S51.62,45,51.6,45s0,0,0,.09a.79.79,0,0,1,0,.13l0,0a.71.71,0,0,0-.24-.22l-.06,0c-.16-.15-.15-.28-.13-.33s.09,0,.18.1.08.07.07,0a.44.44,0,0,0-.08-.15.61.61,0,0,0,.2.16Z"/><path class="cls-2" d="M48,45.48c0,.24,0,.33-.08.31s-.14-.1-.18-.1-.06.05-.06.12a.25.25,0,0,1-.15.27.36.36,0,0,1-.35-.22v-.07c0-.23,0-.32.07-.37s.13,0,.26.07.11,0,.13,0,0-.15,0-.21.16-.06.33.12Z"/><path class="cls-2" d="M42.14,52.46c0,.25,0,.33-.09.32s-.13-.1-.18-.1,0,0-.06.12a.27.27,0,0,1-.14.27.41.41,0,0,1-.36-.23v-.07c0-.23,0-.32.07-.37s.13,0,.26.07.12.05.14,0,0-.15,0-.2.16-.07.32.12Z"/><path class="cls-2" d="M39.75,50.79c0,.24,0,.33-.08.32s-.14-.1-.18-.1-.06.05-.07.12-.06.23-.14.26-.23,0-.35-.23V51.1c0-.23,0-.32.07-.37s.13,0,.26.07.11.05.13,0,0-.15,0-.21.16-.06.32.13Z"/><path class="cls-2" d="M45.92,48.85c-.19.16-.27.18-.3.1a1.54,1.54,0,0,0,0-.19s-.07,0-.12,0-.2.08-.25,0-.05-.16,0-.38l0-.06c.16-.15.26-.18.33-.17s.09.1.07.25,0,.12,0,.12.13-.08.18-.09.1.08,0,.31Z"/><path class="cls-2" d="M43.57,51.81c-.19.17-.28.19-.3.11s0-.16,0-.2-.06,0-.12,0-.2.07-.25,0,0-.16,0-.38l0-.06c.17-.15.26-.18.33-.17s.09.1.07.25,0,.12,0,.12.13-.08.18-.1.1.09,0,.32Z"/><path class="cls-2" d="M43.83,49.83c-.23,0-.3,0-.26,0l.16-.06s0,0-.07,0-.12.14-.11.15.07-.09.18-.27l.05-.06c.14-.16.2-.22.26-.2a.15.15,0,0,1,0,.24s-.08.06,0,.07l.17,0c.06,0,0,.05-.23.12Z"/><path class="cls-2" d="M28.59,52.44c-.23,0-.3,0-.25,0l.16-.06s0,0-.07,0-.11.16-.1.17a1.84,1.84,0,0,0,.17-.29l0-.06c.14-.17.2-.22.26-.22a.18.18,0,0,1,0,.26c-.05,0-.09.06-.06.07h.18c.06,0,0,0-.23.11Z"/><path class="cls-2" d="M46.33,49.33c-.14.19-.19.23-.18.18s.07-.13.08-.16,0,0-.06,0-.13.13-.14.13a.93.93,0,0,1,.14-.31l0,0c.14-.18.19-.24.22-.25s0,0-.05.17,0,.1,0,.08.08-.1.12-.13,0,0-.1.23Z"/><path class="cls-2" d="M42.48,50.08c-.14.18-.19.23-.18.18l.08-.16s0,0-.06.06-.12.13-.14.12a2.18,2.18,0,0,1,.14-.3l0-.06c.13-.18.19-.24.22-.25s0,0,0,.17,0,.1,0,.08.08-.1.11-.13,0,0-.09.23Z"/><path class="cls-2" d="M22,49.34c-.14.18-.19.23-.18.18l.08-.16s0,0-.06,0-.13.13-.14.12a.94.94,0,0,1,.14-.3l0,0a1,1,0,0,1,.22-.25s0,0-.06.17,0,.09,0,.08l.11-.13s0,0-.1.23Z"/><path class="cls-2" d="M51.17,49c0,.24,0,.31,0,.26s-.06-.14-.07-.16,0,0,0,.09,0,.17.05.17,0-.13-.22-.24l-.06,0c-.16-.15-.13-.29-.09-.35s.13,0,.21.1.06.09.07.06,0-.13,0-.18.07,0,.14.23Z"/><path class="cls-2" d="M49.14,47.36c.19.15.14.33,0,.3S49,47.5,49,47.48s0,0-.11,0-.21,0-.23,0,.07-.12.29-.18H49a.68.68,0,0,0,.32-.07s-.05,0-.16.06-.08.07-.07.05A.18.18,0,0,0,49,47.1c-.13,0-.15.12.06.23Z"/><path class="cls-2" d="M26.31,50.49c.19.15.22.23.14.24a.61.61,0,0,1-.18-.07s0,0-.07.1a.19.19,0,0,1-.24.14c-.05,0-.06-.15.05-.34l0-.06c.14-.16.19-.23.18-.27s-.08,0-.09.17,0,.1,0,.07a.45.45,0,0,0-.12-.12l.23.11Z"/><path class="cls-2" d="M26.35,46.92c.19.13.22.22.13.24s-.15-.07-.18-.08,0,0-.07.1-.19.16-.24.14,0-.15.05-.35l0,0c.14-.17.19-.24.19-.27s-.07,0-.08.16,0,.1,0,.08a.45.45,0,0,0-.12-.12c-.05,0,0,0,.22.11Z"/><path class="cls-2" d="M23.49,27.12c.16.18.18.26.11.28a1.48,1.48,0,0,0-.19,0s0,.06,0,.11.08.19.06.24-.16,0-.37,0l-.06,0c-.15-.16-.19-.26-.18-.32s.1-.07.24-.05.12,0,.11,0-.08-.13-.09-.17.07-.09.29,0Z"/><path class="cls-2" d="M21.31,29.27c.16.17.19.25.11.27s-.15,0-.19,0,0,.05,0,.11.09.18.06.23-.15,0-.37,0l-.06,0c-.15-.16-.19-.25-.18-.32s.09-.07.24,0,.12,0,.11,0-.08-.12-.1-.17.07-.08.3,0Z"/><path class="cls-2" d="M46.32,51.73c0,.24,0,.31-.09.26a1.43,1.43,0,0,0,0-.18s0,0-.07.06S46,52,45.92,52s0-.13.08-.33l0-.06.22-.25a1.5,1.5,0,0,0,0,.17c0,.06,0,.11,0,.08s0-.13,0-.17,0,0,.06.24Z"/><path class="cls-2" d="M29,45.09c.16.17.15.29.06.3s-.15-.07-.18-.07,0,0,0,.11,0,.21,0,.24-.15,0-.3-.2l0-.06a.55.55,0,0,1,0-.36s.1,0,.21.08.1,0,.1,0-.05-.13-.07-.17.05,0,.27.07Z"/><path class="cls-2" d="M29.47,40.79c.19.14.19.25.12.24s-.12-.1-.14-.11,0,0,0,.09,0,.18,0,.2-.1-.09-.16-.3l0-.07a2.17,2.17,0,0,0-.06-.32.79.79,0,0,0,.08.16s.06.08.05.06a.53.53,0,0,0-.1-.14s0,0,.19.15Z"/><path class="cls-2" d="M29,47.74c0,.24,0,.31,0,.27s-.1-.12-.13-.13,0,0,0,.1,0,.19,0,.22-.13-.06-.28-.23l0-.06c-.06-.21-.06-.3,0-.35s.1,0,.21.09.09.07.1,0,0-.14,0-.19.12,0,.23.18Z"/><path class="cls-2" d="M29.81,50.73c.18.15.22.22.16.22a1.77,1.77,0,0,0-.17-.06s0,0,0,.09.11.14.1.17-.13,0-.33-.09l-.06,0c-.17-.14-.22-.21-.23-.25s.07,0,.2,0,.11,0,.09,0a.71.71,0,0,0-.12-.13c0-.06.05,0,.27.05Z"/><path class="cls-2" d="M45.85,23.36c-.12-.21-.05-.34,0-.31s.11.13.14.14.06,0,.09-.07.17-.15.24-.13.08.15,0,.36l0,.06-.22.26s0,0,0-.18,0-.1,0-.08a.37.37,0,0,0,0,.18.68.68,0,0,0-.17-.18Z"/><path class="cls-2" d="M50.62,28.93c-.18-.16-.22-.23-.16-.23s.15,0,.18,0,0,0,0-.09-.11-.16-.09-.19.13,0,.34.06l.06,0c.17.15.22.22.22.27s-.07.05-.21,0-.1,0-.09,0a1.34,1.34,0,0,0,.11.14c0,.07,0,.07-.27,0Z"/><path class="cls-2" d="M44.72,28.32c0-.23-.06-.3,0-.25l.07.16s0,0,0-.06a.13.13,0,0,0-.19-.06s.09.06.29.15l.06,0c.19.11.26.15.26.21a.15.15,0,0,1-.24,0c0-.05-.07-.09-.07-.06a1.55,1.55,0,0,0,0,.17c0,.06,0,0-.11-.22Z"/><path class="cls-2" d="M42.3,31c-.2-.11-.26-.15-.21-.13l.16.08s0,0-.06-.05L42,30.79l.29.14.06,0,.28.17s0,0-.16-.07l-.07,0,.15.09s0,0-.23-.1Z"/><path class="cls-2" d="M44.75,37.76c-.23,0-.3,0-.26,0l.16-.07s0,0-.08,0-.16.06-.15.08.15,0,.25-.21l0-.06c.13-.18.27-.16.32-.13s0,.11-.1.19-.09.05-.06.05a1.28,1.28,0,0,0,.18,0c.05,0,0,0-.23.12Z"/><path class="cls-2" d="M48.2,33.62c-.12.21-.31.16-.29,0a.23.23,0,0,1,.18-.11s0,0,0-.1,0-.2,0-.22.11.07.19.27l0,.07c0,.21.09.28.12.3s0-.06-.06-.17-.08-.07-.05-.07.14,0,.17-.07-.14-.17-.23.05Z"/><path class="cls-2" d="M38.5,34.82c-.24,0-.31,0-.26,0a1.49,1.49,0,0,1,.18,0s0,0-.07,0-.15-.13-.14-.16.13,0,.33.09l.06,0,.27.18,0,0-.13,0h.1a1.61,1.61,0,0,0-.25,0Z"/><path class="cls-2" d="M38.07,31.51c.22-.08.3-.06.26,0s-.14.08-.16.1,0,0,0,.1a.18.18,0,0,1,0,.27c-.07,0-.14,0-.23-.25l0-.06c0-.21-.08-.29-.12-.3s0,.09.07.18.09.05.06.05a.38.38,0,0,0-.17,0s0,0,.23-.1Z"/><path class="cls-2" d="M7.27,22.87A5.83,5.83,0,0,1,6.3,25a9,9,0,0,0-.7.93A3.24,3.24,0,0,0,5.22,27a15.34,15.34,0,0,0-.16,2.24,18.73,18.73,0,0,1-.16,2.32H4.84a6.61,6.61,0,0,1-.5-2.32,5,5,0,0,1,.53-2.36c.18-.36.38-.7.53-1.06s.25-.76.41-1.12a7.49,7.49,0,0,1,1.4-1.88Z"/><path class="cls-2" d="M4.62,33.23a3.2,3.2,0,0,1,.6,1.5c0,.28,0,.56,0,.83a2.67,2.67,0,0,0,.25.77A6.61,6.61,0,0,1,6,37.86a4.68,4.68,0,0,1,0,1.63l-.07,0A5.16,5.16,0,0,1,5.3,38a7.07,7.07,0,0,1-.18-1.6,2.42,2.42,0,0,0-.11-.8,7,7,0,0,0-.34-.74,3.29,3.29,0,0,1-.12-1.63Z"/><path class="cls-2" d="M8,27.46c-.16,1.21-.44,2.36-.65,3.51a7.41,7.41,0,0,0-.26,1.76,7.61,7.61,0,0,0,.29,1.76,12.39,12.39,0,0,1,.44,3.62,10,10,0,0,0,.39,3.48l-.05,0a5.63,5.63,0,0,1-1.06-3.5c0-.61,0-1.2,0-1.79s0-1.17-.08-1.78S7,33.34,6.89,32.74a11.41,11.41,0,0,1-.08-1.85A8.84,8.84,0,0,1,8,27.43Z"/><path class="cls-2" d="M6.61,42.39a2.73,2.73,0,0,1,1.21,1.09c.12.23.19.51.33.74a2.75,2.75,0,0,0,.53.6A10.54,10.54,0,0,1,9.8,45.91a11.71,11.71,0,0,1,.93,1.28l0,.06a3,3,0,0,1-1.43-.84A4.75,4.75,0,0,1,8.38,45,2.52,2.52,0,0,0,8,44.35c-.17-.2-.41-.35-.6-.54a3.67,3.67,0,0,1-.81-1.37Z"/><path class="cls-2" d="M10.28,46.63A5.65,5.65,0,0,1,9.62,44c0-.45.06-.9,0-1.34a4.72,4.72,0,0,0-.28-1.29c-.15-.41-.32-.82-.44-1.26a4.26,4.26,0,0,1-.22-1.39,6.16,6.16,0,0,1,.75-2.62h.07c0,.92-.13,1.79-.1,2.61A7.66,7.66,0,0,0,9.56,40a9.33,9.33,0,0,1,.18,1.32c0,.46.06.9.14,1.34s.21.88.3,1.31a15.53,15.53,0,0,1,.16,2.65Z"/><path class="cls-2" d="M12.36,28.31a1.72,1.72,0,0,1,.23-1.48,7,7,0,0,1,.55-.54,3.77,3.77,0,0,0,.44-.59,4,4,0,0,1,1.06-1,7.81,7.81,0,0,0,1.12-.78l.06,0a1.77,1.77,0,0,1-.75,1.34,7.22,7.22,0,0,1-1.24.69,1.36,1.36,0,0,0-.52.46,2.7,2.7,0,0,0-.22.66,5.71,5.71,0,0,1-.66,1.23Z"/><path class="cls-2" d="M17,21.38a1.49,1.49,0,0,1,.46-1.15c.17-.14.38-.22.54-.35a1.81,1.81,0,0,0,.39-.47,2.82,2.82,0,0,1,.86-.86c.33-.2.63-.33,1-.57l.06,0a1.48,1.48,0,0,1-.64,1.13,3,3,0,0,1-.51.31,3.69,3.69,0,0,1-.53.24,1.1,1.1,0,0,0-.47.35,2.69,2.69,0,0,0-.26.54,2.23,2.23,0,0,1-.84.83Z"/><path class="cls-2" d="M15.28,19c0-.29.14-.44.32-.49s.23,0,.32,0a.32.32,0,0,0,.18-.21.86.86,0,0,1,.36-.43.82.82,0,0,1,.62,0l0,.05a.72.72,0,0,1-.82.7.28.28,0,0,0-.26.07c-.07.07-.08.21-.14.29a.47.47,0,0,1-.58.07Z"/><path class="cls-2" d="M15.74,51.92l.8,1c.27.31.55.6.81.92a7,7,0,0,0,.84,1,5,5,0,0,0,1.08.67,24.3,24.3,0,0,1,2.28,1.15,19.51,19.51,0,0,0,2.21,1.21v.06a4.81,4.81,0,0,1-2.55-.63c-.39-.21-.74-.45-1.1-.69a8.54,8.54,0,0,1-1-.79,10.85,10.85,0,0,0-1-.81c-.36-.24-.76-.45-1.1-.72A3.7,3.7,0,0,1,15.68,52Z"/><path class="cls-2" d="M21.21,55a2.43,2.43,0,0,1,1.52.9c.18.24.3.52.48.74a2.19,2.19,0,0,0,.67.54,10.28,10.28,0,0,0,1.44.73,4.36,4.36,0,0,0,1.55.4l0,.06a2,2,0,0,1-1.83.22,3.1,3.1,0,0,1-1.43-1.13,4.09,4.09,0,0,0-.58-.66c-.21-.19-.49-.33-.72-.5A6.92,6.92,0,0,1,21.18,55Z"/><path class="cls-2" d="M37.88,57.48c.72,0,1.33-.19,2-.26.34,0,.71,0,1-.07a6.25,6.25,0,0,0,1-.3,10.42,10.42,0,0,1,2-.49A16.44,16.44,0,0,0,46,56l0,.06a3.46,3.46,0,0,1-1.92,1,11.51,11.51,0,0,1-2.1.13,3.57,3.57,0,0,0-1,.16c-.34.1-.65.29-1,.4a2.68,2.68,0,0,1-2.14-.22Z"/><path class="cls-2" d="M48.17,56a1.88,1.88,0,0,1,.77-1.1c.19-.11.43-.17.62-.29a1.71,1.71,0,0,0,.48-.45,3.45,3.45,0,0,1,1.05-.85A2.73,2.73,0,0,1,52.43,53l0,.06a4.14,4.14,0,0,1-1,.84,6.5,6.5,0,0,1-1.17.52,1.53,1.53,0,0,0-.57.32,5.22,5.22,0,0,0-.38.54,2.54,2.54,0,0,1-1.09.72Z"/><path class="cls-2" d="M9.88,27a1.21,1.21,0,0,1-.11-1,4.12,4.12,0,0,0,.27-.45.9.9,0,0,0,.05-.49,2.28,2.28,0,0,1,.15-1,1.72,1.72,0,0,1,.7-.77l.06,0a2.32,2.32,0,0,1-.08,1,2.86,2.86,0,0,1-.47.85.86.86,0,0,0-.19.44,2.85,2.85,0,0,0,.07.51A1.4,1.4,0,0,1,10,27Z"/></g></g></svg>