<svg xmlns="http://www.w3.org/2000/svg" viewBox="0 0 77.08 135.25"><defs><style>.cls-1{fill:#cad168;}</style></defs><g id="Layer_2" data-name="Layer 2"><g id="Ingredients_Map" data-name="Ingredients Map"><path class="cls-1" d="M74.41,23.62c-.79-3.14-2.93-5.72-4.5-8.54a25.48,25.48,0,0,1-3.22-12.3c-3.18.12-5,3.3-8.14,3.42,0,0-26-6.15-36.73,3.12-.76.65-1.5,1.84-.77,2.51a1.81,1.81,0,0,0,1.07.36L32.8,13.4C22.33,18.57,11.56,24.84,6.08,35.15c-4.21,7.94-4.73,17.44-3,26.26s5.5,17.08,9.58,25.09c.91,1.8,2,3.74,3.94,4.36a6.94,6.94,0,0,0,2.65.17,27.37,27.37,0,0,0,9.5-2.56c3.85-1.82,7.25-4.54,11.25-6,6.18-2.26,13.6-1.48,18.74-5.58,4.1-3.28,5.59-8.8,6.29-14s.92-10.63,3.35-15.28c1.12-2.13,3-4.18,5.38-4.29C71.48,37.07,76,30.06,74.41,23.62Z"/><path class="cls-1" d="M37.61,104.29l-1.3-.79A5.75,5.75,0,0,1,34.58,102a2.75,2.75,0,0,1-.52-1.66,3,3,0,0,1,1-2.29,3.65,3.65,0,0,1,2.53-.87,4.85,4.85,0,0,1,2.74.83V100a3.93,3.93,0,0,0-2.77-1.24,2.27,2.27,0,0,0-1.37.39,1.15,1.15,0,0,0-.54,1,1.5,1.5,0,0,0,.4,1,4.78,4.78,0,0,0,1.27,1l1.3.77a3.82,3.82,0,0,1,2.18,3.31,3,3,0,0,1-1,2.33,3.49,3.49,0,0,1-2.49.89,5.27,5.27,0,0,1-3.22-1.08v-2.17a4,4,0,0,0,3.2,1.75,2,2,0,0,0,1.33-.44,1.4,1.4,0,0,0,.54-1.12C39.18,105.63,38.65,104.94,37.61,104.29Z"/><path class="cls-1" d="M43.59,98.14a.93.93,0,0,1,.66.26.88.88,0,0,1,.27.65.92.92,0,0,1-.93.92.84.84,0,0,1-.63-.28.89.89,0,0,1-.27-.64.9.9,0,0,1,.27-.64A.86.86,0,0,1,43.59,98.14Zm-.77,3.3h1.56v7.84H42.82Z"/><path class="cls-1" d="M52.85,107.45V109a6.52,6.52,0,0,1-2.29.43,3.77,3.77,0,0,1-4-4,4.17,4.17,0,0,1,1.07-3,3.65,3.65,0,0,1,2.8-1.14,4.49,4.49,0,0,1,1.09.12,6.55,6.55,0,0,1,1.19.43v1.65a4.13,4.13,0,0,0-2.18-.75,2.25,2.25,0,0,0-1.73.74,2.72,2.72,0,0,0-.67,1.88,2.52,2.52,0,0,0,.73,1.91,2.71,2.71,0,0,0,2,.71A5.24,5.24,0,0,0,52.85,107.45Z"/><path class="cls-1" d="M55.76,98.14a.93.93,0,0,1,.66.26.88.88,0,0,1,.27.65.92.92,0,0,1-.93.92.84.84,0,0,1-.63-.28.89.89,0,0,1-.27-.64.9.9,0,0,1,.27-.64A.86.86,0,0,1,55.76,98.14Zm-.76,3.3h1.55v7.84H55Z"/><path class="cls-1" d="M59.17,97.37h1.55v11.91H59.17Z"/><path class="cls-1" d="M68.13,101.44h1.74l-5.56,11.84H62.58l2.66-5.69-3-6.15H64l2.12,4.43Z"/><path class="cls-1" d="M28.47,119.43a.23.23,0,0,1,.24-.24h1.42a.22.22,0,0,1,.23.24v13.72a.13.13,0,0,0,.14.14h4.15a.22.22,0,0,1,.23.23v1.29a.22.22,0,0,1-.23.23H28.71a.22.22,0,0,1-.24-.23Z"/><path class="cls-1" d="M36.63,119.43a.22.22,0,0,1,.23-.24h6a.22.22,0,0,1,.23.24v1.28a.22.22,0,0,1-.23.23H38.66a.12.12,0,0,0-.14.14V126a.12.12,0,0,0,.14.14h3.63a.22.22,0,0,1,.23.23v1.29a.22.22,0,0,1-.23.23H38.66a.12.12,0,0,0-.14.14v5.1a.12.12,0,0,0,.14.14h4.19a.22.22,0,0,1,.23.23v1.29a.22.22,0,0,1-.23.23h-6a.22.22,0,0,1-.23-.23Z"/><path class="cls-1" d="M45,119.43a.22.22,0,0,1,.23-.24h1.44a.29.29,0,0,1,.33.24l2.89,9.69H50l2.82-9.69a.31.31,0,0,1,.35-.24h1.42a.23.23,0,0,1,.24.24v15.38a.22.22,0,0,1-.24.23H53.31a.22.22,0,0,1-.23-.23v-11H53L50.56,132a.28.28,0,0,1-.27.23h-.77a.27.27,0,0,1-.28-.23l-2.4-8.16h-.12v11a.22.22,0,0,1-.23.23H45.23a.22.22,0,0,1-.23-.23Z"/><path class="cls-1" d="M57.47,132.89c-.24-.69-.31-1.28-.31-5.77s.07-5.08.31-5.78a3.73,3.73,0,0,1,6.94,0c.23.7.3,1.28.3,5.78s-.07,5.08-.3,5.77a3.73,3.73,0,0,1-6.94,0Zm5.14-.53c.14-.47.19-.82.19-5.24s0-4.78-.19-5.25a1.8,1.8,0,0,0-3.33,0c-.16.47-.21.82-.21,5.25s0,4.77.21,5.24a1.8,1.8,0,0,0,3.33,0Z"/><path class="cls-1" d="M67.07,119.43a.22.22,0,0,1,.23-.24h1.75a.32.32,0,0,1,.35.24l3.54,11.88H73V119.43a.23.23,0,0,1,.24-.24H74.5a.22.22,0,0,1,.23.24v15.38a.22.22,0,0,1-.23.23H72.85c-.19,0-.31-.07-.35-.23l-3.61-11.89h-.12v11.89a.22.22,0,0,1-.23.23H67.3a.22.22,0,0,1-.23-.23Z"/><path d="M68.57,42.9c.15,2.12.22,4.26.18,6.4a29.25,29.25,0,0,1-.68,6.38A107.63,107.63,0,0,1,64,67.83a28.54,28.54,0,0,1-6.61,11,17.8,17.8,0,0,1-5.23,3.86,27.72,27.72,0,0,1-6.15,2,27,27,0,0,1-6.39.81c-2.15,0-4.28-.09-6.39,0a15.24,15.24,0,0,0-6.11,1.24,50.72,50.72,0,0,0-5.23,3.6c-1.71,1.23-3.85,2.28-6.06,1.85a5.36,5.36,0,0,1-2.89-1.48,6.66,6.66,0,0,1-1.56-2.85c-.57-2.09-.8-4.21-1.38-6.25a30.32,30.32,0,0,0-2.56-5.79A95.14,95.14,0,0,1,2.3,64.08,40.93,40.93,0,0,1,0,51.42c0-8.71,3.45-17.06,8.43-24a40.78,40.78,0,0,1,4.17-4.95A21.23,21.23,0,0,1,18,18.73c3.93-1.9,8.19-2.73,12.35-3.58,8.31-1.7,16.74-3.72,25.31-3.39v.1c-8.55,0-16.85,2.15-25.16,4-4.15.92-8.34,1.82-12.08,3.72a21.83,21.83,0,0,0-5.08,3.59,39.3,39.3,0,0,0-4,4.83C4.44,34.85,1,43,.94,51.42A41.79,41.79,0,0,0,3,63.84,93.94,93.94,0,0,0,7.92,75.59a31.31,31.31,0,0,1,2.53,5.91c.56,2.08.76,4.23,1.29,6.25a6.35,6.35,0,0,0,1.45,2.72,4.94,4.94,0,0,0,2.69,1.42C18,92.34,20,91.27,21.66,90a51.79,51.79,0,0,1,5.23-3.71,15.52,15.52,0,0,1,6.3-1.39c4.3-.18,8.55.27,12.64-1,8.52-1.43,14.79-8.46,17.52-16.39a105.85,105.85,0,0,0,4.22-12,49.7,49.7,0,0,0,.9-12.67Z"/><path d="M54.67,13.25c.08.52.19,1.19.43,1.2a4,4,0,0,0,1.26-.16,7,7,0,0,1,1.73-.08,3.79,3.79,0,0,1,1.59.76,11.5,11.5,0,0,1,2.26,2.44c.53.89,1.42,1.42,2.12,2.37l0,.09a6.15,6.15,0,0,1-2.91-1.8c-.7-.9-1.2-1.84-1.81-2.71a1.76,1.76,0,0,0-1.22-.83,4.79,4.79,0,0,0-1.48.55,2.8,2.8,0,0,1-.85.23,1.38,1.38,0,0,1-1.07-.22,1.1,1.1,0,0,1-.37-1,2.36,2.36,0,0,1,.27-.85Z"/><path d="M57.91,60.89a.45.45,0,1,1-.45-.44.45.45,0,0,1,.45.44"/><path d="M58,60.89c0,.12.09.29,0,.52a.42.42,0,0,1-.51.3.72.72,0,0,1-.42-.4,2,2,0,0,1-.28-.41.7.7,0,0,1,.69-.93.52.52,0,0,1,.52.4,1.33,1.33,0,0,1,0,.52m-.09,0c0-.11-.19-.17-.3-.1s-.11.13-.1.14,0-.12-.2,0-.09.18,0,.21.21-.07.21-.14,0,0,.12,0,.3,0,.28-.12"/><path d="M62.54,42a.2.2,0,0,1-.21.2.21.21,0,0,1-.22-.2.22.22,0,1,1,.43,0"/><path d="M62.58,42s.12.17.08.36a.26.26,0,0,1-.35.22.54.54,0,0,1-.24-.34c0-.08-.13-.14-.2-.26s.11-.72.47-.68a.36.36,0,0,1,.35.34c0,.19-.11.31-.11.36m-.09,0c0-.06-.16-.06-.23,0s0,.2.06.22.25-.26,0-.27-.12,0-.09,0,.1-.15.06-.21-.11,0,0,.11.23.12.21.06"/><path d="M60.79,19.55a.28.28,0,0,1-.27.27.27.27,0,0,1-.28-.27.26.26,0,0,1,.28-.26.27.27,0,0,1,.27.26"/><path d="M60.83,19.56c0,.07.1.2.07.39a.3.3,0,0,1-.4.25.6.6,0,0,1-.28-.35,2.28,2.28,0,0,1-.23-.3c-.21-.3.13-.77.52-.74a.39.39,0,0,1,.4.34,1.32,1.32,0,0,1-.08.41m-.09,0c0-.08-.17-.08-.24,0s0,.17,0,.19.16-.21,0-.21-.11.07-.06.08.13-.13.1-.19-.11,0,0,.09.25.09.23,0"/><path d="M58.27,73.54a.29.29,0,0,1-.28.28.28.28,0,0,1-.26-.28.27.27,0,0,1,.26-.27.28.28,0,0,1,.28.27"/><path d="M58.32,73.54c0,.07.1.21.07.4a.31.31,0,0,1-.39.26.56.56,0,0,1-.3-.36c-.05-.1-.14-.16-.22-.3s.09-.78.53-.75a.4.4,0,0,1,.39.35c0,.2-.09.33-.08.4m-.09,0c0-.07-.17-.07-.25,0s0,.18,0,.19.18-.22,0-.21-.11.09-.06.1.12-.13.08-.2-.09,0,0,.09.25.09.24,0"/><path d="M21.93,81.26a.43.43,0,0,1-.44.43.44.44,0,0,1-.45-.43.45.45,0,0,1,.45-.44.44.44,0,0,1,.44.44"/><path d="M22,81.26c0,.12.09.3,0,.52a.41.41,0,0,1-.52.29.78.78,0,0,1-.4-.4,1.8,1.8,0,0,1-.28-.42c-.2-.38.22-1,.7-.91a.55.55,0,0,1,.53.4,1.8,1.8,0,0,1,0,.52m-.09,0c0-.11-.19-.17-.3-.1s-.1.13-.1.14,0-.13-.2,0-.1.17,0,.2.2-.08.22-.14,0,0,.12.05.29,0,.28-.11"/><path d="M23.81,83.61a.24.24,0,0,1-.24.24.24.24,0,1,1,0-.48.24.24,0,0,1,.24.24"/><path d="M23.86,83.61c0,.06.11.18.09.37a.29.29,0,0,1-.38.25.56.56,0,0,1-.27-.34c-.05-.09-.14-.14-.23-.27a.51.51,0,0,1,.49-.74.4.4,0,0,1,.39.34c0,.19-.1.32-.09.39m-.09,0c0-.07-.17-.07-.24,0s0,.18,0,.2a.12.12,0,1,0,0-.24c-.08,0-.11.07-.07.07s.12-.13.07-.2-.12,0,0,.1.24.09.23,0"/><path d="M9.44,56a.25.25,0,0,1-.26.24A.25.25,0,0,1,8.94,56a.26.26,0,0,1,.24-.25.26.26,0,0,1,.26.25"/><path d="M9.48,56c0,.06.11.19.08.37a.27.27,0,0,1-.36.25.52.52,0,0,1-.29-.34c-.05-.09-.13-.14-.22-.27a.52.52,0,0,1,.5-.74.38.38,0,0,1,.37.34c0,.19-.08.32-.08.39m-.09,0c0-.07-.17-.06-.23,0s0,.18,0,.2.18-.21,0-.24-.12.07-.07.07.12-.13.06-.2-.1,0,0,.1.25.09.23,0"/><path d="M8.65,45.75a.44.44,0,0,1-.45.44.44.44,0,1,1,0-.88.44.44,0,0,1,.45.44"/><path d="M8.69,45.75c0,.11.09.29,0,.51a.42.42,0,0,1-.51.31.75.75,0,0,1-.42-.4,2,2,0,0,1-.28-.42c-.22-.37.2-1,.69-.92a.53.53,0,0,1,.52.39,1.22,1.22,0,0,1,0,.53m-.09,0c0-.12-.19-.18-.29-.1s-.1.13-.11.14,0-.14-.19,0A.12.12,0,0,0,8,46c.09,0,.2-.08.21-.15s0,0,.12,0,.3,0,.28-.11"/><path d="M38,15.54a.36.36,0,0,1-.71,0,.36.36,0,0,1,.71,0"/><path d="M38.09,15.54c0,.09.09.25,0,.46a.34.34,0,0,1-.45.27.73.73,0,0,1-.35-.37,3.14,3.14,0,0,1-.25-.36c-.21-.33.16-.86.6-.83a.46.46,0,0,1,.46.37,1.11,1.11,0,0,1,0,.46m-.09,0c0-.09-.18-.12-.27,0s-.08.16,0,.17.08-.17-.11-.13-.11.13,0,.15.17-.1.16-.17-.06,0,.05.07.27.05.26-.05"/><path d="M16.84,79.78a.26.26,0,0,1-.27.26.25.25,0,0,1-.26-.26.26.26,0,0,1,.26-.25.27.27,0,0,1,.27.25"/><path d="M16.88,79.78c0,.07.11.2.08.39a.29.29,0,0,1-.38.25.58.58,0,0,1-.29-.34c-.06-.1-.14-.15-.23-.29s.11-.77.51-.74a.38.38,0,0,1,.39.33c0,.2-.08.33-.08.4m-.09,0c0-.07-.17-.06-.24,0s0,.18,0,.19a.12.12,0,1,0,0-.23c-.08,0-.11.08-.07.09s.12-.14.08-.2-.1,0,0,.09.25.09.23,0"/><path d="M14.43,81.88a.43.43,0,0,1-.46.43.44.44,0,0,1-.45-.43.46.46,0,0,1,.45-.45.45.45,0,0,1,.46.45"/><path d="M14.47,81.88a1.37,1.37,0,0,1,0,.52.42.42,0,0,1-.52.29.8.8,0,0,1-.41-.4,1.8,1.8,0,0,1-.28-.42A.7.7,0,0,1,14,81a.55.55,0,0,1,.52.4,1.22,1.22,0,0,1,0,.53m-.09,0c0-.12-.19-.17-.29-.11s-.11.13-.12.15,0-.13-.2,0a.11.11,0,0,0,0,.2c.09,0,.21-.07.21-.14s0,0,.13,0,.3,0,.28-.11"/><path d="M18.77,83a.25.25,0,0,1-.26.25.25.25,0,0,1,0-.49.25.25,0,0,1,.26.24"/><path d="M18.81,83c0,.06.12.18.1.37a.29.29,0,0,1-.37.26.59.59,0,0,1-.29-.33c-.06-.1-.14-.15-.23-.27s.1-.78.48-.75a.4.4,0,0,1,.39.32.93.93,0,0,1-.08.4m-.09,0c0-.07-.17-.06-.23,0s0,.18,0,.2.21-.25,0-.25-.11.08-.07.08.1-.14.06-.2-.1,0,0,.1.25.09.23,0"/><path d="M13.13,74.86a.45.45,0,0,1-.9,0,.45.45,0,0,1,.9,0"/><path d="M13.18,74.86c0,.12.08.3,0,.52a.42.42,0,0,1-.51.29.79.79,0,0,1-.42-.4,1.8,1.8,0,0,1-.28-.42c-.2-.39.22-.95.71-.91a.55.55,0,0,1,.51.39,1.41,1.41,0,0,1,0,.53m-.09,0c0-.11-.19-.16-.3-.09s-.11.12-.12.14,0-.14-.19,0-.1.17,0,.2.21-.07.22-.14,0,0,.12,0,.3,0,.29-.1"/><path d="M9.23,66.58a.45.45,0,0,1-.89,0,.45.45,0,1,1,.89,0"/><path d="M9.27,66.58c0,.11.09.29,0,.51a.42.42,0,0,1-.52.3A.81.81,0,0,1,8.36,67a2.19,2.19,0,0,1-.27-.42.7.7,0,0,1,.71-.92.53.53,0,0,1,.51.41,1.37,1.37,0,0,1,0,.53m-.09,0c0-.12-.18-.18-.29-.11s-.11.12-.11.14,0-.14-.19,0a.12.12,0,0,0,0,.21c.09,0,.2-.08.21-.14s0,0,.12,0,.3,0,.28-.1"/><path d="M14.45,64a.44.44,0,0,1-.44.44.44.44,0,1,1,0-.88.44.44,0,0,1,.44.44"/><path d="M14.5,64c0,.12.09.29,0,.52a.41.41,0,0,1-.51.3.79.79,0,0,1-.42-.4,2.55,2.55,0,0,1-.27-.42.7.7,0,0,1,.69-.93.55.55,0,0,1,.52.41,1.56,1.56,0,0,1,0,.52m-.09,0c0-.11-.19-.17-.3-.1s-.1.13-.1.14,0-.13-.2,0a.12.12,0,0,0,0,.21c.09,0,.2-.07.21-.14s0,0,.11,0,.3,0,.29-.12"/><path d="M56.22,69.65a.45.45,0,0,1-.9,0,.45.45,0,0,1,.9,0"/><path d="M56.26,69.65c0,.11.09.29,0,.51a.43.43,0,0,1-.52.31.8.8,0,0,1-.41-.4,1.65,1.65,0,0,1-.29-.41.7.7,0,0,1,.69-.93.54.54,0,0,1,.53.39,1.4,1.4,0,0,1,0,.53m-.09,0c0-.12-.18-.17-.29-.1s-.12.13-.11.15,0-.13-.21,0a.12.12,0,0,0,0,.21c.08,0,.2-.08.21-.14s0,0,.12,0,.3,0,.28-.11"/><path d="M60.83,55.3a.23.23,0,0,1-.22.23.24.24,0,0,1-.23-.23.23.23,0,0,1,.23-.22.22.22,0,0,1,.22.22"/><path d="M60.88,55.3c0,.06.11.18.09.36a.26.26,0,0,1-.35.25c-.18-.07-.23-.26-.27-.34s-.13-.13-.22-.26a.49.49,0,0,1,.47-.71.36.36,0,0,1,.37.33c0,.19-.1.31-.09.37m-.09,0c0-.06-.17,0-.23.06s0,.19,0,.2a.13.13,0,1,0,0-.26c-.08,0-.11.06-.08.06s.12-.14.05-.21-.12,0,0,.11.24.1.23,0"/><path d="M63.18,61.38a.45.45,0,0,1-.45.44.45.45,0,0,1,0-.89.45.45,0,0,1,.45.45"/><path d="M63.22,61.38c0,.12.09.3,0,.52a.42.42,0,0,1-.52.3.81.81,0,0,1-.41-.41,1.9,1.9,0,0,1-.27-.42.7.7,0,0,1,.7-.92.54.54,0,0,1,.52.41,1.29,1.29,0,0,1,0,.52m-.09,0c0-.11-.19-.17-.3-.11s-.11.13-.1.15,0-.14-.19,0-.1.17,0,.2.2-.07.21-.14,0,0,.11.05.31,0,.29-.11"/><path d="M65.48,52a.45.45,0,0,1-.45.44.44.44,0,1,1,.45-.44"/><path d="M65.52,52c0,.12.09.3,0,.52a.41.41,0,0,1-.51.3.86.86,0,0,1-.42-.4,2.42,2.42,0,0,1-.28-.41c-.21-.39.21-1,.7-.93a.54.54,0,0,1,.52.4,1.33,1.33,0,0,1,0,.52m-.09,0c0-.11-.18-.16-.29-.09s-.12.12-.11.14,0-.13-.2,0-.09.18,0,.21.19-.08.21-.15,0,0,.12.05.3,0,.28-.11"/><path d="M19.15,23a.27.27,0,0,1-.53,0,.27.27,0,0,1,.53,0"/><path d="M19.19,23c0,.07.11.2.08.39a.29.29,0,0,1-.39.25.57.57,0,0,1-.28-.35c-.06-.09-.14-.15-.23-.29-.2-.29.11-.76.51-.74a.4.4,0,0,1,.4.35,1,1,0,0,1-.09.39m-.09,0c0-.06-.17-.07-.24,0s0,.18,0,.2a.12.12,0,1,0,0-.23c-.08,0-.11.08-.07.08s.13-.12.09-.19-.11,0,0,.1.25.08.23,0"/><path d="M25.82,17.59a.24.24,0,0,1-.23.24.26.26,0,0,1-.24-.24.25.25,0,0,1,.24-.23.23.23,0,0,1,.23.23"/><path d="M25.87,17.59c0,.06.1.19.09.37a.27.27,0,0,1-.37.24c-.19-.07-.23-.26-.27-.34s-.13-.13-.22-.27a.51.51,0,0,1,.48-.72.39.39,0,0,1,.39.35c0,.18-.1.31-.1.37m-.09,0c0-.06-.17-.06-.24.05s0,.18.05.2.19-.2,0-.25-.11.06-.07.06.12-.13.06-.2-.13,0,0,.11.24.09.23,0"/><path d="M30.91,18.14a.3.3,0,0,1-.29.29.3.3,0,0,1-.29-.29.3.3,0,0,1,.29-.29.29.29,0,0,1,.29.29"/><path d="M31,18.14c0,.07.11.21.08.4a.31.31,0,0,1-.41.26.62.62,0,0,1-.31-.36c0-.09-.15-.16-.23-.3-.2-.3.13-.8.54-.77a.43.43,0,0,1,.42.35c0,.21-.09.34-.09.42m-.09,0c0-.08-.17-.09-.25,0s0,.18,0,.2.16-.21,0-.2-.11.09-.06.1.14-.12.1-.19-.09,0,0,.09.26.08.24,0"/><path d="M65.45,44.49a.44.44,0,0,1-.44.43.44.44,0,1,1,.44-.43"/><path d="M65.5,44.49c0,.11.08.3,0,.51a.42.42,0,0,1-.52.3.85.85,0,0,1-.41-.41,1.8,1.8,0,0,1-.28-.42c-.19-.39.23-.94.71-.91a.55.55,0,0,1,.52.4,1.65,1.65,0,0,1,0,.53m-.09,0c0-.12-.19-.17-.3-.11s-.11.13-.1.15,0-.13-.21-.05-.1.17,0,.2.21-.07.22-.14,0,0,.12.05.3,0,.29-.1"/><path d="M10,31.21a.24.24,0,0,1-.23.23.23.23,0,0,1-.23-.23A.22.22,0,0,1,9.77,31a.22.22,0,0,1,.23.22"/><path d="M10.05,31.21c0,.06.1.18.08.36a.26.26,0,0,1-.35.24.52.52,0,0,1-.27-.33c0-.09-.13-.14-.21-.26s.09-.75.47-.72a.38.38,0,0,1,.36.33c0,.19-.09.32-.08.38m-.1,0c0-.06-.16-.05-.22.06s0,.19,0,.2.22-.24,0-.26-.11.06-.08.06.11-.14,0-.21-.11,0,0,.11.24.1.22,0"/><path d="M15.34,33.51a.25.25,0,0,1-.25.24.24.24,0,0,1-.26-.24.25.25,0,0,1,.26-.26.26.26,0,0,1,.25.26"/><path d="M15.38,33.51c0,.06.11.19.08.38a.29.29,0,0,1-.39.24.68.68,0,0,1-.27-.35c-.05-.09-.14-.15-.22-.28s.12-.76.5-.73a.39.39,0,0,1,.4.35c0,.2-.1.32-.1.39m-.09,0c0-.07-.17-.08-.24,0s0,.19,0,.2.19-.22,0-.22-.12.06-.07.07a.18.18,0,0,0,.08-.2c0-.07-.11,0,0,.1s.25.09.23,0"/><path d="M26.31,83.71A1.66,1.66,0,0,1,26,83a.92.92,0,0,1,.12-.7,1,1,0,0,0,.22-.69,4.38,4.38,0,0,0-.19-.71l.34.41a1.44,1.44,0,0,1-.69-.21,1.16,1.16,0,0,1-.3-.18l-.35-.27v0a1.93,1.93,0,0,1,.1-1.16h.1a2.77,2.77,0,0,1,.76.84l-.34-.33a1.09,1.09,0,0,1,.61.32l.26.25.35.34,0,.07a6.91,6.91,0,0,0-.29.7,1,1,0,0,0,.12.71,1,1,0,0,1,0,.72,1.7,1.7,0,0,1-.41.68Z"/><path d="M8.28,63.11A1.75,1.75,0,0,1,8,62.38a.93.93,0,0,1,.13-.7,1,1,0,0,0,.21-.7,5,5,0,0,0-.19-.71l.34.42a1.45,1.45,0,0,1-.69-.2,1.12,1.12,0,0,1-.31-.19L7.11,60V60a2,2,0,0,1,.11-1.15h.1a3.1,3.1,0,0,1,.76.85l-.35-.33a1.1,1.1,0,0,1,.62.31l.25.24.36.34,0,.08a6.07,6.07,0,0,0-.29.7,1,1,0,0,0,.12.72.92.92,0,0,1,0,.71,1.59,1.59,0,0,1-.41.68Z"/><path d="M59.85,69.7a1.89,1.89,0,0,1-.31-.73,1,1,0,0,1,.12-.7,1,1,0,0,0,.22-.7,4.55,4.55,0,0,0-.19-.7l.34.41a1.52,1.52,0,0,1-.69-.2,1.12,1.12,0,0,1-.31-.19l-.35-.25v-.08a2,2,0,0,1,.11-1.15h.1a2.93,2.93,0,0,1,.76.85l-.34-.33a1.17,1.17,0,0,1,.61.31l.25.24.37.34,0,.08a6.07,6.07,0,0,0-.29.7,1,1,0,0,0,.12.72.88.88,0,0,1,0,.71,1.68,1.68,0,0,1-.41.69Z"/><path d="M57.91,60.89a.45.45,0,1,1-.45-.44.45.45,0,0,1,.45.44"/><path d="M58,60.89c0,.12.09.29,0,.52a.42.42,0,0,1-.51.3.72.72,0,0,1-.42-.4,2,2,0,0,1-.28-.41.7.7,0,0,1,.69-.93.52.52,0,0,1,.52.4,1.33,1.33,0,0,1,0,.52m-.09,0c0-.11-.19-.17-.3-.1s-.11.13-.1.14,0-.12-.2,0-.09.18,0,.21.21-.07.21-.14,0,0,.12,0,.3,0,.28-.12"/><path d="M58.27,73.54a.29.29,0,0,1-.28.28.28.28,0,0,1-.26-.28.27.27,0,0,1,.26-.27.28.28,0,0,1,.28.27"/><path d="M58.32,73.54c0,.07.1.21.07.4a.31.31,0,0,1-.39.26.56.56,0,0,1-.3-.36c-.05-.1-.14-.16-.22-.3s.09-.78.53-.75a.4.4,0,0,1,.39.35c0,.2-.09.33-.08.4m-.09,0c0-.07-.17-.07-.25,0s0,.18,0,.19.18-.22,0-.21-.11.09-.06.1.12-.13.08-.2-.09,0,0,.09.25.09.24,0"/><path d="M38,15.54a.36.36,0,0,1-.71,0,.36.36,0,0,1,.71,0"/><path d="M38.09,15.54c0,.09.09.25,0,.46a.34.34,0,0,1-.45.27.73.73,0,0,1-.35-.37,3.14,3.14,0,0,1-.25-.36c-.21-.33.16-.86.6-.83a.46.46,0,0,1,.46.37,1.11,1.11,0,0,1,0,.46m-.09,0c0-.09-.18-.12-.27,0s-.08.16,0,.17.08-.17-.11-.13-.11.13,0,.15.17-.1.16-.17-.06,0,.05.07.27.05.26-.05"/><path d="M56.22,69.65a.45.45,0,0,1-.9,0,.45.45,0,0,1,.9,0"/><path d="M56.26,69.65c0,.11.09.29,0,.51a.43.43,0,0,1-.52.31.8.8,0,0,1-.41-.4,1.65,1.65,0,0,1-.29-.41.7.7,0,0,1,.69-.93.54.54,0,0,1,.53.39,1.4,1.4,0,0,1,0,.53m-.09,0c0-.12-.18-.17-.29-.1s-.12.13-.11.15,0-.13-.21,0a.12.12,0,0,0,0,.21c.08,0,.2-.08.21-.14s0,0,.12,0,.3,0,.28-.11"/><path d="M60.83,55.3a.23.23,0,0,1-.22.23.24.24,0,0,1-.23-.23.23.23,0,0,1,.23-.22.22.22,0,0,1,.22.22"/><path d="M60.88,55.3c0,.06.11.18.09.36a.26.26,0,0,1-.35.25c-.18-.07-.23-.26-.27-.34s-.13-.13-.22-.26a.49.49,0,0,1,.47-.71.36.36,0,0,1,.37.33c0,.19-.1.31-.09.37m-.09,0c0-.06-.17,0-.23.06s0,.19,0,.2a.13.13,0,1,0,0-.26c-.08,0-.11.06-.08.06s.12-.14.05-.21-.12,0,0,.11.24.1.23,0"/><path d="M63.18,61.38a.45.45,0,0,1-.45.44.45.45,0,0,1,0-.89.45.45,0,0,1,.45.45"/><path d="M63.22,61.38c0,.12.09.3,0,.52a.42.42,0,0,1-.52.3.81.81,0,0,1-.41-.41,1.9,1.9,0,0,1-.27-.42.7.7,0,0,1,.7-.92.54.54,0,0,1,.52.41,1.29,1.29,0,0,1,0,.52m-.09,0c0-.11-.19-.17-.3-.11s-.11.13-.1.15,0-.14-.19,0-.1.17,0,.2.2-.07.21-.14,0,0,.11.05.31,0,.29-.11"/><path d="M65.48,52a.45.45,0,0,1-.45.44.44.44,0,1,1,.45-.44"/><path d="M65.52,52c0,.12.09.3,0,.52a.41.41,0,0,1-.51.3.86.86,0,0,1-.42-.4,2.42,2.42,0,0,1-.28-.41c-.21-.39.21-1,.7-.93a.54.54,0,0,1,.52.4,1.33,1.33,0,0,1,0,.52m-.09,0c0-.11-.18-.16-.29-.09s-.12.12-.11.14,0-.13-.2,0-.09.18,0,.21.19-.08.21-.15,0,0,.12.05.3,0,.28-.11"/><path d="M15.34,33.51a.25.25,0,0,1-.25.24.24.24,0,0,1-.26-.24.25.25,0,0,1,.26-.26.26.26,0,0,1,.25.26"/><path d="M15.38,33.51c0,.06.11.19.08.38a.29.29,0,0,1-.39.24.68.68,0,0,1-.27-.35c-.05-.09-.14-.15-.22-.28s.12-.76.5-.73a.39.39,0,0,1,.4.35c0,.2-.1.32-.1.39m-.09,0c0-.07-.17-.08-.24,0s0,.19,0,.2.19-.22,0-.22-.12.06-.07.07a.18.18,0,0,0,.08-.2c0-.07-.11,0,0,.1s.25.09.23,0"/><path d="M59.85,69.7a1.89,1.89,0,0,1-.31-.73,1,1,0,0,1,.12-.7,1,1,0,0,0,.22-.7,4.55,4.55,0,0,0-.19-.7l.34.41a1.52,1.52,0,0,1-.69-.2,1.12,1.12,0,0,1-.31-.19l-.35-.25v-.08a2,2,0,0,1,.11-1.15h.1a2.93,2.93,0,0,1,.76.85l-.34-.33a1.17,1.17,0,0,1,.61.31l.25.24.37.34,0,.08a6.07,6.07,0,0,0-.29.7,1,1,0,0,0,.12.72.88.88,0,0,1,0,.71,1.68,1.68,0,0,1-.41.69Z"/><path d="M61.63,59.94a1.14,1.14,0,0,1,.52-1,4.26,4.26,0,0,0,.54-.16.75.75,0,0,0,.3-.43,1.66,1.66,0,0,1,1.67-1.23l.07.07a1.69,1.69,0,0,1-1.37,1.57.86.86,0,0,0-.46.27,3.79,3.79,0,0,0-.21.54,1,1,0,0,1-1,.42Z"/><path d="M43.28,67.69a.72.72,0,0,1,.54-.75c.17,0,.35.07.5.06a.66.66,0,0,0,.36-.25,1.06,1.06,0,0,1,1.69,0v.1a1.2,1.2,0,0,1-1.53.45.46.46,0,0,0-.4,0c-.11.08-.17.27-.25.39s-.44.2-.85.08Z"/><path d="M40.94,81a1,1,0,0,1,.35-1,3.39,3.39,0,0,0,.51-.21,1,1,0,0,0,.27-.44,1.15,1.15,0,0,1,.92-.78,1,1,0,0,1,1,.62l0,.09-.83.33-.73.14a.61.61,0,0,0-.4.25,4.13,4.13,0,0,0-.11.53.93.93,0,0,1-.92.49Z"/><path d="M41.25,83.09c0-.38.09-.57.3-.6s.27.1.37.08.15-.11.19-.23c.16-.49.63-.73,1.15-.2l0,.1c-.21.67-.42.73-.91.58a.31.31,0,0,0-.3,0c-.06.07-.06.24-.1.35s-.34.16-.67,0Z"/><path d="M47.46,79.45c-.18-.29-.15-.47,0-.45s.21.12.26.13.06-.07.05-.16,0-.31.08-.35.17.1.43.29l.07.08a.6.6,0,0,1,0,.56c-.08,0-.17,0-.33-.11s-.14-.08-.16,0a1.11,1.11,0,0,0,.06.27c0,.11-.1,0-.39-.15Z"/><path d="M47,77c-.14-.34-.11-.52,0-.57a2.38,2.38,0,0,0,.34,0c.07,0,.09-.12.09-.23,0-.47.31-.74.86-.32l0,.08c.05.68-.1.74-.55.65-.1,0-.19,0-.22,0s0,.23,0,.33-.22.17-.56,0Z"/><path d="M35.1,84.24a1,1,0,0,1,.42-1c.18-.08.41-.1.56-.19a1,1,0,0,0,.33-.43,1.72,1.72,0,0,1,.81-.83,1.16,1.16,0,0,1,1.23.2v.1c-.34.29-.5.49-.75.66a3.63,3.63,0,0,1-.93.3.69.69,0,0,0-.46.24,2.21,2.21,0,0,0-.18.53,1.15,1.15,0,0,1-.94.52Z"/><path d="M35.08,82.14c0-.37,0-.53.14-.56a1,1,0,0,0,.33,0c.07,0,.09-.13.07-.24a.62.62,0,0,1,0-.49c.1-.1.26-.1.58-.17h.1a.65.65,0,0,1,.23.72.65.65,0,0,1-.53.29c-.12,0-.22,0-.26.11s0,.25,0,.37-.32.22-.63,0Z"/><path d="M31.07,81.15c0-.36,0-.52.16-.52s.24.1.32.09.1-.11.11-.22c0-.45.29-.7.86-.3l0,.09c0,.67-.13.76-.59.65-.11,0-.2,0-.25,0s0,.23,0,.34-.29.15-.58-.08Z"/><path d="M33,77.58c-.13-.35-.07-.55.12-.6s.26.07.35.06.12-.11.16-.23c.1-.48.65-.69,1-.06v.1c-.26.63-.31.62-.74.44-.1-.05-.19-.05-.24,0a.89.89,0,0,0,0,.33c-.06.15-.22.15-.57,0Z"/><path d="M36,79.1a2.21,2.21,0,0,1,1.25-1c.26,0,.56,0,.81-.1a2.08,2.08,0,0,0,.66-.43,3,3,0,0,1,3-.81l0,.09a4.32,4.32,0,0,1-2.82,1.22,1.77,1.77,0,0,0-.75.22,6.07,6.07,0,0,0-.58.56,2.11,2.11,0,0,1-1.57.33Z"/><path d="M44.71,74.77c-.18-.29-.16-.47,0-.45s.2.13.26.14.06-.07.07-.16.11-.32.25-.35a.43.43,0,0,1,.33.54l-.07.07a.43.43,0,0,0-.11.45l-.18-.21c-.06-.07-.12-.1-.13-.06a.66.66,0,0,0,0,.26c0,.1-.08,0-.37-.16Z"/><path d="M39.77,75a.75.75,0,0,1,.32-.83,2.17,2.17,0,0,0,.47-.1.6.6,0,0,0,.24-.35A1,1,0,0,1,42.3,73l0,.09a1.19,1.19,0,0,1-1.19,1,.53.53,0,0,0-.37.18,2.07,2.07,0,0,0-.11.46c-.13.24-.4.35-.83.3Z"/><path d="M49.2,71c-.15-.32-.1-.52.07-.54s.24.09.32.09.1-.09.12-.2a.47.47,0,0,1,.39-.4.51.51,0,0,1,.48.49l0,.09a5.22,5.22,0,0,0-.26.47.73.73,0,0,1-.33-.16c-.09-.06-.17-.07-.2,0a1,1,0,0,0,0,.3c0,.13-.17.1-.49,0Z"/><path d="M50.6,74.68c-.18-.29-.2-.43-.08-.43s.21.09.27.09.05-.08,0-.17a.32.32,0,0,1,.13-.4.45.45,0,0,1,.47.36v.1a1.5,1.5,0,0,0,0,.49s-.1,0-.28-.13-.14-.06-.15,0a.9.9,0,0,0,.09.26c0,.11-.13.09-.43-.09Z"/><path d="M52.38,76.89c-.2-.27-.16-.44-.07-.39a1.53,1.53,0,0,1,.18.19s0,0,0-.13c0-.36.15-.44.28.17v.1c0,.63,0,.58-.13.25,0-.07-.07-.12-.07-.09a.72.72,0,0,0,.09.24,1.4,1.4,0,0,0-.25-.27Z"/><path d="M53.37,72.94c-.1-.38,0-.61.17-.69s.3,0,.39,0a.34.34,0,0,0,.14-.3c0-.53.29-.86,1-.71l.08.07c.15.72-.17,1-.7,1a.34.34,0,0,0-.3.14,2.29,2.29,0,0,0,0,.39c-.08.2-.31.27-.69.18Z"/><path d="M58.59,48.71c.37,0,.55.1.53.28s-.15.22-.17.31.07.14.17.19c.42.21.51.61-.1.93h-.1c-.63-.27-.61-.45-.33-.81.07-.09.1-.17,0-.23s-.21-.08-.3-.11-.06-.24.17-.52Z"/><path d="M57,55.47c.24.28.25.5.09.58s-.26,0-.33,0-.06.14,0,.25c.11.45,0,.62-.63.6l-.09,0c-.43-.54-.18-.85.27-.87.11,0,.19,0,.21-.11s-.07-.22-.09-.31.15-.19.51-.17Z"/><path d="M58.88,57.78q.49.07.36.18a2.3,2.3,0,0,0-.25.09s0,.06.1.1.24.2.21.31a.42.42,0,0,1-.56,0l-.07-.07a.66.66,0,0,0-.39-.27l.27,0c.09,0,.14,0,.12-.06a1.34,1.34,0,0,0-.26-.08c-.08-.05,0-.1.36-.17Z"/><path d="M63.74,49.27c-.12-.36-.08-.56.09-.62s.27,0,.36,0,.08-.14.06-.26c-.1-.47-.06-.65.64-.79l.1,0c.48.52.22,1-.29,1.08-.13,0-.23.06-.27.15s0,.26,0,.38-.27.24-.63.13Z"/><path d="M60.13,45.25c.31-.17.45-.19.46-.07s-.08.22-.06.28.08,0,.17,0c.36-.18.38-.2.36.44l0,.1c-.39.53-.71.31-.66-.1,0-.1,0-.17,0-.18s-.2.07-.29.09-.13-.17,0-.47Z"/><path d="M63.58,43.37c.32-.16.49-.15.53,0a1.33,1.33,0,0,0,0,.32c0,.06.1.07.21.06.43-.06.73.3.25.8l-.09,0c-.65,0-.66,0-.57-.46,0-.1,0-.19,0-.21s-.21,0-.3.05-.16-.19,0-.52Z"/><path d="M63.25,40c.28-.19.36-.28.35-.19s-.07.22-.05.26.07,0,.11-.08c.16-.33.17-.37.37.24v.1c-.09.62-.38.59-.51.19,0-.09-.05-.16-.1-.15s-.16.13-.25.16-.18-.16,0-.46Z"/><path d="M58.45,64.31c-.15-.32-.14-.49,0-.52a2,2,0,0,0,.31.05c.06,0,.07-.11,0-.22-.08-.42.07-.63.68-.37l.07.07c.27.61.07.76-.36.69-.11,0-.19,0-.21,0a1.24,1.24,0,0,0,0,.31c0,.15-.2.16-.53,0Z"/><path d="M55,63.06c-.17-.31-.19-.45-.06-.46a1.14,1.14,0,0,0,.28.07s0-.08,0-.17c-.12-.39,0-.55.56-.25l.07.07c.3.57.14.67-.24.56-.1,0-.17,0-.18,0a1.21,1.21,0,0,0,.08.28c0,.13-.15.11-.46,0Z"/><path d="M27.25,75.41c.18-.37.36-.52.6-.49a1.65,1.65,0,0,0,.39.17.42.42,0,0,0,.29-.21.88.88,0,0,1,1.36-.29l0,.09a.86.86,0,0,1-1.24.72.47.47,0,0,0-.37,0c-.1.06-.18.24-.28.33s-.5.07-.78-.22Z"/><path d="M24.81,72.56c.08-.33.16-.43.23-.34a1.78,1.78,0,0,0,.12.27s.07,0,.11-.09c.16-.34.3-.36.47.28v.1c-.15.59-.31.53-.47.16,0-.09-.08-.15-.12-.12s-.08.17-.12.24-.16,0-.23-.4Z"/><path d="M27.47,72c.24-.3.37-.4.54-.31s.17.21.26.25.17,0,.25-.13c.32-.37.71-.45,1.09.16v.1c-.33.63-.65.62-1.05.29-.1-.08-.19-.13-.28-.1s-.19.19-.29.26-.41-.05-.53-.42Z"/><path d="M22.77,70.62c.11-.34.2-.46.32-.39s.14.2.21.23.11,0,.16-.14c.18-.38.5-.47.77.15v.1c-.22.62-.39.61-.7.29-.07-.07-.14-.12-.2-.08s-.1.2-.16.28-.28,0-.41-.34Z"/><path d="M25.78,68.08a1.31,1.31,0,0,1,1-.66,4.58,4.58,0,0,0,.63.1,1.07,1.07,0,0,0,.54-.23,1.88,1.88,0,0,1,2.36-.07v.1a2.28,2.28,0,0,1-2.24.5.91.91,0,0,0-.59,0,3.57,3.57,0,0,0-.49.38,1.3,1.3,0,0,1-1.21,0Z"/><path d="M32.51,69c.27-.33.5-.44.73-.35s.21.23.32.27a.43.43,0,0,0,.36-.11c.48-.34.91-.37,1.39.27v.1a.89.89,0,0,1-1.42.18.41.41,0,0,0-.35-.12c-.12,0-.25.17-.37.24s-.48,0-.68-.38Z"/><path d="M39.58,70.12c-.13-.35,0-.57.14-.61s.26.07.35,0,.12-.11.14-.23c.08-.48.39-.7,1-.3l0,.09c0,.7-.25.79-.7.67-.11,0-.2,0-.25,0a1.2,1.2,0,0,0,0,.34c-.07.15-.24.15-.58,0Z"/><path d="M15.2,62.87c.36-.11.56-.1.65.08s0,.28.08.36.16.09.29.07c.5-.1.83,0,.86.77l0,.09c-.63.35-1,.11-1.11-.4,0-.13-.08-.23-.18-.26a1.8,1.8,0,0,0-.39,0c-.21-.06-.31-.29-.22-.67Z"/><path d="M17.59,61.78c.27-.21.33-.31.36-.2a1.38,1.38,0,0,0,0,.28s.08,0,.16,0c.3-.24.57-.11.29.48l-.07.07c-.52.36-.52.32-.49-.07,0-.09,0-.16,0-.15s-.16.12-.23.16-.18-.13,0-.45Z"/><path d="M10.51,58.21c-.18-.29-.21-.42-.1-.42a1.3,1.3,0,0,0,.27.08c.05,0,0-.07,0-.15s-.14-.25-.12-.28a1.32,1.32,0,0,0,.49,0h.1a.47.47,0,0,1,.36.48c-.06.12-.19.18-.4.14s-.16,0-.17,0,.08.18.1.27-.14.1-.44-.08Z"/><path d="M13.35,59.61c-.21-.27-.26-.38-.17-.36a2,2,0,0,0,.23.13s0-.05,0-.12c-.19-.32-.15-.41.35,0l.07.07c.38.5.28.53,0,.35-.08,0-.13-.07-.13,0s.1.16.13.23-.08,0-.35-.16Z"/><path d="M4.22,55.18C4,54.92,4,54.82,4,54.86s.18.13.21.14,0,0,0-.11c-.2-.29-.19-.37.3,0l.07.07c.39.48.32.5,0,.29-.07-.05-.12-.08-.11,0l.15.21c0,.08-.06,0-.33-.19Z"/><path d="M14.27,57.35c0-.34,0-.45.05-.37a.67.67,0,0,0,.08.24s0,0,0-.11c-.07-.36-.2-.33.23.12l.07.07c.34.54.07.64-.13.32-.05-.07-.09-.12-.1-.08l0,.26c0,.09-.13,0-.17-.35Z"/><path d="M17,59.42c.2-.29.33-.37.41-.26s0,.24.07.29.11,0,.19-.06c.3-.27.52-.25.53.4l0,.1c-.38.52-.57.42-.66,0,0-.1-.06-.16-.12-.15s-.16.14-.23.2-.19-.1-.19-.45Z"/><path d="M21.72,63.68c.11-.35.26-.49.45-.43s.22.18.32.21.17-.05.24-.15c.28-.4.63-.48,1.11.07l0,.1c-.22.65-.58.66-1,.36-.11-.07-.21-.11-.29-.07s-.14.21-.21.29-.36,0-.61-.28Z"/><path d="M24.54,66.13c0-.37.08-.56.28-.58a3.47,3.47,0,0,0,.36.08c.1,0,.15-.11.18-.23.14-.49.45-.72,1-.35l0,.09c0,.73-.33.86-.81.73a.29.29,0,0,0-.29,0c-.06.08-.06.25-.1.36s-.32.15-.65,0Z"/><path d="M27.37,59.78a.74.74,0,0,1,.65-.72c.17,0,.35.12.5.13A.86.86,0,0,0,29,59a1.06,1.06,0,0,1,1.69.45l0,.09a1.33,1.33,0,0,1-1.61,0,.45.45,0,0,0-.4-.05c-.13.06-.22.23-.31.34s-.43.14-.85,0Z"/><path d="M32.36,61.15c.09-.41.27-.61.53-.63a2.87,2.87,0,0,0,.44.09.46.46,0,0,0,.31-.24.92.92,0,0,1,1.51-.18l0,.1a1,1,0,0,1-1.34.59.46.46,0,0,0-.37,0c-.1.08-.16.26-.25.37s-.45.17-.81,0Z"/><path d="M35.89,66.37q-.28-.42-.12-.39c.07,0,.19.1.24.11s0-.07,0-.15c-.16-.34-.1-.46.43-.11l.07.07c.35.52.23.58-.11.42-.08,0-.15,0-.15,0a2.72,2.72,0,0,0,.12.25c0,.1-.11.07-.4-.12Z"/><path d="M35.22,71.88c.13-.34.26-.45.4-.37s.13.21.2.25.14,0,.2-.12c.26-.36.53-.4.81.22V72c-.26.63-.53.59-.8.24-.07-.08-.14-.14-.2-.11s-.13.18-.2.26-.27,0-.41-.36Z"/><path d="M46.79,60.67c.17-.39.41-.57.69-.54s.31.17.44.18a.62.62,0,0,0,.39-.15,1,1,0,0,1,1.58.33l0,.1a1.1,1.1,0,0,1-1.51.11.49.49,0,0,0-.38-.07c-.13.06-.22.22-.33.32s-.49.07-.82-.19Z"/><path d="M50.05,63.76c.05-.33.15-.44.2-.35s0,.22,0,.26.06,0,.1-.09.1-.25,0-.25-.12.24.14.44l.08.07a.33.33,0,0,1-.11.55c-.17,0-.24-.08-.25-.27s0-.15,0-.13a1.45,1.45,0,0,0-.1.24c0,.08,0,0-.08-.37Z"/><path d="M57.55,49.48c-.16-.31-.16-.47,0-.49a1.28,1.28,0,0,0,.3.07c.06,0,0-.1,0-.2-.1-.4,0-.58.62-.31l.07.07c.29.59.11.72-.3.62-.1,0-.18,0-.19,0a2,2,0,0,0,.06.3c0,.13-.17.13-.49,0Z"/><path d="M55.43,38.22c.07-.36.16-.5.32-.46s.2.16.28.17.14-.06.18-.17c.16-.42.6-.58.95,0v.1c-.23.62-.37.63-.78.38-.1-.06-.19-.09-.25,0s-.09.22-.14.31-.32.06-.54-.23Z"/><path d="M60,36.06c.32-.16.49-.15.53,0a1.2,1.2,0,0,0,0,.31c0,.06.11.07.21.05.43-.09.64.06.39.68l-.07.07c-.6.27-.76.07-.7-.36,0-.1,0-.19,0-.21a2.21,2.21,0,0,0-.32.06c-.14,0-.16-.2,0-.53Z"/><path d="M63.57,34.07c.34,0,.45,0,.37.09a1.31,1.31,0,0,0-.25.06s0,0,.11,0S64,34,64,34s-.09.15-.29.4l-.07.07c-.24.2-.35.26-.44.24a.27.27,0,0,1,.09-.38c.07-.06.12-.09.09-.1s-.19,0-.26,0,0-.09.36-.14Z"/><path d="M60,31.46c.26-.22.36-.28.32-.2a2.43,2.43,0,0,0-.14.22s0,0,.11-.05c.29-.21.37-.2,0,.29l-.07.07c-.47.41-.48.33-.29,0,0-.08.08-.13,0-.12a2,2,0,0,0-.21.16c-.08,0,0-.07.18-.33Z"/><path d="M57.26,24.67c.24-.23.33-.3.29-.23l-.16.2s0,0,.1-.06c.27-.23.32-.24-.08.23l-.07.08c-.45.42-.45.37-.23.09,0-.07.08-.12.06-.1L57,25c-.06.05,0,0,.22-.3Z"/><path d="M51.32,24.77c-.21-.27-.24-.4-.13-.39s.19.12.24.13,0-.05,0-.14c-.05-.4.31-.52.44.11v.1c-.09.63.06.55-.17.26,0-.07-.1-.1-.1-.06a.81.81,0,0,0,.12.22c0,.09-.08,0-.35-.16Z"/><path d="M50.51,30.42c0-.34.09-.45.15-.37a1.45,1.45,0,0,0,.1.24s.05,0,.06-.12l0-.27a.69.69,0,0,0,.29.38l.07.07c.17.28.08.48,0,.55s-.21,0-.31-.19-.08-.13-.11-.09a1.05,1.05,0,0,0-.07.26c-.06.08-.13,0-.2-.36Z"/><path d="M53.87,34.18c-.22-.26-.09-.52.15-.43s.14.25.15.3.08,0,.18,0c.42,0,.5.32-.13.39h-.1c-.62-.09-.56.06-.23-.09.08-.05.11-.09.09-.07a.27.27,0,0,0,0,.27c.16.08.21-.13-.07-.33Z"/><path d="M54.61,56.75c-.16-.3-.1-.5,0-.49s.22.12.28.13.08-.07.09-.17c.06-.42.26-.54.65,0l0,.09c0,.66-.15.67-.45.42-.08-.06-.15-.08-.18,0a1.42,1.42,0,0,0,0,.28c0,.12-.11,0-.42-.13Z"/><path d="M42.44,57.59c-.21-.27-.17-.44-.07-.4a2.68,2.68,0,0,1,.18.2s0,0,0-.13c0-.37.21-.44.29.18v.1c0,.62,0,.58-.13.24,0-.08-.07-.13-.07-.09a1.11,1.11,0,0,0,.08.24c0,.07,0-.06-.24-.27Z"/><path d="M10.73,33.27a.73.73,0,0,1,.54-.75,4.84,4.84,0,0,0,.5.06.61.61,0,0,0,.36-.25,1.06,1.06,0,0,1,1.69,0v.1a1.2,1.2,0,0,1-1.53.46.46.46,0,0,0-.4,0c-.11.08-.17.27-.25.39s-.44.2-.85.09Z"/><path d="M16.65,36.61c-.15-.33-.1-.53.07-.55s.24.09.32.09.1-.09.13-.2a.47.47,0,0,1,.38-.4A.51.51,0,0,1,18,36l0,.1a4.38,4.38,0,0,0-.26.46c-.06,0-.15,0-.33-.16s-.17-.07-.2,0a.82.82,0,0,0,0,.31c0,.13-.18.09-.5,0Z"/><path d="M20.82,38.52c-.09-.38,0-.6.17-.69a1.7,1.7,0,0,0,.4,0,.34.34,0,0,0,.13-.29c0-.54.29-.86,1-.72l.08.07c.15.73-.17,1-.7,1a.38.38,0,0,0-.3.14,2.38,2.38,0,0,0,0,.39c-.08.2-.31.27-.69.18Z"/><path d="M24.41,21.06c.24.28.25.49.09.57s-.26,0-.33.05-.06.13,0,.24c.11.45,0,.62-.63.6l-.09,0c-.43-.55-.18-.86.27-.87.11,0,.2,0,.21-.11s-.07-.22-.09-.32S24,21,24.32,21Z"/><path d="M26.33,23.37c.33,0,.45.11.36.17a2.3,2.3,0,0,0-.25.09s0,.07.1.11.24.19.21.3a.41.41,0,0,1-.56,0L26.12,24a.66.66,0,0,0-.39-.27l.27,0c.09,0,.14,0,.12-.07a1.34,1.34,0,0,0-.26-.08c-.08-.05,0-.1.37-.17Z"/><path d="M25.9,29.9c-.15-.33-.14-.5,0-.53a1.24,1.24,0,0,0,.31.05c.06,0,.07-.11.05-.21-.08-.43.07-.63.68-.38l.07.07c.27.61.07.76-.36.69-.11,0-.19,0-.21.06s0,.21.05.31-.2.15-.53,0Z"/><path d="M22.4,28.64c-.17-.3-.19-.45-.06-.46a1.36,1.36,0,0,0,.28.08c.05,0,.05-.09,0-.18-.12-.38,0-.55.56-.25l.07.07c.31.57.14.68-.24.56-.09,0-.17,0-.18,0s.06.19.08.27-.15.12-.46-.05Z"/><path d="M7,35.7c-.12-.35,0-.57.14-.6s.26.06.35,0,.12-.12.14-.23c.08-.48.39-.7,1-.3l.05.09c0,.69-.25.79-.71.66-.11,0-.2,0-.25,0a1.23,1.23,0,0,0,0,.34c-.07.16-.24.15-.58,0Z"/><path d="M14.24,26.25c.17-.39.41-.56.69-.54a3.9,3.9,0,0,0,.44.19.58.58,0,0,0,.39-.16,1,1,0,0,1,1.58.33l0,.1a1.1,1.1,0,0,1-1.51.11.44.44,0,0,0-.38-.06c-.12.05-.22.22-.33.31s-.49.07-.82-.18Z"/><path d="M17.5,29.35c.05-.34.15-.45.2-.35s0,.22,0,.26.06,0,.1-.1.1-.24,0-.24-.12.24.14.43l.08.07A.33.33,0,0,1,18,30c-.17,0-.24-.08-.25-.27s0-.15,0-.12a1.45,1.45,0,0,0-.1.24c0,.07,0,0-.08-.37Z"/><path d="M22.06,22.34c-.16-.31-.1-.51,0-.5s.22.12.28.13.08-.07.09-.17c.06-.41.26-.53.65,0l0,.1c0,.65-.15.66-.45.42-.08-.06-.15-.09-.18,0a1,1,0,0,0,0,.28c0,.11-.12,0-.43-.13Z"/><path d="M44,44.7c.08-.34.1-.46.19-.39s.13.19.18.21.08-.05.1-.14c.06-.39.2-.48.59,0l0,.09c0,.65-.17.68-.47.39-.07-.06-.13-.11-.17-.06s-.05.2-.09.28-.25,0-.36-.32Z"/><path d="M43.66,38.68c-.19-.28-.23-.4-.13-.39a1.6,1.6,0,0,0,.25.11s0-.06,0-.14c-.17-.34-.11-.46.42-.11l.07.07c.35.52.24.58-.1.42-.09,0-.15,0-.15,0s.09.17.12.25-.11.06-.4-.13Z"/><path d="M47.37,15.5c.25-.22.34-.29.29-.22l-.15.2s0,0-.06-.12a.68.68,0,0,0-.28-.16l.39.3.07.07c.2.24.27.34.27.41s-.18.09-.42-.07-.09-.16-.14-.15-.15.12-.22.15,0-.07.18-.33Z"/><path d="M50.82,14.39c.26-.22.35-.28.32-.2L51,14.4s0,0,.11,0c.29-.22.36-.2,0,.29l-.07.07c-.47.4-.48.33-.28,0,0-.07.07-.12,0-.11l-.21.15q-.12.06.18-.33Z"/><path d="M73.14,24.58a1.46,1.46,0,0,1,1.08,1.26c0,.28-.09.57-.09.83a2.11,2.11,0,0,0,.21.76,4.85,4.85,0,0,1,.41,1.47,8.18,8.18,0,0,1-.09,1.52l-.09,0a2.27,2.27,0,0,1-.88-1.41,4.14,4.14,0,0,1,.1-1.57,1.41,1.41,0,0,0,0-.76,2.73,2.73,0,0,0-.39-.66,4.55,4.55,0,0,1-.35-1.41Z"/><path d="M58.81,12.07a24.56,24.56,0,0,1,2.69-3C62.37,8.22,62.91,6.93,64,6c.51-.5,1.1-.86,1.56-1.26s1-.87,1.45-1.34a7.82,7.82,0,0,1,3.45-2.12h0c.78-.06,1.45.27,2.08.16l.51-.1-.3.46c-1,1.52-2.61,2.18-3.76,3.2A20.8,20.8,0,0,0,67.22,6.6a17.38,17.38,0,0,0-1.61,1.74A14.21,14.21,0,0,1,64,10.26a12.31,12.31,0,0,1-2.13,1.39c-1.4.79-3,1.43-3.79,2.84l-.09,0c.56-1.64,2.16-2.59,3.47-3.49a10.1,10.1,0,0,0,3.35-3.25,11.21,11.21,0,0,1,1.72-1.84,21.44,21.44,0,0,1,1.88-1.64c1.34-1.06,3-1.54,3.94-2.75l.21.37c-.78,0-1.44-.35-2.07-.3h0a5.62,5.62,0,0,0-3.14,2.16c-.42.51-.83,1-1.31,1.55S65,6.12,64.57,6.58c-.92.85-1.52,2.06-2.56,3s-2.16,1.59-3.12,2.52Z"/><path d="M68,5.59c0,1-.17,2.05-.06,3a2.43,2.43,0,0,0,.43,1.31,6.19,6.19,0,0,0,1.17.84h0c2.58,2.15,3.86,5.17,5.59,7.84a13.21,13.21,0,0,1,1.67,9.45,21.91,21.91,0,0,1-1.6,4.55,23.93,23.93,0,0,0-1.38,4.53,24.05,24.05,0,0,0,.3,9.41l0,.27-.23.06c-.75.19-1.09-.19-1.5-.39a10.64,10.64,0,0,1-1.07-.8c-.67-.57-1.31-1.17-1.92-1.79a33.34,33.34,0,0,1-3.4-4,16.75,16.75,0,0,1-2.93-10.06,43.19,43.19,0,0,1,1.17-10.37A19.79,19.79,0,0,1,65.09,17c.37-.81.82-1.56,1.25-2.3.85-1.47,1.78-3,1.69-4.74h.1c.23,1.77-.58,3.47-1.35,5-.39.77-.79,1.53-1.1,2.3A21.47,21.47,0,0,0,65,19.67a48.9,48.9,0,0,0-.89,10.19,16.79,16.79,0,0,0,2.68,9.51,40.48,40.48,0,0,0,3.22,4c.57.63,1.16,1.24,1.79,1.81a8,8,0,0,0,1,.79,1.62,1.62,0,0,0,.88.39l-.17.33a27.28,27.28,0,0,1,0-9.58,26.7,26.7,0,0,1,1.31-4.62A21,21,0,0,0,76.17,28,13.9,13.9,0,0,0,74.36,19c-1.65-2.68-2.94-5.72-5.18-7.82h0a6.19,6.19,0,0,1-1.24-1,2.82,2.82,0,0,1-.41-1.58c0-1.06.26-2,.32-3.05Z"/><path d="M62.84,7a11.34,11.34,0,0,0-2.41.09A7.83,7.83,0,0,0,58.21,8c-1.47.72-2.87,1.51-4.39,2.16A23.77,23.77,0,0,1,44.14,12a18.49,18.49,0,0,0-4.77.07,18.73,18.73,0,0,0-4.55,1.57,13,13,0,0,1-2.31.86,8,8,0,0,1-2.48.13,23.73,23.73,0,0,1-4.82-.92h0a22.66,22.66,0,0,0-3.28-1.41l-.44-.08.29-.35C23,10.31,25,10,26.45,9.13a32.12,32.12,0,0,0,4.09-3.28A7.59,7.59,0,0,1,33,4.54,4.37,4.37,0,0,0,34.87,3,9.62,9.62,0,0,1,39.71.23c3.76-.81,7.42.62,10.55,2.28.8.4,1.56,1,2.31,1.24a20.73,20.73,0,0,0,2.55.59C57,4.71,58.36,6,59.93,6.77h0a1.32,1.32,0,0,1,.53.22l0,.09a1.2,1.2,0,0,0-.49-.17h0c-1.64-.7-3.14-1.8-4.85-2a20.31,20.31,0,0,1-2.67-.48A21.47,21.47,0,0,1,49.9,3.22c-3.13-1.52-6.63-2.71-10-2a9.21,9.21,0,0,0-4.33,2.45c-.29.28-.53.65-.94,1a4.42,4.42,0,0,1-1.28.76,6.56,6.56,0,0,0-2.26,1.12A27.5,27.5,0,0,1,26.79,9.8c-1.65.79-3.5,1.11-4.6,2.37L22,11.74c1.28.31,2.22,1.16,3.3,1.59h0c3,.92,6.5,1.72,9.33-.08a18.83,18.83,0,0,1,4.57-1.86A10.54,10.54,0,0,1,41.72,11c.85,0,1.62.08,2.43.08a25.61,25.61,0,0,0,9.4-1.67c1.5-.56,3-1.29,4.47-1.93a7.06,7.06,0,0,1,2.36-.73,11.19,11.19,0,0,1,2.46.11Z"/><path d="M68.61,11.37A16.51,16.51,0,0,1,72.14,19,17.66,17.66,0,0,1,71,27.38a12.81,12.81,0,0,0-.73,1.89,14.06,14.06,0,0,0-.24,2c-.07,1.36,0,2.75,0,4.12a9.54,9.54,0,0,0,1,3.83,8.12,8.12,0,0,1,.7,2,7.88,7.88,0,0,0,.56,2l-.08.05c-.9-1.18-1-2.61-1.88-3.72A8.6,8.6,0,0,1,69,35.43a26.26,26.26,0,0,1,.09-4.25A11.19,11.19,0,0,1,69.48,29a10.14,10.14,0,0,1,1-1.91,10.43,10.43,0,0,0,.85-8,37.68,37.68,0,0,0-2.81-7.74Z"/><path d="M56.81,7.08A27.07,27.07,0,0,1,48,7.37c-2.91-.4-5.84-.58-8.8-.77A12.22,12.22,0,0,0,37,6.48a3.68,3.68,0,0,0-1.81.7,41.11,41.11,0,0,0-3.1,3c-2.12,2.09-5.22,3.66-8.22,3v-.1c3,0,5.48-1.7,7.49-3.66a21.08,21.08,0,0,1,3.3-3A4.31,4.31,0,0,1,37,5.68a10.89,10.89,0,0,1,2.25.38A39.53,39.53,0,0,0,48,6.55C51,6.66,53.85,7,56.8,7Z"/><path d="M70.11,17a8.45,8.45,0,0,1-1.59,1.5,2.5,2.5,0,0,0-.79.7,2.36,2.36,0,0,0-.29,1.06c0,.37,0,.68,0,1.1A2.38,2.38,0,0,1,67,22.65c-.69.76-1.4.8-2,1.2l-.09-.05c.21-.85,1.05-1.35,1.28-1.79s.35-1.14.79-1.9a11.2,11.2,0,0,0,.52-1,4.91,4.91,0,0,1,.49-1.14,2.94,2.94,0,0,1,2.13-1Z"/><path d="M70.76,22.3a13.36,13.36,0,0,1-2.15,2.06,3.84,3.84,0,0,0-1.06,1,2.49,2.49,0,0,0-.33,1.39,8,8,0,0,1-.29,3.09,9.11,9.11,0,0,1-1.5,2.71l-.09,0a16.22,16.22,0,0,1,.57-3c.3-1,.48-1.83.76-2.87a13.53,13.53,0,0,1,.6-1.46A7,7,0,0,1,68,23.77a5.32,5.32,0,0,1,2.69-1.55Z"/><path d="M70.61,29.38a4.14,4.14,0,0,1,1.6,1.09c.19.27.33.6.53.87a9.51,9.51,0,0,0,.71.71,2.62,2.62,0,0,1,.8,2A3.91,3.91,0,0,1,73.59,36h-.1A8.15,8.15,0,0,1,73.18,34,5.78,5.78,0,0,0,73,32.34a1.58,1.58,0,0,0-.49-.78,5,5,0,0,0-.85-.48,2.61,2.61,0,0,1-1.12-1.64Z"/><path d="M37.88,7.36a2.68,2.68,0,0,1-.3,2.47,5,5,0,0,1-1.06.74,4.11,4.11,0,0,0-.89.77A14.43,14.43,0,0,1,34,13a4.66,4.66,0,0,1-2.21,1L31.75,14a19.1,19.1,0,0,1,1.57-1.75,7.9,7.9,0,0,1,2-1.33,3.79,3.79,0,0,0,1-.59,2.5,2.5,0,0,0,.57-.94c.28-.55.45-1.27.89-2Z"/><path d="M47.52,7.88c-.84.3-1.52.48-2.21.7a4.09,4.09,0,0,0-1.13.35,6.89,6.89,0,0,0-1,.75,2.93,2.93,0,0,1-1.15.71c-.47.13-.86.15-1.13.23a1.33,1.33,0,0,0-.75.45,2.15,2.15,0,0,1-1,.78l-.05-.08a5.45,5.45,0,0,0,.43-1.11A1.83,1.83,0,0,1,40.6,9.61a4.9,4.9,0,0,1,1.26-.14,7.43,7.43,0,0,0,1.07-.26A3.4,3.4,0,0,0,44,8.66c.32-.25.59-.6,1-.85a2.83,2.83,0,0,1,2.55,0Z"/><path d="M39.44,5a6.4,6.4,0,0,1,2.3-.53c.4,0,.82.1,1.21.09a6.18,6.18,0,0,0,1.18-.24,4.7,4.7,0,0,1,2.5-.12,3.3,3.3,0,0,1,2,1.53l-.06.08a24.17,24.17,0,0,0-4.4-.95,3.6,3.6,0,0,0-1.18,0c-.38.09-.75.28-1.13.41a3.82,3.82,0,0,1-2.42-.19Z"/></g></g></svg>