<svg xmlns="http://www.w3.org/2000/svg" viewBox="0 0 114.29 121.86"><defs><style>.cls-1{fill:#00a7d9;}</style></defs><g id="Layer_2" data-name="Layer 2"><g id="Ingredients_Map" data-name="Ingredients Map"><path class="cls-1" d="M51.53,39.3c.2.29.42.57.63.85l1.35,1.75-.12-.83a17.8,17.8,0,0,1-.18-1.86,4.68,4.68,0,0,0-.5-2,2.11,2.11,0,0,0-1.62-1h-.18a.66.66,0,0,0-.41.11.31.31,0,0,0-.12.22,2.13,2.13,0,0,0,.14.72l.08.24A8.17,8.17,0,0,0,51.53,39.3Z"/><path class="cls-1" d="M46.74,17.69l-.19.07.12.15a4,4,0,0,0,1.79.79c.32.08.61.16.9.26a32.15,32.15,0,0,1,3.16,1.23c.51.22,1,.45,1.51.69l3.47,1.66-.14-.3a5.18,5.18,0,0,0-.71-1.18A8.22,8.22,0,0,0,53.56,19,25.63,25.63,0,0,0,50,17.79,6.8,6.8,0,0,0,46.74,17.69Z"/><path class="cls-1" d="M67.88,13a1.67,1.67,0,0,0-1.25-.19l-.19,0c-.32,0-.64.09-.94.15L64,13.28,64.68,12A3.21,3.21,0,0,0,65,10.64a1.11,1.11,0,0,0-.43-1,2.15,2.15,0,0,0-1.21-.06,4.56,4.56,0,0,0-2.31,1.08A3.64,3.64,0,0,0,60,12.18l-.26.72-1.31-.49a22.65,22.65,0,0,0-3-.83L55,11.49a2.94,2.94,0,0,0-1-.12.46.46,0,0,0-.29.13.2.2,0,0,0-.06.16,3.68,3.68,0,0,0,.15.75A7.71,7.71,0,0,0,55.45,15,18.47,18.47,0,0,1,59,19.82l.11.22,0,.25c-.11.59-.21,1.18-.32,1.77l-.18,1,1.82.86-1.89-.45-.17.95-.5-1.11-4.33-1a6.81,6.81,0,0,0-2.82-.05,1.06,1.06,0,0,0-.88,1,1.87,1.87,0,0,0,.67,1.07l.13.14a12.8,12.8,0,0,0,2.5,1.7l.15.09A8.62,8.62,0,0,1,56.55,29l.11.25a17.29,17.29,0,0,0,.49,1.66l.06.19,0,.2c-.2,1-.41,2.11-.64,3.15-.47,2.17-1,4.44-1.67,6.74l-1,3.47,0-.14c-.55,1.75-1,3.17-1.49,4.47s-.92,2.5-1.51,4l-1.35,3.4-.1-3.66a3.73,3.73,0,0,0-.1-.81,2.66,2.66,0,0,0-1.41-1.6l-.2-.09-.8-.36.31-.69a.58.58,0,0,0,.07-.34.54.54,0,0,0-.5-.43,2.61,2.61,0,0,0-.89.06,9,9,0,0,0-1.64.62l-.09,0a.8.8,0,0,1-.16.08l-2.35,1.14L43.19,48c.42-.38.87-.74,1.34-1.1h0l.77-.6a8.54,8.54,0,0,0,1.83-2l.27-.63h.51a5.24,5.24,0,0,0,1.45-.16l.73-.21a9.55,9.55,0,0,1,1.7-.41,2.7,2.7,0,0,1,1.77.37l.12.08-.16-1.16-2.23-.83a6.58,6.58,0,0,0-1.75-.42,16.4,16.4,0,0,0-2.51-.08,2.64,2.64,0,0,0-1.14.2.87.87,0,0,0-.48.85,2.33,2.33,0,0,0,0,.28l.16.57-.53.28a5.38,5.38,0,0,0-1.86,1.75l-1.4,2,0-2.46a13,13,0,0,0-.52-4.06c-.08-.31-.17-.6-.25-.89l-.19-.64.55-.36a1.86,1.86,0,0,0,.39-.4l2.3-2.91c.14-.21.31-.43.49-.65a14.55,14.55,0,0,0,.92-1.3,1.57,1.57,0,0,0-.07-2,1.65,1.65,0,0,0-2,.24,5.86,5.86,0,0,0-1.39,2c-.1.25-.2.54-.29.82l-1.46-.31a23.17,23.17,0,0,1,.42-2.3,12.89,12.89,0,0,0,.37-3.36l0-.58.55-.17a3.9,3.9,0,0,1,1.39-.06,4.78,4.78,0,0,0,.75,0A7.29,7.29,0,0,0,46.26,27l.46-.18a4.16,4.16,0,0,0,1.68-.93,1.1,1.1,0,0,0,.17-1,1.75,1.75,0,0,0-.74-.87l-.39-.26v-.52c0-.21.06-.42.08-.62s.07-.54.11-.79l.08-.66a.44.44,0,0,0,0-.24,3.06,3.06,0,0,0-.6,0,4.67,4.67,0,0,1-.53,0h-.42a2.89,2.89,0,0,0-1.74.27,6.7,6.7,0,0,0-2,2.43L41,22.92c.16-.48.31-.91.48-1.29a11.65,11.65,0,0,1,.92-1.78l.16-.24a5.59,5.59,0,0,0,.59-1l.07-.23-.25,0a1.71,1.71,0,0,0-.54.22,4.85,4.85,0,0,0-.87.71,3.08,3.08,0,0,0-.72,1.28l-1.1,3.59-.36-3.74a6.84,6.84,0,0,1,0-1.81c0-.15,0-.31.08-.47l.09-.46c0-.14,0-.29.08-.43l.12-.36a3.64,3.64,0,0,1,1.44-1.11l.1-.05a24.92,24.92,0,0,1,2.36-1.06c.79-.31,1.6-.57,2.47-.82a4.82,4.82,0,0,0,1.18-.49,1.09,1.09,0,0,0,.42-.38.39.39,0,0,0-.11-.45,3.52,3.52,0,0,0-2.22-.56H45.3a6.39,6.39,0,0,0-1.2.16L42,12.6l1.56-1.95.33-.09a1.51,1.51,0,0,0,.83-.38,1.63,1.63,0,0,0,.42-.57,1.45,1.45,0,0,0,.11-.24l-.1-.25.43-.35a12.79,12.79,0,0,0,2.21-2.39l.53-.68c.17-.24.29-.41.26-.64s-.28-.26-.46-.28a6.09,6.09,0,0,0-.84,0,6.75,6.75,0,0,0-2.56.86L42.47,6.93l1.18-2.26a4.3,4.3,0,0,0,.42-2.79c-.08-.3-.55-.26-.72-.23a3.17,3.17,0,0,0-1,.42,3.79,3.79,0,0,0-1.19,1.5l.54.36-.88.8L40.4,5l-.95.65-.21-1.13A6,6,0,0,0,38.74,3,4.83,4.83,0,0,0,35.82.71,7.8,7.8,0,0,0,34,.27a2.41,2.41,0,0,0-1.72.38,1.67,1.67,0,0,0-.6,1.57,3.26,3.26,0,0,0,.77,1.65,5.4,5.4,0,0,0,.88.74l1.25.86-1.44.47a.62.62,0,0,0-.23.12c0,.06,0,.21,0,.25a4.54,4.54,0,0,0,.33.53,12.53,12.53,0,0,0,1.48,1.52l.15.14a44.68,44.68,0,0,0,3.65,2.91l.47.33.07.27A7.8,7.8,0,0,1,39.32,14a12.07,12.07,0,0,1-.47,3.23c-.07.28-.13.54-.19.8a6.62,6.62,0,0,0-.16,1.86l.1,1.83-1.35-1.23a4.42,4.42,0,0,0-3.56-1.24c-.35,0-.92.22-1,.69A2,2,0,0,0,33,21.26a5.85,5.85,0,0,0,2.12,2l.47.29a14.92,14.92,0,0,1,2,1.39,10.45,10.45,0,0,1,2,2.26l.18.27.55,1.26,0,.22c-.06.33-.12.68-.22,1l0,.14A18.79,18.79,0,0,0,39.55,33l-.15,1.9-1.19-1.5a3.4,3.4,0,0,0-.9-.82,1.67,1.67,0,0,0-1.7-.1.77.77,0,0,0-.34.52,1.4,1.4,0,0,0,.21,1,7.19,7.19,0,0,0,1.16,1.35l.15.14a13.58,13.58,0,0,0,2.63,1.93l.56.3.31.75A34.65,34.65,0,0,1,41,42a16.16,16.16,0,0,1,.07,2.75L41,46.6,39.66,45a2.33,2.33,0,0,0-1.94-1.49c-.11,0-.36,0-.4.16a.91.91,0,0,0,.08.59,5.17,5.17,0,0,0,.75,1.07A7.42,7.42,0,0,0,40.25,47l.72.28,0,.73-.13-.29v.11c-.09.67-.17,1.31-.24,2l-.06,1.15-.08,0-.16,1.35h0l0,.42c-.05.52-.08,1-.11,1.56-.05.84-.08,1.67-.1,2.51L40,59.12l-1.32-1.93a7.79,7.79,0,0,0-1.48-1.61,2.62,2.62,0,0,0-2.59-.8.84.84,0,0,0-.42.39.7.7,0,0,0,0,.58,3.73,3.73,0,0,0,.68.87l.21.22c.53.51,1.12,1,1.7,1.49l.48.41a10.42,10.42,0,0,1,2,2.11,5.32,5.32,0,0,1,.36.57l.08.18c.13.49.27,1,.43,1.48l0,.16a68.21,68.21,0,0,0,.88,7.12l.41-.07,0-.17c-.2-1.76-.34-3.57-.44-5.55l-.09-1.74,1.59,1.36a5.11,5.11,0,0,1,1.32,1.59,3.68,3.68,0,0,1,.36,1.5v.18l-.09.17c-.33.68-.66,1.37-1,2.06h0c-.06.13-.12.26-.17.4l-.92,2.24v0l0,.17,0,.17c-.23.78-.43,1.58-.63,2.46a6.93,6.93,0,0,0-.22.87l-.08.22a.42.42,0,0,0-.06.24l0,.12.11,0a.56.56,0,0,0,.18-.27l.05-.1.26-.6.22-.53.19,0,0-.33.07-.18c.2-.55.37-1.11.52-1.65l.13-.44a7.81,7.81,0,0,1,.28-.86l.26-.57.21-.42c.41-.81.78-1.59,1.15-2.35l.08-.15.33-.6.09-.15.15-.1a5.63,5.63,0,0,1,1.86-.73c.73-.16,1.49-.32,2.24-.45L49.9,66a7,7,0,0,0,1.69-.43,2.74,2.74,0,0,0,.9-.61,1.13,1.13,0,0,0,.37-.93c0-.24-.28-.38-.75-.47a3.61,3.61,0,0,0-1.1,0,4.52,4.52,0,0,0-2,.82c-.3.23-.63.45-1,.67l-2.74,1.88,1.15-2.48c1-2.22,2-4.55,3-6.93l.18-.43.46,0a3,3,0,0,1,1.21.24l.26.09a10.65,10.65,0,0,0,1.94.46,6.5,6.5,0,0,0,2,0,2,2,0,0,0,.91-.32.85.85,0,0,0,.38-.77c0-.08,0-.29-.51-.48l-1.52-.65,1.49-.72a2,2,0,0,0,.38-.21,1.43,1.43,0,0,0,.56-1.79.85.85,0,0,0-.8-.36,4.55,4.55,0,0,0-1.12.17,5.68,5.68,0,0,0-1.92,1l-.39.3c-.31.24-.62.48-.92.74L49.82,56.6,51,53.43c.21-.56.42-1.12.62-1.69.73-2,1.44-4.17,2.15-6.58l.38-1.3.62.7c.48,0,.91,0,1.33,0h1.37a10.89,10.89,0,0,0,1.8-.19l.25-.05a2,2,0,0,0,1.29-.63.28.28,0,0,0,0-.23.38.38,0,0,0-.15-.26,1.54,1.54,0,0,0-.45-.2l-2.58-.67,2.75-.83.37-.11a3.58,3.58,0,0,0,1.46-.9A3.07,3.07,0,0,0,63,39c.1-.67.15-1.38.19-2.07v-.1c0-.29,0-.59.07-.91l0-.28-3.09.16a4.48,4.48,0,0,0-1.56.32,2.64,2.64,0,0,0-1.14,1.1l-.05.08-2.56,4.28L56,36.72c.25-1,.5-2.11.75-3.19l.16-.72.26,0c.16-.15.3-.3.45-.46l.11-.11L58,32.1l.31-.22a9,9,0,0,1,3.07-1.75,5.35,5.35,0,0,0,2-1.28,2.46,2.46,0,0,0,.61-1.05,1,1,0,0,0-.23-1,1.48,1.48,0,0,0-1.12-.13c-.39.07-.79.17-1.21.27a3.87,3.87,0,0,0-2.06,1.19s0,0,0,.08l-2,2.6L58,27.58c.1-.48.19-1,.28-1.44l.06-.3.25-.18c.44-.29.89-.56,1.37-.84a20.65,20.65,0,0,0,1.75-1.12,6.65,6.65,0,0,0,1.41-1.39,1.44,1.44,0,0,0,.13-1.72.34.34,0,0,0-.16-.05l-2.24-.36,2-1.05a4.58,4.58,0,0,0,1.64-1.36c.22-.32.42-.63.61-.94a8.84,8.84,0,0,1,1.27-1.68,8.3,8.3,0,0,1,1.25-1,1,1,0,0,0,.46-.53A.61.61,0,0,0,67.88,13ZM49.09,57.22c-.88,2-1.73,3.88-2.6,5.68-.32.67-.66,1.34-1,2l-1.15,2.26L44,64.88a8.43,8.43,0,0,0-.41-1.63,3,3,0,0,0-.55-1l-.56-.69,1.06-.6,1.18-.7a6.39,6.39,0,0,0,1.82-1.6,2,2,0,0,0,.23-2.22,1.7,1.7,0,0,0-2-.54A4,4,0,0,0,43,57.37a7.59,7.59,0,0,0-.64,1.14l-1.47,3.1,0-3.44v-.45c0-1.79.13-3.74.3-5.78l.08-1,.07-.11.58.32.91-.08a6,6,0,0,0,1.8-.28,4.11,4.11,0,0,0,.42-.15l.61-.25.44.49.21.22a14,14,0,0,1,1.38,1.8,11.58,11.58,0,0,1,1.19,2.39l0,.22a5.66,5.66,0,0,0,.2,1.21l.08.26Z"/><path class="cls-1" d="M36.27,50c.43.25.88.47,1.33.7s1.07.54,1.56.84v0c.27.17.52.34.77.53l.3.22-.63-1.15,0-.05L39.13,50a6.42,6.42,0,0,0-1.28-1.79,4.52,4.52,0,0,0-3-1.44,2.59,2.59,0,0,0-1,.19.3.3,0,0,0-.19.15.41.41,0,0,0,0,.12,3.4,3.4,0,0,0,.21.56,3.81,3.81,0,0,0,.64.87A8.83,8.83,0,0,0,36.27,50Z"/><path class="cls-1" d="M110.25,28.52h.36a4,4,0,0,0,3.17-1.36c.38-.48.56-1.26.19-1.65l-.07-.08a7.36,7.36,0,0,0-1.35-1.38L111.32,23l1.62,0,.27,0a1,1,0,0,0,.82-.52.46.46,0,0,0,0-.4l-.07-.11a1.46,1.46,0,0,0-.2-.27l-.12-.14a5.14,5.14,0,0,0-.76-.67,8.78,8.78,0,0,0-3.73-1.41,6,6,0,0,0-2.76.31l-1.74.62,1.24-1.9a8.18,8.18,0,0,0,.89-6.85l-.06-.17a2.56,2.56,0,0,0-.86-1.35,2.16,2.16,0,0,0-1.36-.11l-.34,0a4.07,4.07,0,0,0-2.87,1.78,6,6,0,0,0-.87,3.43,12.28,12.28,0,0,0,.17,1.5l.77,4.5-2-4.13-.28-.59A5.94,5.94,0,0,0,98,15.17L97.8,15l-.06-.34a1.48,1.48,0,0,0,0-.19,1.15,1.15,0,0,0-.68-.9.3.3,0,0,0-.25,0,.36.36,0,0,0-.18.21,1.34,1.34,0,0,0,0,.67L96.87,16c.16.72.31,1.43.43,2.14L98,23.25l-1.5-2.19a14,14,0,0,0-1.19-1.51,1.6,1.6,0,0,0-1.42-.65,1,1,0,0,0-.68.46,2.73,2.73,0,0,0-.29.82,8.93,8.93,0,0,0,0,3.26,22.75,22.75,0,0,1,.3,4.61l0,.15a11.14,11.14,0,0,0-.38,2l0,.38-.36.14a1.51,1.51,0,0,0-.55.38,4.77,4.77,0,0,0-.82,1.52q-.22.6-.42,1.2l-.08.22-.11.16c-1.18,1.31-2.47,2.66-3.84,4l-1.21,1.19.17-1.85c0-.06,0-.13,0-.19v-.15l.08-.12a13.13,13.13,0,0,0,1.76-4.67,7.73,7.73,0,0,0-.2-2.81,5.48,5.48,0,0,0-.53-1.3,1.06,1.06,0,0,0-.46-.42.54.54,0,0,0-.61.14,1.58,1.58,0,0,0-.3.48l-.37.88-.66-.69a1.94,1.94,0,0,0-1-.63,1.46,1.46,0,0,0-1,.13,1.15,1.15,0,0,0-.54.88,6.75,6.75,0,0,0,.88,2.88c.13.28.25.52.37.79a15.76,15.76,0,0,1,1.26,3.63,24.3,24.3,0,0,1,.49,3.25l0,.3-1,.9A6.89,6.89,0,0,0,82.64,42l-2.47,2.35c-1.57,1.49-3.17,3-4.75,4.56l-2,2,1-2.64A8.51,8.51,0,0,0,75,45.06a7.42,7.42,0,0,0-.46-2.48,2.78,2.78,0,0,0-.63-1.07,1.11,1.11,0,0,0-1.13-.25,2.11,2.11,0,0,0-1.28,1.94,11.07,11.07,0,0,0,.16,2.53,22.68,22.68,0,0,0,1.31,4.45l.33.9-.28.28c-1.45,1.48-2.53,2.63-3.52,3.72s-2.3,2.62-3.63,4.29l-1.59,2,.49-2.5a11.52,11.52,0,0,0,.18-1.32,8.42,8.42,0,0,0-.22-2.28,5.14,5.14,0,0,0-.38-1.07,1.49,1.49,0,0,0-.74-.81.51.51,0,0,0-.51.12,1.13,1.13,0,0,0-.27.55,4.78,4.78,0,0,0-.09,1.14,10.54,10.54,0,0,0,.37,2.27l.21.76a10.33,10.33,0,0,1,.52,3.64V62l-.1.14c-1.32,1.79-2.44,3.41-3.44,5a87.31,87.31,0,0,0-6.53,12.12l.26.13c2.41-4.24,4.52-7.65,6.64-10.72,1-1.5,2.15-3,3.25-4.38l.55-.72c.75-1,1.49-2,2.14-3s1-1.5,1.57-2.21a58.26,58.26,0,0,1,4.53-5.21l.11-.12.17-.05a16.45,16.45,0,0,1,4.16-.45l1.24,0c1.07-.05,2-.11,2.88-.23a1.86,1.86,0,0,0,1.19-.61,1.38,1.38,0,0,0,.15-1.33A2.45,2.45,0,0,0,80.16,49a8,8,0,0,0-2.52.83l-3.18,1.47,11-11,.15,0c.19-.06.38-.1.59-.15l.12,0,.11,0a13,13,0,0,1,4.95,2.4l.41.28a16.12,16.12,0,0,0,3.29,1.72l.09,0a5.73,5.73,0,0,0,1.72.35.66.66,0,0,0,.63-.47,2.25,2.25,0,0,0,0-.81l0-.17a5.21,5.21,0,0,0-5.2-4.53l-.14,0H92l-2.28.16,1.89-1.3A9.41,9.41,0,0,0,92.71,37a5.29,5.29,0,0,0,1.63-3,4.71,4.71,0,0,0,0-1.64l-.13-.58.58-.16a32.69,32.69,0,0,1,4.8-.87l2.65-.34a3.34,3.34,0,0,0,1.19-.39c.41-.23.7-.68.5-1.05a1.26,1.26,0,0,0-1.11-.66l-1.14-.1.55-.86a.89.89,0,0,0,.12-.24l.13-.42.43,0a9.66,9.66,0,0,1,4,.92A12.31,12.31,0,0,0,110.25,28.52Z"/><path class="cls-1" d="M16.88,96.2V84.27h3.77a3.89,3.89,0,0,1,2.72.92,3.16,3.16,0,0,1,1,2.47,3.33,3.33,0,0,1-.52,1.84,2.94,2.94,0,0,1-1.43,1.17,7.25,7.25,0,0,1-2.59.36H18.59V96.2Zm3.48-10.41H18.59v3.72h1.87a2.34,2.34,0,0,0,1.6-.49,1.73,1.73,0,0,0,.56-1.4C22.62,86.4,21.87,85.79,20.36,85.79Z"/><path class="cls-1" d="M27.67,88.35v1.8l.08-.13c.75-1.22,1.5-1.82,2.25-1.82a2.75,2.75,0,0,1,1.84.89L31,90.45a2.31,2.31,0,0,0-1.5-.77,1.6,1.6,0,0,0-1.3.72,2.69,2.69,0,0,0-.55,1.7v4.1H26.11V88.35Z"/><path class="cls-1" d="M37,88.34a4.1,4.1,0,0,1,3,1.15,3.88,3.88,0,0,1,1.18,2.9A3.7,3.7,0,0,1,40,95.21a4.25,4.25,0,0,1-3,1.12,4.1,4.1,0,0,1-3-1.14,3.77,3.77,0,0,1-1.18-2.84A3.81,3.81,0,0,1,34,89.48,4.17,4.17,0,0,1,37,88.34Zm-.09,1.39a2.46,2.46,0,0,0-1.83.74,2.54,2.54,0,0,0-.71,1.86,2.44,2.44,0,0,0,.73,1.84,2.57,2.57,0,0,0,1.88.71,2.54,2.54,0,0,0,1.87-.72,2.66,2.66,0,0,0,0-3.69A2.62,2.62,0,0,0,36.93,89.73Z"/><path class="cls-1" d="M48.05,88.35h1.69l-3.47,8h-.52l-3.55-8h1.7L46,93.18Z"/><path class="cls-1" d="M57.93,92.41H52.41a2.57,2.57,0,0,0,.76,1.79,2.49,2.49,0,0,0,1.79.67,4.63,4.63,0,0,0,2.83-1v1.52a5.11,5.11,0,0,1-1.42.68,5.83,5.83,0,0,1-1.65.2,3.66,3.66,0,0,1-2.09-.53,4,4,0,0,1-1.29-1.45,4.4,4.4,0,0,1-.48-2.1,4.17,4.17,0,0,1,1-2.91,3.36,3.36,0,0,1,2.63-1.12A3.1,3.1,0,0,1,57,89.29a4.35,4.35,0,0,1,.93,2.92Zm-5.48-.93h3.94a2.15,2.15,0,0,0-.55-1.43,1.76,1.76,0,0,0-1.33-.5,1.9,1.9,0,0,0-1.37.5A2.51,2.51,0,0,0,52.45,91.48Z"/><path class="cls-1" d="M61.51,88.35v1a3.1,3.1,0,0,1,2.36-1.15,2.61,2.61,0,0,1,1.36.38,2.47,2.47,0,0,1,1,1,5,5,0,0,1,.33,2.09V96.2H65V91.73A3,3,0,0,0,64.6,90a1.39,1.39,0,0,0-1.22-.51,2.21,2.21,0,0,0-1.87,1.1v5.6H59.92V88.35Z"/><path class="cls-1" d="M74.92,94.36V95.9a6.52,6.52,0,0,1-2.29.43,3.76,3.76,0,0,1-4-4,4.15,4.15,0,0,1,1.07-3,3.68,3.68,0,0,1,2.8-1.13,5.15,5.15,0,0,1,1.09.11,7.77,7.77,0,0,1,1.19.43V90.4a4.16,4.16,0,0,0-2.19-.75,2.2,2.2,0,0,0-1.72.74,2.66,2.66,0,0,0-.67,1.88,2.54,2.54,0,0,0,.73,1.91,2.69,2.69,0,0,0,2,.7A5.11,5.11,0,0,0,74.92,94.36Z"/><path class="cls-1" d="M83.71,92.41H78.2A2.57,2.57,0,0,0,79,94.2a2.52,2.52,0,0,0,1.8.67,4.67,4.67,0,0,0,2.83-1v1.52a5.25,5.25,0,0,1-1.42.68,5.83,5.83,0,0,1-1.65.2,3.7,3.7,0,0,1-2.1-.53,3.92,3.92,0,0,1-1.28-1.45,4.4,4.4,0,0,1-.48-2.1,4.16,4.16,0,0,1,1-2.91,3.37,3.37,0,0,1,2.63-1.12,3.1,3.1,0,0,1,2.49,1.09,4.35,4.35,0,0,1,.93,2.92Zm-5.48-.93h4a2.15,2.15,0,0,0-.56-1.43,1.76,1.76,0,0,0-1.33-.5,1.87,1.87,0,0,0-1.36.5A2.45,2.45,0,0,0,78.23,91.48Z"/><path class="cls-1" d="M0,105.77a.22.22,0,0,1,.24-.23H1.68a.22.22,0,0,1,.24.23v14a.12.12,0,0,0,.14.14H6.28a.23.23,0,0,1,.24.24v1.3a.23.23,0,0,1-.24.24h-6a.23.23,0,0,1-.24-.24Z"/><path class="cls-1" d="M8.29,105.77a.22.22,0,0,1,.24-.23h6.09a.22.22,0,0,1,.24.23v1.31a.22.22,0,0,1-.24.23H10.35c-.09,0-.14,0-.14.15v5a.13.13,0,0,0,.14.14h3.7a.23.23,0,0,1,.24.24v1.3a.23.23,0,0,1-.24.24h-3.7a.13.13,0,0,0-.14.14v5.19a.12.12,0,0,0,.14.14h4.27a.23.23,0,0,1,.24.24v1.3a.23.23,0,0,1-.24.24H8.53a.23.23,0,0,1-.24-.24Z"/><path class="cls-1" d="M16.8,105.77a.22.22,0,0,1,.23-.23H18.5a.29.29,0,0,1,.33.23l2.94,9.86h.1l2.87-9.86c0-.16.16-.23.35-.23h1.45a.22.22,0,0,1,.23.23v15.64a.22.22,0,0,1-.23.24H25.26a.23.23,0,0,1-.24-.24V110.25H24.9l-2.44,8.3a.3.3,0,0,1-.28.23h-.79c-.16,0-.23-.09-.28-.23l-2.44-8.3h-.12v11.16a.23.23,0,0,1-.24.24H17a.22.22,0,0,1-.23-.24Z"/><path class="cls-1" d="M29.47,119.47c-.24-.71-.31-1.3-.31-5.88s.07-5.16.31-5.87a3.39,3.39,0,0,1,3.53-2.4,3.36,3.36,0,0,1,3.53,2.4c.24.71.31,1.3.31,5.87s-.07,5.17-.31,5.88A3.35,3.35,0,0,1,33,121.86,3.38,3.38,0,0,1,29.47,119.47Zm5.24-.55c.14-.47.19-.82.19-5.33s0-4.86-.19-5.33A1.66,1.66,0,0,0,33,107.12a1.63,1.63,0,0,0-1.68,1.14c-.17.47-.21.83-.21,5.33s0,4.86.21,5.33A1.62,1.62,0,0,0,33,120.06,1.65,1.65,0,0,0,34.71,118.92Z"/><path class="cls-1" d="M39.23,105.77a.22.22,0,0,1,.24-.23h1.78a.32.32,0,0,1,.35.23l3.6,12.09h.1V105.77a.22.22,0,0,1,.24-.23h1.25a.22.22,0,0,1,.24.23v15.64a.23.23,0,0,1-.24.24H45.11a.33.33,0,0,1-.36-.24l-3.67-12.08H41v12.08a.22.22,0,0,1-.23.24H39.47a.23.23,0,0,1-.24-.24Z"/><path class="cls-1" d="M56.22,121.65a.23.23,0,0,1-.24-.24v-14c0-.1,0-.15-.14-.15H53.19a.22.22,0,0,1-.24-.23v-1.31a.22.22,0,0,1,.24-.23H60.7a.22.22,0,0,1,.24.23v1.31a.22.22,0,0,1-.24.23H58c-.09,0-.14,0-.14.15v14a.22.22,0,0,1-.23.24Z"/><path class="cls-1" d="M62.54,105.77a.22.22,0,0,1,.24-.23h1.45a.22.22,0,0,1,.23.23v6.59c0,.1.05.14.15.14h3.46a.12.12,0,0,0,.14-.14v-6.59a.22.22,0,0,1,.23-.23h1.45a.22.22,0,0,1,.24.23v15.64a.23.23,0,0,1-.24.24H68.44a.22.22,0,0,1-.23-.24v-7a.13.13,0,0,0-.14-.14H64.61c-.1,0-.15,0-.15.14v7a.22.22,0,0,1-.23.24H62.78a.23.23,0,0,1-.24-.24Z"/><path class="cls-1" d="M75.08,121.65a.23.23,0,0,1-.24-.24V115l-3.1-9.22c0-.14,0-.23.16-.23h1.5c.16,0,.23.07.28.23l2.11,6.76h.07L78,105.77c0-.16.12-.23.26-.23H79.7c.16,0,.21.09.16.23L76.76,115v6.42a.23.23,0,0,1-.24.24Z"/><path class="cls-1" d="M81.47,105.77a.22.22,0,0,1,.24-.23h1.47a.29.29,0,0,1,.33.23l2.94,9.86h.09l2.87-9.86a.33.33,0,0,1,.36-.23h1.44a.22.22,0,0,1,.24.23v15.64a.23.23,0,0,1-.24.24H89.93a.22.22,0,0,1-.23-.24V110.25h-.12l-2.44,8.3a.3.3,0,0,1-.29.23h-.78a.27.27,0,0,1-.28-.23l-2.44-8.3h-.12v11.16a.23.23,0,0,1-.24.24H81.71a.23.23,0,0,1-.24-.24Z"/><path class="cls-1" d="M94.1,105.77a.22.22,0,0,1,.24-.23h6.09a.22.22,0,0,1,.24.23v1.31a.22.22,0,0,1-.24.23H96.16c-.09,0-.14,0-.14.15v5a.13.13,0,0,0,.14.14h3.7a.23.23,0,0,1,.24.24v1.3a.23.23,0,0,1-.24.24h-3.7a.13.13,0,0,0-.14.14v5.19a.12.12,0,0,0,.14.14h4.27a.23.23,0,0,1,.24.24v1.3a.23.23,0,0,1-.24.24H94.34a.23.23,0,0,1-.24-.24Z"/><path d="M93.33,29.76a8.57,8.57,0,0,1,2.19-2.34c.79-.7,1.92-1,2.51-2.14s-.16-2.27-.69-3.17a15.08,15.08,0,0,0-1.93-2.65,1.74,1.74,0,0,0-1.54-.68,1.12,1.12,0,0,0-.76.54,3,3,0,0,0-.29.82,9.21,9.21,0,0,0,0,3.31A21.14,21.14,0,0,1,93,29.9h0a16.64,16.64,0,0,0,.23-6.52,10.23,10.23,0,0,1,0-3.17c.11-.52.27-1,.74-1.13a1.46,1.46,0,0,1,1.32.53,11.72,11.72,0,0,1,2,2.56c.53.9,1,2.05.51,2.95s-1.6,1.31-2.41,2.05a7.32,7.32,0,0,0-2,2.56Z"/><path d="M94.44,21.34c-.07.9-.18,1.76-.3,2.64a9.78,9.78,0,0,1-.54,2.61,11.36,11.36,0,0,0-.86,5.28h0c.24-1.77.71-3.45,1-5.22A23.74,23.74,0,0,1,94.47,24a6.3,6.3,0,0,0,0-2.7Z"/><path d="M85.47,37.69a14.23,14.23,0,0,0,2.1-5.27,7.75,7.75,0,0,0-.19-2.84,6.36,6.36,0,0,0-.53-1.33,1.27,1.27,0,0,0-.55-.5.66.66,0,0,0-.75.18A2.36,2.36,0,0,0,85,29.3,13.83,13.83,0,0,0,85,30.73a24.33,24.33,0,0,0,.19,2.84,27,27,0,0,1,.3,5.6h0a17.28,17.28,0,0,0,.08-5.65c-.09-.94-.19-1.87-.23-2.8s-.15-1.94.38-2.65c.27-.37.79-.15,1,.25a4.09,4.09,0,0,1,.51,1.28,6.8,6.8,0,0,1,0,2.77,25.81,25.81,0,0,1-1.8,5.29Z"/><path d="M84.92,29.2a2.83,2.83,0,0,0-1.55-1.26,1.46,1.46,0,0,0-1.06.14,1.18,1.18,0,0,0-.59.92A9.14,9.14,0,0,0,83,32.75a15.27,15.27,0,0,1,1.27,3.64,24.67,24.67,0,0,1,.55,3.84h0a11.55,11.55,0,0,0-.18-3.93,10.6,10.6,0,0,0-1.48-3.65,5.62,5.62,0,0,1-1.11-3.6,1,1,0,0,1,1.27-.81,3.43,3.43,0,0,1,1.57,1Z"/><path d="M86.4,39.62a9.58,9.58,0,0,0,6.38-2.55,5.41,5.41,0,0,0,1.69-3,3.54,3.54,0,0,0-1-3.28,1.14,1.14,0,0,0-.9-.25,1.5,1.5,0,0,0-.81.49A4.81,4.81,0,0,0,91,32.55c-.41,1.1-.73,2.21-1.19,3.24a6.9,6.9,0,0,1-2,2.67,18.59,18.59,0,0,1-3,1.75v0a13.2,13.2,0,0,0,3.12-1.56A6.37,6.37,0,0,0,90.15,36a34,34,0,0,0,1.18-3.29,4.85,4.85,0,0,1,.72-1.5.92.92,0,0,1,1.34-.26A3.21,3.21,0,0,1,94.33,34a4.9,4.9,0,0,1-1.77,2.82,11.61,11.61,0,0,1-6.16,2.76Z"/><path d="M85,40.17c2.55-.21,4.69,1.37,6.72,2.73A15.57,15.57,0,0,0,95,44.65,6.16,6.16,0,0,0,96.9,45a.79.79,0,0,0,.75-.61,2.64,2.64,0,0,0,0-1,5.33,5.33,0,0,0-5.34-4.64,27.06,27.06,0,0,0-3.73.57c-1.22.23-2.45.46-3.67.73v0c2.47-.25,5-.73,7.4-.92a5.21,5.21,0,0,1,5.12,4.26c.12.56.13,1.35-.56,1.38a4.68,4.68,0,0,1-1.79-.35,13.9,13.9,0,0,1-3.19-1.89,18.45,18.45,0,0,0-3.22-2,6.09,6.09,0,0,0-3.7-.54Z"/><path d="M94.54,29.88l-1.26.17s-.09,0,0,0,.12.13.06.16,0,0,0,0h0l.16,0,.31-.06.62-.13c.83-.18,1.67-.36,2.49-.58s1.63-.48,2.46-.69a8.81,8.81,0,0,0,2.44-.83,1.4,1.4,0,0,0,.71-1.17.74.74,0,0,0-.57-.54,2.69,2.69,0,0,0-.68-.06,5.67,5.67,0,0,0-2.53.66c-1.58.77-2.81,2-4.29,2.81l0,0c1.6-.62,3-1.75,4.45-2.46a6.18,6.18,0,0,1,2.36-.66c.39,0,.86,0,.93.28s-.23.7-.53.94a6.21,6.21,0,0,1-2.34.86c-.83.2-1.68.33-2.51.5s-1.65.39-2.48.6l-.62.18-.3.09-.16,0,0,0h0l0,0c-.06,0,0,.2.07.16h.12c.42-.1.83-.23,1.24-.34Z"/><path d="M94.36,31.85a31.75,31.75,0,0,1,5.2-1l2.64-.35a3.32,3.32,0,0,0,1.29-.42,1,1,0,0,0,.49-1.23,1.36,1.36,0,0,0-1.21-.69,4.83,4.83,0,0,0-1.37,0,15,15,0,0,0-2.59.71,9.5,9.5,0,0,0-4.47,2.89l0,0a11.87,11.87,0,0,1,4.57-2.52,21.33,21.33,0,0,1,2.53-.73,6.09,6.09,0,0,1,1.28-.1,1.16,1.16,0,0,1,1,.48.76.76,0,0,1-.38,1,2.63,2.63,0,0,1-1.23.4c-.87.1-1.77.09-2.65.15a14.94,14.94,0,0,0-5.18,1.28Z"/><path d="M102.62,26.81c2.68-.27,4.89,1.6,7.61,1.83a4.24,4.24,0,0,0,3.64-1.38,1.51,1.51,0,0,0,.14-1.89,7.53,7.53,0,0,0-1.4-1.42A8.54,8.54,0,0,0,105.1,22,7.52,7.52,0,0,0,101.62,24a7.23,7.23,0,0,0-1.22,1.59c-.33.54-.65,1.18-1.31,1.33v0c.69-.1,1.12-.74,1.47-1.27a7.11,7.11,0,0,1,1.25-1.48,8,8,0,0,1,3.38-1.74,8.71,8.71,0,0,1,7.27,1.7,7.42,7.42,0,0,1,1.4,1.34,1.28,1.28,0,0,1-.11,1.71,3.9,3.9,0,0,1-3.5,1.14,17.62,17.62,0,0,1-3.74-1.07,7.48,7.48,0,0,0-3.91-.47Z"/><path d="M110.86,25.13a10.47,10.47,0,0,0-3.12-.7c-1.08,0-2.13,0-3.2.06a8.44,8.44,0,0,0-5.82,2.45l0,0a15.32,15.32,0,0,1,5.81-2.26,8.56,8.56,0,0,1,3.15.05l3.14.41Z"/><path d="M112.24,23.18a4,4,0,0,1,1-.11,1.09,1.09,0,0,0,.92-.61.61.61,0,0,0-.11-.6,2.2,2.2,0,0,0-.33-.43,5.06,5.06,0,0,0-.77-.69,9,9,0,0,0-3.78-1.45,6.06,6.06,0,0,0-4,.86,5.93,5.93,0,0,0-2.56,3.13h0a7.37,7.37,0,0,1,6.48-3.78,5.62,5.62,0,0,1,3.6,1.49c.25.21.48.44.72.67s.48.47.39.69a.88.88,0,0,1-.65.5,3.13,3.13,0,0,0-1,.28Z"/><path d="M106,18.52a8.27,8.27,0,0,0,.92-6.94A3.1,3.1,0,0,0,106,10a2.83,2.83,0,0,0-1.81-.11,4.23,4.23,0,0,0-3,1.86,6,6,0,0,0-.88,3.48,17.35,17.35,0,0,0,.6,3.54,11.76,11.76,0,0,1,.51,3.44,5.3,5.3,0,0,1-1.62,3l0,0a5,5,0,0,0,1.88-3,10.22,10.22,0,0,0-.39-3.58,21,21,0,0,1-.63-3.46,6.07,6.07,0,0,1,.68-3.35A3.85,3.85,0,0,1,104.16,10a2.44,2.44,0,0,1,1.66.16,3,3,0,0,1,.74,1.49,9.55,9.55,0,0,1-.63,6.82Z"/><path d="M103.54,13.3a12.52,12.52,0,0,0-.84,3.81,15.52,15.52,0,0,1-.5,3.85,12.25,12.25,0,0,1-1.57,3.47c-.71,1-1.68,1.92-2.5,2.94l0,0A14.86,14.86,0,0,0,101,24.67,9.06,9.06,0,0,0,102.42,21c.2-1.29.38-2.58.61-3.86s.3-2.56.55-3.84Z"/><path d="M98.23,23.07a14.09,14.09,0,0,0,.2-4.93c-.1-.82-.28-1.63-.39-2.44-.08-.4-.11-.81-.21-1.22a1.25,1.25,0,0,0-.77-1,.49.49,0,0,0-.6.39,1.39,1.39,0,0,0,0,.67l.25,1.21c.18.81.36,1.6.48,2.4L97.86,23h0a31.32,31.32,0,0,0-.31-4.93,19.51,19.51,0,0,0-.53-2.41l-.31-1.18c-.11-.36-.06-.85.26-.8a1.12,1.12,0,0,1,.69.83,8,8,0,0,1,.2,1.21c.1.81.15,1.63.2,2.45a33.25,33.25,0,0,1,.09,4.89Z"/><path d="M97.66,14.77l1.28,1.89a5.92,5.92,0,0,1,1.11,2c.46,1.46.81,2.9,1.14,4.41h0a7.92,7.92,0,0,0-1-4.5c-.39-.67-.68-1.38-1-2.08a5.79,5.79,0,0,0-1.53-1.74Z"/><path d="M99.92,25a9.07,9.07,0,0,0-2.31,1.15c-.68.53-1.33,1.09-2,1.58a12.7,12.7,0,0,0-1.92,1.75,4.24,4.24,0,0,0-.91,2.44h0A7.59,7.59,0,0,1,94,29.69l1.74-1.84a7.41,7.41,0,0,1,2.08-1.47c.73-.43,1.45-.88,2.15-1.39Z"/><path d="M90.84,33.58c-3.34,3.8-7.09,7.2-10.75,10.68s-7.35,7-10.73,10.74a91.66,91.66,0,0,0-9.23,12.06A88.66,88.66,0,0,0,53,80.48h0a123,123,0,0,1,7.4-13.22,111,111,0,0,1,9-12.12A114.19,114.19,0,0,1,80.3,44.49q2.82-2.54,5.49-5.24a67.87,67.87,0,0,0,5.08-5.64Z"/><path d="M85.81,40.08c-1.61,1.39-3.15,2.85-4.68,4.32s-3.06,3-4.52,4.49S73.69,52,72.25,53.54s-2.9,3.1-4.2,4.79l-3.83,5.08c-1.31,1.68-2.63,3.34-3.84,5.1a89.47,89.47,0,0,0-6.39,11h0c2.1-3.69,4.29-7.32,6.69-10.81,1.19-1.75,2.5-3.41,3.8-5.09s2.46-3.47,3.71-5.18a96.34,96.34,0,0,1,8.61-9.35l9-9Z"/><path d="M63.7,62A9.93,9.93,0,0,0,65,57.56a8.62,8.62,0,0,0-.22-2.32,5.51,5.51,0,0,0-.38-1.1,1.6,1.6,0,0,0-.81-.87.65.65,0,0,0-.66.16,1.19,1.19,0,0,0-.29.57,5.37,5.37,0,0,0-.1,1.19,10.94,10.94,0,0,0,.38,2.3A12.56,12.56,0,0,1,63.66,62h0a9,9,0,0,0-.35-4.58,14.38,14.38,0,0,1-.4-2.22,6.71,6.71,0,0,1,0-1.1c0-.35.26-.67.59-.59.65.23,1,1.1,1.11,1.79a6.86,6.86,0,0,1,0,2.26,18.86,18.86,0,0,1-1,4.43Z"/><path d="M73.72,49.9a8.45,8.45,0,0,0,1.36-4.85,7.77,7.77,0,0,0-.48-2.52,2.65,2.65,0,0,0-.67-1.12,1.22,1.22,0,0,0-1.26-.26,2.23,2.23,0,0,0-1.35,2.05,11.35,11.35,0,0,0,.17,2.54,24.53,24.53,0,0,0,1.45,4.86l.13.36.23-.3A3.65,3.65,0,0,0,74,48.84a9,9,0,0,0,0-1.88c-.14-1.23-.27-2.46-.44-3.68h0c0,1.23.1,2.46.17,3.68a8.49,8.49,0,0,1,0,1.82A3.12,3.12,0,0,1,73,50.4l.36.05a36.77,36.77,0,0,1-1.56-4.76,9.85,9.85,0,0,1-.27-2.47,1.93,1.93,0,0,1,1.22-1.93,1,1,0,0,1,1.07.27,2.63,2.63,0,0,1,.53,1.07,9.82,9.82,0,0,1-.63,7.25Z"/><path d="M72.7,53.2a21.27,21.27,0,0,1,5.64-.55c1,0,1.91-.1,2.86-.23a2,2,0,0,0,1.29-.65,1.53,1.53,0,0,0,.18-1.45,2.54,2.54,0,0,0-2.48-1.42,8.3,8.3,0,0,0-2.77.92,22.13,22.13,0,0,0-2.52,1.4l-.59.41-.29.22-.14.12-.07.07a.16.16,0,0,0,0,.06s-.07.07,0,.17h.08a3.4,3.4,0,0,0,.66-.34l.31-.19s.09,0,0-.11l-.08,0-.15.09,0,0,.16-.08.08,0c-.07-.13-.06,0-.1,0l-.33.14a4.45,4.45,0,0,1-.63.26s0,0,0,0,0,.12.06.12h0l.06,0,.14-.1.3-.19.61-.36c.82-.46,1.67-.89,2.52-1.29a9.54,9.54,0,0,1,2.62-.92,2.3,2.3,0,0,1,2.26,1.13,1.28,1.28,0,0,1-.09,1.27,1.72,1.72,0,0,1-1.2.6,22.55,22.55,0,0,1-2.85,0,13.07,13.07,0,0,0-5.64.85Z"/><path d="M78.81,50.83a4.38,4.38,0,0,0-1.65.19,7.56,7.56,0,0,1-1.58.54,5.09,5.09,0,0,0-2.9,1.6l0,0c1-.48,2-.93,2.94-1.44a4,4,0,0,1,1.59-.41,8.2,8.2,0,0,0,1.58-.48Z"/><path d="M63.94,54.41A3.52,3.52,0,0,0,63.73,56a6.47,6.47,0,0,1,.18,1.63,21.81,21.81,0,0,0,.2,3.23h0a5.89,5.89,0,0,0,0-3.25A4.41,4.41,0,0,1,64.06,56,12.49,12.49,0,0,0,64,54.42Z"/><path d="M92.79,32.79c-.43.86-.81,1.72-1.21,2.57A5.56,5.56,0,0,1,90,37.66a19.7,19.7,0,0,1-5,2.58v0a8.42,8.42,0,0,0,5.12-2.46,21.63,21.63,0,0,0,1.72-2.31,9,9,0,0,0,1-2.7Z"/><path d="M93.57,41.2A7.53,7.53,0,0,0,90.7,40c-1-.14-2.07-.16-3.11-.21a6.9,6.9,0,0,0-3.09.54,6.41,6.41,0,0,0-2.34,2.07l0,0a11.09,11.09,0,0,1,2.49-1.72A10.48,10.48,0,0,1,87.6,40a7.25,7.25,0,0,1,3,.32c1,.25,2,.54,2.92.89Z"/><path d="M83.08,30.07a2.09,2.09,0,0,0,.41,1.29,3.94,3.94,0,0,1,.79,1.09c.38.8.71,1.55,1.16,2.34h0a3.49,3.49,0,0,0-1-2.46,3,3,0,0,1-.68-1.13c-.2-.39-.42-.74-.66-1.13Z"/><path d="M106,16.94a5.76,5.76,0,0,0,0-3.11,5,5,0,0,0-.66-1.42,1.57,1.57,0,0,0-1.42-.65,3.1,3.1,0,0,0-2.42,2A7,7,0,0,0,101,16.8h0a12.87,12.87,0,0,1,.81-2.92A3.26,3.26,0,0,1,104,12a1.17,1.17,0,0,1,1.27.51,3.64,3.64,0,0,1,.45,1.42,13.81,13.81,0,0,1,.28,3Z"/><path d="M107.21,22.65c.94.48,1.89.88,2.81,1.32a7.82,7.82,0,0,1,1.37.73,1.28,1.28,0,0,1,.68,1.21,1.72,1.72,0,0,1-.85,1.1,4,4,0,0,1-1.41.38,15.12,15.12,0,0,1-3.08,0v0a7.47,7.47,0,0,0,3.12.4,3.61,3.61,0,0,0,1.57-.47,1.91,1.91,0,0,0,.87-1.4,1.7,1.7,0,0,0-.82-1.35,13.1,13.1,0,0,0-1.29-.92,11.07,11.07,0,0,0-3-1.06Z"/><path d="M106.34,20.08a7.26,7.26,0,0,0,1.9.19,3.46,3.46,0,0,1,1.89.13,2.36,2.36,0,0,1,1.35,1c0,.14,0,.11,0,.17a3.89,3.89,0,0,1-.41.18,7.58,7.58,0,0,0-.86.42v0a8.17,8.17,0,0,0,1-.16,4.19,4.19,0,0,0,.49-.14.41.41,0,0,0,.25-.3.66.66,0,0,0,0-.35,2,2,0,0,0-1.69-1.08l-1.92-.26a7.75,7.75,0,0,0-1.92.11Z"/><path d="M97.31,25.39a2.49,2.49,0,0,0,.06-2,8.56,8.56,0,0,0-1.17-1.68,2.76,2.76,0,0,0-1.83-1A1.48,1.48,0,0,0,93,22.19h0c.28-.6.76-1.1,1.31-1.08a3.7,3.7,0,0,1,1.69.73,2.54,2.54,0,0,1,1,1.63,5.22,5.22,0,0,1,.22,1.9Z"/><path d="M93.89,34.91A2,2,0,0,0,94,33.35,4.77,4.77,0,0,0,93.13,32a.92.92,0,0,0-.85-.21,1.69,1.69,0,0,0-.72.46,2.35,2.35,0,0,0-.66,1.44h0a5.88,5.88,0,0,1,.92-1.15c.34-.32.72-.6,1.15-.37a1.48,1.48,0,0,1,.69,1.23,8.71,8.71,0,0,1,.15,1.47Z"/><path d="M93.84,39.67a16.69,16.69,0,0,1,1.31,1,1.45,1.45,0,0,1,.54,1.47,1.34,1.34,0,0,1-1.15.85,3.24,3.24,0,0,1-1.62-.14l0,0a2.07,2.07,0,0,0,1.71.51,1.39,1.39,0,0,0,1.31-1.23,3.32,3.32,0,0,0-.51-1.72,2.7,2.7,0,0,0-1.54-.87Z"/><path d="M100.61,28.9a1.25,1.25,0,0,0,.69.13.63.63,0,0,1,.65.07c.19.15.25.29.24.36s-.15.27-.25.52l0,0c.23,0,.57-.11.64-.49s-.36-.62-.57-.63a2.08,2.08,0,0,1-.72-.19.9.9,0,0,0-.7.16Z"/><path d="M99.2,27.24a.6.6,0,0,0,.52.13c.14-.09.36-.11.4.06s0,.08-.11.23a.9.9,0,0,0-.22.48l0,0a.9.9,0,0,0,.52-.24.51.51,0,0,0,.15-.32c0-.17-.13-.29-.21-.35a4.5,4.5,0,0,1-.55-.22.65.65,0,0,0-.52.16Z"/><path d="M87.15,30.94a1.21,1.21,0,0,0,.11-1.11,1.83,1.83,0,0,0-.87-.76.92.92,0,0,0-1.07.49,1.34,1.34,0,0,0-.13,1.13h0a4.53,4.53,0,0,1,.44-.91c.18-.23.38-.5.68-.49s.59.33.59.64.1.63.17,1Z"/><path d="M84.83,29.58a1,1,0,0,0-.7-.7,1.92,1.92,0,0,0-1,.22,1.09,1.09,0,0,0-.59.85,1.17,1.17,0,0,0,.31,1l0,0a2.5,2.5,0,0,1,.38-1.61.52.52,0,0,1,.76-.09,8.07,8.07,0,0,0,.79.41Z"/><path d="M74.43,43.52A1.53,1.53,0,0,0,74,42.33a1.94,1.94,0,0,0-1.22-.46,1.11,1.11,0,0,0-.89,1,2.45,2.45,0,0,0,.26,1.26h0c.1-.42,0-.83.11-1.18a1.19,1.19,0,0,1,.53-.85c.36-.18.75.13.92.47s.43.61.66,1Z"/><path d="M79,49.82a6.54,6.54,0,0,0,1.33.21.92.92,0,0,1,1,.72,1,1,0,0,1-.43,1c-.33.26-.76.37-1.15.67v0a2.82,2.82,0,0,0,1.39-.38,1.08,1.08,0,0,0,.39-1.41,2.32,2.32,0,0,0-1.07-1,2.85,2.85,0,0,0-1.42.08Z"/><path d="M58.92,20a12.53,12.53,0,0,0-3.43-5.17,6.91,6.91,0,0,1-1.83-2.44,2.72,2.72,0,0,1-.16-.74.42.42,0,0,1,.44-.41,5.74,5.74,0,0,1,1.5.28,30.63,30.63,0,0,1,2.94,1c.95.38,2,.69,2.06,1.75a10.85,10.85,0,0,1-1.32,5.9l0,0a9.56,9.56,0,0,0,1.69-6A1.8,1.8,0,0,0,60,12.79a9.22,9.22,0,0,0-1.47-.62,24.55,24.55,0,0,0-3-.83,5.73,5.73,0,0,0-1.57-.22.58.58,0,0,0-.55.57,3.27,3.27,0,0,0,.16.78,7.81,7.81,0,0,0,1.71,2.63,18.34,18.34,0,0,1,3.65,5Z"/><path d="M56,12.83a8.33,8.33,0,0,0,1.24,1.67,4.27,4.27,0,0,1,1.19,1.66,11.51,11.51,0,0,1,.43,4h0a6.34,6.34,0,0,0,.34-2.08,3.92,3.92,0,0,0-.61-2l-1.13-1.77a8.89,8.89,0,0,0-1.46-1.48Z"/><path d="M59.05,20.17c1.2-1.77,2.32-3.58,3.38-5.43a3,3,0,0,1,1-1.16A5.32,5.32,0,0,1,64.88,13a7.57,7.57,0,0,1,1.56-.25A2,2,0,0,1,67.9,13a.61.61,0,0,1,.21.6,1,1,0,0,1-.48.48,6.22,6.22,0,0,0-1.31,1,13.72,13.72,0,0,0-1.91,2.59c-1.22,1.72-3.46,2.24-5.5,2.72v0a14.23,14.23,0,0,0,3.15-.65,5.35,5.35,0,0,0,2.68-1.86,16.49,16.49,0,0,1,1.84-2.57,7.69,7.69,0,0,1,1.21-1,1.26,1.26,0,0,0,.57-.68.86.86,0,0,0-.32-.83,2.22,2.22,0,0,0-1.62-.23c-.53.06-1.06.16-1.59.27a6.79,6.79,0,0,0-1.54.51,3.1,3.1,0,0,0-1.16,1.17C61,16.39,60,18.24,59,20.15Z"/><path d="M58.88,22.4A11.48,11.48,0,0,1,59.05,21a2.54,2.54,0,0,0,0-1.4h.1c-.87,4.88-1.45,10-2.47,14.89A99.49,99.49,0,0,1,52.51,49a130.42,130.42,0,0,1-5.95,13.93c-1.11,2.26-2.35,4.46-3.4,6.75A33.3,33.3,0,0,0,41,76.9l-.17,0a10.91,10.91,0,0,1,.35-1.68c.24-.56.61-1,.88-1.49.58-1,1.09-2,1.59-3,1-2,2-4.12,2.88-6.21,1.84-4.18,3.52-8.42,5-12.74s2.88-8.65,4.06-13.07,2.21-8.86,3.1-13.34Zm-.14,2.91Q57.49,32,55.81,38.7c-1.15,4.42-2.4,8.82-4,13.13s-3.26,8.54-5.15,12.7c-.93,2.09-1.93,4.15-3,6.19-.5,1-1,2.06-1.57,3-.27.51-.65,1-.86,1.47A11.08,11.08,0,0,0,41,76.89l-.17,0a33.62,33.62,0,0,1,2.11-7.27c1-2.31,2.24-4.52,3.33-6.8a144.14,144.14,0,0,0,5.88-13.91,114.28,114.28,0,0,0,4.14-14.51C57.39,29.45,58,24.45,59,19.49l0-.15.07.15a2.64,2.64,0,0,1,0,1.47A11.83,11.83,0,0,0,59,22.4l-.22,2.91"/><path d="M64.29,13.12a4.72,4.72,0,0,0,1-2.49,1.29,1.29,0,0,0-.57-1.25,2.34,2.34,0,0,0-1.36-.09,4.84,4.84,0,0,0-2.45,1.15,3.86,3.86,0,0,0-1.32,2.34h0a6.26,6.26,0,0,1,3.79-3.28,1.51,1.51,0,0,1,1.23,0c.39.22.36.7.3,1.1a12.64,12.64,0,0,1-.69,2.5Z"/><path d="M58.09,23.9a4.53,4.53,0,0,0-2.46-2.31,33.62,33.62,0,0,0-3.08-1.49A28,28,0,0,0,49.3,19c-1-.31-2.34-.45-2.93-1.41l0,.14a6.2,6.2,0,0,1,3.64.14,36.16,36.16,0,0,1,3.54,1.24,9.74,9.74,0,0,1,3.12,2,7.89,7.89,0,0,1,1.58,3.34h0a7.09,7.09,0,0,0-1.39-3.53,8.49,8.49,0,0,0-3.18-2.13,27.37,27.37,0,0,0-3.61-1.22,6.59,6.59,0,0,0-3.81,0l-.12,0,.07.1c.72,1.05,2,1.08,3.06,1.46a32.78,32.78,0,0,1,3.16,1.23c1,.45,2,.95,3.07,1.45a4.76,4.76,0,0,1,2.56,2.05Z"/><path d="M58.52,26c.57-1.21,1.2-2.38,1.86-3.51A5.16,5.16,0,0,1,61.64,21a3.1,3.1,0,0,1,.85-.48.78.78,0,0,1,.85,0c.36.46.08,1.19-.29,1.64a8.1,8.1,0,0,1-1.41,1.33A25.24,25.24,0,0,0,58.49,26l0,0c1.08-.79,2.29-1.34,3.38-2.15a6.87,6.87,0,0,0,1.46-1.44,1.63,1.63,0,0,0,.13-2,1,1,0,0,0-1.05,0,5.11,5.11,0,0,0-.88.5,6.15,6.15,0,0,0-1.46,1.42A11.63,11.63,0,0,0,58.49,26Z"/><path d="M57,31.05a5.78,5.78,0,0,0-.3-2.1c-.28-.66-.59-1.28-.84-1.95a4.61,4.61,0,0,0-3.05-2.82l0,0a10.29,10.29,0,0,1,2.87,2.9,4.31,4.31,0,0,1,.72,1.94,18.75,18.75,0,0,0,.57,2Z"/><path d="M57.33,31a6.93,6.93,0,0,0-4-4.89,12.13,12.13,0,0,1-2.76-1.64,1.94,1.94,0,0,1-.79-1.3,1.13,1.13,0,0,1,1-1,7.26,7.26,0,0,1,3.11.3,3,3,0,0,1,2,2.16A21.92,21.92,0,0,1,57,31h0a16.93,16.93,0,0,0-.81-6.43,3.81,3.81,0,0,0-.79-1.5,3.41,3.41,0,0,0-1.45-.9A6.92,6.92,0,0,0,50.69,22a1.31,1.31,0,0,0-1.11,1.17,2.34,2.34,0,0,0,.86,1.4,13.88,13.88,0,0,0,2.69,1.83A7.94,7.94,0,0,1,57.29,31Z"/><path d="M57.32,32.51a3.58,3.58,0,0,0,1.54-2c.24-.86.15-1.72.64-2.36a3.53,3.53,0,0,1,2-1.35,7.39,7.39,0,0,1,1.22-.27,1.4,1.4,0,0,1,1.13.22,1,1,0,0,1,.16,1,2.73,2.73,0,0,1-.64,1A6.39,6.39,0,0,1,61.27,30,6.66,6.66,0,0,0,59,31.26c-.65.56-1.23,1.17-1.86,1.72l0,0c1.44-.93,2.58-2.17,4.23-2.62A5.86,5.86,0,0,0,63.63,29a2.82,2.82,0,0,0,.66-1.15,1.2,1.2,0,0,0-.32-1.3,1.68,1.68,0,0,0-1.29-.19c-.42.08-.83.17-1.24.27A4,4,0,0,0,59.23,28c-.61.73-.48,1.72-.67,2.46a4,4,0,0,1-1.27,2.07Z"/><path d="M61,28a5,5,0,0,0-1.07,1.23A5,5,0,0,1,59,30.53a9.43,9.43,0,0,0-1.84,2.7l0,0a9.16,9.16,0,0,0,2-2.58,5.25,5.25,0,0,1,1-1.29A5.12,5.12,0,0,0,61,28Z"/><path d="M53.68,42.93a9.16,9.16,0,0,0-2.09-3.69,6.94,6.94,0,0,1-1.11-1.77,2.24,2.24,0,0,1-.2-1c0-.34.45-.39.76-.32a2.15,2.15,0,0,1,1.54,1.13,5.52,5.52,0,0,1,.46,2A15.22,15.22,0,0,0,54,43.41h0a37.62,37.62,0,0,1-.57-4.19,4.63,4.63,0,0,0-.54-2.12,2.34,2.34,0,0,0-1.84-1.16c-.34-.06-.88.06-.93.52a2.86,2.86,0,0,0,.21,1.06,8.44,8.44,0,0,0,1,1.92,18.55,18.55,0,0,1,2.32,3.51Z"/><path d="M54,44a2,2,0,0,0-2.15-1.13,14,14,0,0,0-2.48.54,5.27,5.27,0,0,1-2.4.08,1.94,1.94,0,0,1-1.62-1.57.9.9,0,0,1,.53-1,2.7,2.7,0,0,1,1.2-.17,14.56,14.56,0,0,1,2.48.2,6.16,6.16,0,0,1,4.14,2.3l.27-.29a6.38,6.38,0,0,0-6.14-.13l0,0a6.67,6.67,0,0,1,5.91.44l.81.5L54,43a6,6,0,0,0-4.43-2.39,16.5,16.5,0,0,0-2.53-.08,2.91,2.91,0,0,0-1.26.23,1.14,1.14,0,0,0-.61,1.11,2.27,2.27,0,0,0,1.68,1.82,4.77,4.77,0,0,0,2.57,0,18.11,18.11,0,0,1,2.41-.61,2,2,0,0,1,2.09.87Z"/><path d="M55.19,43.31a17.15,17.15,0,0,1,2.34-6.06,3,3,0,0,1,1.11-1.06,4.81,4.81,0,0,1,1.54-.34l3.27-.33-.08-.09A32.39,32.39,0,0,1,63,39a3,3,0,0,1-.77,1.54,3.52,3.52,0,0,1-1.5.86,17.48,17.48,0,0,0-3.46,1.08c-1.09.59-2,1.42-3,1.86l.26.3a24.11,24.11,0,0,1,2.83-4A23.37,23.37,0,0,1,61,37.25l0,0a19,19,0,0,0-3.86,3.18,19.15,19.15,0,0,0-3,4.05l-.28.52.55-.22a28.22,28.22,0,0,0,3.08-1.92,22.24,22.24,0,0,1,3.37-1.16,3.77,3.77,0,0,0,1.56-1A3.36,3.36,0,0,0,63.2,39c.18-1.2.19-2.4.32-3.6v-.08h-.09l-3.29.17a4.6,4.6,0,0,0-1.66.34,3.05,3.05,0,0,0-1.25,1.19,14.46,14.46,0,0,0-2.09,6.24Z"/><path d="M54.92,44.62a25.74,25.74,0,0,1,3.24-1.45,4.39,4.39,0,0,1,1.72-.29,1.26,1.26,0,0,1,.81.25.45.45,0,0,1,.12.66c-.35.39-1,.4-1.58.51s-1.17.1-1.77.14c-1.19.05-2.38.14-3.58.3v0c1.21.09,2.4.11,3.6.08a10.11,10.11,0,0,0,1.81-.19,2.74,2.74,0,0,0,1.7-.75.67.67,0,0,0-.21-.91,1.78,1.78,0,0,0-.89-.27,5.33,5.33,0,0,0-1.82.11,8.67,8.67,0,0,0-3.17,1.73Z"/><path d="M49.2,57.06a7.79,7.79,0,0,0-1.46-4.24,20.23,20.23,0,0,0-1.52-1.67c-.27-.26-.51-.54-.76-.82s-.23-.3-.13-.39a.67.67,0,0,1,.45-.13,3.9,3.9,0,0,1,2,.58,2.74,2.74,0,0,1,1.32,1.55c.42,1.35-.25,2.87,0,4.38h0c0-1.47.85-2.9.41-4.5A2.88,2.88,0,0,0,48,50.06a4,4,0,0,0-2.26-.47.85.85,0,0,0-.57.24c-.16.25.06.48.16.59.26.27.52.54.76.83A12.72,12.72,0,0,1,47.47,53a12.35,12.35,0,0,1,1.69,4.06Z"/><path d="M44,67.82a3,3,0,0,0-.07-2.07,4.16,4.16,0,0,0-1.33-1.63C42,63.7,41.42,63.38,40.9,63a2.15,2.15,0,0,1-.66-.72.51.51,0,0,1,.26-.73,2.21,2.21,0,0,1,1.82.28,2.75,2.75,0,0,1,1.1,1.51,13.72,13.72,0,0,1,.84,3.93h0a8.9,8.9,0,0,0-.49-4.08,2.89,2.89,0,0,0-1.29-1.69,2.48,2.48,0,0,0-2.11-.16.72.72,0,0,0-.3,1,3.23,3.23,0,0,0,.7.77l1.56,1.32a4.84,4.84,0,0,1,1.25,1.5,3.42,3.42,0,0,1,.32,1.93Z"/><path d="M45.49,67.12c1-1.14,2.41-1.71,3.6-2.69a4.09,4.09,0,0,1,1.94-1,2.72,2.72,0,0,1,1.1,0c.36.06.73.24.76.57,0,.69-.71,1.16-1.34,1.41a13.35,13.35,0,0,1-2.18.48,19.12,19.12,0,0,0-2.2.55,4.22,4.22,0,0,0-2,1.14l0,0a4.83,4.83,0,0,1,2-.86c.72-.17,1.47-.32,2.21-.45a9.54,9.54,0,0,0,2.23-.54,2.81,2.81,0,0,0,1-.67A1.3,1.3,0,0,0,53.11,64c-.1-.48-.6-.61-1-.67a3.7,3.7,0,0,0-1.15,0,4.69,4.69,0,0,0-2.13.87c-1.16.88-2.63,1.58-3.43,2.92Z"/><path d="M50.21,65a3.43,3.43,0,0,0-1.32.28,4.38,4.38,0,0,1-1.24.53,3.68,3.68,0,0,0-2.21,1.51l0,0A23.06,23.06,0,0,0,47.74,66,2.66,2.66,0,0,1,49,65.55,4,4,0,0,0,50.22,65Z"/><path d="M50.32,56.77c.64-1.35,2-2.1,3.09-3.07a5.05,5.05,0,0,1,1.85-1.13,3.3,3.3,0,0,1,1.08-.17.86.86,0,0,1,.86.43,1.42,1.42,0,0,1-.64,1.72,5.38,5.38,0,0,1-2,.59c-.73.16-1.46.36-2.18.55a2.55,2.55,0,0,0-1.85,1.21h0A2.65,2.65,0,0,1,52.42,56c.73-.14,1.45-.28,2.17-.45a4.8,4.8,0,0,0,2.18-.69,1.67,1.67,0,0,0,.62-2.14,1.1,1.1,0,0,0-1-.46,5.32,5.32,0,0,0-1.12.17,6.18,6.18,0,0,0-2,1c-1.12.88-2.52,1.8-2.92,3.32Z"/><path d="M56.24,52.84a6.47,6.47,0,0,0-1.56.88,5.74,5.74,0,0,1-1.45,1c-.53.28-1.06.55-1.56.88-.25.15-.49.32-.74.49s-.53.42-.68.37h0c0,.14.16.13.21.12l.23,0a2.73,2.73,0,0,0,.43-.16,5.59,5.59,0,0,0,.81-.41,9.93,9.93,0,0,0,1.46-1,6.16,6.16,0,0,1,1.52-1,6.26,6.26,0,0,0,1.39-1.13Z"/><path d="M49.57,57.46A8.87,8.87,0,0,1,53.25,56a6.39,6.39,0,0,1,2-.14,3.61,3.61,0,0,1,1,.23c.31.11.59.34.59.63,0,.65-.69.92-1.32,1a8.74,8.74,0,0,1-2,0,19.48,19.48,0,0,1-2-.37c-.61-.15-1.45-.41-2,.13l0,0c.58-.39,1.26-.06,1.89.14a9.72,9.72,0,0,0,2,.48,6.66,6.66,0,0,0,2.09,0,2.3,2.3,0,0,0,1-.37,1.06,1.06,0,0,0,.47-1c-.05-.43-.46-.63-.76-.74a5.71,5.71,0,0,0-1-.24,8.34,8.34,0,0,0-2.06-.05,6,6,0,0,0-3.66,1.77Z"/><path d="M55.49,56.59a3.64,3.64,0,0,0-1.31-.11,3,3,0,0,1-1.3.09,6,6,0,0,0-2.59.17v0a6,6,0,0,0,2.6,0,3,3,0,0,1,1.29,0,3.7,3.7,0,0,0,1.3-.19Z"/><path d="M47.85,51.3a5.79,5.79,0,0,0,.45,1.35A2,2,0,0,1,48.67,54a8.88,8.88,0,0,0,.23,2.85h0a6.1,6.1,0,0,0,0-2.88c-.11-.47-.18-.95-.27-1.44a3.52,3.52,0,0,0-.73-1.25Z"/><path d="M42.39,63A4.68,4.68,0,0,0,43,64a1.74,1.74,0,0,1,.61,1l.27,1.1a4.43,4.43,0,0,1,.17,1.1l0,0a1.48,1.48,0,0,0,.19-1.21,2.75,2.75,0,0,0-.46-1.1,5.07,5.07,0,0,1-.55-1.06,2,2,0,0,0-.9-.79Z"/><path d="M65.23,14.65a3.92,3.92,0,0,0-1.82,1.22c-.42.64-.51,1.44-1.17,1.76-.3.18-.64.27-1,.45a2.13,2.13,0,0,0-.84.79c-.41.61-.62,1.3-1.3,1.58v0c.81,0,1.29-.85,1.64-1.39s1-.82,1.6-1.29.8-1.26,1.31-1.72a18.28,18.28,0,0,1,1.58-1.4Z"/><path d="M59.14,19.94a26.48,26.48,0,0,0-.57,3.28,18.27,18.27,0,0,1-.41,3.3,58.2,58.2,0,0,0-1,6.57h0a28.17,28.17,0,0,0,1.18-6.55,21.35,21.35,0,0,1,.53-3.28A19.4,19.4,0,0,0,59.18,20Z"/><path d="M63.44,10.9a6.9,6.9,0,0,0-1.07,1.51A6.37,6.37,0,0,1,61.49,14a4.24,4.24,0,0,0-.78,1.71,10.28,10.28,0,0,1-.36,1.77l0,0a3.4,3.4,0,0,0,.74-1.71,9.18,9.18,0,0,1,.57-1.7,6.11,6.11,0,0,1,1-1.55,6.56,6.56,0,0,0,.81-1.66Z"/><path d="M53.82,43.57c-.13.06-.16.12-.12.16s.16.08.07.14-.12.21.13.27h0c.23-.13.2-.23.05-.3s0-.1,0-.16,0-.09-.17-.12Z"/><path d="M45.3,67.59a6.64,6.64,0,0,0-1.55,2.29c-.32.87-.54,1.76-.94,2.59s-.71,1.69-1,2.54c-.17.43-.31.86-.45,1.29-.09.25-.1.4-.26.32s-.17-.32-.09-.53l0,0a.52.52,0,0,0,0,.72.35.35,0,0,0,.47,0,1.3,1.3,0,0,0,.19-.33c.19-.42.39-.84.55-1.27A22,22,0,0,0,43,72.55a8.77,8.77,0,0,1,1-2.53c.41-.81.81-1.61,1.27-2.41Z"/><path d="M55.68,56.2a1,1,0,0,0,.32.54.24.24,0,0,1,0,.44,6.14,6.14,0,0,1-1.08.37v0a.79.79,0,0,0,.69.2.77.77,0,0,0,.58-.48,1.27,1.27,0,0,0,.1-.76.83.83,0,0,0-.58-.38Z"/><path d="M55.62,52.79a1.4,1.4,0,0,1,.57.36.43.43,0,0,1,.15.63c-.26.42-.65.65-1,1.15l0,0a1.36,1.36,0,0,0,.77-.34,1,1,0,0,0,.39-.79,2.58,2.58,0,0,0-.09-.9.61.61,0,0,0-.85-.19Z"/><path d="M51.14,63.75a1,1,0,0,0,.42.55c.21.06.47.22.34.41s-.55.39-.91.77v0a1,1,0,0,0,.73-.1.73.73,0,0,0,.39-.69,2.17,2.17,0,0,0-.34-.68,1,1,0,0,0-.61-.33Z"/><path d="M42.14,62.06a.78.78,0,0,0-.6-.2,2,2,0,0,0-.64.28.61.61,0,0,0-.07.74.63.63,0,0,0,.61.32v0c-.12-.2-.18-.35-.26-.49a1.19,1.19,0,0,1-.11-.42c0-.19.28-.18.45-.07a.84.84,0,0,0,.61-.09Z"/><path d="M48.19,51a.79.79,0,0,0-.44-.59,1.21,1.21,0,0,0-.81.08.73.73,0,0,0-.11.8.87.87,0,0,0,.53.53l0,0c-.06-.26-.1-.45-.16-.65s-.15-.38-.12-.52.37-.09.47.08a1.51,1.51,0,0,0,.58.31Z"/><path d="M48.82,41.22A2.09,2.09,0,0,0,47.23,41a1.3,1.3,0,0,0-.78,1.39,1.57,1.57,0,0,0,1.27,1,3.17,3.17,0,0,0,1.59,0v0c-.52-.13-1-.25-1.48-.4s-.95-.28-1.17-.7.21-1,.67-1a11.59,11.59,0,0,1,1.48,0Z"/><path d="M52.77,38.49a2.08,2.08,0,0,0-.26-1,2.88,2.88,0,0,0-.32-.39.78.78,0,0,0-.42-.35.55.55,0,0,0-.56.24,1.44,1.44,0,0,0-.2.53,1.48,1.48,0,0,0,.19,1h0l.18-.93c.09-.26.09-.57.33-.62s.43.36.46.67a1.94,1.94,0,0,0,.52.83Z"/><path d="M58.69,36.84a6.45,6.45,0,0,1,2.1-.43,1.44,1.44,0,0,1,1.61,1.08,4.09,4.09,0,0,1-.5,2,6.8,6.8,0,0,1-1.14,1.84l0,0a3.71,3.71,0,0,0,1.49-1.71,3.18,3.18,0,0,0,.34-2.27,2.37,2.37,0,0,0-1.8-1.35,3,3,0,0,0-2.15.73Z"/><path d="M59.57,43.09a1.31,1.31,0,0,0,.18.55.25.25,0,0,1-.09.43c-.39.12-.66.16-1.11.3v0a.83.83,0,0,0,1.26-.17,1.53,1.53,0,0,0,.28-.68.68.68,0,0,0-.48-.5Z"/><path d="M61.08,27.09A2.6,2.6,0,0,1,62.47,27a.82.82,0,0,1,.53.4.67.67,0,0,1-.06.67,3.66,3.66,0,0,1-1,1,5.65,5.65,0,0,1-1.34.61v0a2.35,2.35,0,0,0,2.57-1.52,1.28,1.28,0,0,0-.54-1.47,1.38,1.38,0,0,0-1.53.35Z"/><path d="M54.54,23.07a3.23,3.23,0,0,0-1.45-.54,2.33,2.33,0,0,0-1.44.64,1.29,1.29,0,0,0-.32,1.56c.24.54.77.75,1.2,1l0,0c-.25-.46-.68-.76-.84-1.17a1.3,1.3,0,0,1,.65-1.71,1.38,1.38,0,0,1,.7,0,7.52,7.52,0,0,0,1.47.24Z"/><path d="M61.66,21.43a2.72,2.72,0,0,1,.81-.27.31.31,0,0,1,.35.11.38.38,0,0,1,0,.41c-.33.5-.81.83-1.22,1.39l0,0A1.76,1.76,0,0,0,63,21.75a.76.76,0,0,0-.5-.92.83.83,0,0,0-.87.57Z"/><path d="M51.15,18.24a3.33,3.33,0,0,0-1.52-.46.93.93,0,0,0-.42.15.36.36,0,0,0-.13.45,1.42,1.42,0,0,0,.57.57,7.2,7.2,0,0,0,2.82,1.27l0,0a10.15,10.15,0,0,0-2.73-1.42c-.24-.08-.49-.2-.55-.42s.21-.24.42-.22a8.86,8.86,0,0,0,1.5.15Z"/><path d="M59,13.06a10.3,10.3,0,0,1-1.66-.4c-.59-.11-1.15-.26-1.75-.4-.27,0-.67-.14-1,.22a1.33,1.33,0,0,0-.11,1c.14.66.7,1,1.11,1.44l0,0a8.31,8.31,0,0,1-.73-1.51,1.36,1.36,0,0,1,0-.7c.06-.15.37-.21.65-.22a3.24,3.24,0,0,1,1.65.5A2.54,2.54,0,0,0,59,13.1Z"/><path d="M61.69,10.8A8.13,8.13,0,0,1,63,10.16c.38-.21,1-.23,1.24.2a1.7,1.7,0,0,1-.13,1.28A10.66,10.66,0,0,0,63.44,13l0,0a4.74,4.74,0,0,0,1-1.17,1.5,1.5,0,0,0-.08-1.59,2,2,0,0,0-1.52-.39,1.94,1.94,0,0,0-1.22.94Z"/><path d="M63.57,13.7a10.59,10.59,0,0,0,1.55-.19,1.94,1.94,0,0,1,.76,0c.26.06.47.26.36.48-.2.4-.71.75-1,1.17a6.94,6.94,0,0,0-.89,1.34l0,0a7.83,7.83,0,0,0,1.19-1.11,3.74,3.74,0,0,0,.89-1.39c.06-.36-.3-.57-.53-.65a3,3,0,0,0-.81-.24,3.34,3.34,0,0,0-1.57.5Z"/><path d="M41.3,61.92A12.64,12.64,0,0,1,43,57.41a3.7,3.7,0,0,1,1.68-1.66,1.65,1.65,0,0,1,2.06.63,2,2,0,0,1-.35,2.15,7.31,7.31,0,0,1-1.81,1.54c-1.34.87-2.94,1.66-3.8,3.13l0,0c1-1.29,2.59-1.9,4-2.8a6.5,6.5,0,0,0,1.89-1.66A2.31,2.31,0,0,0,47,56.27a2,2,0,0,0-2.3-.65,4.17,4.17,0,0,0-1.92,1.6,8.54,8.54,0,0,0-1.5,4.7Z"/><path d="M45.29,57.28A7,7,0,0,0,44,58.57,6.68,6.68,0,0,1,42.83,60a8.45,8.45,0,0,0-1.18,1.47c-.27.58-.37,1.17-.58,1.75l0,0A6.38,6.38,0,0,0,42,61.65c.31-.49.66-1,1-1.5a6.42,6.42,0,0,1,1.24-1.36,6.66,6.66,0,0,0,1.09-1.48Z"/><path d="M40.11,63.63a4,4,0,0,0-.76-2.82,8.48,8.48,0,0,0-2-2.15A26.83,26.83,0,0,1,35,56.9a3.92,3.92,0,0,1-.89-1.11.74.74,0,0,1,.5-1,2.74,2.74,0,0,1,2.48.93,8.63,8.63,0,0,1,1.8,2.19,9.4,9.4,0,0,1,1.24,5.53h0a8.13,8.13,0,0,0-.91-5.74,8,8,0,0,0-1.92-2.29,3,3,0,0,0-2.81-.84,1.07,1.07,0,0,0-.58.53.94.94,0,0,0,0,.77A4.57,4.57,0,0,0,34.9,57c.7.68,1.47,1.3,2.21,1.92a10.83,10.83,0,0,1,2,2.07,4.39,4.39,0,0,1,1,2.64Z"/><path d="M37.45,57.33a13.47,13.47,0,0,0,.86,1.49,3.9,3.9,0,0,1,.83,1.5c.31,1.12.57,2.19.93,3.31h0a5.67,5.67,0,0,0-.77-3.39,11,11,0,0,1-.74-1.59,4.15,4.15,0,0,0-1.12-1.35Z"/><path d="M41.59,51.33a8.23,8.23,0,0,1,1-5.24,9.94,9.94,0,0,1,1.46-2.26,3.77,3.77,0,0,1,2.26-1.34,1,1,0,0,1,1.06.57,1.5,1.5,0,0,1-.17,1.25,8.06,8.06,0,0,1-1.92,1.9c-1.44,1-3.19,2-4,3.87l.15.29c-.22-.12-.12-.16-.15-.16v0l0,.08,0,.18,0,.19,0,.12v.07s-.07.12.17.25l.23.12,0-.31a8,8,0,0,1,1-3.16,8.19,8.19,0,0,1,2.22-2.51l0,0a7.18,7.18,0,0,0-2.44,2.4A7.35,7.35,0,0,0,41.2,50.9l.25-.19c.21.12.12.16.14.16v-.09l0-.18.05-.2,0-.11v-.08s.07-.11-.18-.25l.15.29c.72-1.66,2.32-2.65,3.76-3.8a8.59,8.59,0,0,0,1.89-2.05A1.62,1.62,0,0,0,47.5,43a1.16,1.16,0,0,0-1.2-.66c-1.93.26-3.27,1.95-4,3.59a7.41,7.41,0,0,0-.72,5.41Z"/><path d="M41.59,51.34a5.58,5.58,0,0,1,2.71-2.2,6.55,6.55,0,0,1,1.6-.82c.51-.15,1.37-.12,1.41.45s-.61.83-1.1,1.14a9.36,9.36,0,0,1-1.62.71,10.06,10.06,0,0,1-1.73.38l-.92.18a4.32,4.32,0,0,0-.45.12c-.11,0-.11.22-.07.26a.3.3,0,0,1,0,.21h0c.1-.13,0-.39.08-.36s.3,0,.44,0l.89-.07A6.43,6.43,0,0,0,44.72,51a6.52,6.52,0,0,0,1.69-.79,4,4,0,0,0,.75-.57,1.06,1.06,0,0,0,.38-.92.79.79,0,0,0-.74-.61,2.88,2.88,0,0,0-.93.06,8.25,8.25,0,0,0-1.72.65,4.14,4.14,0,0,0-2.6,2.5Z"/><path d="M45.35,49.57a1.77,1.77,0,0,0-1,.16,2.87,2.87,0,0,1-.92.47,2.66,2.66,0,0,0-1.65,1.21l0,0a6,6,0,0,0,1.72-1,1.55,1.55,0,0,1,.93-.36,2.74,2.74,0,0,0,.92-.43Z"/><path d="M40.1,52.44a11.66,11.66,0,0,0-3.8-2.53,7.39,7.39,0,0,1-1.9-1.21,2.63,2.63,0,0,1-.65-.9c-.15-.31-.3-.78,0-.86,1.42-.48,2.89.38,3.92,1.36a8.23,8.23,0,0,1,2.22,3.83h0A6.62,6.62,0,0,0,38,48c-1.06-1.09-2.76-1.94-4.3-1.27a.48.48,0,0,0-.3.57,2.41,2.41,0,0,0,.21.55,4,4,0,0,0,.68.94,9,9,0,0,0,1.84,1.4,26.22,26.22,0,0,1,3.93,2.26Z"/><path d="M39.54,51.4a2.6,2.6,0,0,0-.72-1,3.78,3.78,0,0,1-.94-.84,4.11,4.11,0,0,0-2-1.45l0,0a8,8,0,0,0,1.91,1.58,2.42,2.42,0,0,1,.84.9,3.88,3.88,0,0,0,.93.82Z"/><path d="M39.87,37.86a27.94,27.94,0,0,1-3-2.49A16,16,0,0,1,35.5,34a1.14,1.14,0,0,1,0-1.64,1.6,1.6,0,0,1,1.77.15A3.71,3.71,0,0,1,38.52,34a17.9,17.9,0,0,1,.71,1.81c.19.62.57,1.24.45,1.77l.39,0a10.36,10.36,0,0,0-2.84-3.68l0,0a14,14,0,0,1,2.49,3.82l.28.63.11-.66a3.72,3.72,0,0,0-.46-2,12.3,12.3,0,0,0-.81-1.83,4.05,4.05,0,0,0-1.38-1.47,1.92,1.92,0,0,0-2-.09,1.38,1.38,0,0,0-.19,1.89,8.72,8.72,0,0,0,1.32,1.51,14.06,14.06,0,0,0,3.25,2.27Z"/><path d="M41,38a22.69,22.69,0,0,1,1.22-4.7,6.86,6.86,0,0,1,1.27-2A1.61,1.61,0,0,1,45.58,31a1.64,1.64,0,0,1,0,2.14c-.45.65-1,1.25-1.55,1.88L42.5,36.88l-.77,1c-.2.32-.59.58-.69.45l.05.22a13.38,13.38,0,0,1,1-2.32,4.75,4.75,0,0,1,1.77-1.76v0a4.13,4.13,0,0,0-2,1.65,12.27,12.27,0,0,0-1.18,2.31l-.05.13.1.1a.66.66,0,0,0,.82,0,2.15,2.15,0,0,0,.48-.47l.77-1,1.51-1.93c.48-.67,1-1.28,1.45-2a1.82,1.82,0,0,0-.13-2.35,1.87,1.87,0,0,0-2.36.26,5.84,5.84,0,0,0-1.43,2.05A14.69,14.69,0,0,0,40.94,38Z"/><path d="M41.62,24.63a13.89,13.89,0,0,1,2.87-3.5,3.78,3.78,0,0,1,2.16-.43,5.7,5.7,0,0,1,1.11,0c.11.07.06.3,0,.48l-.13.56c-.35,1.42-.39,3.31-2,3.56-1.47.44-2.94.93-4.38,1.48v0c1.52-.31,3-.69,4.5-1.12a2.73,2.73,0,0,0,1.11-.54,2.39,2.39,0,0,0,.63-1.08,17.11,17.11,0,0,0,.38-2.31l.08-.58c0-.18.11-.41-.11-.61a7,7,0,0,0-1.19-.05,4.32,4.32,0,0,0-2.34.28,8.57,8.57,0,0,0-2.73,3.77Z"/><path d="M45.7,22.77a3.37,3.37,0,0,0-1.42.69,8.21,8.21,0,0,1-1.19,1A4.94,4.94,0,0,0,41.18,27l0,0c.75-.75,1.37-1.53,2-2.33a3.24,3.24,0,0,1,1.23-.93,7.87,7.87,0,0,0,1.24-.93Z"/><path d="M47.94,23.75c.53.64.84,1.46.36,2.07a2.84,2.84,0,0,1-2,1.16,16.67,16.67,0,0,1-2.43.24c-.76,0-1.77-.15-2.42.51l0,0c.75-.4,1.55-.1,2.41-.13a7.23,7.23,0,0,0,2.48-.43A5.88,5.88,0,0,0,48.57,26a1.32,1.32,0,0,0,.23-1.32,2.06,2.06,0,0,0-.83-1Z"/><path d="M39.47,27.33a9.21,9.21,0,0,0-1.86-2.4,17.61,17.61,0,0,0-2.47-1.76A6.45,6.45,0,0,1,33,21.23a2,2,0,0,1-.37-1.35c.07-.48.57-.73,1-.8A4.83,4.83,0,0,1,38.38,22a12.11,12.11,0,0,1,1.28,5.73l.4-.08A14.88,14.88,0,0,0,38.2,24.5a14.11,14.11,0,0,0-2.53-2.59l0,0A17.72,17.72,0,0,1,38,24.66a18.21,18.21,0,0,1,1.71,3.12l.37.85,0-.92a11.36,11.36,0,0,0-1.4-5.9,5.2,5.2,0,0,0-5-2.86,1.32,1.32,0,0,0-1.21.89,2.27,2.27,0,0,0,.31,1.53,6.12,6.12,0,0,0,2.21,2.11,20.34,20.34,0,0,1,2.49,1.66,11.13,11.13,0,0,1,2,2.21Z"/><path d="M40.72,25.51a13.54,13.54,0,0,1,1-3.78,12.06,12.06,0,0,1,.9-1.75,5.5,5.5,0,0,0,.93-1.78v-.07l-.07,0a1.45,1.45,0,0,0-1.18.22,5,5,0,0,0-.91.74,3.52,3.52,0,0,0-.95,2.16,12.75,12.75,0,0,0,.47,4.57h0a23.5,23.5,0,0,1-.09-4.51,3.45,3.45,0,0,1,.8-2c.46-.52,1.06-1.17,1.77-1l-.06-.1a3.89,3.89,0,0,1-.89,1.72,9.11,9.11,0,0,0-1.09,1.7,7.93,7.93,0,0,0-.73,3.92Z"/><path d="M38.42,11.58a45,45,0,0,0-3.48-3.15A10.41,10.41,0,0,1,33.17,6.9c-.2-.27-.55-.69-.32-.94a1,1,0,0,1,1,0,13.49,13.49,0,0,1,3.31,3.18,18.44,18.44,0,0,1,2.3,4h0a11.64,11.64,0,0,0-2-4.27A10.41,10.41,0,0,0,34,5.77a1.14,1.14,0,0,0-1.2.09.51.51,0,0,0,0,.62,4.39,4.39,0,0,0,.32.51,15.5,15.5,0,0,0,1.65,1.69,45.16,45.16,0,0,0,3.69,2.93Z"/><path d="M40,16.64c.74-1.54,1.47-3.17,2.94-4a4.79,4.79,0,0,1,2.37-.8,4.46,4.46,0,0,1,1.26.12,2.09,2.09,0,0,1,1.09.54c.28.32,0,.64-.38.8a5.91,5.91,0,0,1-1.18.42,15.83,15.83,0,0,0-2.48.78,15,15,0,0,0-2.34,1.16,5,5,0,0,0-1.06.79,1.42,1.42,0,0,0-.49,1.2h.05c0-.9.94-1.33,1.66-1.71a22.12,22.12,0,0,1,2.33-1.05c.8-.31,1.6-.57,2.43-.81a4.85,4.85,0,0,0,1.23-.51,1.27,1.27,0,0,0,.53-.48.67.67,0,0,0-.13-.74,4.1,4.1,0,0,0-2.53-.65,5.57,5.57,0,0,0-2.54.65c-1.62.89-2.32,2.7-2.8,4.31Z"/><path d="M40.16,16.5a12.27,12.27,0,0,1,.43-3.43,6.13,6.13,0,0,1,1.59-3,1.86,1.86,0,0,1,1.36-.75c.54,0,.36.6.05,1-.66.95-1.38,1.86-2.14,2.76l0,0a12.15,12.15,0,0,0,2.46-2.55,1.73,1.73,0,0,0,.37-.91.75.75,0,0,0-.21-.56.82.82,0,0,0-.53-.19,2,2,0,0,0-1.56,1A12.93,12.93,0,0,0,40.27,13a6.43,6.43,0,0,0-.15,3.53Z"/><path d="M39.51,12.21A7.79,7.79,0,0,0,35.6,5.85a12.91,12.91,0,0,1-3.26-1.92C31.5,3.06,31.2,1.4,32.23.64s2.41-.22,3.54.19A5.11,5.11,0,0,1,38.6,3.06a11.19,11.19,0,0,1,.3,7.39h0a10.75,10.75,0,0,0,.73-3.77A8.56,8.56,0,0,0,39,2.87,5.21,5.21,0,0,0,35.91.48,7.23,7.23,0,0,0,34,0,2.65,2.65,0,0,0,32.1.47a1.88,1.88,0,0,0-.67,1.8A3.41,3.41,0,0,0,32.24,4a14,14,0,0,0,3.19,2.12,8.63,8.63,0,0,1,4,6.07Z"/><path d="M34.83,2.19a17.92,17.92,0,0,1,2,2.32,7.36,7.36,0,0,1,1.41,2.7c.58,2,.88,4,1.45,6h0a16.35,16.35,0,0,0-1.28-6c-.44-.94-.83-1.89-1.34-2.8a6.24,6.24,0,0,0-2.22-2.17Z"/><path d="M44.12,5.76a17.37,17.37,0,0,1,3.17-.87,6,6,0,0,1,.8-.13c.25,0,.53.07.58.32,0,.51-.54.89-.87,1.3a32.76,32.76,0,0,1-2.4,2.3c-.4.53-.38,1.12-.77,1.47a1.73,1.73,0,0,1-1.41.57v0a1.69,1.69,0,0,0,1.64-.39,2,2,0,0,0,.52-.73c.13-.22.17-.53.34-.67A13.21,13.21,0,0,0,48,6.52l.51-.66a1.13,1.13,0,0,0,.32-.8c0-.35-.42-.5-.7-.53a6.14,6.14,0,0,0-.86,0A7.1,7.1,0,0,0,44.1,5.72Z"/><path d="M43.68,7.48a3.58,3.58,0,0,0-1.24.8,5.45,5.45,0,0,1-1,1.06,5.27,5.27,0,0,0-1.79,2.32l0,0a12.83,12.83,0,0,0,1.92-2.19,3.22,3.22,0,0,1,1.09-1,6,6,0,0,0,1-1Z"/><path d="M40.87,3.69c.54-.54,1-1.12,1.54-1.58a2.56,2.56,0,0,1,.92-.56c.33-.12.77,0,.78.37A7.38,7.38,0,0,1,43.74,4a9.43,9.43,0,0,1-.91,2l0,0a4.53,4.53,0,0,0,1.46-4.2c-.12-.48-.68-.54-1-.46a3.37,3.37,0,0,0-1.08.44,4.37,4.37,0,0,0-1.38,1.81Z"/><path d="M42.33,4.68a3.5,3.5,0,0,0-.76,1.19A4.24,4.24,0,0,1,41,7.17a5.82,5.82,0,0,0-.93,2.65h0a8.2,8.2,0,0,0,1.09-2.57A3.28,3.28,0,0,1,41.87,6a4.22,4.22,0,0,0,.49-1.31Z"/><path d="M40.16,47.15l-2-1.87a3.82,3.82,0,0,1-.91-1,.74.74,0,0,1-.06-.61.2.2,0,0,1,.21-.15.75.75,0,0,1,.3,0,2.6,2.6,0,0,1,1.81,1.65,12.57,12.57,0,0,0,1.11,2.5l0,0c-.32-.86-.39-1.76-.77-2.64a2.51,2.51,0,0,0-2.18-1.71c-.21,0-.56.06-.66.33a1.1,1.1,0,0,0,.07.72,5.27,5.27,0,0,0,.79,1.16,7.63,7.63,0,0,0,2.2,1.67Z"/><path d="M39.82,46.29a.33.33,0,0,0-.13-.35c-.14,0-.27-.06-.28-.2a.48.48,0,0,0-.54-.43l0,0a.48.48,0,0,0,.41.55c.15,0,.18.15.2.29a.33.33,0,0,0,.34.14Z"/><path d="M35.3,7.13a8.12,8.12,0,0,1,3.77,6.8,16.37,16.37,0,0,1-.65,4,7.32,7.32,0,0,0,.27,4.12c.43,1.31,1,2.55,1.34,3.87a8,8,0,0,1-.16,4A14.24,14.24,0,0,0,39.28,34a20.6,20.6,0,0,0,.66,4.06,36.93,36.93,0,0,1,.84,4,18.29,18.29,0,0,1,0,4c-.33,2.7-.73,5.43-.87,8.17a68.56,68.56,0,0,0,1,16.37h0a83.51,83.51,0,0,1-.65-16.34c.14-2.73.52-5.42.85-8.15a16.79,16.79,0,0,0,0-4.13,38.28,38.28,0,0,0-.93-4,19.84,19.84,0,0,1-.72-4A12,12,0,0,1,40,30a8.1,8.1,0,0,0,.23-4.09C40,24.52,39.38,23.26,39,22a7.41,7.41,0,0,1-.22-4,16.35,16.35,0,0,0,.59-4.08,8.26,8.26,0,0,0-1.11-4A8,8,0,0,0,35.32,7.1Z"/><path d="M35.3,7.13a10.89,10.89,0,0,1,3.11,3.05,9.07,9.07,0,0,1,1.42,4.06,7.36,7.36,0,0,1,0,2.15c-.14.71-.35,1.43-.45,2.17a6.3,6.3,0,0,0,0,2.25,21.82,21.82,0,0,0,.6,2.14,29.93,29.93,0,0,1,1.11,4.23,11.39,11.39,0,0,1-.2,4.35,15.73,15.73,0,0,0-.46,4.38,28.65,28.65,0,0,0,1,4.31c.82,2.84.34,5.79,0,8.69a86.73,86.73,0,0,0-.62,8.81,80.11,80.11,0,0,0,1.63,17.55h0a97.19,97.19,0,0,1-1.26-17.53c0-2.93.25-5.86.58-8.77s.76-5.93-.12-8.8a27.88,27.88,0,0,1-1.05-4.26A12.78,12.78,0,0,1,41,31.56a11.7,11.7,0,0,0,.27-4.41,29.51,29.51,0,0,0-1.05-4.29,21.17,21.17,0,0,1-.55-2.11,7.31,7.31,0,0,1,0-2.14c.1-.72.29-1.43.42-2.16a7.64,7.64,0,0,0,0-2.24,9.28,9.28,0,0,0-1.52-4.15,10.6,10.6,0,0,0-3.26-3Z"/><path d="M46,7.59a1.53,1.53,0,0,0,.24-1,1.11,1.11,0,0,0-.84-.7,1.86,1.86,0,0,0-1,.16,3,3,0,0,0-.88.52l0,0a3.22,3.22,0,0,0,1-.16c.32-.09.6-.28.89-.33s.58.23.51.52a3,3,0,0,0,0,1Z"/><path d="M44.82,12.31c.41.18.83.13,1.11.35.13.07.35.24.27.36s-.37.15-.56.2a3.88,3.88,0,0,0-1.24.34,2.32,2.32,0,0,0-1,.89l0,0c.76-.42,1.47-.67,2.26-1.06a4.23,4.23,0,0,0,.59-.31.6.6,0,0,0-.17-.71,1.38,1.38,0,0,0-1.33-.13Z"/><path d="M37.73,3.14A10.49,10.49,0,0,0,35.84,1.7a3.15,3.15,0,0,0-1.14-.44,1.8,1.8,0,0,0-1.17.37.57.57,0,0,0-.22.67,2.69,2.69,0,0,0,.37.5c.08.12.07.17,0,.37a.91.91,0,0,0-.1.34,2.11,2.11,0,0,0,.09.36A12.59,12.59,0,0,0,34.81,6l0,0a22,22,0,0,0-.79-2.21.46.46,0,0,1,0-.44A.72.72,0,0,0,34,2.57c-.35-.35-.59-.46-.31-.78a1.18,1.18,0,0,1,1-.39,2.36,2.36,0,0,1,1,.58,11,11,0,0,0,2.05,1.19Z"/><path d="M43,4.56A2.41,2.41,0,0,0,43.2,4a.55.55,0,0,0-.43-.6,2.1,2.1,0,0,0-1.21.42,7.57,7.57,0,0,0-.91.75,7.83,7.83,0,0,1-.95.63v0a1.8,1.8,0,0,0,1.2-.34,4.93,4.93,0,0,0,.8-.91.75.75,0,0,1,1-.27.34.34,0,0,1,.22.29,2.93,2.93,0,0,0,.09.59Z"/><path d="M35,6.73a.75.75,0,0,0-.5.38,3.66,3.66,0,0,0,0,.66.72.72,0,0,0,.32.55,1.08,1.08,0,0,0,.58.24l0,0A1,1,0,0,0,35.14,8l-.4-.32c-.18-.12-.05-.35.09-.43a.69.69,0,0,0,.24-.51Z"/><path d="M44.12,22.14a5.15,5.15,0,0,0,1.56-.31c.22,0,.47-.25.69-.14s.24.38.13.59A4.07,4.07,0,0,0,46,23.8a3,3,0,0,1-.58,1.37l0,0a1.83,1.83,0,0,0,1-1.31,15.67,15.67,0,0,1,.27-1.55.69.69,0,0,0-.28-.78,1.54,1.54,0,0,0-.85,0,5,5,0,0,0-1.47.59Z"/><path d="M37.36,21.24a3.69,3.69,0,0,0-1.48-1,4.1,4.1,0,0,0-.91-.14,1.22,1.22,0,0,0-.91.21.85.85,0,0,0-.12,1,1.87,1.87,0,0,0,.65.71,2.06,2.06,0,0,1,.92,1.33h0a1.63,1.63,0,0,0-.7-1.66,2.53,2.53,0,0,1-.57-.56.59.59,0,0,1-.06-.66c.34-.45,1.08-.18,1.53.09s1,.52,1.59.73Z"/><path d="M47.39,25.18a3.09,3.09,0,0,0-.14.67.54.54,0,0,1-.4.5,3.53,3.53,0,0,0-1.33.53v0A1.43,1.43,0,0,0,47,26.54a6.34,6.34,0,0,1,.58-.58.75.75,0,0,0-.13-.79Z"/><path d="M43,32.61A7.22,7.22,0,0,0,44,32a.55.55,0,0,1,.51-.09.59.59,0,0,1,.32.44c.11.76-.34,1.4-.59,2.23l0,0a2.53,2.53,0,0,0,.79-1,1.5,1.5,0,0,0,0-1.32,1,1,0,0,0-1.15-.58,2,2,0,0,0-.92.89Z"/><path d="M37.59,33a1.2,1.2,0,0,0-.79-.05c-.24.17-.42.34-.64.52a.89.89,0,0,0-.23.82,1.06,1.06,0,0,0,.47.66l0,0a4.87,4.87,0,0,1-.09-1.33c0-.24.32-.34.55-.32a1.12,1.12,0,0,0,.69-.23Z"/><path d="M45.2,43.48a1.55,1.55,0,0,0,.82.15c.22-.11.43.21.32.47-.17.49-.44.91-.6,1.5l0,0a1.46,1.46,0,0,0,.8-1.52c0-.15-.09-.29-.13-.44a.57.57,0,0,0-.38-.36,1.35,1.35,0,0,0-.86.14Z"/><path d="M46,48.75a1.19,1.19,0,0,0,.44.42c.15,0,.16.37,0,.49a10.45,10.45,0,0,0-1,.8v0a1,1,0,0,0,1.15-.73c0-.27.2-.43.11-.79a.74.74,0,0,0-.71-.26Z"/><path d="M36.64,47.52c-.26-.22-.5-.5-1-.4s-.38.65-.46,1a1.47,1.47,0,0,0,1,1.63l0,0a6.58,6.58,0,0,1-.84-1.62c-.13-.29.05-.69.31-.62s.54.14.88.12Z"/><path d="M39,44.39c-.1-.17-.2-.33-.48-.31s-.29.31-.45.44a.59.59,0,0,0,.28,1l0,0a6.54,6.54,0,0,0-.1-.87c-.05-.18.17-.28.25-.18a.76.76,0,0,0,.46,0Z"/><path d="M36.32,55.56a.87.87,0,0,1-.42-.1l-.23-.08c-.11-.07-.35.06-.39.19-.18.48.44.74.29.91a.33.33,0,0,0-.11.28.69.69,0,0,0,.1.29,3.58,3.58,0,0,0,.25.42,2.9,2.9,0,0,0,.69.71l0,0a3,3,0,0,0-.37-.9,2.76,2.76,0,0,0-.28-.39c-.11-.2-.19-.06-.11-.31s-.2-.36-.25-.49a.27.27,0,0,1,0-.34s0,0,0,0l.24,0a.52.52,0,0,0,.51-.17Z"/><path d="M44.69,56.51a1,1,0,0,0,.63.13.52.52,0,0,1,.4.16.92.92,0,0,1,.29,1,14.54,14.54,0,0,1-1.14,2.05l0,0a2.33,2.33,0,0,0,1.34-2A3.28,3.28,0,0,0,46,56.58a.68.68,0,0,0-.69-.25,2.71,2.71,0,0,1-.58.14Z"/></g></g></svg>