<svg xmlns="http://www.w3.org/2000/svg" viewBox="0 0 114.29 121.86"><defs><style>.cls-1{fill:#00a7d9;}</style></defs><g id="Layer_2" data-name="Layer 2"><g id="Ingredients_Map" data-name="Ingredients Map"><path class="cls-1" d="M53,39.3c.2.29.42.57.63.85l1.35,1.75-.12-.83a17.8,17.8,0,0,1-.18-1.86,4.54,4.54,0,0,0-.5-2,2.08,2.08,0,0,0-1.62-1h-.18a.68.68,0,0,0-.41.11.31.31,0,0,0-.12.22,2.16,2.16,0,0,0,.15.72l.07.24A8.17,8.17,0,0,0,53,39.3Z" transform="translate(-1.42)"/><path class="cls-1" d="M48.16,17.69l-.19.07.13.15a3.88,3.88,0,0,0,1.78.79c.32.08.61.16.91.26a32,32,0,0,1,3.15,1.23c.51.22,1,.45,1.51.69l3.47,1.66-.14-.3a5.18,5.18,0,0,0-.71-1.18A8.22,8.22,0,0,0,55,19a25.63,25.63,0,0,0-3.58-1.2A6.8,6.8,0,0,0,48.16,17.69Z" transform="translate(-1.42)"/><path class="cls-1" d="M69.3,13a1.65,1.65,0,0,0-1.24-.19l-.19,0c-.33,0-.65.09-1,.15l-1.46.27L66.1,12a3.21,3.21,0,0,0,.35-1.31,1.11,1.11,0,0,0-.43-1,2.12,2.12,0,0,0-1.2-.06,4.59,4.59,0,0,0-2.32,1.08,3.73,3.73,0,0,0-1.09,1.56l-.26.72-1.31-.49a22.91,22.91,0,0,0-3-.83l-.43-.09a2.92,2.92,0,0,0-1-.12.46.46,0,0,0-.29.13.25.25,0,0,0-.06.16,3.09,3.09,0,0,0,.16.75A7.54,7.54,0,0,0,56.87,15a18.25,18.25,0,0,1,3.59,4.87l.11.22,0,.25c-.12.59-.22,1.18-.33,1.77l-.17,1,1.81.86L60,23.48l-.16.95-.51-1.11-4.33-1a6.81,6.81,0,0,0-2.82-.05,1.06,1.06,0,0,0-.88,1,1.87,1.87,0,0,0,.67,1.07l.14.14a12.44,12.44,0,0,0,2.49,1.7l.15.09A8.62,8.62,0,0,1,58,29l.12.25a16.92,16.92,0,0,0,.48,1.66l.06.19,0,.2c-.21,1-.42,2.11-.65,3.15-.47,2.17-1,4.44-1.67,6.74l-1,3.47,0-.14c-.54,1.75-1,3.17-1.49,4.47s-.92,2.5-1.51,4l-1.35,3.4-.1-3.66a3.73,3.73,0,0,0-.1-.81,2.66,2.66,0,0,0-1.41-1.6.88.88,0,0,0-.2-.09l-.8-.36.31-.69a.51.51,0,0,0,.07-.34.54.54,0,0,0-.5-.43,2.62,2.62,0,0,0-.89.06,9.34,9.34,0,0,0-1.64.62l-.09,0a.8.8,0,0,1-.16.08l-2.35,1.14L44.61,48c.42-.38.87-.74,1.35-1.1h0l.77-.6a8.33,8.33,0,0,0,1.83-2l.27-.63h.51a5.24,5.24,0,0,0,1.45-.16l.73-.21a9.55,9.55,0,0,1,1.7-.41,2.68,2.68,0,0,1,1.77.37l.12.08L55,42.15l-2.23-.83A6.58,6.58,0,0,0,51,40.9a16.4,16.4,0,0,0-2.51-.08,2.64,2.64,0,0,0-1.14.2.87.87,0,0,0-.48.85,2.33,2.33,0,0,0,0,.28l.16.57-.53.28a5.38,5.38,0,0,0-1.86,1.75l-1.4,2,0-2.46a13,13,0,0,0-.52-4.06c-.08-.31-.17-.6-.25-.89l-.19-.64.55-.36a1.65,1.65,0,0,0,.39-.4l2.3-2.91c.15-.21.32-.43.49-.65.32-.42.65-.85.93-1.3a1.57,1.57,0,0,0-.08-2,1.65,1.65,0,0,0-2,.24,5.86,5.86,0,0,0-1.39,2c-.1.25-.2.54-.29.82l-1.46-.31a23.17,23.17,0,0,1,.42-2.3,12.89,12.89,0,0,0,.37-3.36l0-.58.56-.17a3.85,3.85,0,0,1,1.38-.06,4.84,4.84,0,0,0,.76,0A7.28,7.28,0,0,0,47.68,27l.47-.18a4.19,4.19,0,0,0,1.67-.93,1.1,1.1,0,0,0,.17-1,1.75,1.75,0,0,0-.74-.87l-.39-.26v-.52l.09-.62c0-.29.06-.54.1-.79l.09-.66c0-.14,0-.2,0-.24a3,3,0,0,0-.59,0,4.86,4.86,0,0,1-.54,0h-.42a2.9,2.9,0,0,0-1.74.27,6.8,6.8,0,0,0-2,2.43l-1.37-.58a11.83,11.83,0,0,1,.47-1.29,11.65,11.65,0,0,1,.92-1.78l.16-.24a5.59,5.59,0,0,0,.59-1l.08-.23-.26,0a1.71,1.71,0,0,0-.54.22,4.85,4.85,0,0,0-.87.71,3.2,3.2,0,0,0-.72,1.28l-1.1,3.59-.36-3.74a7.81,7.81,0,0,1,0-1.81c0-.15,0-.31.08-.47l.09-.46c0-.14,0-.29.08-.43l.13-.36a3.53,3.53,0,0,1,1.43-1.11l.11-.05a23.56,23.56,0,0,1,2.35-1.06c.79-.31,1.6-.57,2.47-.82a4.66,4.66,0,0,0,1.18-.49,1,1,0,0,0,.42-.38.39.39,0,0,0-.11-.45,3.52,3.52,0,0,0-2.22-.56h-.14a6.39,6.39,0,0,0-1.2.16l-2.13.52L45,10.65l.33-.09a1.58,1.58,0,0,0,.84-.38,1.94,1.94,0,0,0,.42-.57,2.59,2.59,0,0,0,.1-.24l-.1-.25L47,8.77a12.88,12.88,0,0,0,2.22-2.39l.52-.68A.92.92,0,0,0,50,5.06c0-.16-.29-.26-.47-.28a5.92,5.92,0,0,0-.83,0,6.8,6.8,0,0,0-2.57.86L43.89,6.93l1.18-2.26a4.3,4.3,0,0,0,.42-2.79c-.08-.3-.55-.26-.71-.23a3.13,3.13,0,0,0-1,.42,3.88,3.88,0,0,0-1.19,1.5l.54.36-.88.8-.41.3-.94.65-.22-1.13A6.46,6.46,0,0,0,40.17,3,4.89,4.89,0,0,0,37.25.71,8,8,0,0,0,35.41.27a2.41,2.41,0,0,0-1.72.38,1.69,1.69,0,0,0-.6,1.57,3.26,3.26,0,0,0,.77,1.65,5.11,5.11,0,0,0,.89.74L36,5.47l-1.44.47a.62.62,0,0,0-.23.12c0,.06,0,.21,0,.25a4.54,4.54,0,0,0,.33.53,11.9,11.9,0,0,0,1.49,1.52l.14.14A46.46,46.46,0,0,0,40,11.41l.48.33.06.27A7.36,7.36,0,0,1,40.74,14a12.07,12.07,0,0,1-.47,3.23c-.06.28-.13.54-.18.8a6.26,6.26,0,0,0-.17,1.86l.1,1.83-1.35-1.23a4.42,4.42,0,0,0-3.56-1.24c-.35,0-.92.22-1,.69a2,2,0,0,0,.29,1.37,5.88,5.88,0,0,0,2.13,2l.47.29A14.81,14.81,0,0,1,39,25a10.45,10.45,0,0,1,2.05,2.26l.18.27.55,1.26,0,.22a8.82,8.82,0,0,1-.22,1l0,.14A18.79,18.79,0,0,0,41,33l-.15,1.9-1.18-1.5a3.59,3.59,0,0,0-.91-.82,1.67,1.67,0,0,0-1.7-.1.77.77,0,0,0-.34.52,1.4,1.4,0,0,0,.21,1,7.23,7.23,0,0,0,1.17,1.35l.14.14a13.58,13.58,0,0,0,2.63,1.93l.56.3.31.75A34.65,34.65,0,0,1,42.45,42a15.19,15.19,0,0,1,.07,2.75l-.1,1.82L41.08,45a2.3,2.3,0,0,0-1.94-1.49c-.1,0-.35,0-.4.16a.91.91,0,0,0,.08.59,5.17,5.17,0,0,0,.75,1.07A7.57,7.57,0,0,0,41.67,47l.72.28,0,.73-.12-.29,0,.11c-.08.67-.16,1.31-.24,2l-.06,1.15-.08,0-.16,1.35h0l0,.42c0,.52-.08,1-.11,1.56,0,.84-.08,1.67-.1,2.51l-.05,2.33-1.32-1.93a7.27,7.27,0,0,0-1.48-1.61,2.62,2.62,0,0,0-2.59-.8.84.84,0,0,0-.42.39.74.74,0,0,0,0,.58,3.73,3.73,0,0,0,.68.87l.21.22c.53.51,1.12,1,1.7,1.49l.48.41a10.16,10.16,0,0,1,2,2.11c.14.2.26.38.37.57l.07.18c.14.49.28,1,.43,1.48l0,.16a68.21,68.21,0,0,0,.88,7.12l.41-.07,0-.17c-.19-1.76-.34-3.57-.44-5.55l-.09-1.74L44,64.19a5.11,5.11,0,0,1,1.32,1.59,3.53,3.53,0,0,1,.36,1.5v.18l-.08.17c-.34.68-.66,1.37-1,2.06h0c-.06.13-.11.26-.17.4l-.92,2.24v0l0,.17,0,.17c-.22.78-.43,1.58-.63,2.46a5.39,5.39,0,0,0-.21.87l-.09.22a.42.42,0,0,0-.06.24l0,.12.11,0a.56.56,0,0,0,.18-.27l0-.1c.09-.21.18-.4.26-.6l.22-.53.2,0-.06-.33.07-.18c.2-.55.37-1.11.52-1.65l.13-.44a7.81,7.81,0,0,1,.28-.86l.26-.57.21-.42c.41-.81.79-1.59,1.15-2.35l.08-.15.33-.6.09-.15.15-.1a5.63,5.63,0,0,1,1.86-.73c.73-.16,1.49-.32,2.24-.45l.46-.08A7,7,0,0,0,53,65.57a2.9,2.9,0,0,0,.91-.61,1.13,1.13,0,0,0,.36-.93c-.05-.24-.28-.38-.75-.47a3.61,3.61,0,0,0-1.1,0,4.57,4.57,0,0,0-2,.82c-.3.23-.63.45-1,.67l-2.74,1.88,1.15-2.48c1-2.22,2-4.55,3-6.93l.17-.43.46,0a3,3,0,0,1,1.21.24l.26.09a10.65,10.65,0,0,0,1.94.46,6.5,6.5,0,0,0,2,0,2,2,0,0,0,.91-.32.83.83,0,0,0,.38-.77c0-.08,0-.29-.5-.48l-1.53-.65,1.49-.72a2,2,0,0,0,.38-.21,1.43,1.43,0,0,0,.56-1.79.85.85,0,0,0-.8-.36,4.4,4.4,0,0,0-1.11.17,5.64,5.64,0,0,0-1.93,1l-.39.3c-.3.24-.62.48-.92.74L51.24,56.6l1.18-3.17c.21-.56.43-1.12.63-1.69.73-2,1.43-4.17,2.14-6.58l.38-1.3.62.7c.48,0,.91,0,1.33,0h1.37a11.12,11.12,0,0,0,1.81-.19l.25-.05a2,2,0,0,0,1.28-.63.31.31,0,0,0,0-.23.39.39,0,0,0-.16-.26,1.43,1.43,0,0,0-.45-.2l-2.57-.67,2.75-.83.36-.11a3.58,3.58,0,0,0,1.46-.9A3.07,3.07,0,0,0,64.38,39c.1-.67.15-1.38.19-2.07v-.1c0-.29,0-.59.07-.91l0-.28-3.1.16A4.48,4.48,0,0,0,60,36.1a2.64,2.64,0,0,0-1.14,1.1l-.05.08-2.55,4.28,1.18-4.84c.25-1,.5-2.11.75-3.19l.16-.72.26,0c.16-.15.31-.3.45-.46l.12-.11.26-.19.3-.22a9,9,0,0,1,3.07-1.75,5.35,5.35,0,0,0,2-1.28,2.46,2.46,0,0,0,.61-1.05,1,1,0,0,0-.23-1,1.48,1.48,0,0,0-1.12-.13c-.39.07-.79.17-1.21.27a3.87,3.87,0,0,0-2.06,1.19s0,0-.05.08l-2,2.6.63-3.19.27-1.44.06-.3.26-.18c.43-.29.88-.56,1.36-.84a20.65,20.65,0,0,0,1.75-1.12,6.65,6.65,0,0,0,1.41-1.39,1.44,1.44,0,0,0,.13-1.72.33.33,0,0,0-.15-.05l-2.24-.36,2-1.05A4.63,4.63,0,0,0,66,17.77c.23-.32.42-.63.62-.94a8.07,8.07,0,0,1,1.27-1.68,7.75,7.75,0,0,1,1.24-1,1,1,0,0,0,.46-.53A.61.61,0,0,0,69.3,13ZM50.51,57.22c-.88,2-1.73,3.88-2.6,5.68q-.48,1-1,2l-1.14,2.26-.37-2.29A7.76,7.76,0,0,0,45,63.25a3,3,0,0,0-.55-1l-.55-.69,1.05-.6c.4-.23.8-.46,1.18-.7A6.26,6.26,0,0,0,48,58.62a2,2,0,0,0,.23-2.22,1.69,1.69,0,0,0-2-.54,4,4,0,0,0-1.79,1.51,8.58,8.58,0,0,0-.64,1.14l-1.47,3.1,0-3.44v-.45c0-1.79.13-3.74.3-5.78l.08-1,.07-.11.58.32.91-.08a6,6,0,0,0,1.8-.28,3.4,3.4,0,0,0,.42-.15l.61-.25.44.49.21.22a14,14,0,0,1,1.38,1.8,11.58,11.58,0,0,1,1.19,2.39l0,.22a6.37,6.37,0,0,0,.2,1.21l.08.26Z" transform="translate(-1.42)"/><path class="cls-1" d="M37.69,50c.43.25.89.47,1.33.7s1.07.54,1.56.84l0,0v0c.27.17.52.34.77.53l.3.22L41,51.13l0-.05L40.55,50a6.42,6.42,0,0,0-1.28-1.79,4.5,4.5,0,0,0-3-1.44,2.59,2.59,0,0,0-1,.19.3.3,0,0,0-.19.15.41.41,0,0,0,0,.12,3.4,3.4,0,0,0,.21.56,3.61,3.61,0,0,0,.65.87A8.48,8.48,0,0,0,37.69,50Z" transform="translate(-1.42)"/><path class="cls-1" d="M111.67,28.52H112a4,4,0,0,0,3.16-1.36c.38-.48.56-1.26.19-1.65l-.07-.08A7.36,7.36,0,0,0,114,24.06L112.74,23l1.62,0,.27,0a.93.93,0,0,0,.82-.52.4.4,0,0,0,0-.4l-.06-.11a1.48,1.48,0,0,0-.21-.27L115,21.5a4.68,4.68,0,0,0-.76-.67,8.79,8.79,0,0,0-3.72-1.41,6,6,0,0,0-2.77.31l-1.74.62,1.24-1.9a8.18,8.18,0,0,0,.89-6.85l-.06-.17a2.5,2.5,0,0,0-.86-1.35,2.16,2.16,0,0,0-1.36-.11l-.34,0a4.09,4.09,0,0,0-2.87,1.78,6.07,6.07,0,0,0-.87,3.43,12.28,12.28,0,0,0,.17,1.5l.77,4.5-2-4.13-.28-.59a5.88,5.88,0,0,0-1.13-1.34L99.22,15l0-.34a1.62,1.62,0,0,0,0-.19,1.15,1.15,0,0,0-.68-.9.27.27,0,0,0-.24,0,.38.38,0,0,0-.19.21,1.34,1.34,0,0,0,0,.67L98.29,16c.16.72.31,1.43.43,2.14l.73,5.14-1.51-2.19a12.85,12.85,0,0,0-1.19-1.51,1.6,1.6,0,0,0-1.42-.65,1,1,0,0,0-.68.46,3.42,3.42,0,0,0-.29.82,9.39,9.39,0,0,0,0,3.26,23.51,23.51,0,0,1,.31,4.61l0,.15a12.13,12.13,0,0,0-.38,2l0,.38-.35.14a1.47,1.47,0,0,0-.56.38,4.75,4.75,0,0,0-.81,1.52c-.16.4-.29.8-.43,1.2L92,34l-.1.16c-1.18,1.31-2.48,2.66-3.84,4l-1.21,1.19L87,37.53c0-.06,0-.13,0-.19v-.15l.07-.12a12.94,12.94,0,0,0,1.76-4.67,7.73,7.73,0,0,0-.2-2.81,5.87,5.87,0,0,0-.52-1.3,1.15,1.15,0,0,0-.47-.42.54.54,0,0,0-.61.14,1.58,1.58,0,0,0-.3.48l-.36.88-.67-.69a1.94,1.94,0,0,0-1-.63,1.47,1.47,0,0,0-1,.13,1.15,1.15,0,0,0-.54.88,6.63,6.63,0,0,0,.89,2.88l.36.79a15.3,15.3,0,0,1,1.26,3.63,24.3,24.3,0,0,1,.49,3.25l0,.3-.94.9A6.59,6.59,0,0,0,84.07,42l-2.48,2.35c-1.57,1.49-3.16,3-4.75,4.56l-2,2,1-2.64a8.53,8.53,0,0,0,.56-3.19,7.68,7.68,0,0,0-.47-2.48,2.78,2.78,0,0,0-.63-1.07,1.11,1.11,0,0,0-1.13-.25,2.12,2.12,0,0,0-1.28,1.94A11.67,11.67,0,0,0,73,45.73a23.38,23.38,0,0,0,1.31,4.45l.34.9-.28.28c-1.46,1.48-2.54,2.63-3.53,3.72s-2.29,2.62-3.63,4.29l-1.58,2,.48-2.5a11.52,11.52,0,0,0,.18-1.32,8.42,8.42,0,0,0-.22-2.28,5.14,5.14,0,0,0-.38-1.07,1.51,1.51,0,0,0-.73-.81.52.52,0,0,0-.52.12,1.13,1.13,0,0,0-.27.55,4.78,4.78,0,0,0-.09,1.14,10.5,10.5,0,0,0,.38,2.27c.06.26.13.51.2.76a10.57,10.57,0,0,1,.53,3.64l0,.17-.1.14c-1.31,1.79-2.44,3.41-3.44,5a87.31,87.31,0,0,0-6.53,12.12l.27.13c2.4-4.24,4.51-7.65,6.63-10.72,1-1.5,2.15-3,3.25-4.38l.56-.72c.75-1,1.48-2,2.13-3s1-1.5,1.57-2.21a58.26,58.26,0,0,1,4.53-5.21l.12-.12.16-.05a16.48,16.48,0,0,1,4.17-.45l1.23,0c1.07-.05,2-.11,2.88-.23a1.84,1.84,0,0,0,1.19-.61A1.38,1.38,0,0,0,84,50.35,2.44,2.44,0,0,0,81.59,49a7.87,7.87,0,0,0-2.52.83l-3.19,1.47,11-11,.16,0c.18-.06.38-.1.58-.15l.12,0,.11,0a13.16,13.16,0,0,1,5,2.4l.4.28a16,16,0,0,0,3.3,1.72l.09,0a5.6,5.6,0,0,0,1.71.35.67.67,0,0,0,.64-.47,2.48,2.48,0,0,0,0-.81l0-.17a5.2,5.2,0,0,0-5.2-4.53l-.14,0h-.18l-2.28.16L93,37.82A9.41,9.41,0,0,0,94.13,37a5.23,5.23,0,0,0,1.63-3,4.48,4.48,0,0,0,0-1.64l-.12-.58.57-.16a32.84,32.84,0,0,1,4.81-.87l2.65-.34a3.29,3.29,0,0,0,1.18-.39c.41-.23.7-.68.5-1.05a1.25,1.25,0,0,0-1.11-.66l-1.14-.1.56-.86a1.22,1.22,0,0,0,.11-.24l.13-.42.44,0a9.65,9.65,0,0,1,4,.92A12.31,12.31,0,0,0,111.67,28.52Z" transform="translate(-1.42)"/><path class="cls-1" d="M18.3,96.2V84.27h3.78a3.89,3.89,0,0,1,2.71.92,3.16,3.16,0,0,1,1,2.47,3.25,3.25,0,0,1-.52,1.84,3,3,0,0,1-1.42,1.17,7.35,7.35,0,0,1-2.6.36H20V96.2Zm3.48-10.41H20v3.72h1.87a2.34,2.34,0,0,0,1.6-.49,1.73,1.73,0,0,0,.56-1.4C24,86.4,23.29,85.79,21.78,85.79Z" transform="translate(-1.42)"/><path class="cls-1" d="M29.09,88.35v1.8l.09-.13c.75-1.22,1.5-1.82,2.25-1.82a2.75,2.75,0,0,1,1.83.89l-.82,1.36a2.31,2.31,0,0,0-1.5-.77,1.61,1.61,0,0,0-1.3.72,2.69,2.69,0,0,0-.55,1.7v4.1H27.53V88.35Z" transform="translate(-1.42)"/><path class="cls-1" d="M38.44,88.34a4.09,4.09,0,0,1,3,1.15,3.88,3.88,0,0,1,1.18,2.9,3.7,3.7,0,0,1-1.2,2.82,4.25,4.25,0,0,1-3,1.12,4.1,4.1,0,0,1-2.95-1.14,3.77,3.77,0,0,1-1.18-2.84,3.81,3.81,0,0,1,1.2-2.87A4.18,4.18,0,0,1,38.44,88.34Zm-.08,1.39a2.46,2.46,0,0,0-1.84.74,2.58,2.58,0,0,0-.71,1.86,2.44,2.44,0,0,0,.73,1.84,2.83,2.83,0,0,0,3.76,0,2.68,2.68,0,0,0,0-3.69A2.66,2.66,0,0,0,38.36,89.73Z" transform="translate(-1.42)"/><path class="cls-1" d="M49.48,88.35h1.68l-3.46,8h-.53l-3.55-8h1.7l2.12,4.83Z" transform="translate(-1.42)"/><path class="cls-1" d="M59.35,92.41H53.84a2.57,2.57,0,0,0,.75,1.79,2.49,2.49,0,0,0,1.79.67,4.63,4.63,0,0,0,2.83-1v1.52a5.11,5.11,0,0,1-1.42.68,5.71,5.71,0,0,1-1.64.2,3.67,3.67,0,0,1-2.1-.53,3.84,3.84,0,0,1-1.28-1.45,4.4,4.4,0,0,1-.49-2.1,4.17,4.17,0,0,1,1-2.91,3.36,3.36,0,0,1,2.63-1.12,3.1,3.1,0,0,1,2.49,1.09,4.35,4.35,0,0,1,.93,2.92Zm-5.48-.93h4a2.15,2.15,0,0,0-.56-1.43,1.76,1.76,0,0,0-1.33-.5,1.91,1.91,0,0,0-1.37.5A2.51,2.51,0,0,0,53.87,91.48Z" transform="translate(-1.42)"/><path class="cls-1" d="M62.93,88.35v1a3.1,3.1,0,0,1,2.36-1.15,2.67,2.67,0,0,1,1.37.38,2.39,2.39,0,0,1,1,1,5,5,0,0,1,.33,2.09V96.2H66.39V91.73A3,3,0,0,0,66,90a1.39,1.39,0,0,0-1.22-.51,2.21,2.21,0,0,0-1.87,1.1v5.6H61.34V88.35Z" transform="translate(-1.42)"/><path class="cls-1" d="M76.34,94.36V95.9a6.52,6.52,0,0,1-2.29.43,3.77,3.77,0,0,1-4-4,4.2,4.2,0,0,1,1.07-3,3.68,3.68,0,0,1,2.8-1.13,5.15,5.15,0,0,1,1.09.11,7.41,7.41,0,0,1,1.19.43V90.4A4.13,4.13,0,0,0,74,89.65a2.22,2.22,0,0,0-1.73.74,2.66,2.66,0,0,0-.67,1.88,2.54,2.54,0,0,0,.73,1.91,2.69,2.69,0,0,0,2,.7A5.11,5.11,0,0,0,76.34,94.36Z" transform="translate(-1.42)"/><path class="cls-1" d="M85.13,92.41H79.62a2.57,2.57,0,0,0,.75,1.79,2.54,2.54,0,0,0,1.8.67,4.67,4.67,0,0,0,2.83-1v1.52a5.25,5.25,0,0,1-1.42.68,5.83,5.83,0,0,1-1.65.2,3.72,3.72,0,0,1-2.1-.53,3.92,3.92,0,0,1-1.28-1.45,4.4,4.4,0,0,1-.48-2.1,4.21,4.21,0,0,1,1-2.91,3.4,3.4,0,0,1,2.64-1.12,3.1,3.1,0,0,1,2.49,1.09,4.35,4.35,0,0,1,.92,2.92Zm-5.48-.93H83.6a2.15,2.15,0,0,0-.55-1.43,1.77,1.77,0,0,0-1.33-.5,1.88,1.88,0,0,0-1.37.5A2.45,2.45,0,0,0,79.65,91.48Z" transform="translate(-1.42)"/><path class="cls-1" d="M1.42,105.77a.22.22,0,0,1,.24-.23H3.1a.22.22,0,0,1,.24.23v14a.12.12,0,0,0,.14.14H7.7a.23.23,0,0,1,.24.24v1.3a.23.23,0,0,1-.24.24h-6a.23.23,0,0,1-.24-.24Z" transform="translate(-1.42)"/><path class="cls-1" d="M9.71,105.77a.22.22,0,0,1,.24-.23H16a.22.22,0,0,1,.24.23v1.31a.22.22,0,0,1-.24.23H11.78a.13.13,0,0,0-.15.15v5c0,.09,0,.14.15.14h3.69a.23.23,0,0,1,.24.24v1.3a.23.23,0,0,1-.24.24H11.78c-.1,0-.15,0-.15.14v5.19c0,.1,0,.14.15.14H16a.23.23,0,0,1,.24.24v1.3a.23.23,0,0,1-.24.24H10a.23.23,0,0,1-.24-.24Z" transform="translate(-1.42)"/><path class="cls-1" d="M18.22,105.77a.22.22,0,0,1,.24-.23h1.46a.31.31,0,0,1,.34.23l2.94,9.86h.09l2.87-9.86c0-.16.16-.23.35-.23H28a.22.22,0,0,1,.24.23v15.64a.23.23,0,0,1-.24.24H26.68a.23.23,0,0,1-.24-.24V110.25h-.12l-2.44,8.3a.3.3,0,0,1-.28.23h-.78a.28.28,0,0,1-.29-.23l-2.44-8.3H20v11.16a.22.22,0,0,1-.23.24H18.46a.23.23,0,0,1-.24-.24Z" transform="translate(-1.42)"/><path class="cls-1" d="M30.89,119.47c-.23-.71-.31-1.3-.31-5.88s.08-5.16.31-5.87a3.39,3.39,0,0,1,3.53-2.4,3.38,3.38,0,0,1,3.54,2.4c.23.71.3,1.3.3,5.87s-.07,5.17-.3,5.88a3.37,3.37,0,0,1-3.54,2.39A3.38,3.38,0,0,1,30.89,119.47Zm5.24-.55c.14-.47.19-.82.19-5.33s0-4.86-.19-5.33a1.66,1.66,0,0,0-1.71-1.14,1.63,1.63,0,0,0-1.68,1.14c-.16.47-.21.83-.21,5.33s0,4.86.21,5.33a1.62,1.62,0,0,0,1.68,1.14A1.65,1.65,0,0,0,36.13,118.92Z" transform="translate(-1.42)"/><path class="cls-1" d="M40.65,105.77a.22.22,0,0,1,.24-.23h1.78c.19,0,.31.07.35.23l3.61,12.09h.09V105.77a.22.22,0,0,1,.24-.23h1.25a.22.22,0,0,1,.24.23v15.64a.23.23,0,0,1-.24.24H46.53a.31.31,0,0,1-.35-.24L42.5,109.33h-.12v12.08a.22.22,0,0,1-.23.24H40.89a.23.23,0,0,1-.24-.24Z" transform="translate(-1.42)"/><path class="cls-1" d="M57.64,121.65a.23.23,0,0,1-.24-.24v-14c0-.1,0-.15-.14-.15H54.61a.22.22,0,0,1-.24-.23v-1.31a.22.22,0,0,1,.24-.23h7.51a.22.22,0,0,1,.24.23v1.31a.22.22,0,0,1-.24.23H59.47a.13.13,0,0,0-.15.15v14a.22.22,0,0,1-.23.24Z" transform="translate(-1.42)"/><path class="cls-1" d="M64,105.77a.22.22,0,0,1,.23-.23h1.45a.22.22,0,0,1,.23.23v6.59c0,.1.05.14.15.14h3.46a.12.12,0,0,0,.14-.14v-6.59a.22.22,0,0,1,.24-.23h1.44a.22.22,0,0,1,.24.23v15.64a.23.23,0,0,1-.24.24H69.87a.23.23,0,0,1-.24-.24v-7a.13.13,0,0,0-.14-.14H66c-.1,0-.15,0-.15.14v7a.22.22,0,0,1-.23.24H64.2a.22.22,0,0,1-.23-.24Z" transform="translate(-1.42)"/><path class="cls-1" d="M76.5,121.65a.23.23,0,0,1-.24-.24V115l-3.1-9.22c0-.14,0-.23.16-.23h1.5c.16,0,.23.07.28.23l2.11,6.76h.07l2.11-6.76c0-.16.12-.23.26-.23h1.47c.17,0,.21.09.17.23L78.18,115v6.42a.22.22,0,0,1-.23.24Z" transform="translate(-1.42)"/><path class="cls-1" d="M82.9,105.77a.22.22,0,0,1,.23-.23H84.6a.29.29,0,0,1,.33.23l2.94,9.86H88l2.86-9.86a.33.33,0,0,1,.36-.23h1.44a.22.22,0,0,1,.24.23v15.64a.23.23,0,0,1-.24.24H91.36a.23.23,0,0,1-.24-.24V110.25H91l-2.44,8.3a.3.3,0,0,1-.29.23h-.78c-.16,0-.23-.09-.28-.23l-2.44-8.3h-.12v11.16a.23.23,0,0,1-.24.24H83.13a.22.22,0,0,1-.23-.24Z" transform="translate(-1.42)"/><path class="cls-1" d="M95.52,105.77a.22.22,0,0,1,.24-.23h6.09a.22.22,0,0,1,.24.23v1.31a.22.22,0,0,1-.24.23H97.58c-.09,0-.14,0-.14.15v5a.13.13,0,0,0,.14.14h3.7a.23.23,0,0,1,.24.24v1.3a.23.23,0,0,1-.24.24h-3.7a.13.13,0,0,0-.14.14v5.19a.12.12,0,0,0,.14.14h4.27a.23.23,0,0,1,.24.24v1.3a.23.23,0,0,1-.24.24H95.76a.23.23,0,0,1-.24-.24Z" transform="translate(-1.42)"/><path d="M94.75,29.76a8.73,8.73,0,0,1,2.19-2.34c.79-.7,1.93-1,2.51-2.14s-.16-2.27-.68-3.17a16.18,16.18,0,0,0-1.93-2.65,1.76,1.76,0,0,0-1.55-.68,1.12,1.12,0,0,0-.76.54,3,3,0,0,0-.29.82,9.2,9.2,0,0,0,0,3.31,21.14,21.14,0,0,1,.14,6.45h0a16.45,16.45,0,0,0,.23-6.52,10.22,10.22,0,0,1,0-3.17c.1-.52.26-1,.73-1.13a1.48,1.48,0,0,1,1.33.53,12.37,12.37,0,0,1,2,2.56c.52.9,1,2.05.5,2.95s-1.6,1.31-2.41,2.05a7.32,7.32,0,0,0-2,2.56Z" transform="translate(-1.42)"/><path d="M95.86,21.34c-.07.9-.18,1.76-.3,2.64A9.41,9.41,0,0,1,95,26.59a11.36,11.36,0,0,0-.86,5.28h0c.24-1.77.71-3.45,1-5.22A26.23,26.23,0,0,1,95.89,24a6.3,6.3,0,0,0,0-2.7Z" transform="translate(-1.42)"/><path d="M86.9,37.69A14.39,14.39,0,0,0,89,32.42a7.75,7.75,0,0,0-.19-2.84,5.86,5.86,0,0,0-.53-1.33,1.27,1.27,0,0,0-.55-.5.66.66,0,0,0-.75.18,2.28,2.28,0,0,0-.52,1.37,13.86,13.86,0,0,0-.08,1.43,26.73,26.73,0,0,0,.19,2.84,27,27,0,0,1,.3,5.6h0A17.28,17.28,0,0,0,87,33.53c-.08-.94-.19-1.87-.23-2.8s-.14-1.94.38-2.65c.27-.37.8-.15,1,.25a4.09,4.09,0,0,1,.51,1.28,6.8,6.8,0,0,1,0,2.77,25.22,25.22,0,0,1-1.8,5.29Z" transform="translate(-1.42)"/><path d="M86.34,29.2a2.85,2.85,0,0,0-1.54-1.26,1.49,1.49,0,0,0-1.07.14,1.18,1.18,0,0,0-.59.92,9.29,9.29,0,0,0,1.24,3.75,15.27,15.27,0,0,1,1.27,3.64,23.53,23.53,0,0,1,.55,3.84h0a11.55,11.55,0,0,0-.18-3.93,10.6,10.6,0,0,0-1.48-3.65,5.55,5.55,0,0,1-1.1-3.6,1,1,0,0,1,1.26-.81,3.38,3.38,0,0,1,1.57,1Z" transform="translate(-1.42)"/><path d="M87.82,39.62a9.62,9.62,0,0,0,6.39-2.55,5.46,5.46,0,0,0,1.68-3,3.54,3.54,0,0,0-1-3.28,1.14,1.14,0,0,0-.9-.25,1.54,1.54,0,0,0-.81.49,5,5,0,0,0-.84,1.57c-.42,1.1-.74,2.21-1.2,3.24a6.8,6.8,0,0,1-2,2.67,18.15,18.15,0,0,1-3,1.75l0,0a13.59,13.59,0,0,0,3.12-1.56A6.34,6.34,0,0,0,91.57,36a31.56,31.56,0,0,0,1.18-3.29,5.08,5.08,0,0,1,.72-1.5.92.92,0,0,1,1.34-.26A3.21,3.21,0,0,1,95.75,34,4.9,4.9,0,0,1,94,36.82a11.61,11.61,0,0,1-6.16,2.76Z" transform="translate(-1.42)"/><path d="M86.41,40.17C89,40,91.1,41.54,93.13,42.9a15.81,15.81,0,0,0,3.33,1.75,6.16,6.16,0,0,0,1.86.38.81.81,0,0,0,.76-.61,3.15,3.15,0,0,0,0-1,5.34,5.34,0,0,0-5.35-4.64,26.69,26.69,0,0,0-3.72.57c-1.23.23-2.46.46-3.68.73v0c2.47-.25,5-.73,7.4-.92a5.21,5.21,0,0,1,5.12,4.26c.12.56.13,1.35-.55,1.38a4.69,4.69,0,0,1-1.8-.35,13.9,13.9,0,0,1-3.19-1.89,18.45,18.45,0,0,0-3.22-2,6.07,6.07,0,0,0-3.7-.54Z" transform="translate(-1.42)"/><path d="M96,29.88l-1.26.17s-.08,0,0,0,.13.13.07.16,0,0,0,0h0l.15,0,.31-.06.62-.13c.84-.18,1.67-.36,2.49-.58s1.64-.48,2.46-.69a8.81,8.81,0,0,0,2.44-.83,1.36,1.36,0,0,0,.71-1.17.74.74,0,0,0-.57-.54,2.69,2.69,0,0,0-.68-.06,5.67,5.67,0,0,0-2.53.66c-1.57.77-2.81,2-4.28,2.81v0c1.61-.62,3-1.75,4.45-2.46a6.18,6.18,0,0,1,2.36-.66c.39,0,.87,0,.93.28s-.23.7-.53.94a6.21,6.21,0,0,1-2.34.86c-.83.2-1.67.33-2.51.5s-1.65.39-2.48.6l-.61.18-.31.09-.16,0,0,0h-.05l0,0c-.06,0,0,.2.07.16h.13c.41-.1.82-.23,1.23-.34Z" transform="translate(-1.42)"/><path d="M95.78,31.85a31.75,31.75,0,0,1,5.2-1l2.64-.35a3.32,3.32,0,0,0,1.29-.42,1,1,0,0,0,.5-1.23,1.39,1.39,0,0,0-1.21-.69,4.83,4.83,0,0,0-1.37,0,14.87,14.87,0,0,0-2.6.71,9.5,9.5,0,0,0-4.47,2.89l0,0a12,12,0,0,1,4.57-2.52,21.89,21.89,0,0,1,2.53-.73,6.09,6.09,0,0,1,1.28-.1,1.15,1.15,0,0,1,1,.48.76.76,0,0,1-.38,1,2.63,2.63,0,0,1-1.22.4c-.88.1-1.78.09-2.66.15a15,15,0,0,0-5.18,1.28Z" transform="translate(-1.42)"/><path d="M104,26.81c2.69-.27,4.89,1.6,7.61,1.83a4.23,4.23,0,0,0,3.64-1.38,1.5,1.5,0,0,0,.14-1.89A7.53,7.53,0,0,0,114,24,8.53,8.53,0,0,0,106.52,22a7.41,7.41,0,0,0-4.7,3.53c-.32.54-.65,1.18-1.31,1.33v0c.7-.1,1.12-.74,1.47-1.27a7.43,7.43,0,0,1,1.25-1.48,8.09,8.09,0,0,1,3.38-1.74,8.74,8.74,0,0,1,7.28,1.7,7.37,7.37,0,0,1,1.39,1.34,1.27,1.27,0,0,1-.11,1.71,3.9,3.9,0,0,1-3.5,1.14,17.62,17.62,0,0,1-3.74-1.07,7.48,7.48,0,0,0-3.91-.47Z" transform="translate(-1.42)"/><path d="M112.28,25.13a10.47,10.47,0,0,0-3.12-.7c-1.07,0-2.13,0-3.2.06a8.41,8.41,0,0,0-5.81,2.45l0,0A15.39,15.39,0,0,1,106,24.71a8.56,8.56,0,0,1,3.15.05l3.14.41Z" transform="translate(-1.42)"/><path d="M113.66,23.18a4,4,0,0,1,1-.11,1.09,1.09,0,0,0,.92-.61.63.63,0,0,0-.1-.6,2.2,2.2,0,0,0-.33-.43,6.23,6.23,0,0,0-.77-.69,9.07,9.07,0,0,0-3.79-1.45,6.07,6.07,0,0,0-4,.86A6,6,0,0,0,104,23.28h0a7.37,7.37,0,0,1,6.48-3.78,5.6,5.6,0,0,1,3.6,1.49c.25.21.48.44.72.67s.48.47.39.69a.88.88,0,0,1-.65.5,3.21,3.21,0,0,0-1,.28Z" transform="translate(-1.42)"/><path d="M107.38,18.52a8.27,8.27,0,0,0,.92-6.94,3.1,3.1,0,0,0-.93-1.58,2.83,2.83,0,0,0-1.81-.11,4.25,4.25,0,0,0-3,1.86,6,6,0,0,0-.88,3.48,16.7,16.7,0,0,0,.61,3.54,12.08,12.08,0,0,1,.5,3.44,5.3,5.3,0,0,1-1.62,3l0,0a5,5,0,0,0,1.88-3,10.22,10.22,0,0,0-.39-3.58,22.09,22.09,0,0,1-.63-3.46,6.08,6.08,0,0,1,.69-3.35A3.85,3.85,0,0,1,105.58,10a2.44,2.44,0,0,1,1.66.16,3,3,0,0,1,.74,1.49,9.55,9.55,0,0,1-.63,6.82Z" transform="translate(-1.42)"/><path d="M105,13.3a12.52,12.52,0,0,0-.84,3.81,15.52,15.52,0,0,1-.5,3.85,12.51,12.51,0,0,1-1.56,3.47c-.71,1-1.69,1.92-2.51,2.94l0,0a14.86,14.86,0,0,0,2.82-2.73A9.06,9.06,0,0,0,103.84,21c.2-1.29.38-2.58.61-3.86s.3-2.56.55-3.84Z" transform="translate(-1.42)"/><path d="M99.65,23.07a14.09,14.09,0,0,0,.21-4.93c-.11-.82-.28-1.63-.4-2.44-.08-.4-.1-.81-.2-1.22a1.28,1.28,0,0,0-.78-1,.49.49,0,0,0-.6.39,1.52,1.52,0,0,0,0,.67l.25,1.21c.18.81.36,1.6.49,2.4L99.28,23h0A30.16,30.16,0,0,0,99,18.07a21.5,21.5,0,0,0-.52-2.41l-.32-1.18c-.11-.36-.06-.85.27-.8a1.11,1.11,0,0,1,.68.83,8,8,0,0,1,.2,1.21c.11.81.15,1.63.2,2.45a31.92,31.92,0,0,1,.09,4.89Z" transform="translate(-1.42)"/><path d="M99.08,14.77l1.28,1.89a5.75,5.75,0,0,1,1.11,2c.46,1.46.81,2.9,1.14,4.41h0a7.92,7.92,0,0,0-1-4.5c-.38-.67-.68-1.38-1-2.08a6,6,0,0,0-1.54-1.74Z" transform="translate(-1.42)"/><path d="M101.35,25A9,9,0,0,0,99,26.1c-.68.53-1.33,1.09-2,1.58a13.2,13.2,0,0,0-1.92,1.75,4.31,4.31,0,0,0-.91,2.44h0a7.57,7.57,0,0,1,1.19-2.19l1.75-1.84a7.36,7.36,0,0,1,2.07-1.47c.74-.43,1.45-.88,2.16-1.39Z" transform="translate(-1.42)"/><path d="M92.26,33.58c-3.34,3.8-7.08,7.2-10.75,10.68s-7.34,7-10.73,10.74a90.74,90.74,0,0,0-9.22,12.06,88.72,88.72,0,0,0-7.1,13.42h0a121.23,121.23,0,0,1,7.39-13.22A111.06,111.06,0,0,1,71,55.15,114.08,114.08,0,0,1,81.72,44.49q2.82-2.54,5.49-5.24a66.14,66.14,0,0,0,5.08-5.64Z" transform="translate(-1.42)"/><path d="M87.23,40.08c-1.61,1.39-3.15,2.85-4.68,4.32s-3.06,3-4.52,4.49S75.11,52,73.68,53.54s-2.91,3.1-4.21,4.79l-3.83,5.08c-1.3,1.68-2.63,3.34-3.84,5.1a89.47,89.47,0,0,0-6.39,11h0c2.09-3.69,4.28-7.32,6.68-10.81,1.19-1.75,2.51-3.41,3.8-5.09s2.46-3.47,3.72-5.18a95,95,0,0,1,8.6-9.35l9-9Z" transform="translate(-1.42)"/><path d="M65.12,62a10.07,10.07,0,0,0,1.33-4.42,8.63,8.63,0,0,0-.23-2.32,5,5,0,0,0-.38-1.1,1.6,1.6,0,0,0-.81-.87.63.63,0,0,0-.65.16,1.13,1.13,0,0,0-.3.57A5.35,5.35,0,0,0,64,55.19a9.79,9.79,0,0,0,.38,2.3A12.78,12.78,0,0,1,65.09,62h0a9,9,0,0,0-.35-4.58,14.38,14.38,0,0,1-.4-2.22,6.71,6.71,0,0,1,0-1.1c.05-.35.26-.67.59-.59.66.23,1,1.1,1.12,1.79a7.14,7.14,0,0,1,0,2.26,18.38,18.38,0,0,1-1,4.43Z" transform="translate(-1.42)"/><path d="M75.15,49.9a8.44,8.44,0,0,0,1.35-4.85A7.77,7.77,0,0,0,76,42.53a2.73,2.73,0,0,0-.66-1.12,1.23,1.23,0,0,0-1.26-.26,2.23,2.23,0,0,0-1.36,2.05,11.35,11.35,0,0,0,.17,2.54,24.53,24.53,0,0,0,1.45,4.86l.14.36.23-.3a3.63,3.63,0,0,0,.66-1.82,9,9,0,0,0,0-1.88c-.13-1.23-.26-2.46-.44-3.68h0c0,1.23.1,2.46.17,3.68a7.89,7.89,0,0,1,0,1.82,3.22,3.22,0,0,1-.6,1.61l.37.05a36.82,36.82,0,0,1-1.57-4.76,10.33,10.33,0,0,1-.27-2.47,2,2,0,0,1,1.22-1.93,1,1,0,0,1,1.07.27,2.51,2.51,0,0,1,.53,1.07,9.82,9.82,0,0,1-.63,7.25Z" transform="translate(-1.42)"/><path d="M74.12,53.2a21.27,21.27,0,0,1,5.64-.55c.95,0,1.91-.1,2.86-.23a2.06,2.06,0,0,0,1.3-.65,1.56,1.56,0,0,0,.18-1.45,2.55,2.55,0,0,0-2.49-1.42,8.3,8.3,0,0,0-2.77.92,21.18,21.18,0,0,0-2.51,1.4c-.21.13-.41.27-.6.41l-.29.22L75.3,52l-.07.07,0,.06s-.06.07,0,.17h.08a3.13,3.13,0,0,0,.66-.34l.31-.19s.09,0,0-.11l-.07,0-.16.09,0,0,.17-.08.08,0c-.08-.13-.07,0-.11,0l-.33.14a4,4,0,0,1-.63.26s0,0,0,0,0,.12.06.12h0l.06,0,.14-.1.3-.19.61-.36c.82-.46,1.67-.89,2.53-1.29a9.36,9.36,0,0,1,2.61-.92,2.29,2.29,0,0,1,2.26,1.13,1.28,1.28,0,0,1-.09,1.27,1.72,1.72,0,0,1-1.2.6,22.41,22.41,0,0,1-2.84,0,13.09,13.09,0,0,0-5.65.85Z" transform="translate(-1.42)"/><path d="M80.24,50.83a4.4,4.4,0,0,0-1.66.19,7.56,7.56,0,0,1-1.58.54,5.09,5.09,0,0,0-2.9,1.6l0,0c1-.48,2-.93,2.94-1.44a4,4,0,0,1,1.59-.41,8.2,8.2,0,0,0,1.58-.48Z" transform="translate(-1.42)"/><path d="M65.36,54.41A3.52,3.52,0,0,0,65.15,56a6.47,6.47,0,0,1,.18,1.63,21.81,21.81,0,0,0,.2,3.23h0a5.89,5.89,0,0,0,0-3.25A4.21,4.21,0,0,1,65.49,56a10.94,10.94,0,0,0-.09-1.61Z" transform="translate(-1.42)"/><path d="M94.21,32.79c-.43.86-.81,1.72-1.21,2.57a5.56,5.56,0,0,1-1.58,2.3,19.36,19.36,0,0,1-5,2.58l0,0a8.42,8.42,0,0,0,5.11-2.46,21.63,21.63,0,0,0,1.72-2.31,8.7,8.7,0,0,0,1-2.7Z" transform="translate(-1.42)"/><path d="M95,41.2A7.4,7.4,0,0,0,92.12,40c-1-.14-2.07-.16-3.11-.21a6.9,6.9,0,0,0-3.09.54,6.41,6.41,0,0,0-2.34,2.07l0,0a11.32,11.32,0,0,1,2.49-1.72A10.48,10.48,0,0,1,89,40a7.23,7.23,0,0,1,3,.32c1,.25,2,.54,2.92.89Z" transform="translate(-1.42)"/><path d="M84.5,30.07a2.09,2.09,0,0,0,.41,1.29,3.94,3.94,0,0,1,.79,1.09c.38.8.72,1.55,1.17,2.34h0a3.46,3.46,0,0,0-1-2.46,3,3,0,0,1-.68-1.13c-.2-.39-.42-.74-.66-1.13Z" transform="translate(-1.42)"/><path d="M107.41,16.94a5.76,5.76,0,0,0,0-3.11,4.71,4.71,0,0,0-.66-1.42,1.57,1.57,0,0,0-1.42-.65,3.1,3.1,0,0,0-2.42,2,6.86,6.86,0,0,0-.46,3.09h0a14,14,0,0,1,.81-2.92,3.26,3.26,0,0,1,2.06-1.9,1.17,1.17,0,0,1,1.27.51,3.83,3.83,0,0,1,.46,1.42,13.8,13.8,0,0,1,.27,3Z" transform="translate(-1.42)"/><path d="M108.64,22.65c.93.48,1.88.88,2.81,1.32a8.1,8.1,0,0,1,1.36.73,1.26,1.26,0,0,1,.68,1.21,1.72,1.72,0,0,1-.85,1.1,4,4,0,0,1-1.41.38,15,15,0,0,1-3.07,0v0a7.49,7.49,0,0,0,3.12.4,3.57,3.57,0,0,0,1.57-.47,1.91,1.91,0,0,0,.87-1.4,1.7,1.7,0,0,0-.82-1.35,12,12,0,0,0-1.29-.92,11.07,11.07,0,0,0-2.95-1.06Z" transform="translate(-1.42)"/><path d="M107.76,20.08a7.29,7.29,0,0,0,1.91.19,3.43,3.43,0,0,1,1.88.13,2.33,2.33,0,0,1,1.35,1c0,.14,0,.11,0,.17a2.65,2.65,0,0,1-.41.18,8.5,8.5,0,0,0-.86.42v0a8.36,8.36,0,0,0,1-.16,3.71,3.71,0,0,0,.49-.14.41.41,0,0,0,.25-.3.57.57,0,0,0,0-.35,2,2,0,0,0-1.69-1.08l-1.91-.26a7.8,7.8,0,0,0-1.93.11Z" transform="translate(-1.42)"/><path d="M98.73,25.39a2.45,2.45,0,0,0,.06-2,8.56,8.56,0,0,0-1.17-1.68,2.76,2.76,0,0,0-1.83-1,1.49,1.49,0,0,0-1.36,1.49h0c.28-.6.76-1.1,1.31-1.08a3.66,3.66,0,0,1,1.69.73,2.54,2.54,0,0,1,1,1.63,5.22,5.22,0,0,1,.22,1.9Z" transform="translate(-1.42)"/><path d="M95.31,34.91a2,2,0,0,0,.13-1.56A4.74,4.74,0,0,0,94.56,32a.93.93,0,0,0-.85-.21,1.66,1.66,0,0,0-.73.46,2.35,2.35,0,0,0-.66,1.44h0a6.27,6.27,0,0,1,.92-1.15c.34-.32.72-.6,1.15-.37a1.46,1.46,0,0,1,.69,1.23,8.71,8.71,0,0,1,.15,1.47Z" transform="translate(-1.42)"/><path d="M95.26,39.67c.46.38.94.67,1.32,1a1.46,1.46,0,0,1,.53,1.47A1.33,1.33,0,0,1,96,43a3.24,3.24,0,0,1-1.62-.14l0,0a2,2,0,0,0,1.7.51,1.39,1.39,0,0,0,1.31-1.23,3.22,3.22,0,0,0-.5-1.72,2.73,2.73,0,0,0-1.55-.87Z" transform="translate(-1.42)"/><path d="M102,28.9a1.25,1.25,0,0,0,.69.13.63.63,0,0,1,.65.07c.2.15.25.29.24.36s-.14.27-.25.52l0,0c.23,0,.58-.11.65-.49s-.36-.62-.58-.63a2.08,2.08,0,0,1-.72-.19.9.9,0,0,0-.7.16Z" transform="translate(-1.42)"/><path d="M100.62,27.24a.6.6,0,0,0,.52.13c.14-.09.36-.11.4.06s0,.08-.11.23a.9.9,0,0,0-.22.48l0,0a.87.87,0,0,0,.52-.24.46.46,0,0,0,.15-.32c0-.17-.12-.29-.2-.35a4.08,4.08,0,0,1-.56-.22.65.65,0,0,0-.52.16Z" transform="translate(-1.42)"/><path d="M88.57,30.94a1.18,1.18,0,0,0,.11-1.11,1.79,1.79,0,0,0-.87-.76.92.92,0,0,0-1.07.49,1.34,1.34,0,0,0-.13,1.13h0a5.15,5.15,0,0,1,.44-.91c.18-.23.38-.5.68-.49s.59.33.6.64.1.63.16,1Z" transform="translate(-1.42)"/><path d="M86.26,29.58a1.08,1.08,0,0,0-.71-.7,1.87,1.87,0,0,0-1,.22A1.1,1.1,0,0,0,84,30a1.15,1.15,0,0,0,.32,1l0,0a2.5,2.5,0,0,1,.38-1.61.53.53,0,0,1,.76-.09,8.07,8.07,0,0,0,.79.41Z" transform="translate(-1.42)"/><path d="M75.85,43.52a1.49,1.49,0,0,0-.45-1.19,1.92,1.92,0,0,0-1.22-.46,1.11,1.11,0,0,0-.89,1,2.45,2.45,0,0,0,.26,1.26h0c.1-.42,0-.83.12-1.18a1.15,1.15,0,0,1,.52-.85c.36-.18.76.13.92.47a10.92,10.92,0,0,1,.66,1Z" transform="translate(-1.42)"/><path d="M80.44,49.82a6.54,6.54,0,0,0,1.33.21.94.94,0,0,1,1,.72,1,1,0,0,1-.44,1c-.33.26-.76.37-1.15.67v0a2.82,2.82,0,0,0,1.39-.38,1.1,1.1,0,0,0,.4-1.41,2.39,2.39,0,0,0-1.08-1,2.85,2.85,0,0,0-1.42.08Z" transform="translate(-1.42)"/><path d="M60.35,20a12.65,12.65,0,0,0-3.44-5.17,6.77,6.77,0,0,1-1.82-2.44,2.41,2.41,0,0,1-.17-.74.43.43,0,0,1,.45-.41,5.74,5.74,0,0,1,1.49.28,30.63,30.63,0,0,1,2.94,1c1,.38,2,.69,2.06,1.75a10.93,10.93,0,0,1-1.31,5.9l0,0a9.56,9.56,0,0,0,1.69-6,1.8,1.8,0,0,0-.87-1.43,9.22,9.22,0,0,0-1.47-.62,24.55,24.55,0,0,0-3-.83,5.71,5.71,0,0,0-1.56-.22.58.58,0,0,0-.56.57,3.27,3.27,0,0,0,.16.78,7.81,7.81,0,0,0,1.71,2.63,18.14,18.14,0,0,1,3.65,5Z" transform="translate(-1.42)"/><path d="M57.47,12.83A7.92,7.92,0,0,0,58.7,14.5a4.17,4.17,0,0,1,1.19,1.66,11.75,11.75,0,0,1,.44,4h0a6.34,6.34,0,0,0,.33-2.08,3.92,3.92,0,0,0-.61-2L59,14.29a8.52,8.52,0,0,0-1.46-1.48Z" transform="translate(-1.42)"/><path d="M60.47,20.17q1.8-2.66,3.38-5.43a2.94,2.94,0,0,1,1-1.16A5.14,5.14,0,0,1,66.3,13a7.56,7.56,0,0,1,1.57-.25,2,2,0,0,1,1.45.24.59.59,0,0,1,.21.6,1,1,0,0,1-.48.48,6.22,6.22,0,0,0-1.31,1,13.72,13.72,0,0,0-1.91,2.59c-1.22,1.72-3.45,2.24-5.49,2.72v0a14.23,14.23,0,0,0,3.15-.65,5.35,5.35,0,0,0,2.68-1.86A17.18,17.18,0,0,1,68,15.34a7.69,7.69,0,0,1,1.21-1,1.26,1.26,0,0,0,.57-.68.84.84,0,0,0-.32-.83,2.22,2.22,0,0,0-1.62-.23c-.53.06-1.06.16-1.59.27a7,7,0,0,0-1.54.51,3.08,3.08,0,0,0-1.15,1.17c-1.12,1.83-2.17,3.68-3.13,5.59Z" transform="translate(-1.42)"/><path d="M60.3,22.4A11.48,11.48,0,0,1,60.47,21a2.54,2.54,0,0,0,0-1.4h.1c-.87,4.88-1.45,10-2.47,14.89A99.49,99.49,0,0,1,53.93,49,132.42,132.42,0,0,1,48,62.94c-1.12,2.26-2.36,4.46-3.41,6.75a33.3,33.3,0,0,0-2.16,7.21l-.17,0a10.91,10.91,0,0,1,.35-1.68c.24-.56.61-1,.88-1.49.58-1,1.09-2,1.59-3,1-2,2-4.12,2.88-6.21q2.76-6.27,5-12.74c1.46-4.31,2.87-8.65,4.05-13.07s2.21-8.86,3.1-13.34Zm-.14,2.91Q58.92,32,57.23,38.7c-1.15,4.42-2.4,8.82-3.95,13.13S50,60.37,48.13,64.53c-.93,2.09-1.92,4.15-3,6.19-.5,1-1,2.06-1.57,3-.27.51-.65,1-.86,1.47a12.5,12.5,0,0,0-.33,1.66l-.17,0a33.62,33.62,0,0,1,2.11-7.27c1-2.31,2.25-4.52,3.33-6.8a139.28,139.28,0,0,0,5.88-13.91,114.28,114.28,0,0,0,4.14-14.51c1.1-4.92,1.74-9.92,2.71-14.88l0-.15.07.15a2.64,2.64,0,0,1,0,1.47,14.2,14.2,0,0,0-.19,1.44l-.22,2.91" transform="translate(-1.42)"/><path d="M65.71,13.12a4.72,4.72,0,0,0,1-2.49,1.27,1.27,0,0,0-.57-1.25,2.31,2.31,0,0,0-1.35-.09,4.87,4.87,0,0,0-2.46,1.15A3.86,3.86,0,0,0,61,12.78h0a6.26,6.26,0,0,1,3.79-3.28,1.53,1.53,0,0,1,1.24,0c.38.22.36.7.29,1.1a12.64,12.64,0,0,1-.69,2.5Z" transform="translate(-1.42)"/><path d="M59.51,23.9a4.5,4.5,0,0,0-2.46-2.31A33.62,33.62,0,0,0,54,20.1,28,28,0,0,0,50.72,19c-1-.31-2.34-.45-2.93-1.41l0,.14a6.24,6.24,0,0,1,3.65.14,36.92,36.92,0,0,1,3.53,1.24,9.74,9.74,0,0,1,3.12,2,7.79,7.79,0,0,1,1.59,3.34h0a7.09,7.09,0,0,0-1.39-3.53,8.34,8.34,0,0,0-3.18-2.13,27.37,27.37,0,0,0-3.61-1.22,6.59,6.59,0,0,0-3.81,0l-.11,0,.06.1c.72,1.05,2,1.08,3.06,1.46a31.79,31.79,0,0,1,3.16,1.23c1,.45,2,.95,3.07,1.45a4.76,4.76,0,0,1,2.56,2.05Z" transform="translate(-1.42)"/><path d="M59.94,26q.87-1.82,1.86-3.51A5.16,5.16,0,0,1,63.06,21a3.16,3.16,0,0,1,.86-.48.77.77,0,0,1,.84,0c.36.46.08,1.19-.28,1.64a8.48,8.48,0,0,1-1.41,1.33A24.62,24.62,0,0,0,59.91,26l0,0c1.08-.79,2.29-1.34,3.38-2.15a6.64,6.64,0,0,0,1.46-1.44,1.63,1.63,0,0,0,.13-2,1,1,0,0,0-1,0,5.11,5.11,0,0,0-.88.5,6.15,6.15,0,0,0-1.46,1.42A11.86,11.86,0,0,0,59.91,26Z" transform="translate(-1.42)"/><path d="M58.4,31.05a5.78,5.78,0,0,0-.3-2.1c-.28-.66-.58-1.28-.84-1.95a4.59,4.59,0,0,0-3-2.82l0,0a10.46,10.46,0,0,1,2.88,2.9,4.42,4.42,0,0,1,.71,1.94,18.83,18.83,0,0,0,.58,2Z" transform="translate(-1.42)"/><path d="M58.75,31a6.93,6.93,0,0,0-4-4.89A12.06,12.06,0,0,1,52,24.46a1.92,1.92,0,0,1-.8-1.3,1.14,1.14,0,0,1,1-1,7.3,7.3,0,0,1,3.12.3,3,3,0,0,1,2,2.16A21.92,21.92,0,0,1,58.41,31h0a16.73,16.73,0,0,0-.81-6.43,3.81,3.81,0,0,0-.79-1.5,3.41,3.41,0,0,0-1.45-.9A6.92,6.92,0,0,0,52.11,22,1.31,1.31,0,0,0,51,23.16a2.34,2.34,0,0,0,.86,1.4,13.88,13.88,0,0,0,2.69,1.83A7.94,7.94,0,0,1,58.71,31Z" transform="translate(-1.42)"/><path d="M58.74,32.51a3.64,3.64,0,0,0,1.55-2c.24-.86.14-1.72.63-2.36a3.53,3.53,0,0,1,2-1.35,7.39,7.39,0,0,1,1.22-.27,1.39,1.39,0,0,1,1.13.22,1,1,0,0,1,.16,1,2.73,2.73,0,0,1-.64,1A6.39,6.39,0,0,1,62.69,30a6.87,6.87,0,0,0-2.23,1.26c-.65.56-1.22,1.17-1.86,1.72l0,0c1.44-.93,2.59-2.17,4.23-2.62A5.86,5.86,0,0,0,65.05,29a2.82,2.82,0,0,0,.66-1.15,1.22,1.22,0,0,0-.31-1.3,1.69,1.69,0,0,0-1.29-.19c-.43.08-.83.17-1.25.27A4,4,0,0,0,60.65,28c-.61.73-.48,1.72-.67,2.46a4,4,0,0,1-1.27,2.07Z" transform="translate(-1.42)"/><path d="M62.38,28a5.23,5.23,0,0,0-1.07,1.23,5,5,0,0,1-.92,1.35,9.43,9.43,0,0,0-1.84,2.7l0,0a9.16,9.16,0,0,0,2-2.58,5.06,5.06,0,0,1,1-1.29A5.35,5.35,0,0,0,62.41,28Z" transform="translate(-1.42)"/><path d="M55.11,42.93A9.4,9.4,0,0,0,53,39.24a7,7,0,0,1-1.12-1.77,2.24,2.24,0,0,1-.2-1c0-.34.45-.39.76-.32A2.16,2.16,0,0,1,54,37.28a5.52,5.52,0,0,1,.45,2,15.22,15.22,0,0,0,.94,4.16h0a37.59,37.59,0,0,1-.56-4.19,4.9,4.9,0,0,0-.54-2.12,2.38,2.38,0,0,0-1.85-1.16c-.33-.06-.88.06-.93.52a2.86,2.86,0,0,0,.21,1.06,8.44,8.44,0,0,0,1,1.92,19.1,19.1,0,0,1,2.33,3.51Z" transform="translate(-1.42)"/><path d="M55.39,44a2,2,0,0,0-2.15-1.13,14.18,14.18,0,0,0-2.48.54,5.27,5.27,0,0,1-2.4.08,1.94,1.94,0,0,1-1.62-1.57.89.89,0,0,1,.54-1,2.63,2.63,0,0,1,1.19-.17A14.76,14.76,0,0,1,51,41a6.16,6.16,0,0,1,4.13,2.3l.28-.29a6.4,6.4,0,0,0-6.15-.13l0,0a6.7,6.7,0,0,1,5.92.44l.8.5L55.43,43A6,6,0,0,0,51,40.65a16.46,16.46,0,0,0-2.53-.08,2.91,2.91,0,0,0-1.26.23,1.14,1.14,0,0,0-.61,1.11,2.27,2.27,0,0,0,1.68,1.82,4.77,4.77,0,0,0,2.57,0,18.11,18.11,0,0,1,2.41-.61,2,2,0,0,1,2.1.87Z" transform="translate(-1.42)"/><path d="M56.61,43.31A17,17,0,0,1,59,37.25a2.87,2.87,0,0,1,1.1-1.06,4.81,4.81,0,0,1,1.54-.34l3.27-.33-.08-.09A28.18,28.18,0,0,1,64.45,39a3,3,0,0,1-.77,1.54,3.52,3.52,0,0,1-1.5.86,17.48,17.48,0,0,0-3.46,1.08c-1.09.59-2,1.42-3,1.86l.27.3a22.58,22.58,0,0,1,6.49-7.4l0,0a20.1,20.1,0,0,0-6.84,7.23l-.29.52.55-.22a28.22,28.22,0,0,0,3.08-1.92,22.24,22.24,0,0,1,3.37-1.16,3.7,3.7,0,0,0,1.56-1A3.2,3.2,0,0,0,64.62,39c.18-1.2.19-2.4.33-3.6v-.08h-.1l-3.29.17a4.65,4.65,0,0,0-1.66.34,3,3,0,0,0-1.24,1.19,14.47,14.47,0,0,0-2.1,6.24Z" transform="translate(-1.42)"/><path d="M56.34,44.62a25.74,25.74,0,0,1,3.24-1.45,4.41,4.41,0,0,1,1.73-.29,1.25,1.25,0,0,1,.8.25.45.45,0,0,1,.12.66c-.35.39-1,.4-1.58.51s-1.17.1-1.76.14c-1.2.05-2.39.14-3.59.3v0a35.85,35.85,0,0,0,3.59.08,10,10,0,0,0,1.81-.19,2.74,2.74,0,0,0,1.7-.75A.67.67,0,0,0,62.2,43a1.78,1.78,0,0,0-.88-.27,5.37,5.37,0,0,0-1.83.11,8.84,8.84,0,0,0-3.17,1.73Z" transform="translate(-1.42)"/><path d="M50.63,57.06a7.88,7.88,0,0,0-1.47-4.24,20.23,20.23,0,0,0-1.52-1.67c-.26-.26-.51-.54-.76-.82s-.22-.3-.13-.39a.67.67,0,0,1,.45-.13,3.9,3.9,0,0,1,2,.58,2.8,2.8,0,0,1,1.33,1.55c.41,1.35-.26,2.87-.06,4.38h0c0-1.47.86-2.9.42-4.5a2.93,2.93,0,0,0-1.54-1.76,3.92,3.92,0,0,0-2.25-.47.87.87,0,0,0-.58.24c-.16.25.06.48.16.59.26.27.52.54.76.83A12.72,12.72,0,0,1,48.89,53a12.37,12.37,0,0,1,1.7,4.06Z" transform="translate(-1.42)"/><path d="M45.4,67.82a3,3,0,0,0-.07-2.07A4.16,4.16,0,0,0,44,64.12c-.55-.42-1.15-.74-1.68-1.17a2.15,2.15,0,0,1-.66-.72.51.51,0,0,1,.26-.73,2.24,2.24,0,0,1,1.83.28,2.79,2.79,0,0,1,1.09,1.51,13.72,13.72,0,0,1,.84,3.93h0a8.76,8.76,0,0,0-.49-4.08,2.89,2.89,0,0,0-1.29-1.69,2.48,2.48,0,0,0-2.11-.16.72.72,0,0,0-.3,1,3.23,3.23,0,0,0,.7.77l1.56,1.32A4.84,4.84,0,0,1,45,65.88a3.42,3.42,0,0,1,.32,1.93Z" transform="translate(-1.42)"/><path d="M46.91,67.12c1-1.14,2.41-1.71,3.61-2.69a4,4,0,0,1,1.93-1,2.72,2.72,0,0,1,1.1,0c.36.06.73.24.76.57,0,.69-.71,1.16-1.34,1.41a13.46,13.46,0,0,1-2.17.48,18.62,18.62,0,0,0-2.2.55,4.25,4.25,0,0,0-2,1.14l0,0a4.83,4.83,0,0,1,2-.86c.72-.17,1.47-.32,2.21-.45a9.54,9.54,0,0,0,2.23-.54,2.81,2.81,0,0,0,1-.67A1.3,1.3,0,0,0,54.53,64c-.1-.48-.6-.61-1-.67a3.7,3.7,0,0,0-1.15,0,4.69,4.69,0,0,0-2.13.87c-1.15.88-2.63,1.58-3.43,2.92Z" transform="translate(-1.42)"/><path d="M51.63,65a3.43,3.43,0,0,0-1.32.28,4.45,4.45,0,0,1-1.23.53,3.68,3.68,0,0,0-2.22,1.51l0,0A25.62,25.62,0,0,0,49.17,66a2.62,2.62,0,0,1,1.25-.42A3.85,3.85,0,0,0,51.64,65Z" transform="translate(-1.42)"/><path d="M51.74,56.77c.64-1.35,2-2.1,3.09-3.07a5.13,5.13,0,0,1,1.85-1.13,3.34,3.34,0,0,1,1.08-.17.86.86,0,0,1,.86.43A1.4,1.4,0,0,1,58,54.55a5.38,5.38,0,0,1-2,.59c-.73.16-1.46.36-2.18.55a2.57,2.57,0,0,0-1.85,1.21h0a2.66,2.66,0,0,1,1.9-.91c.72-.14,1.44-.28,2.16-.45a4.84,4.84,0,0,0,2.19-.69,1.66,1.66,0,0,0,.61-2.14,1.09,1.09,0,0,0-1.05-.46,5.32,5.32,0,0,0-1.12.17,6.18,6.18,0,0,0-2,1c-1.12.88-2.52,1.8-2.92,3.32Z" transform="translate(-1.42)"/><path d="M57.66,52.84a6.47,6.47,0,0,0-1.56.88,5.74,5.74,0,0,1-1.45,1c-.53.28-1.06.55-1.56.88-.25.15-.49.32-.73.49s-.54.42-.69.37h0c0,.14.16.13.21.12l.24,0a3.75,3.75,0,0,0,.43-.16,5.48,5.48,0,0,0,.8-.41,9.93,9.93,0,0,0,1.46-1,6.16,6.16,0,0,1,1.52-1,6.55,6.55,0,0,0,1.4-1.13Z" transform="translate(-1.42)"/><path d="M51,57.46A8.85,8.85,0,0,1,54.68,56a6.33,6.33,0,0,1,2-.14,3.61,3.61,0,0,1,1,.23c.31.11.59.34.59.63,0,.65-.69.92-1.32,1a8.65,8.65,0,0,1-2,0,19,19,0,0,1-2-.37c-.61-.15-1.46-.41-2,.13l0,0c.58-.39,1.26-.06,1.89.14a9.81,9.81,0,0,0,2,.48,6.6,6.6,0,0,0,2.08,0,2.38,2.38,0,0,0,1-.37,1.1,1.1,0,0,0,.47-1c-.06-.43-.46-.63-.77-.74a5.82,5.82,0,0,0-1-.24,8.43,8.43,0,0,0-2.07-.05A6,6,0,0,0,51,57.43Z" transform="translate(-1.42)"/><path d="M56.91,56.59a3.59,3.59,0,0,0-1.3-.11,3,3,0,0,1-1.3.09,5.94,5.94,0,0,0-2.59.17v0a6,6,0,0,0,2.6,0,3,3,0,0,1,1.29,0,3.66,3.66,0,0,0,1.3-.19Z" transform="translate(-1.42)"/><path d="M49.27,51.3a5.79,5.79,0,0,0,.45,1.35A2,2,0,0,1,50.09,54a8.88,8.88,0,0,0,.23,2.85h0a6.1,6.1,0,0,0,0-2.88c-.1-.47-.18-.95-.27-1.44a3.52,3.52,0,0,0-.73-1.25Z" transform="translate(-1.42)"/><path d="M43.81,63a4.68,4.68,0,0,0,.65.95,1.74,1.74,0,0,1,.61,1l.27,1.1a4.43,4.43,0,0,1,.17,1.1l0,0a1.52,1.52,0,0,0,.2-1.21,2.91,2.91,0,0,0-.47-1.1,5.07,5.07,0,0,1-.55-1.06,2,2,0,0,0-.9-.79Z" transform="translate(-1.42)"/><path d="M66.65,14.65a3.92,3.92,0,0,0-1.82,1.22c-.41.64-.51,1.44-1.17,1.76-.3.18-.64.27-1,.45a2.13,2.13,0,0,0-.84.79c-.41.61-.62,1.3-1.3,1.58v0c.8,0,1.28-.85,1.63-1.39s1-.82,1.61-1.29.79-1.26,1.3-1.72a19.9,19.9,0,0,1,1.58-1.4Z" transform="translate(-1.42)"/><path d="M60.56,19.94A24.71,24.71,0,0,0,60,23.22a20.25,20.25,0,0,1-.41,3.3,56,56,0,0,0-1,6.57h0a28.72,28.72,0,0,0,1.19-6.55,21.33,21.33,0,0,1,.52-3.28A18.44,18.44,0,0,0,60.6,20Z" transform="translate(-1.42)"/><path d="M64.86,10.9a6.54,6.54,0,0,0-1.06,1.51A6.73,6.73,0,0,1,62.91,14a4.24,4.24,0,0,0-.78,1.71,9.42,9.42,0,0,1-.36,1.77l0,0a3.48,3.48,0,0,0,.73-1.71,9.18,9.18,0,0,1,.57-1.7,5.88,5.88,0,0,1,1-1.55,6.88,6.88,0,0,0,.8-1.66Z" transform="translate(-1.42)"/><path d="M55.24,43.57c-.12.06-.16.12-.12.16s.16.08.07.14-.12.21.13.27h0c.23-.13.21-.23,0-.3s0-.1,0-.16,0-.09-.17-.12Z" transform="translate(-1.42)"/><path d="M46.72,67.59a6.64,6.64,0,0,0-1.55,2.29c-.32.87-.54,1.76-.93,2.59s-.71,1.69-1,2.54c-.17.43-.31.86-.45,1.29-.09.25-.09.4-.25.32s-.18-.32-.09-.53l0,0a.53.53,0,0,0,0,.72.35.35,0,0,0,.47,0,1.3,1.3,0,0,0,.19-.33c.19-.42.39-.84.55-1.27a22,22,0,0,0,.84-2.61,9.37,9.37,0,0,1,1-2.53c.41-.81.81-1.61,1.27-2.41Z" transform="translate(-1.42)"/><path d="M57.1,56.2a1,1,0,0,0,.32.54.24.24,0,0,1,0,.44,6.14,6.14,0,0,1-1.08.37v0a.8.8,0,0,0,.69.2.77.77,0,0,0,.58-.48,1.35,1.35,0,0,0,.11-.76.87.87,0,0,0-.58-.38Z" transform="translate(-1.42)"/><path d="M57,52.79a1.52,1.52,0,0,1,.58.36.44.44,0,0,1,.14.63c-.25.42-.65.65-1,1.15l0,0a1.41,1.41,0,0,0,.78-.34,1.08,1.08,0,0,0,.39-.79,3.16,3.16,0,0,0-.09-.9.62.62,0,0,0-.86-.19Z" transform="translate(-1.42)"/><path d="M52.56,63.75a1,1,0,0,0,.42.55c.22.06.47.22.34.41s-.55.39-.91.77v0a1,1,0,0,0,.73-.1.74.74,0,0,0,.4-.69,2.7,2.7,0,0,0-.34-.68,1.08,1.08,0,0,0-.62-.33Z" transform="translate(-1.42)"/><path d="M43.56,62.06a.77.77,0,0,0-.6-.2,2,2,0,0,0-.64.28.61.61,0,0,0-.07.74.64.64,0,0,0,.61.32v0c-.12-.2-.18-.35-.25-.49a.88.88,0,0,1-.11-.42c0-.19.27-.18.45-.07a.82.82,0,0,0,.6-.09Z" transform="translate(-1.42)"/><path d="M49.61,51a.77.77,0,0,0-.44-.59,1.21,1.21,0,0,0-.81.08.73.73,0,0,0-.1.8.83.83,0,0,0,.52.53l0,0a6.19,6.19,0,0,0-.16-.65,1.62,1.62,0,0,1-.11-.52c0-.2.37-.09.46.08a1.51,1.51,0,0,0,.58.31Z" transform="translate(-1.42)"/><path d="M50.24,41.22A2.09,2.09,0,0,0,48.65,41a1.3,1.3,0,0,0-.78,1.39,1.58,1.58,0,0,0,1.27,1,3.17,3.17,0,0,0,1.59,0v0c-.52-.13-1-.25-1.48-.4a1.81,1.81,0,0,1-1.17-.7c-.26-.44.21-1,.67-1a11.59,11.59,0,0,1,1.48,0Z" transform="translate(-1.42)"/><path d="M54.19,38.49a2,2,0,0,0-.26-1,2.88,2.88,0,0,0-.32-.39.78.78,0,0,0-.42-.35.55.55,0,0,0-.56.24,1.44,1.44,0,0,0-.2.53,1.48,1.48,0,0,0,.19,1h0l.18-.93c.1-.26.09-.57.33-.62s.43.36.46.67a1.94,1.94,0,0,0,.52.83Z" transform="translate(-1.42)"/><path d="M60.11,36.84a6.45,6.45,0,0,1,2.1-.43,1.46,1.46,0,0,1,1.62,1.08,4.22,4.22,0,0,1-.51,2,6.8,6.8,0,0,1-1.14,1.84l0,0a3.65,3.65,0,0,0,1.49-1.71A3.13,3.13,0,0,0,64,37.42a2.37,2.37,0,0,0-1.8-1.35,3,3,0,0,0-2.15.73Z" transform="translate(-1.42)"/><path d="M61,43.09a1.18,1.18,0,0,0,.19.55.25.25,0,0,1-.1.43c-.39.12-.65.16-1.1.3l0,0a.83.83,0,0,0,1.26-.17,1.43,1.43,0,0,0,.28-.68c0-.28-.26-.41-.48-.5Z" transform="translate(-1.42)"/><path d="M62.51,27.09A2.56,2.56,0,0,1,63.89,27a.82.82,0,0,1,.53.4.67.67,0,0,1-.06.67,3.66,3.66,0,0,1-1,1,5.58,5.58,0,0,1-1.33.61v0a2.35,2.35,0,0,0,2.57-1.52A1.28,1.28,0,0,0,64,26.7a1.4,1.4,0,0,0-1.54.35Z" transform="translate(-1.42)"/><path d="M56,23.07a3.24,3.24,0,0,0-1.44-.54,2.33,2.33,0,0,0-1.44.64,1.3,1.3,0,0,0-.33,1.56c.24.54.78.75,1.2,1l0,0c-.25-.46-.68-.76-.84-1.17a1.28,1.28,0,0,1,.11-1.25,1.3,1.3,0,0,1,.55-.46,1.35,1.35,0,0,1,.69,0A7.65,7.65,0,0,0,56,23.1Z" transform="translate(-1.42)"/><path d="M63.08,21.43a2.72,2.72,0,0,1,.81-.27.31.31,0,0,1,.35.11.4.4,0,0,1,0,.41c-.34.5-.82.83-1.23,1.39l0,0a1.76,1.76,0,0,0,1.42-1.36.76.76,0,0,0-.5-.92.84.84,0,0,0-.87.57Z" transform="translate(-1.42)"/><path d="M52.57,18.24a3.33,3.33,0,0,0-1.52-.46,1,1,0,0,0-.42.15.37.37,0,0,0-.13.45,1.42,1.42,0,0,0,.57.57,7.27,7.27,0,0,0,2.82,1.27l0,0a10.15,10.15,0,0,0-2.73-1.42c-.24-.08-.49-.2-.55-.42s.21-.24.43-.22a8.76,8.76,0,0,0,1.5.15Z" transform="translate(-1.42)"/><path d="M60.44,13.06a10.3,10.3,0,0,1-1.66-.4c-.58-.11-1.15-.26-1.74-.4-.28,0-.67-.14-1,.22a1.33,1.33,0,0,0-.11,1c.14.66.7,1,1.11,1.44l0,0a9,9,0,0,1-.73-1.51,1.25,1.25,0,0,1,0-.7c0-.15.36-.21.64-.22a3.21,3.21,0,0,1,1.65.5,2.54,2.54,0,0,0,1.78.12Z" transform="translate(-1.42)"/><path d="M63.11,10.8a8.57,8.57,0,0,1,1.29-.64c.39-.21,1-.23,1.24.2a1.65,1.65,0,0,1-.12,1.28A9.43,9.43,0,0,0,64.86,13l0,0a4.74,4.74,0,0,0,1-1.17,1.5,1.5,0,0,0-.08-1.59,2,2,0,0,0-1.51-.39,1.93,1.93,0,0,0-1.23.94Z" transform="translate(-1.42)"/><path d="M65,13.7a10.59,10.59,0,0,0,1.55-.19,2,2,0,0,1,.77,0c.26.06.46.26.35.48-.2.4-.71.75-1,1.17a6.94,6.94,0,0,0-.89,1.34l0,0A7.83,7.83,0,0,0,67,15.45a3.74,3.74,0,0,0,.89-1.39c.06-.36-.29-.57-.53-.65a3,3,0,0,0-.81-.24,3.3,3.3,0,0,0-1.56.5Z" transform="translate(-1.42)"/><path d="M42.72,61.92a12.66,12.66,0,0,1,1.75-4.51,3.65,3.65,0,0,1,1.68-1.66,1.64,1.64,0,0,1,2.05.63,2,2,0,0,1-.35,2.15A7.31,7.31,0,0,1,46,60.07c-1.33.87-2.94,1.66-3.8,3.13l0,0c1-1.29,2.6-1.9,4-2.8a6.5,6.5,0,0,0,1.89-1.66,2.31,2.31,0,0,0,.24-2.49,2,2,0,0,0-2.3-.65,4.15,4.15,0,0,0-1.91,1.6,8.55,8.55,0,0,0-1.51,4.7Z" transform="translate(-1.42)"/><path d="M46.71,57.28a7,7,0,0,0-1.31,1.29A6.12,6.12,0,0,1,44.25,60a8.45,8.45,0,0,0-1.18,1.47c-.27.58-.36,1.17-.58,1.75l0,0a6.38,6.38,0,0,0,.92-1.59c.32-.49.66-1,1-1.5a6.16,6.16,0,0,1,1.24-1.36,6.62,6.62,0,0,0,1.08-1.48Z" transform="translate(-1.42)"/><path d="M41.53,63.63a4,4,0,0,0-.75-2.82,8.69,8.69,0,0,0-2-2.15,26.83,26.83,0,0,1-2.33-1.76,3.92,3.92,0,0,1-.89-1.11.74.74,0,0,1,.5-1,2.76,2.76,0,0,1,2.49.93,8.63,8.63,0,0,1,1.8,2.19,9.47,9.47,0,0,1,1.23,5.53h0a8.08,8.08,0,0,0-.91-5.74,7.82,7.82,0,0,0-1.92-2.29,3,3,0,0,0-2.81-.84,1.07,1.07,0,0,0-.58.53,1,1,0,0,0,0,.77A4.79,4.79,0,0,0,36.32,57c.7.68,1.47,1.3,2.21,1.92a10.54,10.54,0,0,1,2,2.07,4.39,4.39,0,0,1,1,2.64Z" transform="translate(-1.42)"/><path d="M38.87,57.33a12.11,12.11,0,0,0,.87,1.49,4,4,0,0,1,.82,1.5c.31,1.12.57,2.19.93,3.31h0a5.67,5.67,0,0,0-.77-3.39A10,10,0,0,1,40,58.65,4.19,4.19,0,0,0,38.9,57.3Z" transform="translate(-1.42)"/><path d="M43,51.33a8.29,8.29,0,0,1,1-5.24,10.29,10.29,0,0,1,1.46-2.26,3.77,3.77,0,0,1,2.26-1.34,1,1,0,0,1,1.06.57,1.43,1.43,0,0,1-.17,1.25,7.88,7.88,0,0,1-1.92,1.9c-1.44,1-3.19,2-4,3.87l.15.29c-.22-.12-.12-.16-.15-.16v.1l0,.18,0,.19,0,.12v.07s-.06.12.18.25l.22.12,0-.31a8,8,0,0,1,1-3.16,8.19,8.19,0,0,1,2.22-2.51l0,0a7.18,7.18,0,0,0-2.44,2.4,7.35,7.35,0,0,0-1.16,3.27l.25-.19c.21.12.12.16.15.16v-.09l0-.18.05-.2,0-.11v-.08s.07-.11-.18-.25l.15.29c.72-1.66,2.32-2.65,3.76-3.8a8.39,8.39,0,0,0,1.89-2.05A1.62,1.62,0,0,0,48.92,43a1.16,1.16,0,0,0-1.2-.66c-1.93.26-3.27,1.95-4,3.59A7.41,7.41,0,0,0,43,51.35Z" transform="translate(-1.42)"/><path d="M43,51.34a5.62,5.62,0,0,1,2.71-2.2,6.55,6.55,0,0,1,1.6-.82c.52-.15,1.37-.12,1.42.45s-.62.83-1.1,1.14a10.08,10.08,0,0,1-1.62.71,10.39,10.39,0,0,1-1.74.38l-.91.18a3.31,3.31,0,0,0-.45.12c-.12,0-.12.22-.08.26a.3.3,0,0,1,0,.21h0c.1-.13,0-.39.08-.36s.3,0,.44,0l.89-.07A6.37,6.37,0,0,0,46.14,51a6.52,6.52,0,0,0,1.69-.79,3.72,3.72,0,0,0,.75-.57,1.06,1.06,0,0,0,.38-.92.79.79,0,0,0-.74-.61,2.92,2.92,0,0,0-.93.06,8.47,8.47,0,0,0-1.72.65A4.1,4.1,0,0,0,43,51.34Z" transform="translate(-1.42)"/><path d="M46.77,49.57a1.77,1.77,0,0,0-1,.16,2.87,2.87,0,0,1-.92.47,2.61,2.61,0,0,0-1.64,1.21l0,0a6,6,0,0,0,1.72-1,1.58,1.58,0,0,1,.93-.36,2.66,2.66,0,0,0,.92-.43Z" transform="translate(-1.42)"/><path d="M41.52,52.44a11.66,11.66,0,0,0-3.8-2.53,7.39,7.39,0,0,1-1.9-1.21,2.77,2.77,0,0,1-.65-.9c-.15-.31-.3-.78,0-.86,1.42-.48,2.89.38,3.92,1.36a8.14,8.14,0,0,1,2.22,3.83h0a6.57,6.57,0,0,0-2-4.12c-1-1.09-2.76-1.94-4.3-1.27a.48.48,0,0,0-.3.57,2.41,2.41,0,0,0,.21.55,4,4,0,0,0,.68.94,9.22,9.22,0,0,0,1.84,1.4,26.22,26.22,0,0,1,3.93,2.26Z" transform="translate(-1.42)"/><path d="M41,51.4a2.58,2.58,0,0,0-.71-1,3.61,3.61,0,0,1-.94-.84,4.18,4.18,0,0,0-2-1.45l0,0a7.77,7.77,0,0,0,1.9,1.58,2.42,2.42,0,0,1,.84.9,3.88,3.88,0,0,0,.93.82Z" transform="translate(-1.42)"/><path d="M41.29,37.86a27.94,27.94,0,0,1-3-2.49A16,16,0,0,1,36.92,34a1.14,1.14,0,0,1,0-1.64,1.6,1.6,0,0,1,1.77.15A3.71,3.71,0,0,1,39.94,34c.28.58.49,1.19.72,1.81s.56,1.24.44,1.77l.39,0a10.36,10.36,0,0,0-2.84-3.68l0,0a14.23,14.23,0,0,1,2.5,3.82l.27.63.12-.66a3.72,3.72,0,0,0-.47-2,12.3,12.3,0,0,0-.81-1.83,4,4,0,0,0-1.38-1.47,1.9,1.9,0,0,0-2-.09,1.37,1.37,0,0,0-.2,1.89A8.72,8.72,0,0,0,38,35.63a14.06,14.06,0,0,0,3.25,2.27Z" transform="translate(-1.42)"/><path d="M42.4,38a22.09,22.09,0,0,1,1.23-4.7,6.83,6.83,0,0,1,1.26-2A1.61,1.61,0,0,1,47,31a1.64,1.64,0,0,1,0,2.14c-.45.65-1,1.25-1.55,1.88l-1.56,1.89-.76,1c-.2.32-.6.58-.69.45l0,.22a14.19,14.19,0,0,1,1-2.32,4.7,4.7,0,0,1,1.78-1.76l0,0a4.13,4.13,0,0,0-2,1.65,12.85,12.85,0,0,0-1.17,2.31l-.06.13.11.1a.64.64,0,0,0,.81,0,2,2,0,0,0,.48-.47l.77-1,1.51-1.93c.48-.67,1-1.28,1.45-2a1.8,1.8,0,0,0-.13-2.35,1.87,1.87,0,0,0-2.36.26,5.84,5.84,0,0,0-1.43,2.05A14.69,14.69,0,0,0,42.36,38Z" transform="translate(-1.42)"/><path d="M43,24.63a13.89,13.89,0,0,1,2.87-3.5,3.78,3.78,0,0,1,2.16-.43,5.7,5.7,0,0,1,1.11,0c.11.07.06.3,0,.48l-.12.56c-.36,1.42-.39,3.31-2,3.56-1.48.44-2.95.93-4.39,1.48v0c1.52-.31,3-.69,4.5-1.12a2.73,2.73,0,0,0,1.11-.54,2.39,2.39,0,0,0,.63-1.08,17.15,17.15,0,0,0,.39-2.31l.07-.58c0-.18.11-.41-.11-.61a7,7,0,0,0-1.19-.05,4.32,4.32,0,0,0-2.34.28A8.57,8.57,0,0,0,43,24.61Z" transform="translate(-1.42)"/><path d="M47.12,22.77a3.37,3.37,0,0,0-1.42.69,7.71,7.71,0,0,1-1.19,1A5,5,0,0,0,42.6,27l0,0c.75-.75,1.37-1.53,2-2.33a3.32,3.32,0,0,1,1.23-.93,8.44,8.44,0,0,0,1.25-.93Z" transform="translate(-1.42)"/><path d="M49.36,23.75c.53.64.84,1.46.36,2.07a2.84,2.84,0,0,1-2,1.16,16.67,16.67,0,0,1-2.43.24c-.75,0-1.77-.15-2.42.51l0,0c.74-.4,1.55-.1,2.4-.13a7.23,7.23,0,0,0,2.48-.43A5.88,5.88,0,0,0,50,26a1.32,1.32,0,0,0,.23-1.32,2.06,2.06,0,0,0-.83-1Z" transform="translate(-1.42)"/><path d="M40.89,27.33A9.21,9.21,0,0,0,39,24.93a17.61,17.61,0,0,0-2.47-1.76,6.45,6.45,0,0,1-2.17-1.94A2,2,0,0,1,34,19.88c.07-.48.58-.73,1-.8A4.82,4.82,0,0,1,39.8,22a12.11,12.11,0,0,1,1.28,5.73l.4-.08a14.88,14.88,0,0,0-1.86-3.12,13.8,13.8,0,0,0-2.53-2.59l0,0a17.72,17.72,0,0,1,2.33,2.72,18.21,18.21,0,0,1,1.71,3.12l.37.85,0-.92a11.37,11.37,0,0,0-1.41-5.9,5.19,5.19,0,0,0-5-2.86,1.32,1.32,0,0,0-1.21.89,2.27,2.27,0,0,0,.31,1.53,6.07,6.07,0,0,0,2.22,2.11,20.22,20.22,0,0,1,2.48,1.66,11.13,11.13,0,0,1,2,2.21Z" transform="translate(-1.42)"/><path d="M42.14,25.51a13.89,13.89,0,0,1,1-3.78,12.06,12.06,0,0,1,.9-1.75A5.5,5.5,0,0,0,45,18.2v-.07l-.07,0a1.42,1.42,0,0,0-1.17.22,4.74,4.74,0,0,0-.92.74,3.58,3.58,0,0,0-.95,2.16,12.75,12.75,0,0,0,.47,4.57h0a24.33,24.33,0,0,1-.09-4.51,3.52,3.52,0,0,1,.8-2c.47-.52,1.06-1.17,1.77-1l-.06-.1a3.79,3.79,0,0,1-.89,1.72,9.11,9.11,0,0,0-1.09,1.7,7.93,7.93,0,0,0-.73,3.92Z" transform="translate(-1.42)"/><path d="M39.84,11.58a43.18,43.18,0,0,0-3.48-3.15A10.81,10.81,0,0,1,34.59,6.9c-.2-.27-.55-.69-.31-.94a.94.94,0,0,1,1,0A13.32,13.32,0,0,1,38.6,9.15a18.44,18.44,0,0,1,2.3,4h0a11.64,11.64,0,0,0-2-4.27,10.29,10.29,0,0,0-3.55-3.13,1.15,1.15,0,0,0-1.21.09.51.51,0,0,0,0,.62,4.39,4.39,0,0,0,.32.51,15.59,15.59,0,0,0,1.66,1.69,43.36,43.36,0,0,0,3.68,2.93Z" transform="translate(-1.42)"/><path d="M41.45,16.64c.74-1.54,1.48-3.17,2.94-4a4.83,4.83,0,0,1,2.37-.8,4.46,4.46,0,0,1,1.26.12,2.09,2.09,0,0,1,1.09.54c.28.32,0,.64-.38.8a5.69,5.69,0,0,1-1.18.42,16.77,16.77,0,0,0-4.82,1.94,5.31,5.31,0,0,0-1.06.79,1.41,1.41,0,0,0-.48,1.2h0c0-.9.94-1.33,1.66-1.71a23.09,23.09,0,0,1,2.33-1.05c.8-.31,1.6-.57,2.44-.81a5,5,0,0,0,1.23-.51,1.31,1.31,0,0,0,.52-.48.67.67,0,0,0-.13-.74,4.1,4.1,0,0,0-2.53-.65,5.57,5.57,0,0,0-2.54.65c-1.62.89-2.32,2.7-2.8,4.31Z" transform="translate(-1.42)"/><path d="M41.58,16.5A12.65,12.65,0,0,1,42,13.07a6.13,6.13,0,0,1,1.59-3A1.88,1.88,0,0,1,45,9.28c.54,0,.36.6.06,1-.67.95-1.39,1.86-2.14,2.76l0,0a12.15,12.15,0,0,0,2.46-2.55,1.73,1.73,0,0,0,.37-.91.75.75,0,0,0-.21-.56A.82.82,0,0,0,45,8.9a2,2,0,0,0-1.55,1A13,13,0,0,0,41.69,13a6.43,6.43,0,0,0-.15,3.53Z" transform="translate(-1.42)"/><path d="M40.93,12.21A7.78,7.78,0,0,0,37,5.85a12.79,12.79,0,0,1-3.27-1.92c-.84-.87-1.14-2.53-.1-3.29s2.4-.22,3.54.19A5.09,5.09,0,0,1,40,3.06a11.19,11.19,0,0,1,.3,7.39h0a10.75,10.75,0,0,0,.73-3.77,8.56,8.56,0,0,0-.7-3.82A5.21,5.21,0,0,0,37.33.48,7.23,7.23,0,0,0,35.43,0a2.66,2.66,0,0,0-1.91.45,1.88,1.88,0,0,0-.67,1.8A3.49,3.49,0,0,0,33.66,4a13.79,13.79,0,0,0,3.2,2.12,8.62,8.62,0,0,1,4,6.07Z" transform="translate(-1.42)"/><path d="M36.26,2.19a18.66,18.66,0,0,1,2,2.32,7.54,7.54,0,0,1,1.42,2.7c.57,2,.87,4,1.44,6h0a16.54,16.54,0,0,0-1.27-6c-.45-.94-.83-1.89-1.35-2.8a6.24,6.24,0,0,0-2.22-2.17Z" transform="translate(-1.42)"/><path d="M45.54,5.76a17.37,17.37,0,0,1,3.17-.87,6,6,0,0,1,.8-.13c.26,0,.53.07.58.32,0,.51-.54.89-.86,1.3a32.92,32.92,0,0,1-2.41,2.3c-.4.53-.38,1.12-.77,1.47a1.72,1.72,0,0,1-1.41.57v0a1.72,1.72,0,0,0,1.65-.39,2.08,2.08,0,0,0,.52-.73c.12-.22.16-.53.33-.67a13.21,13.21,0,0,0,2.26-2.45l.51-.66a1.19,1.19,0,0,0,.33-.8c0-.35-.43-.5-.71-.53a6,6,0,0,0-.85,0,7.09,7.09,0,0,0-3.15,1.17Z" transform="translate(-1.42)"/><path d="M45.1,7.48a3.68,3.68,0,0,0-1.24.8,5.45,5.45,0,0,1-1,1.06A5.27,5.27,0,0,0,41,11.66l0,0A12.83,12.83,0,0,0,43,9.49a3.22,3.22,0,0,1,1.09-1,6,6,0,0,0,1-1Z" transform="translate(-1.42)"/><path d="M42.29,3.69c.54-.54,1-1.12,1.55-1.58a2.44,2.44,0,0,1,.91-.56c.34-.12.77,0,.78.37A7.38,7.38,0,0,1,45.16,4a9.43,9.43,0,0,1-.91,2l0,0a4.53,4.53,0,0,0,1.46-4.2c-.12-.48-.67-.54-1-.46a3.42,3.42,0,0,0-1.09.44,4.27,4.27,0,0,0-1.37,1.81Z" transform="translate(-1.42)"/><path d="M43.75,4.68A3.5,3.5,0,0,0,43,5.87a4.24,4.24,0,0,1-.53,1.3,5.82,5.82,0,0,0-.93,2.65h0a8.2,8.2,0,0,0,1.09-2.57A3.43,3.43,0,0,1,43.29,6a4.5,4.5,0,0,0,.5-1.31Z" transform="translate(-1.42)"/><path d="M41.59,47.15l-2-1.87a3.82,3.82,0,0,1-.91-1,.78.78,0,0,1-.06-.61.2.2,0,0,1,.21-.15.79.79,0,0,1,.31,0A2.59,2.59,0,0,1,41,45.17a13.83,13.83,0,0,0,1.11,2.5l0,0c-.31-.86-.39-1.76-.77-2.64a2.51,2.51,0,0,0-2.18-1.71c-.21,0-.56.06-.65.33a1,1,0,0,0,.07.72,4.66,4.66,0,0,0,.79,1.16,7.46,7.46,0,0,0,2.19,1.67Z" transform="translate(-1.42)"/><path d="M41.24,46.29a.33.33,0,0,0-.13-.35c-.14,0-.27-.06-.28-.2a.48.48,0,0,0-.54-.43l0,0a.48.48,0,0,0,.41.55c.15,0,.18.15.2.29a.34.34,0,0,0,.34.14Z" transform="translate(-1.42)"/><path d="M36.72,7.13a8.12,8.12,0,0,1,3.77,6.8,15.91,15.91,0,0,1-.65,4,7.32,7.32,0,0,0,.27,4.12c.43,1.31,1,2.55,1.34,3.87a7.92,7.92,0,0,1-.16,4A14.24,14.24,0,0,0,40.7,34a19.9,19.9,0,0,0,.67,4.06,36.88,36.88,0,0,1,.83,4,17.7,17.7,0,0,1,0,4c-.33,2.7-.73,5.43-.87,8.17a68.56,68.56,0,0,0,1,16.37h0A82.74,82.74,0,0,1,41.7,54.3c.13-2.73.52-5.42.84-8.15a16.31,16.31,0,0,0,0-4.13,38.28,38.28,0,0,0-.93-4,19.84,19.84,0,0,1-.72-4,12,12,0,0,1,.58-4,8.22,8.22,0,0,0,.24-4.09c-.3-1.36-.88-2.62-1.27-3.91a7.41,7.41,0,0,1-.23-4,16.35,16.35,0,0,0,.59-4.08,8.16,8.16,0,0,0-1.11-4A8,8,0,0,0,36.74,7.1Z" transform="translate(-1.42)"/><path d="M36.72,7.13a10.89,10.89,0,0,1,3.11,3.05,9.07,9.07,0,0,1,1.42,4.06,7.72,7.72,0,0,1,0,2.15c-.15.71-.35,1.43-.46,2.17a6.54,6.54,0,0,0,0,2.25,21.82,21.82,0,0,0,.6,2.14,28.64,28.64,0,0,1,1.11,4.23,11.59,11.59,0,0,1-.19,4.35,15.37,15.37,0,0,0-.47,4.38,28.65,28.65,0,0,0,1,4.31c.83,2.84.34,5.79,0,8.69s-.56,5.87-.61,8.81a79.5,79.5,0,0,0,1.62,17.55h0a97.2,97.2,0,0,1-1.27-17.53A85.71,85.71,0,0,1,43.15,49c.36-2.89.75-5.93-.13-8.8A27.88,27.88,0,0,1,42,35.9a13.3,13.3,0,0,1,.46-4.34,11.91,11.91,0,0,0,.28-4.41,28.3,28.3,0,0,0-1.06-4.29c-.19-.7-.43-1.42-.55-2.11a7.31,7.31,0,0,1,0-2.14c.1-.72.29-1.43.42-2.16a7.64,7.64,0,0,0,0-2.24A9.28,9.28,0,0,0,40,10.06a10.6,10.6,0,0,0-3.26-3Z" transform="translate(-1.42)"/><path d="M47.46,7.59a1.53,1.53,0,0,0,.24-1,1.09,1.09,0,0,0-.83-.7,1.85,1.85,0,0,0-1,.16,2.8,2.8,0,0,0-.88.52v0a3.22,3.22,0,0,0,1-.16c.32-.09.6-.28.89-.33s.58.23.51.52a3,3,0,0,0,.05,1Z" transform="translate(-1.42)"/><path d="M46.24,12.31c.41.18.83.13,1.11.35.14.07.35.24.27.36s-.37.15-.56.2a3.88,3.88,0,0,0-1.24.34,2.38,2.38,0,0,0-1,.89l0,0c.77-.42,1.47-.67,2.26-1.06a4.23,4.23,0,0,0,.59-.31.59.59,0,0,0-.17-.71,1.37,1.37,0,0,0-1.32-.13Z" transform="translate(-1.42)"/><path d="M39.15,3.14A10.49,10.49,0,0,0,37.26,1.7a3.15,3.15,0,0,0-1.14-.44A1.8,1.8,0,0,0,35,1.63a.57.57,0,0,0-.22.67,2.29,2.29,0,0,0,.38.5c.08.12.06.17,0,.37a.93.93,0,0,0-.09.34,1.45,1.45,0,0,0,.08.36A12.59,12.59,0,0,0,36.23,6l0,0a19.79,19.79,0,0,0-.79-2.21.46.46,0,0,1,0-.44.72.72,0,0,0-.08-.74c-.35-.35-.59-.46-.31-.78a1.2,1.2,0,0,1,1-.39,2.33,2.33,0,0,1,1,.58,11.3,11.3,0,0,0,2.05,1.19Z" transform="translate(-1.42)"/><path d="M44.44,4.56A2.92,2.92,0,0,0,44.63,4a.57.57,0,0,0-.43-.6A2.1,2.1,0,0,0,43,3.79a7.69,7.69,0,0,0-.92.75,7.12,7.12,0,0,1-1,.63v0a1.8,1.8,0,0,0,1.2-.34,4.58,4.58,0,0,0,.8-.91.75.75,0,0,1,1-.27.37.37,0,0,1,.23.29,2.29,2.29,0,0,0,.08.59Z" transform="translate(-1.42)"/><path d="M36.47,6.73a.75.75,0,0,0-.51.38,3.66,3.66,0,0,0,0,.66.75.75,0,0,0,.32.55,1.08,1.08,0,0,0,.58.24l0,0A1.2,1.2,0,0,0,36.57,8c-.16-.12-.27-.2-.41-.32s0-.35.1-.43a.77.77,0,0,0,.24-.51Z" transform="translate(-1.42)"/><path d="M45.54,22.14a5.09,5.09,0,0,0,1.56-.31c.22,0,.47-.25.69-.14s.24.38.13.59a4.26,4.26,0,0,0-.47,1.52,3,3,0,0,1-.58,1.37l0,0a1.83,1.83,0,0,0,1-1.31,15.68,15.68,0,0,1,.28-1.55.7.7,0,0,0-.29-.78,1.53,1.53,0,0,0-.85,0,5.15,5.15,0,0,0-1.47.59Z" transform="translate(-1.42)"/><path d="M38.78,21.24a3.63,3.63,0,0,0-1.48-1,4.1,4.1,0,0,0-.91-.14,1.23,1.23,0,0,0-.91.21.85.85,0,0,0-.12,1A2,2,0,0,0,36,22a2.11,2.11,0,0,1,.93,1.33h0a1.66,1.66,0,0,0-.71-1.66,2.53,2.53,0,0,1-.57-.56.61.61,0,0,1-.06-.66c.35-.45,1.09-.18,1.54.09s1,.52,1.58.73Z" transform="translate(-1.42)"/><path d="M48.81,25.18a3.09,3.09,0,0,0-.14.67.54.54,0,0,1-.39.5,3.41,3.41,0,0,0-1.33.53v0a1.43,1.43,0,0,0,1.45-.38A7.92,7.92,0,0,1,49,26a.75.75,0,0,0-.13-.79Z" transform="translate(-1.42)"/><path d="M44.38,32.61a8.58,8.58,0,0,0,1-.62.53.53,0,0,1,.5-.09.59.59,0,0,1,.32.44c.11.76-.34,1.4-.59,2.23l0,0a2.53,2.53,0,0,0,.79-1,1.5,1.5,0,0,0,0-1.32,1,1,0,0,0-1.15-.58,2,2,0,0,0-.92.89Z" transform="translate(-1.42)"/><path d="M39,33a1.2,1.2,0,0,0-.79-.05c-.24.17-.42.34-.64.52a.89.89,0,0,0-.23.82,1,1,0,0,0,.48.66l0,0a4.87,4.87,0,0,1-.09-1.33c0-.24.32-.34.55-.32A1.12,1.12,0,0,0,39,33Z" transform="translate(-1.42)"/><path d="M46.62,43.48a1.55,1.55,0,0,0,.82.15c.23-.11.44.21.32.47-.17.49-.44.91-.6,1.5l0,0A1.46,1.46,0,0,0,48,44.1a3.66,3.66,0,0,0-.13-.44.55.55,0,0,0-.38-.36,1.35,1.35,0,0,0-.86.14Z" transform="translate(-1.42)"/><path d="M47.42,48.75a1.19,1.19,0,0,0,.44.42c.15,0,.16.37,0,.49a10.45,10.45,0,0,0-1,.8v0A1,1,0,0,0,48,49.77c0-.27.19-.43.1-.79a.74.74,0,0,0-.71-.26Z" transform="translate(-1.42)"/><path d="M38.06,47.52c-.26-.22-.5-.5-1-.4s-.39.65-.47,1a1.47,1.47,0,0,0,1,1.63l0,0a6.22,6.22,0,0,1-.83-1.62c-.14-.29.05-.69.3-.62s.54.14.88.12Z" transform="translate(-1.42)"/><path d="M40.39,44.39a.48.48,0,0,0-.48-.31c-.27.12-.3.31-.45.44a.59.59,0,0,0,.27,1l0,0a6.54,6.54,0,0,0-.1-.87c0-.18.18-.28.26-.18a.72.72,0,0,0,.45,0Z" transform="translate(-1.42)"/><path d="M37.74,55.56a.9.9,0,0,1-.42-.1l-.23-.08c-.11-.07-.35.06-.39.19-.18.48.45.74.29.91a.33.33,0,0,0-.11.28.69.69,0,0,0,.1.29,2.65,2.65,0,0,0,.26.42,2.86,2.86,0,0,0,.68.71l0,0a2.8,2.8,0,0,0-.37-.9,2.76,2.76,0,0,0-.28-.39c-.1-.2-.19-.06-.11-.31s-.2-.36-.25-.49a.27.27,0,0,1,0-.34s0,0,0,0l.23,0a.55.55,0,0,0,.52-.17Z" transform="translate(-1.42)"/><path d="M46.12,56.51a1,1,0,0,0,.62.13.51.51,0,0,1,.4.16.9.9,0,0,1,.29,1,12.78,12.78,0,0,1-1.14,2.05l0,0a2.31,2.31,0,0,0,1.33-2,3.28,3.28,0,0,0-.25-1.28.68.68,0,0,0-.69-.25,2.57,2.57,0,0,1-.58.14Z" transform="translate(-1.42)"/></g></g></svg>