<svg xmlns="http://www.w3.org/2000/svg" viewBox="0 0 125.38 124.15"><defs><style>.cls-1{fill:#ed8794;}.cls-2{fill:#e75f70;}</style></defs><g id="Layer_2" data-name="Layer 2"><g id="Ingredients_Map" data-name="Ingredients Map"><path class="cls-1" d="M122.66,36c-.32-5.83-1.21-11.77-4-16.9-4.74-8.7-14.53-13.88-24.39-14.89S74.48,5.86,65.38,9.78c0,0-3.39,4.05-2.8-1.93l.25-1.53c-2.34-2.16-5.64-2.87-8.78-3.38A124.8,124.8,0,0,0,39.88,1.5c-7.38-.34-15.23.12-21.35,4.26C11.23,10.7,5.07,20.82,3.42,29.48c-1.31,6.89,1,13,2.5,19.88S11.1,62.8,17,66.61a5,5,0,0,0,2.26.93,4.91,4.91,0,0,0,1.89-.31c7.48-2.37,12.79-8.8,18.49-14.19,3-2.83,6.23-5.46,8.7-8.75.26-.34.5-.68.74-1A175.38,175.38,0,0,0,60,63c2.14,3.35,4.49,6.72,7.87,8.79,4.72,2.9,10.62,2.8,16.16,2.62s11.28-.4,16.51-2.37a35.18,35.18,0,0,0,11.15-7.22,34.28,34.28,0,0,0,8.92-12.11C122.72,47.49,123,41.66,122.66,36Z"/><path class="cls-2" d="M38.08,85.85h6.35v1.51H39.78v3.33h4.65v1.52H39.78v5.54h-1.7Z"/><path class="cls-2" d="M46.42,85.85H48v11.9H46.42Z"/><path class="cls-2" d="M54.31,89.9a4.09,4.09,0,0,1,3,1.15A3.88,3.88,0,0,1,58.47,94a3.7,3.7,0,0,1-1.2,2.82,4.24,4.24,0,0,1-3,1.12,4.08,4.08,0,0,1-3-1.14,4,4,0,0,1,0-5.71A4.18,4.18,0,0,1,54.31,89.9Zm-.08,1.39A2.43,2.43,0,0,0,52.4,92a2.55,2.55,0,0,0-.72,1.86,2.44,2.44,0,0,0,.73,1.84,2.62,2.62,0,0,0,1.89.71,2.56,2.56,0,0,0,1.87-.72,2.66,2.66,0,0,0,0-3.69A2.64,2.64,0,0,0,54.23,91.29Z"/><path class="cls-2" d="M62.21,89.91v1.8l.08-.14c.75-1.21,1.5-1.81,2.25-1.81a2.75,2.75,0,0,1,1.84.89L65.56,92a2.31,2.31,0,0,0-1.5-.77,1.6,1.6,0,0,0-1.3.72,2.68,2.68,0,0,0-.55,1.69v4.1H60.65V89.91Z"/><path class="cls-2" d="M68.61,86.61a.93.93,0,0,1,.66.27.86.86,0,0,1,.27.65.87.87,0,0,1-.27.64.9.9,0,0,1-.66.28.87.87,0,0,1-.63-.28.89.89,0,0,1,0-1.28A.87.87,0,0,1,68.61,86.61Zm-.77,3.3h1.55v7.84H67.84Z"/><path class="cls-2" d="M77.22,85.85h1.56v11.9H75.46a3.59,3.59,0,0,1-2.77-1.1,4.11,4.11,0,0,1-1-2.94,3.88,3.88,0,0,1,1.09-2.85,3.68,3.68,0,0,1,2.77-1.12,5.1,5.1,0,0,1,1.71.33Zm0,10.57v-5a3.17,3.17,0,0,0-1.47-.37,2.33,2.33,0,0,0-1.84.76,2.91,2.91,0,0,0-.69,2,2.68,2.68,0,0,0,.6,1.87,1.82,1.82,0,0,0,.75.53,5.29,5.29,0,0,0,1.45.13Z"/><path class="cls-2" d="M86.16,93v3.33c0,.27.09.4.27.4a1.93,1.93,0,0,0,.88-.41v.94a4.85,4.85,0,0,1-.85.47,1.85,1.85,0,0,1-.67.12q-1,0-1.17-.78a3.38,3.38,0,0,1-2.11.76,1.85,1.85,0,0,1-1.36-.54A1.81,1.81,0,0,1,80.6,96a1.93,1.93,0,0,1,.53-1.32,3.65,3.65,0,0,1,1.52-.93l2-.68v-.42a1.25,1.25,0,0,0-1.41-1.41,3.41,3.41,0,0,0-2.47,1.31v-1.7a3.22,3.22,0,0,1,2.6-1.06,3,3,0,0,1,2,.66,2.21,2.21,0,0,1,.46.57,1.86,1.86,0,0,1,.26.71A9.56,9.56,0,0,1,86.16,93ZM84.63,96.2V93.88l-1,.4a3.68,3.68,0,0,0-1.12.63,1.1,1.1,0,0,0,.79,1.9A1.91,1.91,0,0,0,84.63,96.2Z"/><path class="cls-2" d="M.24,123.94A.22.22,0,0,1,0,123.7V108.06a.22.22,0,0,1,.24-.23H3.06c2.84,0,4.36,1.28,4.36,4.83s-1.54,4.83-4.36,4.83h-1c-.09,0-.14.05-.14.15v6.06a.23.23,0,0,1-.24.24ZM5.5,112.66c0-2.27-.69-3.06-2.44-3.06h-1c-.09,0-.14.05-.14.15v5.82c0,.1.05.15.14.15h1C4.81,115.72,5.5,115,5.5,112.66Z"/><path class="cls-2" d="M9.45,108.06a.22.22,0,0,1,.24-.23h1.45a.22.22,0,0,1,.23.23V123.7a.22.22,0,0,1-.23.24H9.69a.23.23,0,0,1-.24-.24Z"/><path class="cls-2" d="M14,108.06a.22.22,0,0,1,.23-.23H16a.33.33,0,0,1,.36.23L20,120.15h.09V108.06a.22.22,0,0,1,.24-.23h1.25a.22.22,0,0,1,.24.23V123.7a.22.22,0,0,1-.24.24H19.9a.31.31,0,0,1-.35-.24l-3.68-12.08h-.12V123.7a.22.22,0,0,1-.23.24H14.26a.22.22,0,0,1-.23-.24Z"/><path class="cls-2" d="M24.47,108.06a.22.22,0,0,1,.24-.23h1.45a.22.22,0,0,1,.23.23v7.4L30.07,108a.27.27,0,0,1,.3-.19h1.54a.14.14,0,0,1,.15.21l-3.2,6.23,3.69,9.43c.05.15,0,.24-.14.24H30.85a.24.24,0,0,1-.26-.17l-2.89-7.48-1.31,2.65v4.76a.22.22,0,0,1-.23.24H24.71a.23.23,0,0,1-.24-.24Z"/><path class="cls-2" d="M38.38,115.88c0-4.57.07-5.16.31-5.87a3.38,3.38,0,0,1,3.53-2.4c2.23,0,3.48,1.26,3.74,3.51,0,.14,0,.26-.16.28l-1.33.27c-.17,0-.26,0-.28-.19-.17-1.33-.79-2.07-1.95-2.07a1.64,1.64,0,0,0-1.7,1.14c-.17.48-.22.83-.22,5.33s0,4.86.22,5.34a1.89,1.89,0,0,0,3.46,0c.14-.46.21-.83.21-4.13a.13.13,0,0,0-.14-.14H42.48a.23.23,0,0,1-.24-.24v-1.25a.23.23,0,0,1,.24-.24h3.34a.23.23,0,0,1,.24.24v.68c0,4.32-.07,4.91-.31,5.62a3.36,3.36,0,0,1-3.53,2.39,3.37,3.37,0,0,1-3.53-2.39C38.45,121.05,38.38,120.46,38.38,115.88Z"/><path class="cls-2" d="M54.3,123.94a.24.24,0,0,1-.26-.17L52,117a5,5,0,0,1-.67,0h-1a.13.13,0,0,0-.14.14v6.49a.23.23,0,0,1-.24.24H48.57a.22.22,0,0,1-.24-.24V108.06a.22.22,0,0,1,.24-.23h2.82c2.84,0,4.36,1.23,4.36,4.64,0,2.16-.71,3.46-2,4.1L56,123.7c0,.12,0,.24-.12.24Zm-.47-11.47c0-2.18-.71-2.87-2.42-2.87h-1c-.09,0-.14.05-.14.15v5.45a.13.13,0,0,0,.14.14h1C53.07,115.34,53.83,114.67,53.83,112.47Z"/><path class="cls-2" d="M60.55,108.06c.05-.14.12-.23.27-.23h1.42a.26.26,0,0,1,.26.23l3.39,15.64a.2.2,0,0,1-.22.24H64.25a.24.24,0,0,1-.26-.24l-.71-3.53H59.7L59,123.7c0,.15-.09.24-.24.24H57.33a.2.2,0,0,1-.21-.24ZM63,118.51l-1.38-7H61.5l-1.47,7Z"/><path class="cls-2" d="M67.78,123.94a.23.23,0,0,1-.24-.24V108.06a.22.22,0,0,1,.24-.23H70.6c2.84,0,4.36,1.28,4.36,4.83s-1.54,4.83-4.36,4.83h-1a.13.13,0,0,0-.15.15v6.06a.22.22,0,0,1-.23.24ZM73,112.66c0-2.27-.69-3.06-2.44-3.06h-1a.13.13,0,0,0-.15.15v5.82a.13.13,0,0,0,.15.15h1C72.35,115.72,73,115,73,112.66Z"/><path class="cls-2" d="M77,108.06a.22.22,0,0,1,.23-.23h6.09a.22.22,0,0,1,.24.23v1.31a.22.22,0,0,1-.24.23H79.06c-.1,0-.14.05-.14.15v5a.12.12,0,0,0,.14.14h3.69a.23.23,0,0,1,.24.24v1.3a.23.23,0,0,1-.24.24H79.06a.12.12,0,0,0-.14.14V122c0,.1,0,.14.14.14h4.26a.23.23,0,0,1,.24.24v1.3a.22.22,0,0,1-.24.24H77.23a.22.22,0,0,1-.23-.24Z"/><path class="cls-2" d="M85.5,108.06a.22.22,0,0,1,.24-.23h6.09a.22.22,0,0,1,.24.23v1.31a.22.22,0,0,1-.24.23H87.56c-.09,0-.14.05-.14.15v5.11c0,.1,0,.15.14.15h3.7a.22.22,0,0,1,.24.23v1.31a.22.22,0,0,1-.24.23h-3.7c-.09,0-.14,0-.14.15v6.77a.22.22,0,0,1-.24.24H85.74a.23.23,0,0,1-.24-.24Z"/><path class="cls-2" d="M99.91,123.94a.24.24,0,0,1-.26-.17l-2-6.73a4.86,4.86,0,0,1-.66,0H96a.12.12,0,0,0-.14.14v6.49a.23.23,0,0,1-.24.24H94.17a.22.22,0,0,1-.23-.24V108.06a.22.22,0,0,1,.23-.23H97c2.85,0,4.36,1.23,4.36,4.64,0,2.16-.71,3.46-2,4.1l2.25,7.13c0,.12,0,.24-.12.24Zm-.48-11.47c0-2.18-.71-2.87-2.41-2.87H96c-.1,0-.14.05-.14.15v5.45a.12.12,0,0,0,.14.14h1C98.68,115.34,99.43,114.67,99.43,112.47Z"/><path class="cls-2" d="M103.7,120V108.06a.22.22,0,0,1,.23-.23h1.45a.22.22,0,0,1,.24.23v12.16c0,1.4.71,2.13,1.84,2.13s1.85-.73,1.85-2.13V108.06a.22.22,0,0,1,.24-.23H111a.22.22,0,0,1,.23.23V120c0,2.78-1.47,4.17-3.77,4.17S103.7,122.76,103.7,120Z"/><path class="cls-2" d="M113.86,108.06a.22.22,0,0,1,.24-.23h1.44a.22.22,0,0,1,.24.23V123.7a.23.23,0,0,1-.24.24H114.1a.23.23,0,0,1-.24-.24Z"/><path class="cls-2" d="M120.66,123.94a.23.23,0,0,1-.24-.24v-14c0-.1,0-.15-.14-.15h-2.65a.22.22,0,0,1-.24-.23v-1.31a.22.22,0,0,1,.24-.23h7.51a.22.22,0,0,1,.24.23v1.31a.22.22,0,0,1-.24.23h-2.66c-.09,0-.14.05-.14.15v14a.22.22,0,0,1-.23.24Z"/><path d="M54,52.39c.31.07.41.11.33.12h-.24s0,0,.1,0c.32.1.36.15-.24.1l-.09,0c-.58-.14-.53-.18-.19-.16.08,0,.14,0,.11,0a1.84,1.84,0,0,0-.24-.07c-.07,0,0,0,.36,0Z"/><path d="M55.51,53.68c.21.25.27.35.2.31l-.2-.15s0,0,.05.11c.2.27.19.34-.27-.05l-.06-.06c-.39-.46-.32-.47,0-.27.07,0,.12.08.11,0l-.15-.2c0-.07.06,0,.31.2Z"/><path d="M54.24,55.36c.27-.19.41-.22.44-.1s0,.22,0,.28.09,0,.18,0c.36-.15.54-.07.33.52l-.06.08c-.51.36-.64.21-.59-.18,0-.09,0-.16,0-.17a1.33,1.33,0,0,0-.26.11c-.13,0-.14-.14,0-.46Z"/><path d="M56.28,55.1c.32.09.41.22.32.3a2.75,2.75,0,0,1-.27.07s0,.09.06.16c.26.29.13.58-.44.33l-.07-.06c-.38-.48-.35-.46,0-.46.08,0,.15,0,.13,0a.77.77,0,0,0-.22-.15c-.06-.07,0-.09.37-.14Z"/><path d="M55.51,57.77c0-.33.15-.45.28-.38s.15.19.21.22.11,0,.16-.12c.19-.36.47-.43.68.15v.09c-.23.62-.39.6-.63.28-.06-.08-.12-.12-.17-.09s-.08.18-.12.26-.21,0-.39-.32Z"/><path d="M58.2,56.93c.33,0,.44.16.36.24s-.22.08-.25.11,0,.08.08.14c.3.23.23.53-.37.38l-.08,0c-.46-.41-.43-.38-.06-.43.08,0,.14,0,.12-.08a.91.91,0,0,0-.24-.1c-.08-.06,0-.09.35-.2Z"/><path d="M57.83,59.58c.26-.2.37-.24.36-.14a2.29,2.29,0,0,0-.11.23s.06,0,.14,0c.31-.18.41-.14.09.37l-.06.08c-.49.36-.54.26-.39-.07,0-.08,0-.13,0-.13s-.15.09-.22.12-.06-.09.12-.37Z"/><path d="M60,59.18c.26-.18.39-.19.36-.09a2,2,0,0,1-.14.23s.06,0,.14,0c.35-.09.5.07,0,.39l-.09,0c-.61.14-.58.13-.35-.13.06-.07.09-.12,0-.12a1.71,1.71,0,0,0-.22.09c-.08,0,0-.08.18-.35Z"/><path d="M59.49,61.94c-.05-.33,0-.48.16-.45s.18.15.24.17.09-.06.12-.16c.11-.39.38-.49.68.07v.1c-.11.61-.24.6-.53.33-.07-.06-.14-.09-.17,0a.78.78,0,0,0,0,.28c-.06.11-.18,0-.41-.2Z"/><path d="M62.11,64.12c-.23.22-.31.3-.26.24l.17-.18-.08.07c-.25.23-.29.25.13-.17l.06-.07c.43-.41.41-.38.18-.13l-.07.08.18-.17c.06,0,0,0-.24.26Z"/><path d="M63.38,63c.07-.32.11-.42.13-.34a2.07,2.07,0,0,0,0,.25s0,0,.05-.1c.1-.33.16-.37.13.23l0,.09c-.13.58-.18.54-.18.2,0-.09,0-.14,0-.12s0,.17-.08.24,0,0,0-.36Z"/><path d="M64.43,64.61c.07-.32.11-.42.13-.34a2.07,2.07,0,0,0,0,.25s0,0,.06-.1c.09-.33.15-.36.12.23l0,.1c-.13.58-.18.53-.18.19,0-.09,0-.14,0-.11s0,.17-.08.23,0,0,0-.36Z"/><path d="M63.56,66.45c.09-.31.16-.41.19-.33a1.43,1.43,0,0,0,0,.26s.05,0,.08-.1c.15-.32.25-.34.26.26l0,.09c-.18.57-.27.52-.32.17,0-.08,0-.14,0-.12a1.67,1.67,0,0,0-.11.23c-.06.07-.09,0-.09-.37Z"/><path d="M67.23,65.56c.31-.1.42-.12.35-.08l-.22.12s0,0,.11,0c.33-.09.39-.07-.15.19l-.09,0c-.57.19-.54.14-.24,0,.07,0,.12-.06.09-.06l-.24.06c-.08,0,0,0,.3-.19Z"/><path d="M66.56,68.43c-.11.3-.16.4-.15.32l.06-.24,0,.1c-.12.31-.16.34,0-.23l0-.09c.21-.55.22-.51.13-.18,0,.08,0,.13,0,.11l.1-.23c0-.07,0,0-.08.35Z"/><path d="M69,67.22c.28-.15.39-.19.33-.13l-.19.15s0,0,.11,0c.31-.14.36-.12-.12.22l-.08,0c-.54.27-.52.21-.25,0,.06,0,.1-.09.07-.09l-.22.1c-.08,0,0,0,.26-.23Z"/><path d="M69.76,69.26c0-.32,0-.45.14-.39a1.4,1.4,0,0,0,.17.22s.07,0,.09-.13c.08-.37.26-.44.48.11l0,.1c-.07.62-.18.6-.39.3,0-.07-.1-.12-.13-.08a1.33,1.33,0,0,0,0,.26c0,.09-.14,0-.3-.3Z"/><path d="M70.12,70.75c.06-.33.12-.43.18-.35s.06.2.09.24.06,0,.09-.11c.11-.34.23-.38.35.22v.09c-.12.6-.24.56-.35.22,0-.09-.06-.14-.09-.11a1.54,1.54,0,0,0-.09.24c-.06.08-.12,0-.18-.35Z"/><path d="M72,68.66c-.31.09-.42.11-.35.08l.23-.09s0,0-.11,0c-.33.09-.37.08.18-.13l.1,0c.57-.17.54-.13.22,0-.08,0-.12,0-.1,0l.24-.06c.08,0,0,0-.32.14Z"/><path d="M73.37,70.42c.3.13.39.19.31.2s-.21,0-.25,0,0,0,.08.08c.31.17.32.25-.26.13l-.09,0c-.55-.25-.49-.3-.15-.26.09,0,.14,0,.12,0a1.3,1.3,0,0,0-.21-.12c-.07-.06,0-.06.36,0Z"/><path d="M72.2,71.32c.16-.28.23-.37.22-.29s-.06.2-.06.24,0,0,.08-.08c.19-.29.25-.31.07.26l0,.09c-.28.52-.32.47-.23.13,0-.08,0-.13,0-.11a2.19,2.19,0,0,0-.14.2c0,.07,0-.05.07-.35Z"/><path d="M73.89,72.65c.28-.16.4-.18.38-.08a1.71,1.71,0,0,0-.12.23s.06,0,.14,0c.34-.13.45-.06.08.42l-.08.06c-.53.29-.58.17-.4-.14,0-.08.06-.14,0-.14s-.17.06-.25.08,0-.11.15-.37Z"/><path d="M75.9,71.89c0-.32,0-.43,0-.36l.07.24s0,0,0-.12c0-.34,0-.38.15.19l0,.1c.08.59,0,.56-.07.23,0-.08,0-.13,0-.1l0,.24c0,.09,0,0-.13-.33Z"/><path d="M98.92,71.8c-.12.31-.16.41-.15.33l.06-.24s0,0,0,.1c-.13.31-.16.34,0-.23l0-.09c.21-.56.21-.51.13-.18,0,.08,0,.13,0,.1l.1-.22c0-.07,0,0-.08.34Z"/><path d="M101.21,71.17c.28.15.37.22.29.2l-.23-.09s0,0,.09.07c.29.18.31.23-.24,0l-.08,0c-.52-.3-.47-.31-.15-.18.08,0,.13,0,.11,0l-.21-.13c-.06-.05,0,0,.34.11Z"/><path d="M87.52,73.55c.13.3.14.42,0,.4s-.18-.14-.22-.15,0,.06,0,.15c.1.35,0,.45-.43,0l-.05-.08c-.25-.55-.12-.6.18-.39.07,0,.13.07.14,0a1.61,1.61,0,0,0-.07-.25c0-.1.12,0,.36.17Z"/><path d="M84.61,75c.14-.29.2-.38.19-.3l-.07.24s0,0,.07-.09c.16-.3.21-.33,0,.24l0,.09c-.26.54-.28.48-.19.15,0-.08,0-.13,0-.11l-.12.22c0,.07,0,0,.08-.35Z"/><path d="M106.78,66.65c.28.16.37.22.29.2l-.23-.09s0,0,.09.07c.29.19.31.23-.24,0l-.08,0c-.52-.29-.47-.3-.15-.18l.1,0-.2-.14q-.1-.08.33.12Z"/><path d="M106.67,68.56c-.15.28-.21.37-.18.3l.1-.22s0,0-.06.09c-.17.29-.2.32,0-.22l0-.08c.28-.53.27-.48.14-.17,0,.07-.06.12,0,.1l.12-.21c0-.07,0,0-.14.32Z"/><path d="M109.21,67.07c.14-.3.2-.39.18-.31l-.06.24s0,0,.07-.09c.16-.3.21-.32,0,.24l0,.09c-.25.54-.28.49-.19.16,0-.08,0-.13,0-.11l-.12.21c0,.07,0,0,.07-.34Z"/><path d="M109.28,65.32c0,.32,0,.43,0,.35v-.25s0,0,0,.11c0,.34,0,.38,0-.21v-.1c0-.59,0-.55,0-.21,0,.08,0,.13,0,.1v-.24c0-.08,0,0,0,.35Z"/><path d="M111.83,65.68c.3.09.41.13.32.12l-.24,0s0,0,.1,0c.32.11.35.15-.23,0l-.09,0c-.57-.18-.52-.19-.19-.14.08,0,.14,0,.11,0l-.23-.08c-.07,0,0,0,.35,0Z"/><path d="M113.07,63.38c-.19.26-.26.34-.23.27l.12-.21s0,0-.08.07c-.21.27-.25.29.06-.22l0-.08c.35-.48.35-.43.18-.13,0,.07-.06.12,0,.1l.15-.19c.06-.06,0,0-.16.31Z"/><path d="M114,60.71c.07-.32.11-.42.13-.34a1.85,1.85,0,0,0,0,.25s0,0,.06-.11c.1-.33.16-.36.15.24v.09c-.14.59-.19.54-.21.2,0-.09,0-.14,0-.12a2.46,2.46,0,0,0-.07.24c0,.08-.06,0,0-.36Z"/><path d="M116.26,59.78c.1-.31.18-.41.25-.32s0,.21.09.25.07,0,.12-.1c.18-.32.33-.34.41.26V60c-.2.57-.34.52-.46.17,0-.09-.06-.14-.1-.12a1.57,1.57,0,0,0-.13.23c-.08.07-.14,0-.18-.37Z"/><path d="M115.73,58c.32,0,.43.06.35.09a2.42,2.42,0,0,0-.24.05s0,0,.1,0c.34.06.38.12-.21.18h-.1c-.59-.06-.55-.12-.21-.18.08,0,.13,0,.11,0s-.18,0-.25-.05,0-.06.35-.09Z"/><path d="M117.73,57.94c0-.32,0-.43,0-.36a1.67,1.67,0,0,0,.11.23s0,0,0-.12c0-.34,0-.39.23.17l0,.09c.09.59,0,.57-.12.25,0-.07-.06-.12-.07-.09s0,.18,0,.25-.07,0-.18-.32Z"/><path d="M117.5,55.67c.17-.28.26-.36.26-.27s0,.21,0,.25,0,0,.11-.07c.22-.27.32-.27.15.31l0,.08c-.32.51-.39.44-.33.09,0-.08,0-.14,0-.13s-.12.15-.17.2-.06-.06,0-.38Z"/><path d="M118.58,54.29c.31-.08.42-.09.37,0l-.21.14s0,0,.12,0c.35,0,.41,0-.11.3l-.09,0c-.58.15-.57.06-.28-.14.06,0,.11-.08.07-.09a1.57,1.57,0,0,0-.25,0c-.08,0,0-.09.29-.24Z"/><path d="M119.88,53.6c0-.32,0-.43.06-.36s.06.21.08.24,0,0,0-.11c0-.35.09-.39.22.19v.09c0,.6-.07.57-.17.24,0-.08-.05-.13-.06-.1a1.56,1.56,0,0,0,0,.25c0,.08-.07,0-.13-.34Z"/><path d="M120.14,52.07c-.06-.32-.07-.43,0-.36a1.5,1.5,0,0,0,.11.22s0,0,0-.11c0-.34,0-.39.22.16l0,.09c.12.59,0,.57-.09.25,0-.07-.06-.12-.07-.09s0,.18,0,.25-.06,0-.17-.32Z"/><path d="M120.66,50.45c-.1-.31-.12-.42-.06-.36l.13.21s0,0,0-.11c-.08-.34,0-.4.24.13l0,.09c.18.56.11.55-.07.26,0-.07-.08-.11-.08-.08s0,.17,0,.24-.06,0-.21-.29Z"/><path d="M107.54,16a3.45,3.45,0,0,1,.9.78.89.89,0,0,0,1,.69,1.84,1.84,0,0,1,1.27.71,11.9,11.9,0,0,1,.57,1.13l0,.09a1.64,1.64,0,0,1-1.33-.56c-.27-.34-.4-.56-.71-.9a1.22,1.22,0,0,0-.53-.36,4.45,4.45,0,0,1-.73-.2,1.15,1.15,0,0,1-.47-1.35Z"/><path d="M63.69,15.29c-.18-.29-.16-.48,0-.51s.24.07.31.07.1-.08.15-.19a.47.47,0,0,1,.58-.21.14.14,0,0,1,.05.16c0,.06-.11.2,0,.3l.07.07c.08.18-.14.33-.26.37a1.68,1.68,0,0,1-.26.06c-.07,0,.07-.08-.06-.25s-.13-.09-.15-.05a.68.68,0,0,0,0,.27c0,.11-.14.09-.46,0Z"/><path d="M68.62,13.34c.32,0,.43,0,.35,0h-.24s0,0,.1,0c.34,0,.38.05-.21.07h-.1c-.59,0-.55-.05-.21-.07.08,0,.13,0,.11,0h-.25c-.08,0,0,0,.35,0Z"/><path d="M71.69,12.75c.18-.32.35-.44.53-.37s.19.19.29.22a.29.29,0,0,0,.25-.15c.31-.39.59-.49,1.11,0l0,.09c-.19.68-.63.74-1.06.46a.32.32,0,0,0-.3-.07c-.09,0-.17.2-.26.27s-.4,0-.59-.32Z"/><path d="M75.72,10.41c-.16-.28-.19-.4-.11-.36a1.72,1.72,0,0,0,.2.15s0,0,0-.12c-.14-.32-.1-.4.34,0l.06.08c.29.52.2.54-.07.33-.07-.06-.12-.09-.12-.05s.07.16.1.23-.09,0-.32-.2Z"/><path d="M58.22,46.56c.22.27.25.44.12.52s-.25,0-.31.06,0,.13,0,.23c.17.4.08.66-.57.62l-.08-.05c-.4-.52-.24-.73.19-.81.1,0,.18-.06.18-.13s-.09-.2-.12-.29.16-.23.5-.2Z"/><path d="M58.6,50.6c.16-.28.24-.37.24-.28s-.05.21-.05.25.05,0,.1-.08c.2-.28.28-.29.11.29l0,.08c-.31.52-.36.45-.29.11,0-.08,0-.14,0-.12a.86.86,0,0,0-.15.2c-.07.06-.06-.06,0-.37Z"/><path d="M69.06,59.22c.29-.15.41-.16.39-.07a2.43,2.43,0,0,0-.14.22s0,0,.14,0c.34-.11.45,0,0,.42l-.07.06c-.55.27-.59.14-.4-.16,0-.07.07-.13,0-.14s-.17.06-.25.08,0-.12.17-.36Z"/><path d="M109.78,49.53c.34-.14.57-.09.66.1a3.71,3.71,0,0,0,0,.38c0,.09.14.12.27.14.51.06.81.44.46,1.05l-.08,0c-.7,0-.81-.27-.78-.76a.27.27,0,0,0-.1-.27,1,1,0,0,0-.35,0c-.18-.06-.23-.24-.18-.61Z"/><path d="M110.29,40.91c.12-.3.2-.4.24-.31a1,1,0,0,0,0,.26s.06,0,.1-.09c.18-.31.3-.33.29.28l0,.09c-.22.56-.33.5-.37.14,0-.08,0-.14-.07-.12s-.09.16-.13.22-.1-.05-.1-.37Z"/><path d="M91.37,56.21c.33,0,.44,0,.37.06l-.23.1s0,0,.12.05c.35,0,.4.09-.17.28l-.09,0c-.6,0-.58-.07-.26-.21.08,0,.13-.07.09-.08a1.57,1.57,0,0,0-.25,0c-.08,0,0-.09.33-.18Z"/><path d="M93.2,55.58c.32,0,.44,0,.37,0s-.19.1-.22.13,0,0,.12,0c.35,0,.41.06-.14.3l-.09,0c-.59.07-.58,0-.27-.19.07,0,.12-.08.08-.09H92.8c-.09,0,0-.09.31-.21Z"/><path d="M64.69,51c0,.38,0,.58-.18.66a1.42,1.42,0,0,0-.38.08.33.33,0,0,0-.08.3c.08.52,0,.78-.68,1l-.09,0a.74.74,0,0,1,.33-1.27.44.44,0,0,0,.28-.21c0-.11,0-.28,0-.41s.35-.32.71-.21Z"/><path d="M65.39,53.12c.13.34.08.56-.11.62a2.16,2.16,0,0,0-.36,0c-.08,0-.11.13-.12.25-.06.48-.38.75-1,.41l0-.08c0-.68.22-.8.68-.74.12,0,.22,0,.26-.07s0-.24,0-.35.24-.19.59-.1Z"/><path d="M68.56,53.84c.16.29.17.43.06.43a1.43,1.43,0,0,0-.25-.1c-.05,0-.05.08,0,.16.11.36,0,.5-.5.18l-.07-.07c-.29-.54-.14-.63.21-.49.09,0,.15,0,.16,0s-.06-.19-.07-.27.13-.09.41.09Z"/><path d="M60.05,30.65c.05-.32.1-.43.15-.35a1,1,0,0,0,.07.24s0,0,.07-.1c.1-.34.19-.38.29.21v.1c-.1.59-.19.55-.29.21,0-.08-.05-.13-.07-.11a1.26,1.26,0,0,0-.07.25c-.05.08-.1,0-.15-.35Z"/><path d="M63.32,26.1c.13-.3.19-.39.21-.3s0,.21,0,.25,0,0,.09-.09c.17-.3.26-.32.19.28l0,.09c-.24.55-.31.49-.31.14,0-.09,0-.14,0-.12s-.09.16-.13.22-.07-.05,0-.38Z"/><path d="M65.47,27.53c.33-.23.58-.26.77-.11s.15.27.25.34a.41.41,0,0,0,.36,0,.89.89,0,0,1,1.24.65l0,.09a.89.89,0,0,1-1.39-.24.44.44,0,0,0-.3-.21c-.12,0-.27.09-.41.11s-.43-.17-.54-.55Z"/><path d="M70.48,25.09c.27-.19.39-.22.39-.12s-.09.21-.08.26.06,0,.15,0c.33-.15.46-.08.16.45l-.06.07c-.51.34-.59.21-.46-.14,0-.08,0-.14,0-.15a1.22,1.22,0,0,0-.24.11c-.11,0-.08-.12.08-.4Z"/><path d="M72.44,17.68c.34-.1.52-.06.57.1s-.06.25,0,.33.11.1.23.1c.45,0,.68.19.44.81l-.07.07c-.65.17-.82-.08-.76-.53,0-.11,0-.2-.08-.24a1.81,1.81,0,0,0-.33,0c-.16-.06-.18-.24,0-.57Z"/><path d="M110.09,27.22c.12-.37.3-.53.53-.51s.25.15.37.16a.38.38,0,0,0,.27-.19.78.78,0,0,1,1.29-.13l0,.09c-.25.69-.67.76-1.17.54a.35.35,0,0,0-.33,0c-.1.06-.16.22-.24.31s-.42.09-.71-.17Z"/><path d="M107.5,21.91c-.06-.32,0-.44,0-.39a1.72,1.72,0,0,0,.17.19s.05-.05.05-.13c0-.36.08-.44.41.06l0,.09c.1.6,0,.61-.26.33-.06-.06-.11-.1-.12-.06a2.23,2.23,0,0,0,0,.26c0,.09-.12,0-.29-.26Z"/><path d="M89.27,11.58c.23.28.27.49.13.62a3.52,3.52,0,0,0-.33.15.3.3,0,0,0,0,.29c.18.46.08.8-.6.9l-.09,0c-.42-.55-.25-.86.2-1.06.11,0,.19-.11.2-.2a1.74,1.74,0,0,0-.12-.34c0-.19.16-.32.52-.36Z"/><path d="M16.15,49.05c.34.09.46.27.38.43s-.21.15-.26.22,0,.14.08.24c.28.36.17.78-.49.75l-.09,0c-.4-.51-.32-.63.06-.81.09-.05.16-.11.13-.17s-.16-.14-.23-.2,0-.22.32-.41Z"/><path d="M11.3,44.13c.33.07.44.16.37.26a1.66,1.66,0,0,0-.24.16c0,.05,0,.09.11.14.35.18.36.54-.27.58l-.1,0c-.53-.32-.49-.35-.15-.55.08-.05.13-.09.1-.14s-.18-.08-.25-.12,0-.19.34-.31Z"/><path d="M11.52,47.83c.32-.06.45,0,.38.07s-.2.08-.23.11,0,0,.11.06.25.08.26.12-.16,0-.45.13l-.09,0a.6.6,0,0,1-.48-.12s.06-.08.24-.13.13-.05.1-.06a.94.94,0,0,0-.25,0c-.08,0,0,0,.32-.16Z"/><path d="M12.82,48.26c.33,0,.46,0,.41.11s-.18.14-.2.19,0,.06.13.08c.37.07.45.34-.15.51h-.09c-.6-.13-.57-.16-.27-.38.07-.05.12-.1.08-.13a1.86,1.86,0,0,0-.26,0c-.1,0,0-.14.26-.31Z"/><path d="M12.25,41.07c.37,0,.55.17.54.38s-.14.25-.14.35.07.17.17.25a.68.68,0,0,1,.31.59.62.62,0,0,1-.6.54l-.08-.06c-.17-.29-.3-.34-.34-.49a.81.81,0,0,1,.2-.47.27.27,0,0,0,0-.28c-.06-.07-.22-.11-.31-.16s-.09-.31.12-.61Z"/><path d="M13.27,41.61c.33,0,.44.06.38.15s-.18.12-.2.17.05.07.14.07.28,0,.31,0-.11.15-.24.42l0,.09a.51.51,0,0,1-.58,0,.34.34,0,0,1,.07-.4c.06-.07.09-.13.05-.17s-.2,0-.28-.06,0-.24.29-.36Z"/><path d="M14.72,40.06c.33.07.44.1.37.18s-.2.09-.23.14,0,.06.12.09c.36.07.44.3-.16.49h-.09c-.6-.12-.57-.19-.26-.41.07,0,.12-.09.08-.13a2.5,2.5,0,0,0-.25-.08c-.09-.08,0-.2.33-.28Z"/><path d="M16,41.83c.33,0,.47.05.41.16s-.19.14-.22.18,0,.09.12.13c.37.16.31.61-.31.5l-.09,0c-.48-.39-.47-.27-.12-.43.08,0,.13-.07.1-.1s-.19,0-.26-.06,0-.12.28-.3Z"/><path d="M14.44,47.79c.32-.06.45,0,.38.08a2.08,2.08,0,0,1-.24.1s0,.05.11.09.23.17.2.27a.35.35,0,0,1-.54,0l0-.1a.32.32,0,0,0-.39-.21s.05.05.24,0,.13,0,.1,0A.61.61,0,0,0,14,48c-.08,0,0,0,.32-.16Z"/><path d="M13.61,45.18c.35,0,.5.12.47.29s-.16.2-.17.28.06.13.16.18c.4.18.5.62-.12.9h-.09c-.58-.29-.57-.41-.3-.76.06-.09.09-.17,0-.23a1.7,1.7,0,0,0-.3-.12c-.11-.1-.05-.27.21-.5Z"/><path d="M13,50.45c.32-.06.44-.05.38,0s-.19.11-.22.14,0,0,.13,0,.26.08.27.18-.19.23-.49.15l-.09,0a.57.57,0,0,0-.45-.1s.07,0,.24-.07.13-.07.09-.08a1.15,1.15,0,0,0-.24,0c-.09,0,0-.08.29-.23Z"/><path d="M11.55,50.69c.31-.08.44,0,.36.06l-.25,0s0,0,.1.06c.33.12.32.27-.24.08l-.09,0c-.54-.26-.52-.18-.18-.13h.1a.88.88,0,0,0-.24,0c-.08,0,0,.07.35,0Z"/><path d="M19.47,60.35c-.31.14-.46.1-.44,0s.14-.18.16-.23-.06,0-.15,0c-.39,0-.44,0-.05-.48l.07-.06c.58-.23.67,0,.44.29-.06.07-.09.13,0,.15a.83.83,0,0,0,.26,0c.1,0,0,.11-.18.37Z"/><path d="M16.09,56.62c.32,0,.45,0,.39.07s-.17.13-.2.17,0,0,.14.06c.36,0,.44.12-.08.44l-.09,0c-.6.07-.61-.07-.33-.3C16,57,16,57,16,57a1.06,1.06,0,0,0-.26,0c-.1,0,0-.14.27-.3Z"/><path d="M14.64,58c.32-.06.44,0,.38,0s-.18.11-.2.15,0,0,.12,0c.36,0,.43.07-.1.35l-.1,0c-.59.1-.58,0-.29-.21.07,0,.11-.09.07-.1a2.36,2.36,0,0,0-.25,0c-.09,0,0-.11.28-.26Z"/><path d="M16.94,46.5c.32,0,.44,0,.38.17s-.19.13-.22.18,0,.08.12.12c.36.12.43.36-.14.53H17c-.62-.16-.59-.24-.28-.45.08,0,.13-.1.09-.13a1.31,1.31,0,0,0-.25-.06c-.08,0,0-.14.31-.33Z"/><path d="M16.51,55.15c.31-.08.43-.08.36,0l-.21.12s0,0,.12,0c.34-.05.4,0-.14.25l-.09,0c-.59.13-.57.06-.27-.11.07,0,.12-.08.08-.09l-.24,0c-.09,0,0-.08.3-.21Z"/><path d="M18.15,44.3c.25.21.32.32.21.35a1.23,1.23,0,0,0-.26,0s0,.07,0,.14c.23.27.21.41-.38.26L17.68,45c-.46-.39-.36-.49,0-.46.09,0,.15,0,.14,0s-.12-.14-.16-.2.09-.11.4,0Z"/><path d="M20.69,52.34c.28.2.35.37.24.49s-.25.07-.3.13,0,.13,0,.23c.2.4,0,.79-.64.59l-.07-.06c-.27-.59-.19-.65.23-.74.1,0,.17-.06.16-.13s-.12-.17-.17-.25.09-.22.44-.28Z"/><path d="M18.41,53c.27.17.32.29.23.28l-.22-.12s0,0,.06.1.19.17.23.08-.14-.27-.43-.14l-.09,0c-.3.09-.45-.12-.43-.27s.17-.14.32,0,.12.07.1,0a.9.9,0,0,0-.17-.17c-.06-.05,0,0,.31.16Z"/><path d="M14.16,54.71c.33-.05.45,0,.39,0a1.26,1.26,0,0,0-.2.16s0,0,.13,0c.35,0,.43.1-.1.39l-.09,0c-.6.08-.6,0-.31-.26.07-.05.11-.1.07-.11a1.85,1.85,0,0,0-.25,0q-.15,0,.27-.27Z"/><path d="M26.15,59.72c.32,0,.44,0,.39.05a1.26,1.26,0,0,0-.2.16s0,0,.12,0c.36,0,.44.09-.09.39l-.09,0c-.6.09-.6,0-.31-.25.07-.06.11-.1.07-.12a1.12,1.12,0,0,0-.26,0c-.09,0,0-.12.28-.28Z"/><path d="M22.84,56.53c.28.16.32.3.22.3s-.19-.1-.23-.11,0,0,0,.12c.08.36-.09.45-.28-.11l0-.09c-.09-.6-.15-.53,0-.24.05.07.09.11.08.08a1,1,0,0,0-.18-.17c-.07,0,0,0,.31.17Z"/><path d="M20.65,56.83c.32,0,.46,0,.38.12s-.2.09-.23.12,0,0,.1.09c.34.14.36.28-.24.3l-.1,0c-.57-.18-.52-.24-.18-.3.08,0,.13,0,.11-.07a.9.9,0,0,0-.25,0c-.08,0,0,0,.32-.18Z"/><path d="M22.33,63.35c.34,0,.47.08.42.2s-.19.15-.21.2,0,.1.12.14c.36.18.37.56-.27.59l-.09,0c-.53-.33-.5-.33-.16-.53.08,0,.12-.09.09-.13a.88.88,0,0,0-.26-.08c-.1-.06,0-.15.27-.34Z"/><path d="M14.92,38.55c0,.34-.18.46-.29.36s-.07-.23-.1-.27-.09,0-.17,0c-.35.21-.63,0-.23-.49l.08-.06c.57-.24.5-.25.4.09,0,.09,0,.15,0,.13s.09-.15.11-.22,0,0,.15.34Z"/><path d="M11.9,38.48c.28.2.38.27.3.27a1.2,1.2,0,0,0-.24,0s0,.05.09.1c.31.18.34.19-.27.2l-.09,0c-.57-.18-.49-.35-.14-.34.08,0,.14,0,.12,0s-.15-.11-.21-.17.06-.11.36,0Z"/><path d="M53.73,5.77c-.36.24-.61.28-.82.14s-.16-.26-.27-.33a.47.47,0,0,0-.37,0c-.56.2-1,.12-1.34-.6l0-.09a1,1,0,0,1,1.46.19.47.47,0,0,0,.33.2,2.61,2.61,0,0,0,.43-.13c.26,0,.47.17.59.53Z"/><path d="M48.15,3.3c-.35.08-.54,0-.59-.14s0-.27,0-.35-.13-.11-.25-.12c-.47,0-.72-.24-.5-.88l.08-.07c.66-.14.85.13.81.61,0,.11,0,.21.09.25a1.83,1.83,0,0,0,.35,0c.16.07.19.26.06.6Z"/><path d="M52.24,7.39c-.31.15-.46.16-.46.05s.09-.2.08-.26-.08,0-.17,0c-.39.1-.55,0-.23-.52l.07-.06c.57-.27.67-.12.55.23,0,.09,0,.15,0,.17s.19-.06.28-.07.1.14-.07.42Z"/><path d="M21,9.67c-.14.4-.32.6-.58.65a1.44,1.44,0,0,0-.46,0,.49.49,0,0,0-.25.32,1.45,1.45,0,0,1-1,1.16l-.09,0a1,1,0,0,1-.06-1,1.15,1.15,0,0,1,.81-.53.73.73,0,0,0,.41-.17A4.41,4.41,0,0,0,20,9.61a.75.75,0,0,1,.92,0Z"/><path d="M18.06,13.77c.06.37,0,.55-.17.59a1.32,1.32,0,0,0-.33,0c-.07,0-.1.12-.11.23,0,.47-.24.68-.88.44l-.06-.07c-.15-.65.15-.84.61-.78.12,0,.21,0,.26-.07a1.78,1.78,0,0,0,0-.35c.08-.16.27-.18.58,0Z"/><path d="M28.8,10.77c.06.34,0,.51-.2.5s-.21-.14-.28-.16-.12.07-.16.16c-.18.41-.57.48-.81-.12v-.1c.25-.59.36-.56.67-.28.07.06.14.09.19.05a1,1,0,0,0,.07-.29c.06-.11.18,0,.46.16Z"/><path d="M28.83,3.07c.11.34.11.5-.06.55s-.25,0-.33,0-.09.13-.1.25a.55.55,0,0,1-.49.5.52.52,0,0,1-.52-.55l.05-.09c.27-.21.33-.33.33-.37a1.92,1.92,0,0,0,.29.1c.1,0,.19,0,.22-.06s0-.22,0-.32.24-.21.57-.07Z"/><path d="M30.44,3.8c.08.33,0,.46-.06.43a1.76,1.76,0,0,0-.23-.15s-.07.06-.07.15c0,.38-.3.52-.59,0V4.1c0-.61.08-.59.38-.35.07.06.13.09.15,0a1.3,1.3,0,0,0,0-.28c0-.1.17,0,.39.2Z"/><path d="M27.49,5.32c.18.27.18.41.09.37l-.18-.18s0,0,0,.13,0,.26,0,.27-.08-.14-.29-.36l-.06-.07A.64.64,0,0,1,27,5s.09,0,.2.17.1.11.1.07-.06-.16-.09-.23,0,0,.27.24Z"/><path d="M27.57,6.46c.16.28.16.42.05.4a2.36,2.36,0,0,0-.24-.14s0,.06,0,.15c.06.37-.09.52-.45.06l0-.09c-.14-.62-.08-.62.2-.41.07.05.13.08.13,0a1,1,0,0,0-.07-.25c0-.1.11,0,.37.17Z"/><path d="M33.27,3.41c.13.33.07.54-.11.6s-.27,0-.35,0-.12.12-.14.24a.6.6,0,0,1-.36.49.6.6,0,0,1-.68-.33l0-.1c.17-.29.15-.42.25-.51a.7.7,0,0,1,.47,0c.1,0,.2,0,.24,0a.9.9,0,0,0,0-.33c.06-.16.23-.17.57-.08Z"/><path d="M33.17,4.37c.09.32.13.43,0,.4A1.38,1.38,0,0,0,33,4.64s0,.07,0,.15.1.25.08.28S32.89,5,32.59,5H32.5a.51.51,0,0,1-.27-.5c.07-.08.18-.12.37,0s.16,0,.17,0-.05-.19-.06-.27.19-.1.41.15Z"/><path d="M34.92,4.91c.07.33.06.46,0,.42s-.14-.16-.19-.17-.05,0,0,.15c0,.37-.08.47-.44,0l0-.09c-.13-.6,0-.64.26-.39.07.06.12.09.13,0a1.3,1.3,0,0,0,0-.27c0-.1.13,0,.32.22Z"/><path d="M33.89,6.49c.16.29.15.43,0,.42s-.19-.12-.24-.13,0,.06-.06.15c0,.39-.37.52-.52-.09v-.1c.13-.6,0-.54.29-.28.06.06.12.09.13,0a.9.9,0,0,0-.06-.25c0-.1.1,0,.36.16Z"/><path d="M32.11,6.16c-.27.29-.51.37-.74.27s-.21-.23-.33-.28a.46.46,0,0,0-.37.06.89.89,0,0,1-1.37-.52l0-.09a1,1,0,0,1,1.4.09.44.44,0,0,0,.34.15c.12,0,.25-.15.37-.2s.48.08.67.43Z"/><path d="M28.5,7.51c.18.27.18.41.09.37l-.18-.18s0,0,0,.13,0,.28-.14.29a.35.35,0,0,1-.18-.5l.07-.07a.33.33,0,0,0,0-.45s0,.08.06.24.07.11.07.08a1.13,1.13,0,0,0-.09-.22c0-.08,0,0,.26.24Z"/><path d="M30.72,7.53c.12.32.1.49,0,.52A1.48,1.48,0,0,0,30.36,8c-.06,0-.08.1-.09.21,0,.42-.31.66-.78.2l0-.09c0-.63.1-.66.51-.53.1,0,.18,0,.21,0a1.62,1.62,0,0,0,0-.3c0-.14.2-.14.51,0Z"/><path d="M26.31,9.12c.17.28.16.42.05.4s-.18-.14-.22-.15-.05.05-.05.14-.08.3-.2.32a.41.41,0,0,1-.26-.48l0-.09a.62.62,0,0,0,.08-.45.84.84,0,0,0,.13.22c.05.07.1.1.11.07a1.61,1.61,0,0,0-.07-.25c0-.08.07,0,.32.2Z"/><path d="M25.85,7.42c.19.27.23.38.14.35a1.72,1.72,0,0,0-.2-.15s0,0,0,.13,0,.27,0,.3-.26-.08-.32-.39V7.57a.63.63,0,0,0-.1-.45s0,.07.15.2.11.09.11.06-.09-.16-.12-.22.07,0,.31.19Z"/><path d="M25.16,6.38c.19.26.17.41.09.35a1.35,1.35,0,0,1-.13-.21s0,0,0,.12c0,.34-.09.4-.16-.19v-.1c0-.59-.07-.55,0-.22l0,.1A.73.73,0,0,0,24.92,6c0-.07,0,.06.18.3Z"/><path d="M24.53,8.16c.14.3.14.44,0,.45s-.21-.1-.27-.09-.06.08,0,.17c.09.38,0,.54-.57.22l-.06-.07c-.25-.57-.08-.67.28-.54.09,0,.17,0,.18,0A1.66,1.66,0,0,0,24,8c0-.12.16-.1.44.07Z"/><path d="M23.4,7.28c.19.26.24.36.17.32l-.2-.15s0,0,0,.11c.18.29.16.36-.27,0l-.07-.07c-.35-.48-.28-.49,0-.27.07,0,.11.08.11,0S23.07,7.07,23,7s.06,0,.3.2Z"/><path d="M23.23,9.2c.19.26.25.35.18.31l-.18-.16s0,0,0,.1c.19.28.19.34-.24-.08L23,9.3c-.36-.47-.3-.47,0-.25.07.06.11.09.1.06l-.14-.2c0-.07.05,0,.28.22Z"/><path d="M18.84,18.93c-.32.06-.46,0-.4-.11a2.26,2.26,0,0,0,.21-.16s0-.07-.12-.09c-.36-.1-.4-.34.2-.44h.1c.58.17.54.2.22.36-.08,0-.13.08-.09.1a.64.64,0,0,0,.25,0c.09,0,0,.09-.28.27Z"/><path d="M19.9,15.87c-.24-.22-.29-.33-.18-.34a1.6,1.6,0,0,0,.27,0s0-.06,0-.13c-.21-.28-.17-.4.43-.21l.08,0c.43.41.32.5-.05.43-.09,0-.16,0-.16,0s.11.15.15.21-.1.09-.42,0Z"/><path d="M19.15,14.79c-.32,0-.42-.09-.34-.12l.25,0s0,0-.1-.07-.22-.15-.19-.22.24-.1.48.1l.07.07c.19.24.34.23.39.23s-.05,0-.24-.08-.13,0-.11,0a1.2,1.2,0,0,0,.24.06c.08,0,0,0-.35,0Z"/><path d="M16.6,18.58q.22.44.06.42a1,1,0,0,0-.25-.1s0,.07,0,.15c.17.34.2.35-.41.27l-.09,0c-.49-.39-.28-.65.1-.57.09,0,.16,0,.17,0s-.06-.18-.07-.26.15-.1.42.09Z"/><path d="M18,20.48c-.27.18-.37.23-.34.15a1.52,1.52,0,0,0,.14-.21s-.05,0-.11,0c-.29.22-.22.3-.06-.28l0-.09c.31-.52.53-.34.37,0,0,.08-.05.13,0,.13s.16-.09.23-.12.05.09-.17.34Z"/><path d="M16.35,21.27c-.27.17-.39.19-.37.1s.12-.18.13-.23-.06,0-.14,0c-.34.13-.54-.13,0-.43l.09,0c.6-.08.52-.16.32.15-.05.07-.08.12,0,.13l.23-.1c.1,0,.05.1-.15.35Z"/><path d="M14.14,20.05c.15.3.16.43.06.42s-.2-.1-.25-.09,0,.07,0,.15c.17.33.21.35-.41.26l-.09,0c-.48-.39-.28-.66.1-.57.1,0,.16,0,.17,0s-.06-.19-.07-.27.15-.1.42.09Z"/><path d="M13.89,22.74c-.28.17-.4.2-.38.1s.12-.18.13-.22-.06,0-.14,0c-.34.13-.53-.14,0-.44l.09,0c.6-.09.53-.16.32.15-.05.06-.08.12,0,.12a1.38,1.38,0,0,0,.24-.1c.09,0,0,.1-.16.36Z"/><path d="M16.34,22.83c-.26.19-.31.29-.26.23a.71.71,0,0,0,.11-.21s0,0-.05.09c-.1.33,0,.37-.12-.22v-.1c0-.6.24-.55.27-.18,0,.08,0,.14,0,.12a1.26,1.26,0,0,1,.2-.16c.1,0,.1.12-.12.36Z"/><path d="M21.83,12c.17.28.2.4.11.38s-.19-.12-.23-.13,0,.06,0,.14c.14.33.08.44-.4.07l-.06-.07c-.31-.52-.2-.57.12-.39.07,0,.13.06.13,0s-.07-.17-.09-.24.1-.05.36.15Z"/><path d="M23.34,12.62c.18.27.22.38.14.35a1.52,1.52,0,0,0-.21-.14s0,.05,0,.12c.16.32.12.4-.34,0l-.07-.07c-.32-.51-.23-.54.06-.34.07,0,.12.07.12,0s-.08-.16-.11-.23.08,0,.33.18Z"/><path d="M49.23,7c0,.37-.13.52-.28.49s-.19-.15-.26-.16-.12.07-.16.18c-.13.41-.33.53-.84.09l0-.08c0-.64.33-.72.71-.51.1,0,.18.08.24,0a3.24,3.24,0,0,0,.13-.31c.11-.13.28-.08.49.18Z"/><path d="M50.14,8.42c0,.32,0,.43-.09.35A2.5,2.5,0,0,0,50,8.52s0,0,0,.11c0,.33-.11.37-.27-.22V8.32c0-.59.1-.55.22-.21,0,.08.06.13.08.1S50,8,50,8s.09,0,.16.35Z"/><path d="M48.61,8.89c-.12.31-.16.42-.25.35s-.11-.19-.17-.22-.09,0-.12.13c-.12.36-.34.44-.62-.12v-.1c.11-.61.27-.6.54-.3.07.07.12.11.17.08s.08-.19.13-.26.26,0,.34.34Z"/><path d="M51,9.34c0,.34-.08.46-.16.4s-.09-.2-.13-.22-.06,0-.09.12c-.09.37-.22.44-.43-.12l0-.1c.06-.62.2-.61.38-.3.05.08.09.12.12.09s0-.19.07-.27.14,0,.25.31Z"/><path d="M49,10.9c-.09.38-.27.56-.51.56a2.34,2.34,0,0,0-.41-.12.44.44,0,0,0-.29.21.82.82,0,0,1-1.38.09l0-.09c.36-.65.72-.7,1.25-.5a.43.43,0,0,0,.35,0c.09-.07.15-.24.23-.34s.43-.12.75.1Z"/><path d="M33.68,10.39c-.16.31-.27.41-.36.33a1.62,1.62,0,0,0-.12-.26c-.05,0-.11,0-.17.1-.24.32-.41.35-.6-.26v-.1c.23-.58.47-.52.65-.16.05.08.1.14.15.11s.13-.16.19-.22.22,0,.27.37Z"/><path d="M30.58,9.74c.15.28.14.42,0,.4a2.35,2.35,0,0,0-.25-.14c-.05,0-.05.06,0,.15.05.37-.13.52-.5,0l0-.08c-.12-.62-.05-.63.26-.41.07,0,.13.08.14,0a1.38,1.38,0,0,0-.05-.25c0-.1.12,0,.4.17Z"/><path d="M46.83,4.57c-.31.16-.44.2-.44.09a.9.9,0,0,0,.07-.24s-.08,0-.16,0c-.35.16-.45.13-.25-.47l.05-.08c.47-.38.63-.21.54.16,0,.09,0,.15,0,.16s.18-.07.27-.09.13.14-.05.41Z"/><path d="M46.55,5.69c0,.33-.09.44-.19.37s-.11-.2-.16-.23-.07,0-.1.12c-.11.35-.26.4-.52-.17l0-.09c.07-.6.24-.58.45-.26.06.08.11.13.14.09s.05-.18.08-.25.17,0,.3.33Z"/><path d="M35.55,14.71c.06.35-.08.53-.26.5S35.09,15,35,15s-.13,0-.2.12c-.27.37-.76.31-.77-.36l0-.08c.45-.46.47-.42.71-.08.05.08.12.13.17.09a.72.72,0,0,0,.1-.27c.07-.11.16,0,.43.19Z"/><path d="M33.38,14c0,.34-.06.49-.2.45s-.18-.15-.24-.17-.1.06-.14.16c-.11.39-.42.51-.73-.06v-.1c.15-.61.27-.6.59-.34.07.06.14.09.19.05s0-.2.07-.29.22,0,.44.21Z"/><path d="M32.21,19.34c0,.34-.06.48-.2.44a2.73,2.73,0,0,0-.24-.17c-.06,0-.1.06-.13.16-.11.39-.43.51-.74-.06v-.09c.15-.62.27-.61.59-.35.08.06.14.09.19.05s0-.2.07-.29.22,0,.44.22Z"/><path d="M38.45,20.84c0,.34-.06.48-.2.44s-.18-.15-.25-.17-.1.06-.13.16c-.11.39-.43.51-.73-.06v-.09c.14-.62.27-.61.58-.35.08.06.15.09.19.05a1.48,1.48,0,0,0,.08-.29c.07-.11.21,0,.43.22Z"/><path d="M32.05,11.53c.19.26.24.36.17.32a1.72,1.72,0,0,0-.2-.15s0,0,0,.11c.18.29.16.36-.27-.05l-.07-.07c-.35-.48-.28-.49,0-.28.07.05.11.08.11.05s-.1-.15-.13-.21.06,0,.3.21Z"/><path d="M32.6,9c-.07.32-.14.43-.19.35s-.06-.21-.08-.25-.07,0-.1.1c-.13.34-.25.37-.35-.22v-.1c.14-.59.26-.55.37-.2,0,.08,0,.14.08.11a1.08,1.08,0,0,0,.1-.24c.07-.08.12,0,.17.36Z"/><path d="M52.79,13.24c-.26.22-.46.22-.53.06s0-.25,0-.32-.11-.07-.22-.06c-.44,0-.69-.27-.27-.77l.08,0c.64-.06.67.05.58.45,0,.1,0,.18,0,.2a1.09,1.09,0,0,0,.28-.08c.13,0,.14.13.09.47Z"/><path d="M57.85,8.75c-.24.25-.39.32-.51.21a1.68,1.68,0,0,0-.15-.3c-.07-.05-.16,0-.27,0a.54.54,0,0,1-.67-.18.52.52,0,0,1,.24-.72h.09c.31.13.45.13.49.11a1.64,1.64,0,0,0,0,.31c0,.1.08.17.16.16s.18-.13.27-.17.3.11.33.47Z"/><path d="M58.67,8.25c-.25.22-.38.26-.41.15s0-.23,0-.28-.09,0-.17,0c-.34.18-.6,0-.25-.53l.07-.06c.56-.25.56-.21.49.17,0,.09,0,.16,0,.16s.17-.1.24-.13.12.12,0,.43Z"/><path d="M57,9.48c-.15.29-.27.35-.28.26s.06-.21.06-.25,0,0-.11.06-.21.15-.23.14.08-.15.18-.43l0-.09A.64.64,0,0,1,57,8.85s0,.1,0,.26-.05.13,0,.12A1.12,1.12,0,0,0,57.06,9c.06-.06,0,0-.08.35Z"/><path d="M59.16,13.72c-.17.27-.29.34-.32.23a2.42,2.42,0,0,0,0-.27s-.07,0-.14.05c-.29.24-.5.17-.26-.37l.06-.07c.47-.42.5-.37.45,0,0,.08,0,.14,0,.13s.13-.13.19-.18.08.08,0,.41Z"/><path d="M58.71,11.14c-.23.28-.44.33-.58.19S58,11.08,58,11a.3.3,0,0,0-.28,0,.63.63,0,0,1-.6-.08.59.59,0,0,1,0-.76l.09,0c.33,0,.44-.07.56,0a.73.73,0,0,1,.22.42c0,.1.08.18.16.19a1.61,1.61,0,0,0,.29-.15c.17,0,.26.12.34.47Z"/><path d="M61.11,17.43c-.31.11-.42.16-.4.06a.73.73,0,0,0,.12-.23c0-.05-.07,0-.15,0s-.24.12-.28.1.05-.17.07-.47v-.1a.5.5,0,0,1,.48-.3c.09.06.13.18.08.37S61,17,61,17s.19-.07.27-.08.11.18-.12.42Z"/><path d="M60.68,19.21c-.32.1-.46.09-.42,0a2.33,2.33,0,0,0,.16-.2s-.06,0-.15,0c-.38,0-.49-.05,0-.44l.09,0c.6-.17.64,0,.41.23,0,.07-.08.12,0,.14s.19,0,.27,0,0,.12-.2.33Z"/><path d="M59,18.28c-.28.18-.43.17-.42.06s.11-.2.12-.25-.06-.05-.16-.05c-.38,0-.54-.34.06-.53h.1c.61.09.54,0,.3.27-.06.07-.09.12,0,.13a1,1,0,0,0,.24-.07c.1,0,0,.09-.13.37Z"/><path d="M59.71,17c-.39-.08-.59-.24-.62-.49a2.22,2.22,0,0,0,.06-.43c0-.12-.12-.2-.25-.28a.89.89,0,0,1-.29-1.43l.1,0a1,1,0,0,1,.67,1.24.44.44,0,0,0,0,.36,2.7,2.7,0,0,0,.38.21c.17.18.18.45,0,.8Z"/><path d="M55.29,10.8c-.26.2-.4.21-.36.12l.16-.2s0,0-.13,0-.28,0-.29-.13a.35.35,0,0,1,.49-.21l.06.07a.35.35,0,0,0,.46,0s-.08,0-.24.07-.11.08-.08.08a1.12,1.12,0,0,0,.22-.11c.08,0,0,0-.22.28Z"/><path d="M57.81,15.18c-.32.14-.49.13-.52,0s.06-.24,0-.31-.1-.08-.21-.07c-.42,0-.68-.28-.25-.78L57,14c.63,0,.66.06.56.48,0,.09,0,.18,0,.2a1.69,1.69,0,0,0,.3,0c.14,0,.15.19,0,.51Z"/><path d="M53.05,10.26c-.17.28-.3.34-.33.24s0-.22,0-.27-.07,0-.15,0-.3.07-.37,0a.4.4,0,0,1,.29-.46h.1a.63.63,0,0,0,.43-.14.87.87,0,0,0-.13.22c0,.07,0,.13,0,.12a.74.74,0,0,0,.17-.18c.07,0,0,.06,0,.38Z"/><path d="M54.32,9.05c-.15.29-.22.38-.24.29s0-.21,0-.25,0,0-.11.07-.22.16-.29.11,0-.27.19-.47l.08,0c.28-.13.32-.27.34-.31s0,.06-.09.24,0,.13,0,.11a1.6,1.6,0,0,0,.13-.21c.06-.06.05.05,0,.37Z"/><path d="M54.9,7.94c-.13.3-.28.34-.26.25s.1-.18.11-.22,0,0-.1,0c-.28.2-.4.11.09-.23l.09,0c.52-.29.44-.32.2-.08L55,7.74a1.12,1.12,0,0,0,.16-.19c0-.07-.08,0-.18.3Z"/><path d="M53,8.24c-.2.27-.32.34-.39.23s0-.23,0-.28-.09,0-.17.06c-.29.25-.48.22-.46-.4l0-.09c.38-.49.55-.39.61,0,0,.1,0,.16.1.15a1.56,1.56,0,0,0,.21-.18c.12,0,.17.09.15.43Z"/><path d="M51.5,7.6c-.13.29-.19.39-.18.31l0-.25s0,0-.06.09c-.16.31-.22.33-.05-.24l0-.09c.24-.55.27-.49.19-.16,0,.08,0,.14,0,.11l.11-.22c0-.06,0,0-.06.36Z"/><path d="M55.13,18.31c-.32-.14-.43-.25-.35-.34s.21-.09.25-.14,0-.1-.11-.16c-.33-.22-.37-.39.23-.61h.1c.59.2.54.44.2.64-.08,0-.14.1-.11.16s.17.12.24.18,0,.22-.36.29Z"/><path d="M55.59,15.17c-.27.17-.4.17-.39.05a2.78,2.78,0,0,0,.12-.26c0-.05-.07-.05-.16,0-.36.07-.52-.1-.08-.5l.09,0c.61-.16.62-.08.42.23-.05.08-.07.14,0,.15a.9.9,0,0,0,.24-.07c.1,0,.05.12-.14.41Z"/><path d="M53.9,16.75c-.25.21-.35.26-.31.19s.12-.17.14-.21,0,0-.11.05c-.28.2-.35.18,0-.28l.07-.07c.46-.37.47-.3.27,0-.05.07-.07.11,0,.1s.14-.1.2-.14,0,.07-.19.31Z"/><path d="M56.41,17.15c-.32,0-.43-.11-.35-.17s.2-.07.24-.1,0-.06-.11-.09c-.34-.11-.39-.22.2-.36h.1c.6.1.56.23.22.36-.08,0-.13.06-.1.09a1,1,0,0,0,.24.08c.08.06,0,.13-.34.2Z"/><path d="M35.61,32c-.27.22-.47.22-.53.07s0-.25,0-.32-.11-.07-.22-.07c-.44,0-.69-.27-.27-.77l.08,0c.64-.06.67.06.57.45,0,.1,0,.18,0,.2a1.21,1.21,0,0,0,.28-.08c.13,0,.14.14.09.48Z"/><path d="M39.41,36c-.28-.19-.37-.29-.27-.33a1,1,0,0,0,.25,0s0-.08-.07-.14c-.28-.25-.28-.39.31-.31l.09,0c.52.35.44.46.09.47-.09,0-.15,0-.13,0s.14.13.2.19-.07.12-.38.06Z"/><path d="M50.14,28.4c-.32.09-.45.09-.42,0s.15-.15.16-.19-.06-.05-.15,0c-.37.05-.48,0,0-.43l.08-.05c.6-.17.64,0,.41.24,0,.06-.08.12,0,.13a1.58,1.58,0,0,0,.28,0c.1,0,0,.13-.2.33Z"/><path d="M41.41,34.34c-.31-.1-.41-.21-.31-.28s.22,0,.26-.07,0-.08-.06-.15c-.28-.26-.1-.63.44-.3l.06.08c.33.52.37.4,0,.4-.09,0-.15,0-.13,0a1.4,1.4,0,0,0,.22.14c.07.07,0,.1-.37.14Z"/><path d="M37,26.42c-.26.2-.4.21-.36.12l.16-.2s0,0-.13,0-.28,0-.3-.13a.35.35,0,0,1,.49-.21l.07.06a.34.34,0,0,0,.46,0s-.08,0-.24.07-.11.08-.08.08a1.12,1.12,0,0,0,.22-.11c.07,0,0,0-.23.27Z"/><path d="M37.33,30.79c-.27.17-.41.17-.39.05s.11-.21.11-.26-.06,0-.15,0c-.36.07-.52-.1-.08-.5l.09,0c.6-.16.61-.09.42.23,0,.07-.07.14,0,.15s.17-.06.24-.07.05.12-.14.4Z"/><path d="M26.88,13.89c-.05.34-.16.47-.3.41s-.15-.19-.22-.22-.11,0-.18.12c-.23.36-.64.35-.71-.3l0-.09c.38-.51.45-.47.68-.13,0,.08.11.13.16.09s.09-.18.13-.26.22,0,.4.29Z"/><path d="M25.56,12.41c0,.32-.12.42-.14.34V12.5s0,0-.06.09-.06.25,0,.25.16-.23-.06-.45l-.06-.07c-.2-.24-.09-.45.05-.5s.19.09.16.27,0,.13,0,.11a1,1,0,0,0,.07-.24c0-.07,0,0,0,.35Z"/><path d="M21.52,18.74c.18.27.21.39.12.36a1.79,1.79,0,0,0-.22-.13s0,.05,0,.13c.15.32.1.42-.37,0L21,19.07c-.32-.51-.22-.55.08-.36.07,0,.13.07.13,0a1.58,1.58,0,0,0-.11-.23c0-.1.1-.05.35.16Z"/><path d="M19.87,20.43c.19.26.16.42.05.38a.84.84,0,0,1-.19-.19s-.05,0-.08.12c-.14.36-.42.32-.25-.26l0-.09c.31-.52.18-.52.19-.17,0,.08,0,.13,0,.1a.59.59,0,0,0-.07-.23c0-.07,0,.05.23.26Z"/><path d="M19.78,22.17c.18.26.12.43,0,.37a2,2,0,0,1-.13-.22s0,0,0,.12,0,.24,0,.24a.68.68,0,0,0-.2-.41l-.07-.07c-.17-.26-.12-.41-.09-.47s.11,0,.18.2.06.13.06.1a.9.9,0,0,0-.07-.24c0-.08-.05.06.17.3Z"/><path d="M19.79,23.79c0,.33,0,.45-.11.39s-.12-.19-.16-.21-.06,0-.07.12c0,.37-.3.46-.47-.14v-.1c.1-.59.09-.56.33-.26.05.07.1.11.12.07a1.33,1.33,0,0,0,0-.26c.05-.09.16,0,.28.3Z"/><path d="M17.62,24.67c-.28.17-.4.2-.38.11a1.42,1.42,0,0,0,.13-.23s-.05,0-.13,0c-.33.15-.43.09-.06-.39l.07-.06c.52-.31.56-.2.38.11,0,.07-.06.13,0,.13a2.08,2.08,0,0,0,.24-.1c.1,0,.05.1-.15.36Z"/><path d="M21.61,27.45c0,.32-.05.43-.07.35a1.33,1.33,0,0,0,0-.24s0,0,0,.11,0,.25.05.24a.52.52,0,0,0-.19-.41l-.06-.08c-.17-.26-.1-.42-.05-.49s.15,0,.2.22,0,.13.06.1,0-.18,0-.25.06,0,.08.36Z"/><path d="M20.3,25.66c.21.25.12.47-.09.39a.37.37,0,0,1-.11-.29c0-.05-.06,0-.15,0-.39,0-.43-.28.17-.24h.09c.6.11.55-.09.2,0-.08,0-.12.06-.12,0a.28.28,0,0,0-.05-.27c-.18-.08-.23.11,0,.34Z"/><path d="M14.72,25.45c-.28.17-.4.2-.38.1s.12-.18.13-.22-.05,0-.14,0c-.34.13-.53-.14,0-.44l.1,0c.59-.09.52-.16.31.15-.05.06-.07.12,0,.12A1.12,1.12,0,0,0,15,25c.09,0,.05.1-.16.36Z"/><path d="M13.56,24.31c.15.3.17.43.06.42a1.18,1.18,0,0,0-.25-.1s0,.08,0,.15c.17.34.2.36-.41.27l-.09,0c-.49-.38-.29-.65.1-.57.09,0,.16,0,.17,0s-.07-.19-.08-.27.15-.1.43.09Z"/><path d="M12.25,26.93c-.28.17-.4.19-.38.1A1.42,1.42,0,0,0,12,26.8s-.05,0-.14,0c-.34.13-.53-.13,0-.43l.1,0c.59-.08.52-.16.31.15,0,.07-.07.12,0,.13a1.33,1.33,0,0,0,.23-.1c.09,0,0,.1-.16.35Z"/><path d="M14.7,27c-.26.19-.31.3-.26.23a.66.66,0,0,0,.12-.21s0,0-.06.09c-.09.33,0,.38-.12-.22v-.1c0-.59.24-.55.28-.18,0,.09,0,.14,0,.13s.13-.13.2-.17.11.13-.11.37Z"/><path d="M16,28.85c-.28.18-.39.21-.37.11s.12-.18.13-.22-.06,0-.14,0c-.33.14-.43.08-.06-.39l.07-.07c.52-.31.57-.2.39.11-.05.08-.07.13,0,.13a1.38,1.38,0,0,0,.24-.1c.09,0,.05.11-.16.36Z"/><path d="M22.17,22.9c.2.25.24.37.13.34s-.16-.15-.19-.17-.05,0-.1.12a.25.25,0,0,1-.34.13c-.05-.09,0-.21.2-.43l.08-.07c.24-.19.31-.27.3-.34s-.15,0-.22.18,0,.14,0,.11a.92.92,0,0,0-.14-.2c-.06-.05,0,0,.24.26Z"/><path d="M22.68,20.7c.17.28.21.39.12.37a2.43,2.43,0,0,0-.22-.14s0,.06,0,.13c.15.33.1.42-.37.05L22.16,21c-.32-.52-.22-.56.08-.37.08,0,.13.07.13,0s-.08-.16-.1-.23.09,0,.34.16Z"/><path d="M24.18,17c0,.32-.13.42-.17.33a1.85,1.85,0,0,1,0-.25s0,0-.11.06c-.27.24-.43.13,0-.28l.07-.07c.5-.34.4-.38.2-.1,0,.07-.06.12,0,.1a.9.9,0,0,0,.07-.23c0-.09-.05,0,0,.34Z"/><path d="M23.19,15.49c.18.28.15.43.06.39s-.16-.15-.2-.17,0,0,0,.13c0,.36-.08.43-.34-.11l0-.09c-.08-.6,0-.58.18-.29.05.07.09.11.09.08a.64.64,0,0,0-.07-.24c0-.08,0,0,.28.23Z"/><path d="M27.23,17.55c.15.3.13.46,0,.45s-.19-.12-.25-.13-.06.07-.07.16c0,.39-.3.54-.58,0l0-.09c.05-.62.06-.58.36-.35.07.06.13.08.15,0a1.6,1.6,0,0,0,0-.27c0-.1.12-.05.39.14Z"/><path d="M28.69,15.38c.2.26.17.41.1.35a.92.92,0,0,1-.14-.2s0,0,0,.11c0,.35-.14.4-.16-.2v-.09c.05-.6-.05-.55,0-.22,0,.08,0,.13,0,.1a1.29,1.29,0,0,0-.1-.22c0-.07,0,.06.18.3Z"/><path d="M25.2,21.1c-.05.33-.07.44-.1.37a2.19,2.19,0,0,0-.07-.23s0,0,0,.12c0,.36,0,.39-.27-.16l0-.09c-.08-.59.09-.59.23-.27,0,.08.06.13.08.09s0-.18.06-.25.11,0,.14.32Z"/><path d="M40.56.68c.06.36,0,.55-.16.58a2.11,2.11,0,0,0-.33,0c-.08,0-.11.12-.12.23,0,.47-.24.68-.88.44L39,1.81c-.14-.64.15-.84.61-.77.12,0,.21,0,.26-.07a1.78,1.78,0,0,0,0-.35c.08-.17.28-.18.59,0Z"/><path d="M41.34,5.84c-.32.06-.46,0-.4-.11s.19-.12.22-.16,0-.07-.13-.1c-.36-.1-.4-.33.2-.43h.1c.58.17.55.19.22.36-.08,0-.12.08-.09.1a1.56,1.56,0,0,0,.26,0c.09,0,0,.09-.29.27Z"/><path d="M42.4,2.78c-.23-.22-.29-.33-.18-.34a1.6,1.6,0,0,0,.27,0s0-.07,0-.13c-.22-.28-.18-.41.42-.22l.08.05c.44.4.32.5-.05.43-.09,0-.16,0-.15,0a1.72,1.72,0,0,0,.15.2c0,.1-.11.1-.42,0Z"/><path d="M41.65,1.69c-.32-.05-.42-.09-.34-.11l.25,0s0,0-.1-.07-.22-.15-.19-.23.25-.1.48.1l.07.08c.2.23.35.23.39.23s-.05-.06-.23-.08-.14,0-.11,0a2.08,2.08,0,0,0,.24.06c.07,0,0,0-.36,0Z"/><path d="M39.11,5.49c.15.29.16.42.06.41s-.2-.1-.25-.09,0,.07,0,.15c.17.33.21.35-.41.27l-.08,0c-.49-.39-.29-.65.09-.57.1,0,.16,0,.17,0s-.06-.18-.07-.27.15-.09.42.09Z"/><path d="M40.49,7.39c-.27.18-.37.22-.34.15a1.52,1.52,0,0,0,.14-.21s0,0-.11,0c-.29.21-.21.3-.06-.28l0-.09c.32-.53.53-.35.37,0,0,.08-.05.13,0,.13s.16-.09.22-.12.05.09-.17.34Z"/><path d="M38.86,8.17c-.28.17-.4.2-.38.1s.12-.18.13-.22-.06,0-.14,0c-.34.13-.53-.13,0-.44l.09,0c.6-.09.53-.16.32.15,0,.07-.08.12,0,.12a1.86,1.86,0,0,0,.24-.09c.09,0,0,.09-.16.35Z"/><path d="M36.64,7c.15.3.17.43.06.42a1.18,1.18,0,0,0-.25-.1c-.05,0,0,.08,0,.16.17.33.2.35-.41.26l-.09,0c-.49-.38-.29-.65.1-.56.09,0,.16,0,.17,0s-.07-.19-.08-.27.15-.1.43.09Z"/><path d="M36.39,9.65c-.28.17-.4.2-.38.1s.12-.18.13-.23,0,0-.14,0c-.34.13-.53-.14,0-.44l.1,0c.59-.09.52-.16.31.14-.05.07-.07.13,0,.13a1.12,1.12,0,0,0,.24-.1c.09,0,.05.1-.16.35Z"/><path d="M35,12.87c-.28.17-.4.19-.38.1s.12-.18.13-.23-.06,0-.14,0c-.34.13-.53-.13,0-.44l.09,0c.6-.08.53-.16.32.15-.05.07-.08.12,0,.13l.24-.1c.09,0,0,.1-.16.35Z"/><path d="M38.84,9.73c-.26.19-.31.3-.26.24a1.24,1.24,0,0,0,.12-.22s0,0-.06.1c-.1.32,0,.37-.12-.23V9.53c0-.6.24-.55.27-.19,0,.09,0,.15,0,.13a1.26,1.26,0,0,1,.2-.16c.1,0,.1.12-.12.36Z"/><path d="M36.72,11.15c-.33.06-.48-.1-.39-.22s.22-.08.26-.11,0-.08-.06-.15c-.24-.32-.06-.59.43-.23l.07.08c.31.53.32.44,0,.36-.08,0-.14,0-.12,0a.68.68,0,0,0,.24.07,1,1,0,0,0-.32.14Z"/><path d="M44,5.65q.26.4.12.36c-.07,0-.18-.12-.22-.13s0,0,0,.13c.15.32.1.42-.37,0L43.51,6c-.32-.51-.22-.55.08-.36.08,0,.13.06.13,0a2.08,2.08,0,0,0-.1-.24c0-.09.09,0,.34.17Z"/><path d="M42.37,7.33c.19.27.16.43.05.39s-.15-.16-.19-.19,0,0-.08.12C42,8,41.74,8,41.9,7.39l0-.09c.31-.53.18-.52.19-.17,0,.08,0,.13,0,.1A.63.63,0,0,0,42.08,7c0-.07,0,0,.23.26Z"/><path d="M42.28,9.07c.18.27.12.43,0,.37a1.35,1.35,0,0,1-.13-.21s0,0,0,.11,0,.25.05.25A.66.66,0,0,0,42,9.18L42,9.11c-.18-.26-.13-.42-.1-.48s.11,0,.18.21.06.12.06.09A1,1,0,0,0,42,8.7c0-.08,0,.06.18.3Z"/><path d="M42.29,10.7c0,.33,0,.45-.11.38a2.37,2.37,0,0,0-.15-.21s-.06,0-.08.13c0,.36-.3.46-.46-.14v-.1c.11-.59.09-.56.33-.27,0,.08.1.12.13.08s0-.19,0-.26.16,0,.28.3Z"/><path d="M40.12,11.58c-.28.17-.4.2-.37.11s.12-.18.12-.23,0,0-.13,0c-.33.14-.43.09-.06-.39l.07-.06c.52-.31.56-.21.38.1,0,.08-.06.13,0,.14l.24-.1c.09,0,0,.1-.16.35Z"/><path d="M38.41,12.39c-.32,0-.43-.06-.35-.07h.24s0,0-.1,0-.2.2-.17.22.12-.09.34-.3l.07-.07c.24-.18.34-.25.41-.23a.21.21,0,0,1-.13.31c-.08,0-.13.05-.1.06l.24,0c.08,0,0,0-.36,0Z"/><path d="M39.87,13.67c-.25.2-.34.26-.29.2l.17-.18-.09.06c-.28.2-.32.21.1-.21l.07-.06c.47-.37.46-.33.22-.08-.06.06-.09.1-.07.09l.2-.15c.07,0,0,0-.24.26Z"/><path d="M40.8,16.82c-.25.21-.34.27-.28.21l.17-.17-.09.07c-.26.21-.3.23.14-.18l.07-.06c.45-.38.43-.35.19-.11-.06.06-.1.09-.07.08l.19-.15c.06-.05,0,0-.25.25Z"/><path d="M44.59,6.59c.19.26.23.37.14.33a1.72,1.72,0,0,0-.2-.15s0,0,0,.12c.11.34-.15.47-.31-.11v-.1c0-.6-.17-.51.05-.24,0,.07.09.1.08.07a1.72,1.72,0,0,0-.12-.21c0-.07.05,0,.29.21Z"/><path d="M44.12,14.36c0,.32,0,.43-.07.35s0-.21,0-.24,0,0,0,.11,0,.24,0,.24,0-.19-.18-.42l-.07-.07c-.17-.26-.1-.43-.05-.49s.15,0,.2.21,0,.14.06.11,0-.18,0-.25.06,0,.09.35Z"/><path d="M42.81,12.57c.2.25.11.46-.1.38a.37.37,0,0,1-.11-.28c0-.05-.06,0-.15,0-.39,0-.43-.27.17-.24l.1,0c.59.1.55-.09.19,0-.08,0-.12,0-.11,0a.34.34,0,0,0-.06-.27c-.17-.08-.23.12,0,.35Z"/><path d="M44.68,9.81c.2.25.23.36.13.34a2.12,2.12,0,0,1-.2-.17s0,0-.09.12a.27.27,0,0,1-.35.13c0-.09,0-.21.21-.44l.07-.06c.24-.19.31-.28.31-.34s-.16,0-.22.18,0,.14,0,.11a.83.83,0,0,0-.13-.2c-.07-.05,0,0,.23.25Z"/><path d="M45.18,7.61c.18.27.21.39.12.36s-.18-.12-.22-.13,0,0,0,.13c.15.32.1.42-.37,0l-.06-.07c-.32-.51-.22-.55.09-.36.07,0,.12.07.12,0a.89.89,0,0,0-.1-.23c0-.1.1,0,.35.16Z"/><path d="M35.26,2.2c0,.33-.06.45-.1.38a1,1,0,0,0-.07-.23s0,0,0,.12c0,.35,0,.39-.26-.16l0-.09c-.09-.59.09-.59.22-.27,0,.08.07.12.09.09s0-.18,0-.26.12,0,.15.33Z"/><path d="M25.1,23.84c.19.26.24.36.17.32a2,2,0,0,0-.2-.16s0,0,0,.11c.18.3.16.36-.27,0L24.77,24c-.35-.49-.28-.5,0-.28.07.05.11.08.11.05s-.1-.15-.13-.21.06,0,.3.2Z"/><path d="M3,35.79c.13-.3.22-.39.25-.3a1.56,1.56,0,0,0,0,.26s.06,0,.11-.08c.19-.3.31-.31.28.29l0,.09c-.26.55-.36.49-.39.13,0-.09,0-.15-.06-.13s-.1.16-.14.22-.11-.06-.08-.38Z"/><path d="M3.21,33.11c.22-.25.34-.31.36-.2s0,.21,0,.26.07,0,.15,0c.29-.23.43-.19.27.4l-.05.08c-.41.45-.52.35-.48,0,0-.09,0-.15,0-.15a1.42,1.42,0,0,0-.21.17c-.11,0-.12-.1,0-.42Z"/><path d="M4.92,34.92c.31.1.41.16.32.18H5s0,0,.1.08c.32.13.34.21-.26.16H4.74c-.57-.19-.52-.25-.17-.26.09,0,.14,0,.12,0l-.23-.1c-.07,0,0-.06.36,0Z"/><path d="M5.31,31c.18-.28.27-.36.29-.26a1.29,1.29,0,0,0,0,.25s.06,0,.12-.06c.23-.27.34-.27.21.32l0,.09c-.33.5-.41.42-.38.07,0-.09,0-.15,0-.13a1.72,1.72,0,0,0-.17.19c-.08.05-.09-.07,0-.38Z"/><path d="M3.75,29.88c.31.13.41.21.33.3a1.17,1.17,0,0,0-.25.14s0,.09.12.13c.35.17.4.27-.13.59l-.1,0c-.62-.06-.63-.35-.3-.58.08-.06.13-.11.1-.16s-.17-.1-.24-.16,0-.22.37-.29Z"/><path d="M5.31,27c.24.25.3.4.19.49s-.24.06-.29.12,0,.14,0,.22c.26.34.27.54-.35.76H4.82c-.57-.33-.47-.68-.07-.88.1-.05.17-.1.16-.18s-.13-.19-.17-.28.13-.28.48-.28Z"/><path d="M6.53,28.9c.25-.25.37-.31.41-.21A2,2,0,0,0,7,29s.1,0,.17-.05c.3-.25.41-.23.44.41l0,.1c-.32.5-.56.37-.62,0,0-.1,0-.17-.09-.16s-.17.12-.25.16-.19-.11-.11-.42Z"/><path d="M6.84,26.4c.32-.08.42-.12.39,0a.78.78,0,0,0-.13.23s.07,0,.14,0c.31-.2.27-.26.24.36l0,.09c-.32.54-.63.33-.54-.05,0-.09,0-.16,0-.17s-.19.06-.28.06-.1-.2.16-.42Z"/><path d="M4.32,38.92c-.09-.31-.09-.43,0-.36s.1.18.13.21,0,0,0-.12c0-.34,0-.41.27.13l0,.09c.14.58.06.56-.12.27,0-.07-.08-.12-.09-.08s0,.17,0,.24-.08,0-.22-.29Z"/><path d="M4.49,40.9c.14-.3.23-.38.27-.29a1.09,1.09,0,0,0,0,.26s.07,0,.12-.08c.2-.3.33-.3.28.3l0,.09c-.28.54-.38.47-.4.11,0-.09,0-.14,0-.13a1.39,1.39,0,0,0-.15.22c-.08,0-.11-.07-.08-.39Z"/><path d="M4,43.26c.31.11.41.18.32.23a1.31,1.31,0,0,0-.25.06s0,.06.09.1c.32.17.34.3-.26.34l-.1,0c-.57-.19-.51-.31-.16-.39.09,0,.14,0,.12-.07s-.17-.08-.23-.12,0-.12.37-.14Z"/><path d="M6,42.94c.29.15.38.23.29.25a1.12,1.12,0,0,0-.26,0s0,.05.08.1c.29.21.29.31-.3.22l-.09,0c-.53-.28-.46-.36-.11-.35.09,0,.14,0,.13,0a2.37,2.37,0,0,0-.21-.15c-.06-.07.06-.09.38,0Z"/><path d="M6.48,48.28c.2-.25.29-.32.28-.24a2.23,2.23,0,0,0-.08.24s.05,0,.11-.06c.24-.25.33-.24.08.3l-.06.08c-.37.47-.42.39-.3.06,0-.08,0-.13,0-.12a1.52,1.52,0,0,0-.18.18c-.07.05,0-.07.09-.36Z"/><path d="M22.79,60.07c.24.22.3.33.2.34a2,2,0,0,0-.25-.07s0,.06,0,.13c.22.29.19.41-.37.18l-.08-.06c-.43-.42-.33-.5,0-.41.09,0,.15,0,.14,0s-.11-.14-.15-.21.08-.08.38,0Z"/><path d="M16.2,62.4c.08-.31.12-.41.14-.33v.25s0,0,.06-.1c.11-.33.17-.36.14.23v.1c-.14.58-.19.53-.2.19,0-.09,0-.14,0-.12s-.05.17-.08.24,0,0,0-.36Z"/><path d="M13.44,60.73c.3.13.39.2.3.22a2.36,2.36,0,0,0-.25,0s0,.05.09.09c.3.18.31.27-.28.18l-.09,0c-.55-.25-.48-.32-.14-.3.09,0,.15,0,.13,0s-.16-.09-.22-.13,0-.07.37,0Z"/><path d="M36.32,42.87c.13-.29.2-.38.22-.3s0,.22,0,.26,0,0,.09-.09c.18-.3.27-.31.18.28l0,.09c-.25.55-.32.48-.3.13,0-.08,0-.14,0-.12s-.09.16-.13.22-.07-.05,0-.37Z"/><path d="M61.55,5.94A42.87,42.87,0,0,0,45.4.92a25,25,0,0,0-8.46,0l-4.18,1-4.24.71a21.22,21.22,0,0,0-13.67,9A32.1,32.1,0,0,0,9.64,27.55h-.1A27.68,27.68,0,0,1,14,11.06a20.42,20.42,0,0,1,14.41-9c1.43-.18,2.86-.26,4.26-.52s2.79-.63,4.17-1A28.33,28.33,0,0,1,45.49.13,32.39,32.39,0,0,1,61.6,5.86Z"/><path d="M10.85,17c-1.66,2-3.38,3.93-4.81,6a24.74,24.74,0,0,0-3.25,6.87,24.72,24.72,0,0,0-1.22,7.56A27.72,27.72,0,0,0,2.65,45.1a52.5,52.5,0,0,0,6.26,14A27.45,27.45,0,0,0,20.15,69.22l0,.09a23.73,23.73,0,0,1-12-9.68A42.52,42.52,0,0,1,2.14,45.22,35.64,35.64,0,0,1,2,29.7a20.71,20.71,0,0,1,3.42-7.07A40.52,40.52,0,0,1,10.78,17Z"/><path d="M21.38,69.31A155,155,0,0,0,36.12,57.15,77.52,77.52,0,0,0,48.64,42.74a121.75,121.75,0,0,0,9.25-16.68c2.56-5.77,5.16-11.78,4.76-18.23h.1a23.74,23.74,0,0,1-.65,9.59,58.09,58.09,0,0,1-3.31,9.06A88.17,88.17,0,0,1,49.07,43a162.25,162.25,0,0,1-12.4,14.68A77.74,77.74,0,0,1,21.43,69.39Z"/><path d="M8.35,31a16.18,16.18,0,0,1,0,2.62,4,4,0,0,0,0,1.29c.07.44.26.88.31,1.34A13.19,13.19,0,0,1,8.72,39a18.21,18.21,0,0,1-.36,2.66H8.27A6.86,6.86,0,0,1,7.69,39a10.27,10.27,0,0,1,.14-1.36,10.31,10.31,0,0,1,.25-1.28A2.5,2.5,0,0,0,8,35a8.43,8.43,0,0,1-.47-1.34A4,4,0,0,1,8.25,31Z"/><path d="M52.49,48.55c3,3.71,5.72,7.64,9.09,10.94a36.75,36.75,0,0,0,5.48,4.45,49.55,49.55,0,0,0,6.09,3.58,31.66,31.66,0,0,0,13.57,3.62,34.15,34.15,0,0,0,13.81-2.8,37.11,37.11,0,0,0,11.69-7.79,28.54,28.54,0,0,0,4.41-5.45,33.41,33.41,0,0,0,3.16-6.26A38,38,0,0,0,122.19,35a39.24,39.24,0,0,0-2.86-13.82l.08,0a37.35,37.35,0,0,1,2.45,6.73,39.56,39.56,0,0,1,1,7.11,35.19,35.19,0,0,1-2.17,14.18,31.25,31.25,0,0,1-7.86,12,32.41,32.41,0,0,1-5.7,4.41,38.64,38.64,0,0,1-20.44,5.86A33.58,33.58,0,0,1,72.8,68.24,42,42,0,0,1,61.05,60c-3.36-3.45-5.93-7.5-8.64-11.4Z"/><path d="M62.35,11.87A41.93,41.93,0,0,1,76.59,4.58a48.65,48.65,0,0,1,15.94-1.4A31.28,31.28,0,0,1,107.67,8.4c4.51,3.08,7.85,7.42,10.83,11.81l-.07.06c-3.47-4-7-8.11-11.32-11A35.43,35.43,0,0,0,92.47,3.7,32.85,32.85,0,0,0,76.81,5.34,68,68,0,0,0,62.4,12Z"/><path d="M49.36,43.09c-.2,0-.23-.28.06-.3a.42.42,0,0,1,.29.22c.06.11.13.19.18.28a1.22,1.22,0,0,1,.17.58,3.67,3.67,0,0,0-.05.66,1.07,1.07,0,0,0,.31.53,2.81,2.81,0,0,1,.94,2.28l-.08,0a2.12,2.12,0,0,1-1.35-2.13,1.36,1.36,0,0,0-.12-.64c-.1-.18-.29-.34-.42-.53a1.26,1.26,0,0,1-.13-.63,1.61,1.61,0,0,1,.06-.33s0,0,.12,0,.06-.13,0-.11Z"/><path d="M48.93,43.78A40.29,40.29,0,0,0,54.84,56.9a59.3,59.3,0,0,0,9.31,11,27.93,27.93,0,0,0,12.53,6.8,41.45,41.45,0,0,0,14.39.71,37.57,37.57,0,0,0,24.57-13.54,27.74,27.74,0,0,0,6-12.83c.9-4.73.44-9.63.87-14.47h.1c-.11,4.83.5,9.7-.29,14.57a26.83,26.83,0,0,1-5.91,13.34A36.57,36.57,0,0,1,91.13,75.91,46.66,46.66,0,0,1,76.6,75a29.44,29.44,0,0,1-13-6.54,51.17,51.17,0,0,1-9.41-11.18A36.09,36.09,0,0,1,48.84,43.8Z"/><path d="M63.36,21.65c.11-2.21.67-4.73,2.69-6.22a4.54,4.54,0,0,1,1.67-.76c.6-.13,1.18-.14,1.71-.21A6.52,6.52,0,0,0,71,14a2.41,2.41,0,0,1,2,.14,7.76,7.76,0,0,1,2.44,2.54,30.29,30.29,0,0,1,1.7,3q1.47,3.08,2.66,6.25l1.21,3.17c.39,1.1.83,2,1.17,3.29a.91.91,0,0,1-.27.76,1,1,0,0,1-.71.25,5.37,5.37,0,0,1-.94-.16,14.39,14.39,0,0,1-1.68-.56,16.24,16.24,0,0,1-3-1.75c-3.6-2.83-7.19-5.43-10.68-8.35l.05-.08c1.92,1.19,3.81,2.43,5.69,3.69l2.81,1.92c.91.67,1.78,1.38,2.7,2a17.48,17.48,0,0,0,2.83,1.64,10.68,10.68,0,0,0,1.52.56,5.74,5.74,0,0,0,.71.15c.19-.06,0,.1.07,0l-2-6.36a33.23,33.23,0,0,0-2.47-6.27A16.86,16.86,0,0,0,74.93,17a7.58,7.58,0,0,0-2.36-2.15,1.63,1.63,0,0,0-1.33-.06,5.59,5.59,0,0,1-1.71.48,5.34,5.34,0,0,0-3.06.73c-1.81,1.17-2.56,3.45-3,5.63Z"/><path d="M75.2,14.71A1.73,1.73,0,0,1,76,12.07c.5-.14,1-.18,1.14-.41.07-.08,0-.28.14-.62a1.33,1.33,0,0,1,.62-.73,3.87,3.87,0,0,1,1.5-.42l1.46-.22a6.53,6.53,0,0,1,3.05,0,3,3,0,0,1,1.78,2.53c.15,1,.17,1.95.23,2.93,0,1.94,0,3.88-.14,5.82s-.29,3.86-.46,5.77c-.08,1-.15,1.92-.18,2.87a8.59,8.59,0,0,1-.11,1.53,1.82,1.82,0,0,1-.42.88,1.32,1.32,0,0,1-1,.42,2.06,2.06,0,0,1-1.47-1.11,9.77,9.77,0,0,1-.63-1.38c-.36-.91-.69-1.82-1-2.75a37,37,0,0,1-1.33-5.67l.1,0c.58,1.84,1.22,3.66,1.94,5.44.35.89.73,1.77,1.13,2.64.21.42.4.9.61,1.23s.54.65.71.64.33-.13.42-.53.05-.88.1-1.37c.06-1,.16-1.94.27-2.91.23-1.93.56-3.83.84-5.74a27.68,27.68,0,0,0,.33-5.75,15.47,15.47,0,0,0-.42-2.82,2.39,2.39,0,0,0-1.51-1.9,7.57,7.57,0,0,0-2.7.11l-1.41.16a3.6,3.6,0,0,0-1.28.29.73.73,0,0,0-.34.33,2.53,2.53,0,0,1-.27.75c-.54.58-1.13.4-1.53.53a1.47,1.47,0,0,0-.87,2.09Z"/><path d="M85.67,28.45a16.81,16.81,0,0,1,.26,2.06,1.65,1.65,0,0,0,1,1.4c.53.14,1.08-.29,1.54-.76l1.47-1.45,5.89-5.82c2-1.92,4-3.82,5.86-5.85,1-1,1.86-2,2.76-3.09.25-.27.4-.48.23-.69a2.93,2.93,0,0,0-.77-.55,11.88,11.88,0,0,0-1.83-.89c-2.53-1-5.33-1.14-8-1.68-1.35-.21-2.75-.54-4-.63a3.68,3.68,0,0,0-1.77.3A2,2,0,0,0,87.14,12a3.42,3.42,0,0,0,.22,1.77,7.64,7.64,0,0,1,.27,2.17,23.65,23.65,0,0,1-.57,4.18c-.56,2.71-1.15,5.41-1.79,8.11l-.09,0q.51-4.12,1.14-8.22a22.43,22.43,0,0,0,.38-4A8.32,8.32,0,0,0,86.43,14a4.13,4.13,0,0,1-.24-2.29,3.54,3.54,0,0,1,3.87-2.19c1.48.14,2.77.49,4.15.73a42.94,42.94,0,0,1,8.07,2.08,14.53,14.53,0,0,1,1.85,1,3.16,3.16,0,0,1,.85.7.68.68,0,0,1,.07.66,2,2,0,0,1-.35.46l-2.77,3.08c-1.85,2.05-3.64,4.17-5.54,6.19s-3.9,3.92-5.94,5.8c-.51.47-1,.92-1.55,1.38a2.34,2.34,0,0,1-2.11.78,2,2,0,0,1-1.19-1.85c0-.72.09-1.4,0-2.07Z"/><path d="M106.05,18.14a5,5,0,0,0-3.28,1.73L100,22.59c-1.89,1.79-3.79,3.59-5.73,5.31a29.34,29.34,0,0,0-2.76,2.7,15.49,15.49,0,0,0-1.17,1.53,4.75,4.75,0,0,0-.45.81c-.08.3-.08.51.22.46a69.9,69.9,0,0,0,7.74-.85c2.58-.39,5.13-.9,7.68-1.41l3.8-.82a26.36,26.36,0,0,0,3.68-1,3.66,3.66,0,0,0,2.3-2.4c.31-1.09-.44-2.12-1.47-2.83a13.55,13.55,0,0,1-3-2.55,3.31,3.31,0,0,0-1.48-1.07,5.77,5.77,0,0,1-1-.26.91.91,0,0,1-.58-.81h.09a.77.77,0,0,0,.57.63,6.52,6.52,0,0,0,1,.15,3.49,3.49,0,0,1,1.76,1,14,14,0,0,0,3.1,2.28,5.21,5.21,0,0,1,1.53,1.44,3,3,0,0,1,.42,2.19,4.5,4.5,0,0,1-2.82,3.12,21.66,21.66,0,0,1-3.85,1.05c-1.28.27-2.57.51-3.86.74-2.57.46-5.17.77-7.77,1l-7.81.66a.52.52,0,0,1-.57-.29,1,1,0,0,1,0-.6,5.94,5.94,0,0,1,.46-.91,17,17,0,0,1,1.09-1.66,27.41,27.41,0,0,1,2.63-2.95c1.89-1.82,3.84-3.53,5.79-5.27l3-2.56A4.94,4.94,0,0,1,106.06,18Z"/><path d="M91.72,34.64c-.52.09-1.17.32-1.17.77s.55.7,1,1c1,.55,2,1,3,1.55l6,2.94c2,1,3.93,2.15,5.94,3.12s4.26,1.73,6.29.93A4.72,4.72,0,0,0,115.16,43a4.24,4.24,0,0,0,.42-3,13,13,0,0,1-.31-3.45,3.92,3.92,0,0,1,.69-1.73,1.58,1.58,0,0,0,.32-1.24,4.16,4.16,0,0,0-.54-1.39c-.13-.22-.29-.49-.4-.64a.65.65,0,0,0-.41-.26,3.43,3.43,0,0,0-1.44.24c-.55.15-1.1.28-1.66.39a20.41,20.41,0,0,1-6.75.14V32a25,25,0,0,0,6.58-.77c.53-.13,1.06-.29,1.58-.46a4.12,4.12,0,0,1,1.83-.35,1.52,1.52,0,0,1,1,.56,7.59,7.59,0,0,1,.5.77,5,5,0,0,1,.68,1.71,2.61,2.61,0,0,1-.44,1.93,3.5,3.5,0,0,0-.57,1.35,12.79,12.79,0,0,0,.23,3.19,4.87,4.87,0,0,1-.7,3.49,5.41,5.41,0,0,1-2.86,2c-2.32.7-4.6-.24-6.6-1.13s-4.1-1.78-6.14-2.7-4-1.92-6-3c-1-.54-1.93-1.15-2.87-1.77-.41-.3-1.11-.65-1.07-1.43s1-.82,1.48-.84Z"/><path d="M91.19,37.79c4.65,2.2,9.2,4.61,13.66,7.16,2.21,1.34,4.42,2.58,6.61,4a2.52,2.52,0,0,1,1,1.76,2.06,2.06,0,0,1-1,1.71c-.51.39-1.07.76-1.21,1.3a4.3,4.3,0,0,0-.06.92,1.46,1.46,0,0,1-.44,1,6.94,6.94,0,0,1-1.78.93,11.88,11.88,0,0,0-1.57,1,7.14,7.14,0,0,1-1.78,1,4.13,4.13,0,0,1-2.12.13,6.72,6.72,0,0,1-3.52-2,28.17,28.17,0,0,1-2.47-3,42.89,42.89,0,0,1-6.72-13.91l.09,0a60.36,60.36,0,0,0,7.43,13.36c1.55,2,3,4.28,5.37,4.79a4.16,4.16,0,0,0,3.31-.86,12.41,12.41,0,0,1,1.72-1,6.94,6.94,0,0,0,1.68-.73c.45-.32.27-.94.47-1.68a3.42,3.42,0,0,1,1.39-1.45,1.72,1.72,0,0,0,.92-1.43,2.06,2.06,0,0,0-.86-1.51,25.65,25.65,0,0,0-3.35-1.84l-3.43-1.76Q97.66,42,91.14,37.87Z"/><path d="M89.9,38.74c.06.38.2.42.09.54s-.2.16-.22.26a.23.23,0,0,0,.19.2c.45.1.68.19.73.94l0,.08A.75.75,0,0,1,89.51,40a.94.94,0,0,0,0-.39,3.12,3.12,0,0,1-.27-.38.5.5,0,0,1,.64-.57Z"/><path d="M87.15,40.3C85.8,40.56,85.23,42,85,43.19a18.86,18.86,0,0,0-.24,3.91,37.81,37.81,0,0,0,.27,4c.14,1.33.21,2.65.32,4,.17,2.65.25,5.32.47,8,0,.65.07,1.38.63,1.65a2.23,2.23,0,0,0,1.8-.1,6.23,6.23,0,0,0,1.65-1,2.5,2.5,0,0,1,1.9-.93c.73,0,1.36.33,1.94.3a3.2,3.2,0,0,0,1.63-.72,11,11,0,0,1,1.71-1.12c.26-.14.59-.27.81-.41a1.56,1.56,0,0,0,.44-.64,3.64,3.64,0,0,0-.69-3.32,39.2,39.2,0,0,0-2.55-3,10.4,10.4,0,0,1-1.92-3.66,24,24,0,0,0-1.62-3.58c-.64-1.15-1.32-2.29-2-3.41l-1.07-1.68c-.35-.5-.88-1.08-1.53-.89l0-.09c.72-.29,1.38.31,1.8.79s.83,1,1.23,1.59c.79,1.08,1.59,2.16,2.29,3.32A26.18,26.18,0,0,1,94,49.73a10.53,10.53,0,0,0,1.8,3.36,28,28,0,0,1,2.64,3.08,4.58,4.58,0,0,1,.68,4.23,2.51,2.51,0,0,1-.73,1,6.31,6.31,0,0,1-1,.49,9.85,9.85,0,0,0-1.68,1,3.71,3.71,0,0,1-2,.74,18,18,0,0,1-2-.41c-.6-.1-1.06.29-1.6.73a8.25,8.25,0,0,1-1.78,1,2.57,2.57,0,0,1-2.07,0c-.72-.39-.77-1.27-.82-1.87-.25-2.66-.64-5.3-.93-8a73.79,73.79,0,0,1-.54-8,17.29,17.29,0,0,1,.49-4,5.33,5.33,0,0,1,.89-1.86,2.36,2.36,0,0,1,1.76-1Z"/><path d="M73.21,53.27c-.68,1.52-1.31,3.19-.79,4.67a2.78,2.78,0,0,0,1.44,1.65c.72.39,1.46.84,2.18,1.26,1.46.84,2.78,2,4.41,2.28a2.85,2.85,0,0,0,2.29-.52,3.39,3.39,0,0,0,1.11-2.06,33.69,33.69,0,0,0-.15-5c-.09-1.69-.19-3.38-.24-5.06a77.22,77.22,0,0,0-.91-10l.09,0a34.53,34.53,0,0,1,1.81,10c.11,1.7.13,3.39.15,5.08a22.26,22.26,0,0,1-.24,5.13,4.1,4.1,0,0,1-1.42,2.22,3.61,3.61,0,0,1-2.53.58,16.69,16.69,0,0,1-4.76-1.92c-.74-.41-1.48-.78-2.22-1.23a3.56,3.56,0,0,1-1.72-2.16c-.48-1.87.45-3.59,1.42-4.93Z"/><path d="M76.74,37.88c-4.3,2.61-8.71,5-13.19,7.29a7.59,7.59,0,0,0-3,2c-.67.89-.74,2.45.35,3a8.83,8.83,0,0,0,1.79.55,1,1,0,0,1,.29,1,3,3,0,0,0,.08.89A4.47,4.47,0,0,0,65.4,55.3c1.07.59,2.23,1.17,3.24.58a6.21,6.21,0,0,0,2.42-2.5c.63-1.1,1.2-2.2,1.87-3.29a29.63,29.63,0,0,1,2.42-3A16.22,16.22,0,0,0,79,40.83l.53-1.78c.13-.59.43-1.28.3-1.67s-1-.24-1.51-.19a5.53,5.53,0,0,0-1.75.57l0-.08a5.47,5.47,0,0,1,1.74-.78,5.2,5.2,0,0,1,1-.16,1,1,0,0,1,1,.43,1.73,1.73,0,0,1,.06,1.09l-.18.93c-.12.62-.25,1.24-.43,1.86a17.1,17.1,0,0,1-1.37,3.6,17.76,17.76,0,0,1-2.26,3.12c-.83,1-1.64,1.9-2.34,2.88s-1.29,2.15-1.94,3.21a6.48,6.48,0,0,1-2.88,2.69,2.87,2.87,0,0,1-2.08.09,8.41,8.41,0,0,1-1.74-.9,5.06,5.06,0,0,1-2.35-3c-.22-.61.12-1.44-.21-1.72a8.82,8.82,0,0,1-1.8-.5,2.1,2.1,0,0,1-1.07-1.66,3.11,3.11,0,0,1,.45-2,7.86,7.86,0,0,1,3-2.42c4.42-2.39,8.91-4.63,13.51-6.68Z"/><path d="M54.75,34.57a2.47,2.47,0,0,0,.51,3,4.6,4.6,0,0,0,.62.55,1.18,1.18,0,0,1,.66.89,1.69,1.69,0,0,1-.44,1c-.16.24-.32.47-.45.7a1.79,1.79,0,0,0-.26,1.4,2.67,2.67,0,0,0,1,1.12,4,4,0,0,0,3,.72,11.55,11.55,0,0,0,3.21-1.14l3.21-1.5,6.4-3c2.16-1,4.34-1.9,6.41-2.87.56-.17.94-.64.87-.72s-.48-.29-1.08-.33c-1.15-.13-2.31-.24-3.48-.3-4.69-.19-9.41-.44-14.1-.89v-.09c4.72-.15,9.42-.17,14.15,0a35.34,35.34,0,0,1,3.56.29,5,5,0,0,1,1,.2,1.28,1.28,0,0,1,.92.95,1.31,1.31,0,0,1-.52,1.2,2.77,2.77,0,0,1-.85.49c-2.22,1-4.45,1.71-6.64,2.56A63.83,63.83,0,0,0,66,41.63c-1,.52-2.08,1.08-3.1,1.67a11.33,11.33,0,0,1-3.33,1.45,4.64,4.64,0,0,1-3.67-.82,3.47,3.47,0,0,1-1.22-1.57,2.5,2.5,0,0,1,.37-2c.26-.52.88-1.08.9-1.31s-.71-.65-1-1.12a2.65,2.65,0,0,1-.2-3.43Z"/><path d="M62.48,22.53a1.21,1.21,0,0,1-.92.15,1.24,1.24,0,0,0-.44-.23.57.57,0,0,0-.41.18,2.09,2.09,0,0,1-1.59.79L59,23.37a1.22,1.22,0,0,1,1.53-1.25,1.16,1.16,0,0,0,.52,0c.16-.05.32-.2.51-.26a.83.83,0,0,1,.92.56Z"/><path d="M56,32.37c.2-.31.39-.41.56-.32s.17.22.26.26a.3.3,0,0,0,.27-.09c.38-.32.75-.34,1.07.27v.1c-.4.57-.76.51-1.1.15-.08-.09-.17-.15-.26-.12s-.19.16-.29.22-.35-.05-.52-.38Z"/><path d="M56.4,35c1.73-.15,3.39-.29,5.1-.33.85,0,1.72.07,2.57,0a21.73,21.73,0,0,0,2.55-.36A14.92,14.92,0,0,1,69.19,34c.86,0,1.71-.1,2.58-.1a34.36,34.36,0,0,1,5.16.38v.09a33.23,33.23,0,0,1-5.13.55c-1.7.06-3.42-.09-5.13-.07A18.37,18.37,0,0,0,64.1,35c-.85.12-1.69.34-2.54.47a12.91,12.91,0,0,1-5.17-.38Z"/><path d="M55.62,36.8a1.49,1.49,0,0,0,1.39.78,5.56,5.56,0,0,0,1.68-.41,8.33,8.33,0,0,1,2-.42c.67-.06,1.34,0,2-.11,1.19-.2,2.33-.84,3.64-1.14a11.35,11.35,0,0,1,3.94-.22v.1c-1.26.42-2.48.75-3.7,1.11a12.09,12.09,0,0,1-3.88.68,7.07,7.07,0,0,0-1.93-.11A5.68,5.68,0,0,0,59,37.9a3.23,3.23,0,0,1-2.06.42,1.57,1.57,0,0,1-1.41-1.51Z"/><path d="M56.58,41.29a5.76,5.76,0,0,1,3.05-1.62c.57-.1,1.15-.1,1.7-.22a7.05,7.05,0,0,0,1.59-.58,25.35,25.35,0,0,1,6.29-2.44l0,.08a12.45,12.45,0,0,1-6.17,2.86,13.07,13.07,0,0,0-1.67.38c-.53.19-1,.46-1.56.68-1.06.39-2.09.64-3.22.94Z"/><path d="M59.86,41.7a4.27,4.27,0,0,0,2.39-.77c.88-.33,1.77-.77,2.72-1,.47-.14.93-.22,1.34-.32a10.58,10.58,0,0,0,1.22-.44,4.66,4.66,0,0,1,2.85-.38v.1c-.9.32-1.58.82-2.46,1.23a5.22,5.22,0,0,1-2.9.33,2.21,2.21,0,0,0-1.29.25,9.08,9.08,0,0,0-1,.93,2.25,2.25,0,0,1-2.87.19Z"/><path d="M62.35,48.65A16.18,16.18,0,0,0,64,47a3.72,3.72,0,0,1,2.23-1.13,5,5,0,0,0,2.16-.64,5.17,5.17,0,0,0,1.51-1.73,5.84,5.84,0,0,1,1.64-1.83l1.91-1.38a29.72,29.72,0,0,1,4.08-2.36l.06.08A29.44,29.44,0,0,1,74,41.12a18.38,18.38,0,0,1-2,1.28,9,9,0,0,0-1.74,1.42,9.17,9.17,0,0,1-3.9,2.82,4.93,4.93,0,0,0-1.93.92,5.72,5.72,0,0,1-2.09,1.17Z"/><path d="M64.84,49.65a3.4,3.4,0,0,0,.87-.73c.23-.22.35-.62.88-.93s1,0,1.38,0a1.06,1.06,0,0,0,.87-.6,4.13,4.13,0,0,0,.36-1,1.37,1.37,0,0,1,.45-.77,3,3,0,0,1,.71-.26,7.86,7.86,0,0,0,1.94-1.12l.08.06a3,3,0,0,1-1.7,2,2.37,2.37,0,0,1-.45.11s-.11.07-.18.25a2.55,2.55,0,0,1-.82,1.09,2.78,2.78,0,0,1-1.22.56c-.43.07-.88.16-1,.36a4.74,4.74,0,0,1-.82.82,1.74,1.74,0,0,1-1.34.25Z"/><path d="M66.66,52.94A3.94,3.94,0,0,1,67.59,51a3.75,3.75,0,0,1,2-.9,3.13,3.13,0,0,0,1.73-.77,11.35,11.35,0,0,0,1.24-1.62c.81-1.26,2.25-1.83,3.23-2.56a18.14,18.14,0,0,0,3-2.59l.08,0A7.22,7.22,0,0,1,76.38,46c-1.21.86-2.48,1.19-3.44,2.08a16.5,16.5,0,0,0-1.41,1.48,4.3,4.3,0,0,1-1.72,1.33,6.78,6.78,0,0,0-1.73.69A8.38,8.38,0,0,0,66.74,53Z"/><path d="M72.73,45.45a2.83,2.83,0,0,1,1.62-2.07,11.54,11.54,0,0,0,1.2-.48,2.53,2.53,0,0,0,.87-.85c.42-.69.67-1.43,1.12-2.2A7.47,7.47,0,0,1,79.43,38l.07.06a10.43,10.43,0,0,1-1.08,2.28,5.8,5.8,0,0,1-1.62,2c-.37.27-.74.49-1.08.75s-.62.61-.94.89c-.65.53-1.3.85-2,1.44Z"/><path d="M57.32,28.06a7.76,7.76,0,0,1,2.21.21,2.53,2.53,0,0,0,1.06.19,3.1,3.1,0,0,0,1-.45A1.58,1.58,0,0,1,63,28l1,.4a19.61,19.61,0,0,0,2.06.73v.09a3.34,3.34,0,0,1-2.41.15,4.92,4.92,0,0,1-1-.55,1.35,1.35,0,0,0-.83-.27c-.72,0-1.48.46-2.32.55a3.24,3.24,0,0,1-2.16-.92Z"/><path d="M58.36,25.54a1.16,1.16,0,0,1,1.07-.35c.17.06.36.2.56.26s.37.08.59.1a3.16,3.16,0,0,1,1.91.63v.1a1.37,1.37,0,0,1-1.18.41,1.57,1.57,0,0,1-1-.68c-.09-.14-.22-.29-.39-.25a2.38,2.38,0,0,0-.51.22,1.18,1.18,0,0,1-1.07-.35Z"/><path d="M67.41,29.31a2.29,2.29,0,0,0,1.28.45,1.91,1.91,0,0,0,.59-.08,1.6,1.6,0,0,1,.93-.1c.77.29.85.93,1.16,1.29a1.48,1.48,0,0,0,1.25.54c.48,0,1-.08,1.52-.05a3.68,3.68,0,0,1,1.63.41,11.79,11.79,0,0,0,2.61,1.43v.1c-1.1.39-2.22-.27-3.06-.61a5,5,0,0,0-1.28-.44,8.33,8.33,0,0,1-1.52-.33,3.12,3.12,0,0,1-1.39-.85c-.36-.37-.81-.75-1.08-.7a3.32,3.32,0,0,1-1.49.12,1.71,1.71,0,0,1-1.24-1.13Z"/><path d="M65.24,31.66a5.21,5.21,0,0,1,1.87-.24,7.09,7.09,0,0,1,2,.44,14.11,14.11,0,0,0,1.69.48,6,6,0,0,0,1.74.28l0,.09a2.18,2.18,0,0,1-2,.64,3.2,3.2,0,0,1-1.78-1.06c-.22-.22-.41-.49-.7-.42s-.6.26-.93.34a2.45,2.45,0,0,1-1.94-.45Z"/><path d="M64.86,18.67a1.74,1.74,0,0,1,2,.81,4.6,4.6,0,0,1,.13,1.1c0,.31.24.61.49.64a5,5,0,0,1,1,0,1.85,1.85,0,0,1,1,.73,5,5,0,0,1,.77,1.92l-.08.05a6.1,6.1,0,0,1-1.49-1.34,2.15,2.15,0,0,0-.51-.5,3.6,3.6,0,0,1-1-.45,2.13,2.13,0,0,1-.52-1,2.17,2.17,0,0,0-.52-.78,14.45,14.45,0,0,0-1.35-1.12Z"/><path d="M68.54,18.62a4.49,4.49,0,0,1,2.94,3.46A4.87,4.87,0,0,0,72,24.16a6.9,6.9,0,0,0,1.77,1.33,8,8,0,0,1,1.66,1.61l1.46,1.67c.95,1.13,1.92,2.24,2.85,3.45l-.06.08a15.34,15.34,0,0,1-3.55-2.85c-1-1.11-1.79-2.5-2.7-3.56-.49-.53-1.15-.94-1.67-1.54a6.3,6.3,0,0,1-1.09-2.06,7.88,7.88,0,0,0-2.22-3.59Z"/><path d="M70.75,17.57a8.15,8.15,0,0,1,1.84,2.11,12.42,12.42,0,0,0,.64,1.26,5,5,0,0,0,1,1,15.56,15.56,0,0,1,3.73,4.14l-.07.07a9,9,0,0,1-4.06-3.87,7.24,7.24,0,0,0-.8-1.16c-.31-.35-.71-.64-1-1a5.72,5.72,0,0,1-1.27-2.53Z"/><path d="M77.68,15.49a.94.94,0,0,1,.62.77,2.29,2.29,0,0,0-.09.5.73.73,0,0,0,.24.41A1.41,1.41,0,0,1,78.82,19l-.1,0A1.43,1.43,0,0,1,78,17.33a.68.68,0,0,0,0-.47c-.08-.14-.26-.24-.37-.37a.9.9,0,0,1,0-1Z"/><path d="M79.41,12.77c.24,1.55,1,2.84,1.37,4.39a11.41,11.41,0,0,1,.22,2.4,9.19,9.19,0,0,0,.08,2.3,27.53,27.53,0,0,1,1.4,4.45A20.07,20.07,0,0,1,82.7,31h-.1c-.48-1.51-.78-3-1.12-4.52-.16-.75-.29-1.5-.47-2.24a10.67,10.67,0,0,1-.45-2.34c0-.84.17-1.6.12-2.36A7,7,0,0,0,80,17.4a7.79,7.79,0,0,1-.7-4.64Z"/><path d="M81.63,12.71c.25.87.63,1.54.85,2.4.08.44.1.9.17,1.35s.18.87.23,1.35a11.57,11.57,0,0,1,0,1.31,5.8,5.8,0,0,0,.19,1.13,4,4,0,0,1,0,2.69H83a19.62,19.62,0,0,0-.88-2.42,3.54,3.54,0,0,1-.1-1.46,7.83,7.83,0,0,1,.36-1.28,2.1,2.1,0,0,0,0-1.24,6.74,6.74,0,0,0-.62-1.15,3.28,3.28,0,0,1-.19-2.68Z"/><path d="M90.6,13.39c-.69,1.33-1.37,2.53-.88,3.75a4,4,0,0,1,.19,2.27,13.78,13.78,0,0,1-1,1.95,2.18,2.18,0,0,0-.14,1.83,4.69,4.69,0,0,1,.16,2.33,28.88,28.88,0,0,1-1.6,4.1H87.2a20.85,20.85,0,0,1,.68-4.26,5,5,0,0,0,0-2,2.73,2.73,0,0,1,0-1.24,2.48,2.48,0,0,1,.58-1.06,4.76,4.76,0,0,0,1.18-1.75c.14-.68-.31-1.24-.64-1.91A2.68,2.68,0,0,1,89,15a5.26,5.26,0,0,1,1.5-1.7Z"/><path d="M93.63,12.21a8.54,8.54,0,0,1-1.28,2.51,1.4,1.4,0,0,0-.21,1.21c.13.45.43.84.58,1.38a2.23,2.23,0,0,1-.28,1.61,4.15,4.15,0,0,0-.38,1.21c-.19.81-.27,2.06-1.19,2.69l-.07-.06a12.51,12.51,0,0,0,.26-2.8,3.27,3.27,0,0,1,.6-1.49,2.56,2.56,0,0,0,.54-1.1A3,3,0,0,0,91.85,16a2.33,2.33,0,0,1-.25-1.6c.39-1.12,1.25-1.58,1.94-2.26Z"/><path d="M98.08,12.45c-1,1.15-2,2.13-2,3.47a5.63,5.63,0,0,1-.67,2.19,8.18,8.18,0,0,0-.91,2c-.16.69-.21,1.42-.43,2.17a3.94,3.94,0,0,1-1.31,2,11.7,11.7,0,0,0-1.58,1.37,3.87,3.87,0,0,0-.79,1.9h-.1a3.13,3.13,0,0,1,.26-2.31A7,7,0,0,1,92,23.54,3.69,3.69,0,0,0,93.16,22a20.14,20.14,0,0,1,.8-2.06c.34-.71.83-1.27,1.12-1.93a4.38,4.38,0,0,0,.16-2.11,3.06,3.06,0,0,1,.88-2.23A6.09,6.09,0,0,1,98,12.37Z"/><path d="M92.81,25.67a4.64,4.64,0,0,1,2.25-3.25,17.06,17.06,0,0,1,1.86-.7,3.4,3.4,0,0,0,1.48-1.09A12.38,12.38,0,0,0,99.21,19a5.28,5.28,0,0,1,1.23-1.67A8.52,8.52,0,0,1,104,15.57l0,.09c-1,.85-2.08,1.54-2.92,2.39A6.43,6.43,0,0,0,100,19.4,5.78,5.78,0,0,1,98.78,21a9.6,9.6,0,0,1-1.73,1,8.41,8.41,0,0,0-1.55,1.09,14,14,0,0,0-2.6,2.61Z"/><path d="M95.9,19.68A6.72,6.72,0,0,1,97.52,18a4.1,4.1,0,0,0,.92-.69,1.91,1.91,0,0,0,.42-1,3.92,3.92,0,0,1,.15-.67A1.18,1.18,0,0,1,99.5,15a9.5,9.5,0,0,1,1-.68,7.58,7.58,0,0,1,2.25-.84l0,.08A7.57,7.57,0,0,1,101,15.2a8.66,8.66,0,0,1-1,.57c-.33.12-.36.31-.62.66l-.66,1.05a11,11,0,0,1-.63,1.09A3.76,3.76,0,0,1,96,19.76Z"/><path d="M90,32.58a4.06,4.06,0,0,1,3-2.06c.62,0,1.2.09,1.77,0a3.79,3.79,0,0,0,1.56-.62,12,12,0,0,0,1.28-1.06,4.81,4.81,0,0,1,1.53-1.1c1.24-.46,2.34-.3,3.43-.73l.06.07c-.82,1-2.21,1.16-3.1,1.6s-1.75,1.38-3,1.69-2.36.57-3.43.91a14,14,0,0,0-3,1.35Z"/><path d="M94.33,28.61c.77-.63,1.46-1.16,2.21-1.67A4.43,4.43,0,0,1,98,26.38a7.39,7.39,0,0,0,1.4-.27,12.69,12.69,0,0,0,2.21-1.5,3.26,3.26,0,0,1,2.89-.62v.1a6.19,6.19,0,0,0-2.28,1.35,5.05,5.05,0,0,1-2.72,1.19,6,6,0,0,0-1.42.05c-.43.1-.67.61-1,.87a4,4,0,0,1-2.68,1.15Z"/><path d="M98.4,30.78a5.47,5.47,0,0,1,1.54-1.16,8.67,8.67,0,0,1,1-.38,7.29,7.29,0,0,0,1-.14,3.48,3.48,0,0,0,.66-.5,3.06,3.06,0,0,1,.43-.34,1,1,0,0,1,.4-.14l.33,0,.44.08a1.73,1.73,0,0,0,.4,0l1-.07,0,.08a2.49,2.49,0,0,1-.81.7,2.39,2.39,0,0,1-.57.19,2.57,2.57,0,0,1-.53,0c-.2-.25-.86.59-1.74.47-.38-.06-.69-.2-1-.09s-.34.45-.61.73a2.62,2.62,0,0,1-2,.6Z"/><path d="M104.71,26.14c.59.1.64-.28,1.2-.56.28-.11.54-.18.85-.31a1.25,1.25,0,0,1,1-.13c.3,0,.35-.07.58-.17a5.82,5.82,0,0,1,.75-.35,4.14,4.14,0,0,1,1.74-.18l0,.09a4.19,4.19,0,0,1-1.4,1,6.22,6.22,0,0,1-.83.25,1.21,1.21,0,0,1-1.06-.2c-.47-.53-.81.12-1.14.59a1.53,1.53,0,0,1-.83.48.76.76,0,0,1-.93-.5Z"/><path d="M103.13,30.65c.92-.38,1.62-.88,2.51-1.26.45-.17.94-.29,1.41-.47a2.28,2.28,0,0,1,1.55-.15,2.23,2.23,0,0,0,1.21.11,5.15,5.15,0,0,0,1.08-.62,4.33,4.33,0,0,1,2.92-.76v.1a12.92,12.92,0,0,0-2.35,1.5,3.46,3.46,0,0,1-1.49.66,2.1,2.1,0,0,1-1.57-.5,1.12,1.12,0,0,0-1.24-.06,11.47,11.47,0,0,0-1.15.89,3.64,3.64,0,0,1-2.89.65Z"/><path d="M97.6,24.19a14.61,14.61,0,0,1,2.84-.79,4.91,4.91,0,0,0,1.41-.33,2.47,2.47,0,0,0,1-1,5.25,5.25,0,0,1,.82-1.35,1.58,1.58,0,0,1,.87-.46c.26,0,.58,0,.79-.06.7,0,1.76-.82,2.87-.47v.1c-1,.24-1.45,1.14-2.75,1.39a4.23,4.23,0,0,1-.7,0,.63.63,0,0,0-.46.15c-.31.23-.61.65-1,1a10.73,10.73,0,0,1-1.27.92,8.66,8.66,0,0,1-1.34.84,5.32,5.32,0,0,1-3.06.12Z"/><path d="M91.8,35.11c.61.62,1.28,1.28,2,1.22s1.36-.74,2.53-.66a1.91,1.91,0,0,1,1.28.87,9.91,9.91,0,0,1,.61,1.22c.33.74,1,1.52,1.77,1.26a5.21,5.21,0,0,1,1.34-.41,1.14,1.14,0,0,1,.88.45,3.15,3.15,0,0,1,.33.68c.21.56.94.51,1.9.57a2.64,2.64,0,0,1,1.43.61,6.41,6.41,0,0,1,.94,1,3.26,3.26,0,0,0,1.89,1.52v.09a3,3,0,0,1-2.45-1.11,3,3,0,0,0-1.91-1.13,6.77,6.77,0,0,1-1.37-.15,1.77,1.77,0,0,1-1.27-1.11c-.17-.51-.18-.65-.41-.7a8.35,8.35,0,0,0-1.21.17A1.63,1.63,0,0,1,98.69,39a5,5,0,0,1-.79-1.11c-.4-.75-1-1.49-1.67-1.43s-1.38.65-2.5.61a2.73,2.73,0,0,1-2-1.91Z"/><path d="M94.15,33.72c.09.35.47.38.79.4s.73-.07,1.09-.07a6,6,0,0,1,2.37.19c.92.5,1,1.4,1.41,2a1.68,1.68,0,0,0,1.87.57,3.83,3.83,0,0,1,2.44,0,2.63,2.63,0,0,1,.94.9,1.15,1.15,0,0,0,.7.34,9.72,9.72,0,0,1,4.06,2.12l0,.08A32.7,32.7,0,0,0,105.52,39a2,2,0,0,1-1.24-.71c-.28-.41-.34-.58-.58-.72a4.51,4.51,0,0,0-2-.28,2.61,2.61,0,0,1-2.14-.91c-.49-.6-.93-1.3-1.47-1.41s-1.37-.08-2.09-.19a8.89,8.89,0,0,1-1.16-.18c-.35-.08-.92-.41-.79-.9Z"/><path d="M102.42,34.83c1.06.48,2.1.11,3.33.32s2.1,1.41,3.12,1.66c.51.12,1.08.09,1.72.29a8.72,8.72,0,0,1,1.59.79,2.12,2.12,0,0,0,1.38.34,2.94,2.94,0,0,1,1.78.26l0,.09a5.16,5.16,0,0,0-1.63.39,2.56,2.56,0,0,1-2-.17c-.57-.29-1-.66-1.44-.86a11.79,11.79,0,0,1-1.61-.65c-.56-.33-.93-.79-1.41-1.08a2.75,2.75,0,0,0-1.57-.27,8.61,8.61,0,0,1-1.73-.11,2.33,2.33,0,0,1-1.59-.92Z"/><path d="M108.38,42.07a6.75,6.75,0,0,1,2.48.73,7.72,7.72,0,0,0,1.12.64,3.33,3.33,0,0,0,1.25.18,6.55,6.55,0,0,0,1.15-.13c.14-.05.15-.11.12-.09s0,0-.09-.09a2.63,2.63,0,0,0-2-.8l0-.09a2.15,2.15,0,0,1,2.8.22,1.09,1.09,0,0,1,.25,1.09,1,1,0,0,1-.87.64,3,3,0,0,1-1.42-.23,9.69,9.69,0,0,0-1.26-.4c-.43-.09-.89-.1-1.32-.2a5.11,5.11,0,0,1-2.24-1.38Z"/><path d="M105.75,33.62c.91-.09,1.67-.16,2.48-.21s1.76-.16,2.65-.08a6.24,6.24,0,0,0,2.36-.3,3.17,3.17,0,0,1,2.67.33l0,.09a7.41,7.41,0,0,0-2.38.58,3.72,3.72,0,0,1-2.72-.19,1.78,1.78,0,0,0-1.19-.17c-.4.11-.77.39-1.22.53a3.16,3.16,0,0,1-2.63-.49Z"/><path d="M81,41.42c-.37.15-.23.35-.49.35a.72.72,0,0,0-.41,0,.48.48,0,0,0-.2.35,1.19,1.19,0,0,1-1,1.16l-.08,0a1,1,0,0,1,.74-1.47.65.65,0,0,0,.36-.23,4.09,4.09,0,0,1,.2-.47.6.6,0,0,1,.53-.18c.21,0,.48.19.46.43Z"/><path d="M79.6,43.47a27.22,27.22,0,0,0-1.47,3.43,7,7,0,0,0-.56,1.79,5.25,5.25,0,0,1-.47,2c-.34.63-.81,1.08-1.09,1.56a6.51,6.51,0,0,0-.64,1.62c-.34,1.15-.45,2.41-.73,3.7h-.09a8.62,8.62,0,0,1-.18-4,5,5,0,0,1,.9-1.88,11.61,11.61,0,0,1,1.4-1.35c.88-.89.45-2.37.69-3.67a5.4,5.4,0,0,1,2.17-3.27Z"/><path d="M79.74,46.77a22,22,0,0,0-.65,3.7c-.32,1.27-.69,2.54-1,3.79a10.41,10.41,0,0,0-.73,3.59,5.09,5.09,0,0,1-.4,2,3.25,3.25,0,0,1-1.38,1.5l-.06-.07a5,5,0,0,0,.82-3.46,5.33,5.33,0,0,1,.35-2,9.14,9.14,0,0,1,.91-1.76,4.78,4.78,0,0,0,.72-1.75,12.14,12.14,0,0,0,0-1.91,5.15,5.15,0,0,1,1.36-3.67Z"/><path d="M76.93,61.81a13.77,13.77,0,0,1,.78-1.9c.15-.29.33-.61.48-.88a1.24,1.24,0,0,0,.18-.71,5.94,5.94,0,0,1,.25-2.09c.16-.68.35-1.33.55-2,.1-.33.2-.66.32-1a2,2,0,0,1,.73-1,1.16,1.16,0,0,1,1.51.29,1.7,1.7,0,0,1,.34,1.33,9.51,9.51,0,0,1-1.69,3.82l-.09,0c.27-1.34.6-2.68.76-3.89.08-.54-.21-.82-.38-.73s-.66.9-1,1.43a5.46,5.46,0,0,0-.73,1.85,4.48,4.48,0,0,0,.24,1.94,1.58,1.58,0,0,1-.24,1.22c-.19.31-.37.57-.57.85A12.28,12.28,0,0,1,77,61.86Z"/><path d="M80.4,62.49A1.55,1.55,0,0,1,80.63,61c.18-.18.41-.32.56-.5a1.51,1.51,0,0,0,.25-.66,5.25,5.25,0,0,1,1-2.48h.09a1.89,1.89,0,0,1,.18,1.53,2.79,2.79,0,0,1-.84,1.21,1.53,1.53,0,0,0-.44.55,3.49,3.49,0,0,0-.12.72,2.25,2.25,0,0,1-.85,1.1Z"/><path d="M81.82,41.94a3.1,3.1,0,0,1,.39,2.19c-.1.36-.28.71-.36,1.06a4,4,0,0,0,0,1.09,12.92,12.92,0,0,1-.31,4.24l-.09,0a4.72,4.72,0,0,1-.12-4.34,3,3,0,0,0,.25-1.05,7.77,7.77,0,0,0-.13-1.08A6.64,6.64,0,0,1,81.72,42Z"/><path d="M86.38,41.63a9.4,9.4,0,0,0-.12,5.55A27,27,0,0,1,87.57,53a29.32,29.32,0,0,1,0,3A8,8,0,0,0,88,58.64a9.86,9.86,0,0,1,.1,6l-.09,0a16.44,16.44,0,0,0-1-5.64,7,7,0,0,1-.38-3.06c.08-1,.26-2,.36-2.92a6.58,6.58,0,0,0-.27-2.86c-.33-.91-.89-1.72-1.28-2.67a6.16,6.16,0,0,1,.79-5.85Z"/><path d="M88.17,45c0,1.46-.09,2.86.65,3.86a7.12,7.12,0,0,1,1.64,4c0,.76-.12,1.48-.15,2.13a10.65,10.65,0,0,0,.19,2,8.32,8.32,0,0,1-.1,4.34l-.1,0a22.54,22.54,0,0,0-.81-4.15,7.09,7.09,0,0,1-.08-2.26c.11-.77.38-1.42.53-2.09a2.93,2.93,0,0,0-.27-2c-.33-.62-.93-.94-1.48-1.51a3,3,0,0,1-.71-2.23,5.93,5.93,0,0,1,.6-2.14Z"/><path d="M89.56,45.52c.26.74.51,1.3.75,1.9a3.59,3.59,0,0,0,.41,1,9.52,9.52,0,0,0,.75.85,3.39,3.39,0,0,1,.77,2.21c0,.76-.13,1.4-.19,2.17l-.09,0a3.8,3.8,0,0,1-.74-2.15,8.7,8.7,0,0,0-.2-2,2.3,2.3,0,0,0-.54-.91,8.88,8.88,0,0,1-.87-.79,2.2,2.2,0,0,1-.14-2.3Z"/><path d="M93.2,57.54a1.84,1.84,0,0,1,.23,1.24,1.23,1.23,0,0,0-.14.6,1.21,1.21,0,0,0,.34.54,2.31,2.31,0,0,1,.53,2.5l-.1,0a2.59,2.59,0,0,1-.77-1.07,6.88,6.88,0,0,1-.16-1.28c.06-.47-.29-.79-.5-1.28a1.38,1.38,0,0,1,.48-1.29Z"/><path d="M94.61,55.06a8,8,0,0,1,.48,1.64,4.55,4.55,0,0,0,.07.9,2.35,2.35,0,0,0,.43.79,3.85,3.85,0,0,1,.75,1.66,4.37,4.37,0,0,1,0,1.87l-.09,0a4.63,4.63,0,0,1-.88-1.6,13.81,13.81,0,0,1-.25-1.76,2.75,2.75,0,0,0-.24-.86c-.15-.27-.38-.5-.54-.79a1.83,1.83,0,0,1,.19-1.88Z"/><path d="M90.4,40.33c.93.93,2.17,1.25,3.17,2.31a3.88,3.88,0,0,1,.85,1.91A9.78,9.78,0,0,0,95,46.43a17.75,17.75,0,0,0,2.12,3.15,7.22,7.22,0,0,1,1.55,3.69l-.09,0a21.5,21.5,0,0,0-2.28-3.1,8.62,8.62,0,0,1-1.81-3.61,14.54,14.54,0,0,0-.32-1.94A2.78,2.78,0,0,0,93,43.21c-.87-.74-2.25-1.45-2.7-2.83Z"/><path d="M90.92,39.46a3.22,3.22,0,0,1,2.41,1.15c.28.35.47.77.72,1.12a6.22,6.22,0,0,0,.9,1,13.77,13.77,0,0,1,1.76,1.9,4.66,4.66,0,0,1,.93,2.51l-.09,0L95.89,45.2A11.73,11.73,0,0,1,94.53,43a4.1,4.1,0,0,0-.71-1.06,7.47,7.47,0,0,0-1-.76c-.65-.51-1.2-1-1.89-1.63Z"/><path d="M99.61,47.7A3.29,3.29,0,0,1,101.29,49c.18.31.29.67.46,1a6.22,6.22,0,0,0,.64.84,7,7,0,0,1,1,1.77,3.81,3.81,0,0,0,1,1.59l0,.09A2,2,0,0,1,102.49,53a9.32,9.32,0,0,1-.57-2,2.3,2.3,0,0,0-.42-.91,5.49,5.49,0,0,0-.81-.63,4.27,4.27,0,0,1-1.15-1.71Z"/><path d="M100,52.55a2.66,2.66,0,0,1,1.44,1,6.54,6.54,0,0,0,.41.79,2.25,2.25,0,0,0,.67.55,6.59,6.59,0,0,1,1.37,1,5.78,5.78,0,0,1,.5.69,6.46,6.46,0,0,1,.46.74l0,.09a2.67,2.67,0,0,1-.93-.27,4.63,4.63,0,0,1-.71-.52,5,5,0,0,1-1-1.41,2.52,2.52,0,0,0-.51-.69,7.45,7.45,0,0,0-.77-.46,2.69,2.69,0,0,1-.93-1.48Z"/><path d="M96.88,42c.92.76,1.81,1.37,2.66,2.17.4.42.76.9,1.16,1.33L102,46.71a10.69,10.69,0,0,1,1.12,1.35c.32.42.73.82,1.12,1.33.88,1,.54,2.37,1.37,3.14l0,.08a2.13,2.13,0,0,1-1.32-1.27,4.43,4.43,0,0,0-.86-1.38,10.14,10.14,0,0,1-1-1.4c-.31-.51-.53-1-.79-1.54a4.67,4.67,0,0,0-1.07-1.32A15.86,15.86,0,0,0,99,44.77,6,6,0,0,1,96.8,42Z"/><path d="M104,47.06a11.36,11.36,0,0,1,1.77,1.28,4.48,4.48,0,0,0,.8.77c.32.2.69.31,1.06.55.76.46,1,1.56,1.24,1.75,0,.09.59.16.91.61a1.8,1.8,0,0,1,.28,1.24l-.09,0a3.73,3.73,0,0,0-.72-.75c-.17-.17-.5,0-1.07-.37a2.37,2.37,0,0,1-.58-1.2,4.55,4.55,0,0,0-.34-.94c-.35-.63-1.22-.72-2-1a2.89,2.89,0,0,1-1.39-1.87Z"/><path d="M105.87,54.5c.42,0,.53-.11.78,0a1.38,1.38,0,0,0,.4.28.94.94,0,0,0,.49,0,.83.83,0,0,1,.61.06,1.54,1.54,0,0,1,.3.22,1.06,1.06,0,0,1,.12.2c.2.35-.08.47.2.71l.06.08c-.09.27-.48.28-.69.16a1.26,1.26,0,0,1-.39-.35.87.87,0,0,1-.1-.19.29.29,0,0,0,0-.09,1.92,1.92,0,0,0-.21-.29.54.54,0,0,0-.39-.16c-.15,0-.32.16-.5.2a.68.68,0,0,1-.74-.77Z"/></g></g></svg>