<svg xmlns="http://www.w3.org/2000/svg" viewBox="0 0 125.38 124.15"><defs><style>.cls-1{fill:#ed8794;}.cls-2{fill:#e75f70;}</style></defs><g id="Layer_2" data-name="Layer 2"><g id="Ingredients_Map" data-name="Ingredients Map"><path class="cls-1" d="M124.08,36c-.31-5.83-1.21-11.77-4-16.9-4.74-8.7-14.53-13.88-24.39-14.89S75.9,5.86,66.8,9.78c0,0-3.39,4.05-2.8-1.93l.25-1.53c-2.34-2.16-5.64-2.87-8.78-3.38A124.8,124.8,0,0,0,41.3,1.5C33.92,1.16,26.07,1.62,20,5.76,12.65,10.7,6.49,20.82,4.84,29.48c-1.3,6.89,1,13,2.5,19.88S12.52,62.8,18.41,66.61a5,5,0,0,0,2.26.93,4.91,4.91,0,0,0,1.89-.31C30,64.86,35.35,58.43,41.06,53c3-2.83,6.22-5.46,8.7-8.75.25-.34.49-.68.73-1A175.38,175.38,0,0,0,61.41,63c2.14,3.35,4.49,6.72,7.87,8.79,4.73,2.9,10.63,2.8,16.16,2.62s11.29-.4,16.51-2.37a35.07,35.07,0,0,0,11.15-7.22A34.16,34.16,0,0,0,122,52.75C124.15,47.49,124.38,41.66,124.08,36Z" transform="translate(-1.42)"/><path class="cls-2" d="M39.5,85.85h6.35v1.51H41.2v3.33h4.65v1.52H41.2v5.54H39.5Z" transform="translate(-1.42)"/><path class="cls-2" d="M47.84,85.85H49.4v11.9H47.84Z" transform="translate(-1.42)"/><path class="cls-2" d="M55.74,89.9a4.08,4.08,0,0,1,3,1.15A3.89,3.89,0,0,1,59.9,94a3.68,3.68,0,0,1-1.21,2.82,4.24,4.24,0,0,1-3,1.12,4.08,4.08,0,0,1-3-1.14,4,4,0,0,1,0-5.71A4.19,4.19,0,0,1,55.74,89.9Zm-.09,1.39a2.44,2.44,0,0,0-1.83.74,2.55,2.55,0,0,0-.72,1.86,2.48,2.48,0,0,0,.73,1.84,2.62,2.62,0,0,0,1.89.71,2.56,2.56,0,0,0,1.87-.72,2.66,2.66,0,0,0,0-3.69A2.64,2.64,0,0,0,55.65,91.29Z" transform="translate(-1.42)"/><path class="cls-2" d="M63.63,89.91v1.8l.08-.14c.75-1.21,1.5-1.81,2.25-1.81a2.75,2.75,0,0,1,1.84.89L67,92a2.31,2.31,0,0,0-1.5-.77,1.6,1.6,0,0,0-1.3.72,2.68,2.68,0,0,0-.55,1.69v4.1H62.07V89.91Z" transform="translate(-1.42)"/><path class="cls-2" d="M70,86.61a.91.91,0,0,1,.66.27.86.86,0,0,1,.27.65.87.87,0,0,1-.27.64.88.88,0,0,1-.66.28.87.87,0,0,1-.63-.28.89.89,0,0,1,0-1.28A.87.87,0,0,1,70,86.61Zm-.77,3.3h1.56v7.84H69.26Z" transform="translate(-1.42)"/><path class="cls-2" d="M78.64,85.85H80.2v11.9H76.88a3.59,3.59,0,0,1-2.77-1.1,4.11,4.11,0,0,1-1-2.94,3.92,3.92,0,0,1,1.09-2.85,3.68,3.68,0,0,1,2.77-1.12,5.06,5.06,0,0,1,1.71.33Zm0,10.57v-5a3.14,3.14,0,0,0-1.47-.37,2.35,2.35,0,0,0-1.84.76,2.91,2.91,0,0,0-.69,2,2.68,2.68,0,0,0,.6,1.87,1.85,1.85,0,0,0,.76.53,5.15,5.15,0,0,0,1.44.13Z" transform="translate(-1.42)"/><path class="cls-2" d="M87.58,93v3.33c0,.27.09.4.27.4a1.93,1.93,0,0,0,.88-.41v.94a4.52,4.52,0,0,1-.85.47,1.85,1.85,0,0,1-.67.12q-1,0-1.17-.78a3.38,3.38,0,0,1-2.11.76A1.86,1.86,0,0,1,82,96a1.9,1.9,0,0,1,.54-1.32,3.61,3.61,0,0,1,1.51-.93l2-.68v-.42a1.25,1.25,0,0,0-1.42-1.41,3.41,3.41,0,0,0-2.47,1.31v-1.7a3.22,3.22,0,0,1,2.6-1.06,3,3,0,0,1,2,.66,2.44,2.44,0,0,1,.46.57,2.27,2.27,0,0,1,.26.71A12.29,12.29,0,0,1,87.58,93ZM86.06,96.2V93.88l-1,.4a3.63,3.63,0,0,0-1.13.63,1.09,1.09,0,0,0-.32.8,1.06,1.06,0,0,0,1.11,1.1A2,2,0,0,0,86.06,96.2Z" transform="translate(-1.42)"/><path class="cls-2" d="M1.66,123.94a.23.23,0,0,1-.24-.24V108.06a.22.22,0,0,1,.24-.23H4.48c2.84,0,4.36,1.28,4.36,4.83s-1.54,4.83-4.36,4.83h-1c-.09,0-.14.05-.14.15v6.06a.22.22,0,0,1-.24.24Zm5.26-11.28c0-2.27-.69-3.06-2.44-3.06h-1c-.09,0-.14.05-.14.15v5.82c0,.1.05.15.14.15h1C6.23,115.72,6.92,115,6.92,112.66Z" transform="translate(-1.42)"/><path class="cls-2" d="M10.88,108.06a.22.22,0,0,1,.23-.23h1.45a.22.22,0,0,1,.23.23V123.7a.22.22,0,0,1-.23.24H11.11a.22.22,0,0,1-.23-.24Z" transform="translate(-1.42)"/><path class="cls-2" d="M15.45,108.06a.22.22,0,0,1,.23-.23h1.78a.33.33,0,0,1,.36.23l3.6,12.09h.09V108.06a.22.22,0,0,1,.24-.23H23a.22.22,0,0,1,.23.23V123.7a.22.22,0,0,1-.23.24H21.32a.31.31,0,0,1-.35-.24L17.3,111.62h-.12V123.7a.23.23,0,0,1-.24.24H15.68a.22.22,0,0,1-.23-.24Z" transform="translate(-1.42)"/><path class="cls-2" d="M25.89,108.06a.22.22,0,0,1,.24-.23h1.45a.22.22,0,0,1,.23.23v7.4L31.49,108a.27.27,0,0,1,.3-.19h1.54a.14.14,0,0,1,.15.21l-3.2,6.23L34,123.7c0,.15,0,.24-.15.24H32.27a.24.24,0,0,1-.26-.17l-2.89-7.48-1.31,2.65v4.76a.22.22,0,0,1-.23.24H26.13a.23.23,0,0,1-.24-.24Z" transform="translate(-1.42)"/><path class="cls-2" d="M39.8,115.88c0-4.57.07-5.16.31-5.87a3.39,3.39,0,0,1,3.53-2.4c2.23,0,3.48,1.26,3.74,3.51,0,.14,0,.26-.16.28l-1.33.27a.22.22,0,0,1-.28-.19c-.17-1.33-.78-2.07-2-2.07a1.65,1.65,0,0,0-1.7,1.14c-.17.48-.21.83-.21,5.33s0,4.86.21,5.34a1.89,1.89,0,0,0,3.46,0c.14-.46.21-.83.21-4.13a.13.13,0,0,0-.14-.14H43.9a.23.23,0,0,1-.24-.24v-1.25a.23.23,0,0,1,.24-.24h3.34a.23.23,0,0,1,.24.24v.68c0,4.32-.07,4.91-.31,5.62a3.35,3.35,0,0,1-3.53,2.39,3.38,3.38,0,0,1-3.53-2.39C39.87,121.05,39.8,120.46,39.8,115.88Z" transform="translate(-1.42)"/><path class="cls-2" d="M55.72,123.94a.24.24,0,0,1-.26-.17l-2-6.73a4.86,4.86,0,0,1-.66,0h-1a.13.13,0,0,0-.14.14v6.49a.22.22,0,0,1-.24.24H50a.23.23,0,0,1-.24-.24V108.06a.22.22,0,0,1,.24-.23h2.82c2.84,0,4.36,1.23,4.36,4.64,0,2.16-.71,3.46-2,4.1l2.25,7.13c0,.12,0,.24-.12.24Zm-.47-11.47c0-2.18-.71-2.87-2.42-2.87h-1c-.09,0-.14.05-.14.15v5.45a.13.13,0,0,0,.14.14h1C54.49,115.34,55.25,114.67,55.25,112.47Z" transform="translate(-1.42)"/><path class="cls-2" d="M62,108.06c0-.14.12-.23.26-.23h1.42a.25.25,0,0,1,.26.23l3.39,15.64a.2.2,0,0,1-.21.24H65.67c-.16,0-.23-.09-.26-.24l-.71-3.53H61.12l-.71,3.53c0,.15-.09.24-.23.24H58.75a.2.2,0,0,1-.21-.24Zm2.39,10.45-1.37-7h-.08l-1.46,7Z" transform="translate(-1.42)"/><path class="cls-2" d="M69.2,123.94a.22.22,0,0,1-.23-.24V108.06a.22.22,0,0,1,.23-.23H72c2.85,0,4.36,1.28,4.36,4.83s-1.54,4.83-4.36,4.83H71a.13.13,0,0,0-.15.15v6.06a.22.22,0,0,1-.23.24Zm5.26-11.28c0-2.27-.68-3.06-2.44-3.06H71a.13.13,0,0,0-.15.15v5.82a.13.13,0,0,0,.15.15h1C73.78,115.72,74.46,115,74.46,112.66Z" transform="translate(-1.42)"/><path class="cls-2" d="M78.42,108.06a.22.22,0,0,1,.24-.23h6.09a.22.22,0,0,1,.23.23v1.31a.22.22,0,0,1-.23.23H80.48c-.09,0-.14.05-.14.15v5a.13.13,0,0,0,.14.14h3.7a.22.22,0,0,1,.23.24v1.3a.22.22,0,0,1-.23.24h-3.7a.13.13,0,0,0-.14.14V122a.12.12,0,0,0,.14.14h4.27a.22.22,0,0,1,.23.24v1.3a.22.22,0,0,1-.23.24H78.66a.22.22,0,0,1-.24-.24Z" transform="translate(-1.42)"/><path class="cls-2" d="M86.92,108.06a.22.22,0,0,1,.24-.23h6.09a.22.22,0,0,1,.24.23v1.31a.22.22,0,0,1-.24.23H89a.13.13,0,0,0-.15.15v5.11A.13.13,0,0,0,89,115h3.69a.22.22,0,0,1,.24.23v1.31a.22.22,0,0,1-.24.23H89a.13.13,0,0,0-.15.15v6.77a.22.22,0,0,1-.23.24H87.16a.23.23,0,0,1-.24-.24Z" transform="translate(-1.42)"/><path class="cls-2" d="M101.33,123.94a.24.24,0,0,1-.26-.17l-2-6.73a4.86,4.86,0,0,1-.66,0h-1a.13.13,0,0,0-.14.14v6.49a.23.23,0,0,1-.24.24H95.6a.22.22,0,0,1-.24-.24V108.06a.22.22,0,0,1,.24-.23h2.82c2.84,0,4.36,1.23,4.36,4.64,0,2.16-.72,3.46-2,4.1l2.25,7.13c0,.12,0,.24-.12.24Zm-.47-11.47c0-2.18-.71-2.87-2.42-2.87h-1c-.09,0-.14.05-.14.15v5.45a.13.13,0,0,0,.14.14h1C100.1,115.34,100.86,114.67,100.86,112.47Z" transform="translate(-1.42)"/><path class="cls-2" d="M105.12,120V108.06a.22.22,0,0,1,.24-.23h1.44a.22.22,0,0,1,.24.23v12.16c0,1.4.71,2.13,1.85,2.13s1.85-.73,1.85-2.13V108.06a.22.22,0,0,1,.23-.23h1.45a.22.22,0,0,1,.23.23V120c0,2.78-1.46,4.17-3.76,4.17S105.12,122.76,105.12,120Z" transform="translate(-1.42)"/><path class="cls-2" d="M115.28,108.06a.22.22,0,0,1,.24-.23H117a.22.22,0,0,1,.24.23V123.7a.22.22,0,0,1-.24.24h-1.44a.23.23,0,0,1-.24-.24Z" transform="translate(-1.42)"/><path class="cls-2" d="M122.08,123.94a.23.23,0,0,1-.24-.24v-14c0-.1,0-.15-.14-.15h-2.65a.22.22,0,0,1-.24-.23v-1.31a.22.22,0,0,1,.24-.23h7.51a.22.22,0,0,1,.24.23v1.31a.22.22,0,0,1-.24.23h-2.65a.13.13,0,0,0-.15.15v14a.22.22,0,0,1-.23.24Z" transform="translate(-1.42)"/><path d="M55.46,52.39q.47.11.33.12h-.24s0,0,.1,0c.33.1.36.15-.24.1l-.09,0c-.58-.14-.53-.18-.19-.16.08,0,.14,0,.11,0a2.19,2.19,0,0,0-.23-.07c-.08,0,0,0,.35,0Z" transform="translate(-1.42)"/><path d="M56.94,53.68c.21.25.26.35.19.31l-.2-.15s0,0,0,.11c.2.27.19.34-.26-.05l-.07-.06c-.38-.46-.32-.47,0-.27.06,0,.11.08.1,0l-.15-.2c0-.07.06,0,.31.2Z" transform="translate(-1.42)"/><path d="M55.66,55.36c.27-.19.41-.22.44-.1s-.05.22,0,.28.09,0,.18,0c.36-.15.54-.07.33.52l0,.08c-.52.36-.65.21-.6-.18,0-.09,0-.16,0-.17a1.33,1.33,0,0,0-.26.11c-.12,0-.14-.14,0-.46Z" transform="translate(-1.42)"/><path d="M57.7,55.1c.32.09.41.22.32.3a2.75,2.75,0,0,1-.27.07s0,.09.06.16c.26.29.13.58-.43.33l-.08-.06c-.38-.48-.35-.46,0-.46.09,0,.15,0,.13,0s-.15-.11-.21-.15,0-.09.37-.14Z" transform="translate(-1.42)"/><path d="M56.94,57.77c0-.33.14-.45.27-.38s.15.19.21.22.11,0,.16-.12c.19-.36.47-.43.68.15v.09c-.23.62-.39.6-.63.28-.06-.08-.12-.12-.17-.09s-.08.18-.12.26-.2,0-.38-.32Z" transform="translate(-1.42)"/><path d="M59.62,56.93c.33,0,.45.16.36.24s-.21.08-.25.11,0,.08.08.14c.31.23.23.53-.37.38l-.08,0c-.45-.41-.43-.38-.06-.43.08,0,.14,0,.12-.08a.91.91,0,0,0-.24-.1c-.07-.06,0-.09.35-.2Z" transform="translate(-1.42)"/><path d="M59.25,59.58c.26-.2.38-.24.36-.14a1.07,1.07,0,0,0-.1.23s.05,0,.13,0c.31-.18.42-.14.09.37l-.06.08c-.48.36-.54.26-.39-.07,0-.08,0-.13,0-.13s-.16.09-.23.12-.06-.09.12-.37Z" transform="translate(-1.42)"/><path d="M61.45,59.18c.26-.18.39-.19.36-.09s-.12.19-.13.23,0,0,.13,0c.36-.09.5.07,0,.39l-.08,0c-.61.14-.59.13-.35-.13,0-.07.08-.12,0-.12a1.78,1.78,0,0,0-.23.09c-.08,0,0-.08.19-.35Z" transform="translate(-1.42)"/><path d="M60.92,61.94c-.05-.33,0-.48.15-.45s.18.15.24.17.1-.06.12-.16c.11-.39.39-.49.68.07v.1c-.11.61-.24.6-.53.33-.07-.06-.13-.09-.17,0s0,.2-.05.28-.17,0-.41-.2Z" transform="translate(-1.42)"/><path d="M63.53,64.12c-.23.22-.31.3-.26.24l.17-.18-.08.07c-.25.23-.28.25.13-.17l.07-.07c.42-.41.4-.38.17-.13l-.07.08.18-.17c.06,0,0,0-.24.26Z" transform="translate(-1.42)"/><path d="M64.8,63c.07-.32.11-.42.13-.34a2.07,2.07,0,0,0,0,.25s0,0,0-.1c.1-.33.16-.37.13.23l0,.09c-.13.58-.18.54-.18.2,0-.09,0-.14,0-.12s0,.17-.08.24,0,0,0-.36Z" transform="translate(-1.42)"/><path d="M65.85,64.61c.07-.32.12-.42.13-.34v.25s0,0,.06-.1c.1-.33.15-.36.12.23v.1c-.14.58-.18.53-.19.19,0-.09,0-.14,0-.11a2.19,2.19,0,0,0-.07.23c0,.08-.05,0,0-.36Z" transform="translate(-1.42)"/><path d="M65,66.45c.09-.31.16-.41.19-.33s0,.22,0,.26.05,0,.08-.1c.15-.32.25-.34.26.26l0,.09c-.18.57-.27.52-.32.17,0-.08,0-.14,0-.12s-.07.17-.11.23-.09,0-.09-.37Z" transform="translate(-1.42)"/><path d="M68.65,65.56c.31-.1.42-.12.35-.08l-.21.12s0,0,.11,0c.33-.09.38-.07-.16.19l-.09,0c-.56.19-.54.14-.24,0,.07,0,.12-.06.09-.06l-.24.06c-.08,0,0,0,.3-.19Z" transform="translate(-1.42)"/><path d="M68,68.43c-.11.3-.16.4-.14.32l.06-.24s0,0-.05.1c-.13.31-.17.34,0-.23l0-.09c.21-.55.22-.51.13-.18,0,.08,0,.13,0,.11l.1-.23c0-.07,0,0-.08.35Z" transform="translate(-1.42)"/><path d="M70.45,67.22c.28-.15.39-.19.33-.13l-.19.15s0,0,.11,0c.31-.14.37-.12-.12.22l-.08,0c-.53.27-.52.21-.25,0,.06,0,.1-.09.07-.09l-.22.1c-.08,0,0,0,.27-.23Z" transform="translate(-1.42)"/><path d="M71.18,69.26c0-.32,0-.45.14-.39a1.4,1.4,0,0,0,.17.22s.07,0,.09-.13c.08-.37.26-.44.49.11v.1c-.07.62-.18.6-.39.3,0-.07-.1-.12-.13-.08a1.33,1.33,0,0,0,0,.26c0,.09-.13,0-.3-.3Z" transform="translate(-1.42)"/><path d="M71.55,70.75c.06-.33.11-.43.17-.35s.06.2.09.24.06,0,.09-.11c.11-.34.23-.38.35.22v.09c-.12.6-.24.56-.35.22,0-.09-.06-.14-.09-.11a1.54,1.54,0,0,0-.09.24c-.06.08-.11,0-.17-.35Z" transform="translate(-1.42)"/><path d="M73.43,68.66c-.31.09-.42.11-.34.08l.22-.09s0,0-.11,0c-.32.09-.37.08.19-.13l.09,0c.57-.17.54-.13.22,0-.07,0-.12,0-.09,0l.23-.06c.08,0,0,0-.32.14Z" transform="translate(-1.42)"/><path d="M74.8,70.42c.29.13.38.19.3.2s-.21,0-.25,0,0,0,.09.08c.3.17.31.25-.27.13l-.09,0c-.55-.25-.49-.3-.14-.26.08,0,.14,0,.11,0a1,1,0,0,0-.21-.12c-.07-.06,0-.06.36,0Z" transform="translate(-1.42)"/><path d="M73.63,71.32c.15-.28.22-.37.21-.29s-.06.2-.06.24,0,0,.08-.08c.19-.29.26-.31.07.26l0,.09c-.29.52-.33.47-.24.13,0-.08,0-.13,0-.11a2.36,2.36,0,0,0-.13.2c-.06.07,0-.05.06-.35Z" transform="translate(-1.42)"/><path d="M75.31,72.65c.28-.16.41-.18.39-.08a1.1,1.1,0,0,0-.13.23s.06,0,.14,0c.34-.13.45-.06.08.42l-.07.06c-.54.29-.59.17-.41-.14,0-.08.06-.14,0-.14s-.17.06-.24.08-.06-.11.14-.37Z" transform="translate(-1.42)"/><path d="M77.32,71.89c0-.32,0-.43,0-.36l.08.24s0,0,0-.12c0-.34,0-.38.15.19l0,.1c.08.59,0,.56-.06.23,0-.08,0-.13,0-.1l0,.24c0,.09,0,0-.13-.33Z" transform="translate(-1.42)"/><path d="M100.34,71.8c-.11.31-.16.41-.15.33l.07-.24s0,0-.06.1c-.12.31-.16.34,0-.23l0-.09c.21-.56.22-.51.13-.18,0,.08,0,.13,0,.1l.1-.22c0-.07,0,0-.08.34Z" transform="translate(-1.42)"/><path d="M102.63,71.17c.28.15.37.22.29.2l-.22-.09s0,0,.08.07c.29.18.31.23-.24,0l-.08,0c-.52-.3-.47-.31-.15-.18.08,0,.13,0,.11,0l-.21-.13c-.06-.05,0,0,.34.11Z" transform="translate(-1.42)"/><path d="M88.94,73.55c.13.3.15.42,0,.4s-.17-.14-.22-.15,0,.06,0,.15c.09.35,0,.45-.44,0l0-.08c-.24-.55-.12-.6.18-.39.07,0,.13.07.14,0a1.61,1.61,0,0,0-.07-.25c0-.1.12,0,.36.17Z" transform="translate(-1.42)"/><path d="M86,75c.14-.29.2-.38.19-.3l-.06.24s0,0,.06-.09c.17-.3.22-.33,0,.24l0,.09c-.26.54-.28.48-.19.15,0-.08,0-.13,0-.11l-.12.22c0,.07,0,0,.08-.35Z" transform="translate(-1.42)"/><path d="M108.2,66.65c.28.16.37.22.29.2l-.23-.09s0,0,.09.07c.29.19.31.23-.24,0l-.08,0c-.52-.29-.47-.3-.15-.18l.11,0-.21-.14c-.06,0,0,0,.34.12Z" transform="translate(-1.42)"/><path d="M108.09,68.56c-.15.28-.2.37-.18.3l.1-.22s0,0-.06.09c-.16.29-.2.32.06-.22l0-.08c.28-.53.28-.48.14-.17,0,.07-.06.12,0,.1l.12-.21c0-.07,0,0-.13.32Z" transform="translate(-1.42)"/><path d="M110.63,67.07c.14-.3.2-.39.19-.31l-.07.24s0,0,.07-.09c.16-.3.21-.32,0,.24l0,.09c-.26.54-.28.49-.19.16,0-.08,0-.13,0-.11l-.12.21c0,.07,0,0,.08-.34Z" transform="translate(-1.42)"/><path d="M110.7,65.32c0,.32,0,.43,0,.35v-.25s0,0,0,.11c0,.34,0,.38,0-.21v-.1c0-.59,0-.55,0-.21,0,.08,0,.13,0,.1v-.24c0-.08,0,0,0,.35Z" transform="translate(-1.42)"/><path d="M113.25,65.68c.31.09.41.13.33.12l-.24,0s0,0,.09,0c.33.11.36.15-.23,0l-.09,0c-.57-.18-.52-.19-.19-.14.09,0,.14,0,.11,0l-.23-.08c-.07,0,0,0,.35,0Z" transform="translate(-1.42)"/><path d="M114.49,63.38c-.19.26-.26.34-.23.27l.12-.21s0,0-.08.07c-.21.27-.25.29.06-.22l0-.08c.35-.48.35-.43.19-.13,0,.07-.07.12,0,.1l.15-.19c.06-.06,0,0-.16.31Z" transform="translate(-1.42)"/><path d="M115.4,60.71c.07-.32.11-.42.13-.34s0,.21,0,.25,0,0,.06-.11c.1-.33.16-.36.15.24v.09c-.13.59-.19.54-.2.2,0-.09,0-.14,0-.12a2.23,2.23,0,0,0-.08.24c0,.08-.05,0,0-.36Z" transform="translate(-1.42)"/><path d="M117.68,59.78c.1-.31.19-.41.25-.32s0,.21.09.25.07,0,.12-.1c.18-.32.33-.34.41.26V60c-.21.57-.35.52-.46.17,0-.09-.06-.14-.1-.12s-.09.17-.14.23-.14,0-.18-.37Z" transform="translate(-1.42)"/><path d="M117.15,58c.32,0,.43.06.35.09a2.42,2.42,0,0,0-.24.05s0,0,.11,0c.34.06.37.12-.22.18h-.09c-.6-.06-.56-.12-.22-.18.08,0,.14,0,.11,0s-.18,0-.25-.05,0-.06.36-.09Z" transform="translate(-1.42)"/><path d="M119.15,57.94c-.05-.32,0-.43,0-.36s.08.2.11.23,0,0,0-.12c0-.34,0-.39.22.17l0,.09c.08.59,0,.57-.13.25,0-.07-.06-.12-.07-.09s0,.18,0,.25-.07,0-.17-.32Z" transform="translate(-1.42)"/><path d="M118.92,55.67c.17-.28.26-.36.27-.27a1.41,1.41,0,0,0,0,.25s0,0,.1-.07c.22-.27.32-.27.15.31l0,.08c-.32.51-.39.44-.33.09,0-.08,0-.14,0-.13a1.75,1.75,0,0,0-.16.2c-.08,0-.07-.06,0-.38Z" transform="translate(-1.42)"/><path d="M120,54.29c.31-.08.43-.09.37,0l-.21.14s0,0,.12,0c.35,0,.41,0-.11.3l-.09,0c-.58.15-.57.06-.28-.14.07,0,.11-.08.07-.09a1.32,1.32,0,0,0-.24,0c-.09,0,0-.09.28-.24Z" transform="translate(-1.42)"/><path d="M121.31,53.6c0-.32,0-.43.06-.36a1.84,1.84,0,0,0,.07.24s0,0,0-.11c0-.35.09-.39.22.19v.09c0,.6-.07.57-.17.24,0-.08-.05-.13-.06-.1a1.56,1.56,0,0,0,0,.25c0,.08-.06,0-.13-.34Z" transform="translate(-1.42)"/><path d="M121.56,52.07c-.06-.32-.06-.43,0-.36s.09.19.11.22,0,0,0-.11c0-.34,0-.39.21.16l0,.09c.11.59,0,.57-.1.25,0-.07-.06-.12-.07-.09s0,.18,0,.25-.06,0-.17-.32Z" transform="translate(-1.42)"/><path d="M122.08,50.45c-.1-.31-.12-.42-.06-.36s.11.18.14.21,0,0,0-.11c-.08-.34-.05-.4.24.13l0,.09c.18.56.11.55-.07.26,0-.07-.08-.11-.08-.08a2.07,2.07,0,0,0,.06.24c0,.08-.07,0-.22-.29Z" transform="translate(-1.42)"/><path d="M109,16a3.45,3.45,0,0,1,.9.78,1.34,1.34,0,0,0,.34.52,1.25,1.25,0,0,0,.62.17,1.84,1.84,0,0,1,1.27.71c.26.38.33.69.58,1.13l0,.09a1.64,1.64,0,0,1-1.33-.56c-.27-.34-.4-.56-.7-.9a1.32,1.32,0,0,0-.54-.36,4.74,4.74,0,0,1-.73-.2,1.15,1.15,0,0,1-.46-1.35Z" transform="translate(-1.42)"/><path d="M65.11,15.29c-.17-.29-.15-.48,0-.51s.24.07.31.07.1-.08.15-.19a.47.47,0,0,1,.58-.21.14.14,0,0,1,0,.16c0,.06-.1.2.05.3l.07.07c.07.18-.15.33-.27.37a1.68,1.68,0,0,1-.26.06c-.07,0,.07-.08-.06-.25s-.12-.09-.15-.05a.68.68,0,0,0,0,.27c0,.11-.14.09-.45,0Z" transform="translate(-1.42)"/><path d="M70,13.34c.32,0,.43,0,.35,0h-.24s0,0,.11,0c.34,0,.37.05-.22.07H70c-.6,0-.56-.05-.22-.07.08,0,.14,0,.11,0h-.25c-.07,0,0,0,.36,0Z" transform="translate(-1.42)"/><path d="M73.12,12.75c.18-.32.34-.44.52-.37s.2.19.29.22a.29.29,0,0,0,.25-.15c.31-.39.59-.49,1.11,0l0,.09c-.19.68-.63.74-1.06.46A.3.3,0,0,0,74,12.9c-.09,0-.17.2-.27.27s-.39,0-.58-.32Z" transform="translate(-1.42)"/><path d="M77.15,10.41c-.17-.28-.2-.4-.12-.36a1.72,1.72,0,0,0,.2.15s0,0,0-.12c-.15-.32-.1-.4.33,0l.06.08c.29.52.2.54-.07.33-.07-.06-.12-.09-.12-.05s.08.16.1.23-.08,0-.31-.2Z" transform="translate(-1.42)"/><path d="M59.64,46.56c.22.27.25.44.12.52s-.25,0-.31.06,0,.13,0,.23c.17.4.08.66-.57.62l-.08-.05c-.4-.52-.24-.73.19-.81.1,0,.18-.06.19-.13s-.09-.2-.12-.29.15-.23.5-.2Z" transform="translate(-1.42)"/><path d="M60,50.6c.16-.28.24-.37.24-.28s0,.21,0,.25,0,0,.1-.08c.2-.28.29-.29.11.29l0,.08c-.31.52-.36.45-.29.11,0-.08,0-.14,0-.12a1.29,1.29,0,0,0-.15.2c-.07.06-.06-.06,0-.37Z" transform="translate(-1.42)"/><path d="M70.48,59.22c.29-.15.41-.16.39-.07a2.43,2.43,0,0,0-.14.22s.06,0,.14,0c.34-.11.45,0,0,.42l-.07.06c-.55.27-.59.14-.4-.16,0-.07.07-.13,0-.14s-.17.06-.25.08,0-.12.17-.36Z" transform="translate(-1.42)"/><path d="M111.2,49.53c.34-.14.57-.09.66.1a3.71,3.71,0,0,0,0,.38c0,.09.14.12.27.14.51.06.81.44.46,1.05l-.08,0c-.69,0-.81-.27-.78-.76,0-.12,0-.22-.1-.27s-.24,0-.35,0-.23-.24-.18-.61Z" transform="translate(-1.42)"/><path d="M111.72,40.91c.11-.3.19-.4.23-.31s0,.22,0,.26.06,0,.1-.09c.18-.31.3-.33.29.28v.09c-.23.56-.34.5-.38.14,0-.08,0-.14-.06-.12a1.42,1.42,0,0,0-.13.22c-.08.07-.11-.05-.1-.37Z" transform="translate(-1.42)"/><path d="M92.79,56.21c.33,0,.44,0,.37.06l-.23.1s0,0,.12.05c.35,0,.4.09-.17.28l-.09,0c-.6,0-.58-.07-.26-.21.08,0,.13-.07.1-.08a1.69,1.69,0,0,0-.25,0c-.09,0,0-.09.32-.18Z" transform="translate(-1.42)"/><path d="M94.62,55.58c.32,0,.44,0,.37,0a1.6,1.6,0,0,0-.21.13s0,0,.12,0c.35,0,.41.06-.15.3l-.09,0c-.59.07-.58,0-.27-.19.07,0,.12-.08.09-.09h-.26c-.08,0,0-.09.31-.21Z" transform="translate(-1.42)"/><path d="M66.11,51c0,.38,0,.58-.18.66a1.43,1.43,0,0,0-.37.08.31.31,0,0,0-.09.3c.08.52,0,.78-.67,1l-.1,0A.74.74,0,0,1,65,51.76c.13,0,.24-.1.28-.21s0-.28,0-.41.35-.32.72-.21Z" transform="translate(-1.42)"/><path d="M66.81,53.12c.13.34.08.56-.11.62a2,2,0,0,0-.35,0c-.09,0-.12.13-.13.25,0,.48-.37.75-1,.41l0-.08c0-.68.22-.8.69-.74.11,0,.21,0,.25-.07s0-.24,0-.35.24-.19.59-.1Z" transform="translate(-1.42)"/><path d="M70,53.84c.16.29.18.43.06.43a1.18,1.18,0,0,0-.25-.1c-.05,0-.05.08,0,.16.11.36,0,.5-.5.18l-.07-.07c-.29-.54-.14-.63.21-.49.09,0,.15,0,.16,0s-.06-.19-.07-.27.14-.09.42.09Z" transform="translate(-1.42)"/><path d="M61.47,30.65c.05-.32.1-.43.15-.35a1.84,1.84,0,0,0,.07.24s.05,0,.07-.1c.1-.34.2-.38.29.21v.1c-.09.59-.19.55-.29.21,0-.08,0-.13-.07-.11s0,.18-.07.25-.1,0-.15-.35Z" transform="translate(-1.42)"/><path d="M64.74,26.1c.13-.3.2-.39.22-.3a2.36,2.36,0,0,0,0,.25S65,26,65,26c.17-.3.27-.32.19.28l0,.09c-.24.55-.31.49-.3.14,0-.09,0-.14,0-.12s-.08.16-.12.22-.08-.05,0-.38Z" transform="translate(-1.42)"/><path d="M66.89,27.53c.33-.23.58-.26.77-.11s.15.27.25.34a.41.41,0,0,0,.36,0,.89.89,0,0,1,1.25.65l0,.09a.89.89,0,0,1-1.39-.24.43.43,0,0,0-.29-.21c-.13,0-.28.09-.42.11s-.43-.17-.54-.55Z" transform="translate(-1.42)"/><path d="M71.9,25.09c.27-.19.4-.22.39-.12s-.09.21-.08.26.07,0,.15,0c.33-.15.46-.08.16.45l-.06.07c-.51.34-.59.21-.46-.14,0-.08,0-.14,0-.15a1.28,1.28,0,0,0-.25.11c-.1,0-.08-.12.08-.4Z" transform="translate(-1.42)"/><path d="M73.87,17.68c.34-.1.52-.06.56.1s-.06.25,0,.33.12.1.23.1c.45,0,.68.19.44.81l-.07.07c-.64.17-.81-.08-.76-.53,0-.11,0-.2-.07-.24a1.92,1.92,0,0,0-.34,0c-.15-.06-.17-.24,0-.57Z" transform="translate(-1.42)"/><path d="M111.52,27.22c.12-.37.29-.53.52-.51a2.3,2.3,0,0,0,.37.16.4.4,0,0,0,.28-.19c.32-.44.71-.59,1.28-.13l0,.09c-.25.69-.67.76-1.17.54a.35.35,0,0,0-.33,0c-.09.06-.16.22-.24.31s-.42.09-.71-.17Z" transform="translate(-1.42)"/><path d="M108.92,21.91c-.06-.32,0-.44,0-.39a1.72,1.72,0,0,0,.17.19s.05-.05.05-.13c0-.36.08-.44.41.06l0,.09c.11.6,0,.61-.26.33-.06-.06-.1-.1-.12-.06a1.21,1.21,0,0,0,0,.26c0,.09-.13,0-.3-.26Z" transform="translate(-1.42)"/><path d="M90.69,11.58c.23.28.27.49.13.62a3.52,3.52,0,0,0-.33.15.3.3,0,0,0,0,.29c.18.46.08.8-.6.9l-.09,0c-.41-.55-.24-.86.2-1.06.11,0,.2-.11.2-.2a1.74,1.74,0,0,0-.12-.34c0-.19.16-.32.52-.36Z" transform="translate(-1.42)"/><path d="M17.57,49.05c.34.09.46.27.38.43s-.21.15-.25.22,0,.14.07.24c.28.36.17.78-.49.75l-.09,0c-.4-.51-.32-.63.06-.81.1-.05.16-.11.14-.17s-.17-.14-.24-.2,0-.22.33-.41Z" transform="translate(-1.42)"/><path d="M12.72,44.13c.33.07.44.16.37.26s-.2.11-.23.16,0,.09.11.14c.34.18.35.54-.28.58l-.09,0c-.53-.32-.5-.35-.16-.55.08-.05.13-.09.1-.14a1.17,1.17,0,0,0-.25-.12c-.08-.09,0-.19.34-.31Z" transform="translate(-1.42)"/><path d="M13,47.83c.32-.06.44,0,.37.07s-.19.08-.23.11,0,0,.11.06.26.08.26.12-.16,0-.45.13l-.09,0a.61.61,0,0,1-.48-.12s.06-.08.24-.13.13-.05.1-.06a.82.82,0,0,0-.24,0c-.09,0,0,0,.32-.16Z" transform="translate(-1.42)"/><path d="M14.24,48.26c.33,0,.46,0,.41.11s-.18.14-.2.19,0,.06.13.08c.37.07.45.34-.14.51h-.1c-.6-.13-.56-.16-.27-.38.08-.05.12-.1.08-.13a1.7,1.7,0,0,0-.26,0c-.1,0,0-.14.26-.31Z" transform="translate(-1.42)"/><path d="M13.67,41.07c.37,0,.55.17.54.38s-.13.25-.14.35.07.17.17.25a.72.72,0,0,1,.32.59.64.64,0,0,1-.61.54l-.08-.06c-.17-.29-.3-.34-.34-.49a.88.88,0,0,1,.2-.47.27.27,0,0,0,0-.28c-.06-.07-.22-.11-.31-.16s-.08-.31.13-.61Z" transform="translate(-1.42)"/><path d="M14.69,41.61c.33,0,.44.06.38.15s-.18.12-.2.17.05.07.14.07.28,0,.31,0-.1.15-.24.42l0,.09a.51.51,0,0,1-.58,0,.34.34,0,0,1,.07-.4c.06-.07.09-.13.05-.17s-.2,0-.28-.06,0-.24.29-.36Z" transform="translate(-1.42)"/><path d="M16.15,40.06c.32.07.43.1.36.18s-.2.09-.23.14,0,.06.13.09c.35.07.43.3-.16.49h-.1c-.6-.12-.57-.19-.26-.41.07,0,.12-.09.08-.13a2.5,2.5,0,0,0-.25-.08c-.09-.08,0-.2.33-.28Z" transform="translate(-1.42)"/><path d="M17.38,41.83c.33,0,.47.05.41.16s-.19.14-.21.18,0,.09.11.13c.37.16.32.61-.31.5l-.09,0c-.47-.39-.47-.27-.12-.43.08,0,.13-.07.1-.1s-.19,0-.26-.06,0-.12.28-.3Z" transform="translate(-1.42)"/><path d="M15.86,47.79c.32-.06.45,0,.38.08S16,48,16,48s0,.05.1.09.23.17.2.27a.35.35,0,0,1-.54,0l0-.1a.32.32,0,0,0-.39-.21s.06.05.24,0,.13,0,.11,0a.67.67,0,0,0-.25,0c-.08,0,0,0,.32-.16Z" transform="translate(-1.42)"/><path d="M15,45.18c.35,0,.5.12.47.29s-.16.2-.17.28.06.13.16.18c.4.18.5.62-.12.9h-.09c-.58-.29-.57-.41-.3-.76.06-.09.09-.17,0-.23a1.58,1.58,0,0,0-.29-.12c-.12-.1-.06-.27.2-.5Z" transform="translate(-1.42)"/><path d="M14.46,50.45c.32-.06.44-.05.38,0a1.51,1.51,0,0,0-.21.14s0,0,.12,0,.27.08.27.18-.19.23-.49.15l-.09,0a.55.55,0,0,0-.44-.1s.06,0,.24-.07.12-.07.09-.08a1.19,1.19,0,0,0-.25,0c-.09,0,0-.08.29-.23Z" transform="translate(-1.42)"/><path d="M13,50.69c.32-.08.44,0,.36.06l-.24,0s0,0,.1.06c.32.12.32.27-.25.08l-.09,0c-.54-.26-.52-.18-.18-.13h.11a1,1,0,0,0-.25,0c-.08,0,0,.07.35,0Z" transform="translate(-1.42)"/><path d="M20.89,60.35c-.31.14-.46.1-.43,0s.14-.18.15-.23-.06,0-.15,0c-.38,0-.44,0-.05-.48l.07-.06c.58-.23.67,0,.44.29-.06.07-.08.13,0,.15a.83.83,0,0,0,.26,0c.11,0,0,.11-.18.37Z" transform="translate(-1.42)"/><path d="M17.51,56.62c.33,0,.45,0,.4.07a1.25,1.25,0,0,0-.2.17s0,0,.13.06c.36,0,.44.12-.08.44l-.09,0c-.6.07-.61-.07-.33-.3.07-.06.11-.11.07-.13a1,1,0,0,0-.26,0q-.15-.06.27-.3Z" transform="translate(-1.42)"/><path d="M16.07,58c.32-.06.44,0,.38,0a1,1,0,0,0-.21.15s0,0,.12,0c.36,0,.43.07-.1.35l-.09,0c-.6.1-.59,0-.3-.21.07,0,.11-.09.08-.1a2.44,2.44,0,0,0-.26,0c-.09,0,0-.11.29-.26Z" transform="translate(-1.42)"/><path d="M18.37,46.5c.31,0,.43,0,.37.17s-.19.13-.22.18,0,.08.12.12c.36.12.43.36-.14.53h-.1c-.62-.16-.59-.24-.27-.45.07,0,.12-.1.09-.13a1.31,1.31,0,0,0-.25-.06c-.09,0,0-.14.3-.33Z" transform="translate(-1.42)"/><path d="M17.93,55.15c.31-.08.43-.08.36,0l-.21.12s0,0,.12,0c.34-.05.4,0-.14.25l-.09,0c-.59.13-.57.06-.27-.11.07,0,.12-.08.09-.09l-.25,0c-.09,0,0-.08.3-.21Z" transform="translate(-1.42)"/><path d="M19.57,44.3c.25.21.32.32.22.35a1.37,1.37,0,0,0-.27,0s0,.07.05.14c.24.27.21.41-.38.26L19.1,45c-.46-.39-.36-.49,0-.46.09,0,.15,0,.15,0s-.13-.14-.17-.2.09-.11.4,0Z" transform="translate(-1.42)"/><path d="M22.11,52.34c.29.2.36.37.24.49s-.24.07-.3.13,0,.13,0,.23c.2.4,0,.79-.64.59l-.07-.06c-.27-.59-.19-.65.23-.74.1,0,.17-.06.17-.13s-.13-.17-.18-.25.1-.22.44-.28Z" transform="translate(-1.42)"/><path d="M19.83,53c.27.17.32.29.23.28l-.22-.12s0,0,.06.1.19.17.24.08-.15-.27-.43-.14l-.09,0c-.31.09-.46-.12-.43-.27s.16-.14.31,0,.12.07.11,0a1.52,1.52,0,0,0-.18-.17c-.06-.05,0,0,.31.16Z" transform="translate(-1.42)"/><path d="M15.58,54.71c.33-.05.45,0,.39,0s-.18.12-.2.16,0,0,.13,0c.36,0,.43.1-.09.39l-.09,0c-.6.08-.6,0-.32-.26.07-.05.11-.1.08-.11a2.09,2.09,0,0,0-.26,0q-.15,0,.27-.27Z" transform="translate(-1.42)"/><path d="M27.57,59.72c.33,0,.45,0,.39.05a1.26,1.26,0,0,0-.2.16s0,0,.13,0c.35,0,.43.09-.1.39l-.09,0c-.6.09-.59,0-.31-.25.07-.06.11-.1.07-.12a1.12,1.12,0,0,0-.26,0c-.09,0,0-.12.28-.28Z" transform="translate(-1.42)"/><path d="M24.26,56.53c.28.16.32.3.22.3s-.19-.1-.23-.11,0,0,0,.12c.08.36-.08.45-.28-.11l0-.09c-.1-.6-.16-.53,0-.24,0,.07.08.11.07.08l-.17-.17c-.07,0,0,0,.3.17Z" transform="translate(-1.42)"/><path d="M22.07,56.83c.33,0,.46,0,.39.12s-.21.09-.24.12,0,0,.1.09c.34.14.36.28-.24.3l-.1,0c-.57-.18-.52-.24-.18-.3.08,0,.14,0,.11-.07a.9.9,0,0,0-.25,0c-.08,0,0,0,.32-.18Z" transform="translate(-1.42)"/><path d="M23.75,63.35c.34,0,.48.08.42.2s-.18.15-.21.2,0,.1.12.14c.36.18.37.56-.27.59l-.09,0c-.53-.33-.5-.33-.16-.53.08,0,.12-.09.09-.13a.88.88,0,0,0-.26-.08c-.09-.06,0-.15.27-.34Z" transform="translate(-1.42)"/><path d="M16.34,38.55c0,.34-.18.46-.29.36s-.06-.23-.09-.27-.09,0-.18,0c-.35.21-.63,0-.23-.49l.08-.06c.57-.24.5-.25.41.09,0,.09,0,.15,0,.13a.42.42,0,0,0,.11-.22c0-.08,0,0,.15.34Z" transform="translate(-1.42)"/><path d="M13.33,38.48c.27.2.37.27.29.27a1.2,1.2,0,0,0-.24,0s0,.05.09.1c.31.18.34.19-.27.2l-.09,0c-.57-.18-.49-.35-.14-.34.09,0,.14,0,.12,0s-.15-.11-.21-.17.07-.11.36,0Z" transform="translate(-1.42)"/><path d="M55.15,5.77c-.35.24-.61.28-.81.14s-.17-.26-.27-.33a.5.5,0,0,0-.38,0c-.56.2-1,.12-1.34-.6l0-.09a1,1,0,0,1,1.47.19.44.44,0,0,0,.32.2,2.61,2.61,0,0,0,.43-.13c.27,0,.47.17.59.53Z" transform="translate(-1.42)"/><path d="M49.57,3.3c-.35.08-.54,0-.59-.14a1.45,1.45,0,0,0,0-.35c0-.08-.13-.11-.25-.12-.47,0-.72-.24-.49-.88l.07-.07c.66-.14.85.13.82.61,0,.11,0,.21.08.25a1.83,1.83,0,0,0,.35,0c.17.07.19.26.06.6Z" transform="translate(-1.42)"/><path d="M53.66,7.39c-.31.15-.45.16-.46.05a2,2,0,0,0,.09-.26s-.09,0-.18,0c-.39.1-.55,0-.23-.52L53,6.58c.58-.27.68-.12.55.23,0,.09,0,.15,0,.17s.19-.06.28-.07.11.14-.07.42Z" transform="translate(-1.42)"/><path d="M22.37,9.67c-.14.4-.32.6-.58.65a1.44,1.44,0,0,0-.46,0,.49.49,0,0,0-.25.32,1.45,1.45,0,0,1-1,1.16l-.1,0a1,1,0,0,1-.06-1,1.17,1.17,0,0,1,.81-.53.73.73,0,0,0,.41-.17c.1-.11.16-.3.26-.43a.74.74,0,0,1,.91,0Z" transform="translate(-1.42)"/><path d="M19.48,13.77c.06.37,0,.55-.16.59a1.47,1.47,0,0,0-.33,0c-.08,0-.11.12-.12.23,0,.47-.24.68-.88.44l-.06-.07c-.14-.65.15-.84.61-.78.12,0,.21,0,.26-.07a1.78,1.78,0,0,0,0-.35c.08-.16.28-.18.58,0Z" transform="translate(-1.42)"/><path d="M30.22,10.77c.07.34,0,.51-.2.5a2.79,2.79,0,0,0-.28-.16c-.07,0-.11.07-.16.16-.18.41-.57.48-.8-.12v-.1c.25-.59.37-.56.67-.28.07.06.15.09.19.05s.05-.2.07-.29.18,0,.46.16Z" transform="translate(-1.42)"/><path d="M30.26,3.07c.1.34.1.5-.06.55s-.26,0-.34,0-.09.13-.1.25a.55.55,0,0,1-.48.5.53.53,0,0,1-.53-.55l.05-.09c.27-.21.33-.33.33-.37a1.92,1.92,0,0,0,.29.1c.1,0,.19,0,.22-.06s0-.22,0-.32.25-.21.57-.07Z" transform="translate(-1.42)"/><path d="M31.87,3.8c.07.33,0,.46-.07.43s-.17-.14-.23-.15-.07.06-.07.15c0,.38-.29.52-.59,0V4.1c0-.61.08-.59.38-.35.07.06.13.09.15,0s0-.2,0-.28.16,0,.38.2Z" transform="translate(-1.42)"/><path d="M28.91,5.32c.19.27.18.41.1.37l-.19-.18s0,0,0,.13,0,.26,0,.27-.08-.14-.29-.36l-.06-.07a.64.64,0,0,1-.1-.48s.09,0,.21.17.09.11.09.07A1.18,1.18,0,0,0,28.58,5c0-.08,0,0,.27.24Z" transform="translate(-1.42)"/><path d="M29,6.46c.16.28.16.42.05.4a2.36,2.36,0,0,0-.24-.14s0,.06,0,.15c.06.37-.09.52-.45.06l0-.09c-.14-.62-.08-.62.2-.41.07.05.13.08.14,0s-.06-.18-.07-.25.1,0,.37.17Z" transform="translate(-1.42)"/><path d="M34.69,3.41c.13.33.07.54-.11.6s-.27,0-.35,0-.12.12-.14.24a.6.6,0,0,1-.36.49.6.6,0,0,1-.68-.33l0-.1c.17-.29.15-.42.25-.51a.7.7,0,0,1,.47,0c.11,0,.2,0,.24,0a1.17,1.17,0,0,0,0-.33c.05-.16.22-.17.57-.08Z" transform="translate(-1.42)"/><path d="M34.59,4.37c.09.32.13.43,0,.4a1,1,0,0,0-.22-.13s0,.07,0,.15.11.25.08.28S34.32,5,34,5h-.1a.51.51,0,0,1-.27-.5c.07-.08.18-.12.37,0s.16,0,.17,0a2,2,0,0,0-.06-.27c0-.12.19-.1.41.15Z" transform="translate(-1.42)"/><path d="M36.34,4.91c.07.33.06.46,0,.42s-.14-.16-.19-.17,0,0,0,.15c0,.37-.07.47-.44,0l0-.09c-.13-.6,0-.64.26-.39.07.06.12.09.14,0s0-.19,0-.27.13,0,.32.22Z" transform="translate(-1.42)"/><path d="M35.31,6.49c.16.29.15.43,0,.42s-.19-.12-.24-.13-.05.06-.06.15c0,.39-.37.52-.52-.09v-.1c.13-.6,0-.54.29-.28.06.06.12.09.13,0a.9.9,0,0,0-.06-.25c0-.1.1,0,.36.16Z" transform="translate(-1.42)"/><path d="M33.53,6.16c-.27.29-.51.37-.74.27s-.21-.23-.33-.28a.46.46,0,0,0-.37.06.88.88,0,0,1-1.36-.52l0-.09a1,1,0,0,1,1.4.09.46.46,0,0,0,.34.15c.12,0,.25-.15.38-.2s.47.08.67.43Z" transform="translate(-1.42)"/><path d="M29.92,7.51c.19.27.18.41.09.37l-.18-.18s0,0,0,.13,0,.28-.15.29a.35.35,0,0,1-.18-.5l.07-.07a.33.33,0,0,0,0-.45s0,.08.06.24.07.11.07.08a1.13,1.13,0,0,0-.09-.22c0-.08,0,0,.26.24Z" transform="translate(-1.42)"/><path d="M32.14,7.53c.12.32.1.49,0,.52A1.35,1.35,0,0,0,31.78,8c-.06,0-.08.1-.08.21,0,.42-.32.66-.79.2l0-.09c0-.63.09-.66.5-.53.1,0,.18,0,.21,0a1.62,1.62,0,0,0,0-.3c0-.14.2-.14.51,0Z" transform="translate(-1.42)"/><path d="M27.73,9.12c.17.28.16.42.05.4s-.17-.14-.22-.15,0,.05,0,.14-.08.3-.2.32a.4.4,0,0,1-.25-.48l0-.09a.62.62,0,0,0,.08-.45A.84.84,0,0,0,27.3,9c.05.07.1.1.11.07a1,1,0,0,0-.07-.25c0-.08.07,0,.33.2Z" transform="translate(-1.42)"/><path d="M27.27,7.42c.19.27.23.38.14.35a1.72,1.72,0,0,0-.2-.15s0,0,0,.13,0,.27,0,.3-.27-.08-.33-.39V7.57a.63.63,0,0,0-.1-.45s0,.07.16.2.1.09.1.06-.09-.16-.12-.22.07,0,.31.19Z" transform="translate(-1.42)"/><path d="M26.58,6.38c.2.26.17.41.1.35a1.52,1.52,0,0,1-.14-.21s0,0,0,.12c0,.34-.09.4-.16-.19v-.1c0-.59-.07-.55,0-.22a.42.42,0,0,0,0,.1A.73.73,0,0,0,26.34,6c0-.07,0,.06.18.3Z" transform="translate(-1.42)"/><path d="M26,8.16c.14.3.14.44,0,.45s-.21-.1-.27-.09-.05.08,0,.17c.09.38,0,.54-.56.22L25,8.84c-.25-.57-.08-.67.29-.54.09,0,.16,0,.17,0s0-.2,0-.28.16-.1.44.07Z" transform="translate(-1.42)"/><path d="M24.82,7.28c.19.26.24.36.17.32l-.2-.15s0,0,0,.11c.18.29.17.36-.27,0l-.06-.07c-.35-.48-.28-.49,0-.27.07,0,.12.08.11,0s-.1-.15-.13-.21.06,0,.3.2Z" transform="translate(-1.42)"/><path d="M24.65,9.2c.2.26.25.35.18.31l-.18-.16s0,0,0,.1c.2.28.19.34-.24-.08l-.06-.07c-.36-.47-.3-.47,0-.25.06.06.1.09.09.06l-.14-.2c0-.07.06,0,.29.22Z" transform="translate(-1.42)"/><path d="M20.26,18.93c-.32.06-.46,0-.4-.11s.19-.12.21-.16,0-.07-.12-.09c-.36-.1-.4-.34.2-.44h.1c.58.17.55.2.22.36-.08,0-.12.08-.09.1a.66.66,0,0,0,.26,0c.08,0,0,.09-.29.27Z" transform="translate(-1.42)"/><path d="M21.32,15.87c-.23-.22-.29-.33-.18-.34a1.6,1.6,0,0,0,.27,0s0-.06,0-.13c-.22-.28-.18-.4.42-.21l.08,0c.44.41.32.5-.05.43-.09,0-.16,0-.15,0s.11.15.15.21-.11.09-.43,0Z" transform="translate(-1.42)"/><path d="M20.57,14.79c-.32,0-.42-.09-.34-.12l.25,0s0,0-.1-.07-.22-.15-.19-.22.25-.1.48.1l.07.07c.2.24.34.23.39.23s-.05,0-.23-.08-.14,0-.11,0a1.09,1.09,0,0,0,.23.06c.08,0,0,0-.35,0Z" transform="translate(-1.42)"/><path d="M18,18.58c.15.29.16.43.06.42a1.43,1.43,0,0,0-.25-.1c-.05,0,0,.07,0,.15.17.34.2.35-.41.27l-.09,0c-.48-.39-.28-.65.1-.57.1,0,.16,0,.17,0s-.06-.18-.07-.26.15-.1.42.09Z" transform="translate(-1.42)"/><path d="M19.41,20.48c-.27.18-.37.23-.34.15a1.52,1.52,0,0,0,.14-.21s-.05,0-.11,0c-.29.22-.21.3-.06-.28l0-.09c.31-.52.53-.34.37,0,0,.08-.05.13,0,.13s.15-.09.22-.12.05.09-.17.34Z" transform="translate(-1.42)"/><path d="M17.78,21.27c-.28.17-.4.19-.38.1s.12-.18.13-.23-.06,0-.14,0c-.34.13-.53-.13,0-.43l.09,0c.6-.08.53-.16.32.15,0,.07-.08.12,0,.13l.24-.1c.09,0,0,.1-.16.35Z" transform="translate(-1.42)"/><path d="M15.56,20.05c.15.3.16.43.06.42s-.2-.1-.25-.09,0,.07,0,.15c.17.33.21.35-.41.26l-.08,0c-.49-.39-.29-.66.09-.57.1,0,.16,0,.17,0s-.06-.19-.07-.27.15-.1.42.09Z" transform="translate(-1.42)"/><path d="M15.31,22.74c-.28.17-.4.2-.38.1s.12-.18.13-.22-.06,0-.14,0c-.34.13-.53-.14,0-.44l.09,0c.6-.09.53-.16.32.15-.05.06-.08.12,0,.12a1.12,1.12,0,0,0,.24-.1c.09,0,0,.1-.16.36Z" transform="translate(-1.42)"/><path d="M17.76,22.83c-.26.19-.31.29-.26.23a.71.71,0,0,0,.11-.21s0,0-.05.09c-.1.33,0,.37-.12-.22v-.1c0-.6.24-.55.27-.18,0,.08,0,.14,0,.12a1.26,1.26,0,0,1,.2-.16c.1,0,.1.12-.12.36Z" transform="translate(-1.42)"/><path d="M23.25,12c.17.28.2.4.11.38s-.18-.12-.23-.13,0,.06,0,.14c.13.33.07.44-.41.07l-.06-.07c-.31-.52-.19-.57.12-.39.07,0,.13.06.13,0s-.07-.17-.09-.24.1-.05.36.15Z" transform="translate(-1.42)"/><path d="M24.76,12.62c.19.27.22.38.14.35a1.52,1.52,0,0,0-.21-.14s0,.05,0,.12c.16.32.12.4-.34,0l-.06-.07c-.33-.51-.24-.54.05-.34.07,0,.12.07.12,0a1.52,1.52,0,0,0-.11-.23c0-.09.09,0,.33.18Z" transform="translate(-1.42)"/><path d="M50.66,7c-.06.37-.14.52-.29.49s-.19-.15-.26-.16-.12.07-.15.18c-.14.41-.33.53-.85.09l0-.08c0-.64.32-.72.71-.51.09,0,.17.08.23,0s.08-.22.13-.31.28-.08.49.18Z" transform="translate(-1.42)"/><path d="M51.56,8.42c0,.32,0,.43-.09.35a2.5,2.5,0,0,0-.08-.25s0,0,0,.11c0,.33-.11.37-.27-.22V8.32c0-.59.11-.55.22-.21,0,.08.06.13.08.1s0-.17,0-.24.08,0,.15.35Z" transform="translate(-1.42)"/><path d="M50,8.89c-.12.31-.16.42-.25.35s-.11-.19-.16-.22-.09,0-.13.13c-.12.36-.34.44-.62-.12v-.1c.11-.61.28-.6.54-.3.07.07.12.11.17.08s.08-.19.13-.26.26,0,.34.34Z" transform="translate(-1.42)"/><path d="M52.38,9.34c0,.34-.08.46-.15.4s-.1-.2-.14-.22-.06,0-.09.12c-.09.37-.22.44-.43-.12v-.1c0-.62.19-.61.38-.3,0,.08.08.12.11.09a1.5,1.5,0,0,0,.07-.27c.06-.09.14,0,.25.31Z" transform="translate(-1.42)"/><path d="M50.39,10.9c-.1.38-.28.56-.52.56a2.53,2.53,0,0,0-.4-.12.43.43,0,0,0-.3.21.82.82,0,0,1-1.38.09v-.09c.35-.65.71-.7,1.24-.5a.43.43,0,0,0,.35,0c.09-.07.15-.24.23-.34s.43-.12.75.1Z" transform="translate(-1.42)"/><path d="M35.1,10.39c-.16.31-.27.41-.36.33s-.07-.22-.12-.26-.11,0-.17.1c-.23.32-.41.35-.6-.26v-.1c.23-.58.48-.52.66-.16,0,.08.09.14.14.11s.13-.16.2-.22.21,0,.26.37Z" transform="translate(-1.42)"/><path d="M32,9.74c.15.28.14.42,0,.4a1.66,1.66,0,0,0-.25-.14c-.05,0-.05.06,0,.15.05.37-.13.52-.5,0l0-.08c-.12-.62-.05-.63.26-.41.07,0,.13.08.14,0s0-.18-.05-.25.12,0,.4.17Z" transform="translate(-1.42)"/><path d="M48.25,4.57c-.31.16-.44.2-.44.09a1.68,1.68,0,0,0,.08-.24s-.09,0-.17,0c-.35.16-.45.13-.25-.47l.06-.08c.46-.38.62-.21.54.16,0,.09,0,.15,0,.16a2.82,2.82,0,0,0,.27-.09c.13,0,.13.14,0,.41Z" transform="translate(-1.42)"/><path d="M48,5.69c0,.33-.09.44-.19.37s-.11-.2-.16-.23-.07,0-.1.12c-.1.35-.26.4-.52-.17V5.69c.06-.6.23-.58.44-.26.06.08.11.13.14.09s.06-.18.08-.25.17,0,.3.33Z" transform="translate(-1.42)"/><path d="M37,14.71c.06.35-.08.53-.26.5s-.19-.17-.27-.19-.13,0-.2.12c-.27.37-.76.31-.77-.36l0-.08c.46-.46.47-.42.71-.08.06.08.12.13.17.09s.08-.19.1-.27.16,0,.43.19Z" transform="translate(-1.42)"/><path d="M34.8,14c0,.34-.06.49-.2.45a2.73,2.73,0,0,0-.24-.17c-.06,0-.1.06-.13.16-.11.39-.43.51-.74-.06v-.1c.15-.61.27-.6.59-.34.07.06.14.09.19.05s0-.2.07-.29.22,0,.44.21Z" transform="translate(-1.42)"/><path d="M33.63,19.34c0,.34-.06.48-.19.44s-.18-.15-.25-.17-.1.06-.13.16c-.11.39-.43.51-.73-.06v-.09c.14-.62.26-.61.58-.35.08.06.15.09.19.05a1,1,0,0,0,.07-.29c.08-.11.22,0,.44.22Z" transform="translate(-1.42)"/><path d="M39.87,20.84c0,.34-.06.48-.2.44s-.18-.15-.24-.17-.1.06-.14.16c-.11.39-.42.51-.73-.06v-.09c.14-.62.27-.61.59-.35.07.06.14.09.18.05s0-.2.08-.29.21,0,.43.22Z" transform="translate(-1.42)"/><path d="M33.47,11.53c.19.26.24.36.17.32a1.72,1.72,0,0,0-.2-.15s0,0,0,.11c.18.29.16.36-.27-.05l-.07-.07c-.35-.48-.27-.49,0-.28.07.05.12.08.11.05s-.1-.15-.13-.21.06,0,.3.21Z" transform="translate(-1.42)"/><path d="M34,9c-.07.32-.13.43-.19.35a2.5,2.5,0,0,0-.08-.25s-.06,0-.1.1c-.13.34-.25.37-.35-.22v-.1c.14-.59.26-.55.37-.2,0,.08.06.14.09.11a2.07,2.07,0,0,0,.09-.24c.07-.08.12,0,.17.36Z" transform="translate(-1.42)"/><path d="M54.22,13.24c-.27.22-.47.22-.54.06s0-.25,0-.32-.11-.07-.22-.06c-.43,0-.69-.27-.27-.77l.09,0c.64-.06.67.05.57.45,0,.1,0,.18,0,.2a1.28,1.28,0,0,0,.29-.08c.13,0,.13.13.08.47Z" transform="translate(-1.42)"/><path d="M59.27,8.75c-.24.25-.39.32-.51.21a1.68,1.68,0,0,0-.15-.3c-.07-.05-.15,0-.26,0a.53.53,0,0,1-.67-.18.51.51,0,0,1,.23-.72H58c.31.13.45.13.49.11a1.64,1.64,0,0,0,0,.31c0,.1.08.17.16.16s.18-.13.27-.17.3.11.34.47Z" transform="translate(-1.42)"/><path d="M60.09,8.25c-.25.22-.38.26-.41.15s0-.23,0-.28-.08,0-.17,0c-.34.18-.6,0-.25-.53l.08-.06c.55-.25.55-.21.48.17,0,.09,0,.16,0,.16s.17-.1.24-.13.12.12,0,.43Z" transform="translate(-1.42)"/><path d="M58.37,9.48c-.15.29-.27.35-.28.26s.06-.21.07-.25,0,0-.12.06-.21.15-.23.14.08-.15.18-.43l0-.09a.64.64,0,0,1,.37-.32s0,.1,0,.26-.05.13,0,.12A1.12,1.12,0,0,0,58.48,9c.06-.06,0,0-.08.35Z" transform="translate(-1.42)"/><path d="M60.59,13.72c-.17.27-.29.34-.33.23s0-.22,0-.27-.08,0-.15.05c-.29.24-.5.17-.26-.37l.06-.07c.47-.42.51-.37.45,0,0,.08,0,.14,0,.13s.14-.13.19-.18.08.08,0,.41Z" transform="translate(-1.42)"/><path d="M60.13,11.14c-.23.28-.44.33-.58.19s-.09-.25-.15-.32a.3.3,0,0,0-.28,0,.63.63,0,0,1-.6-.08.59.59,0,0,1,0-.76l.09,0c.33,0,.44-.07.57,0a.74.74,0,0,1,.21.42c0,.1.08.18.16.19a2.09,2.09,0,0,0,.3-.15c.16,0,.25.12.33.47Z" transform="translate(-1.42)"/><path d="M62.53,17.43c-.31.11-.42.16-.39.06a1,1,0,0,0,.11-.23c0-.05-.07,0-.15,0s-.24.12-.28.1,0-.17.07-.47v-.1c.18-.29.38-.31.48-.3s.13.18.08.37,0,.16,0,.17.18-.07.26-.08.11.18-.12.42Z" transform="translate(-1.42)"/><path d="M62.1,19.21c-.32.1-.46.09-.42,0s.15-.15.16-.2-.06,0-.15,0c-.38,0-.48-.05,0-.44l.08,0c.6-.17.64,0,.41.23,0,.07-.08.12,0,.14s.19,0,.27,0,0,.12-.2.33Z" transform="translate(-1.42)"/><path d="M60.46,18.28c-.28.18-.43.17-.42.06s.11-.2.12-.25S60.1,18,60,18c-.39,0-.54-.34.06-.53h.09c.61.09.55,0,.3.27-.06.07-.08.12,0,.13a.9.9,0,0,0,.24-.07c.1,0,.05.09-.13.37Z" transform="translate(-1.42)"/><path d="M61.13,17c-.39-.08-.58-.24-.62-.49a2.22,2.22,0,0,0,.06-.43c0-.12-.12-.2-.25-.28A.89.89,0,0,1,60,14.34l.1,0a1,1,0,0,1,.67,1.24.48.48,0,0,0,.05.36c.09.09.27.13.38.21s.18.45,0,.8Z" transform="translate(-1.42)"/><path d="M56.71,10.8c-.26.2-.39.21-.36.12l.16-.2s0,0-.12,0-.28,0-.3-.13a.35.35,0,0,1,.49-.21l.07.07a.34.34,0,0,0,.45,0s-.08,0-.24.07-.11.08-.08.08l.22-.11c.08,0,0,0-.22.28Z" transform="translate(-1.42)"/><path d="M59.23,15.18c-.32.14-.49.13-.52,0a2.19,2.19,0,0,0,0-.31c0-.06-.11-.08-.21-.07-.43,0-.69-.28-.26-.78l.09,0c.63,0,.67.06.57.48,0,.09,0,.18,0,.2a1.78,1.78,0,0,0,.3,0c.14,0,.14.19,0,.51Z" transform="translate(-1.42)"/><path d="M54.47,10.26c-.17.28-.3.34-.33.24s0-.22,0-.27-.07,0-.15,0-.3.07-.37,0a.4.4,0,0,1,.29-.46H54a.63.63,0,0,0,.43-.14.87.87,0,0,0-.13.22c0,.07,0,.13,0,.12a1,1,0,0,0,.18-.18c.07,0,0,.06,0,.38Z" transform="translate(-1.42)"/><path d="M55.74,9.05c-.14.29-.22.38-.23.29s0-.21,0-.25,0,0-.11.07-.22.16-.29.11,0-.27.19-.47l.09,0a.61.61,0,0,0,.34-.31s0,.06-.1.24,0,.13,0,.11a1.51,1.51,0,0,0,.14-.21c.05-.06.05.05,0,.37Z" transform="translate(-1.42)"/><path d="M56.32,7.94c-.13.3-.27.34-.26.25A1.45,1.45,0,0,1,56.18,8s0,0-.11,0c-.28.2-.39.11.09-.23l.09,0c.52-.29.45-.32.2-.08l-.07.08a1.12,1.12,0,0,0,.16-.19c0-.07-.08,0-.18.3Z" transform="translate(-1.42)"/><path d="M54.46,8.24c-.2.27-.32.34-.38.23s0-.23-.06-.28-.09,0-.17.06c-.29.25-.48.22-.46-.4l0-.09c.38-.49.54-.39.6,0,0,.1,0,.16.1.15s.15-.13.22-.18.17.09.14.43Z" transform="translate(-1.42)"/><path d="M52.92,7.6c-.13.29-.18.39-.18.31l0-.25s0,0-.06.09c-.16.31-.21.33,0-.24l0-.09c.24-.55.27-.49.2-.16,0,.08,0,.14,0,.11L53,7.15c.05-.06,0,0,0,.36Z" transform="translate(-1.42)"/><path d="M56.55,18.31c-.32-.14-.42-.25-.34-.34s.21-.09.24-.14,0-.1-.1-.16c-.34-.22-.38-.39.22-.61h.1c.59.2.54.44.2.64-.08,0-.14.1-.11.16A3,3,0,0,0,57,18c.08.11,0,.22-.35.29Z" transform="translate(-1.42)"/><path d="M57,15.17c-.27.17-.4.17-.39.05a2.78,2.78,0,0,0,.12-.26c0-.05-.06-.05-.15,0-.37.07-.53-.1-.09-.5l.09,0c.61-.16.62-.08.42.23,0,.08-.07.14,0,.15a1,1,0,0,0,.25-.07c.09,0,0,.12-.15.41Z" transform="translate(-1.42)"/><path d="M55.32,16.75c-.25.21-.35.26-.31.19s.12-.17.14-.21,0,0-.11.05c-.28.2-.35.18,0-.28l.07-.07c.46-.37.47-.3.27,0,0,.07-.07.11,0,.1s.14-.1.2-.14,0,.07-.18.31Z" transform="translate(-1.42)"/><path d="M57.83,17.15c-.32,0-.43-.11-.35-.17a1.45,1.45,0,0,0,.24-.1s0-.06-.11-.09c-.34-.11-.38-.22.21-.36h.09c.6.1.56.23.23.36-.09,0-.14.06-.11.09a1.23,1.23,0,0,0,.25.08c.08.06,0,.13-.35.2Z" transform="translate(-1.42)"/><path d="M37,32c-.26.22-.47.22-.53.07s0-.25,0-.32-.11-.07-.22-.07c-.44,0-.69-.27-.27-.77l.08,0c.64-.06.67.06.57.45,0,.1,0,.18.05.2a1.09,1.09,0,0,0,.28-.08c.13,0,.14.14.09.48Z" transform="translate(-1.42)"/><path d="M40.83,36c-.28-.19-.36-.29-.27-.33a1,1,0,0,0,.25,0s0-.08-.07-.14c-.28-.25-.28-.39.31-.31l.09,0c.52.35.44.46.09.47-.09,0-.15,0-.13,0s.15.13.2.19-.07.12-.38.06Z" transform="translate(-1.42)"/><path d="M51.56,28.4c-.32.09-.45.09-.42,0s.15-.15.16-.19-.06-.05-.15,0c-.37.05-.48,0,0-.43l.08-.05c.6-.17.64,0,.42.24-.06.06-.09.12,0,.13a1.48,1.48,0,0,0,.27,0c.1,0,0,.13-.2.33Z" transform="translate(-1.42)"/><path d="M42.83,34.34c-.31-.1-.41-.21-.31-.28s.22,0,.26-.07,0-.08-.06-.15c-.28-.26-.09-.63.44-.3l.07.08c.32.52.36.4,0,.4-.08,0-.14,0-.13,0a1.4,1.4,0,0,0,.22.14c.07.07,0,.1-.37.14Z" transform="translate(-1.42)"/><path d="M38.45,26.42c-.26.2-.4.21-.36.12l.16-.2s0,0-.13,0-.27,0-.29-.13a.34.34,0,0,1,.49-.21l.06.06a.34.34,0,0,0,.46,0s-.08,0-.24.07-.11.08-.08.08a1.12,1.12,0,0,0,.22-.11c.08,0,0,0-.22.27Z" transform="translate(-1.42)"/><path d="M38.75,30.79c-.27.17-.4.17-.39.05s.11-.21.12-.26-.07,0-.16,0c-.36.07-.52-.1-.08-.5l.09,0c.61-.16.62-.09.42.23,0,.07-.07.14,0,.15s.17-.06.24-.07,0,.12-.14.4Z" transform="translate(-1.42)"/><path d="M28.3,13.89c-.05.34-.16.47-.3.41s-.15-.19-.21-.22-.12,0-.18.12c-.24.36-.65.35-.72-.3l0-.09c.37-.51.44-.47.67-.13.05.08.11.13.17.09a1,1,0,0,0,.13-.26c.09-.09.21,0,.39.29Z" transform="translate(-1.42)"/><path d="M27,12.41c0,.32-.12.42-.14.34V12.5s0,0-.06.09-.06.25,0,.25.17-.23-.06-.45l-.06-.07c-.2-.24-.09-.45.05-.5s.19.09.16.27,0,.13,0,.11L27,12c0-.07,0,0,0,.35Z" transform="translate(-1.42)"/><path d="M23,18.74c.17.27.2.39.11.36s-.17-.12-.21-.13,0,.05,0,.13c.15.32.1.42-.37,0l-.06-.07c-.32-.51-.22-.55.08-.36.08,0,.13.07.13,0a1.46,1.46,0,0,0-.1-.23c0-.1.09-.05.34.16Z" transform="translate(-1.42)"/><path d="M21.29,20.43c.19.26.16.42.05.38s-.15-.16-.19-.19,0,0-.08.12c-.14.36-.42.32-.25-.26l0-.09c.31-.52.18-.52.19-.17,0,.08,0,.13,0,.1a.91.91,0,0,0-.08-.23c-.05-.07,0,.05.23.26Z" transform="translate(-1.42)"/><path d="M21.2,22.17c.18.26.12.43.05.37a2,2,0,0,1-.13-.22s0,0,0,.12,0,.24.05.24a.82.82,0,0,0-.21-.41l-.07-.07c-.17-.26-.12-.41-.09-.47s.11,0,.18.2.06.13.06.1a.9.9,0,0,0-.07-.24c0-.08-.05.06.17.3Z" transform="translate(-1.42)"/><path d="M21.21,23.79c0,.33,0,.45-.11.39S21,24,20.94,24s-.05,0-.07.12c0,.37-.3.46-.46-.14v-.1c.11-.59.09-.56.33-.26.05.07.1.11.13.07s0-.18,0-.26.16,0,.28.3Z" transform="translate(-1.42)"/><path d="M19,24.67c-.28.17-.4.2-.37.11s.12-.18.12-.23-.05,0-.13,0c-.33.15-.43.09-.06-.39l.07-.06c.52-.31.56-.2.38.11,0,.07-.06.13,0,.13s.16-.08.23-.1.06.1-.15.36Z" transform="translate(-1.42)"/><path d="M23,27.45c0,.32-.05.43-.07.35s0-.2,0-.24,0,0,0,.11,0,.25,0,.24,0-.19-.19-.41l-.06-.08c-.17-.26-.1-.42-.05-.49s.15,0,.2.22,0,.13.06.1,0-.18,0-.25.06,0,.08.36Z" transform="translate(-1.42)"/><path d="M21.73,25.66c.2.25.11.47-.1.39a.41.41,0,0,1-.11-.29c0-.05-.06,0-.15,0-.39,0-.43-.28.17-.24h.09c.6.11.55-.09.2,0-.08,0-.12.06-.12,0a.28.28,0,0,0-.05-.27c-.17-.08-.23.11,0,.34Z" transform="translate(-1.42)"/><path d="M16.14,25.45c-.28.17-.4.2-.38.1a2,2,0,0,0,.13-.22s-.05,0-.14,0c-.34.13-.53-.14,0-.44l.1,0c.59-.09.52-.16.31.15-.05.06-.07.12,0,.12a1.33,1.33,0,0,0,.23-.1c.09,0,.05.1-.16.36Z" transform="translate(-1.42)"/><path d="M15,24.31c.15.3.17.43.06.42a1.18,1.18,0,0,0-.25-.1s0,.08,0,.15c.17.34.2.36-.41.27l-.09,0c-.49-.38-.29-.65.1-.57.09,0,.16,0,.17,0a2,2,0,0,0-.08-.27c0-.12.15-.1.43.09Z" transform="translate(-1.42)"/><path d="M13.67,26.93c-.27.17-.39.19-.37.1s.12-.18.13-.23-.06,0-.14,0c-.34.13-.54-.13,0-.43l.09,0c.6-.08.52-.16.32.15-.06.07-.08.12,0,.13a1.07,1.07,0,0,0,.23-.1c.1,0,0,.1-.15.35Z" transform="translate(-1.42)"/><path d="M16.13,27a1.06,1.06,0,0,0-.27.23A.66.66,0,0,0,16,27s0,0-.06.09c-.09.33,0,.38-.11-.22v-.1c0-.59.24-.55.27-.18,0,.09,0,.14,0,.13s.13-.13.2-.17.11.13-.11.37Z" transform="translate(-1.42)"/><path d="M17.4,28.85c-.27.18-.39.21-.37.11s.12-.18.13-.22-.06,0-.14,0c-.32.14-.43.08-.05-.39l.07-.07c.51-.31.56-.2.38.11-.05.08-.07.13,0,.13a1.12,1.12,0,0,0,.24-.1q.15,0-.15.36Z" transform="translate(-1.42)"/><path d="M23.6,22.9c.2.25.23.37.13.34a2.12,2.12,0,0,1-.2-.17s0,0-.09.12a.26.26,0,0,1-.35.13c0-.09,0-.21.21-.43l.07-.07c.24-.19.31-.27.31-.34s-.16,0-.22.18,0,.14,0,.11a1.32,1.32,0,0,0-.13-.2c-.07-.05,0,0,.23.26Z" transform="translate(-1.42)"/><path d="M24.1,20.7c.17.28.21.39.12.37a2.43,2.43,0,0,0-.22-.14s0,.06,0,.13c.15.33.1.42-.37.05L23.58,21c-.32-.52-.22-.56.08-.37.08,0,.13.07.13,0s-.08-.16-.1-.23.09,0,.35.16Z" transform="translate(-1.42)"/><path d="M25.6,17c0,.32-.13.42-.17.33a1.85,1.85,0,0,1,0-.25s0,0-.11.06c-.27.24-.43.13,0-.28l.07-.07c.5-.34.4-.38.2-.1,0,.07-.06.12,0,.1a.9.9,0,0,0,.07-.23c0-.09-.05,0,0,.34Z" transform="translate(-1.42)"/><path d="M24.61,15.49c.18.28.15.43.06.39a1.81,1.81,0,0,1-.19-.17s0,0,0,.13c0,.36-.09.43-.35-.11l0-.09c-.09-.6,0-.58.17-.29.05.07.09.11.09.08a.64.64,0,0,0-.07-.24c0-.08,0,0,.28.23Z" transform="translate(-1.42)"/><path d="M28.66,17.55c.15.3.12.46,0,.45s-.2-.12-.26-.13-.06.07-.06.16c0,.39-.31.54-.59,0l0-.09c.05-.62.06-.58.36-.35.07.06.13.08.15,0s0-.19,0-.27.12-.05.39.14Z" transform="translate(-1.42)"/><path d="M30.12,15.38c.19.26.17.41.09.35a1.5,1.5,0,0,1-.14-.2s0,0,0,.11c0,.35-.14.4-.16-.2v-.09c.05-.6,0-.55,0-.22,0,.08,0,.13,0,.1s-.06-.16-.09-.22-.05.06.17.3Z" transform="translate(-1.42)"/><path d="M26.62,21.1c-.05.33-.07.44-.1.37a2.19,2.19,0,0,0-.07-.23s0,0,0,.12c0,.36,0,.39-.27-.16l0-.09c-.09-.59.08-.59.22-.27,0,.08.07.13.09.09s0-.18.05-.25.11,0,.15.32Z" transform="translate(-1.42)"/><path d="M42,.68c.06.36,0,.55-.16.58a2.11,2.11,0,0,0-.33,0c-.08,0-.11.12-.12.23,0,.47-.24.68-.88.44l-.06-.08c-.14-.64.16-.84.62-.77.11,0,.21,0,.25-.07a1.78,1.78,0,0,0,0-.35c.09-.17.28-.18.59,0Z" transform="translate(-1.42)"/><path d="M42.77,5.84c-.33.06-.46,0-.41-.11s.19-.12.22-.16,0-.07-.13-.1c-.35-.1-.4-.33.21-.43h.09c.59.17.55.19.22.36-.07,0-.12.08-.09.1a1.7,1.7,0,0,0,.26,0c.09,0,0,.09-.28.27Z" transform="translate(-1.42)"/><path d="M43.83,2.78c-.24-.22-.29-.33-.19-.34a1.6,1.6,0,0,0,.27,0c.05,0,0-.07,0-.13-.22-.28-.17-.41.42-.22l.08.05c.44.4.32.5-.05.43-.09,0-.16,0-.15,0a1.72,1.72,0,0,0,.15.2c0,.1-.11.1-.42,0Z" transform="translate(-1.42)"/><path d="M43.08,1.69c-.32-.05-.43-.09-.35-.11l.25,0s0,0-.1-.07-.21-.15-.19-.23.25-.1.49.1l.06.08c.2.23.35.23.39.23s-.05-.06-.23-.08-.14,0-.11,0a2.08,2.08,0,0,0,.24.06c.07,0,0,0-.36,0Z" transform="translate(-1.42)"/><path d="M40.53,5.49c.15.29.16.42.06.41s-.2-.1-.25-.09,0,.07,0,.15c.17.33.2.35-.41.27l-.09,0c-.49-.39-.29-.65.1-.57.09,0,.16,0,.17,0s-.07-.18-.08-.27.15-.09.43.09Z" transform="translate(-1.42)"/><path d="M41.91,7.39c-.27.18-.37.22-.33.15s.12-.17.13-.21,0,0-.11,0c-.29.21-.21.3-.06-.28l0-.09c.31-.53.53-.35.37,0,0,.08-.06.13,0,.13s.16-.09.23-.12,0,.09-.17.34Z" transform="translate(-1.42)"/><path d="M40.28,8.17c-.28.17-.4.2-.38.1s.12-.18.13-.22S40,8,39.89,8c-.34.13-.53-.13,0-.44l.1,0c.59-.09.52-.16.31.15-.05.07-.07.12,0,.12a1.86,1.86,0,0,0,.24-.09c.09,0,0,.09-.16.35Z" transform="translate(-1.42)"/><path d="M38.06,7c.15.3.17.43.06.42a1.18,1.18,0,0,0-.25-.1s0,.08,0,.16c.17.33.2.35-.41.26l-.09,0c-.49-.38-.29-.65.1-.56.09,0,.16,0,.17,0a2,2,0,0,0-.08-.27c0-.12.15-.1.43.09Z" transform="translate(-1.42)"/><path d="M37.81,9.65c-.28.17-.4.2-.38.1a1.42,1.42,0,0,0,.13-.23s-.05,0-.14,0c-.34.13-.53-.14,0-.44l.1,0c.59-.09.52-.16.31.14-.05.07-.07.13,0,.13a1.33,1.33,0,0,0,.23-.1c.09,0,.05.1-.16.35Z" transform="translate(-1.42)"/><path d="M36.42,12.87c-.28.17-.4.19-.38.1s.12-.18.13-.23-.06,0-.14,0c-.34.13-.53-.13,0-.44l.09,0c.6-.08.53-.16.32.15-.05.07-.08.12,0,.13s.17-.08.24-.1,0,.1-.16.35Z" transform="translate(-1.42)"/><path d="M40.26,9.73C40,9.92,40,10,40,10a.81.81,0,0,0,.12-.22s0,0-.06.1c-.09.32,0,.37-.12-.23V9.53c0-.6.24-.55.27-.19,0,.09,0,.15,0,.13s.13-.13.2-.16.1.12-.11.36Z" transform="translate(-1.42)"/><path d="M38.14,11.15c-.33.06-.48-.1-.39-.22s.22-.08.26-.11,0-.08-.06-.15c-.24-.32-.06-.59.44-.23l.06.08c.31.53.33.44,0,.36-.08,0-.14,0-.12,0a.68.68,0,0,0,.24.07,1,1,0,0,0-.32.14Z" transform="translate(-1.42)"/><path d="M45.45,5.65q.25.4.12.36c-.07,0-.18-.12-.22-.13s0,0,0,.13c.15.32.1.42-.37,0L44.93,6c-.32-.51-.22-.55.09-.36.07,0,.12.06.12,0a1.12,1.12,0,0,0-.1-.24c0-.09.09,0,.35.17Z" transform="translate(-1.42)"/><path d="M43.8,7.33c.18.27.15.43,0,.39a1,1,0,0,1-.18-.19s0,0-.08.12c-.15.35-.42.32-.26-.26l0-.09c.3-.53.18-.52.19-.17,0,.08,0,.13,0,.1A.63.63,0,0,0,43.5,7c0-.07,0,0,.23.26Z" transform="translate(-1.42)"/><path d="M43.7,9.07c.19.27.12.43,0,.37s-.1-.18-.13-.21,0,0,0,.11,0,.25,0,.25a.66.66,0,0,0-.21-.41l-.06-.07c-.18-.26-.12-.42-.09-.48s.1,0,.17.21.06.12.06.09a1.58,1.58,0,0,0-.06-.23c0-.08,0,.06.17.3Z" transform="translate(-1.42)"/><path d="M43.71,10.7c0,.33,0,.45-.11.38a1.27,1.27,0,0,0-.15-.21s-.06,0-.07.13c0,.36-.31.46-.47-.14v-.1c.11-.59.09-.56.33-.27.06.08.1.12.13.08s0-.19,0-.26.16,0,.29.3Z" transform="translate(-1.42)"/><path d="M41.54,11.58c-.28.17-.39.2-.37.11s.12-.18.13-.23-.06,0-.14,0c-.33.14-.43.09-.06-.39l.07-.06c.52-.31.57-.21.38.1,0,.08-.06.13,0,.14l.24-.1c.09,0,0,.1-.16.35Z" transform="translate(-1.42)"/><path d="M39.83,12.39c-.32,0-.43-.06-.35-.07h.25s0,0-.11,0-.19.2-.17.22.13-.09.34-.3l.08-.07c.23-.18.33-.25.41-.23a.23.23,0,0,1-.14.31c-.08,0-.13.05-.1.06l.24,0c.08,0,0,0-.35,0Z" transform="translate(-1.42)"/><path d="M41.29,13.67c-.25.2-.34.26-.29.2l.17-.18-.09.06c-.27.2-.32.21.1-.21l.08-.06c.46-.37.45-.33.21-.08-.06.06-.09.1-.06.09l.19-.15c.07,0,0,0-.23.26Z" transform="translate(-1.42)"/><path d="M42.22,16.82c-.25.21-.34.27-.28.21l.17-.17-.08.07c-.27.21-.31.23.13-.18l.07-.06c.45-.38.43-.35.19-.11-.06.06-.1.09-.07.08l.19-.15c.06-.05,0,0-.25.25Z" transform="translate(-1.42)"/><path d="M46,6.59c.19.26.23.37.14.33S46,6.78,46,6.77s0,0,0,.12c.11.34-.15.47-.31-.11v-.1c0-.6-.17-.51,0-.24.05.07.09.1.08.07a1.72,1.72,0,0,0-.12-.21c0-.07.06,0,.29.21Z" transform="translate(-1.42)"/><path d="M45.54,14.36c0,.32,0,.43-.07.35s0-.21,0-.24,0,0,0,.11,0,.24.05.24a.53.53,0,0,0-.19-.42l-.07-.07c-.17-.26-.1-.43-.05-.49s.15,0,.2.21,0,.14.06.11a1.45,1.45,0,0,0,0-.25c0-.08.06,0,.09.35Z" transform="translate(-1.42)"/><path d="M44.23,12.57c.21.25.11.46-.1.38a.37.37,0,0,1-.11-.28c0-.05-.06,0-.15,0-.39,0-.43-.27.17-.24l.1,0c.59.1.55-.09.2,0-.09,0-.13,0-.12,0a.3.3,0,0,0-.06-.27c-.17-.08-.23.12,0,.35Z" transform="translate(-1.42)"/><path d="M46.1,9.81c.2.25.23.36.13.34S46.07,10,46,10s0,0-.09.12a.27.27,0,0,1-.35.13c0-.09,0-.21.21-.44l.07-.06c.24-.19.31-.28.31-.34s-.16,0-.22.18,0,.14,0,.11a.83.83,0,0,0-.13-.2c-.07-.05,0,0,.24.25Z" transform="translate(-1.42)"/><path d="M46.6,7.61c.18.27.21.39.12.36s-.18-.12-.22-.13,0,0,0,.13c.14.32.09.42-.38,0l-.06-.07c-.32-.51-.21-.55.09-.36.07,0,.12.07.13,0a1.58,1.58,0,0,0-.11-.23c0-.1.1,0,.35.16Z" transform="translate(-1.42)"/><path d="M36.69,2.2c0,.33-.07.45-.11.38a1.09,1.09,0,0,0-.06-.23s0,0-.05.12c0,.35,0,.39-.26-.16l0-.09c-.08-.59.09-.59.23-.27,0,.08.06.12.08.09s0-.18.06-.26.11,0,.14.33Z" transform="translate(-1.42)"/><path d="M26.52,23.84c.19.26.24.36.17.32a2,2,0,0,0-.2-.16s0,0,0,.11c.18.3.17.36-.27,0L26.19,24c-.34-.49-.27-.5,0-.28.07.05.12.08.11.05s-.1-.15-.13-.21.06,0,.3.2Z" transform="translate(-1.42)"/><path d="M4.37,35.79c.14-.3.22-.39.26-.3a1.72,1.72,0,0,0,0,.26s.06,0,.11-.08c.19-.3.32-.31.28.29l0,.09c-.26.55-.36.49-.39.13,0-.09,0-.15-.06-.13s-.09.16-.14.22-.1-.06-.08-.38Z" transform="translate(-1.42)"/><path d="M4.64,33.11c.21-.25.33-.31.36-.2a1.3,1.3,0,0,0,0,.26s.08,0,.15,0c.29-.23.43-.19.27.4l0,.08c-.42.45-.53.35-.49,0,0-.09,0-.15,0-.15a1.42,1.42,0,0,0-.21.17c-.1,0-.11-.1,0-.42Z" transform="translate(-1.42)"/><path d="M6.34,34.92c.31.1.41.16.32.18H6.41s0,0,.1.08c.32.13.34.21-.25.16h-.1c-.57-.19-.51-.25-.17-.26.09,0,.14,0,.12,0l-.23-.1c-.07,0,0-.06.37,0Z" transform="translate(-1.42)"/><path d="M6.73,31c.18-.28.27-.36.29-.26A1.29,1.29,0,0,0,7,31s.06,0,.12-.06c.23-.27.35-.27.21.32l0,.09c-.33.5-.41.42-.38.07,0-.09,0-.15,0-.13a1.72,1.72,0,0,0-.17.19c-.08.05-.08-.07,0-.38Z" transform="translate(-1.42)"/><path d="M5.17,29.88c.31.13.41.21.33.3s-.21.09-.24.14,0,.09.11.13c.35.17.4.27-.13.59l-.1,0c-.62-.06-.62-.35-.3-.58.08-.06.13-.11.11-.16s-.18-.1-.25-.16,0-.22.37-.29Z" transform="translate(-1.42)"/><path d="M6.73,27c.25.25.31.4.19.49s-.24.06-.29.12,0,.14,0,.22c.27.34.27.54-.34.76h-.1c-.57-.33-.47-.68-.07-.88.1-.05.17-.1.16-.18s-.13-.19-.17-.28.13-.28.49-.28Z" transform="translate(-1.42)"/><path d="M8,28.9c.25-.25.37-.31.42-.21s0,.22,0,.27.09,0,.16-.05c.3-.25.42-.23.45.41l0,.1c-.32.5-.56.37-.62,0,0-.1,0-.17-.09-.16s-.17.12-.25.16-.19-.11-.11-.42Z" transform="translate(-1.42)"/><path d="M8.26,26.4c.33-.08.43-.12.39,0a1.1,1.1,0,0,0-.13.23s.07,0,.14,0c.32-.2.27-.26.24.36l0,.09c-.32.54-.63.33-.54-.05,0-.09,0-.16,0-.17s-.19.06-.27.06-.11-.2.15-.42Z" transform="translate(-1.42)"/><path d="M5.74,38.92q-.12-.47,0-.36s.11.18.13.21,0,0,0-.12c0-.34,0-.41.27.13l0,.09c.14.58.06.56-.12.27C6,39.07,6,39,6,39.06s0,.17,0,.24-.07,0-.22-.29Z" transform="translate(-1.42)"/><path d="M5.91,40.9c.15-.3.23-.38.27-.29s0,.21,0,.26.07,0,.12-.08c.2-.3.33-.3.28.3l0,.09c-.27.54-.38.47-.4.11,0-.09,0-.14,0-.13s-.1.16-.15.22-.11-.07-.07-.39Z" transform="translate(-1.42)"/><path d="M5.37,43.26c.31.11.41.18.32.23a1.31,1.31,0,0,0-.25.06s0,.06.09.1c.32.17.35.3-.26.34l-.09,0c-.58-.19-.52-.31-.17-.39.09,0,.14,0,.12-.07s-.17-.08-.23-.12,0-.12.37-.14Z" transform="translate(-1.42)"/><path d="M7.39,42.94c.29.15.38.23.29.25a1.12,1.12,0,0,0-.26,0s0,.05.08.1c.29.21.3.31-.3.22l-.09,0c-.53-.28-.46-.36-.11-.35.09,0,.15,0,.13,0a2.37,2.37,0,0,0-.21-.15c-.06-.07.06-.09.38,0Z" transform="translate(-1.42)"/><path d="M7.9,48.28c.2-.25.29-.32.28-.24l-.08.24s.05,0,.11-.06c.24-.25.33-.24.08.3l0,.08c-.38.47-.43.39-.31.06,0-.08,0-.13,0-.12a1.52,1.52,0,0,0-.18.18c-.07.05,0-.07.09-.36Z" transform="translate(-1.42)"/><path d="M24.22,60.07c.23.22.29.33.19.34a1.61,1.61,0,0,0-.25-.07s0,.06,0,.13c.22.29.19.41-.37.18l-.08-.06c-.43-.42-.33-.5,0-.41.09,0,.15,0,.14,0s-.11-.14-.15-.21.09-.08.39,0Z" transform="translate(-1.42)"/><path d="M17.62,62.4c.08-.31.12-.41.14-.33a1.85,1.85,0,0,0,0,.25s0,0,.05-.1c.11-.33.17-.36.14.23v.1c-.14.58-.19.53-.2.19,0-.09,0-.14,0-.12a2.46,2.46,0,0,0-.07.24c0,.07-.06,0,0-.36Z" transform="translate(-1.42)"/><path d="M14.87,60.73c.29.13.38.2.3.22s-.22,0-.25,0,0,.05.08.09c.3.18.31.27-.28.18l-.09,0c-.54-.25-.48-.32-.13-.3.08,0,.14,0,.12,0s-.16-.09-.22-.13,0-.07.37,0Z" transform="translate(-1.42)"/><path d="M37.74,42.87c.13-.29.2-.38.22-.3s0,.22,0,.26,0,0,.09-.09c.18-.3.27-.31.18.28l0,.09c-.26.55-.32.48-.31.13,0-.08,0-.14,0-.12s-.09.16-.13.22-.07-.05,0-.37Z" transform="translate(-1.42)"/><path d="M63,5.94a42.87,42.87,0,0,0-16.15-5,25,25,0,0,0-8.46,0l-4.18,1L30,2.61a21.22,21.22,0,0,0-13.68,9,32.1,32.1,0,0,0-5.21,15.93H11a27.54,27.54,0,0,1,4.49-16.49,20.4,20.4,0,0,1,14.41-9c1.42-.18,2.85-.26,4.25-.52s2.79-.63,4.18-1A28.25,28.25,0,0,1,46.91.13,32.46,32.46,0,0,1,63,5.86Z" transform="translate(-1.42)"/><path d="M12.27,17c-1.66,2-3.38,3.93-4.81,6a24.74,24.74,0,0,0-3.25,6.87A25.34,25.34,0,0,0,3,37.48,27.72,27.72,0,0,0,4.07,45.1a52.5,52.5,0,0,0,6.26,14A27.54,27.54,0,0,0,21.58,69.22l0,.09a23.73,23.73,0,0,1-12-9.68A42.52,42.52,0,0,1,3.56,45.22,35.79,35.79,0,0,1,3.45,29.7a20.51,20.51,0,0,1,3.41-7.07A40.52,40.52,0,0,1,12.2,17Z" transform="translate(-1.42)"/><path d="M22.8,69.31A155,155,0,0,0,37.54,57.15,77.15,77.15,0,0,0,50.06,42.74a121.75,121.75,0,0,0,9.25-16.68c2.56-5.77,5.16-11.78,4.77-18.23h.09a23.74,23.74,0,0,1-.65,9.59,59.08,59.08,0,0,1-3.3,9.06A88.22,88.22,0,0,1,50.49,43a162.25,162.25,0,0,1-12.4,14.68A78,78,0,0,1,22.86,69.39Z" transform="translate(-1.42)"/><path d="M9.77,31a16.18,16.18,0,0,1,0,2.62,4.26,4.26,0,0,0,0,1.29c.07.44.26.88.31,1.34A13.19,13.19,0,0,1,10.14,39a18.21,18.21,0,0,1-.36,2.66H9.69A6.68,6.68,0,0,1,9.12,39a8.82,8.82,0,0,1,.13-1.36,10.31,10.31,0,0,1,.25-1.28A2.5,2.5,0,0,0,9.41,35a9.56,9.56,0,0,1-.47-1.34A4,4,0,0,1,9.67,31Z" transform="translate(-1.42)"/><path d="M53.91,48.55c3,3.71,5.72,7.64,9.09,10.94a36.75,36.75,0,0,0,5.48,4.45,49.55,49.55,0,0,0,6.09,3.58,31.66,31.66,0,0,0,13.57,3.62A34.15,34.15,0,0,0,102,68.34a37.11,37.11,0,0,0,11.69-7.79,28.54,28.54,0,0,0,4.41-5.45,32.82,32.82,0,0,0,3.16-6.26A38,38,0,0,0,123.61,35a39,39,0,0,0-2.86-13.82l.08,0a37.35,37.35,0,0,1,2.45,6.73,38.69,38.69,0,0,1,1,7.11,35.19,35.19,0,0,1-2.17,14.18,31.25,31.25,0,0,1-7.86,12,32.41,32.41,0,0,1-5.7,4.41,38.64,38.64,0,0,1-20.44,5.86,33.62,33.62,0,0,1-13.91-3.23A41.76,41.76,0,0,1,62.48,60c-3.37-3.45-5.93-7.5-8.65-11.4Z" transform="translate(-1.42)"/><path d="M63.77,11.87A42,42,0,0,1,78,4.58,48.7,48.7,0,0,1,94,3.18,31.28,31.28,0,0,1,109.09,8.4c4.51,3.08,7.85,7.42,10.84,11.81l-.08.06c-3.47-4-7-8.11-11.31-11A35.53,35.53,0,0,0,93.89,3.7,32.85,32.85,0,0,0,78.23,5.34,68,68,0,0,0,63.82,12Z" transform="translate(-1.42)"/><path d="M50.78,43.09c-.19,0-.23-.28.06-.3a.39.39,0,0,1,.29.22c.06.11.14.19.18.28a1.22,1.22,0,0,1,.17.58,3.67,3.67,0,0,0,0,.66,1.07,1.07,0,0,0,.31.53,2.85,2.85,0,0,1,.95,2.28l-.08,0a2.13,2.13,0,0,1-1.36-2.13,1.36,1.36,0,0,0-.12-.64c-.1-.18-.29-.34-.42-.53a1.26,1.26,0,0,1-.13-.63,2.79,2.79,0,0,1,.06-.33s0,0,.12,0,.07-.13,0-.11Z" transform="translate(-1.42)"/><path d="M50.35,43.78A40.29,40.29,0,0,0,56.26,56.9a59.3,59.3,0,0,0,9.31,11,27.93,27.93,0,0,0,12.53,6.8,41.47,41.47,0,0,0,14.39.71,37.57,37.57,0,0,0,24.57-13.54,27.74,27.74,0,0,0,6-12.83c.91-4.73.44-9.63.88-14.47H124c-.11,4.83.5,9.7-.28,14.57a26.93,26.93,0,0,1-5.92,13.34A36.57,36.57,0,0,1,92.55,75.91,46.58,46.58,0,0,1,78,75a29.4,29.4,0,0,1-13-6.54,50.85,50.85,0,0,1-9.4-11.18A35.94,35.94,0,0,1,50.26,43.8Z" transform="translate(-1.42)"/><path d="M64.78,21.65c.11-2.21.67-4.73,2.69-6.22a4.54,4.54,0,0,1,1.67-.76c.6-.13,1.18-.14,1.71-.21A6.52,6.52,0,0,0,72.39,14a2.41,2.41,0,0,1,2,.14,7.66,7.66,0,0,1,2.44,2.54,28.38,28.38,0,0,1,1.7,3c1,2.05,1.88,4.13,2.66,6.25l1.21,3.17a34.77,34.77,0,0,1,1.17,3.29.9.9,0,0,1-.26.76,1,1,0,0,1-.71.25,5.5,5.5,0,0,1-1-.16,14.39,14.39,0,0,1-1.68-.56,16.57,16.57,0,0,1-3-1.75c-3.6-2.83-7.19-5.43-10.68-8.35l.05-.08c1.92,1.19,3.82,2.43,5.69,3.69l2.81,1.92c.91.67,1.78,1.38,2.7,2a17.15,17.15,0,0,0,2.84,1.64,10.14,10.14,0,0,0,1.51.56,5.84,5.84,0,0,0,.72.15c.18-.06,0,.1.06,0l-2-6.36a33.23,33.23,0,0,0-2.47-6.27A16.86,16.86,0,0,0,76.35,17,7.58,7.58,0,0,0,74,14.88a1.63,1.63,0,0,0-1.33-.06A5.51,5.51,0,0,1,71,15.3a5.36,5.36,0,0,0-3.06.73c-1.81,1.17-2.56,3.45-3,5.63Z" transform="translate(-1.42)"/><path d="M76.62,14.71a1.73,1.73,0,0,1,.82-2.64c.5-.14,1-.18,1.14-.41.07-.08,0-.28.14-.62a1.33,1.33,0,0,1,.62-.73,3.92,3.92,0,0,1,1.5-.42l1.47-.22a6.48,6.48,0,0,1,3,0,3,3,0,0,1,1.78,2.53,29.13,29.13,0,0,1,.23,2.93q0,2.91-.13,5.82c-.11,1.94-.3,3.86-.47,5.77-.08,1-.14,1.92-.17,2.87a9.75,9.75,0,0,1-.12,1.53,1.82,1.82,0,0,1-.42.88,1.29,1.29,0,0,1-1,.42,2.06,2.06,0,0,1-1.47-1.11,9.77,9.77,0,0,1-.63-1.38c-.35-.91-.68-1.82-1-2.75a37.06,37.06,0,0,1-1.34-5.67l.1,0c.58,1.84,1.22,3.66,1.94,5.44.35.89.73,1.77,1.13,2.64.21.42.4.9.61,1.23s.54.65.71.64.33-.13.42-.53.05-.88.1-1.37c.06-1,.16-1.94.28-2.91.22-1.93.55-3.83.83-5.74A27,27,0,0,0,87,15.11a14.65,14.65,0,0,0-.42-2.82,2.4,2.4,0,0,0-1.5-1.9,7.63,7.63,0,0,0-2.71.11L81,10.66a3.66,3.66,0,0,0-1.28.29.66.66,0,0,0-.33.33c-.08.11,0,.43-.28.75-.54.58-1.13.4-1.53.53a1.47,1.47,0,0,0-.87,2.09Z" transform="translate(-1.42)"/><path d="M87.09,28.45a15.07,15.07,0,0,1,.26,2.06,1.65,1.65,0,0,0,1,1.4c.54.14,1.08-.29,1.54-.76l1.47-1.45,5.89-5.82c2-1.92,4-3.82,5.86-5.85,1-1,1.86-2,2.76-3.09.25-.27.41-.48.23-.69a2.63,2.63,0,0,0-.77-.55,11.88,11.88,0,0,0-1.83-.89c-2.52-1-5.33-1.14-8-1.68-1.35-.21-2.75-.54-4-.63a3.68,3.68,0,0,0-1.77.3A2,2,0,0,0,88.57,12a3.3,3.3,0,0,0,.21,1.77,7.3,7.3,0,0,1,.27,2.17,22.76,22.76,0,0,1-.57,4.18c-.56,2.71-1.15,5.41-1.79,8.11l-.09,0q.51-4.12,1.14-8.22a22.46,22.46,0,0,0,.39-4A8.9,8.9,0,0,0,87.85,14a4.22,4.22,0,0,1-.24-2.29,3.55,3.55,0,0,1,3.88-2.19c1.48.14,2.77.49,4.14.73a43.24,43.24,0,0,1,8.08,2.08,14.42,14.42,0,0,1,1.84,1,3,3,0,0,1,.85.7.68.68,0,0,1,.07.66,2,2,0,0,1-.35.46l-2.77,3.08c-1.85,2.05-3.64,4.17-5.54,6.19s-3.9,3.92-5.94,5.8c-.5.47-1,.92-1.55,1.38a2.33,2.33,0,0,1-2.11.78A2,2,0,0,1,87,30.55c0-.72.09-1.4,0-2.07Z" transform="translate(-1.42)"/><path d="M107.47,18.14a5,5,0,0,0-3.28,1.73l-2.8,2.72c-1.89,1.79-3.8,3.59-5.74,5.31a29.34,29.34,0,0,0-2.76,2.7,17.2,17.2,0,0,0-1.17,1.53,5.56,5.56,0,0,0-.45.81c-.08.3-.08.51.22.46a70.08,70.08,0,0,0,7.75-.85c2.57-.39,5.12-.9,7.67-1.41l3.8-.82a26.36,26.36,0,0,0,3.68-1,3.7,3.7,0,0,0,2.31-2.4c.3-1.09-.45-2.12-1.48-2.83a13.55,13.55,0,0,1-3-2.55,3.33,3.33,0,0,0-1.47-1.07,5.3,5.3,0,0,1-1-.26.91.91,0,0,1-.59-.81h.1a.76.76,0,0,0,.56.63,6.52,6.52,0,0,0,1,.15,3.44,3.44,0,0,1,1.76,1,14.19,14.19,0,0,0,3.1,2.28,5.21,5.21,0,0,1,1.53,1.44,3,3,0,0,1,.42,2.19,4.5,4.5,0,0,1-2.82,3.12,21.66,21.66,0,0,1-3.85,1.05c-1.28.27-2.57.51-3.86.74-2.57.46-5.17.77-7.77,1l-7.81.66a.52.52,0,0,1-.57-.29,1,1,0,0,1,0-.6,7,7,0,0,1,.46-.91,17,17,0,0,1,1.09-1.66,26.46,26.46,0,0,1,2.64-2.95c1.88-1.82,3.83-3.53,5.78-5.27l3-2.56A4.9,4.9,0,0,1,107.48,18Z" transform="translate(-1.42)"/><path d="M93.14,34.64c-.51.09-1.16.32-1.17.77s.55.7,1,1c1,.55,2,1,3,1.55l6,2.94c2,1,3.93,2.15,5.94,3.12s4.26,1.73,6.29.93A4.68,4.68,0,0,0,116.58,43a4.24,4.24,0,0,0,.42-3,13,13,0,0,1-.31-3.45,3.92,3.92,0,0,1,.69-1.73,1.63,1.63,0,0,0,.33-1.24,4.42,4.42,0,0,0-.55-1.39,6.61,6.61,0,0,0-.4-.64.63.63,0,0,0-.41-.26,3.43,3.43,0,0,0-1.44.24c-.55.15-1.1.28-1.66.39a20.35,20.35,0,0,1-6.74.14V32a25,25,0,0,0,6.58-.77c.53-.13,1.06-.29,1.58-.46a4.15,4.15,0,0,1,1.83-.35,1.49,1.49,0,0,1,1,.56,7.59,7.59,0,0,1,.5.77,5,5,0,0,1,.68,1.71,2.61,2.61,0,0,1-.44,1.93,3.33,3.33,0,0,0-.56,1.35,12.3,12.3,0,0,0,.22,3.19,4.82,4.82,0,0,1-.7,3.49,5.38,5.38,0,0,1-2.86,2c-2.32.7-4.59-.24-6.6-1.13s-4.1-1.78-6.14-2.7-4-1.92-6-3c-1-.54-1.93-1.15-2.87-1.77-.41-.3-1.11-.65-1.07-1.43s1-.82,1.48-.84Z" transform="translate(-1.42)"/><path d="M92.61,37.79c4.66,2.2,9.2,4.61,13.66,7.16,2.21,1.34,4.42,2.58,6.61,4a2.52,2.52,0,0,1,1,1.76,2,2,0,0,1-1,1.71c-.51.39-1.07.76-1.21,1.3a5.07,5.07,0,0,0-.06.92,1.46,1.46,0,0,1-.44,1,6.94,6.94,0,0,1-1.78.93,11.88,11.88,0,0,0-1.57,1,7.25,7.25,0,0,1-1.77,1,4.13,4.13,0,0,1-2.12.13,6.71,6.71,0,0,1-3.53-2,29.42,29.42,0,0,1-2.47-3,42.89,42.89,0,0,1-6.72-13.91l.09,0a60.77,60.77,0,0,0,7.43,13.36c1.55,2,3,4.28,5.37,4.79a4.16,4.16,0,0,0,3.31-.86,12.41,12.41,0,0,1,1.72-1,6.94,6.94,0,0,0,1.68-.73c.45-.32.27-.94.47-1.68a3.42,3.42,0,0,1,1.39-1.45,1.72,1.72,0,0,0,.92-1.43,2,2,0,0,0-.86-1.51,25.65,25.65,0,0,0-3.35-1.84l-3.43-1.76Q99.1,42,92.57,37.87Z" transform="translate(-1.42)"/><path d="M91.32,38.74c.06.38.2.42.1.54s-.21.16-.22.26.08.17.19.2c.45.1.67.19.72.94l0,.08A.75.75,0,0,1,90.93,40a.7.7,0,0,0,0-.39,3.12,3.12,0,0,1-.27-.38.5.5,0,0,1,.64-.57Z" transform="translate(-1.42)"/><path d="M88.57,40.3c-1.35.26-1.92,1.68-2.17,2.89a18.86,18.86,0,0,0-.24,3.91,37.81,37.81,0,0,0,.27,4c.14,1.33.21,2.65.32,4,.17,2.65.25,5.32.47,8,0,.65.07,1.38.63,1.65a2.23,2.23,0,0,0,1.8-.1,6.23,6.23,0,0,0,1.65-1,2.5,2.5,0,0,1,1.9-.93c.74,0,1.36.33,1.94.3a3.2,3.2,0,0,0,1.63-.72,11,11,0,0,1,1.71-1.12c.27-.14.6-.27.81-.41a1.56,1.56,0,0,0,.44-.64A3.61,3.61,0,0,0,99,56.72a37.06,37.06,0,0,0-2.55-3,10.56,10.56,0,0,1-1.92-3.66A24,24,0,0,0,93,46.48c-.64-1.15-1.32-2.29-2-3.41l-1.07-1.68c-.35-.5-.88-1.08-1.52-.89l0-.09c.72-.29,1.39.31,1.8.79s.83,1,1.23,1.59c.8,1.08,1.59,2.16,2.29,3.32a25.11,25.11,0,0,1,1.84,3.62,10.35,10.35,0,0,0,1.81,3.36,29,29,0,0,1,2.63,3.08,4.58,4.58,0,0,1,.68,4.23,2.39,2.39,0,0,1-.72,1,6.89,6.89,0,0,1-1,.49,10.69,10.69,0,0,0-1.68,1,3.71,3.71,0,0,1-2,.74,17.69,17.69,0,0,1-2-.41c-.6-.1-1.06.29-1.6.73a8,8,0,0,1-1.78,1,2.57,2.57,0,0,1-2.07,0c-.72-.39-.77-1.27-.82-1.87-.25-2.66-.64-5.3-.93-8a73.79,73.79,0,0,1-.54-8,17.84,17.84,0,0,1,.49-4,5.18,5.18,0,0,1,.9-1.86,2.34,2.34,0,0,1,1.75-1Z" transform="translate(-1.42)"/><path d="M74.63,53.27c-.68,1.52-1.31,3.19-.79,4.67a2.78,2.78,0,0,0,1.44,1.65c.73.39,1.46.84,2.19,1.26,1.46.84,2.77,2,4.4,2.28a2.85,2.85,0,0,0,2.29-.52,3.34,3.34,0,0,0,1.11-2.06,32.38,32.38,0,0,0-.15-5c-.09-1.69-.18-3.38-.24-5.06a77.22,77.22,0,0,0-.91-10l.1,0a34.86,34.86,0,0,1,1.8,10c.12,1.7.13,3.39.16,5.08a22.27,22.27,0,0,1-.25,5.13,4.1,4.1,0,0,1-1.42,2.22,3.61,3.61,0,0,1-2.53.58,16.62,16.62,0,0,1-4.75-1.92c-.75-.41-1.49-.78-2.23-1.23a3.59,3.59,0,0,1-1.72-2.16c-.48-1.87.45-3.59,1.42-4.93Z" transform="translate(-1.42)"/><path d="M78.16,37.88c-4.3,2.61-8.71,5-13.19,7.29a7.56,7.56,0,0,0-3,2c-.68.89-.74,2.45.34,3a8.93,8.93,0,0,0,1.8.55,1.1,1.1,0,0,1,.29,1,3,3,0,0,0,.08.89,4.42,4.42,0,0,0,2.3,2.65c1.07.59,2.23,1.17,3.24.58a6.14,6.14,0,0,0,2.42-2.5c.63-1.1,1.2-2.2,1.88-3.29a29.55,29.55,0,0,1,2.41-3,16.1,16.1,0,0,0,3.67-6.3L81,39.05c.13-.59.43-1.28.3-1.67s-1-.24-1.51-.19a5.53,5.53,0,0,0-1.75.57L78,37.68a5.57,5.57,0,0,1,1.74-.78,5.35,5.35,0,0,1,1-.16,1,1,0,0,1,1,.43,1.73,1.73,0,0,1,.06,1.09l-.18.93c-.12.62-.25,1.24-.42,1.86a17.7,17.7,0,0,1-1.38,3.6,17.76,17.76,0,0,1-2.26,3.12c-.83,1-1.64,1.9-2.34,2.88s-1.29,2.15-1.94,3.21a6.37,6.37,0,0,1-2.88,2.69,2.87,2.87,0,0,1-2.08.09,8.41,8.41,0,0,1-1.74-.9,5.06,5.06,0,0,1-2.35-3c-.22-.61.12-1.44-.21-1.72a8.82,8.82,0,0,1-1.8-.5,2.09,2.09,0,0,1-1.06-1.66,3,3,0,0,1,.44-2,7.94,7.94,0,0,1,3-2.42c4.42-2.39,8.91-4.63,13.52-6.68Z" transform="translate(-1.42)"/><path d="M56.17,34.57a2.47,2.47,0,0,0,.51,3,4.14,4.14,0,0,0,.63.55,1.21,1.21,0,0,1,.66.89,1.76,1.76,0,0,1-.45,1c-.16.24-.32.47-.45.7a1.78,1.78,0,0,0-.25,1.4,2.67,2.67,0,0,0,1,1.12,4,4,0,0,0,3,.72A11.44,11.44,0,0,0,64,42.83l3.21-1.5,6.4-3c2.16-1,4.34-1.9,6.42-2.87.55-.17.93-.64.86-.72s-.48-.29-1.08-.33c-1.15-.13-2.31-.24-3.47-.3-4.69-.19-9.41-.44-14.11-.89v-.09c4.73-.15,9.43-.17,14.15,0A35.34,35.34,0,0,1,80,33.4a5,5,0,0,1,1,.2,1.28,1.28,0,0,1,.92.95,1.31,1.31,0,0,1-.52,1.2,2.77,2.77,0,0,1-.85.49c-2.21,1-4.45,1.71-6.63,2.56a64,64,0,0,0-6.47,2.83c-1,.52-2.08,1.08-3.1,1.67A11.22,11.22,0,0,1,61,44.75a4.61,4.61,0,0,1-3.66-.82,3.42,3.42,0,0,1-1.23-1.57,2.54,2.54,0,0,1,.37-2c.26-.52.88-1.08.9-1.31s-.71-.65-1-1.12a2.65,2.65,0,0,1-.2-3.43Z" transform="translate(-1.42)"/><path d="M63.91,22.53a1.23,1.23,0,0,1-.93.15,1.24,1.24,0,0,0-.44-.23.57.57,0,0,0-.41.18,2.09,2.09,0,0,1-1.59.79l-.08-.05A1.22,1.22,0,0,1,62,22.12a1.16,1.16,0,0,0,.52,0c.16-.05.33-.2.51-.26a.83.83,0,0,1,.92.56Z" transform="translate(-1.42)"/><path d="M57.37,32.37c.2-.31.39-.41.56-.32s.17.22.26.26.18,0,.28-.09c.38-.32.74-.34,1.06.27v.1c-.4.57-.75.51-1.1.15-.08-.09-.17-.15-.26-.12s-.19.16-.28.22-.36-.05-.52-.38Z" transform="translate(-1.42)"/><path d="M57.82,35c1.73-.15,3.4-.29,5.1-.33.85,0,1.72.07,2.58,0a22.34,22.34,0,0,0,2.55-.36A14.69,14.69,0,0,1,70.61,34c.86,0,1.72-.1,2.58-.1a34.36,34.36,0,0,1,5.16.38v.09a33.24,33.24,0,0,1-5.12.55c-1.71.06-3.42-.09-5.14-.07a18.23,18.23,0,0,0-2.56.14c-.85.12-1.7.34-2.55.47a12.91,12.91,0,0,1-5.17-.38Z" transform="translate(-1.42)"/><path d="M57.05,36.8a1.47,1.47,0,0,0,1.38.78,5.56,5.56,0,0,0,1.68-.41,8.41,8.41,0,0,1,2-.42c.67-.06,1.33,0,2-.11,1.19-.2,2.33-.84,3.64-1.14a11.35,11.35,0,0,1,3.94-.22v.1c-1.25.42-2.48.75-3.7,1.11a12,12,0,0,1-3.88.68,7.07,7.07,0,0,0-1.93-.11,5.52,5.52,0,0,0-1.68.84,3.27,3.27,0,0,1-2.07.42A1.57,1.57,0,0,1,57,36.81Z" transform="translate(-1.42)"/><path d="M58,41.29a5.8,5.8,0,0,1,3-1.62c.57-.1,1.15-.1,1.7-.22a7.05,7.05,0,0,0,1.59-.58,25.35,25.35,0,0,1,6.29-2.44l0,.08a12.41,12.41,0,0,1-6.17,2.86,12.54,12.54,0,0,0-1.66.38c-.54.19-1.05.46-1.57.68-1.06.39-2.09.64-3.22.94Z" transform="translate(-1.42)"/><path d="M61.28,41.7a4.27,4.27,0,0,0,2.39-.77c.88-.33,1.77-.77,2.72-1,.47-.14.94-.22,1.35-.32A11.15,11.15,0,0,0,69,39.14a4.66,4.66,0,0,1,2.85-.38v.1c-.9.32-1.58.82-2.46,1.23a5.19,5.19,0,0,1-2.89.33,2.23,2.23,0,0,0-1.3.25,10,10,0,0,0-1.05.93c-.7.59-2.07,1-2.86.19Z" transform="translate(-1.42)"/><path d="M63.77,48.65A15.22,15.22,0,0,0,65.42,47a3.72,3.72,0,0,1,2.23-1.13,4.93,4.93,0,0,0,2.16-.64,5.17,5.17,0,0,0,1.51-1.73A6,6,0,0,1,73,41.66l1.91-1.38A29.25,29.25,0,0,1,79,37.92L79,38a28.7,28.7,0,0,1-3.57,3.12,18.38,18.38,0,0,1-2,1.28,9,9,0,0,0-1.74,1.42,9.14,9.14,0,0,1-3.89,2.82,4.9,4.9,0,0,0-1.94.92,5.72,5.72,0,0,1-2.09,1.17Z" transform="translate(-1.42)"/><path d="M66.26,49.65a3.46,3.46,0,0,0,.88-.73c.22-.22.34-.62.87-.93s1,0,1.39,0a1.06,1.06,0,0,0,.86-.6,4.13,4.13,0,0,0,.36-1,1.37,1.37,0,0,1,.45-.77,3.2,3.2,0,0,1,.71-.26,7.86,7.86,0,0,0,1.94-1.12l.08.06a3,3,0,0,1-1.7,2,2.37,2.37,0,0,1-.45.11s-.11.07-.18.25a2.47,2.47,0,0,1-.82,1.09,2.78,2.78,0,0,1-1.22.56c-.43.07-.88.16-1,.36a4.4,4.4,0,0,1-.82.82,1.72,1.72,0,0,1-1.33.25Z" transform="translate(-1.42)"/><path d="M68.08,52.94A3.87,3.87,0,0,1,69,51a3.69,3.69,0,0,1,2-.9,3.1,3.1,0,0,0,1.72-.77A11.35,11.35,0,0,0,74,47.71c.81-1.26,2.25-1.83,3.23-2.56a18.14,18.14,0,0,0,3-2.59l.09,0A7.31,7.31,0,0,1,77.8,46c-1.21.86-2.48,1.19-3.44,2.08A16.5,16.5,0,0,0,73,49.54a4.27,4.27,0,0,1-1.71,1.33,6.71,6.71,0,0,0-1.74.69A8.35,8.35,0,0,0,68.17,53Z" transform="translate(-1.42)"/><path d="M74.15,45.45a2.85,2.85,0,0,1,1.62-2.07A11.54,11.54,0,0,0,77,42.9a2.53,2.53,0,0,0,.87-.85c.42-.69.68-1.43,1.12-2.2A7.47,7.47,0,0,1,80.85,38l.08.06a10.93,10.93,0,0,1-1.09,2.28,5.8,5.8,0,0,1-1.62,2c-.37.27-.74.49-1.08.75s-.62.61-.93.89c-.66.53-1.31.85-2,1.44Z" transform="translate(-1.42)"/><path d="M58.74,28.06a7.73,7.73,0,0,1,2.21.21,2.59,2.59,0,0,0,1.06.19,3.1,3.1,0,0,0,1-.45,1.58,1.58,0,0,1,1.36,0l1,.4a18.63,18.63,0,0,0,2,.73v.09a3.34,3.34,0,0,1-2.41.15,4.92,4.92,0,0,1-1-.55,1.33,1.33,0,0,0-.83-.27c-.72,0-1.48.46-2.31.55a3.24,3.24,0,0,1-2.17-.92Z" transform="translate(-1.42)"/><path d="M59.79,25.54a1.13,1.13,0,0,1,1.06-.35c.18.06.36.2.56.26s.37.08.59.1a3.16,3.16,0,0,1,1.91.63v.1a1.36,1.36,0,0,1-1.17.41,1.59,1.59,0,0,1-1-.68c-.09-.14-.22-.29-.39-.25a2.38,2.38,0,0,0-.51.22,1.16,1.16,0,0,1-1.06-.35Z" transform="translate(-1.42)"/><path d="M68.83,29.31a2.31,2.31,0,0,0,1.28.45,1.91,1.91,0,0,0,.59-.08,1.6,1.6,0,0,1,.93-.1c.77.29.85.93,1.16,1.29a1.48,1.48,0,0,0,1.25.54c.49,0,1-.08,1.52-.05a3.68,3.68,0,0,1,1.63.41A12,12,0,0,0,79.8,33.2v.1c-1.1.39-2.22-.27-3.06-.61a4.85,4.85,0,0,0-1.28-.44A8.33,8.33,0,0,1,74,31.92a3.12,3.12,0,0,1-1.39-.85c-.35-.37-.81-.75-1.08-.7a3.32,3.32,0,0,1-1.49.12,1.73,1.73,0,0,1-1.24-1.13Z" transform="translate(-1.42)"/><path d="M66.66,31.66a5.21,5.21,0,0,1,1.87-.24,7,7,0,0,1,2,.44,14.65,14.65,0,0,0,1.69.48,6,6,0,0,0,1.74.28l0,.09a2.17,2.17,0,0,1-2,.64,3.23,3.23,0,0,1-1.78-1.06c-.21-.22-.4-.49-.7-.42s-.6.26-.93.34a2.42,2.42,0,0,1-1.93-.45Z" transform="translate(-1.42)"/><path d="M66.28,18.67a1.73,1.73,0,0,1,2,.81,4.6,4.6,0,0,1,.13,1.1c0,.31.25.61.49.64a5,5,0,0,1,1,0,1.85,1.85,0,0,1,1,.73,5,5,0,0,1,.77,1.92L71.6,24a6,6,0,0,1-1.5-1.34,2,2,0,0,0-.51-.5,3.75,3.75,0,0,1-1-.45,2.23,2.23,0,0,1-.52-1,2.3,2.3,0,0,0-.51-.78,14.45,14.45,0,0,0-1.35-1.12Z" transform="translate(-1.42)"/><path d="M70,18.62a4.49,4.49,0,0,1,2.94,3.46,5,5,0,0,0,.56,2.08,6.79,6.79,0,0,0,1.78,1.33A8.47,8.47,0,0,1,76.9,27.1l1.46,1.67c.94,1.13,1.91,2.24,2.84,3.45l-.06.08a15.34,15.34,0,0,1-3.55-2.85c-1-1.11-1.79-2.5-2.69-3.56-.49-.53-1.16-.94-1.68-1.54a6.5,6.5,0,0,1-1.09-2.06,7.88,7.88,0,0,0-2.22-3.59Z" transform="translate(-1.42)"/><path d="M72.17,17.57A8.15,8.15,0,0,1,74,19.68a12.42,12.42,0,0,0,.64,1.26,5.1,5.1,0,0,0,1,1,15.7,15.7,0,0,1,3.72,4.14l-.06.07a9,9,0,0,1-4.07-3.87,6.64,6.64,0,0,0-.8-1.16c-.31-.35-.7-.64-1-1a5.94,5.94,0,0,1-1.27-2.53Z" transform="translate(-1.42)"/><path d="M79.1,15.49a.92.92,0,0,1,.62.77,3.1,3.1,0,0,0-.09.5.73.73,0,0,0,.24.41A1.39,1.39,0,0,1,80.24,19l-.09,0a1.42,1.42,0,0,1-.78-1.69.68.68,0,0,0,0-.47c-.08-.14-.26-.24-.37-.37a.92.92,0,0,1,.05-1Z" transform="translate(-1.42)"/><path d="M80.83,12.77c.24,1.55,1,2.84,1.37,4.39a10.78,10.78,0,0,1,.22,2.4,9.19,9.19,0,0,0,.08,2.3,28.57,28.57,0,0,1,1.41,4.45A20.07,20.07,0,0,1,84.12,31H84c-.48-1.51-.78-3-1.12-4.52-.16-.75-.29-1.5-.47-2.24A11.29,11.29,0,0,1,82,21.93c0-.84.18-1.6.13-2.36a7.59,7.59,0,0,0-.67-2.17,7.79,7.79,0,0,1-.7-4.64Z" transform="translate(-1.42)"/><path d="M83.05,12.71c.25.87.63,1.54.85,2.4.08.44.1.9.17,1.35s.18.87.23,1.35a11.57,11.57,0,0,1,0,1.31,5.17,5.17,0,0,0,.2,1.13,4,4,0,0,1,0,2.69h-.09a21.31,21.31,0,0,0-.87-2.42,3.38,3.38,0,0,1-.11-1.46,6.93,6.93,0,0,1,.37-1.28,2.27,2.27,0,0,0,0-1.24,7.52,7.52,0,0,0-.62-1.15A3.28,3.28,0,0,1,83,12.7Z" transform="translate(-1.42)"/><path d="M92,13.39c-.69,1.33-1.37,2.53-.88,3.75a4,4,0,0,1,.19,2.27,12.83,12.83,0,0,1-1,1.95,2.18,2.18,0,0,0-.14,1.83,4.69,4.69,0,0,1,.16,2.33,28.88,28.88,0,0,1-1.6,4.1h-.09c-.09-1.51.51-2.95.68-4.26a4.85,4.85,0,0,0,0-2,2.87,2.87,0,0,1,0-1.24,2.59,2.59,0,0,1,.58-1.06A4.64,4.64,0,0,0,91,19.33c.15-.68-.31-1.24-.64-1.91A2.65,2.65,0,0,1,90.45,15a5.12,5.12,0,0,1,1.49-1.7Z" transform="translate(-1.42)"/><path d="M95.05,12.21a8.54,8.54,0,0,1-1.28,2.51,1.43,1.43,0,0,0-.2,1.21c.12.45.42.84.57,1.38a2.18,2.18,0,0,1-.28,1.61,3.84,3.84,0,0,0-.37,1.21c-.2.81-.28,2.06-1.19,2.69l-.08-.06a12.51,12.51,0,0,0,.26-2.8,3.27,3.27,0,0,1,.6-1.49,2.45,2.45,0,0,0,.54-1.1A2.88,2.88,0,0,0,93.27,16a2.33,2.33,0,0,1-.25-1.6c.39-1.12,1.25-1.58,1.94-2.26Z" transform="translate(-1.42)"/><path d="M99.5,12.45c-1,1.15-2,2.13-2,3.47a5.63,5.63,0,0,1-.67,2.19,8.18,8.18,0,0,0-.91,2c-.16.69-.21,1.42-.43,2.17a3.92,3.92,0,0,1-1.3,2,11.83,11.83,0,0,0-1.59,1.37,3.87,3.87,0,0,0-.79,1.9h-.09a3.08,3.08,0,0,1,.25-2.31,6.87,6.87,0,0,1,1.54-1.73A3.78,3.78,0,0,0,94.59,22a20,20,0,0,1,.79-2.06c.34-.71.83-1.27,1.12-1.93a4.38,4.38,0,0,0,.16-2.11,3.07,3.07,0,0,1,.89-2.23,6,6,0,0,1,1.9-1.27Z" transform="translate(-1.42)"/><path d="M94.23,25.67a4.67,4.67,0,0,1,2.25-3.25,17.06,17.06,0,0,1,1.86-.7,3.4,3.4,0,0,0,1.48-1.09,12.38,12.38,0,0,0,.81-1.67,5.44,5.44,0,0,1,1.23-1.67,8.5,8.5,0,0,1,3.58-1.72l0,.09c-1,.85-2.08,1.54-2.92,2.39a6.74,6.74,0,0,0-1.14,1.35A5.78,5.78,0,0,1,100.2,21a9.27,9.27,0,0,1-1.73,1,8.41,8.41,0,0,0-1.55,1.09,14.28,14.28,0,0,0-2.6,2.61Z" transform="translate(-1.42)"/><path d="M97.32,19.68A6.9,6.9,0,0,1,98.94,18a3.94,3.94,0,0,0,.93-.69,1.9,1.9,0,0,0,.41-1,5.18,5.18,0,0,1,.15-.67,1.18,1.18,0,0,1,.49-.58,10.72,10.72,0,0,1,1-.68,7.64,7.64,0,0,1,2.26-.84l0,.08a7.81,7.81,0,0,1-1.78,1.63,7.94,7.94,0,0,1-1,.57c-.33.12-.36.31-.62.66l-.66,1.05a11,11,0,0,1-.63,1.09,3.76,3.76,0,0,1-2.12,1.19Z" transform="translate(-1.42)"/><path d="M91.43,32.58a4.06,4.06,0,0,1,2.94-2.06c.62,0,1.2.09,1.77,0a3.79,3.79,0,0,0,1.56-.62A12,12,0,0,0,99,28.86a4.93,4.93,0,0,1,1.53-1.1c1.24-.46,2.34-.3,3.43-.73l.06.07c-.82,1-2.21,1.16-3.09,1.6s-1.76,1.38-3,1.69-2.35.57-3.42.91a13.86,13.86,0,0,0-3,1.35Z" transform="translate(-1.42)"/><path d="M95.76,28.61c.76-.63,1.45-1.16,2.2-1.67a4.49,4.49,0,0,1,1.43-.56,7.29,7.29,0,0,0,1.39-.27,12.33,12.33,0,0,0,2.21-1.5,3.28,3.28,0,0,1,2.9-.62v.1a6.15,6.15,0,0,0-2.29,1.35,5,5,0,0,1-2.72,1.19,6,6,0,0,0-1.42.05c-.43.1-.67.61-1,.87a4,4,0,0,1-2.68,1.15Z" transform="translate(-1.42)"/><path d="M99.82,30.78a5.47,5.47,0,0,1,1.54-1.16,8.67,8.67,0,0,1,1-.38,7.29,7.29,0,0,0,1-.14,3.19,3.19,0,0,0,.66-.5,2.71,2.71,0,0,1,.44-.34.9.9,0,0,1,.4-.14l.32,0,.44.08a1.79,1.79,0,0,0,.41,0l1-.07,0,.08a2.64,2.64,0,0,1-.82.7,2.46,2.46,0,0,1-.56.19,2.68,2.68,0,0,1-.54,0c-.19-.25-.86.59-1.73.47-.39-.06-.69-.2-1-.09s-.34.45-.61.73a2.6,2.6,0,0,1-2,.6Z" transform="translate(-1.42)"/><path d="M106.13,26.14c.6.1.64-.28,1.2-.56.28-.11.54-.18.85-.31a1.25,1.25,0,0,1,1-.13c.3,0,.35-.07.58-.17a6.52,6.52,0,0,1,.75-.35,4.16,4.16,0,0,1,1.74-.18l0,.09a4.1,4.1,0,0,1-1.4,1,5.81,5.81,0,0,1-.83.25,1.21,1.21,0,0,1-1.06-.2c-.46-.53-.81.12-1.14.59a1.49,1.49,0,0,1-.83.48.76.76,0,0,1-.93-.5Z" transform="translate(-1.42)"/><path d="M104.55,30.65c.92-.38,1.62-.88,2.51-1.26.46-.17.94-.29,1.41-.47a2.3,2.3,0,0,1,1.56-.15,2.19,2.19,0,0,0,1.2.11,4.91,4.91,0,0,0,1.08-.62,4.33,4.33,0,0,1,2.92-.76l0,.1a12.67,12.67,0,0,0-2.36,1.5,3.41,3.41,0,0,1-1.49.66,2.11,2.11,0,0,1-1.57-.5,1.1,1.1,0,0,0-1.23-.06,11.57,11.57,0,0,0-1.16.89,3.63,3.63,0,0,1-2.89.65Z" transform="translate(-1.42)"/><path d="M99,24.19a14.61,14.61,0,0,1,2.84-.79,4.91,4.91,0,0,0,1.41-.33,2.5,2.5,0,0,0,1-1,5,5,0,0,1,.82-1.35,1.55,1.55,0,0,1,.86-.46c.26,0,.59,0,.79-.06.71,0,1.76-.82,2.87-.47v.1c-1,.24-1.45,1.14-2.75,1.39a4.23,4.23,0,0,1-.7,0,.64.64,0,0,0-.46.15c-.3.23-.61.65-1,1a10.63,10.63,0,0,1-1.26.92,9.73,9.73,0,0,1-1.34.84,5.32,5.32,0,0,1-3.06.12Z" transform="translate(-1.42)"/><path d="M93.22,35.11c.61.62,1.28,1.28,2,1.22s1.36-.74,2.53-.66a1.91,1.91,0,0,1,1.28.87,9.91,9.91,0,0,1,.61,1.22c.33.74,1.05,1.52,1.78,1.26a5,5,0,0,1,1.33-.41,1.14,1.14,0,0,1,.88.45,3.27,3.27,0,0,1,.34.68c.2.56.93.51,1.9.57a2.7,2.7,0,0,1,1.43.61,6.82,6.82,0,0,1,.93,1,3.26,3.26,0,0,0,1.89,1.52v.09a3,3,0,0,1-2.44-1.11,3,3,0,0,0-1.92-1.13,6.84,6.84,0,0,1-1.37-.15,1.74,1.74,0,0,1-1.26-1.11c-.18-.51-.19-.65-.42-.7a8.35,8.35,0,0,0-1.21.17,1.63,1.63,0,0,1-1.35-.53,5,5,0,0,1-.79-1.11c-.4-.75-1-1.49-1.67-1.43s-1.37.65-2.5.61a2.75,2.75,0,0,1-2-1.91Z" transform="translate(-1.42)"/><path d="M95.58,33.72c.08.35.46.38.78.4s.73-.07,1.09-.07a6,6,0,0,1,2.37.19c.92.5,1,1.4,1.41,2a1.68,1.68,0,0,0,1.87.57,3.83,3.83,0,0,1,2.44,0,2.76,2.76,0,0,1,.95.9,1.09,1.09,0,0,0,.69.34,9.66,9.66,0,0,1,4.06,2.12l0,.08A32.7,32.7,0,0,0,106.94,39a2,2,0,0,1-1.24-.71c-.28-.41-.34-.58-.58-.72a4.49,4.49,0,0,0-2-.28,2.61,2.61,0,0,1-2.14-.91c-.48-.6-.93-1.3-1.47-1.41s-1.37-.08-2.09-.19a8.51,8.51,0,0,1-1.15-.18c-.36-.08-.93-.41-.8-.9Z" transform="translate(-1.42)"/><path d="M103.84,34.83c1.06.48,2.1.11,3.33.32s2.1,1.41,3.12,1.66c.51.12,1.08.09,1.72.29a8.72,8.72,0,0,1,1.59.79,2.13,2.13,0,0,0,1.38.34,3,3,0,0,1,1.79.26l0,.09a5.16,5.16,0,0,0-1.63.39,2.56,2.56,0,0,1-2-.17c-.57-.29-1-.66-1.44-.86a11.79,11.79,0,0,1-1.61-.65c-.55-.33-.93-.79-1.41-1.08a2.74,2.74,0,0,0-1.57-.27,8.65,8.65,0,0,1-1.73-.11,2.33,2.33,0,0,1-1.59-.92Z" transform="translate(-1.42)"/><path d="M109.8,42.07a6.69,6.69,0,0,1,2.48.73,8.29,8.29,0,0,0,1.12.64,3.33,3.33,0,0,0,1.25.18,6.55,6.55,0,0,0,1.15-.13c.15-.05.15-.11.12-.09s0,0-.08-.09a2.66,2.66,0,0,0-2-.8l0-.09a2.15,2.15,0,0,1,2.8.22,1.07,1.07,0,0,1,.25,1.09,1,1,0,0,1-.86.64,3,3,0,0,1-1.43-.23,9.69,9.69,0,0,0-1.26-.4c-.43-.09-.88-.1-1.32-.2a5,5,0,0,1-2.23-1.38Z" transform="translate(-1.42)"/><path d="M107.18,33.62c.9-.09,1.67-.16,2.47-.21s1.76-.16,2.65-.08a6.32,6.32,0,0,0,2.37-.3,3.16,3.16,0,0,1,2.66.33l0,.09a7.47,7.47,0,0,0-2.39.58,3.72,3.72,0,0,1-2.72-.19,1.78,1.78,0,0,0-1.19-.17c-.4.11-.77.39-1.22.53a3.16,3.16,0,0,1-2.63-.49Z" transform="translate(-1.42)"/><path d="M82.38,41.42c-.37.15-.23.35-.49.35a.73.73,0,0,0-.41,0,.44.44,0,0,0-.19.35,1.2,1.2,0,0,1-1.05,1.16l-.08,0a1,1,0,0,1,.74-1.47.65.65,0,0,0,.36-.23,3,3,0,0,1,.21-.47.57.57,0,0,1,.52-.18c.21,0,.48.19.46.43Z" transform="translate(-1.42)"/><path d="M81,43.47a30.5,30.5,0,0,0-1.47,3.43A7,7,0,0,0,79,48.69a5.25,5.25,0,0,1-.47,2c-.33.63-.81,1.08-1.09,1.56a6.51,6.51,0,0,0-.64,1.62c-.34,1.15-.45,2.41-.73,3.7H76a8.48,8.48,0,0,1-.17-4,5,5,0,0,1,.89-1.88,12.4,12.4,0,0,1,1.4-1.35c.88-.89.45-2.37.69-3.67A5.4,5.4,0,0,1,81,43.41Z" transform="translate(-1.42)"/><path d="M81.16,46.77a22,22,0,0,0-.65,3.7c-.32,1.27-.69,2.54-1.05,3.79a10.16,10.16,0,0,0-.72,3.59,5.46,5.46,0,0,1-.4,2A3.32,3.32,0,0,1,77,61.37l-.06-.07a5,5,0,0,0,.82-3.46,5.53,5.53,0,0,1,.35-2A9.17,9.17,0,0,1,79,54.05a4.93,4.93,0,0,0,.71-1.75,12.14,12.14,0,0,0,0-1.91,5.15,5.15,0,0,1,1.36-3.67Z" transform="translate(-1.42)"/><path d="M78.35,61.81a13.77,13.77,0,0,1,.78-1.9c.15-.29.33-.61.48-.88a1.24,1.24,0,0,0,.18-.71A6.18,6.18,0,0,1,80,56.23c.16-.68.36-1.33.55-2,.11-.33.2-.66.33-1a1.9,1.9,0,0,1,.72-1,1.18,1.18,0,0,1,1.52.29,1.69,1.69,0,0,1,.33,1.33,9.51,9.51,0,0,1-1.69,3.82l-.09,0c.28-1.34.6-2.68.77-3.89.07-.54-.21-.82-.39-.73s-.66.9-1,1.43a5.08,5.08,0,0,0-.73,1.85,4.2,4.2,0,0,0,.24,1.94,1.67,1.67,0,0,1-.24,1.22c-.2.31-.38.57-.58.85a12.28,12.28,0,0,1-1.34,1.56Z" transform="translate(-1.42)"/><path d="M81.82,62.49A1.53,1.53,0,0,1,82.06,61c.17-.18.4-.32.55-.5a1.51,1.51,0,0,0,.25-.66,5.25,5.25,0,0,1,1-2.48H84a1.89,1.89,0,0,1,.18,1.53,2.71,2.71,0,0,1-.84,1.21,1.53,1.53,0,0,0-.44.55,4.33,4.33,0,0,0-.12.72,2.29,2.29,0,0,1-.84,1.1Z" transform="translate(-1.42)"/><path d="M83.24,41.94a3,3,0,0,1,.39,2.19c-.1.36-.28.71-.36,1.06a3.61,3.61,0,0,0,0,1.09,13.2,13.2,0,0,1-.32,4.24l-.09,0a4.69,4.69,0,0,1-.11-4.34A3.5,3.5,0,0,0,83,45.15a7.78,7.78,0,0,0-.14-1.08A6.39,6.39,0,0,1,83.15,42Z" transform="translate(-1.42)"/><path d="M87.8,41.63a9.4,9.4,0,0,0-.12,5.55A26.39,26.39,0,0,1,89,53a26.65,26.65,0,0,1,0,3,7.78,7.78,0,0,0,.46,2.72,9.94,9.94,0,0,1,.09,6l-.09,0a16.21,16.21,0,0,0-1-5.64,7,7,0,0,1-.38-3.06c.08-1,.26-2,.36-2.92a6.44,6.44,0,0,0-.27-2.86c-.33-.91-.89-1.72-1.28-2.67a6.19,6.19,0,0,1,.79-5.85Z" transform="translate(-1.42)"/><path d="M89.59,45c0,1.46-.09,2.86.65,3.86a7,7,0,0,1,1.64,4c0,.76-.12,1.48-.15,2.13a10.65,10.65,0,0,0,.19,2,8.21,8.21,0,0,1-.1,4.34l-.09,0a23.43,23.43,0,0,0-.82-4.15,7.09,7.09,0,0,1-.08-2.26c.11-.77.38-1.42.53-2.09a2.82,2.82,0,0,0-.27-2c-.32-.62-.93-.94-1.48-1.51a3,3,0,0,1-.71-2.23,5.93,5.93,0,0,1,.6-2.14Z" transform="translate(-1.42)"/><path d="M91,45.52c.26.74.51,1.3.75,1.9a3.59,3.59,0,0,0,.41,1,9.69,9.69,0,0,0,.76.85,3.43,3.43,0,0,1,.76,2.21c0,.76-.13,1.4-.19,2.17l-.09,0a3.8,3.8,0,0,1-.74-2.15,8.7,8.7,0,0,0-.2-2,2.3,2.3,0,0,0-.54-.91,8.88,8.88,0,0,1-.87-.79,2.2,2.2,0,0,1-.14-2.3Z" transform="translate(-1.42)"/><path d="M94.62,57.54a1.84,1.84,0,0,1,.23,1.24,1.36,1.36,0,0,0-.14.6,1.21,1.21,0,0,0,.34.54,2.31,2.31,0,0,1,.53,2.5l-.09,0a2.53,2.53,0,0,1-.78-1.07,6.88,6.88,0,0,1-.16-1.28c.06-.47-.29-.79-.49-1.28a1.35,1.35,0,0,1,.47-1.29Z" transform="translate(-1.42)"/><path d="M96,55.06a9.51,9.51,0,0,1,.48,1.64,3.9,3.9,0,0,0,.06.9,2.38,2.38,0,0,0,.44.79,4.1,4.1,0,0,1,.75,1.66,4.54,4.54,0,0,1,0,1.87l-.09,0a4.8,4.8,0,0,1-.88-1.6,13.81,13.81,0,0,1-.25-1.76,2.75,2.75,0,0,0-.24-.86c-.15-.27-.38-.5-.54-.79a1.83,1.83,0,0,1,.19-1.88Z" transform="translate(-1.42)"/><path d="M91.82,40.33c.93.93,2.17,1.25,3.17,2.31a3.88,3.88,0,0,1,.85,1.91,9.78,9.78,0,0,0,.53,1.88,18.3,18.3,0,0,0,2.12,3.15,7.31,7.31,0,0,1,1.56,3.69l-.1,0a21.5,21.5,0,0,0-2.28-3.1,8.49,8.49,0,0,1-1.8-3.61,14.53,14.53,0,0,0-.33-1.94,2.78,2.78,0,0,0-1.1-1.43c-.87-.74-2.25-1.45-2.7-2.83Z" transform="translate(-1.42)"/><path d="M92.35,39.46a3.2,3.2,0,0,1,2.4,1.15c.28.35.47.77.72,1.12a6.22,6.22,0,0,0,.9,1,13.17,13.17,0,0,1,1.76,1.9,4.66,4.66,0,0,1,.93,2.51l-.09,0L97.31,45.2A12.27,12.27,0,0,1,96,43a4.1,4.1,0,0,0-.71-1.06,6.45,6.45,0,0,0-1-.76c-.65-.51-1.2-1-1.89-1.63Z" transform="translate(-1.42)"/><path d="M101,47.7A3.32,3.32,0,0,1,102.72,49c.17.31.28.67.45,1a6.22,6.22,0,0,0,.64.84,6.72,6.72,0,0,1,1,1.77,3.81,3.81,0,0,0,1,1.59l0,.09A2,2,0,0,1,103.91,53a9.93,9.93,0,0,1-.57-2,2.17,2.17,0,0,0-.42-.91,5,5,0,0,0-.81-.63A4.25,4.25,0,0,1,101,47.77Z" transform="translate(-1.42)"/><path d="M101.39,52.55a2.66,2.66,0,0,1,1.44,1,8.37,8.37,0,0,0,.41.79,2.38,2.38,0,0,0,.67.55,6.59,6.59,0,0,1,1.37,1,4.85,4.85,0,0,1,.5.69,6.41,6.41,0,0,1,.47.74l0,.09a2.67,2.67,0,0,1-.93-.27,5.86,5.86,0,0,1-.71-.52,5.21,5.21,0,0,1-1-1.41,2.17,2.17,0,0,0-.51-.69,6.53,6.53,0,0,0-.77-.46,2.69,2.69,0,0,1-.93-1.48Z" transform="translate(-1.42)"/><path d="M98.3,42c.92.76,1.82,1.37,2.66,2.17.4.42.76.9,1.16,1.33l1.28,1.23a10.69,10.69,0,0,1,1.12,1.35c.32.42.74.82,1.12,1.33.88,1,.54,2.37,1.37,3.14l0,.08a2.16,2.16,0,0,1-1.32-1.27,4.43,4.43,0,0,0-.86-1.38,10.14,10.14,0,0,1-1-1.4c-.31-.51-.53-1-.79-1.54a4.67,4.67,0,0,0-1.07-1.32,14.48,14.48,0,0,0-1.46-.93A6,6,0,0,1,98.22,42Z" transform="translate(-1.42)"/><path d="M105.43,47.06a11.47,11.47,0,0,1,1.78,1.28,4.12,4.12,0,0,0,.79.77c.32.2.69.31,1.06.55.76.46,1,1.56,1.25,1.75,0,.09.58.16.91.61a1.86,1.86,0,0,1,.28,1.24l-.1,0a3.25,3.25,0,0,0-.72-.75c-.17-.17-.5,0-1.07-.37A2.46,2.46,0,0,1,109,51a4.55,4.55,0,0,0-.34-.94c-.34-.63-1.22-.72-2-1a2.89,2.89,0,0,1-1.39-1.87Z" transform="translate(-1.42)"/><path d="M107.29,54.5c.42,0,.53-.11.79,0a1.21,1.21,0,0,0,.39.28.94.94,0,0,0,.49,0,.82.82,0,0,1,.61.06,1.29,1.29,0,0,1,.3.22,1.06,1.06,0,0,1,.12.2c.2.35-.08.47.2.71l.06.08c-.09.27-.48.28-.69.16a1.26,1.26,0,0,1-.39-.35.55.55,0,0,1-.09-.19.32.32,0,0,0,0-.09,1.92,1.92,0,0,0-.21-.29.53.53,0,0,0-.39-.16c-.15,0-.31.16-.49.2a.69.69,0,0,1-.75-.77Z" transform="translate(-1.42)"/></g></g></svg>