<svg xmlns="http://www.w3.org/2000/svg" viewBox="0 0 158.61 129.7"><defs><style>.cls-1{fill:#e4c78a;}</style></defs><g id="Layer_2" data-name="Layer 2"><g id="Ingredients_Map" data-name="Ingredients Map"><path class="cls-1" d="M156.67,45.52A59.62,59.62,0,0,1,145.28,26a3,3,0,0,1-.24-1.78c.42-1.48,2.46-1.47,4-1.55,3.85-.22,7.51-4.27,6-7.83A618.47,618.47,0,0,1,1.52,1.11C.33,3,1.28,5.52,2.78,7.15s3.5,2.74,4.93,4.43c2.15,2.52,2.82,6.06,5,8.56C15.28,23.08,19.49,24,23.4,24s7.75-1,11.66-1.17a28.18,28.18,0,0,1,15.48,4.06A164.56,164.56,0,0,0,4.88,40.78a89.79,89.79,0,0,0,7.83,13.36,7.55,7.55,0,0,0,3,2.85,7.13,7.13,0,0,0,4.12.1C30.39,55,40,48.13,50.73,48.18a5,5,0,0,1,3.4,1c1.33,1.2,1.18,3.29,1.56,5,.8,3.57,4.19,6.12,7.75,7s7.29.31,10.9-.31c28-4.78,55.24-14.52,83.6-15.21Z"/><path class="cls-1" d="M.9,84.57V72.68h4a8.52,8.52,0,0,1,3.84.73A5.42,5.42,0,0,1,11,75.56a5.9,5.9,0,0,1-.93,7.28,5.81,5.81,0,0,1-2,1.29,5.9,5.9,0,0,1-1.24.35,16.51,16.51,0,0,1-2.15.09ZM4.74,74.2H2.61v8.86H4.79a8.52,8.52,0,0,0,2-.18A4.48,4.48,0,0,0,8,82.44a4.19,4.19,0,0,0,.86-.66,4.41,4.41,0,0,0,1.26-3.23,4.1,4.1,0,0,0-1.29-3.13,4.17,4.17,0,0,0-1.1-.74,4.59,4.59,0,0,0-1.17-.39A12.38,12.38,0,0,0,4.74,74.2Z"/><path class="cls-1" d="M20.8,80.81H15.28A2.55,2.55,0,0,0,16,82.6a2.49,2.49,0,0,0,1.79.66,4.7,4.7,0,0,0,2.83-1v1.51a5.16,5.16,0,0,1-1.42.69,6.21,6.21,0,0,1-1.65.2,3.66,3.66,0,0,1-2.09-.54,3.83,3.83,0,0,1-1.29-1.44,4.45,4.45,0,0,1-.48-2.1,4.13,4.13,0,0,1,1-2.91,3.36,3.36,0,0,1,2.63-1.12,3.1,3.1,0,0,1,2.49,1.09,4.34,4.34,0,0,1,.93,2.92Zm-5.48-.93h3.94a2.15,2.15,0,0,0-.55-1.43,1.76,1.76,0,0,0-1.33-.51,1.9,1.9,0,0,0-1.37.51A2.51,2.51,0,0,0,15.32,79.88Z"/><path class="cls-1" d="M29.25,78.9v5.69H27.69V80.23a3.35,3.35,0,0,0-.35-1.82,1.33,1.33,0,0,0-1.21-.52,1.93,1.93,0,0,0-.9.22,4,4,0,0,0-.92.79v5.69H22.76V76.75h1.55v1a3.36,3.36,0,0,1,2.32-1.18A2.56,2.56,0,0,1,28.94,78a3.5,3.5,0,0,1,2.6-1.43,2.41,2.41,0,0,1,1.88.83A3.79,3.79,0,0,1,34.15,80v4.63H32.6V80a2.37,2.37,0,0,0-.4-1.5,1.35,1.35,0,0,0-1.15-.53A2.4,2.4,0,0,0,29.25,78.9Z"/><path class="cls-1" d="M40.39,76.73a4.09,4.09,0,0,1,3,1.16,3.88,3.88,0,0,1,1.19,2.9,3.71,3.71,0,0,1-1.21,2.82,4.29,4.29,0,0,1-3,1.12,4.08,4.08,0,0,1-3-1.14,4,4,0,0,1,0-5.71A4.16,4.16,0,0,1,40.39,76.73Zm-.09,1.4a2.43,2.43,0,0,0-1.83.73,2.56,2.56,0,0,0-.72,1.87,2.49,2.49,0,0,0,.73,1.84,2.62,2.62,0,0,0,1.89.71,2.56,2.56,0,0,0,1.87-.72,2.67,2.67,0,0,0,0-3.7A2.63,2.63,0,0,0,40.3,78.13Z"/><path class="cls-1" d="M52.5,82.76v1.53a6.54,6.54,0,0,1-2.29.44,3.77,3.77,0,0,1-4-4,4.17,4.17,0,0,1,1.07-3,3.64,3.64,0,0,1,2.8-1.13,4.52,4.52,0,0,1,1.09.11,7.41,7.41,0,0,1,1.19.43V78.8A4.16,4.16,0,0,0,50.15,78a2.25,2.25,0,0,0-1.73.74,2.72,2.72,0,0,0-.67,1.88,2.52,2.52,0,0,0,.73,1.91,2.71,2.71,0,0,0,2,.71A5.24,5.24,0,0,0,52.5,82.76Z"/><path class="cls-1" d="M56.27,76.75v1.8l.09-.14c.75-1.21,1.5-1.81,2.25-1.81a2.76,2.76,0,0,1,1.83.88l-.82,1.37a2.27,2.27,0,0,0-1.5-.77,1.61,1.61,0,0,0-1.3.72,2.72,2.72,0,0,0-.55,1.69v4.1H54.71V76.75Z"/><path class="cls-1" d="M66.8,79.88v3.33c0,.27.09.4.27.4a1.88,1.88,0,0,0,.88-.42v1a4.37,4.37,0,0,1-.85.46,1.67,1.67,0,0,1-.67.13c-.66,0-1.05-.26-1.17-.79a3.39,3.39,0,0,1-2.11.77,1.85,1.85,0,0,1-1.36-.54,1.82,1.82,0,0,1-.55-1.36,1.9,1.9,0,0,1,.54-1.33,3.6,3.6,0,0,1,1.51-.92l2-.68v-.42A1.25,1.25,0,0,0,63.86,78a3.39,3.39,0,0,0-2.47,1.32v-1.7A3.22,3.22,0,0,1,64,76.6a3,3,0,0,1,2,.66,1.92,1.92,0,0,1,.46.57,1.82,1.82,0,0,1,.26.7A9.84,9.84,0,0,1,66.8,79.88ZM65.27,83V80.71l-1,.4a3.67,3.67,0,0,0-1.12.64,1.16,1.16,0,0,0,0,1.59,1.09,1.09,0,0,0,.8.3A1.94,1.94,0,0,0,65.27,83Z"/><path class="cls-1" d="M68.57,78l2.92-2.86v1.62H74v1.4H71.49V82c0,.9.37,1.35,1.12,1.35a3.56,3.56,0,0,0,1.76-.55v1.44a3.89,3.89,0,0,1-2,.51,2.6,2.6,0,0,1-1.78-.63,1.82,1.82,0,0,1-.36-.42,1.94,1.94,0,0,1-.24-.61,6.52,6.52,0,0,1-.1-1.45V78.15H68.57Z"/><path class="cls-1" d="M76.64,73.45a.92.92,0,0,1,.65.26.89.89,0,0,1,0,1.3.89.89,0,0,1-.65.27A.86.86,0,0,1,76,75a.88.88,0,0,1-.28-.65,1,1,0,0,1,.91-.91Zm-.77,3.3h1.55v7.84H75.87Z"/><path class="cls-1" d="M85.89,82.76v1.53a6.53,6.53,0,0,1-2.28.44,4,4,0,0,1-2.94-1.09,4,4,0,0,1-1.09-2.93,4.16,4.16,0,0,1,1.06-3,3.66,3.66,0,0,1,2.81-1.13,4.49,4.49,0,0,1,1.08.11,7.41,7.41,0,0,1,1.19.43V78.8A4.13,4.13,0,0,0,83.54,78a2.23,2.23,0,0,0-1.72.74,2.67,2.67,0,0,0-.67,1.88,2.56,2.56,0,0,0,.72,1.91,2.73,2.73,0,0,0,2,.71A5.2,5.2,0,0,0,85.89,82.76Z"/><path class="cls-1" d="M93.47,84.59V72.68h3a4.29,4.29,0,0,1,2.87.9A3,3,0,0,1,100.38,76a3,3,0,0,1-2,2.93,5.23,5.23,0,0,1,1.12,1A22.87,22.87,0,0,1,101,82.21c.42.68.75,1.19,1,1.53l.63.85h-2l-.52-.78a.93.93,0,0,0-.1-.15l-.33-.47-.53-.87-.57-.93a7.86,7.86,0,0,0-1-1.16,3.6,3.6,0,0,0-.79-.63,2.65,2.65,0,0,0-1.19-.19h-.44v5.18Zm2.22-10.46h-.51v3.76h.64a4.76,4.76,0,0,0,1.78-.22,1.68,1.68,0,0,0,.75-.67,1.94,1.94,0,0,0,.27-1,1.84,1.84,0,0,0-.3-1,1.59,1.59,0,0,0-.84-.64A5.86,5.86,0,0,0,95.69,74.13Z"/><path class="cls-1" d="M110.78,80.81h-5.51A2.58,2.58,0,0,0,106,82.6a2.51,2.51,0,0,0,1.8.66,4.73,4.73,0,0,0,2.83-1v1.51a5.29,5.29,0,0,1-1.42.69,6.21,6.21,0,0,1-1.65.2,3.7,3.7,0,0,1-2.1-.54,3.89,3.89,0,0,1-1.28-1.44,4.45,4.45,0,0,1-.48-2.1,4.13,4.13,0,0,1,1-2.91,3.37,3.37,0,0,1,2.63-1.12,3.1,3.1,0,0,1,2.49,1.09,4.34,4.34,0,0,1,.93,2.92Zm-5.48-.93h4a2.15,2.15,0,0,0-.56-1.43,1.76,1.76,0,0,0-1.33-.51,1.88,1.88,0,0,0-1.36.51A2.45,2.45,0,0,0,105.3,79.88Z"/><path class="cls-1" d="M112.71,88.59V76.75h2.71a4.72,4.72,0,0,1,3.25,1,3.68,3.68,0,0,1,1.16,2.91,4,4,0,0,1-1.09,2.89A3.7,3.7,0,0,1,116,84.73a4.73,4.73,0,0,1-1.66-.34v4.2Zm2.68-10.39h-1.1V83a3.2,3.2,0,0,0,1.5.37,2.28,2.28,0,0,0,1.78-.76,3,3,0,0,0,.37-3.31,2,2,0,0,0-.89-.85A4,4,0,0,0,115.39,78.2Z"/><path class="cls-1" d="M126.88,84.59v-1a3.55,3.55,0,0,1-1.13.84,2.91,2.91,0,0,1-1.26.3,2.71,2.71,0,0,1-1.37-.37,2.49,2.49,0,0,1-1-1,5.09,5.09,0,0,1-.32-2.11V76.75h1.56v4.47a3,3,0,0,0,.35,1.72,1.43,1.43,0,0,0,1.24.49,2.25,2.25,0,0,0,1.88-1.08v-5.6h1.56v7.84Z"/><path class="cls-1" d="M130.9,72.68h1.55v4.63a3.58,3.58,0,0,1,2.15-.73A3.06,3.06,0,0,1,137,77.7a4.35,4.35,0,0,1,.94,2.89,3.88,3.88,0,0,1-4.15,4.14,9.13,9.13,0,0,1-1.6-.16,5.54,5.54,0,0,1-1.33-.41Zm1.55,6.12V83a5.59,5.59,0,0,0,1.63.24,2.16,2.16,0,0,0,1.68-.73,2.72,2.72,0,0,0,.65-1.89,2.85,2.85,0,0,0-.61-1.9,2,2,0,0,0-1.59-.73A2.69,2.69,0,0,0,132.45,78.8Z"/><path class="cls-1" d="M140.08,72.68h1.55V84.59h-1.55Z"/><path class="cls-1" d="M145,73.45a.93.93,0,0,1,.66.26.92.92,0,0,1-.66,1.57.86.86,0,0,1-.63-.27.91.91,0,0,1-.27-.65.86.86,0,0,1,.27-.63A.84.84,0,0,1,145,73.45Zm-.76,3.3h1.55v7.84h-1.55Z"/><path class="cls-1" d="M154.28,82.76v1.53a6.54,6.54,0,0,1-2.29.44,3.77,3.77,0,0,1-4-4,4.17,4.17,0,0,1,1.07-3,3.64,3.64,0,0,1,2.8-1.13,4.52,4.52,0,0,1,1.09.11,7.41,7.41,0,0,1,1.19.43V78.8a4.16,4.16,0,0,0-2.18-.76,2.25,2.25,0,0,0-1.73.74,2.72,2.72,0,0,0-.67,1.88,2.52,2.52,0,0,0,.73,1.91,2.71,2.71,0,0,0,2,.71A5.24,5.24,0,0,0,154.28,82.76Z"/><path class="cls-1" d="M33,96a4.09,4.09,0,0,1,3,1.16,3.89,3.89,0,0,1,1.19,2.9,3.68,3.68,0,0,1-1.21,2.82,4.24,4.24,0,0,1-3,1.12,4.08,4.08,0,0,1-3-1.14,4,4,0,0,1,0-5.71A4.2,4.2,0,0,1,33,96Zm-.09,1.4a2.49,2.49,0,0,0-1.83.73,2.57,2.57,0,0,0-.72,1.87,2.46,2.46,0,0,0,.74,1.84,2.82,2.82,0,0,0,3.75,0,2.67,2.67,0,0,0,0-3.7A2.66,2.66,0,0,0,32.9,97.36Z"/><path class="cls-1" d="M39.4,96v-.47a4.2,4.2,0,0,1,.8-2.82,2.47,2.47,0,0,1,1.93-.93,4.78,4.78,0,0,1,1.15.16v1.51a2.1,2.1,0,0,0-.71-.13,1.49,1.49,0,0,0-1.27.48A3.15,3.15,0,0,0,41,95.51V96h1.4v1.4H41v6.44H39.4V97.38H38.27V96Z"/><path class="cls-1" d="M48,97.23,51,94.36V96h2.48v1.4H51v3.84c0,.89.37,1.34,1.11,1.34a3.46,3.46,0,0,0,1.77-.55v1.45a4,4,0,0,1-1.95.5,2.61,2.61,0,0,1-1.78-.62,1.75,1.75,0,0,1-.36-.42,2.42,2.42,0,0,1-.25-.62,7.17,7.17,0,0,1-.1-1.44V97.38H48Z"/><path class="cls-1" d="M55.26,91.92h1.55V97a3,3,0,0,1,2.41-1.18,2.62,2.62,0,0,1,1.41.39,2.37,2.37,0,0,1,.92,1.08,5.2,5.2,0,0,1,.31,2.06v4.46H60.3V99a2.14,2.14,0,0,0-.42-1.38,1.36,1.36,0,0,0-1.11-.53,1.84,1.84,0,0,0-1,.27,4.18,4.18,0,0,0-1,.88v5.61H55.26Z"/><path class="cls-1" d="M71.05,100H65.54a2.57,2.57,0,0,0,.75,1.79,2.51,2.51,0,0,0,1.8.66,4.66,4.66,0,0,0,2.83-.95v1.52a5.56,5.56,0,0,1-1.42.68,6.21,6.21,0,0,1-1.65.2,3.78,3.78,0,0,1-2.1-.53A3.92,3.92,0,0,1,64.47,102a4.4,4.4,0,0,1-.48-2.1A4.16,4.16,0,0,1,65,97a3.4,3.4,0,0,1,2.64-1.12,3.08,3.08,0,0,1,2.48,1.09,4.35,4.35,0,0,1,.93,2.92Zm-5.48-.93h4A2.2,2.2,0,0,0,69,97.68a1.78,1.78,0,0,0-1.33-.51,1.89,1.89,0,0,0-1.37.51A2.45,2.45,0,0,0,65.57,99.11Z"/><path class="cls-1" d="M88.76,101.06v1.88a8.94,8.94,0,0,1-4.33,1,6.75,6.75,0,0,1-3.39-.8,6.06,6.06,0,0,1-3-5.25,5.78,5.78,0,0,1,1.86-4.37,6.32,6.32,0,0,1,4.57-1.78,10.8,10.8,0,0,1,4.17,1v1.83a8.24,8.24,0,0,0-4.08-1.19,4.72,4.72,0,0,0-3.4,1.29,4.29,4.29,0,0,0-1.35,3.24,4.22,4.22,0,0,0,1.33,3.22,4.73,4.73,0,0,0,3.4,1.26A7.71,7.71,0,0,0,88.76,101.06Z"/><path class="cls-1" d="M94.74,96a4.11,4.11,0,0,1,3,1.16A3.88,3.88,0,0,1,98.9,100a3.7,3.7,0,0,1-1.2,2.82,4.25,4.25,0,0,1-3,1.12,4.1,4.1,0,0,1-3-1.14A3.77,3.77,0,0,1,90.54,100a3.81,3.81,0,0,1,1.2-2.87A4.18,4.18,0,0,1,94.74,96Zm-.09,1.4a2.49,2.49,0,0,0-1.83.73,2.61,2.61,0,0,0-.71,1.87,2.46,2.46,0,0,0,.73,1.84,2.61,2.61,0,0,0,1.88.71,2.54,2.54,0,0,0,1.87-.72,2.67,2.67,0,0,0,0-3.7A2.66,2.66,0,0,0,94.65,97.36Z"/><path class="cls-1" d="M102.52,96v1a3.12,3.12,0,0,1,2.36-1.15,2.55,2.55,0,0,1,1.37.38,2.47,2.47,0,0,1,1,1,4.94,4.94,0,0,1,.32,2.09v4.48H106V99.36a3.1,3.1,0,0,0-.36-1.72,1.43,1.43,0,0,0-1.23-.52,2.25,2.25,0,0,0-1.87,1.1v5.6h-1.58V96Z"/><path class="cls-1" d="M109.65,98.69a2.4,2.4,0,0,1,.91-2,3.93,3.93,0,0,1,2.51-.73h3.23v1.21h-1.59a3.24,3.24,0,0,1,.64.85,2.07,2.07,0,0,1,.18.88,2.4,2.4,0,0,1-.35,1.21,2.46,2.46,0,0,1-.9.91,5.68,5.68,0,0,1-1.8.5c-.59.08-.88.29-.88.6a.5.5,0,0,0,.33.45,4.75,4.75,0,0,0,1.19.36,12.58,12.58,0,0,1,1.85.5,2.38,2.38,0,0,1,.75.51,2,2,0,0,1,.56,1.42,2.06,2.06,0,0,1-1,1.78,5.69,5.69,0,0,1-5.34,0,2,2,0,0,1-1-1.79c0-1.06.65-1.75,2-2.06-.53-.33-.79-.66-.79-1a1,1,0,0,1,.34-.69,2.16,2.16,0,0,1,.91-.45A2.57,2.57,0,0,1,109.65,98.69Zm2.55,5.5a2.31,2.31,0,0,0-1.29.33,1,1,0,0,0-.5.86c0,.8.73,1.21,2.19,1.21a3.42,3.42,0,0,0,1.59-.31.93.93,0,0,0,.57-.85c0-.37-.24-.66-.71-.89A4.15,4.15,0,0,0,112.2,104.19Zm.36-6.86a1.49,1.49,0,0,0-1.07.42,1.37,1.37,0,0,0-.44,1,1.3,1.3,0,0,0,.43,1,1.59,1.59,0,0,0,1.1.39,1.57,1.57,0,0,0,1.1-.4,1.32,1.32,0,0,0,.43-1,1.31,1.31,0,0,0-.44-1A1.53,1.53,0,0,0,112.56,97.33Z"/><path class="cls-1" d="M121.6,96a4.09,4.09,0,0,1,3,1.16,3.89,3.89,0,0,1,1.19,2.9,3.7,3.7,0,0,1-1.2,2.82,4.25,4.25,0,0,1-3,1.12,4.08,4.08,0,0,1-3-1.14A3.77,3.77,0,0,1,117.4,100a3.84,3.84,0,0,1,1.19-2.87A4.2,4.2,0,0,1,121.6,96Zm-.09,1.4a2.49,2.49,0,0,0-1.83.73A2.57,2.57,0,0,0,119,100a2.46,2.46,0,0,0,.74,1.84,2.6,2.6,0,0,0,1.88.71,2.54,2.54,0,0,0,1.87-.72,2.67,2.67,0,0,0,0-3.7A2.66,2.66,0,0,0,121.51,97.36Z"/><path class="cls-1" d="M56.8,129.61a.21.21,0,0,1-.33,0l-1.09-1a3.61,3.61,0,0,1-2.46.83,3.36,3.36,0,0,1-3.53-2.39c-.24-.71-.31-1.3-.31-5.88s.07-5.16.31-5.88A3.36,3.36,0,0,1,52.92,113a3.36,3.36,0,0,1,3.53,2.39c.23.72.31,1.31.31,5.88,0,4.88-.15,5.26-.48,6.14l1.23,1a.23.23,0,0,1,.05.33Zm-2.7-2.16-1.25-1.09a.24.24,0,0,1,0-.35l.64-.76a.21.21,0,0,1,.33,0l1,.87c.07-.59.1-1.89.1-4.88,0-4.5-.05-4.86-.22-5.33a1.85,1.85,0,0,0-3.41,0c-.17.47-.21.83-.21,5.33s0,4.86.21,5.36a1.65,1.65,0,0,0,1.71,1.13A2.15,2.15,0,0,0,54.1,127.45Z"/><path class="cls-1" d="M59.12,125.32V113.4a.23.23,0,0,1,.24-.24h1.45a.22.22,0,0,1,.23.24v12.16c0,1.4.71,2.13,1.85,2.13s1.85-.73,1.85-2.13V113.4a.23.23,0,0,1,.24-.24h1.44a.23.23,0,0,1,.24.24v11.92c0,2.77-1.47,4.17-3.77,4.17S59.12,128.09,59.12,125.32Z"/><path class="cls-1" d="M69.29,113.4a.22.22,0,0,1,.23-.24H71a.23.23,0,0,1,.24.24V129a.23.23,0,0,1-.24.24H69.52a.22.22,0,0,1-.23-.24Z"/><path class="cls-1" d="M73.86,113.4a.23.23,0,0,1,.24-.24h1.77a.34.34,0,0,1,.36.24l3.6,12.09h.1V113.4a.22.22,0,0,1,.23-.24h1.26a.22.22,0,0,1,.23.24V129a.22.22,0,0,1-.23.24H79.74a.33.33,0,0,1-.36-.24L75.71,117h-.12V129a.23.23,0,0,1-.24.24H74.1a.23.23,0,0,1-.24-.24Z"/><path class="cls-1" d="M84.31,113.4a.22.22,0,0,1,.23-.24H86a.23.23,0,0,1,.24.24V129a.23.23,0,0,1-.24.24H84.54a.22.22,0,0,1-.23-.24Z"/><path class="cls-1" d="M88.88,113.4a.23.23,0,0,1,.24-.24h1.77a.34.34,0,0,1,.36.24l3.6,12.09h.09V113.4a.23.23,0,0,1,.24-.24h1.26a.22.22,0,0,1,.23.24V129a.22.22,0,0,1-.23.24H94.76a.33.33,0,0,1-.36-.24L90.73,117h-.12V129a.23.23,0,0,1-.24.24H89.12a.23.23,0,0,1-.24-.24Z"/><path class="cls-1" d="M99.33,113.4a.22.22,0,0,1,.23-.24h6.09a.23.23,0,0,1,.24.24v1.31a.22.22,0,0,1-.24.23h-4.26a.12.12,0,0,0-.14.14v5a.12.12,0,0,0,.14.14h3.69a.22.22,0,0,1,.24.24v1.3a.23.23,0,0,1-.24.24h-3.69c-.1,0-.14,0-.14.14v5.19a.12.12,0,0,0,.14.14h4.26a.23.23,0,0,1,.24.24V129a.23.23,0,0,1-.24.24H99.56a.22.22,0,0,1-.23-.24Z"/><path d="M51.72,32.87,49.6,37.32a.58.58,0,0,0,.15.84l.85.89,1.71,1.78h-.5a6.9,6.9,0,0,1,4.49-2l.5,0-.08.51a4.13,4.13,0,0,0,.21,2.06,8.66,8.66,0,0,0,1.17,1.87,3.16,3.16,0,0,1,.53,1.22,1.47,1.47,0,0,1-.61,1.4c-.39-.09.26.86.64,1.37a2.83,2.83,0,0,0,1.59,1.14,2,2,0,0,0,1-.13,1.49,1.49,0,0,1,.73-.08.94.94,0,0,1,.65.55L64,53.12l.07.23-.24,0-2.07.34.15-.23.89,3.23a.76.76,0,0,1-.38.86c-.27.15-.52.24-.77.36l-1.52.68.08-.24A7.46,7.46,0,0,0,62.31,61a4,4,0,0,0,3.13.46l6.76-1c2.25-.29,4.42-1,6.71-1.39a16.31,16.31,0,0,1,7,.05,7,7,0,0,0,3.15.16c1-.25,1.86-1,3.08-1.44,2.43-.72,4.71,0,6.75-.94s3.92-2.27,6.16-3a26.43,26.43,0,0,1,6.82-1V53a30.89,30.89,0,0,0-6.66,1.37c-2.11.75-3.86,2.27-6,3.21s-4.78.52-6.73,1.16c-1,.3-1.85,1.11-3.12,1.48a7.76,7.76,0,0,1-3.63-.12A16,16,0,0,0,79.07,60c-2.22.33-4.43,1-6.73,1.22L65.49,62a4.43,4.43,0,0,1-3.43-.67,8.5,8.5,0,0,1-2.14-2.75l-.1-.17.18-.07,1.53-.66c.48-.25,1.16-.36,1-.87l-1-3.18-.06-.19.2,0,2.06-.4-.16.27L62,49c-.11-.23-.22-.2-.59-.09a2.74,2.74,0,0,1-1.28.22A3.37,3.37,0,0,1,58,47.71a7.42,7.42,0,0,1-.69-1,1.78,1.78,0,0,1-.27-.71,1,1,0,0,1,.43-.84c.27-.23.31-.33.28-.6a2.56,2.56,0,0,0-.4-.87,8.69,8.69,0,0,1-1.22-2.06,5,5,0,0,1-.22-2.49l.42.47a6.43,6.43,0,0,0-4.05,1.7l-.26.25-.23-.26-1.63-1.86-.81-.93a1.39,1.39,0,0,1-.36-.66,1.22,1.22,0,0,1,.18-.74l2.45-4.29Z"/><path d="M53.35,31.63A36.49,36.49,0,0,1,59.85,30c1.11-.16,2.24-.24,3.34-.42a33,33,0,0,0,3.27-.77c1.09-.32,2.17-.61,3.27-.86a13.81,13.81,0,0,1,3.4-.5,5.18,5.18,0,0,1,1.8.35c.57.23,1,.54,1.52.77a6.83,6.83,0,0,0,3.14.58v.1a5.56,5.56,0,0,1-3.45,0,6.77,6.77,0,0,0-3-.77c-2.09,0-4.36.64-6.56.83a33.39,33.39,0,0,0-3.3.55c-1.09.26-2.16.62-3.24.91a36.77,36.77,0,0,1-6.65,1Z"/><path d="M79.89,29.11c3.22-.43,6.45-.84,9.69-1.2a30.64,30.64,0,0,1,4.92-.37,6.59,6.59,0,0,1,2.47.65,5.33,5.33,0,0,0,2.21.48c1.53,0,3.18-.37,4.81-.46s3.27-.22,4.91-.2c.81,0,1.63,0,2.45.07a4.2,4.2,0,0,1,2.5.57A3.49,3.49,0,0,1,114.91,31a5.49,5.49,0,0,0,.68,2.24l-.23-.06a2.89,2.89,0,0,1,2.36-.38,3,3,0,0,0,1,.42,2.11,2.11,0,0,0,1-.28,12.23,12.23,0,0,1,4.39-1.62,4.76,4.76,0,0,1,2.38.29,5.42,5.42,0,0,1,1.87,1.49,2.25,2.25,0,0,0,1.81.88.94.94,0,0,0,.77-.35,3.44,3.44,0,0,0,.18-.5.87.87,0,0,1,.7-.51c.95,0,1.57.13,2.37.11a17.4,17.4,0,0,0,2.28-.1,21,21,0,0,0,4.44-.93A18.41,18.41,0,0,0,148.6,27l.69-.71.2.94c.12.61,1.23.93,2.21,1.33a3.44,3.44,0,0,1,1.5,1,2,2,0,0,1,.13,2,16.14,16.14,0,0,1-2.05,2.5,2,2,0,0,0-.51,1.11,2.12,2.12,0,0,0,.53,1.16,4.87,4.87,0,0,1,.74,3.28c-.06.58-.34,1.16-.23,1.35s.61.55,1,.85L158,45.4l.6.42-.71,0c-2.34.13-4.67.19-7,.28v-.09c2.32-.23,4.63-.49,6.94-.69l-.11.46-5.28-3.38c-.41-.32-.95-.44-1.34-1.15a1.61,1.61,0,0,1,0-1,3.82,3.82,0,0,0,.13-.71,4,4,0,0,0-.7-2.68,3,3,0,0,1-.73-1.66,2.85,2.85,0,0,1,.69-1.73,19.48,19.48,0,0,0,1.92-2.32c.38-.72-.15-1.31-1.11-1.66-.45-.19-1-.35-1.48-.6a2.3,2.3,0,0,1-1.35-1.41l.89.23a19.34,19.34,0,0,1-8.12,4.83,21.6,21.6,0,0,1-9.28.69c-.14,0-.16,0-.21.13a3.51,3.51,0,0,1-.25.57,1.52,1.52,0,0,1-1.26.59,2.8,2.8,0,0,1-2.2-1.12A5.09,5.09,0,0,0,126.37,32a4.1,4.1,0,0,0-2.17-.31,11.75,11.75,0,0,0-4.3,1.53,2.33,2.33,0,0,1-1.18.31,3,3,0,0,1-1.13-.42,2.63,2.63,0,0,0-2.07.41l-.14.07-.09-.13c-1-1.43-.58-3.46-1.76-4.35a3.79,3.79,0,0,0-2.2-.36q-1.22,0-2.43,0c-1.61.07-3.23.15-4.83.31s-3.18.48-4.9.46a6.2,6.2,0,0,1-2.52-.58,6.13,6.13,0,0,0-2.21-.63,39.42,39.42,0,0,0-4.81.24c-3.23.26-6.48.46-9.73.66Z"/><path d="M104.61,54.7c2.18-.65,4.38.48,6.38.17s4-1.24,6-1.91a12.68,12.68,0,0,1,3.24-.65c1.12,0,2.19.12,3.25.1,2.15,0,4.12-1,6.31-1.3a16.14,16.14,0,0,1,3.27,0A6.5,6.5,0,0,0,136,50.5a24.52,24.52,0,0,1,3.05-1.21,20.33,20.33,0,0,1,3.24-.62c2.17-.29,4.32-.3,6.42-.62A13.2,13.2,0,0,0,154.69,46l.06.08a12,12,0,0,1-5.87,2.77c-2.14.44-4.31.59-6.42.86a20.72,20.72,0,0,0-6.07,1.68,6.64,6.64,0,0,1-3.34.56,15.11,15.11,0,0,0-3.16-.27c-2.1.13-4.16,1-6.36,1.1-1.09,0-2.17,0-3.21.11a12.93,12.93,0,0,0-3,.87c-2,.75-4,1.76-6.26,1.89s-4.27-1.11-6.42-.82Z"/><path d="M51.51,31.91a1.64,1.64,0,0,1-1.31.36,5.78,5.78,0,0,0-.65-.25,1.26,1.26,0,0,0-.65.11,3.26,3.26,0,0,1-1.28.26,8.64,8.64,0,0,1-1.19-.32h-.09c-.05-.42.45-.52.59-.59a3,3,0,0,1,.65-.14,3.27,3.27,0,0,1,1.32.26,1.4,1.4,0,0,0,.66.11c.21,0,.43-.18.66-.25a1.57,1.57,0,0,1,1.29.36Z"/><path d="M46.35,32.14a.63.63,0,0,1-.14.75,1.56,1.56,0,0,1-.67.42,11.77,11.77,0,0,0-1.34.31.87.87,0,0,0-.45.89A2,2,0,0,0,44,35.6c.09,0,0,0,.25,0a1,1,0,0,1,.59,0,.77.77,0,0,1,.5.58,1.64,1.64,0,0,1-.8,1.63c-.94.66-1.94.62-2.55,1.2-1.24,1.82-4.08.78-4.86,2.51a.78.78,0,0,0,.34,1,3.35,3.35,0,0,0,1.3.24c1,.06,1.91.09,2.86.1h.48l0,.42a1,1,0,0,1-.37.73c-.14.15,0,0-.06-.15s0,0,.07-.05h.42l1.92,0,3.84.14c2.55.17,5.1.32,7.65.66v.1c-2.56.2-5.12.21-7.68.23L44,44.9l-1.91-.07c-.16,0-.31,0-.54,0a1.06,1.06,0,0,1-.77-.46.75.75,0,0,1,0-.67,1.21,1.21,0,0,1,.25-.32c.15-.11.16-.21.14,0l.4.43h-.06c-.93-.18-1.87-.34-2.82-.46a3.82,3.82,0,0,1-1.45-.43,1.17,1.17,0,0,1-.47-1.47c.46-1.05,1.65-1.2,2.52-1.42a4.86,4.86,0,0,0,1.3-.44,3.47,3.47,0,0,0,.95-1c.75-.82,1.87-1,2.46-1.45a.94.94,0,0,0,.46-.76s0,0,.08,0,0,0-.11,0a1,1,0,0,1-1.06-.26A2.51,2.51,0,0,1,43,34.48a1.54,1.54,0,0,1,1-1.39,6.69,6.69,0,0,1,1.46-.15c.38,0,.92-.32.81-.76Z"/><path d="M53.93,45.07a29.76,29.76,0,0,1-4.37.9l-1.12.09c-.48.07-.52-.1-.27.31A10.58,10.58,0,0,0,49.68,48a2,2,0,0,0,1.83.33,2.65,2.65,0,0,1,1.34.13,6.3,6.3,0,0,1,1,.63,7.6,7.6,0,0,0,1.87.93l.53.17c.21,0,.61.36.53.69a1.81,1.81,0,0,1-.23.56c0,.14-.06.3.08.37v.1c-.26,0-.4-.3-.39-.51a3.51,3.51,0,0,0,0-.53c0-.07,0,0-.18,0a2.84,2.84,0,0,1-.56-.05A6.23,6.23,0,0,1,53.3,50c-.74-.49-1-.79-1.73-.72a3.67,3.67,0,0,1-1.24-.1,2.12,2.12,0,0,1-1-.78c-.49-.63-.87-1.24-1.38-1.8-.09-.14-.38-.29-.23-.71a1,1,0,0,1,.37-.25l.26-.09c.36-.13.72-.25,1.09-.36A11.45,11.45,0,0,1,53.93,45Z"/><path d="M58.79,51.35a13.48,13.48,0,0,1-3.49,2,2.57,2.57,0,0,0-.74.28,3,3,0,0,0-.13.91,8,8,0,0,0,.16,1.91c0,.09.32.06.66.05a1.54,1.54,0,0,1,.67.15.83.83,0,0,1,.37.34.78.78,0,0,1,0,.63c-.13.28-.26.46-.2.35a.29.29,0,0,0-.08-.27s0,0,.08,0c.33.09.65.2,1,.3a20.88,20.88,0,0,1,3.69,1.71l0,.09a21.91,21.91,0,0,1-4-.79c-.32-.11-.64-.21-1-.33a1.28,1.28,0,0,1-.37-.19.73.73,0,0,1-.27-.72,1.19,1.19,0,0,1,.3-.51c0,.06.09.23,0,.14a.65.65,0,0,0-.29-.12,2.84,2.84,0,0,1-.56-.12.81.81,0,0,1-.55-.51c-.05-.87.09-1.4,0-2.12a6,6,0,0,1-.06-1.1c.25-.57.63-.63.88-.83a13.2,13.2,0,0,1,3.83-1.38Z"/><path d="M42,42a9.66,9.66,0,0,0,3.71.43c.64,0,1.32.16,2,.18a9.91,9.91,0,0,0,2-.16,30.67,30.67,0,0,1,3.94-.35,7.79,7.79,0,0,1,3.91.84l0,.09a29.45,29.45,0,0,0-3.87.13A27.27,27.27,0,0,1,49.65,43a12.84,12.84,0,0,0-2-.06c-.66.06-1.3.21-2,.32A4.15,4.15,0,0,1,41.93,42Z"/><path d="M43.76,40.92a5.93,5.93,0,0,1,1.66-.07,4,4,0,0,0,.84.21,2.76,2.76,0,0,0,.85-.15,4.33,4.33,0,0,1,3.45.21v.1a4.19,4.19,0,0,1-3.4.23,1.81,1.81,0,0,0-.86-.07c-.29.06-.57.22-.87.3a1.78,1.78,0,0,1-1.7-.67Z"/><path d="M46.59,37.71c.22-.34.43-.45.65-.37s.21.22.32.25a.36.36,0,0,0,.32-.11c.43-.35.85-.39,1.28.23v.1c-.43.61-.85.57-1.28.22a.36.36,0,0,0-.32-.11c-.11,0-.22.18-.32.25s-.43,0-.65-.36Z"/><path d="M46.45,36.37c.25-.33.5-.43.74-.34s.24.22.36.26a.45.45,0,0,0,.37-.11,1,1,0,0,1,1.46.27v.1a1,1,0,0,1-1.47.18.45.45,0,0,0-.37-.12c-.12,0-.25.17-.37.24s-.49-.05-.72-.38Z"/><path d="M45.94,34.72a1.1,1.1,0,0,1,1-.29,2.83,2.83,0,0,0,.47.29.72.72,0,0,0,.49-.08,1.57,1.57,0,0,1,2,.37v.1a1.56,1.56,0,0,1-2,.07.86.86,0,0,0-.49-.14,3.24,3.24,0,0,0-.53.21,1,1,0,0,1-1-.43Z"/><path d="M52.31,47.22a1.7,1.7,0,0,1,1.35-.51,7,7,0,0,0,.71.21,1.43,1.43,0,0,0,.69-.14,2.65,2.65,0,0,1,2.77.32v.1a3.11,3.11,0,0,1-2.75.13,1.38,1.38,0,0,0-.69-.09,4.82,4.82,0,0,0-.66.3,1.89,1.89,0,0,1-1.4-.22Z"/><path d="M53.19,49.19a1,1,0,0,1,.94-.44,5.49,5.49,0,0,0,.51.21.9.9,0,0,0,.48-.15,1.5,1.5,0,0,1,2,0V49a1.54,1.54,0,0,1-1.93.39.66.66,0,0,0-.49-.07,3,3,0,0,0-.47.29,1,1,0,0,1-1-.28Z"/><path d="M54.21,54.65A1.63,1.63,0,0,1,55.4,54a5.43,5.43,0,0,0,.69.09,1.47,1.47,0,0,0,.6-.27,2.59,2.59,0,0,1,2.6-.44l0,.1a2.59,2.59,0,0,1-2.49.86,1.26,1.26,0,0,0-.67.06,6.7,6.7,0,0,0-.58.4,1.62,1.62,0,0,1-1.36,0Z"/><path d="M54.52,56.32a1.27,1.27,0,0,1,1-.71,4.62,4.62,0,0,0,.63.06,1,1,0,0,0,.53-.27A1.89,1.89,0,0,1,59,55.15l0,.1a2.27,2.27,0,0,1-2.19.68,1,1,0,0,0-.58,0c-.18.09-.31.29-.48.41a1.29,1.29,0,0,1-1.2,0Z"/><path d="M60.61,42.35A1.19,1.19,0,0,0,61,43.43c.22.23.69.23,1.22.71a1,1,0,0,1,.2,1,4.33,4.33,0,0,1-.42.69,1.26,1.26,0,0,0-.1,1.27,8.82,8.82,0,0,0,.59,1.16c.09.09.15.1.37.16a4.29,4.29,0,0,1,.69.23,10.79,10.79,0,0,1,2.6,1.48l0,.09a11.7,11.7,0,0,1-2.86-.56l-.68-.26a1.5,1.5,0,0,1-.83-.61,3.42,3.42,0,0,1-.36-1.59,2.8,2.8,0,0,1,.35-1.52,1.58,1.58,0,0,0,.16-.65.31.31,0,0,0-.22-.3,3.24,3.24,0,0,1-1.24-.81,1.28,1.28,0,0,1,.06-1.64Z"/><path d="M69.43,37.89a2.83,2.83,0,0,0,.79,1.19,12.51,12.51,0,0,0,1.19.82A1.46,1.46,0,0,1,72,41.59a1.49,1.49,0,0,0,.18,1.4,10.85,10.85,0,0,1,1.59,2.75,8.32,8.32,0,0,1,.52,3.17l-.1,0c-.55-.94-1-1.87-1.4-2.8s-.77-1.86-1.11-2.92a3.26,3.26,0,0,1,0-1.67c.06-.55-.25-.79-.68-.95a3.1,3.1,0,0,1-1.33-1,1.93,1.93,0,0,1-.3-1.68Z"/><path d="M78.26,39.93a3.81,3.81,0,0,1,.49.93c0,.14.08.32.13.43s0,0,0,.09a3.92,3.92,0,0,0,.92.32,4.59,4.59,0,0,0,1,0,1.21,1.21,0,0,1,1.2.55,2.29,2.29,0,0,1,.3,1.2,2.6,2.6,0,0,1-1,2l-.09,0a12.33,12.33,0,0,0,0-1.91,4,4,0,0,0-.06-.78c0-.14-.16-.3-.47-.44a2.43,2.43,0,0,0-1-.19c-.38,0-.61.17-1.11.16a.8.8,0,0,1-.64-.61A1.83,1.83,0,0,1,78,41a3.23,3.23,0,0,1,.16-1.07Z"/><path d="M81.27,48.53a7.49,7.49,0,0,1,.11,1.63c0,.22,0,.66,0,.66s.14.07.37.2c.44.32.83.68,1.31,1a.48.48,0,0,1,.22.49l-.08.41a7,7,0,0,0-.12.8c0,.5-.19,1.32,0,1l.72.32.36.17a1.41,1.41,0,0,1,.51.37.89.89,0,0,1,.1.84,3.34,3.34,0,0,1-.15.38l-.3.75A12.63,12.63,0,0,1,83.49,59l-.1,0a11.11,11.11,0,0,1,.12-1.64l.14-.79c0-.13,0-.27.08-.39s0-.06,0,.07,0,0-.16-.07l-.35-.19-.7-.42c-.18-.18-.41-.23-.48-.62a1.34,1.34,0,0,1,.12-.57c.09-.25.22-.49.33-.74a6.9,6.9,0,0,0,.3-.75c.08-.28.22-.49,0-.55-.46-.21-1-.33-1.51-.52-.13-.06-.24-.09-.39-.17A.86.86,0,0,1,80.5,51a2.44,2.44,0,0,1,.13-.94,8.4,8.4,0,0,1,.54-1.55Z"/><path d="M106.22,41.47a3.61,3.61,0,0,1,1.14.38,1.27,1.27,0,0,0,.52.34c.21.06.44,0,.74.06a1,1,0,0,1,.69.62,2.46,2.46,0,0,1,.18.68v1.24l-.08.06a1.56,1.56,0,0,1-1-1.13c-.08-.53,0-.73-.08-1a.56.56,0,0,0-.51-.21,4.2,4.2,0,0,1-.75.12,1.13,1.13,0,0,1-1-1.1Z"/><path d="M111.15,46.65c.22-.33.48-.42.69-.31s.19.25.29.31a.44.44,0,0,0,.35,0,.76.76,0,0,1,1.13.71l-.06.09c-.66.32-.92.17-1.22-.28a.33.33,0,0,0-.27-.18c-.11,0-.23.14-.34.2s-.37-.08-.58-.41Z"/><path d="M111.64,40.85a4,4,0,0,1,.46.95c.07.12.07.13,0,.09l.23,0a6.4,6.4,0,0,0,1,.06l.27,0a.36.36,0,0,1,.35.21c.08.19.15.32.23.48a1.7,1.7,0,0,0,.44.67,2.59,2.59,0,0,0,.65.09,2.56,2.56,0,0,1,1.79,1.27l-.06.09a12.66,12.66,0,0,0-1.83-.32A1.59,1.59,0,0,1,114,44a1.44,1.44,0,0,1-.3-1.15,2.53,2.53,0,0,0,0-.49c0-.08-.05-.07-.25,0s-.59.3-1,.44a1,1,0,0,1-.74-.08.83.83,0,0,1-.39-.76,3.19,3.19,0,0,1,.2-1Z"/><path d="M120.29,46.91a3.8,3.8,0,0,1,1.16,1.18,1.85,1.85,0,0,0,.42.68,1.3,1.3,0,0,0,.78.2,1.26,1.26,0,0,1,1,.47,2.58,2.58,0,0,1,.43.87,4,4,0,0,1,.23,1.68l-.08,0a4,4,0,0,1-1.15-1.4c-.22-.61-.12-.8-.59-1.16a13.9,13.9,0,0,0-1.64-.84A2,2,0,0,1,120.2,47Z"/><path d="M138.66,44.89a11.91,11.91,0,0,1-2.07,1,4.52,4.52,0,0,0-1.1.39,4.82,4.82,0,0,0-.92.78l-1.78,1.47a7.76,7.76,0,0,1-2.14,1.11l-.07-.08a7.83,7.83,0,0,1,1.55-1.86,5.41,5.41,0,0,1,2.17-1.11,3.6,3.6,0,0,0,1-.57,10.7,10.7,0,0,1,.91-.86,3.09,3.09,0,0,1,2.43-.38Z"/><path d="M121.9,43.63c.92.1,1.62-.46,2.73-.35a5.54,5.54,0,0,1,1.39.59,2,2,0,0,0,1.3.11,26.66,26.66,0,0,1,2.68-.6,27.42,27.42,0,0,1,2.77-.18l0,.09a6.35,6.35,0,0,1-2.63,1.13,9.94,9.94,0,0,1-2.84.11,9.22,9.22,0,0,1-1.42-.36,3.07,3.07,0,0,0-1.3-.07,10.36,10.36,0,0,1-1.33.11,1.86,1.86,0,0,1-1.43-.49Z"/><path d="M135.86,41.21c.11-.35.25-.47.39-.4s.16.21.23.24.14,0,.21-.13c.25-.37.53-.43.86.15v.1c-.24.64-.52.62-.83.29-.08-.08-.15-.13-.22-.09s-.13.19-.19.26-.29,0-.45-.32Z"/><path d="M42.71,27.42a38.64,38.64,0,0,0-10,3.54c-3.2,1.54-6.26,3.4-9.4,5.11a73.2,73.2,0,0,1-9.77,4.51C10.16,41.85,6.78,43,3.42,44.25l0-.33,6.94,1.33a27.8,27.8,0,0,1,3.51.78,2.27,2.27,0,0,1,1.43,1.41c.2.65.16,1.26.34,1.71.72,1.89,4.17,1.72,5.24,4.48a28.71,28.71,0,0,1,.8,3.5c.23,1.06.95,1.95,1.7,1.57a77.64,77.64,0,0,1,13-5.61,75.38,75.38,0,0,1,13.79-3.2l0,.1a97,97,0,0,0-13.55,3.84,104,104,0,0,0-12.85,5.83,1.91,1.91,0,0,1-2.18-.47,3.89,3.89,0,0,1-.89-1.81A30.08,30.08,0,0,0,20,54a4,4,0,0,0-2.28-2.12c-1-.52-2.32-1.07-2.83-2.46-.21-.67-.15-1.28-.29-1.75a1.58,1.58,0,0,0-1-1,28.9,28.9,0,0,0-3.36-.86l-6.9-1.54-.59-.13.57-.19c3.38-1.16,6.74-2.39,10-3.82a102.49,102.49,0,0,0,9.54-4.8c3.12-1.73,6.24-3.5,9.51-5a33.41,33.41,0,0,1,10.32-3Z"/><path d="M5.59,44.65a8.47,8.47,0,0,0,.47,1.71,1.68,1.68,0,0,0,1.05.93,5.24,5.24,0,0,1,1.69.93c.5.42.89.91,1.38,1.27,1.92,1.45,4.13,2.3,6.19,3.82l0,.09a12.08,12.08,0,0,1-3.61-1.1,8.5,8.5,0,0,1-2.94-2.43,6.29,6.29,0,0,0-1.18-1.4c-.49-.36-1.07-.27-1.74-.39a2,2,0,0,1-1.54-1.47,3.52,3.52,0,0,1,.16-2Z"/><path d="M15.21,41.76a19.34,19.34,0,0,1,4.05-1.53c.71-.15,1.44-.24,2.13-.45a11.24,11.24,0,0,0,2-.85,41.44,41.44,0,0,1,7.94-3.42l.05.09a19.22,19.22,0,0,1-7.8,3.84,16.56,16.56,0,0,0-2.07.65c-.68.27-1.32.64-2,.93a12.92,12.92,0,0,1-4.28.83Z"/><path d="M15.36,44.27a4.16,4.16,0,0,1,2.45-1.18c.45,0,.92,0,1.36,0a5.32,5.32,0,0,0,1.28-.36c1.68-.72,3.17-1.1,4.83-1.82l.07.07a4.16,4.16,0,0,1-2.1,1.82,7.4,7.4,0,0,1-2.69.46,5.32,5.32,0,0,0-1.33.14,11.2,11.2,0,0,0-1.24.52,10.72,10.72,0,0,1-2.58.47Z"/><path d="M19.05,48.8a2.08,2.08,0,0,1,1.52-1.15c.32,0,.65,0,1,0a2.46,2.46,0,0,0,.85-.33,12,12,0,0,1,1.6-.75l1.69-.5.07.07a2.54,2.54,0,0,1-1.36,1.41,4.33,4.33,0,0,1-1.87.3,2.45,2.45,0,0,0-.9.11,4.86,4.86,0,0,0-.78.49,5,5,0,0,1-1.72.45Z"/><path d="M22.44,51.48a2.87,2.87,0,0,1,1.18-.84,6.67,6.67,0,0,0,.78-.12,3.26,3.26,0,0,0,.67-.38,3.23,3.23,0,0,1,1.44-.5c.47,0,.77.09,1.25-.19l.09,0a.92.92,0,0,1-.38.85,2.32,2.32,0,0,1-.79.36,5.32,5.32,0,0,1-1.45,0,1.18,1.18,0,0,0-.69.16,5.77,5.77,0,0,0-.54.56,1.55,1.55,0,0,1-1.54.21Z"/><path d="M87.23,49.28a14,14,0,0,1,.41,2.93l-.14-.31c0,.11.53-.08,1.06-.32a4,4,0,0,1,.86-.32.92.92,0,0,1,1,.3c.35.57.18,1.35.6,1.34a3.29,3.29,0,0,0,1.37-.55A6,6,0,0,1,94,51.62a3.26,3.26,0,0,1,1.91.3c1.1.45,1.93,1.24,3,.94l0,.08a2,2,0,0,1-1.76.39c-.6-.12-1.15-.34-1.66-.47a3.32,3.32,0,0,0-1.41-.21,5.69,5.69,0,0,0-1.47.48,3,3,0,0,1-1.87.24.93.93,0,0,1-.54-.88,1.47,1.47,0,0,0-.17-.74c-.33-.36-.8.08-1.21.42a3.24,3.24,0,0,1-.77.52,1.12,1.12,0,0,1-1.25-.16l-.15-.15v-.16a14.07,14.07,0,0,1,.36-2.94Z"/><path d="M96.92,48.07a1.59,1.59,0,0,1,1.83-.9c.35.1.64.31,1,.43a4.25,4.25,0,0,0,1,.23,12.22,12.22,0,0,1,1.81.47,9,9,0,0,0,1.7.52l0,.1a2.24,2.24,0,0,1-2,.39,4.88,4.88,0,0,1-1.72-1,1.89,1.89,0,0,0-.82-.42,2.8,2.8,0,0,0-.92.08,9.63,9.63,0,0,0-1.7.15Z"/><path d="M62.05,32.8a2.88,2.88,0,0,1,2.09-1.35c.43,0,.85.05,1.25,0a4.44,4.44,0,0,0,1.18-.25,22.86,22.86,0,0,1,4.63-.84l0,.08a4,4,0,0,1-2.18,1.25,7.69,7.69,0,0,1-2.44.05,3.94,3.94,0,0,0-1.19,0,6.71,6.71,0,0,0-1.1.46,22.94,22.94,0,0,1-2.23.63Z"/><path d="M76.28,31.31c0-.33,0-.46.07-.4a1.39,1.39,0,0,0,.17.21s0,0,.06-.13c0-.38.12-.45.43.09l0,.1c.06.62-.07.62-.3.32-.06-.07-.1-.11-.12-.08a2.16,2.16,0,0,0,0,.28c0,.09-.13,0-.29-.29Z"/><path d="M24.86,17.07a38.19,38.19,0,0,0-9.24,2.67l-.06-.82c1.61.45,3.2,1,4.78,1.51l1.31.44L20.3,21c-1.58.09-3.17.22-4.74.43a5.38,5.38,0,0,0-2.18.7,2.31,2.31,0,0,0-1.14,1.71l-.19-.33a7.89,7.89,0,0,0,2.59-.07l2.75-.27c1.83-.21,3.67-.38,5.5-.55,3.67-.36,7.34-.7,11-.95v.1A96.48,96.48,0,0,1,23,23.58c-1.84.22-3.68.39-5.53.49l-2.77.16a7.28,7.28,0,0,1-2.9-.18L11.57,24l0-.24a2.85,2.85,0,0,1,1.55-2,6.68,6.68,0,0,1,2.36-.66c1.58-.17,3.15-.36,4.72-.62l0,.51c-1.63-.36-3.27-.73-4.88-1.18l-1.2-.32,1.14-.5a25.44,25.44,0,0,1,4.7-1.5A21.85,21.85,0,0,1,24.85,17Z"/><path d="M12.73,24.26a38.05,38.05,0,0,0,12,.7c4-.09,8.06-.54,12.13-.7a23.36,23.36,0,0,1,6.12.52c2,.44,3.93,1,5.87,1.39a12.22,12.22,0,0,0,5.77-.2,10.84,10.84,0,0,0,2.6-1.37,5,5,0,0,1,2.89-1v.1c-2.05.24-3.16,2.26-5.22,3a11.55,11.55,0,0,1-6.21.48c-2.05-.32-4-1-5.92-1.48a29.91,29.91,0,0,0-5.91-.89c-4-.29-8,.47-12.06,1s-8.3.25-12-1.43Z"/><path d="M56.64,26.52a5.16,5.16,0,0,1-3.26,1.3l0-.81a29.86,29.86,0,0,1,5.17.48,23.84,23.84,0,0,0,5.14,0,6.79,6.79,0,0,0,2.3-.77,13.39,13.39,0,0,1,2.46-1,24.58,24.58,0,0,1,5.16-.9l0,.09c-1.62.68-3.28,1.15-4.86,1.76-.8.3-1.57.61-2.36.94a6.61,6.61,0,0,1-2.66.66A18.75,18.75,0,0,1,61.14,28a22.36,22.36,0,0,0-2.59-.15,30,30,0,0,1-5.19,0l0-.81a7.22,7.22,0,0,0,3.2-.57Z"/><path d="M68.91,28.23a25.66,25.66,0,0,1,5.67-.17c.94.1,1.88.28,2.82.32a22.13,22.13,0,0,0,2.82-.06,44.69,44.69,0,0,1,11.31.42v.1a44.22,44.22,0,0,1-11.32,0,24.24,24.24,0,0,0-2.82-.16c-1,0-1.9.15-2.84.18a26.18,26.18,0,0,1-5.64-.55Z"/><path d="M30.56,17.91A2.24,2.24,0,0,1,32.8,18c.32.21.57.5.87.71a3.39,3.39,0,0,0,1,.41c.7.16,1.34.35,2,.45a4.51,4.51,0,0,0,1.93.14l.06.09a2.23,2.23,0,0,1-2.17.81,4,4,0,0,1-2-1,3.28,3.28,0,0,0-.89-.61,5.24,5.24,0,0,0-1-.24c-.66-.18-1.18-.45-1.9-.71Z"/><path d="M40,20.41a7.74,7.74,0,0,1,4.2-1.2c.74,0,1.46.17,2.18.24s1.45.06,2.17.06A25.25,25.25,0,0,1,57,21.11v.1a26.53,26.53,0,0,1-8.53-1.16,9.48,9.48,0,0,0-2.12-.28,13.81,13.81,0,0,0-2.12.27L40,20.51Z"/><path d="M55.17,21.47A141.71,141.71,0,0,1,70,21.73c4.93.47,9.86.94,14.82,1.09a214,214,0,0,1,29.55,3.11V26c-9.91-.59-19.74-1.59-29.58-2.67A136.06,136.06,0,0,0,70,22.55c-4.94-.19-9.88-.5-14.82-1Z"/><path d="M92.62,28.68a21,21,0,0,1,5.43-.15c.89.12,1.79.31,2.68.4a22.24,22.24,0,0,0,2.71.08,38.29,38.29,0,0,1,10.76,1.12v.09a43.33,43.33,0,0,1-10.79-.67,18.75,18.75,0,0,0-2.69-.29c-.9,0-1.81.07-2.71.09a26.51,26.51,0,0,1-5.38-.57Z"/><path d="M132.35,31.41a12.55,12.55,0,0,1-2.4-1.29L128.1,28.9l2.23.46c1,.22,2,.81,3,1.13a17.42,17.42,0,0,0,3.22.42,31.87,31.87,0,0,1,6.36,1.16v.1a15.1,15.1,0,0,1-6.52-.42c-1.06-.28-2.07-.74-3.13-.95a15.16,15.16,0,0,1-3.22-.62l.39-.75a12.06,12.06,0,0,1,1.95,1.9Z"/><path d="M117.37,24.7a22,22,0,0,1,7-.35,21.46,21.46,0,0,1,6.81,1.76c2.15,1,4.19,2.07,6.33,3a21.27,21.27,0,0,0,6.59,1.76l-.5.41a1.76,1.76,0,0,1,.7-1.24,3.69,3.69,0,0,1,1.09-.57c.36-.14.71-.24,1.06-.34a4,4,0,0,0,.72-.25s0,.14,0,.05a1.71,1.71,0,0,0-.24-.32l-.71-.79a18.58,18.58,0,0,0-1.5-1.45,5.78,5.78,0,0,0-3.65-1.55c-1.35,0-2.92.4-4.31-.23l0-.09c1.41.38,2.76-.24,4.26-.33a6.29,6.29,0,0,1,4.27,1.44A14,14,0,0,1,147,27.11l.74.8a2.37,2.37,0,0,1,.4.55,1,1,0,0,1-.1,1.07,2.41,2.41,0,0,1-1.24.58c-.35.09-.7.17-1,.28-.65.2-1.17.51-1.2,1l0,.46-.46,0a19,19,0,0,1-6.68-2.3A40.4,40.4,0,0,0,131,26.64a48.14,48.14,0,0,0-6.71-1.49,44.14,44.14,0,0,0-6.91-.35Z"/><path d="M142.69,26.1a8.84,8.84,0,0,1,3.65-3.77c1.78-.85,3.73.33,5.12-.09.7-.2,1.33-.89,1-1.36-.1-.3-.52-.54-.68-1.24a1.15,1.15,0,0,1,.31-.93c.18-.2.35-.34.46-.47s.16-.19-.09-.5-.66-.52-1-.75a4.83,4.83,0,0,0-2.17-1c-1.58-.28-2.69,1.39-4.37,2.16s-3.49.6-5.21.8c-3.47.28-6.92.67-10.37,1.08l-5.18.6a14.65,14.65,0,0,1-2.68.15,17.21,17.21,0,0,1-2.59-.66,12.7,12.7,0,0,0-5,0c-1.69.27-3.46.5-5.2.62-7,.46-14-.67-20.81-2l0-.1c6.91.69,13.84,1.52,20.71,1,1.72-.12,3.4-.39,5.14-.63a13.53,13.53,0,0,1,5.37.14c.83.21,1.65.58,2.43.69a14.39,14.39,0,0,0,2.53-.05l5.2-.38c3.47-.25,6.93-.5,10.39-.88,1.71-.21,3.52-.22,5-1a12,12,0,0,0,2-1.53,3.64,3.64,0,0,1,2.65-.95A5.66,5.66,0,0,1,152,16.27c.38.27.71.5,1.09.81a1.38,1.38,0,0,1,.49.8,1.18,1.18,0,0,1-.35.95c-.38.37-.63.58-.58.7s.35.51.6,1a1.52,1.52,0,0,1-.31,1.63,2.73,2.73,0,0,1-1.27.8,5.8,5.8,0,0,1-2.75-.2,4,4,0,0,0-2.41.05,9,9,0,0,0-3.75,3.34Z"/><path d="M88.43,17.71c4.38-.47,8.77-.7,13.16-.75s8.79.1,13.18-.25a243.8,243.8,0,0,1,26.35-.57v.1a249.28,249.28,0,0,1-26.35,1,131.8,131.8,0,0,0-13.17.53c-4.38.2-8.78.23-13.18,0Z"/><path d="M3.77.1A3.38,3.38,0,0,0,2.44.87c-.31.36-.31.8,0,1s.9.53,1.34.8.93.58,1.38.91l1.08.79L4.92,4.27a9.42,9.42,0,0,0-2.54.12l.05-.31c1.08.72,2.49.61,3.8.61s2.66.06,4,.12a49.43,49.43,0,0,1,7.91,1.06V6a49.28,49.28,0,0,1-8-.14c-1.33-.14-2.65-.28-4-.49a12.73,12.73,0,0,1-3.93-1L1.9,4.18l.4-.12a12.65,12.65,0,0,1,2.61-.57l-.2.72c-.49-.25-1-.53-1.43-.82a10.43,10.43,0,0,1-1.42-1,1.16,1.16,0,0,1-.33-1.08A1.55,1.55,0,0,1,2.07.48,2.88,2.88,0,0,1,3.75,0Z"/><path d="M1.83,5a8.78,8.78,0,0,1-.74,2.36L.71,6.73a19.66,19.66,0,0,1,2.63.4C4.21,7.22,5.11,7,6,7.06a13.67,13.67,0,0,1,2.64.27,11.15,11.15,0,0,1,2.53.87l0,.09a16.78,16.78,0,0,1-2.65,0A20.73,20.73,0,0,1,5.9,7.93a18.66,18.66,0,0,0-2.58-.5c-.88,0-1.76.27-2.63.18L0,7.53.31,7A8.9,8.9,0,0,1,1.74,5Z"/><path d="M1,7.33a12.83,12.83,0,0,1,.17,2c0,.41,0,.54.09.56a1.73,1.73,0,0,0,.7.18c.66.12,1.33.31,2,.39a11.23,11.23,0,0,0,2,0,22.66,22.66,0,0,1,8,.79l0,.09a22.31,22.31,0,0,1-8-.34,12.29,12.29,0,0,0-2-.25c-.67,0-1.34.09-2,.11A1.71,1.71,0,0,1,.7,10.61a1,1,0,0,1-.37-.74A2.84,2.84,0,0,1,.39,9.3a13.05,13.05,0,0,1,.5-2Z"/><path d="M7.87,11.49a3.23,3.23,0,0,1,1,1.67,3,3,0,0,1-.16,1.95l-.2-.27a4.6,4.6,0,0,0,1.88.28,13.31,13.31,0,0,1,1.9.07,8.46,8.46,0,0,1,1.87.35,9.8,9.8,0,0,1,1.81.7l0,.1a9.07,9.07,0,0,1-1.94.09,8,8,0,0,1-1.88-.26,13.58,13.58,0,0,1-1.83-.53,4.76,4.76,0,0,0-1.87-.33H8.27l0-.29c0-.6-.17-1.15-.2-1.71s-.15-1.13-.27-1.78Z"/><path d="M11,16.57a2.82,2.82,0,0,1-.37,1.77A7.55,7.55,0,0,0,10,19c-.16.27-.2.57,0,.58a4.19,4.19,0,0,1,1.64.49,2.37,2.37,0,0,1,1,1.63l-.08.05L11.08,21c-.22-.12-.44-.27-.67-.39A1.74,1.74,0,0,1,9.58,20a.71.71,0,0,1-.05-.63c.07-.17.15-.28.19-.42.08-.29.07-.62.12-.91a2.69,2.69,0,0,1,1-1.47Z"/><path d="M4.87.17c4.62,2.45,9.85,2.69,15,3.1a117.92,117.92,0,0,1,15.4,2.28c2.53.56,5.06,1.14,7.58,1.63a59.37,59.37,0,0,0,7.64.88c5.11.3,10.45.3,15.41,2l0,.09c-5.08-1.09-10.25-.79-15.45-1.07a42.37,42.37,0,0,1-7.76-1c-2.56-.55-5-1.33-7.53-2a45.6,45.6,0,0,0-7.58-1.59c-2.56-.31-5.15-.31-7.74-.41A48.6,48.6,0,0,1,12,3.23a18.84,18.84,0,0,1-7.21-3Z"/><path d="M22.14,7.53C27.56,8,33,8.68,38.31,9.53S49,11.47,54.41,12C65.21,13.27,76,14.8,86.62,17l0,.09c-10.84-1-21.57-2.59-32.27-4.49-5.34-1-10.73-1.64-16.13-2.22S27.46,8.75,22.13,7.63Z"/><path d="M63,9.7c3.94.4,7.84,1,11.72,1.73a93.79,93.79,0,0,0,11.66,2c7.85.86,15.66,1.88,23.42,3.41V17a157.16,157.16,0,0,1-23.49-3c-3.87-.82-7.79-1.3-11.72-1.75A97.82,97.82,0,0,1,63,9.8Z"/><path d="M21.89,11.22a31.3,31.3,0,0,1,6.84-.07c1.14.15,2.27.37,3.4.49s2.27.17,3.41.2a48,48,0,0,1,13.51,2L49,14a97.14,97.14,0,0,1-13.54-1.59A27.75,27.75,0,0,0,32.1,12c-1.13-.06-2.28,0-3.42,0a47.29,47.29,0,0,1-6.79-.66Z"/><path d="M35.08,15.36a29.7,29.7,0,0,1,6-.32c1,.08,2,.24,3,.28a27.69,27.69,0,0,0,3-.08,50,50,0,0,1,12,.32v.1a50.61,50.61,0,0,1-12.05.12,27.56,27.56,0,0,0-3-.14c-1,0-2,.17-3,.23a30.43,30.43,0,0,1-6-.41Z"/><path d="M64.52,16.36a6.3,6.3,0,0,1,2.76-.1c.45.11.89.29,1.34.37a5.23,5.23,0,0,0,1.37,0,10.57,10.57,0,0,1,5.43.73v.1a10.57,10.57,0,0,1-5.47-.29A6.17,6.17,0,0,0,68.59,17c-.46,0-.93.1-1.39.13a6.33,6.33,0,0,1-2.69-.62Z"/><path d="M74.07,18.82a1.42,1.42,0,0,1,1.24-.25,3.61,3.61,0,0,0,.58.31,1.08,1.08,0,0,0,.61-.05,2.23,2.23,0,0,1,2.39.46v.1a2.23,2.23,0,0,1-2.43,0,1.21,1.21,0,0,0-.59-.17,5,5,0,0,0-.63.19,1.38,1.38,0,0,1-1.17-.47Z"/><path d="M105.06,20.93c3.07.2,6.08.45,9.11.68a34.81,34.81,0,0,0,9.12.09c3-.36,6-.92,9.07-1.23a23.34,23.34,0,0,1,9.19.53l0,.1a43.55,43.55,0,0,0-9.06.38,73.15,73.15,0,0,1-9.14.76c-3.07,0-6.12.15-9.2.19a36.25,36.25,0,0,1-9.08-1.4Z"/><path d="M124.1,23.59a15.59,15.59,0,0,1,4.41-.22c.73.09,1.46.26,2.19.32a14.69,14.69,0,0,0,2.2,0,27.07,27.07,0,0,1,8.79.5v.1a27.13,27.13,0,0,1-8.81-.06,13.39,13.39,0,0,0-2.19-.18c-.73,0-1.47.13-2.21.18a15.9,15.9,0,0,1-4.38-.51Z"/><path d="M138.25,27.22a4.81,4.81,0,0,1,2.42.09c.38.14.75.36,1.13.47a4.37,4.37,0,0,0,1.2.11A8.1,8.1,0,0,1,147.66,29l0,.1a8.17,8.17,0,0,1-4.74-.67,4.4,4.4,0,0,0-1.16-.34c-.4,0-.82,0-1.22,0a4.93,4.93,0,0,1-2.29-.8Z"/><path d="M55.21,18.42a60.26,60.26,0,0,1,8.6.76,58.81,58.81,0,0,0,8.54,1.25,106,106,0,0,1,17.09,2.45l0,.09a104.8,104.8,0,0,1-17.14-2,57.22,57.22,0,0,0-8.57-1,60.59,60.59,0,0,1-8.51-1.47Z"/><path d="M33.36,32.54c1.5-.25,2.43-1.42,4-2s3.26.51,4.48-.41c1.15-.75,2.3-2,3.84-2.46a7.49,7.49,0,0,1,4.63-.16v.1a16.33,16.33,0,0,0-4.25,1,13.16,13.16,0,0,0-1.93.93A9.14,9.14,0,0,1,42,30.62a5.18,5.18,0,0,1-2.34.11,3.19,3.19,0,0,0-2,.55c-.61.35-1.25.74-2,1.06a3.46,3.46,0,0,1-2.34.3Z"/><path d="M38.93,32.77a16.16,16.16,0,0,1,4.45-2c.79-.19,1.61-.3,2.39-.49a21.47,21.47,0,0,0,2.3-.78,24.78,24.78,0,0,1,9.51-1.92v.09a47.11,47.11,0,0,1-9.37,2.35,14.72,14.72,0,0,0-2.36.56c-.76.27-1.48.65-2.22,1A23.58,23.58,0,0,1,39,32.87Z"/><path d="M50.61,31.1a7.12,7.12,0,0,1,2.88-1.23c.52-.07,1.06-.07,1.57-.16a7.78,7.78,0,0,0,1.48-.49,13,13,0,0,1,6.1-1.17l0,.1a14.13,14.13,0,0,1-6,1.6,6.54,6.54,0,0,0-1.53.27c-.49.16-1,.44-1.43.64a8.92,8.92,0,0,1-3.07.53Z"/><path d="M60.36,29.87a1.73,1.73,0,0,1,1.24-.67,4.65,4.65,0,0,0,.73.08A1.38,1.38,0,0,0,63,29a2.82,2.82,0,0,1,2.71-.43v.1a2.75,2.75,0,0,1-2.59.86,1.44,1.44,0,0,0-.69.05,5.79,5.79,0,0,0-.6.41,1.8,1.8,0,0,1-1.42,0Z"/><path d="M34.61,36.93A6.54,6.54,0,0,1,37.12,36c.45,0,.91,0,1.35-.08a5.07,5.07,0,0,0,1.25-.46A11.74,11.74,0,0,1,44.84,34l0,.1a8.77,8.77,0,0,1-5,1.87,5.81,5.81,0,0,0-1.32.25c-.42.15-.82.4-1.23.57a5.53,5.53,0,0,1-2.69.22Z"/><path d="M37.75,38.87c.16-.38.38-.55.64-.53a1.77,1.77,0,0,0,.42.15.48.48,0,0,0,.33-.19,1,1,0,0,1,1.5-.15l0,.1a1,1,0,0,1-1.39.57.46.46,0,0,0-.38,0c-.12.06-.2.23-.3.33s-.49.09-.81-.17Z"/><path d="M33.53,47.25c1.28-.27,2.4-.7,3.68-.91s2.62-.09,3.89-.32a35.55,35.55,0,0,0,3.67-.72c1.21-.25,2.44-.57,3.75-.72l0,.1A12.79,12.79,0,0,1,45,46.33a10.19,10.19,0,0,1-3.92.23,7.11,7.11,0,0,0-1.9,0,12,12,0,0,0-1.81.59,6.69,6.69,0,0,1-3.87.21Z"/><path d="M34.52,49.31C35.71,49,36.64,48.4,37.8,48a28.64,28.64,0,0,1,3.65-.7,19.58,19.58,0,0,0,3.42-.45c.48-.14,1-.45,1.61-.69a1.7,1.7,0,0,1,1.91.34l-.06.08c-1.22-.4-1.79.72-3.11,1.26a7.63,7.63,0,0,1-3.77,0,3.82,3.82,0,0,0-1.75.07,8,8,0,0,0-1.57.85,5,5,0,0,1-3.61.67Z"/><path d="M36.15,51.81A7.17,7.17,0,0,1,39,50.37c.54-.1,1.09-.11,1.62-.2s1-.25,1.56-.4a21.85,21.85,0,0,1,3.11-.51,7.7,7.7,0,0,0,1.44-.3,3.43,3.43,0,0,1,1.66-.15v.1a8.18,8.18,0,0,0-1.35.76,4.85,4.85,0,0,1-1.58.63,15,15,0,0,1-3.21,0,4.83,4.83,0,0,0-1.56.17,10.94,10.94,0,0,0-1.43.67,9.8,9.8,0,0,1-3.08.75Z"/><path d="M64.55,50.8A7.14,7.14,0,0,1,66,53.37l.15.74a.57.57,0,0,1-.12.56,3.22,3.22,0,0,1-.29.26,4.28,4.28,0,0,0-.86,1.14,1.78,1.78,0,0,0-.22,1.13,2.55,2.55,0,0,0,.66.93A2.48,2.48,0,0,1,66,59.66c0,.54-.11,1,.12,1.38l-.07.07c-.54-.24-.66-.92-.81-1.31a2.45,2.45,0,0,0-.71-1,2.49,2.49,0,0,1-.81-1.52,2,2,0,0,1,.71-1.56,13.27,13.27,0,0,0,1.07-1,1.74,1.74,0,0,0,.19-.28c0-.07,0-.07-.07-.13l-.39-.62a7.12,7.12,0,0,1-.75-2.84Z"/><path d="M76.91,50.73a7.91,7.91,0,0,0,.25,1.14,2.68,2.68,0,0,0,.52.79c.49.64,1,1.39,1.52,2.06a6.8,6.8,0,0,1,1,2.3c.17.8.27,1.55.41,2.4l-.09,0a4.52,4.52,0,0,1-1.34-2.17c-.22-.8-.34-1.57-.48-2.36a2.16,2.16,0,0,0-.53-1,5.84,5.84,0,0,0-1.05-.63A1.7,1.7,0,0,1,76.4,52a2.16,2.16,0,0,1,.41-1.29Z"/><path d="M80.13,31a17.33,17.33,0,0,0,2.15.42,3.41,3.41,0,0,0,1,.06c.2,0,.37-.19.68-.46a3.51,3.51,0,0,1,2.3-.73c.76,0,1.53,0,2.28.05a10.2,10.2,0,0,0,2.11-.14,6.84,6.84,0,0,0,1.85-.9,5.48,5.48,0,0,1,2.26-.78,7,7,0,0,1,2.3.29v.1a17.16,17.16,0,0,0-2.17.38,6.4,6.4,0,0,0-1.85.92,5.49,5.49,0,0,1-2.23.9,5.88,5.88,0,0,1-2.35-.24,5.83,5.83,0,0,0-2.18-.26,2.5,2.5,0,0,0-1.73,1,1.82,1.82,0,0,1-1.15.75,3.38,3.38,0,0,1-1.25-.17,5.66,5.66,0,0,1-2-1.09Z"/><path d="M94,31.43a5,5,0,0,1,1.56-.19,3.21,3.21,0,0,0,.81.15,1.75,1.75,0,0,0,.75-.3,5,5,0,0,1,1.51-.7,2.71,2.71,0,0,1,1.74.19v.1a5,5,0,0,1-3.11.93,2.93,2.93,0,0,0-.84.09c-.26.09-.52.28-.81.37A1.66,1.66,0,0,1,94,31.52Z"/><path d="M104.45,35.29a5,5,0,0,1,1.18.5c.38.13.14.19.58-.07a4.52,4.52,0,0,1,2.65-.38,1.29,1.29,0,0,0,.89-.23c.22-.17.42-.54.83-.86a2.54,2.54,0,0,1,2.66-.32V34a4.44,4.44,0,0,0-2,1,6.9,6.9,0,0,1-1,.84,1.62,1.62,0,0,1-1.52,0,1.83,1.83,0,0,0-1.14-.23,1.63,1.63,0,0,0-.85.7,1.19,1.19,0,0,1-.75.44.74.74,0,0,1-.51-.14,1.4,1.4,0,0,1-.33-.25,5,5,0,0,1-.77-1Z"/><path d="M134.59,51.05a7,7,0,0,1,.8-2.67,1.94,1.94,0,0,1,1.25-1,5.47,5.47,0,0,1,1.46.17.76.76,0,0,0,.83-.39c.24-.33.47-.73.75-1.1a3.34,3.34,0,0,1,2.47-1.53l0,.09a7.42,7.42,0,0,0-1.64,2.06,8.32,8.32,0,0,1-.92,1.11,1.49,1.49,0,0,1-.82.45,1.39,1.39,0,0,1-.86-.17c-.43-.22-.84-.5-1.22-.38s-.47.58-.57,1a5.91,5.91,0,0,1-1.48,2.39Z"/><path d="M142.84,47.61c.17.12.3-.07.2-.11s0-.1.14-.21a1.69,1.69,0,0,1,.67-.27,5,5,0,0,1,.66-.05c.46,0,.67,0,.93,0a3.11,3.11,0,0,0,.9.17l.07.07a1,1,0,0,1-1,.82,1.4,1.4,0,0,1-1.07-.57c-.11-.13-.26-.22-.37-.15s0,.25-.09.43a.76.76,0,0,1-.62.48c-.43.06-.76-.42-.49-.67Z"/><path d="M64.17,28.47a26.82,26.82,0,0,1,3.92-.39A7.44,7.44,0,0,0,70,27.93,4.84,4.84,0,0,0,71.74,27a6.75,6.75,0,0,1,1.79-1.07,6.83,6.83,0,0,1,2.07-.32,12.39,12.39,0,0,0,3.76-.7l0,.08a6,6,0,0,1-3.75,1.68,10.54,10.54,0,0,0-1.86.15,14.71,14.71,0,0,0-1.79.66,34.08,34.08,0,0,1-3.82,1.42,8.73,8.73,0,0,1-4-.33Z"/><path d="M72.09,27.3a15.68,15.68,0,0,1,3.67.32,3.92,3.92,0,0,0,1.77,0,6,6,0,0,0,1.59-.93,5.23,5.23,0,0,1,3.79-.88,15.46,15.46,0,0,0,3.64.28l0,.1a6.11,6.11,0,0,1-3.75.68,7.21,7.21,0,0,0-3.46.3,12.39,12.39,0,0,1-3.65,1.24,8.93,8.93,0,0,1-3.66-1Z"/><path d="M83,28.32a1.57,1.57,0,0,1,1.21-.49,3.81,3.81,0,0,0,.65.15,1.08,1.08,0,0,0,.6-.22,2.6,2.6,0,0,1,2.49-.4l0,.09a2.25,2.25,0,0,1-2.42.84,1.3,1.3,0,0,0-.65,0,6,6,0,0,0-.59.34A1.44,1.44,0,0,1,83,28.42Z"/><path d="M14.94,13a20.23,20.23,0,0,1,1.14,3.16c.18.55.18.49.67.46s.93-.38,1.49-.56,1-.46,1.58-.67a.88.88,0,0,1,.92.26,2.49,2.49,0,0,0,.6.49c.91.39,1.84-.12,2.76-.7l.31-.19.29.29a7.85,7.85,0,0,0,2.51,2,11.66,11.66,0,0,0,3.32.42V18a6.66,6.66,0,0,1-3.59.35,5.5,5.5,0,0,1-3-2.17l.6.09a6,6,0,0,1-1.66.66,2.34,2.34,0,0,1-1.85-.37c-.54-.43-.67-1.06-1.17-.89a6.66,6.66,0,0,0-1.43.78,10.27,10.27,0,0,1-1.48.94,1.29,1.29,0,0,1-1.17-.07,1.4,1.4,0,0,1-.56-1A20.35,20.35,0,0,1,14.84,13Z"/><path d="M18.6,13a29,29,0,0,0,4.65-.26c1.59,0,3.25,0,4.8.05a7.76,7.76,0,0,0,2.27-.25,15.63,15.63,0,0,1,2.38-.45,12.05,12.05,0,0,1,4.81.55v.09c-1.61.11-3.16.21-4.69.41-.77.1-1.52.19-2.32.31A5.39,5.39,0,0,1,28,13.34a7.9,7.9,0,0,0-2.35-.24,17.17,17.17,0,0,0-2.33.47,7.19,7.19,0,0,1-4.78-.47Z"/><path d="M13.37,7.4a9,9,0,0,1,4.08,1.16,8.12,8.12,0,0,0,1.87.86,3.52,3.52,0,0,0,2-.07,8.05,8.05,0,0,1,4.23-.66,23.23,23.23,0,0,1,4.19.65v.1a23.24,23.24,0,0,1-4.23.31,13.89,13.89,0,0,0-4.07.13,8.73,8.73,0,0,1-2.18-.14,14.07,14.07,0,0,1-2.13-.42,38.74,38.74,0,0,1-3.78-1.83Z"/><path d="M114.88,27.29A2.71,2.71,0,0,1,117,28.6a6.38,6.38,0,0,1,.29,1.25,2.22,2.22,0,0,0,.59,1c.28.27.56.51.84.74l.21.16c.08,0-.11-.08-.28,0s.06-.06.12-.12l.26-.2A2.43,2.43,0,0,1,120.4,31a1.26,1.26,0,0,1,1.15.73l-.08.07a1.66,1.66,0,0,0-1.8.48l-.21.16a2.22,2.22,0,0,1-.35.24.76.76,0,0,1-.81-.19l-.22-.24a3.32,3.32,0,0,1-.64-1.11c-.15-.39-.27-.79-.43-1.15a3.23,3.23,0,0,0-.68-.91c-.42-.51-1-1-1.5-1.67Z"/><path d="M117.42,26.28a14.42,14.42,0,0,1,2.15,2.29c.23.32.65.34,1.21.08a2.86,2.86,0,0,1,1.74-.15A2.37,2.37,0,0,1,124,29.6a1,1,0,0,0,.41.38c.13,0,.37,0,.6.06a2.81,2.81,0,0,1,2.5,2.34l-.09,0a3.4,3.4,0,0,0-2.49-1.32,3.28,3.28,0,0,1-1-.2,2.05,2.05,0,0,1-.71-.79,2.46,2.46,0,0,0-.85-1.1,1.41,1.41,0,0,0-1.42-.07,5.27,5.27,0,0,1-.77.44,1.29,1.29,0,0,1-1-.14,3.62,3.62,0,0,1-1.1-1.37,8.69,8.69,0,0,1-.65-1.53Z"/><path d="M122.25,26.84a1.6,1.6,0,0,1,1.51-.3c.24.12.46.31.68.41a2.27,2.27,0,0,0,.75.13,2.34,2.34,0,0,1,2.31,1.83l-.08.07a5,5,0,0,1-2.43-1.4,1.35,1.35,0,0,0-.63-.32,3.57,3.57,0,0,0-.73.1,2.45,2.45,0,0,1-1.37-.42Z"/><path d="M127.76,18.05a34.73,34.73,0,0,1,5.58-1c.95,0,1.9-.06,2.84-.18a18.76,18.76,0,0,0,2.77-.61c.91-.26,1.78-.6,2.67-.85L143,15c.44-.16.85-.38,1.28-.56a21.92,21.92,0,0,1,2.72-1,2,2,0,0,1,1.6.32,1.21,1.21,0,0,1,.48,1.42l-.09,0a1,1,0,0,0-.66-1,1.5,1.5,0,0,0-1.14,0c-.76.29-1.62.85-2.5,1.22a13,13,0,0,1-1.34.55l-1.41.32a20.09,20.09,0,0,1-2.84.49c-1,.1-1.89.22-2.82.4s-1.84.48-2.77.68a21.3,21.3,0,0,1-5.7.27Z"/><path d="M142.44,20.51a6.94,6.94,0,0,1,2.33-1,5.21,5.21,0,0,0,1.23-.22,2.6,2.6,0,0,0,1-.73,9.92,9.92,0,0,1,1.77-1.86,2.37,2.37,0,0,1,2.69-.14l0,.09a3.62,3.62,0,0,0-2,.91A13.62,13.62,0,0,1,147.31,19c-.4.2-.8.38-1.17.59s-.72.51-1.11.72a4.5,4.5,0,0,1-2.57.27Z"/><path d="M144.59,21.53a2.45,2.45,0,0,1,1.9-1.16c.39,0,.77.11,1.14.14a10.09,10.09,0,0,0,1.1,0,9,9,0,0,1,2.07.33,2.08,2.08,0,0,0,1.73-.21l.09.05c-.09.89-1.19,1.33-2,1.2a7,7,0,0,1-2-.84,1.94,1.94,0,0,0-1-.21,3.69,3.69,0,0,0-1,.35,11,11,0,0,1-2,.43Z"/><path d="M144.52,43.29a2.19,2.19,0,0,1,1.57-.29,5.4,5.4,0,0,0,.76.29c.23,0,.49,0,.56-.21a1.31,1.31,0,0,1,.6-.71,2.34,2.34,0,0,1,.9-.22,2.16,2.16,0,0,0,.57,0c.18,0,.37,0,.49-.31l.1,0c.26.26.08.76-.17,1a1.59,1.59,0,0,1-.91.41c-.27,0-.48,0-.63,0a1.78,1.78,0,0,0-.6.26c-.33.18-.66,0-.92.11a7.1,7.1,0,0,0-.79.22,2.21,2.21,0,0,1-1.54-.44Z"/><path d="M142,41.29c.71-.66,1.07-1.41,1.8-2.1a7.83,7.83,0,0,1,2.63-1.39,1.75,1.75,0,0,0,.53-.28,3.25,3.25,0,0,1,.38-.44c.26-.38.51-.78.8-1.13A10.89,10.89,0,0,1,150.21,34l.08,0a10.62,10.62,0,0,1-1.37,2.55c-.29.38-.61.74-.93,1.09a6.33,6.33,0,0,1-.69.5,1.78,1.78,0,0,1-.82.13,1.84,1.84,0,0,0-1.29.3,4.1,4.1,0,0,0-.82,1.1A3.48,3.48,0,0,1,142,41.39Z"/><path d="M145.35,41a1.17,1.17,0,0,1,.75-1.36,2.81,2.81,0,0,1,.82,0,1,1,0,0,0,.6-.24c.25-.31.38-.63.66-1a1.75,1.75,0,0,1,1.36-.73l0,.09c-.23.49-.3.84-.54,1.25a2,2,0,0,1-1.3.9,3,3,0,0,0-.75.05,1,1,0,0,0-.49.42,8.51,8.51,0,0,1-1.05.67Z"/><path d="M9.16,47a2.74,2.74,0,0,1,2.1.36,6.1,6.1,0,0,1,1.62,1.31c.46.52.83,1.12,1.23,1.66s.87,1.05,1.32,1.57a11.47,11.47,0,0,1,2.14,3.53,10.69,10.69,0,0,1,.51,2c0,.21.07.28.44.35s.78,0,1,.41l-.07.07c-.28-.17-.56,0-.92,0a1.21,1.21,0,0,1-.64,0,1,1,0,0,1-.53-.54l-.76-1.85c-.48-1.23-1-2.42-1.61-3.62a6.88,6.88,0,0,0-1.11-1.66,13.5,13.5,0,0,0-1.55-1.28c-1.06-.81-1.84-1.85-3.16-2.16Z"/></g></g></svg>