<svg xmlns="http://www.w3.org/2000/svg" viewBox="0 0 102.95 129.04"><defs><style>.cls-1{fill:#00a7d9;}</style></defs><g id="Layer_2" data-name="Layer 2"><g id="Ingredients_Map" data-name="Ingredients Map"><path class="cls-1" d="M102.92,85.09l0-.15a1,1,0,0,0-.37-.35l-1.56-1a39.63,39.63,0,0,0-4-2.23c-.69-.32-1.36-.65-2.06-1a5.61,5.61,0,0,1-1.75-1.25,13.29,13.29,0,0,1-2.5-3.69,25.89,25.89,0,0,1-2.16-8.68c-.15-1.54-.24-3.12-.33-4.64s-.17-2.93-.3-4.42l-.07-.78-.53.58a4.59,4.59,0,0,0-1,2.91,24.11,24.11,0,0,0,.08,3A33.49,33.49,0,0,0,87.53,69a45.74,45.74,0,0,0,3.65,9.06l-2.29-1.83c-.44-.88-1.82-3.86-2.1-4.77a55.81,55.81,0,0,1-1.57-7.82v-.12c-.32-2.3-.56-4.63-.79-6.88l-.12-1.22a45.06,45.06,0,0,1-.2-8.11l.07-1-.52.92a13.77,13.77,0,0,0-1.39,4.29,26.65,26.65,0,0,0-.43,4.47,41.12,41.12,0,0,0,1,8.88,25.58,25.58,0,0,0,3.27,8.33,21.77,21.77,0,0,0,1.5,2.12c-2.34-2.07-4.8-4.3-5.94-6.22A50.69,50.69,0,0,1,77,58.84a45.88,45.88,0,0,1-2-11,44.92,44.92,0,0,1,.88-11.17l.33-1.58-.85,1.38A18.37,18.37,0,0,0,73,46.07a55.53,55.53,0,0,0,1,9.87,25.38,25.38,0,0,0,3.87,9.13c1.47,2.31,3.15,4.52,4.77,6.65l1.83,2.4-1.93-1.33a67.19,67.19,0,0,1-6.16-4.68,39.07,39.07,0,0,1-4-4.11,22,22,0,0,1-3.18-4.74A19.87,19.87,0,0,1,67.87,48c.59-4.41,2-7.93,4.31-10.45l1-1.12-.74.43h0l-.57.33a13.15,13.15,0,0,0-4.49,4.72,17.41,17.41,0,0,0-2.3,11.62l.46,3.07-1.17-2.87c-.67-1.64-1.38-3.21-2.17-4.8a16.63,16.63,0,0,1-.79-4.52,18.43,18.43,0,0,1,2-8.76,11.82,11.82,0,0,1,2.7-3.59,9.1,9.1,0,0,1,4-1.95c2.58-.57,5.49-.19,8.91,1.14l.11,0,.22-.47-.1,0c-2.49-1.47-5.17-2.9-8.1-3a9.69,9.69,0,0,0-7.79,3.63,13.93,13.93,0,0,0-3.48,7.93c0,.5-.07,1-.09,1.42l-.11,3L59,40.81c-.15-.71-.27-1.44-.35-2.16A29,29,0,0,1,59,31.33a34.88,34.88,0,0,1,1.85-7.12,10.36,10.36,0,0,1,1.9-3.1c.23-.27.48-.53.72-.79a14,14,0,0,0,1.7-2.06l.5-.78-.82.43a13.43,13.43,0,0,0-5.53,5.26,20.57,20.57,0,0,0-1.54,3.54c-.24.78-.45,1.6-.67,2.41l-.34,1.27a14.49,14.49,0,0,0-.37,2.93L56.28,36l-.66-2.56c-.39-1.5-.72-3-1-4.6a44.08,44.08,0,0,1-.59-7.64,32.25,32.25,0,0,1,.51-5.5c.11-.71.22-1.42.31-2.15l.1-.81-.54.66a15.46,15.46,0,0,0-3.23,7.27,23.45,23.45,0,0,0,.11,8,25.25,25.25,0,0,0,1.27,4.61l.74,2L52,33.58c-.38-.44-.76-.86-1.15-1.27a20,20,0,0,0-7.7-5.58l-.62-.22.29.59a10,10,0,0,0,2,2.52c.3.3.59.59.88.91l3,3.18c2.16,2.31,4.06,4.47,5.82,6.62a86.24,86.24,0,0,1,9.87,14.54l.18.41,1,2.24L64,55.67a20.45,20.45,0,0,0-3.78-3.45A21.72,21.72,0,0,0,55,49.47a24.72,24.72,0,0,0-5.7-1.32l-.51,0-.08-.22A51.18,51.18,0,0,1,47,42.31a66.23,66.23,0,0,1-1.56-9.38l-.05-.42-.34.25a3.38,3.38,0,0,0-1.1,2.4c-.1.84-.17,1.69-.21,2.51a31.1,31.1,0,0,0,.22,5,26.28,26.28,0,0,0,2.92,9.64,22.53,22.53,0,0,0,1.17,1.93l1.46,2.13L46.6,54c-.27-.21-.52-.44-.72-.62-.79-1-1.53-2.06-2.26-3.14A81.47,81.47,0,0,1,39.38,43a32.22,32.22,0,0,1-3-7.86L36,33.24l-.1,1.91a23.88,23.88,0,0,0,4.9,15.45l1.35,1.8L40.4,51.31c-.55-.43-1.11-.87-1.64-1.27a14.57,14.57,0,0,1-3.85-4.58,15.55,15.55,0,0,1-1.46-8.65,22.42,22.42,0,0,1,2-7.07l.12-2,.27,1.25c.1-.2.21-.41.33-.62a18.5,18.5,0,0,1,6-6.56l2-1.35-2.27.9A20.28,20.28,0,0,0,30.12,34.69a11.91,11.91,0,0,0-.39,4.63A10.19,10.19,0,0,0,30,40.68l.71,2.78L29.29,41l-.24-.45A28.65,28.65,0,0,1,26.93,35a19.82,19.82,0,0,1-.71-5.89c0-1,0-2.05,0-3.07a26.92,26.92,0,0,1,2.43-6.64l1.05-2.25c.22-.53.4-1.09.57-1.64l.23-.72a13.3,13.3,0,0,1,1.59-3.29c.21-.34.4-.67.59-1l.35-.61-.65.24a8.34,8.34,0,0,0-3.86,3.21,28.21,28.21,0,0,0-2.39,4.41,30.68,30.68,0,0,0-1.77,5.08l-.45,1.77-.29-1.81c-.07-.45-.15-.91-.24-1.35a60.31,60.31,0,0,0-2-7.8l-.45-1.38c-.67-2.06-1.35-4.17-2.22-6.2a21.77,21.77,0,0,0-1.9-3.57A12.44,12.44,0,0,0,15.56.89c-.24-.26-.48-.49-.74-.73A.67.67,0,0,0,14.34,0,.47.47,0,0,0,14,.26a.81.81,0,0,0,0,.66,68.75,68.75,0,0,1,2.59,9.22c.48,2,1,4.16,1.58,6.21a79.83,79.83,0,0,0,2.62,7.72l-.67.33a25.31,25.31,0,0,0-3.46-4.6,23,23,0,0,0-5.14-4.06,41.45,41.45,0,0,0-5.89-2.81l-1.86-.7,1.64,1.14a55.21,55.21,0,0,1,10.19,8.54,44.91,44.91,0,0,1,3.78,5.15l.15.22a20.65,20.65,0,0,0,4.15,4.87l.12.09,0,.14c.06.4.14.8.23,1.19l.41,1.84-1.08-1.54a35.67,35.67,0,0,0-3-3.74A26.23,26.23,0,0,0,15,25.61,23.41,23.41,0,0,0,8.6,22.77a20.84,20.84,0,0,0-7-.75L0,22.15l1.62.35L3,22.79a20,20,0,0,1,5.64,1.73,36.19,36.19,0,0,1,6.15,3.91c2.13,1.65,4,3.18,5.66,4.69.95.85,1.85,1.7,2.67,2.53L24.47,37a2.22,2.22,0,0,0,.55.44l.11.1.55.66a20.68,20.68,0,0,0,1.11,2,15.39,15.39,0,0,0,1.39,2.44L29,43.78l-1.28-.6c-.67-.31-1.34-.6-2-.85a45.78,45.78,0,0,0-10.42-2.72c-1.79-.28-3.6-.44-5.35-.6L9.27,39a8.91,8.91,0,0,0-4.71.45l-.66.32.72.12a90,90,0,0,1,11.8,2.67A89.63,89.63,0,0,1,27.7,46.79c2.88,1.32,5.73,2.75,8.73,4.38l-.31.68a47.42,47.42,0,0,0-4.62-1.43,68.12,68.12,0,0,0-9.41-1.82C19,48.24,15.65,48,12.53,49l-.93.32,1,.14,3,.4c2.55.34,5.1.67,7.6,1.16,3.49.61,7,1.39,10.41,2.32,4.27,1.16,8.58,2.57,12.82,4.18l3.2,1.33,1.11.48c.18.15.36.3.55.44l2.3,1.8-2.68-1.16c-2.32-1-4.3-1.77-6.23-2.42a71.91,71.91,0,0,0-9-2.51,21,21,0,0,0-9.33-.16L25,55.69l1.35.15A87.6,87.6,0,0,1,44.7,60.07c2.89,1,5.88,2.08,8.88,3.24l.86.34c1.16.45,2.36.92,3.52,1.45a14.1,14.1,0,0,0,4.32,1.33l.18.06a49.44,49.44,0,0,0,4.81,2.83l1.41.67c1.35.63,2.69,1.26,4,1.91l2.69,1.31-3.25-.67a37.35,37.35,0,0,0-4-.59c-.82-.07-1.65-.07-2.56-.07h-.17c-2.06-.32-3.9-.57-5.71-.76l-1.91-.22c-3-.33-6.09-.67-9.1-1.29s-6-1.13-8.9-1.76l-3.16-.67,1,.71A31.29,31.29,0,0,0,48,72.48c1.25.32,16.07,1.85,17.49,1.9,1.62.06,3.25.12,4.87.21a102.88,102.88,0,0,1,11.06,1.14l.46,0c1.48.44,2.92.74,4.31,1L87,77l.08.07c.38.39,1.34,1.1,1.57,1.39a5.77,5.77,0,0,0,1.32.88c-2.83-.66-5.11-1-8.47-1.61-3.74-.65-6.85-.79-9.69-1.06-2.67-.28-5.34-.48-7.94-.62l-.16,0a10.92,10.92,0,0,0-3.2-1.07l-8.66-.86c-.69,0-1.38,0-2.07,0A68.11,68.11,0,0,0,35.93,76l-.75.2.5.32h0l.15.09a2.83,2.83,0,0,0,1.73.35h.6l6.47-.08,2.82-.09c1.74-.05,3.48-.1,5.22-.18h.1l.1.05A11.53,11.53,0,0,0,57,77.71l4.86.52,9.71.93c6.68.61,12.87.94,18.91,1h.45l.19,0,.33.21c.83.53,1.63,1.15,2.4,1.74a30.38,30.38,0,0,0,2.59,1.86c.62.39,1.29.74,1.93,1.08a13,13,0,0,1,3.61,2.44l.41.43s.62-2.57.61-2.72ZM57.57,62A32.72,32.72,0,0,1,52.8,57c-1.74-2.23-2.65-5.66-3.86-8.23-.12,0,6,2.89,8.2,4.73s5.33,3.33,7.62,5.24c1.13.94,2.1,2.39,3.17,3.4,1.37,1.29,1.69,3,2.94,4.42a18.89,18.89,0,0,0,5.43,4.49C69.84,69.06,62.81,66.24,57.57,62Z"/><path class="cls-1" d="M37.1,98.08l-1.29-.79a5.81,5.81,0,0,1-1.74-1.46,2.79,2.79,0,0,1-.51-1.66,2.91,2.91,0,0,1,1-2.28A3.64,3.64,0,0,1,37.07,91a4.81,4.81,0,0,1,2.74.84v1.93A4,4,0,0,0,37,92.54a2.29,2.29,0,0,0-1.37.39,1.19,1.19,0,0,0-.53,1,1.52,1.52,0,0,0,.39,1,5,5,0,0,0,1.27,1l1.31.77A3.81,3.81,0,0,1,40.27,100a3,3,0,0,1-1,2.33,3.46,3.46,0,0,1-2.49.9,5.19,5.19,0,0,1-3.21-1.09V100a4,4,0,0,0,3.2,1.75,2,2,0,0,0,1.33-.45,1.42,1.42,0,0,0,.53-1.12C38.67,99.42,38.15,98.73,37.1,98.08Z"/><path class="cls-1" d="M42.18,107.07V95.23H44.9a4.68,4.68,0,0,1,3.25,1,3.7,3.7,0,0,1,1.16,2.9,4,4,0,0,1-1.09,2.9,3.7,3.7,0,0,1-2.79,1.14,4.73,4.73,0,0,1-1.66-.34v4.2Zm2.69-10.39h-1.1v4.82a3.14,3.14,0,0,0,1.5.37,2.29,2.29,0,0,0,1.78-.76,2.8,2.8,0,0,0,.69-2,2.74,2.74,0,0,0-.33-1.36,2,2,0,0,0-.89-.85A4,4,0,0,0,44.87,96.68Z"/><path class="cls-1" d="M56.29,98.36v3.33c0,.27.09.4.27.4a1.88,1.88,0,0,0,.88-.42v1a4.37,4.37,0,0,1-.85.46,1.67,1.67,0,0,1-.67.13c-.66,0-1.05-.26-1.17-.79a3.39,3.39,0,0,1-2.11.77,1.85,1.85,0,0,1-1.36-.54,1.82,1.82,0,0,1-.55-1.36,1.9,1.9,0,0,1,.54-1.33A3.6,3.6,0,0,1,52.78,99l2-.68v-.42a1.26,1.26,0,0,0-1.42-1.42,3.39,3.39,0,0,0-2.47,1.32v-1.7a3.22,3.22,0,0,1,2.6-1.07,3.06,3.06,0,0,1,2,.67,2.08,2.08,0,0,1,.46.57,2,2,0,0,1,.25.7A9.84,9.84,0,0,1,56.29,98.36Zm-1.52,3.16V99.19l-1,.4a3.43,3.43,0,0,0-1.13.64,1.09,1.09,0,0,0-.32.79,1.07,1.07,0,0,0,.31.8,1.09,1.09,0,0,0,.8.3A2,2,0,0,0,54.77,101.52Z"/><path class="cls-1" d="M60,91.93a.93.93,0,0,1,.66.26A.92.92,0,0,1,60,93.76a.92.92,0,0,1,0-1.83Zm-.76,3.3h1.55v7.84H59.2Z"/><path class="cls-1" d="M64.89,95.23v1a3.11,3.11,0,0,1,2.36-1.16,2.67,2.67,0,0,1,1.37.38,2.44,2.44,0,0,1,.95,1,5,5,0,0,1,.33,2.1v4.48H68.35V98.6A3,3,0,0,0,68,96.89a1.37,1.37,0,0,0-1.22-.52,2.24,2.24,0,0,0-1.87,1.1v5.6H63.31V95.23Z"/><path class="cls-1" d="M20.85,128.83a.25.25,0,0,1-.26-.16l-2-6.62c-.21,0-.44,0-.65,0H17a.13.13,0,0,0-.14.14v6.39a.22.22,0,0,1-.23.23H15.21a.22.22,0,0,1-.23-.23V113.22a.22.22,0,0,1,.23-.23H18c2.8,0,4.29,1.21,4.29,4.56,0,2.12-.7,3.41-1.94,4l2.22,7c.05.11,0,.23-.12.23Zm-.47-11.28c0-2.14-.7-2.82-2.38-2.82H17a.13.13,0,0,0-.14.14v5.36a.12.12,0,0,0,.14.14h1C19.64,120.37,20.38,119.72,20.38,117.55Z"/><path class="cls-1" d="M24.65,126.69c-.24-.7-.31-1.28-.31-5.78s.07-5.08.31-5.78a3.32,3.32,0,0,1,3.47-2.35,3.31,3.31,0,0,1,3.47,2.35c.23.7.3,1.28.3,5.78s-.07,5.08-.3,5.78A3.31,3.31,0,0,1,28.12,129,3.32,3.32,0,0,1,24.65,126.69Zm5.15-.54c.14-.46.18-.81.18-5.24s0-4.78-.18-5.24a1.62,1.62,0,0,0-1.68-1.12,1.6,1.6,0,0,0-1.66,1.12c-.16.46-.2.81-.2,5.24s0,4.78.2,5.24a1.61,1.61,0,0,0,1.66,1.12A1.63,1.63,0,0,0,29.8,126.15Z"/><path class="cls-1" d="M37.42,129c-2.4,0-3.61-1.35-3.73-4.08,0-.14.05-.23.19-.25l1.37-.26c.17,0,.26.07.26.21.09,2,.72,2.66,1.93,2.66s1.77-.59,1.77-2.73c0-1.82-.35-2.49-1.61-3l-1-.38c-2.17-.83-2.77-1.91-2.77-4.35,0-2.71,1.16-4.1,3.54-4.1s3.47,1.3,3.59,3.77a.24.24,0,0,1-.21.26l-1.31.21a.19.19,0,0,1-.25-.19c-.05-1.56-.56-2.33-1.77-2.33s-1.73.7-1.73,2.31.37,2.19,1.66,2.68l1,.37c2,.82,2.75,1.86,2.75,4.5C41.1,127.55,40.1,129,37.42,129Z"/><path class="cls-1" d="M43.2,113.22a.22.22,0,0,1,.23-.23h6a.22.22,0,0,1,.23.23v1.28a.22.22,0,0,1-.23.23H45.23a.12.12,0,0,0-.14.14v4.94c0,.1,0,.14.14.14h3.63a.22.22,0,0,1,.23.24v1.28a.22.22,0,0,1-.23.23H45.23a.12.12,0,0,0-.14.14v5.1c0,.1,0,.14.14.14h4.19a.22.22,0,0,1,.23.24v1.28a.22.22,0,0,1-.23.23h-6a.22.22,0,0,1-.23-.23Z"/><path class="cls-1" d="M51.57,113.22a.22.22,0,0,1,.23-.23h1.44a.29.29,0,0,1,.33.23l2.89,9.69h.09l2.82-9.69a.32.32,0,0,1,.35-.23h1.42a.22.22,0,0,1,.24.23V128.6a.22.22,0,0,1-.24.23H59.88a.22.22,0,0,1-.23-.23v-11h-.12l-2.39,8.16a.3.3,0,0,1-.28.23h-.77a.27.27,0,0,1-.28-.23l-2.4-8.16h-.12v11a.22.22,0,0,1-.23.23H51.8a.22.22,0,0,1-.23-.23Z"/><path class="cls-1" d="M66.39,113.22c0-.14.11-.23.26-.23H68a.25.25,0,0,1,.26.23l3.33,15.38a.19.19,0,0,1-.21.23H70a.23.23,0,0,1-.25-.23l-.7-3.47H65.55l-.7,3.47c0,.14-.09.23-.23.23h-1.4a.19.19,0,0,1-.21-.23Zm2.35,10.27-1.35-6.89h-.07l-1.44,6.89Z"/><path class="cls-1" d="M79.14,128.83a.25.25,0,0,1-.26-.16l-2-6.62c-.21,0-.44,0-.65,0h-1a.13.13,0,0,0-.14.14v6.39a.22.22,0,0,1-.23.23H73.5a.22.22,0,0,1-.23-.23V113.22a.22.22,0,0,1,.23-.23h2.77c2.8,0,4.29,1.21,4.29,4.56,0,2.12-.7,3.41-1.94,4l2.22,7c0,.11,0,.23-.12.23Zm-.47-11.28c0-2.14-.7-2.82-2.38-2.82h-1a.13.13,0,0,0-.14.14v5.36a.12.12,0,0,0,.14.14h1C77.92,120.37,78.67,119.72,78.67,117.55Z"/><path class="cls-1" d="M85.15,128.83a.22.22,0,0,1-.23-.23v-6.32l-3.06-9.06c0-.14,0-.23.17-.23H83.5c.16,0,.23.07.27.23l2.08,6.64h.07L88,113.22c.05-.16.12-.23.26-.23h1.44c.17,0,.21.09.17.23l-3.06,9.06v6.32a.22.22,0,0,1-.23.23Z"/><path d="M91,80.08c-3.2-.57-6.39-1.14-9.6-1.65S75,77.52,71.8,77.11s-6.46-.68-9.7-.87-6.49-.17-9.73-.07l.07-.23A9.6,9.6,0,0,0,57,77.23l4.86.45,9.72.9c6.48.57,13,1.12,19.46,1.45v0c-6.5-.08-13-.46-19.49-1l-9.72-.94L57,77.58a9.8,9.8,0,0,1-4.69-1.44L52,75.92h.38c3.25-.07,6.5,0,9.75.16s6.49.36,9.73.7,6.45.79,9.65,1.35,6.4,1.17,9.56,1.91Z"/><path d="M81.52,75.62c-3.6-.86-7.21-1.66-10.85-2.34s-7.29-1.19-11-1.68-7.36-.87-11-1.68-7.28-1.36-10.9-2.11l.09-.22A32.16,32.16,0,0,0,48.14,72a59.55,59.55,0,0,0,11,1.56c7.45.4,15,.54,22.34,2.06v.05a101.59,101.59,0,0,0-11.14-1.16c-3.74-.19-7.48-.26-11.22-.5A59,59,0,0,1,48,72.36a31.11,31.11,0,0,1-10.25-4.57l-.51-.35.61.13c3.62.76,7.23,1.57,10.88,2.18s7.32,1.08,11,1.5,7.35,1,11,1.72,7.25,1.57,10.8,2.61Z"/><path d="M63.6,76.09c-2.15-.88-4.52-1-6.82-1.25s-4.62-.33-7-.35a48.85,48.85,0,0,0-13.74,2.05l.07-.38a3.94,3.94,0,0,0,2,.21l2.16,0,4.32,0c2.88,0,5.76,0,8.65.1v0c-2.88.15-5.76.2-8.65.3l-4.32.06-2.17,0a4.06,4.06,0,0,1-2.23-.33l-.41-.26.48-.12a68.13,68.13,0,0,1,13.85-1.91,43,43,0,0,1,7,.24c1.17.12,2.32.3,3.47.52a11.38,11.38,0,0,1,3.33,1.07Z"/><path d="M91.06,80c2,1,3.67,2.53,5.56,3.68s4.07,1.84,5.7,3.5l-.34.09.25-1.1a5.51,5.51,0,0,0,.2-1,5.22,5.22,0,0,0-.8-.62L100.7,84a41.1,41.1,0,0,0-3.91-2.28c-.67-.33-1.35-.68-2-1a6.16,6.16,0,0,1-1.84-1.36,16.59,16.59,0,0,1-2.54-3.78A27.2,27.2,0,0,1,88,66.73c-.38-3-.43-6.06-.71-9.06l.37.13c-1.2,1.42-.88,3.57-.78,5.43s.47,3.83.78,5.74a21.56,21.56,0,0,0,1.61,5.53A11.35,11.35,0,0,0,92.88,79l0,0a10.87,10.87,0,0,1-3.79-4.38A21.79,21.79,0,0,1,87.29,69a50.78,50.78,0,0,1-.85-5.77,24,24,0,0,1-.08-2.94,4.57,4.57,0,0,1,1-2.83l.34-.37,0,.5c.27,3,.34,6,.63,9.06a25.9,25.9,0,0,0,2.18,8.73,13.25,13.25,0,0,0,2.51,3.72,6,6,0,0,0,1.82,1.29c.67.34,1.34.67,2,1a40.7,40.7,0,0,1,4,2.23l1,.62.47.33c.15.12.34.17.49.46a1.13,1.13,0,0,1,0,.68l-.12.55-.27,1.1-.09.36-.25-.27c-1.49-1.59-3.67-2.34-5.56-3.53S93,81.2,91,80.07Z"/><path d="M91,78.21c-2.35-1.47-3.73-4.06-4.56-6.63a42.23,42.23,0,0,1-1.66-8c-.32-2.71-.52-5.42-.74-8.13a65.32,65.32,0,0,1-.24-8.16l.22.06a12.94,12.94,0,0,0-1.25,4.19,28.15,28.15,0,0,0-.33,4.4,41,41,0,0,0,1,8.76,29,29,0,0,0,3.11,8.21,19.07,19.07,0,0,0,6,6.37l0,0a17.9,17.9,0,0,1-6.27-6.23,25.59,25.59,0,0,1-3.26-8.29A41.38,41.38,0,0,1,82,55.92a26.4,26.4,0,0,1,.43-4.44,13.31,13.31,0,0,1,1.37-4.25l.25-.44,0,.5a46,46,0,0,0,.21,8.13c.28,2.71.53,5.42.9,8.1a57.8,57.8,0,0,0,1.59,8,12.48,12.48,0,0,0,4.3,6.7Z"/><path d="M88.32,78.05a43.13,43.13,0,0,1-7.09-8.77A41.71,41.71,0,0,1,76.6,59a45.79,45.79,0,0,1-1.86-11.13,46.28,46.28,0,0,1,.71-11.27l.29.11a19,19,0,0,0-2.2,9.4,56.16,56.16,0,0,0,1,9.75,27,27,0,0,0,3.67,9c1.71,2.8,3.69,5.43,5.56,8.13l0,0c-2-2.62-4-5.2-5.79-8a25.29,25.29,0,0,1-3.85-9.08,55.25,55.25,0,0,1-1-9.85,18.42,18.42,0,0,1,2.35-9.55l.47-.76-.18.87a44.77,44.77,0,0,0-.88,11.2,45.47,45.47,0,0,0,2,11,51.38,51.38,0,0,0,4.59,10.24A49.24,49.24,0,0,0,88.36,78Z"/><path d="M85.58,75.08a70.94,70.94,0,0,1-9.53-6.64,38.16,38.16,0,0,1-4.13-4.11,19.2,19.2,0,0,1-3.23-4.87A20.31,20.31,0,0,1,67.55,48c.62-3.8,1.79-7.68,4.39-10.65l.13.18a12.75,12.75,0,0,0-4.27,4.63,17.81,17.81,0,0,0-2.11,6c-.79,4.24.5,8.48,2,12.43a14.32,14.32,0,0,0,3.35,5.33,40.36,40.36,0,0,0,5,4c3.5,2.47,7.17,4.72,10.88,6.87l0,0a114.7,114.7,0,0,1-11.06-6.63,39.47,39.47,0,0,1-5.11-4,14.65,14.65,0,0,1-3.45-5.49,41.42,41.42,0,0,1-1.91-6.19A17.44,17.44,0,0,1,67.53,42,13.13,13.13,0,0,1,72,37.31l.62-.35-.48.52A19.52,19.52,0,0,0,67.76,48,20.17,20.17,0,0,0,69,59.31a22,22,0,0,0,3.19,4.76,38.44,38.44,0,0,0,4,4.13,89.12,89.12,0,0,0,9.36,6.85Z"/><path d="M67.38,61.28a26.74,26.74,0,0,0-3.26-4.76,28.4,28.4,0,0,0-4.21-3.92,22.29,22.29,0,0,0-5-2.85,19.75,19.75,0,0,0-5.64-1.22l.09-.23c3.18,2.21,6.81,3.65,10.07,5.82a23.78,23.78,0,0,1,4.44,3.81c1.34,1.4,2.64,2.84,4.11,4.1l0,0a39,39,0,0,1-4.32-3.9,31.1,31.1,0,0,0-4.45-3.67,57.91,57.91,0,0,0-5-2.9,40.92,40.92,0,0,1-4.95-3.09l-.37-.28.46.05A24.44,24.44,0,0,1,55,49.58a22,22,0,0,1,5.15,2.74,20.89,20.89,0,0,1,4.25,4,20.58,20.58,0,0,1,3,4.95Z"/><path d="M65.34,56.68c-1.22-2.92-2.53-5.8-4-8.58S58.16,42.63,56.4,40a72.27,72.27,0,0,0-5.78-7.5A18.61,18.61,0,0,0,43,27.11l.17-.19a16.36,16.36,0,0,0,2.89,3.25c1.05,1,2.07,2.1,3.08,3.17q3,3.21,5.87,6.62a72.25,72.25,0,0,1,9.57,14.83l0,0a86.56,86.56,0,0,0-9.88-14.56q-2.8-3.42-5.83-6.62l-3-3.19A16.22,16.22,0,0,1,42.91,27l-.16-.31.33.11a19.58,19.58,0,0,1,7.66,5.55,73.11,73.11,0,0,1,5.94,7.42A62.89,62.89,0,0,1,61.6,48a67.8,67.8,0,0,1,3.78,8.71Z"/><path d="M63.89,53.14a14.37,14.37,0,0,1-2-4.14A17.69,17.69,0,0,1,61,44.44a16.85,16.85,0,0,1,2-9,12,12,0,0,1,2.86-3.66,9.44,9.44,0,0,1,4.19-1.95,16.53,16.53,0,0,1,9.11,1l-.12.26c-2.48-1.39-5.1-2.69-7.93-2.81a9.16,9.16,0,0,0-7.32,3.46,14.25,14.25,0,0,0-3.47,7.59,22.47,22.47,0,0,0-.09,4.26,7.6,7.6,0,0,0,1.35,4l0,0a7.67,7.67,0,0,1-1.54-4,22.17,22.17,0,0,1,0-4.31,13.88,13.88,0,0,1,3.45-7.86,9.61,9.61,0,0,1,7.67-3.59c3,.11,5.61,1.56,8.06,3l-.12.26a15.77,15.77,0,0,0-9-1.15A9.32,9.32,0,0,0,66,32a11.81,11.81,0,0,0-2.72,3.62,18.51,18.51,0,0,0-2,8.82,16.71,16.71,0,0,0,.77,4.5,14.85,14.85,0,0,0,1.84,4.19Z"/><path d="M60.6,45.73c-2.56-4.3-3-9.62-2.1-14.48a34.27,34.27,0,0,1,2-7.16,13,13,0,0,1,1.94-3.18,23.3,23.3,0,0,0,2.34-2.85l.16.18a13.45,13.45,0,0,0-5.22,5.2,20.52,20.52,0,0,0-1.48,3.43c-.35,1.2-.65,2.41-1,3.62a18.74,18.74,0,0,0,2.93,14.3l0,0A17.69,17.69,0,0,1,57,38a16.91,16.91,0,0,1-.11-7.59c.33-1.22.64-2.46,1-3.68a20,20,0,0,1,1.53-3.49A13.2,13.2,0,0,1,64.88,18l.41-.21-.25.38A23.61,23.61,0,0,1,62.63,21a10.4,10.4,0,0,0-1.92,3.13,35.14,35.14,0,0,0-1.86,7.15,29.66,29.66,0,0,0-.27,7.35,20.1,20.1,0,0,0,2.06,7.05Z"/><path d="M59.25,43.37a35.83,35.83,0,0,1-3.23-7,38.56,38.56,0,0,1-1.83-7.5,44.16,44.16,0,0,1-.43-7.71c.05-1.28.13-2.57.27-3.84s.45-2.59.49-3.78l.22.06a15.46,15.46,0,0,0-3,7.12,22.78,22.78,0,0,0,.13,7.77,28.73,28.73,0,0,0,6.77,13.93l0,0a26.44,26.44,0,0,1-7.18-13.88,23.15,23.15,0,0,1-.11-7.92,15.36,15.36,0,0,1,3.2-7.21l.26-.33,0,.39A52.86,52.86,0,0,0,54,21.17a44.58,44.58,0,0,0,.59,7.65,48,48,0,0,0,4.75,14.53Z"/><path d="M61.33,65.55l6.18,3.32A48.23,48.23,0,0,0,73.78,72c2.16.89,4.35,1.72,6.52,2.56S84.72,76,87,76.76v0a41.51,41.51,0,0,1-6.8-1.8,67.18,67.18,0,0,1-6.46-2.78c-2.1-1-4.23-2-6.35-3a49.5,49.5,0,0,1-6-3.62Z"/><path d="M60.21,64.12c1.63.67,3.22,1.42,4.78,2.22a31.39,31.39,0,0,0,4.77,2.24c3.3,1.22,6.61,2.32,9.93,3.5v0a40.65,40.65,0,0,1-10-3.31c-1.58-.79-3.21-1.45-4.83-2.13a39.32,39.32,0,0,1-4.64-2.53Z"/><path d="M61.65,65.76c-2.83-1.28-5.65-2.6-8.49-3.83s-5.74-2.37-8.64-3.46a72.93,72.93,0,0,0-8.91-2.66,19.27,19.27,0,0,0-9.18-.1l0-.24A78.17,78.17,0,0,1,44.9,59.53c3,1,6,2.14,8.87,3.35,1.46.62,2.92,1.21,4.35,1.89a13.6,13.6,0,0,0,4.44,1.52v0A13.47,13.47,0,0,1,58,65c-1.43-.65-2.91-1.2-4.37-1.78C50.7,62.06,47.74,61,44.76,60a88.52,88.52,0,0,0-18.38-4.25l-.67-.07.65-.17a21.11,21.11,0,0,1,9.29.16,71.59,71.59,0,0,1,9,2.51,90.07,90.07,0,0,1,8.66,3.5q4.24,1.92,8.38,4.08Z"/><path d="M62.43,65.37A28.85,28.85,0,0,1,49.7,51.48a48.59,48.59,0,0,1-3-9.09A90.86,90.86,0,0,1,45.1,33l.19.09a3,3,0,0,0-.9,2.14c-.09.83-.14,1.65-.16,2.48a35.71,35.71,0,0,0,.3,5,26.11,26.11,0,0,0,2.88,9.44,30.28,30.28,0,0,0,6.3,7.62,71.94,71.94,0,0,0,8,6l0,0A60.71,60.71,0,0,1,53.48,60,27.55,27.55,0,0,1,47,52.3a26.4,26.4,0,0,1-2.9-9.6,31.33,31.33,0,0,1-.22-5c0-.84.11-1.67.21-2.5a3.2,3.2,0,0,1,1-2.31l.17-.12,0,.2a66.44,66.44,0,0,0,1.56,9.41,49,49,0,0,0,3.13,9,34.55,34.55,0,0,0,5.12,8,30.34,30.34,0,0,0,7.3,6Z"/><path d="M47.77,49.68c.75,1.29,1.45,2.58,2.15,3.86a16.57,16.57,0,0,0,2.39,3.71,62.2,62.2,0,0,0,6.25,6.22l0,0a20.25,20.25,0,0,1-6.43-6.1l-2.52-3.67a19.45,19.45,0,0,1-1.86-4Z"/><path d="M48.49,71a76.55,76.55,0,0,0,7.85.71c2.62.18,5.26.27,7.9.28,1.32,0,2.65,0,4,.08a37.22,37.22,0,0,1,3.93.58,71.69,71.69,0,0,1,7.64,2v.05c-2.58-.55-5.15-1.15-7.73-1.63-1.29-.23-2.58-.46-3.88-.62s-2.62-.17-3.93-.25-2.63-.16-4-.17-2.63,0-4,0a32.47,32.47,0,0,1-7.85-1Z"/><path d="M55.33,62.24a26.11,26.11,0,0,1-6.82-5,36.77,36.77,0,0,1-5.27-6.66,79.17,79.17,0,0,1-4.1-7.44,36.17,36.17,0,0,1-3.08-7.9l.27,0a24.54,24.54,0,0,0,5,15.09A35.2,35.2,0,0,0,53.79,60.4v0a32.33,32.33,0,0,1-7-4.13,28.62,28.62,0,0,1-5.8-5.78,23.91,23.91,0,0,1-4.88-15.37l0-1,.21,1a32.7,32.7,0,0,0,3,7.89c1.31,2.5,2.7,5,4.25,7.32A48.43,48.43,0,0,0,48.74,57a30.43,30.43,0,0,0,6.61,5.22Z"/><path d="M41.58,49c.88.83,1.69,1.7,2.48,2.6a14.83,14.83,0,0,0,2.49,2.58c1.85,1.52,3.71,3,5.51,4.59l0,0a22.24,22.24,0,0,1-5.67-4.44c-.8-.9-1.7-1.69-2.59-2.51A15.28,15.28,0,0,1,41.55,49Z"/><path d="M48.91,58.26A80.66,80.66,0,0,0,40.38,54a81.76,81.76,0,0,0-9-3.11,68.79,68.79,0,0,0-9.31-2,19.56,19.56,0,0,0-9.41.43v-.21c3.52.45,7.1.73,10.63,1.36s7,1.38,10.48,2.3a106.41,106.41,0,0,1,20,7.59l0,0a134.35,134.35,0,0,0-20.13-7.19q-5.16-1.41-10.43-2.33c-3.51-.68-7-1.05-10.6-1.55l-.46-.07.44-.15c3.07-1,6.36-.78,9.5-.42a66.51,66.51,0,0,1,9.39,1.81,59.63,59.63,0,0,1,9,3.19,60.88,60.88,0,0,1,8.44,4.49Z"/><path d="M23.19,49.87a53.83,53.83,0,0,1,8.13,1.78l7.9,2.6a90.66,90.66,0,0,1,15.3,6.49l0,0c-5.1-2.18-10.21-4.28-15.37-6.3A64.27,64.27,0,0,0,31.21,52l-8-2.11Z"/><path d="M43.62,54.16C40.79,52,38,49.79,35,47.83a58.3,58.3,0,0,0-9.41-5,46.89,46.89,0,0,0-10.29-2.85c-1.76-.29-3.53-.52-5.31-.66s-3.63-.36-5.23.43l0-.21A92.83,92.83,0,0,1,16.58,42,90,90,0,0,1,28,46.27a104.78,104.78,0,0,1,10.77,5.61c3.47,2,6.9,4.36,11,4.86v0c-4.11-.32-7.65-2.66-11.14-4.6s-7.11-3.82-10.78-5.51a89.53,89.53,0,0,0-11.3-4.28,87.61,87.61,0,0,0-11.8-2.67l-.34-.06.31-.15c1.7-.81,3.59-.5,5.34-.38s3.56.33,5.34.6A45.72,45.72,0,0,1,25.7,42.45a48.13,48.13,0,0,1,9.44,5.12,96.73,96.73,0,0,1,8.51,6.56Z"/><path d="M23.84,43.51a56.52,56.52,0,0,1,6.62,2.67l6.35,3.27a44.67,44.67,0,0,1,11.62,8.26l0,0a101.92,101.92,0,0,0-11.71-8.08,46.14,46.14,0,0,0-6.39-3.14c-2.17-1-4.34-1.94-6.48-3Z"/><path d="M41,52c-2.47-1.7-5-3.59-6.43-6.36A14.76,14.76,0,0,1,33,36.76a23.16,23.16,0,0,1,2.95-8.59,20.26,20.26,0,0,1,6-6.73l.12.22A20.33,20.33,0,0,0,30.7,34.84a11.59,11.59,0,0,0,.92,8.67,17.68,17.68,0,0,0,6.21,6.42l0,0a16.9,16.9,0,0,1-6.48-6.3,12.49,12.49,0,0,1-1.46-4.36,11.85,11.85,0,0,1,.4-4.59A20.09,20.09,0,0,1,42,21.43L43.14,21l-1,.68a18.73,18.73,0,0,0-6,6.61,23.1,23.1,0,0,0-2.75,8.53,15.79,15.79,0,0,0,1.47,8.73c1.35,2.7,3.8,4.62,6.18,6.46Z"/><path d="M33.29,31a16.15,16.15,0,0,0-1,4.48,17.58,17.58,0,0,0,0,4.64,13.18,13.18,0,0,0,1.1,4.42,29.34,29.34,0,0,0,2.52,3.86l0,0a14.17,14.17,0,0,1-2.92-3.69A10,10,0,0,1,32,40.16c0-1.56-.14-3.11-.12-4.69A9,9,0,0,1,33.25,31Z"/><path d="M31.32,45a20.55,20.55,0,0,1-7.55-17.66,29.07,29.07,0,0,1,2.52-9.61,28,28,0,0,1,2.37-4.37,8.34,8.34,0,0,1,3.81-3.18l.33-.11-.18.31a19.06,19.06,0,0,0-2.2,4.34c-.26.78-.49,1.57-.8,2.34l-1.05,2.23a25.9,25.9,0,0,0-2.85,9.3,25.05,25.05,0,0,0,.84,9.67,13.64,13.64,0,0,0,5.6,7.76l0,0a13.39,13.39,0,0,1-5.89-7.71,23.62,23.62,0,0,1-1-9.81,26.46,26.46,0,0,1,2.92-9.42L29.24,17c.32-.75.56-1.53.84-2.31a19.54,19.54,0,0,1,2.33-4.37l.15.2a8.07,8.07,0,0,0-3.75,3,22.69,22.69,0,0,0-2.36,4.33,29.07,29.07,0,0,0-2.33,9.56,23,23,0,0,0,1.54,9.65,20.66,20.66,0,0,0,5.69,8Z"/><path d="M26.38,23.14a44,44,0,0,0-.27,6A20.39,20.39,0,0,0,26.82,35,29.23,29.23,0,0,0,29,40.56a15,15,0,0,0,3.59,4.67l0,0a11.46,11.46,0,0,1-4-4.49,20.68,20.68,0,0,1-1.95-5.7c-.35-2-.68-3.95-.85-6a18.57,18.57,0,0,1,.61-6Z"/><path d="M24.47,35.78a47.11,47.11,0,0,0-4.41-5.35A34.37,34.37,0,0,0,14.76,26a23.89,23.89,0,0,0-6.23-2.95,18,18,0,0,0-6.84-.69v-.23c2.41.48,4.93.71,7.16,1.87A35.49,35.49,0,0,1,15.13,28a58.68,58.68,0,0,1,5.63,4.8c.9.86,1.77,1.73,2.61,2.63.43.44.84.9,1.25,1.36a1.77,1.77,0,0,0,.67.58,5.24,5.24,0,0,0,.89.21v.05a5.82,5.82,0,0,1-.91-.17,1.93,1.93,0,0,1-.75-.56l-1.3-1.31c-.87-.87-1.77-1.71-2.68-2.53-1.83-1.64-3.73-3.2-5.67-4.7A36.07,36.07,0,0,0,8.68,24.4c-2.17-1.16-4.63-1.49-7-2l-.79-.17.8-.07a21,21,0,0,1,6.91.75A23.79,23.79,0,0,1,15,25.71a26.45,26.45,0,0,1,5.33,4.51,34.71,34.71,0,0,1,4.22,5.53Z"/><path d="M13.37,25.94a15.79,15.79,0,0,1,4,2.56c1.16,1.08,2.26,2.22,3.43,3.28a31.51,31.51,0,0,1,5.91,7.39l0,0c-2-2.42-4-4.86-6.05-7.24a19.7,19.7,0,0,0-3.49-3.15c-1.23-1-2.47-1.92-3.77-2.82Z"/><path d="M23.27,31c-1-1.93-2-3.86-3.08-5.7a37.53,37.53,0,0,0-3.84-5.18A22.7,22.7,0,0,0,11.41,16a29.29,29.29,0,0,0-5.87-2.73l.12-.22a47.93,47.93,0,0,1,10.42,8.47A34.35,34.35,0,0,1,20,27a21.8,21.8,0,0,0,4.15,5.21l0,0a19.21,19.21,0,0,1-4.4-5.06,47.6,47.6,0,0,0-3.94-5.38A55,55,0,0,0,5.52,13.26l-.81-.56.92.35a40,40,0,0,1,5.87,2.8,22.88,22.88,0,0,1,5.11,4,26.88,26.88,0,0,1,3.85,5.27A47.09,47.09,0,0,1,23.32,31Z"/><path d="M24,29.43a44.86,44.86,0,0,0-1-7.93c-.55-2.61-1.3-5.17-2-7.73s-1.5-5.13-2.49-7.61a16.88,16.88,0,0,0-1.87-3.51,12.42,12.42,0,0,0-1.27-1.53,8.84,8.84,0,0,0-.71-.67c-.29-.21-.37,0-.21.32,2.1,5,2.84,10.33,4.37,15.43a117.35,117.35,0,0,0,5.43,15l0,0a87.14,87.14,0,0,1-5.83-14.94C16.81,11.18,16.07,5.85,14.16.87a.68.68,0,0,1,0-.6.42.42,0,0,1,.61,0c.27.24.5.47.74.72a12.13,12.13,0,0,1,1.26,1.58,22.63,22.63,0,0,1,1.88,3.54c1.05,2.47,1.83,5,2.67,7.57a60.83,60.83,0,0,1,2,7.78,35.68,35.68,0,0,1,.7,8Z"/><path d="M18.88,11.71a21.52,21.52,0,0,1,1.58,4.66,48.35,48.35,0,0,0,1,4.81c.87,3.17,1.59,6.33,2.6,9.45l-.05,0a31.72,31.72,0,0,1-2.8-9.41,32.49,32.49,0,0,0-1.15-4.77l-1.25-4.74Z"/><path d="M67,56.69a64.05,64.05,0,0,0,3.29,6.45A20.18,20.18,0,0,0,75,68.63c1.85,1.55,3.83,3,5.8,4.34A50.14,50.14,0,0,0,87,76.76l0,0a30.79,30.79,0,0,1-6.43-3.43,46.32,46.32,0,0,1-5.71-4.55A37,37,0,0,1,70,63.35a27.09,27.09,0,0,1-3-6.65Z"/><path d="M92.35,80c.9.51,1.73,1.1,2.57,1.66a6.14,6.14,0,0,0,2.73,1.28,13.29,13.29,0,0,1,3,.88,4.33,4.33,0,0,1,2.22,2.16l0,0c-1.31-1.64-3.31-2.1-5.23-2.83-.95-.39-1.93-.71-2.86-1.19a10.69,10.69,0,0,1-2.39-2Z"/><path d="M66.28,30.61A23.11,23.11,0,0,0,63,34.46a8.62,8.62,0,0,0-1.72,4.71,20.05,20.05,0,0,0-.31,5,14.86,14.86,0,0,0,1.11,4.93l0,0a10.39,10.39,0,0,1-1.55-4.89c-.32-1.77.24-3.49.54-5.14a14.61,14.61,0,0,1,1.64-4.87,11.51,11.51,0,0,1,3.6-3.68Z"/></g></g></svg>