<svg xmlns="http://www.w3.org/2000/svg" viewBox="0 0 162.78 139.63"><defs><style>.cls-1{fill:#afadbd;}.cls-2{fill:#9592a7;}</style></defs><g id="Layer_2" data-name="Layer 2"><g id="Ingredients_Map" data-name="Ingredients Map"><path class="cls-1" d="M124.13,78.72a22.42,22.42,0,0,1-1.52-6.29,21.76,21.76,0,0,1-.08-2.91c0-1,.31-2.08-.19-3-.61-1.12-2-1.54-3-2.2A2.48,2.48,0,0,1,118.2,63c-.24-.84.29-1.71.06-2.55-.36-1.33-2.7-1.53-3.79-1.91A7.82,7.82,0,0,1,110,55.28c-1-1.88-1.34-4.28-1.87-6.34-.57-2.24-1.15-4.48-1.72-6.72L102.79,28.3q-2-7.68-3.94-15.35l-1-3.84a9.76,9.76,0,0,0-1-2.85c-1-1.63-2.47-1.6-4.16-1.06-.32.1-.91.32-1,.72C91.16,12,94,17.85,95.83,23.49q1.5,4.65,2.83,9.34c.4,1.41.78,2.82,1.16,4.24.18.69.4,1.39.52,2.11a4,4,0,0,1,.06.7,1.27,1.27,0,0,1,0,.28,2.72,2.72,0,0,1-.87-.73,11.74,11.74,0,0,1-.82-1.67,5,5,0,0,0-2-2.54c-1.9-1.06-4.62-.63-6.08-2.43a9.16,9.16,0,0,1-1.35-3.64L88,24.38q-1.23-4.78-2.45-9.55c-.85-3.33-1.6-6.71-2.58-10C82.13,2,80.16.61,77.27,1.41c-.24.07-1.45.4-1.33.84Q79,13.53,82.16,24.83a18.69,18.69,0,0,1,.94,5.23,8.07,8.07,0,0,1-1.51,4.42c-1,1.55-2.34,2.91-3.33,4.47-1.12-1.82-1.4-4.27-1.85-6.24Q75.18,27.33,73.73,22,70.82,11.31,67.08.9c-.23-.64-3,.09-2.9.78C65,9.55,66,17.39,67.54,25.15,69,32.71,71.07,40.08,73.1,47.49c.49,1.81,1,3.63,1.33,5.47.15.77.29,1.53.41,2.31A8.6,8.6,0,0,1,75,56.51a3.62,3.62,0,0,1,0,.57c-.59-.19-1.34-.42-1.5-.5-.63-.36.41-.24-.11-.75-1.16-1.12-.76-2.53-1.32-4-1.25-3.36-4.13-7.63-4.44-11.16q-.52-5.89-1.25-11.76-.81-6.6-1.88-13.16c-.27-1.69-.32-3.7-1.42-5.1-1-1.2-2.43-1-3.73-.51-.25.1-1,.33-1,.72Q60.51,28.6,61,46.53a3.53,3.53,0,0,1-.62-1.08,14.93,14.93,0,0,1-.62-3c-.4-2.45-.79-4.89-1.19-7.33L56.23,20.49c-.4-2.44-.79-4.88-1.19-7.32-.19-1.22-.39-2.45-.59-3.67-.09-.57-.18-1.14-.28-1.71s0-1.59-.31-1.95c-.74-1-3.15.1-3.71.85A3.52,3.52,0,0,0,49.68,9q0,1.84.06,3.69A271.57,271.57,0,0,0,52,42.13c.32,2.45.68,4.88,1.06,7.32a8.58,8.58,0,0,1,.07,3.67,7,7,0,0,1-.51,1.07c0,.08-.29.27-.3.34a4.3,4.3,0,0,1-.81-.31c-3.32-1.35-5.58-4.31-7.08-7.45-2-4.12-2.87-8.7-3.65-13.16a108,108,0,0,1-1.56-16.34c0-.43-2.36-.12-2.82.54a.65.65,0,0,0-.3.43A86.39,86.39,0,0,0,38,43.18a45.59,45.59,0,0,1,1.13,6,19.61,19.61,0,0,1-.61,6.24c-.76,3.39-1.19,6.74,1.08,9.65,2,2.57,5.06,4.08,8,5.38a8.8,8.8,0,0,1-.93.35,11.26,11.26,0,0,0-2.25,0c-.64,0-1.28.1-1.93.19a6.11,6.11,0,0,0-1.41.65c-.22.13-.41.29-.38.48.36,2.25.82,4.79,2.67,6.32s4.69,1.32,7,1.74c4.59.82,7,5.88,11.62,6.52,2.7.37,5.31-.69,7.8-1.61a14.76,14.76,0,0,1,8.77-.53c2.8.67,5.1,2.28,7.7,3.42a11.46,11.46,0,0,0,7.39.73c3-.68,5.6-2.33,8.45-3.47,2.43-1,5.23-.94,7.13,1a6.38,6.38,0,0,1-3.64,1.87c-.24,0-2.58.71-2,1.07,3.41,2.14,7.53,2.49,11.45,2.81,3.51.29,7.88,0,10.4-2.81C128.45,85.92,125.46,82,124.13,78.72ZM62,47.24c.37-.14.26.07,0,0Z"/><path class="cls-2" d="M66.76,111.2v1.87a8.83,8.83,0,0,1-4.33,1,6.65,6.65,0,0,1-3.39-.81A6,6,0,0,1,56,108a5.8,5.8,0,0,1,1.86-4.37,6.36,6.36,0,0,1,4.57-1.77,10.8,10.8,0,0,1,4.17,1v1.83a8.24,8.24,0,0,0-4.08-1.19,4.72,4.72,0,0,0-3.4,1.29,4.56,4.56,0,0,0,0,6.46,4.73,4.73,0,0,0,3.4,1.26A7.8,7.8,0,0,0,66.76,111.2Z"/><path class="cls-2" d="M72.74,106.1a4.09,4.09,0,0,1,3,1.16,3.84,3.84,0,0,1,1.19,2.9A3.7,3.7,0,0,1,75.7,113a4.3,4.3,0,0,1-3,1.12,4.1,4.1,0,0,1-3-1.14,4,4,0,0,1,0-5.71A4.13,4.13,0,0,1,72.74,106.1Zm-.09,1.4a2.45,2.45,0,0,0-1.83.73,2.55,2.55,0,0,0-.71,1.87,2.46,2.46,0,0,0,.73,1.84,2.61,2.61,0,0,0,1.88.71,2.54,2.54,0,0,0,1.87-.72,2.67,2.67,0,0,0,0-3.7A2.62,2.62,0,0,0,72.65,107.5Z"/><path class="cls-2" d="M84.85,112.13v1.53a6.53,6.53,0,0,1-2.28.44A4,4,0,0,1,79.63,113a4,4,0,0,1-1.09-2.93,4.16,4.16,0,0,1,1.06-3A3.67,3.67,0,0,1,82.41,106a4.46,4.46,0,0,1,1.08.12,7.41,7.41,0,0,1,1.19.43v1.65a4.11,4.11,0,0,0-2.18-.75,2.23,2.23,0,0,0-1.72.74A2.68,2.68,0,0,0,80.1,110a2.56,2.56,0,0,0,.73,1.91,2.72,2.72,0,0,0,2,.71A5.24,5.24,0,0,0,84.85,112.13Z"/><path class="cls-2" d="M86.93,102.05h1.55v5.1A3,3,0,0,1,90.9,106a2.57,2.57,0,0,1,1.4.4,2.33,2.33,0,0,1,.93,1.08,5.37,5.37,0,0,1,.3,2V114H92v-4.85a2.17,2.17,0,0,0-.42-1.39,1.41,1.41,0,0,0-1.12-.52,1.92,1.92,0,0,0-1,.26,4.64,4.64,0,0,0-1,.88V114H86.93Z"/><path class="cls-2" d="M96.84,102.82a.93.93,0,0,1,.66.26.92.92,0,0,1-.66,1.57.92.92,0,0,1,0-1.83Zm-.76,3.3h1.55V114H96.08Z"/><path class="cls-2" d="M101.77,106.12v1a3.11,3.11,0,0,1,2.36-1.16,2.64,2.64,0,0,1,1.37.38,2.53,2.53,0,0,1,1,1,5.16,5.16,0,0,1,.32,2.1V114h-1.55v-4.47a3.06,3.06,0,0,0-.36-1.71,1.4,1.4,0,0,0-1.23-.52,2.25,2.25,0,0,0-1.87,1.1V114h-1.58v-7.84Z"/><path class="cls-2" d="M8.39,139.41c-.14,0-.21-.09-.23-.23L6.29,127.71h0L4.3,139.18c0,.14-.1.23-.24.23H2.8c-.14,0-.21-.09-.24-.23L0,123.54c0-.14,0-.24.19-.24H1.64a.24.24,0,0,1,.26.24L3.46,135.1h0l2-11.56c0-.17.09-.24.24-.24h1c.14,0,.21.07.24.24L9,135.1H9l1.61-11.56c0-.17.12-.24.26-.24h1.4c.17,0,.21.1.19.24L9.91,139.18c0,.14-.09.23-.24.23Z"/><path class="cls-2" d="M16.73,123.54c.05-.14.12-.24.26-.24h1.43a.27.27,0,0,1,.26.24l3.38,15.64c0,.14-.07.23-.21.23H20.43a.23.23,0,0,1-.26-.23l-.71-3.53H15.88l-.71,3.53c0,.14-.1.23-.24.23H13.51c-.14,0-.24-.09-.21-.23ZM19.13,134l-1.38-7h-.07l-1.47,7Z"/><path class="cls-2" d="M29.69,139.41a.24.24,0,0,1-.26-.16l-2-6.73c-.22,0-.45,0-.67,0h-1a.13.13,0,0,0-.14.14v6.5a.22.22,0,0,1-.24.23H24a.22.22,0,0,1-.24-.23V123.54a.23.23,0,0,1,.24-.24h2.82c2.84,0,4.36,1.23,4.36,4.65,0,2.15-.71,3.45-2,4.09l2.25,7.14c0,.12,0,.23-.12.23ZM29.22,128c0-2.18-.71-2.87-2.42-2.87h-1a.13.13,0,0,0-.14.14v5.45a.12.12,0,0,0,.14.14h1C28.46,130.81,29.22,130.15,29.22,128Z"/><path class="cls-2" d="M33.51,123.54a.22.22,0,0,1,.23-.24h1.47a.29.29,0,0,1,.33.24l2.94,9.86h.1l2.86-9.86a.33.33,0,0,1,.36-.24h1.44a.23.23,0,0,1,.24.24v15.64a.22.22,0,0,1-.24.23H42a.22.22,0,0,1-.23-.23V128h-.12l-2.44,8.29a.31.31,0,0,1-.29.24H38.1c-.16,0-.23-.1-.28-.24L35.38,128h-.12v11.16a.22.22,0,0,1-.24.23H33.74a.22.22,0,0,1-.23-.23Z"/><path class="cls-2" d="M53.52,130.72l-.33-.57c-1-1.68-1.47-2.77-1.47-3.89a3.14,3.14,0,1,1,6.28,0c0,1.26-.57,2.44-2.44,4.62l2.06,3.58,1.09-1.89c.08-.15.17-.19.31-.1L60,133a.23.23,0,0,1,.07.33L58.53,136l.66,1.14c.28.52.45.62.73.62H60a.22.22,0,0,1,.24.23v1.19a.22.22,0,0,1-.24.23H59.5a1.41,1.41,0,0,1-1.47-.92l-.5-.85a4.11,4.11,0,0,1-3.53,2,3.21,3.21,0,0,1-3.41-3.51C50.59,134.53,51.53,133.06,53.52,130.72Zm.57,7.27c.9,0,1.64-.42,2.56-1.85l-2.25-3.91c-1.49,1.73-2.11,2.73-2.11,3.84A1.71,1.71,0,0,0,54.09,138Zm2.23-11.77c0-1-.57-1.64-1.44-1.64s-1.45.59-1.45,1.64c0,.56.21,1.3,1.26,3.15C56,127.83,56.32,127.14,56.32,126.22Z"/><path class="cls-2" d="M70.42,139.63c-2.44,0-3.68-1.38-3.79-4.15,0-.14,0-.24.18-.26l1.4-.26c.17,0,.26.07.26.21.1,2,.74,2.7,2,2.7s1.8-.59,1.8-2.77c0-1.85-.35-2.53-1.63-3l-1-.38c-2.2-.85-2.82-1.94-2.82-4.43,0-2.75,1.19-4.17,3.61-4.17s3.53,1.32,3.65,3.84a.25.25,0,0,1-.22.26l-1.32.21a.2.2,0,0,1-.27-.19c0-1.59-.56-2.37-1.8-2.37s-1.75.71-1.75,2.35.38,2.22,1.68,2.72l1,.38c2.07.83,2.8,1.9,2.8,4.57C74.16,138.11,73.14,139.63,70.42,139.63Z"/><path class="cls-2" d="M76.53,139.41a.22.22,0,0,1-.24-.23V123.54a.23.23,0,0,1,.24-.24h2.82c2.84,0,4.36,1.28,4.36,4.83S82.17,133,79.35,133h-1a.13.13,0,0,0-.14.14v6.07a.22.22,0,0,1-.24.23Zm5.26-11.28c0-2.27-.69-3-2.44-3h-1a.13.13,0,0,0-.14.14v5.83a.13.13,0,0,0,.14.14h1C81.1,131.19,81.79,130.43,81.79,128.13Z"/><path class="cls-2" d="M85.74,123.54a.23.23,0,0,1,.24-.24h1.45a.22.22,0,0,1,.23.24v15.64a.22.22,0,0,1-.23.23H86a.22.22,0,0,1-.24-.23Z"/><path class="cls-2" d="M90.06,131.36c0-4.58.07-5.24.28-5.9a3.3,3.3,0,0,1,3.46-2.37c2.11,0,3.39,1.13,3.6,3.6a.21.21,0,0,1-.19.28l-1.35.26a.19.19,0,0,1-.26-.19c-.12-1.44-.66-2.15-1.78-2.15A1.49,1.49,0,0,0,92.21,126c-.14.45-.21.9-.21,5.36s.07,4.9.21,5.35a1.5,1.5,0,0,0,1.61,1.12c1.12,0,1.66-.71,1.78-2.16,0-.14.12-.21.26-.19l1.35.26a.22.22,0,0,1,.19.29c-.21,2.46-1.49,3.6-3.6,3.6a3.31,3.31,0,0,1-3.46-2.37C90.13,136.59,90.06,135.93,90.06,131.36Z"/><path class="cls-2" d="M101.45,139.41a.22.22,0,0,1-.24-.23v-6.42l-3.1-9.22c0-.14,0-.24.17-.24h1.49c.17,0,.24.07.28.24l2.11,6.75h.07l2.11-6.75c0-.17.12-.24.26-.24h1.47c.17,0,.22.1.17.24l-3.11,9.22v6.42a.22.22,0,0,1-.23.23Z"/><path class="cls-2" d="M111.9,131.36c0-4.58.07-5.17.31-5.88a3.37,3.37,0,0,1,3.53-2.39c2.23,0,3.48,1.25,3.74,3.5,0,.15,0,.27-.16.29l-1.33.26c-.17,0-.26,0-.28-.19-.17-1.33-.79-2.06-1.95-2.06a1.63,1.63,0,0,0-1.7,1.14c-.17.47-.22.83-.22,5.33s0,4.86.22,5.33a1.88,1.88,0,0,0,3.46,0c.14-.45.21-.83.21-4.12,0-.1,0-.15-.14-.15H116a.22.22,0,0,1-.24-.23v-1.26a.23.23,0,0,1,.24-.24h3.34a.23.23,0,0,1,.24.24v.69c0,4.31-.07,4.9-.31,5.61a3.8,3.8,0,0,1-7.06,0C112,136.52,111.9,135.93,111.9,131.36Z"/><path class="cls-2" d="M121.85,123.54a.23.23,0,0,1,.24-.24h1.44a.23.23,0,0,1,.24.24v15.64a.22.22,0,0,1-.24.23h-1.44a.22.22,0,0,1-.24-.23Z"/><path class="cls-2" d="M126.42,123.54a.23.23,0,0,1,.24-.24h1.78a.31.31,0,0,1,.35.24l3.6,12.08h.1V123.54a.23.23,0,0,1,.24-.24H134a.23.23,0,0,1,.24.24v15.64a.22.22,0,0,1-.24.23H132.3a.33.33,0,0,1-.36-.23l-3.67-12.09h-.12v12.09a.22.22,0,0,1-.23.23h-1.26a.22.22,0,0,1-.24-.23Z"/><path class="cls-2" d="M136.61,131.36c0-4.58.07-5.17.31-5.88a3.36,3.36,0,0,1,3.53-2.39c2.22,0,3.48,1.25,3.74,3.5,0,.15,0,.27-.16.29l-1.33.26a.23.23,0,0,1-.29-.19c-.16-1.33-.78-2.06-1.94-2.06a1.65,1.65,0,0,0-1.71,1.14c-.16.47-.21.83-.21,5.33s0,4.86.21,5.33a1.69,1.69,0,0,0,1.74,1.14,1.67,1.67,0,0,0,1.72-1.14c.15-.45.22-.83.22-4.12,0-.1-.05-.15-.14-.15h-1.59a.22.22,0,0,1-.24-.23v-1.26a.23.23,0,0,1,.24-.24h3.34a.23.23,0,0,1,.24.24v.69c0,4.31-.08,4.9-.31,5.61a3.8,3.8,0,0,1-7.06,0C136.68,136.52,136.61,135.93,136.61,131.36Z"/><path class="cls-2" d="M146.56,123.54a.23.23,0,0,1,.24-.24h6.09a.22.22,0,0,1,.23.24v1.3a.22.22,0,0,1-.23.24h-4.27a.13.13,0,0,0-.14.14v5c0,.1.05.15.14.15h3.7a.22.22,0,0,1,.23.23v1.31a.22.22,0,0,1-.23.23h-3.7c-.09,0-.14.05-.14.15v5.18c0,.1.05.15.14.15h4.27a.22.22,0,0,1,.23.23v1.31a.22.22,0,0,1-.23.23H146.8a.22.22,0,0,1-.24-.23Z"/><path class="cls-2" d="M161,139.41c-.15,0-.22,0-.26-.16l-2-6.73c-.21,0-.45,0-.66,0h-1c-.1,0-.15.05-.15.14v6.5a.22.22,0,0,1-.23.23H155.3a.22.22,0,0,1-.24-.23V123.54a.23.23,0,0,1,.24-.24h2.82c2.84,0,4.36,1.23,4.36,4.65,0,2.15-.71,3.45-2,4.09l2.26,7.14c0,.12,0,.23-.12.23ZM160.56,128c0-2.18-.71-2.87-2.42-2.87h-1c-.1,0-.15,0-.15.14v5.45c0,.1.05.14.15.14h1C159.8,130.81,160.56,130.15,160.56,128Z"/><path d="M55.06,50.65C54.4,47,54,43.29,53.64,39.6s-.35-7.43-.73-11.13l-.44-5.54a41.45,41.45,0,0,0-.69-5.48c-.37-1.8-.81-3.58-1.34-5.34s-1.39-3.63-.75-5.67l.07-.2.19,0,1.63-.4a10.49,10.49,0,0,1,1.73-.31,1,1,0,0,1,.86.54.88.88,0,0,1-.11,1,3.21,3.21,0,0,1-1.54.77l0-.08a3.15,3.15,0,0,0,1.33-.87A.57.57,0,0,0,53.28,6a13.1,13.1,0,0,0-1.53.44l-1.6.51.26-.25c-.46,1.65.41,3.37.94,5.15a35.49,35.49,0,0,1,1.34,5.47q.23,1.38.36,2.79c.08.94,0,1.86.07,2.8.05,1.86,0,3.72.12,5.58s.28,3.69.52,5.53.52,3.68.7,5.53c.34,3.7.64,7.4.69,11.12Z"/><path d="M54,38.12a1.46,1.46,0,0,1,1.22.34,5.34,5.34,0,0,0,.41.53,1.29,1.29,0,0,0,.58.23,2.42,2.42,0,0,1,2,1.46l0,.08A2.42,2.42,0,0,1,56,39.66a1.22,1.22,0,0,0-.47-.41,4.76,4.76,0,0,0-.64-.11A1.55,1.55,0,0,1,54,38.2Z"/><path d="M54.76,58.77c.17-1.74.38-3.46.5-5.19s.25-3.45.38-5.18.23-3.45.24-5.19c0-.41-.12-.88.2-1.37a5.35,5.35,0,0,1,1.12-.77l2.21-1.4.25-.16,0,.31A114.26,114.26,0,0,0,60.9,52.13,59.84,59.84,0,0,0,64,64.06l-.08,0a35.13,35.13,0,0,1-4-11.81,62.66,62.66,0,0,1-.61-12.46l.27.15-2.24,1.33a6.13,6.13,0,0,0-1,.72c-.18.27-.08.74-.07,1.17a48.2,48.2,0,0,1,.17,5.24A45.61,45.61,0,0,1,56,53.66a42,42,0,0,1-1.11,5.12Z"/><path d="M54,8.18a63.94,63.94,0,0,1,1.78,8.44,59.75,59.75,0,0,0,1.3,8.53,110.24,110.24,0,0,1,2.67,17H59.7a111.69,111.69,0,0,1-3.08-17,61,61,0,0,0-1.57-8.47A64.36,64.36,0,0,1,54,8.19Z"/><path d="M73.05,52.17a121.69,121.69,0,0,0-1.32-13.12c-.88-4.26-2-8.57-2.89-12.88s-1.75-8.64-2.64-12.95S64.31,4.61,63.33.31L63.27,0h.29l1.8,0h.92a1.09,1.09,0,0,1,1,.53C67.73,1.76,68,2.84,68.43,4l2.24,6.88c1.48,4.58,2.9,9.2,4.17,13.88,1,4.72,1.76,9.5,3.11,14.1s3,9.16,4.5,13.73l-.09,0c-1.86-4.45-3.62-8.94-5.08-13.56A129.84,129.84,0,0,1,73.9,25l-2-6.92-2.08-6.93-2-6.94c-.34-1.13-.68-2.37-1-3.41C66.67.42,66,.53,65.37.51l-1.81,0,.22-.28c.9,4.32,1.76,8.64,2.77,12.93L69.61,26c1,4.3,2,8.56,2.82,12.94a87.39,87.39,0,0,1,.72,13.22Z"/><path d="M52.83,55.2a5.64,5.64,0,0,1-.14,2.56,1.59,1.59,0,0,1-.42.67,1.22,1.22,0,0,1-.7.29,6.62,6.62,0,0,0-1.26.21c-1.45.6-2,2-3.14,3.42l-.08,0a4.73,4.73,0,0,1,.72-2.56,3,3,0,0,1,2.43-1.34,4.11,4.11,0,0,0,1.26,0c.41-.15.44-.44.42-.82a5.76,5.76,0,0,1,.82-2.42Z"/><path d="M51.68,55a5,5,0,0,0-2.88-2.55,20.45,20.45,0,0,1-2-.77,4.23,4.23,0,0,1-1.65-1.46l-.62-.88a2.48,2.48,0,0,0-.54-.65s0,0-.13,0l-.43.24c-.31.17-.63.33-1,.48s-.77.34-.8.38a7.72,7.72,0,0,1-.64.62.34.34,0,0,0,0-.1v.25l0,.29c0,.19-.09.37-.14.54a2.76,2.76,0,0,0-.15,1l-.09,0a2,2,0,0,1-.29-1.1,4.43,4.43,0,0,0,0-.52l0-.25v-.21a.44.44,0,0,1,0-.16c.29-.62.51-.67.7-1A4,4,0,0,1,42,48.51c.32-.15.64-.31,1-.44l.52-.22a1,1,0,0,1,.9.07,2.37,2.37,0,0,1,.73,1l.41,1a2.33,2.33,0,0,0,1.36,1.42,16.07,16.07,0,0,0,2.1.3A3.55,3.55,0,0,1,51.78,55Z"/><path d="M101.4,78.85a4.18,4.18,0,0,1,3,1.73,9.21,9.21,0,0,1,.55,1.66,2.18,2.18,0,0,0,1,1.23c1,.56,1.86.21,3.16.21a2.37,2.37,0,0,1,1.74.92c.4.44.66.88,1.09,1.08l.11.06v0a.49.49,0,0,1-.41.75v-.09c.2-.09.18-.39.08-.4l.12.08a3.1,3.1,0,0,1-1.59-.89,2,2,0,0,0-1.21-.53c-.48-.06-1,0-1.67-.07a2.84,2.84,0,0,1-1.67-.81,25.69,25.69,0,0,1-2-2.78,13.77,13.77,0,0,0-2.41-2.09Z"/><path d="M109.6,86c-1.46.85-3,1.62-4.48,2.37a.35.35,0,0,1-.13.08s0,0,0,0,0,.13.2.22a4,4,0,0,1,1.12.75c.67.62,1.08,1.37,1.69,1.81a1.78,1.78,0,0,0,2,.31,6.82,6.82,0,0,1,2.56-.42c1.72.06,3.38.51,5,.56a13.1,13.1,0,0,0,4.8-.94c.77-.29,1.54-.62,2.31-1a3.38,3.38,0,0,0,.93-.49c.14-.11.16-.49.24-.92.14-.84.24-1.67.4-2.5s.49-1.75,0-2A5.16,5.16,0,0,1,124.53,82a3.93,3.93,0,0,1-.45-1.24c-.08-.39-.14-.87-.54-1v-.1c.52.06.67.63.82,1a4.54,4.54,0,0,0,.56,1.07,5.07,5.07,0,0,0,1.86,1.54,1.34,1.34,0,0,1,.52.68,2.14,2.14,0,0,1,.06.78L127.23,86c-.09.84-.22,1.67-.33,2.51a2.8,2.8,0,0,1-.48,1.46,3.36,3.36,0,0,1-1.27.71c-.79.32-1.59.62-2.41.89a11.43,11.43,0,0,1-5.13.62,35,35,0,0,0-5-.75,4.94,4.94,0,0,0-2.36.58,2.6,2.6,0,0,1-1.36.35,2.81,2.81,0,0,1-1.34-.51,14.06,14.06,0,0,1-1.8-1.85,3.53,3.53,0,0,0-1-.69,1.07,1.07,0,0,1-.54-.75.74.74,0,0,1,.15-.59,2.8,2.8,0,0,1,.4-.27c1.56-.64,3.13-1.27,4.74-1.81Z"/><path d="M82.26,34.4a3.57,3.57,0,0,1,.11,1.75,3.9,3.9,0,0,1-.3.87,1.37,1.37,0,0,1-.78.73c-.72.18-1.27,0-1.54.27a1.77,1.77,0,0,0-.52,1.19,10.81,10.81,0,0,0,.2,3.25,3.34,3.34,0,0,0,2.08,2.34l.56.18-.58.16a1.19,1.19,0,0,0-.71,1.4,8.37,8.37,0,0,0,.73,1.81,6,6,0,0,0,.39.8c0,.05.11,0,.51-.06a7.73,7.73,0,0,1,2.14-.24,8.85,8.85,0,0,1,7.23,3.83l-.07.06a10.93,10.93,0,0,0-3.36-2.15,10.69,10.69,0,0,0-3.81-.76,12.58,12.58,0,0,0-1.93.17,3.35,3.35,0,0,1-.6.09,1,1,0,0,1-.79-.38,5,5,0,0,1-.47-1.05,6.84,6.84,0,0,1-.57-2.07,1.68,1.68,0,0,1,1.24-1.8l0,.34a4.46,4.46,0,0,1-2.35-2.53,8.47,8.47,0,0,1-.62-3.46,2.17,2.17,0,0,1,.88-1.79c.72-.42,1.41-.14,1.78-.27s.64-.56.82-1a3.79,3.79,0,0,0,.25-1.61Z"/><path d="M82.44,50.88c.53,1.59.5,3.36,1.28,4.69a7.62,7.62,0,0,0,3.61,2.88c1.47.68,3.06,1.22,4.58,1.94a7.32,7.32,0,0,1,3.67,3.38,6,6,0,0,0,1.33,1.93c.58.49,1.33.84,2,1.43a4.82,4.82,0,0,1,1.47,2.3,1.77,1.77,0,0,1-2.85,2,7.5,7.5,0,0,1-.93-.94,10,10,0,0,1-1.36-2.19,20.39,20.39,0,0,1-1.37-4.83l.09,0A32.12,32.12,0,0,0,95.92,68a9.62,9.62,0,0,0,1.39,1.92c.52.55,1.21,1.22,1.6,1.13.17,0,.42-.25.53-.49a1.63,1.63,0,0,0,0-.91,4.07,4.07,0,0,0-1.12-1.87c-.55-.51-1.3-.92-1.94-1.55A5.7,5.7,0,0,1,95.12,64a5.74,5.74,0,0,0-3.35-3.3c-1.5-.69-3.15-.92-4.74-1.53a7.15,7.15,0,0,1-4-3.26c-.78-1.66-.53-3.37-.73-5Z"/><path d="M93,42.59a26.91,26.91,0,0,1,0-2.84,6.62,6.62,0,0,1,.18-1.5c.26-.67.83-.88,1.11-1.13a3.59,3.59,0,0,0,.88-.94,4.2,4.2,0,0,0,.3-.6,1.46,1.46,0,0,1,.38-.68,1.23,1.23,0,0,1,1.49.17,7.8,7.8,0,0,1,1,1,6.29,6.29,0,0,1,1.35,2.63,9.39,9.39,0,0,0,.75,2.52,1.28,1.28,0,0,0,.78.65,4.07,4.07,0,0,1,1.43.57,5.06,5.06,0,0,1,1.57,2.48l-.08,0a6.7,6.7,0,0,0-1.89-1.9,3.27,3.27,0,0,0-1.24-.31,2.18,2.18,0,0,1-1.42-1,7.85,7.85,0,0,1-.77-2.88,7.7,7.7,0,0,0-.89-2.51,4.62,4.62,0,0,0-.84-1.06c-.32-.28-.82-.49-1.08-.21s-.21.84-.43,1.29a3.93,3.93,0,0,1-.82,1.29c-.4.38-.78.59-.85.84a12.11,12.11,0,0,0-.24,1.29,22.13,22.13,0,0,1-.62,2.77Z"/><path d="M106.51,43.2a5.05,5.05,0,0,1,1.9,3.35c.14,1.32-.39,2.65,0,3.77.21.54.56,1,.86,1.6a3.14,3.14,0,0,1,.49,2.08c-.46,1.66-1.88,2-2.4,3.08l-.1,0c0-1.42,1.48-2.32,1.51-3.23.21-.91-.73-2-.86-3.41a16.87,16.87,0,0,1,.11-1.93,6.34,6.34,0,0,0-.37-1.79,23.18,23.18,0,0,0-1.21-3.44Z"/><path d="M60.17,48.77a5.88,5.88,0,0,1,.94-4.25c.9-1.23,1.83-2.2,2.76-3.32a9,9,0,0,1,1.68-1.45,4.38,4.38,0,0,1,1-.48.58.58,0,0,1,.64.3,2.84,2.84,0,0,1,.21.54c.41,1.39.67,2.81,1.07,4.17a9.41,9.41,0,0,0,1.82,3.66c.87,1,2.12,2,2.65,3.54s.27,3,.41,4.35a11.37,11.37,0,0,0,1.16,4l-.08,0a9.05,9.05,0,0,1-1.8-4,31.47,31.47,0,0,0-.6-4.13,13.93,13.93,0,0,0-2.43-3.31A8.51,8.51,0,0,1,68,44.4a24,24,0,0,0-.88-4.19c-.11-.34-.26-.67-.45-.57a4.45,4.45,0,0,0-.83.53,9.29,9.29,0,0,0-1.4,1.53c-.44.54-.85,1.14-1.36,1.67a20,20,0,0,0-1.4,1.57,6.77,6.77,0,0,0-1.43,3.82Z"/><path d="M63.26,42.58a16,16,0,0,1-.65-2.39,11.59,11.59,0,0,1-.26-2.43,13.33,13.33,0,0,0-.15-2.45c-.1-.81-.36-1.59-.53-2.39L61.48,32l.8.59a16.29,16.29,0,0,1,2.93,2.59,7.07,7.07,0,0,1,1.69,3.56l-.09,0a14.67,14.67,0,0,0-2.32-2.95c-.87-.89-1.77-1.77-2.69-2.67l.6-.33c.05.82,0,1.65.11,2.46A13.38,13.38,0,0,0,63,37.68a12.42,12.42,0,0,1,.37,2.42,15.68,15.68,0,0,1,0,2.47Z"/><path d="M66.77,39.45c-.44-2.6-.82-5.2-1.21-7.8s-.76-5.21-1.07-7.82L63.54,16c-.36-2.6-.8-5.2-1.31-7.78l.34.11c-.74.63-1.59.38-2.29.45s-1.41.18-1.45.8a38.19,38.19,0,0,0,.48,4.33c.39,2.94,1,5.85,1.46,8.79a100,100,0,0,1,2,17.77h-.1c-.58-5.93-1.83-11.73-2.87-17.6-.56-2.93-1-5.89-1.34-8.85a35.41,35.41,0,0,1-.26-4.56,1.34,1.34,0,0,1,.86-1,3,3,0,0,1,1.2-.16c.74,0,1.57.17,2-.21l.3-.25.05.35c.38,2.61.81,5.2,1.27,7.8s1,5.17,1.38,7.77.68,5.22,1,7.84.47,5.25.6,7.88Z"/><path d="M92.8,6.32a7.62,7.62,0,0,0,2.45-.87,2.59,2.59,0,0,0,.49-.33c.05-.14.05,0-.06-.09a3.66,3.66,0,0,0-1.16-.23c-.81-.09-1.79,0-2.08.48a5.35,5.35,0,0,0,.06,2.34c.41,3.5,1.77,6.85,2.94,10.22s1.84,6.92,2.66,10.36c.43,1.72.86,3.43,1.41,5.11a20.67,20.67,0,0,1,1.24,5.23h-.1a29.81,29.81,0,0,0-1.82-5,37.45,37.45,0,0,1-1.67-5.13c-.89-3.48-1.41-7-2.22-10.45S92.55,11.3,91.73,7.75c-.08-.45-.15-.9-.2-1.35a2.18,2.18,0,0,1,.22-1.56,2,2,0,0,1,1.42-.78,5.32,5.32,0,0,1,1.44,0A3.37,3.37,0,0,1,96,4.51a.66.66,0,0,1,.32.46.59.59,0,0,1-.22.54,2.8,2.8,0,0,1-.65.38,6.37,6.37,0,0,1-2.67.53Z"/><path d="M97.14,7a44.4,44.4,0,0,0,1.72,6.62c.31,1.11.58,2.23.93,3.34l1.12,3.3a16.22,16.22,0,0,1,.41,7,64.08,64.08,0,0,1-1.06,6.85h-.1a66.8,66.8,0,0,1,.16-6.94,23.73,23.73,0,0,0,.09-6.78,17.54,17.54,0,0,0-.9-3.32c-.42-1.08-1-2.11-1.39-3.19A14.18,14.18,0,0,1,97.05,7Z"/><path d="M101.58,23.27c.59,1.72,1.11,3.42,1.52,5.16.18.88.31,1.78.54,2.65a20.9,20.9,0,0,0,.91,2.55,35.36,35.36,0,0,1,1.75,5.14,23.54,23.54,0,0,1,.53,5.43h-.1c-.59-1.73-.89-3.48-1.41-5.19s-.89-3.47-1.26-5.24a24,24,0,0,0-.71-2.61c-.3-.85-.69-1.67-1-2.53a16.18,16.18,0,0,1-.86-5.36Z"/><path d="M63.59,64.38a3.55,3.55,0,0,1,.94-2.18c.3-.27.66-.49,1-.75a7.37,7.37,0,0,0,.76-.9,5,5,0,0,1,4.1-2.2l0,.09a22.29,22.29,0,0,1-3.79,2.49,3.23,3.23,0,0,0-.88.72,8.38,8.38,0,0,0-.55,1,7.48,7.48,0,0,1-1.47,1.75Z"/><path d="M72.5,66.19c.25,0,.5,0,.71,0s.21,0,.19,0,0,0,0-.15a3.27,3.27,0,0,1,.9-1.16,5.65,5.65,0,0,1,2.56-1.41A26.38,26.38,0,0,0,79.55,63a22.92,22.92,0,0,0,2.61-.77l0,.07a4.58,4.58,0,0,1-2.4,1.66,6.07,6.07,0,0,1-2.9,0,1.49,1.49,0,0,0-1.23.28,5.37,5.37,0,0,0-.77,1.15c-.33.41-.58.63-.86,1a.87.87,0,0,1-.44.34.85.85,0,0,1-.51-.06,2.93,2.93,0,0,1-.63-.4Z"/><path d="M78.46,71.53c1.3-.5,2.53-.91,3.78-1.32a10.79,10.79,0,0,0,1.89-.64,6.66,6.66,0,0,0,1.6-1.19c1.9-1.89,3.42-4,5.35-5.95l.08,0a12.1,12.1,0,0,1-5.11,6.31c-.6.35-1.19.68-1.77,1s-1.13.79-1.76,1.11a7.9,7.9,0,0,1-4,.68Z"/><path d="M81.81,75.63c1-1,2-2,3-2.88a18.44,18.44,0,0,0,1.59-1.36,8.93,8.93,0,0,0,1.19-1.72c1.32-2.47,2.4-4.91,3.63-7.48l.09,0A12.36,12.36,0,0,1,88,70c-.48.53-1,1.06-1.38,1.62s-.82,1.17-1.28,1.72a9.29,9.29,0,0,1-3.52,2.4Z"/><path d="M88.35,77.37a27.67,27.67,0,0,1,2.11-1.88,6.8,6.8,0,0,0,1.13-.87,4,4,0,0,0,.76-1.2c.74-1.78,1.33-3.43,2.24-5.21h.09a7,7,0,0,1-1.9,5.48c-.33.37-.66.73-1,1.12s-.52.85-.84,1.24a4.33,4.33,0,0,1-2.6,1.39Z"/><path d="M48.91,74.3a3.69,3.69,0,0,1,.81,1.6,2.83,2.83,0,0,0,.14.87,1.67,1.67,0,0,0,.59.65,2.82,2.82,0,0,1,.71.64,2.31,2.31,0,0,1,.42.87c.17.65.06,1.11.52,1.53l0,.1a1,1,0,0,1-1-.41,2.84,2.84,0,0,1-.44-.84,6.57,6.57,0,0,0-.25-.78c-.11-.23-.24-.5-.36-.79a6.53,6.53,0,0,0-.45-.82c-.19-.25-.44-.47-.62-.75a2.61,2.61,0,0,1-.17-1.85Z"/><path d="M53,74.4a3.19,3.19,0,0,1,1.52,1.66c.11.36.14.76.24,1.11a7.05,7.05,0,0,0,.45,1c.19.32.36.63.53.88a1.2,1.2,0,0,0,.46.42,2.67,2.67,0,0,0,.87-.07c.36,0,.89-.1,1.19.27l-.05.08c-.7,0-1,.71-2.15.71-.74-.17-.88-.61-1.1-1a3,3,0,0,1-.24-1.15,2.69,2.69,0,0,0-.24-1,4.57,4.57,0,0,0-.66-.86,6.77,6.77,0,0,1-.89-2Z"/><path d="M110.89,76.74a4,4,0,0,1,1.88-.76,8.69,8.69,0,0,0,1,0,2.85,2.85,0,0,0,.92-.38,7.31,7.31,0,0,1,3.8-1.24l0,.08a5.24,5.24,0,0,1-3.68,1.65,3.35,3.35,0,0,0-1,.19c-.31.12-.6.34-.91.49a3.39,3.39,0,0,1-2,.09Z"/><path d="M112.92,81.38c.12-.37.31-.55.56-.56a1.8,1.8,0,0,0,.41.11.42.42,0,0,0,.3-.21.93.93,0,0,1,1.42-.28l0,.09a.93.93,0,0,1-1.27.67.45.45,0,0,0-.38,0c-.1.07-.16.24-.25.34s-.46.13-.79-.09Z"/><path d="M95.08,53.55a8.77,8.77,0,0,1,3.13-.83,14.73,14.73,0,0,0,1.63,0,6,6,0,0,0,1.55-.42l2.94-1.16a6.86,6.86,0,0,0,2.61-1.56l.09,0a3.94,3.94,0,0,1-2.3,2.44,10.12,10.12,0,0,1-3.22.74A12,12,0,0,0,99.9,53c-.53.13-1,.35-1.57.5a9.49,9.49,0,0,1-3.24.16Z"/><path d="M96.59,47.88a7.54,7.54,0,0,1,2.77.11,12.68,12.68,0,0,0,1.33.4,4.51,4.51,0,0,0,1.37,0c1.83-.3,3.47-.55,5.35-.8l0,.09a6.1,6.1,0,0,1-5.4,1.22,8.4,8.4,0,0,0-1.39-.18c-.46,0-.94.07-1.41.08A6.33,6.33,0,0,1,96.57,48Z"/><path d="M82.59,47A12.34,12.34,0,0,1,85,46.16a6.85,6.85,0,0,0,1.26-.25,3.76,3.76,0,0,0,1.06-.7C88.59,44,89.65,42.89,91,41.7l.08,0a5.44,5.44,0,0,1-3.47,3.9,9.46,9.46,0,0,0-1.21.54c-.38.22-.74.51-1.15.72a4,4,0,0,1-2.66.17Z"/><path d="M84.19,41.89a4,4,0,0,1,1.59-1,5.86,5.86,0,0,0,.91-.18,2.6,2.6,0,0,0,.73-.55A7.88,7.88,0,0,1,90.3,38l.07.06a3.87,3.87,0,0,1-2.68,2.59,3.51,3.51,0,0,0-.86.38c-.26.18-.47.44-.74.63a2.51,2.51,0,0,1-1.87.32Z"/><path d="M86.38,37.11a1.44,1.44,0,0,1,.88-.89,4.34,4.34,0,0,0,.63-.09,1.1,1.1,0,0,0,.47-.39,2.33,2.33,0,0,1,2.2-1l0,.08a2.32,2.32,0,0,1-2,1.37,1.26,1.26,0,0,0-.58.2,4.09,4.09,0,0,0-.4.51,1.45,1.45,0,0,1-1.22.29Z"/><path d="M61.3,54.85a2.36,2.36,0,0,1,1.29-.66,3.65,3.65,0,0,0,.74,0,1.46,1.46,0,0,0,.61-.38,4.38,4.38,0,0,1,2.45-1.43l.07.07a2.63,2.63,0,0,1-2.3,1.82,2.33,2.33,0,0,0-.71.2c-.22.12-.4.34-.62.48a1.74,1.74,0,0,1-1.51,0Z"/><path d="M49.72,68.69a2.13,2.13,0,0,1-.43-1.82c.1-.31.29-.59.39-.88a3.86,3.86,0,0,0,.17-.91,3.06,3.06,0,0,1,2.32-2.78l0,.07a15.17,15.17,0,0,1-1.89,2.89,1.85,1.85,0,0,0-.35.8,3.25,3.25,0,0,0,.09.88,5.16,5.16,0,0,1-.26,1.73Z"/><path d="M94.7,80.45a16.06,16.06,0,0,1,2.82-.73A8.86,8.86,0,0,0,99,79.53a4.53,4.53,0,0,0,1.3-.65c1.61-1.13,3-2.23,4.74-3.31l.07.06a7.06,7.06,0,0,1-4.59,3.72,13.12,13.12,0,0,0-1.42.47c-.45.19-.89.47-1.36.66a5.14,5.14,0,0,1-3,.06Z"/><path d="M53.89,72.2c.54.65,1,1.2,1.4,1.81A4.32,4.32,0,0,0,56,75a2.52,2.52,0,0,1,.8,1,2.34,2.34,0,0,1,0,1.32,2.06,2.06,0,0,0,0,.9c0,.17.17.33.55.67a1.71,1.71,0,0,1,.49,1.23l-.09,0a2.5,2.5,0,0,0-.85-.68c-.14-.08-.32-.15-.54-.28a1.31,1.31,0,0,1-.53-.7,2.13,2.13,0,0,1,.18-1.43,5.87,5.87,0,0,0,.37-1,1,1,0,0,0-.5-.88,11.61,11.61,0,0,1-1-.68,2.92,2.92,0,0,1-.9-2.29Z"/><path d="M65.85,81.53a27.45,27.45,0,0,1,2.69.63,3,3,0,0,0,1.33.2,3.59,3.59,0,0,1,.75,0,2.93,2.93,0,0,1,.76.22c.49.2.73.21,1,0a5.88,5.88,0,0,1,1.24-.77,4.43,4.43,0,0,1,1.54,0,5.8,5.8,0,0,0,1.36-.08l0,.08a2.68,2.68,0,0,1-1.34.73c-.55.11-1,.06-1.28.16s-.67.41-1.22.63a1.4,1.4,0,0,1-1,0,2,2,0,0,1-.69-.45c-.64-.82-1.64,0-2.69,0a4.2,4.2,0,0,1-2.61-1.33Z"/><path d="M45.71,76.54c.33.06.46.12.41.2S46,76.9,46,77s.09,0,.15,0,0-.25,0-.19.12.09.44.1l.09,0a.44.44,0,0,1,0,.69.48.48,0,0,1-.74-.19c-.05-.12-.07-.2-.14-.24s-.23,0-.34-.1-.07-.32.22-.49Z"/><path d="M44.74,74.46c.3.11.42,0,.34,0a.5.5,0,0,0-.22.1s0,0,.1,0,.16-.18.14-.2-.14.13-.11.43v.1c-.07.29-.25.37-.37.35a.26.26,0,0,1-.07-.37c0-.08.08-.13,0-.14s-.19,0-.27,0,0-.26.33-.24Z"/><path d="M49.59,73.7c.29.16.41,0,.33.07a.48.48,0,0,0-.18.16s.06,0,.13,0c.33-.23.31-.29.3.34l0,.09c-.31.5-.63.32-.6,0,0-.1,0-.17,0-.19a1.42,1.42,0,0,1-.3-.05c-.14-.1,0-.41.31-.4Z"/><path d="M51.77,76.41c.27.22.36.32.28.37s-.2.08-.22.14.06.09.15.07c.34-.12.41-.15.47.5l0,.09a.58.58,0,0,1-.58.24.52.52,0,0,1-.26-.52c0-.12,0-.21,0-.28s-.2-.14-.27-.24.08-.36.41-.39Z"/><path d="M61.32,77.85c.32-.1.52,0,.55.15s-.07.25-.07.34.08.14.18.21a.56.56,0,0,1,.16.69.49.49,0,0,1-.75.12l0-.09a.49.49,0,0,0-.14-.44s.09,0,.25-.17.09-.15,0-.19-.2,0-.29,0-.12-.21,0-.52Z"/><path d="M60.33,75.35c.32,0,.43,0,.36,0l-.22.1s0,0,.11,0c.34,0,.39,0-.16.24l-.09,0c-.58.06-.56,0-.25-.14.08,0,.13-.07.09-.08h-.24c-.08,0,0-.07.31-.17Z"/><path d="M63.56,76.73c.31-.17.54-.09.58.1s-.06.26,0,.34.1.12.2.17c.45.15.57.7-.05,1h-.09c-.56-.33-.54-.37-.32-.75,0-.08.06-.17,0-.21a.74.74,0,0,0-.3,0c-.13,0-.11-.17,0-.51Z"/><path d="M63.12,81.14c.24-.21.32-.29.31-.2a1.48,1.48,0,0,0,0,.24s.06,0,.11-.07c.21-.28.18-.32.26.27v.09c-.16.58-.42.49-.43.12,0-.09,0-.14-.05-.13s-.14.12-.21.16-.13-.12,0-.4Z"/><path d="M45.5,61.66a3.44,3.44,0,0,1-.32,1.47,1.42,1.42,0,0,0-.29.65,1.58,1.58,0,0,0,.29.71,1.45,1.45,0,0,1,.21.9,6.13,6.13,0,0,0,0,.64c0,.36.18,1.13-.33,1.6l-.09,0c-.12-.54-.45-.8-.57-1.45a2.06,2.06,0,0,1,.11-.9,3.16,3.16,0,0,0,.17-.64,16.48,16.48,0,0,0-.27-1.68,1.74,1.74,0,0,1,1-1.32Z"/><path d="M42,59.05A7.68,7.68,0,0,1,42.08,61a2.22,2.22,0,0,0,0,1,2.55,2.55,0,0,1,.15,1.13c-.07.41-.25.72-.28.94s0,.55-.08.94a1.57,1.57,0,0,1-.68,1c-.13.11-.24.14-.3.23a.28.28,0,0,0,0,.35l-.05.08c-.53-.11-.37-.91-.14-1.16a1.09,1.09,0,0,0,.23-.7,3.85,3.85,0,0,1,.24-1,2.85,2.85,0,0,1,.63-.86.79.79,0,0,0,0-.84,5.37,5.37,0,0,1-.49-1,2.54,2.54,0,0,1,.61-2Z"/><path d="M47.2,65.35c.31.13.43.16.36.19s-.16.13-.15.18.08,0,.11-.08,0-.21,0-.29.2,0,.51.14l.07.06a.57.57,0,0,1,0,.64.45.45,0,0,1-.61,0c-.1-.09-.15-.16-.24-.18a.9.9,0,0,1-.39-.1c-.17-.19-.07-.42.24-.53Z"/><path d="M48.14,63c0-.32.17-.44.27-.34a1.14,1.14,0,0,1,.08.27s.09,0,.17,0a.29.29,0,0,1,.41.06c0,.13,0,.33-.28.46l-.09,0a.62.62,0,0,0-.44.11.48.48,0,0,0,.13-.21c0-.08,0-.14,0-.12a.5.5,0,0,0-.1.22c0,.07,0,0-.11-.34Z"/><path d="M50,61.28c-.31,0-.42,0-.34,0h.13c-.33,0-.37,0,.21,0h.1c.58,0,.54,0,.21,0h.13c.08,0,0,0-.34,0Z"/><path d="M49.73,55.55c.12.36.16.56,0,.75s-.27.14-.35.24a.56.56,0,0,0-.05.39.92.92,0,0,1-.32.84.76.76,0,0,1-1-.06v-.09c.2-.32.25-.48.33-.61a1.78,1.78,0,0,1,.51-.3.42.42,0,0,0,.23-.28A2.53,2.53,0,0,0,49,56a.62.62,0,0,1,.65-.52Z"/><path d="M48,54c0,.38.07.5-.1.66a1.19,1.19,0,0,0-.35.2.56.56,0,0,0-.06.37,1,1,0,0,1-.3.8.89.89,0,0,1-.42.15c-.15,0-.52,0-.55-.26l.08-.05c.13-.09,0-.22.07-.3a2.29,2.29,0,0,1,.13-.27A1.45,1.45,0,0,1,47,55a.39.39,0,0,0,.24-.26c0-.12-.07-.28-.07-.42a.55.55,0,0,1,.75-.4Z"/><path d="M44.91,53.41c.33,0,.38-.18.31-.12a.38.38,0,0,0-.13.2s0,0,0-.1-.07-.23-.1-.21,0,.19.32.28l.09,0a.36.36,0,0,1,.08.55.32.32,0,0,1-.45-.15c0-.08-.07-.15-.12-.14a1.32,1.32,0,0,1-.28.09c-.16,0-.17-.29.14-.43Z"/><path d="M53.34,65.3c.31.1.42-.08.32-.09a.38.38,0,0,0-.22.1s0,0,.06-.08.06-.25,0-.26-.18.18,0,.44l0,.08c.12.28,0,.45-.17.47s-.21-.14-.15-.32,0-.14,0-.14a.72.72,0,0,1-.27,0c-.12,0,0-.29.31-.25Z"/><path d="M52.14,67.59c.23-.21.31-.28.26-.22l-.15.18.08-.06c.25-.22.29-.23-.1.19l-.07.07c-.42.39-.41.35-.19.1.05-.06.09-.1.06-.08l-.18.15c-.06,0,0,0,.22-.26Z"/><path d="M61.83,64.81c.32,0,.37-.18.29-.15a.42.42,0,0,0-.16.17s0,0,0-.1-.1-.23-.15-.2,0,.22.28.33l.08,0c.25.18.21.41.11.51a.29.29,0,0,1-.4-.17c0-.09,0-.15-.09-.14s-.17.1-.26.1-.13-.28.18-.38Z"/><path d="M61.53,62.31c.26-.19.35-.24.32-.17a1.24,1.24,0,0,0-.16.19s0,0,.11,0c.28-.18.34-.17-.06.25l-.07.06c-.47.35-.48.28-.26,0,.05-.07.08-.11.05-.1l-.2.12c-.08,0,0,0,.2-.28Z"/><path d="M59.44,64.11c.32,0,.43.07.35.1a2.08,2.08,0,0,0-.24.06s0,0,.1,0c.34.06.37.13-.21.21h-.09c-.58-.07-.54-.14-.21-.21.08,0,.13,0,.11,0L59,64.21c-.08,0,0-.06.34-.1Z"/><path d="M60.75,67c.13.29.17.39.13.32l-.13-.21,0,.11c.13.3.12.35-.16-.16l0-.09c-.24-.52-.2-.5,0-.21,0,.07.07.11.06.08l-.09-.22c0-.07,0,0,.18.29Z"/><path d="M57,43.47A5.93,5.93,0,0,1,57.58,46c0,.44-.12.89-.12,1.32a5.65,5.65,0,0,0,.23,1.28A10,10,0,0,1,58,53.77h-.09a9.86,9.86,0,0,1-.7-5.12,5.14,5.14,0,0,0,0-1.3c-.07-.42-.25-.83-.36-1.25a6.14,6.14,0,0,1,.1-2.62Z"/><path d="M58.19,40.43a15.58,15.58,0,0,1,.62,4.27c0,.72-.11,1.44-.1,2.16A15.57,15.57,0,0,0,59,49a23,23,0,0,1,.37,4.31c0,1.47-.39,2.86-.53,4.28l-.09,0a16.28,16.28,0,0,1-.38-4.31c0-1.41,0-2.84.12-4.27a12.85,12.85,0,0,0,0-2.15c-.08-.72-.26-1.42-.37-2.13a16,16,0,0,1,.06-4.31Z"/><path d="M54.67,52.12a2.6,2.6,0,0,1,.25,1.82c-.11.29-.28.57-.37.86a3.36,3.36,0,0,0-.07.9A3.83,3.83,0,0,1,53.11,59L53,59A6.55,6.55,0,0,1,54,55.59a2.18,2.18,0,0,0,.27-.84,5.4,5.4,0,0,0-.11-.9,3.39,3.39,0,0,1,.43-1.73Z"/><path d="M56.52,55.9A1.19,1.19,0,0,1,56.64,57a4.81,4.81,0,0,0-.34.49,1,1,0,0,0,0,.56,1.92,1.92,0,0,1-.65,2.09l-.09,0A1.92,1.92,0,0,1,55.79,58a1,1,0,0,0,.21-.5,3.63,3.63,0,0,0-.13-.57,1.26,1.26,0,0,1,.56-1Z"/><path d="M62.22,27.74a2.81,2.81,0,0,1,.68,1.64,6.77,6.77,0,0,0-.06.89,2.45,2.45,0,0,0,.27.83,4.66,4.66,0,0,1,.48,3.45l-.09,0a4.6,4.6,0,0,1-.89-3.37,2.53,2.53,0,0,0-.07-.87,6.84,6.84,0,0,0-.41-.81,2.75,2.75,0,0,1,0-1.77Z"/><path d="M63.35,26.41A4.77,4.77,0,0,1,64,28.55a10.84,10.84,0,0,0-.06,1.13,3.72,3.72,0,0,0,.3,1.07A8.29,8.29,0,0,1,65,35.1l-.1,0a6.68,6.68,0,0,1-1.2-4.28,4.18,4.18,0,0,0-.1-1.12c-.09-.36-.29-.7-.41-1.06a4.1,4.1,0,0,1,0-2.25Z"/><path d="M73.14,36.52a14,14,0,0,1,1.3,4.64c.06.8,0,1.61.1,2.41a21.16,21.16,0,0,0,.35,2.37,28.53,28.53,0,0,1,.32,9.58h-.1A41.89,41.89,0,0,1,74.38,46a14.68,14.68,0,0,0-.14-2.39c-.13-.78-.38-1.55-.57-2.32a33.76,33.76,0,0,1-.62-4.74Z"/><path d="M75.92,46.89a6.39,6.39,0,0,1,.7,2.94c0,.51-.12,1-.12,1.51a6.86,6.86,0,0,0,.21,1.49,24.32,24.32,0,0,1,.73,5.9l-.09,0a9.24,9.24,0,0,1-1.15-5.89,7.52,7.52,0,0,0,0-1.5c-.07-.5-.24-1-.35-1.47a10,10,0,0,1,0-3Z"/><path d="M77.11,44a1.56,1.56,0,0,1,.49,1.21,5.74,5.74,0,0,0-.16.66,1.29,1.29,0,0,0,.17.62A2.51,2.51,0,0,1,77.7,49h-.09a2.51,2.51,0,0,1-.5-2.48,1.4,1.4,0,0,0,0-.64,4.87,4.87,0,0,0-.31-.6A1.59,1.59,0,0,1,77,44Z"/><path d="M78.27,52.23a1.26,1.26,0,0,1,.5,1,4.47,4.47,0,0,0-.16.57.92.92,0,0,0,.19.52,2,2,0,0,1,.11,2.19l-.09,0a1.94,1.94,0,0,1-.53-2.13,1,1,0,0,0,0-.56,4.53,4.53,0,0,0-.31-.5,1.22,1.22,0,0,1,.17-1.13Z"/><path d="M75.52,36.33a1.85,1.85,0,0,1,.8,1.17,5.88,5.88,0,0,0,0,.73,1.64,1.64,0,0,0,.35.61,3,3,0,0,1,.77,2.66l-.08,0A3,3,0,0,1,76.21,39a1.54,1.54,0,0,0-.15-.68,5.9,5.9,0,0,0-.47-.57,1.86,1.86,0,0,1-.16-1.41Z"/><path d="M65,2.69a3.8,3.8,0,0,1,.88,1.87,9.21,9.21,0,0,0,0,1.05,3.1,3.1,0,0,0,.38.95,6.32,6.32,0,0,1,.89,4l-.09,0a6.25,6.25,0,0,1-1.3-3.87,3.1,3.1,0,0,0-.17-1c-.13-.32-.35-.61-.51-.92a3.85,3.85,0,0,1-.21-2.06Z"/><path d="M68,9.72a1.27,1.27,0,0,1,.55,1c0,.19-.12.4-.12.59a1,1,0,0,0,.22.53,2,2,0,0,1,.23,2.24l-.09,0A2,2,0,0,1,68.13,12a1,1,0,0,0,0-.57,4.91,4.91,0,0,0-.34-.5,1.3,1.3,0,0,1,.11-1.17Z"/><path d="M60.07,11.26a4.19,4.19,0,0,1,.47,2.22c0,.38-.18.76-.21,1.13a4.3,4.3,0,0,0,.11,1.12A6.62,6.62,0,0,1,60,20.19h-.09a8.61,8.61,0,0,1,0-4.45,3.87,3.87,0,0,0,.1-1.12,11,11,0,0,0-.27-1.1A4.82,4.82,0,0,1,60,11.27Z"/><path d="M61.35,15.11a4.17,4.17,0,0,1,.38,2.29c-.08.38-.23.76-.29,1.14a5,5,0,0,0,0,1.16A8.74,8.74,0,0,1,61.4,22c-.14.74-.31,1.43-.5,2.21h-.1a4.25,4.25,0,0,1-.39-2.34,11.31,11.31,0,0,1,.53-2.23,3.57,3.57,0,0,0,.2-1.12A11.29,11.29,0,0,0,61,17.38a5.46,5.46,0,0,1,.3-2.27Z"/><path d="M93.22,7.32c0,.14-.15.14-.19,0a.18.18,0,0,1,.17-.17c.11,0,.11,0,.16-.06L93.59,7A.72.72,0,0,1,94,7a1.07,1.07,0,0,0,.44.19.51.51,0,0,0,.4-.2,2.06,2.06,0,0,1,1.54-.87l.08,0A1.21,1.21,0,0,1,95,7.47a1.22,1.22,0,0,0-.51,0c-.16.07-.31.22-.49.29a.74.74,0,0,1-.88-.44Z"/><path d="M94.33,8.52c0-.37.19-.55.42-.57s.29.09.4.07.19-.11.25-.22c.22-.51.35-.61,1-.6l.08,0a.75.75,0,0,1-.91,1,.37.37,0,0,0-.33,0c-.08.07-.12.24-.18.34s-.4.15-.74,0Z"/><path d="M94,9.86c.23-.27.35-.36.48-.28s.15.2.23.23.15,0,.21-.13c.23-.39.33-.47.92-.17l.06.08c.05.69-.48.87-.89.59-.11-.06-.2-.1-.28-.06s-.17.17-.27.24S94,10.29,94,10Z"/><path d="M99.25,20.92a4.61,4.61,0,0,1,.45,2.74c-.1.46-.26.9-.34,1.35a6.26,6.26,0,0,0,0,1.37A22.08,22.08,0,0,1,99,31.76h-.09a7.44,7.44,0,0,1-.07-5.45A4.74,4.74,0,0,0,99.05,25a12.51,12.51,0,0,0-.13-1.36,11.82,11.82,0,0,1,.24-2.68Z"/><path d="M98,21.11a2.56,2.56,0,0,1,.28,1.67c-.07.27-.22.55-.26.82a2.18,2.18,0,0,0,.07.84,4.19,4.19,0,0,1-.32,3.31h-.1a4.24,4.24,0,0,1-.09-3.33,2.18,2.18,0,0,0,.13-.83,6.45,6.45,0,0,0-.21-.84,2.61,2.61,0,0,1,.41-1.65Z"/><path d="M103.73,32.09a9.48,9.48,0,0,1,.26,3,4.5,4.5,0,0,0,.12,1.45,7.48,7.48,0,0,0,.62,1.39,9.91,9.91,0,0,1,1,2.94c.13,1,.2,2,.25,3l-.08,0A7.93,7.93,0,0,1,104.69,41c-.18-1-.29-2-.44-2.95a6.71,6.71,0,0,0-.43-1.45,8.48,8.48,0,0,1-.6-1.48,6.73,6.73,0,0,1,.42-3.07Z"/><path d="M102.77,30.53a6,6,0,0,1,.06,3c-.13.49-.32,1-.4,1.46a4.33,4.33,0,0,0,.07,1.48c.4,1.92,1,3.83.75,5.94l-.09,0a15.28,15.28,0,0,1-1-2.87,9.27,9.27,0,0,1-.18-3.07c.06-.51.14-1,.15-1.52s-.07-1-.07-1.54a10.87,10.87,0,0,1,.62-2.94Z"/><path d="M54,22.88c.32.24.43.48.35.73s-.2.24-.23.36a.53.53,0,0,0,.11.37A1,1,0,0,1,54,25.8h-.1a1,1,0,0,1-.22-1.46.46.46,0,0,0,.1-.36,2.12,2.12,0,0,0-.24-.37c-.08-.25,0-.49.33-.73Z"/><path d="M54.29,28.13a1.31,1.31,0,0,1,.47,1.06,3.08,3.08,0,0,0-.17.57.9.9,0,0,0,.17.53,2,2,0,0,1,0,2.21h-.09a1.94,1.94,0,0,1-.46-2.16,1.2,1.2,0,0,0,0-.56,4.86,4.86,0,0,0-.31-.53,1.25,1.25,0,0,1,.21-1.12Z"/><path d="M55.64,30.76a1.51,1.51,0,0,1,.44,1.3c-.07.22-.22.44-.27.65a1.7,1.7,0,0,0,0,.67,2.21,2.21,0,0,1-.94,2.46l-.09,0a3.42,3.42,0,0,1,.52-2.49,1.19,1.19,0,0,0,.17-.62,3.58,3.58,0,0,0-.21-.63,1.88,1.88,0,0,1,.25-1.29Z"/><path d="M61,54.86a5.13,5.13,0,0,1,.86-1.34,5.25,5.25,0,0,0,1.34-1.05c.38-.47.76-.79,1.08-1.15s.74-.65,1.23-1l.09,0A2.43,2.43,0,0,1,65,52a3.13,3.13,0,0,1-1.49.87,1.85,1.85,0,0,0-.72.38,3.32,3.32,0,0,0-.33.74A1.7,1.7,0,0,1,61,55Z"/><path d="M64.41,55.7a.77.77,0,0,1-.46.89c-.18,0-.39,0-.54,0a1,1,0,0,0-.41.26c-.3.24-.55.36-.55.4s-.26.18-.58.44h-.09a.85.85,0,0,1,0-1.18,1,1,0,0,1,1.09-.16.42.42,0,0,0,.41,0c.12-.08.17-.27.23-.4s.39-.26.82-.3Z"/><path d="M63.7,58.32c.3-.14.38-.22.35-.13a1.29,1.29,0,0,0-.09.25s.06,0,.06-.09-.19-.23-.28-.06.22.34.39.06l0-.08c.31-.21.59.21.47.45s-.53.34-.65.14-.09-.15-.15-.15-.17.09-.26.11-.16-.21,0-.45Z"/><path d="M65.65,56.61c.24.21.4.12.32.08a.61.61,0,0,0-.24,0s0,0,.09-.05.09-.25,0-.26-.17.14-.07.43l0,.09c0,.3-.15.43-.28.42a.27.27,0,0,1-.14-.39c0-.08.07-.13,0-.15s-.19,0-.25-.11.09-.28.38-.13Z"/><path d="M66,59.09c.11.15.19.2.24.21s.09,0,0,0L65.85,59c0,.14.12.26.15.15s0-.26,0-.29.06,0,.44.15l.07.07c.22.36.1.62-.11.58s-.23-.09-.32-.17-.12.06-.19.21l-.38-.34a.17.17,0,0,1,0-.27.36.36,0,0,1,.39,0Z"/><path d="M67.88,56.85c.13-.31.05-.42.14-.37s.17.13.22.11,0-.08,0,.12.17.24.08.32a2.58,2.58,0,0,1-.5-.21l-.06-.07a.47.47,0,1,1,.84-.4c.12.29-.1.35-.09.44a1.63,1.63,0,0,1,0,.35c-.12.18-.44.13-.55-.2Z"/><path d="M63.69,48.64c.09-.32,0-.43.08-.35a1.21,1.21,0,0,0,.14.22s0,0,0-.1-.29.06-.19.21.39,0,.26-.29l0-.08c0-.36.48-.37.62-.16s0,.62-.22.61-.18,0-.21.06,0,.19-.06.27-.29,0-.34-.29Z"/><path d="M65,46.84c.33,0,.39-.15.35-.07a.47.47,0,0,0-.1.22s.06,0,.12,0c.24-.25.3-.28.31.32l0,.09c-.27.53-.51.43-.53,0,0-.09,0-.16-.06-.16s-.18.08-.27.08-.17-.27.11-.45Z"/><path d="M66.67,48c-.28.19-.12.4-.09.3a.32.32,0,0,0,0-.23s0,0,.08.06.26-.05.24-.09-.22,0-.35.24l0,.08a.35.35,0,0,1-.57,0,.36.36,0,0,1,.28-.46c.11,0,.18,0,.21-.06s.05-.2.13-.28.45.14.24.43Z"/><path d="M68.07,50.07c0,.33.22.36.18.27a.36.36,0,0,0-.18-.15s0,0,.1,0,.25,0,.24-.08-.23-.09-.41.16l-.06.07a.33.33,0,0,1-.51,0,.24.24,0,0,1,.24-.28c.09,0,.15,0,.14-.05a.76.76,0,0,1-.12-.24c0-.13.26-.14.36.18Z"/><path d="M69.57,64.51c.33.09.43,0,.34.08s-.2.07-.21.13,0,0,0-.1-.29-.09-.24-.17a2.83,2.83,0,0,1,.49,0l.09,0c.23.19.27.34.25.46a.45.45,0,0,1-.58.14c-.12-.09-.14-.17-.21-.18a.92.92,0,0,1-.32-.07c-.11-.1,0-.33.29-.39Z"/><path d="M71.26,63.39c.31,0,.43,0,.36,0l-.21.11s0,0,.11,0c.34,0,.4,0-.14.26l-.09,0c-.58.09-.56,0-.26-.15.07,0,.12-.07.09-.08a2.36,2.36,0,0,0-.25,0c-.08,0,0-.08.3-.2Z"/><path d="M72.2,65.09c-.12.26,0,.35,0,.33s.17-.13.14-.22-.09-.22-.23-.18,0-.12-.06-.14,0-.07,0-.09a.35.35,0,0,0,0-.14s.07.1.35.31l.06.07c.16.32.06.53-.08.56a.58.58,0,0,1-.22-.08.73.73,0,0,1-.11-.09c-.1,0-.12-.12-.17-.16s-.27-.19-.26-.3a.34.34,0,0,1,.23-.32.3.3,0,0,1,.31.36Z"/><path d="M73.67,63.3a2,2,0,0,1,0,.35c0,.05,0,0,0-.1s0-.18,0-.13a.83.83,0,0,0,0,.25l-.17-.81c0-.12,0-.08,0,0a2.06,2.06,0,0,1,.19.38l0,.08c.08.24.09.32.12.41s0,.09-.06,0l-.17-.81a1.45,1.45,0,0,0,0,.25s0,0,0-.12,0-.16,0-.11,0,.15,0,.35Z"/><path d="M77.67,66.87l.75-.08a1.23,1.23,0,0,0,.55-.27c.44-.28.88-.49,1.27-.72A4.75,4.75,0,0,0,81.46,65a5.16,5.16,0,0,0,.82-1.26,4.19,4.19,0,0,1,2.37-2.14,23.62,23.62,0,0,0,2.82-1l.06.07a5.14,5.14,0,0,1-2.48,1.87A6.17,6.17,0,0,0,82.7,64a12.34,12.34,0,0,0-1,1.16,8.3,8.3,0,0,1-1,1.25,4.18,4.18,0,0,1-1.39.74,1.54,1.54,0,0,1-.91.11,2.9,2.9,0,0,1-.74-.32Z"/><path d="M82.64,61c.28-.23.28-.36.39-.29s.17.16.24.15.08-.12,0-.17-.13.13-.12.19.06.1,0,.08a1.81,1.81,0,0,0,.1-.19.13.13,0,0,0-.24-.06l-.05.08c-.24.05-.38-.29-.25-.51a.64.64,0,0,1,.57-.31.79.79,0,0,1,.48.27c.18.12.16.56,0,.63s-.24.14-.31.23-.11.26-.23.36a.42.42,0,0,1-.62-.37Z"/><path d="M84.76,59.78c.29-.12.4-.11.34,0l-.21.13s0,0,.12,0c.34,0,.41.12-.16.23h-.09c-.59,0-.56,0-.25-.1.08,0,.12-.06.09-.06l-.23.05c-.07,0,0,0,.3-.2Z"/><path d="M80.21,64.48c.29.12.38.19.3.2l-.24,0s0,0,.08.08c.3.16.32.24-.26.13l-.09,0c-.53-.24-.47-.29-.14-.26.08,0,.14,0,.12,0l-.21-.11c-.07-.06,0-.06.35,0Z"/><path d="M76.58,68.73a.48.48,0,0,1,.32,0,.23.23,0,0,1,.07.07.08.08,0,0,0-.07-.08c-.08,0-.25.1-.25.15s0,0-.09-.08-.18-.22-.16-.3.07.06.13.06.29.07.28-.12v-.09c.09-.21.4,0,.45.06a.54.54,0,0,1,.12.33A.4.4,0,0,1,77,69a.41.41,0,0,0-.23.16.45.45,0,0,1-.5.08.26.26,0,0,1-.13-.2s0,0,0-.07a2.27,2.27,0,0,1,.28-.23Z"/><path d="M78.81,68c.21.24.3.29.23.27a.91.91,0,0,0-.23-.08s0,0,.08.08c.31.16.35,0-.22.19h-.09c-.6,0-.54-.34-.18-.35.09,0,.14,0,.13,0s-.13-.13-.17-.19.13-.13.39,0Z"/><path d="M80.43,67.73c.22-.23.21-.37.16-.3a.59.59,0,0,0-.07.23s0,0,0-.11c0-.35-.28-.29.09.19l0,.07c.29.53-.08.62-.16.26,0-.08,0-.14-.05-.11a.92.92,0,0,1-.14.2c-.09.06-.14-.1.05-.36Z"/><path d="M80.56,67.36c.21.23.28.31.22.26l-.17-.16s0,0,.06.08c.23.25.24.28-.17-.12l-.07-.06c-.4-.42-.37-.41-.12-.18l.08.07-.16-.18c0-.06,0,0,.26.23Z"/><path d="M83.13,71c.28.16.37.25.27.29l-.14-.44c-.17,0-.15.29-.14.18s-.12-.23-.19-.19-.11,0,0,0a2.07,2.07,0,0,0,.41,0h.1a.55.55,0,0,1,.37.24c.06.11,0,.23-.14.29s-.34,0-.43,0-.16.15-.41.14L82.66,71c-.06-.08.06-.11.38-.07Z"/><path d="M83.91,68.82l.07.38.09-.71c-.13.19-.13.21-.13.25s.17-.15.22-.18.11-.08.07,0a2.08,2.08,0,0,1-.22.36L84,69a2,2,0,0,1-.31.29c-.07,0,0,0,0-.07a2.54,2.54,0,0,0,.14-.25s-.06,0-.22.18l.1-.71.23.3Z"/><path d="M85.08,69.87c.11.33.23.37.12.34s-.19-.1-.23-.07,0,0,.08,0a.21.21,0,0,0-.19-.25.56.56,0,0,1,.46.23l0,.08c0,.33.09.44,0,.54a.47.47,0,0,1-.69-.24c0-.15,0-.23,0-.3s-.15-.2-.15-.31.26-.24.51,0Z"/><path d="M86.12,68.26a1.24,1.24,0,0,1,.15-.34s0,0,0,.28l-.17.08-.25-.13c-.12-.06-.07-.05,0-.05l.4.13.09,0,.38.19s.07,0-.06,0l-.27-.07-.13,0,0,.12c-.09.23-.12.26-.13.25a1.05,1.05,0,0,1,.07-.37Z"/><path d="M77.38,76.91c.09-.32-.1-.41-.09-.31a.38.38,0,0,0,.15.19s0,0-.11,0a.2.2,0,0,0,0,.32c.07,0,.2-.15.06-.43l0-.08a.33.33,0,0,1,.36-.42.37.37,0,0,1,.16.53c-.07.11-.14.13-.14.19a.68.68,0,0,1,0,.3c-.07.16-.37.09-.38-.24Z"/><path d="M75.42,75.9c.13-.28.19-.38.17-.3l-.08.23s0,0,.06-.09c.15-.3.19-.32,0,.22l0,.08c-.25.53-.26.48-.15.17,0-.08,0-.13,0-.11l-.11.22c0,.06,0,0,.1-.33Z"/><path d="M75.12,77.73a1.16,1.16,0,0,1,0,.38s0,0-.07-.27l.09-.26a1.7,1.7,0,0,1,.28-.22s0,.11-.25.38l-.06.07c-.24.24-.34.32-.35.3a2.58,2.58,0,0,1,.19-.31l.09-.12v-.13c0-.24,0-.28,0-.28a.92.92,0,0,1,.08.37Z"/><path d="M73,77.45a1.32,1.32,0,0,1,0,.43c.09,0-.16-.11-.22,0s.17,0,.09-.15a.34.34,0,0,1,0-.26l1.21-2.63-.3,3c0,.13-.14.24-.36.53l-.09,0a.65.65,0,0,1-.55-.64l.91.32a.86.86,0,0,1-.52.29,1.85,1.85,0,0,1-.64-.21c-.25-.06-.47-.49-.24-.69a.54.54,0,0,1,.62-.07Z"/><path d="M75.61,78.22c.32,0,.44,0,.38.07a1.06,1.06,0,0,0-.19.16s0,0,.12,0,.17,0,.19,0,0-.1,0-.11-.17,0-.24.07-.12.24,0,.3l.09,0c.13.13,0,.33-.12.39a.43.43,0,0,1-.4,0,.34.34,0,0,1-.13-.25c0-.08,0-.12.12-.2s.1-.11.06-.13-.18,0-.26,0,0-.16.26-.29Z"/><path d="M72,79.49a5.33,5.33,0,0,1,2,1,2.41,2.41,0,0,0,.91.51,1.81,1.81,0,0,0,1.05-.21,1.75,1.75,0,0,1,1.31-.1,3.8,3.8,0,0,1,1,.61,5.19,5.19,0,0,0,1.82.92v.09a2.46,2.46,0,0,1-2.4-.19c-.71-.53-.88-.82-1.69-.82a12.08,12.08,0,0,1-2.38-.1,3.67,3.67,0,0,1-1.67-1.61Z"/><path d="M83.72,76.82c.07.47,0,.73-.2.92s-.12.09-.17,0-.12,0,0,0a.3.3,0,0,0,.36-.12,1.29,1.29,0,0,0,.21-.49s.09,0,.11,0-.09-.23-.21-.4l0-.09a.64.64,0,0,1,.65-.08.79.79,0,0,1,.41.8,1,1,0,0,1-1,.8c-.21,0-.38-.06-.57-.07a.47.47,0,0,1-.42-.2,1,1,0,0,1,0-.45,1,1,0,0,1,.83-.65Z"/><path d="M86.08,75c.14.3.07.51,0,.49s-.2,0-.24,0,0,.05.11,0,0-.2.15-.25a.68.68,0,0,1,.51.3l0,.09a.89.89,0,0,1-.32.59.56.56,0,0,1-.67-.32,1.87,1.87,0,0,1-.1-.39.86.86,0,0,1-.12-.41c.09-.26.25-.23.6-.14Z"/><path d="M87.63,76.06c.08.26.17.3.19.32l0,0a.28.28,0,0,0-.24-.12.2.2,0,0,0,0-.15V76a.28.28,0,0,0,0-.13.85.85,0,0,0,.42.18l.08,0c.26.26.18.57,0,.65a.69.69,0,0,1-.32,0,.37.37,0,0,1-.14-.07c-.09,0-.17-.15-.21-.19a.33.33,0,0,1-.25-.31.22.22,0,0,1,.05-.21.32.32,0,0,1,.47.06Z"/><path d="M89,73c.3.14.41.15.32.21s-.2.08-.22.13.06,0,.1,0S89.11,73,89.1,73s.13.1.42.21l.07.06c.17.25.17.44,0,.59s-.61.07-.66-.22c0-.12,0-.2-.08-.24s-.22-.09-.28-.14,0-.31.35-.36Z"/><path d="M90.64,72.14a.81.81,0,0,1,.2-.31s.1,0,.12.09l-.3.1c.07.2.18.11.07.15s-.11.28.1.28.34-.17.26-.25a.19.19,0,0,0-.35,0l0,.09c-.22.15-.45-.09-.47-.28a.44.44,0,0,1,.47-.48.34.34,0,0,1,.38.43c0,.14.07.19.06.47l-.3.1c-.07.12-.11.09-.15,0a.77.77,0,0,1-.06-.35Z"/><path d="M95.85,83.78a.59.59,0,0,1,.27.75c-.07,0-.2.1-.17.2s.18.07.09,0-.08-.08-.1-.1,0,0,0-.09a.92.92,0,0,1,0-.24s.26-.07.15-.42v-.1c.38-.32.9.22.85.62a.75.75,0,0,1-.18.44c-.08.1-.24.36-.52.37s-.39-.2-.5-.28a.84.84,0,0,1-.37-.46c0-.38.16-.4.42-.64Z"/><path d="M96.55,87.34c.06.26,0,.36,0,.41s-.12,0-.27-.17l.06-.23a.2.2,0,0,0,0-.33c-.07,0-.16.27.21.34l.09,0a.34.34,0,0,1-.13.62.56.56,0,0,1-.32-.15.36.36,0,0,1-.1-.32l.06-.23c0-.23,0-.3,0-.31s.15,0,.31.26Z"/><path d="M97.17,82.26c.38-.08.59.2.54.32s-.14.19-.14.25.11.06.17,0-.4-.18-.27.17c.11.16.24,0,.1-.32v-.09c.17-.32.64-.34.86.11a.59.59,0,0,1-.29.72.42.42,0,0,1-.57-.11,1.36,1.36,0,0,0-.22-.28c-.1-.06-.26-.1-.36-.17s0-.21.13-.52Z"/><path d="M90.8,86.14c.22.31.43-.08.29,0a.3.3,0,0,0-.19.15s0,0,0-.1-.09-.22-.07-.23a3.85,3.85,0,0,0,.4.26l.06.06c.16.26.16.41.08.53a.38.38,0,0,1-.48-.11c-.08-.08-.12-.15-.18-.16a.7.7,0,0,1-.32,0c-.22-.08,0-.64.33-.42Z"/><path d="M90.26,84.32c.29.14.41.07.33.06a.51.51,0,0,0-.23,0s0,0,.1,0,.19-.15.17-.18-.17.08-.24.38l0,.09c-.13.27-.31.3-.41.27a.24.24,0,0,1,0-.34c.07-.07.11-.1.07-.12a2,2,0,0,1-.25-.07c-.08-.08,0-.22.36-.14Z"/><path d="M93,87c.06.32.23.35.17.29a.43.43,0,0,0-.2-.12s0,0,.09.06.24,0,.23,0-.19,0-.38.2l-.07.07a.35.35,0,0,1-.52,0,.26.26,0,0,1,.24-.31c.09,0,.15,0,.14-.08a1,1,0,0,1-.13-.24c0-.14.25-.17.41.12Z"/><path d="M88.4,87.52c.09.33.31.33.15.26s-.23,0-.21,0,.1,0,.19,0L88,87.61c0-.13,0-.23.07-.24a.82.82,0,0,1,.43.22l0,.08a.87.87,0,0,1,.12.47c0,.07-.13,0-.25,0L87.9,88c.07-.11.15-.18.16-.23s-.11-.13-.16-.24.23-.34.46-.08Z"/><path d="M92.55,78.11a2.86,2.86,0,0,0,2.47.06A3.52,3.52,0,0,1,96.57,78c.5,0,1,.1,1.47.1a2.69,2.69,0,0,0,1.19-.25,3.44,3.44,0,0,0,.47-.41,1.61,1.61,0,0,1,.88-.38,6.82,6.82,0,0,1,1.5,0c.24,0,.5.07.72.09l0,0a.13.13,0,0,0-.1.08c-.06,0,0,.2,0,.23l0,0h0l-.14-.15c-.13-.09-.17-.38,0-.46l.07,0c0,.13,0,.14.13.17l.16,0a.45.45,0,0,1,.09,0l0,0a.23.23,0,0,1-.13.36l-.13,0c-.25.06-.48.12-.72.16l-1.38.25a.72.72,0,0,0-.43.16,3.14,3.14,0,0,1-.71.43,2.24,2.24,0,0,1-1.64,0,4.19,4.19,0,0,0-1.4-.3,2.23,2.23,0,0,0-1.21.57,2,2,0,0,1-2.87-.71Z"/><path d="M94.17,75.78a.25.25,0,0,0,.16.31c.06,0,0,0,.11,0a.43.43,0,0,0,.39.15.15.15,0,0,0,0-.28c-.31-.12-.06.14-.1.07s-.1-.13-.11,0a.31.31,0,0,0,.24.31l0,.08a.57.57,0,0,1-.77.17.78.78,0,0,1-.29-1,.87.87,0,0,1,.95-.44.68.68,0,0,1,.53.77.87.87,0,0,1-.4.62,1.21,1.21,0,0,1-.65.36.71.71,0,0,1-.7-.59c0-.31.2-.69.51-.61Z"/><path d="M96.93,76.39c.2-.26.11-.41.09-.32a.5.5,0,0,0,0,.23s0,0,0-.11-.17-.17-.19-.14.11.18.41.14h.09c.3,0,.37.28.33.41a.26.26,0,0,1-.39,0c-.08,0-.12-.08-.15,0a1.35,1.35,0,0,1-.09.26c-.11.09-.3-.08-.18-.39Z"/><path d="M95.51,73c.06.34.29.27.19.27s-.21,0-.23.08.07,0,.11,0,0-.25-.06-.22.07.23.38.14H96c.33.14.24.57,0,.72a.51.51,0,0,1-.73-.21c0-.13,0-.22-.11-.29s-.21-.14-.27-.26a.33.33,0,0,1,.56-.29Z"/><path d="M98.17,74.17a.52.52,0,0,0,.16.32c.06,0-.07-.09-.2-.11s0,.07.11.07.14,0,.18-.06l-.75-.23c.06-.06.2,0,.45.24l0,.08c.13.32.14.47.06.5l-.73.27v-.5a.35.35,0,0,1,.14-.33c.12-.08.23-.09.17-.19s-.17-.3,0-.33a.33.33,0,0,1,.38.18Z"/><path d="M91.77,67.68a.65.65,0,0,0,.36.06c.06,0-.12.08-.15.2l-.17,0c.08,0,.1-.07.07-.18a1.42,1.42,0,0,1,0-.21c0-.09.12,0,.5,0l.09,0c.3.24.3.56.11.66a.39.39,0,0,1-.34,0c-.14,0-.24-.09-.28,0l-.17,0c-.14,0-.41,0-.4-.17s.06-.31.31-.37Z"/><path d="M92.12,64.27c.24.29.41.3.27.21s-.13.17-.1.21,0-.07,0-.16a1.5,1.5,0,0,0-.19-.32s.25-.08.09-.37l0-.09c.21-.38.77-.18.89.18a.62.62,0,0,1-.28.74c-.11.07-.17.18-.31.29a.59.59,0,0,1-.58.09c-.41-.36-.15-.76.17-.8Z"/><path d="M93,61.44A1.79,1.79,0,0,1,94,62.83c0,.29-.08.58-.07.86a2.55,2.55,0,0,0,.17.8,3.34,3.34,0,0,1-.44,3.18h-.09a4.66,4.66,0,0,1,0-3.15,1.6,1.6,0,0,0,0-.78,4.84,4.84,0,0,0-.38-.71A3.49,3.49,0,0,1,93,61.49Z"/><path d="M108.18,88.35A1.3,1.3,0,0,1,109,89a3.15,3.15,0,0,0,.11.55,1.1,1.1,0,0,0,.4.37,1.53,1.53,0,0,1,.7.94,1.08,1.08,0,0,1-.48,1.15l-.09,0c-.15-.42-.29-.61-.4-.87a5.82,5.82,0,0,1-.16-.91.73.73,0,0,0-.21-.47c-.13-.11-.34-.16-.5-.27a1,1,0,0,1-.24-1.1Z"/><path d="M110.62,91.12a1.4,1.4,0,0,1-.07-1.05,1.59,1.59,0,0,0,.27-.47.72.72,0,0,0-.13-.5,2.56,2.56,0,0,1-.55-1.93l.07-.06a1.45,1.45,0,0,1,1,1.93,1.24,1.24,0,0,0-.07.56c0,.18.15.38.19.58a1,1,0,0,1-.62,1Z"/><path d="M112.27,91.36a3.31,3.31,0,0,1,.14-1,.48.48,0,0,0,.07-.5c-.08-.2-.27-.27-.4-.54a1.66,1.66,0,0,1,.08-1.4c.16-.33.39-.47.46-.93l.07-.06c.56.23.53,1,.39,1.38s-.36.62-.5.91c-.07.14,0,.36.17.51a1.09,1.09,0,0,1,.44.63,1,1,0,0,1-.85,1.11Z"/><path d="M114.55,87a2.93,2.93,0,0,1,1.07,1.47,8.93,8.93,0,0,0,.17.9,2.14,2.14,0,0,0,.48.75l.58.57a5.48,5.48,0,0,0,.63.38c.47.28.9.65,1.42.9l0,.09a2.28,2.28,0,0,1-3.12-1.7,3,3,0,0,0-.29-.86c-.16-.25-.41-.46-.6-.7a2.87,2.87,0,0,1-.45-1.76Z"/><path d="M117.14,85.72a7.53,7.53,0,0,0,2-.47,2.74,2.74,0,0,0,1-.47,4.72,4.72,0,0,1,1.12-.49,4.12,4.12,0,0,0,1.36-1.49,3.09,3.09,0,0,1,2-1.37l0,.08a11.49,11.49,0,0,0-1.21,1.87,2.82,2.82,0,0,1-2.07,1.42c-.43,0-.79,0-1,.22a5.39,5.39,0,0,1-.84.92,2.07,2.07,0,0,1-2.43-.13Z"/><path d="M118.14,87c.57.35,1,.64,1.31.84a.83.83,0,0,0,.68.22c.24-.07.39-.32.52-.59a1.77,1.77,0,0,1,1.74-1,7.61,7.61,0,0,1,1.73.47l0,.09a3.24,3.24,0,0,1-1.76.44,2,2,0,0,0-1.34.32,2.73,2.73,0,0,1-1.83.77,1.55,1.55,0,0,1-1.15-1.53Z"/><path d="M116.11,83.63a.34.34,0,0,0,.35,0c.05,0-.06,0-.08.15s.1.1.08,0-.1-.18-.15-.15V84c-.06.17.25,0,0-.34l0-.08a.43.43,0,0,1,.85,0l.08.34-.07.09a.44.44,0,0,1-.48.16.38.38,0,0,0-.38,0c-.16.1-.41.07-.45-.11a.35.35,0,0,1,.2-.46Z"/><path d="M99.59,63.64a11.34,11.34,0,0,0,2.85-.59,2.33,2.33,0,0,0,1.09-.9c.28-.44.47-.94.82-1.41a6.18,6.18,0,0,1,2.8-1.61,6.34,6.34,0,0,0,2.54-1.47l.09,0a3.72,3.72,0,0,1-2.25,2.36,16.37,16.37,0,0,0-2.82,1,3.16,3.16,0,0,0-.91,1.2,3.56,3.56,0,0,1-1,1.42,3.34,3.34,0,0,1-3.27,0Z"/><path d="M104.06,63.24c.34.2.51.28.43.3s-.06.21,0,.21.11-.13,0-.15-.17.29.07.16c.23-.32-.25-.29-.12,0v.09c-.35.36-1.1-.35-.47-1a.65.65,0,0,1,1,.74,1.16,1.16,0,0,1-.4.35.64.64,0,0,1-.61.15.54.54,0,0,1-.07-.93Z"/><path d="M106.7,61.75c.26.18.3.27.27.34a.82.82,0,0,1-.24,0c-.09,0-.08,0-.07.09l0-.19a.37.37,0,0,0,.14-.19s0-.09,0-.09,0,.18.21.38l.06.07a.37.37,0,0,1-.28.55.45.45,0,0,1-.26-.14.54.54,0,0,1-.09-.32l0-.19s.08,0,0-.12-.15-.13-.16-.17.12-.11.43-.07Z"/><path d="M106.53,64.87c.11.31.23.4.09.35s-.22-.07-.23,0,0,.09.13.13l-.2-.37c.08-.11.09-.19.12-.15a1.85,1.85,0,0,0,.21.4l0,.09a.45.45,0,0,1-.23.49.31.31,0,0,1-.34-.23l-.2-.37a.54.54,0,0,0,.22-.11s-.08-.16-.11-.26.2-.23.46,0Z"/><path d="M108.87,62.24c.34,0,.37-.18.3-.12a.37.37,0,0,0-.09.22s0,0,0-.1-.16-.2-.18-.16.12.19.41.09l.09,0a.37.37,0,0,1,.3.52.38.38,0,0,1-.55.07c-.09-.07-.12-.12-.19-.11a.88.88,0,0,1-.29.11c-.19,0-.24-.36.08-.49Z"/><path d="M110.89,59.89c.32,0,.44,0,.37.08s-.18.11-.2.14,0,0,.12.06c.35,0,.41.14-.12.39l-.09,0c-.59,0-.58-.09-.29-.28.07,0,.11-.09.08-.11a1.56,1.56,0,0,0-.25,0c-.09,0,0-.12.29-.25Z"/><path d="M102.82,66.24a9,9,0,0,0,3.7.19,4.69,4.69,0,0,0,1.82-.45,3.49,3.49,0,0,0,1.33-1.31,6.62,6.62,0,0,1,.53-.88,2.09,2.09,0,0,1,1-.65,6.32,6.32,0,0,0,1.58-.86A6.89,6.89,0,0,0,115,59.42h.09a4.6,4.6,0,0,1-1.78,3.64,4.89,4.89,0,0,1-1.9.9,1.8,1.8,0,0,0-.71.33c-.2.17-.41.43-.66.68a9.18,9.18,0,0,1-1.59,1.26,7.12,7.12,0,0,1-1.81,1,4.21,4.21,0,0,1-3.91-.88Z"/><path d="M106.46,73.16c1.23,0,2.37.21,3.44.15a3.07,3.07,0,0,0,1.61-.39,7.49,7.49,0,0,0,1.32-1.21,3.32,3.32,0,0,1,1.64-1c.68-.15,1.24-.14,1.74-.27a18.07,18.07,0,0,0,3.19-1.27l.06.08a6.22,6.22,0,0,1-3,2.16,10.69,10.69,0,0,1-1.81.17,4.16,4.16,0,0,0-1.5.57,14.09,14.09,0,0,0-1.45,1.06,4.35,4.35,0,0,1-1.68.91,5.12,5.12,0,0,1-3.58-.83Z"/><path d="M110.57,74.53a13.16,13.16,0,0,0,2.48-.8,4,4,0,0,0,1.09-.77,5.64,5.64,0,0,1,1.11-1,7.72,7.72,0,0,1,1.3-.56,2.15,2.15,0,0,0,.89-.68l.89-1a1.9,1.9,0,0,1,1.34-.71l0,.09c-.74.57-.83,1.45-1.48,2.3a2.44,2.44,0,0,1-1.38.88c-.51.13-1,.12-1.39.2a1.76,1.76,0,0,0-1.07.72,6.91,6.91,0,0,1-.88,1.2,3,3,0,0,1-2.92.25Z"/><path d="M117,72.76c.34.11.41-.05.41.06s0,.22,0,.26.12,0,.12-.11-.12-.21-.11-.24a.51.51,0,0,0,.35-.32l.07-.07a.52.52,0,0,1,.56.59.6.6,0,0,1-.67.5,1.82,1.82,0,0,0-.35-.05,1.23,1.23,0,0,1-.41.11.4.4,0,0,1-.11-.72Z"/><path d="M109.6,79.21a8.13,8.13,0,0,0,2.24-.6c.71-.27,1.26-.73,2-1.1a4.77,4.77,0,0,1,2.52-.2,2.89,2.89,0,0,0,2.15-.5c.27-.24.48-.57.81-.87a1.87,1.87,0,0,1,1.38-.55,1.15,1.15,0,0,1,.87.49,1.08,1.08,0,0,1,0,1,2.87,2.87,0,0,1-.76,1.17,8.68,8.68,0,0,1-2.11,1.34,21.82,21.82,0,0,1-2.21,1l0-.08c1.15-1.11,2.65-2,3.66-2.94a2.68,2.68,0,0,0,.56-.81c.08-.16.07-.25.08-.17s0-.07-.15-.07c-.51-.11-1.06.47-1.8,1a4.57,4.57,0,0,1-2.46.39,3.61,3.61,0,0,0-2.14.59,7.5,7.5,0,0,1-2.19,1.1,4.74,4.74,0,0,1-2.48,0Z"/><path d="M113.34,82.66c0-.35-.16-.45,0-.36s.24.07.21,0-.1-.12-.18-.14l.6.3c.05.09.13.11.09.09a.64.64,0,0,0-.42.13l-.09,0a.39.39,0,0,1-.06-.78l1-.19-.45.49c-.08.09-.23.13-.26.19s0,.16,0,.3-.31.3-.52,0Z"/><path d="M115.76,79.12c.12-.29.18-.39.17-.31s0,.2,0,.24,0,0,.06-.09c.15-.3.2-.32.06.24l0,.09c-.22.53-.25.48-.19.16,0-.08,0-.14,0-.11s-.07.15-.11.21,0,0,0-.34Z"/><path d="M117.52,81.13c0,.2.22.17.28.12s.1-.13,0-.18-.25,0-.23.08a.19.19,0,0,0,0-.11c0-.18,0-.24.1-.28a.39.39,0,0,1,.36.44l0,.08c-.17.27,0,.4,0,.44a.5.5,0,0,1-.3-.17c-.07-.07-.11-.12-.18-.11a.36.36,0,0,1-.39,0,.28.28,0,0,1,0-.38c.07-.12.38-.2.42,0Z"/><path d="M119.83,80l.35,0h-.24s0,0,.1,0c.33,0,.37,0-.21,0h-.09c-.58,0-.54,0-.21,0,.08,0,.13,0,.1,0h-.23l.34,0Z"/><path d="M104.21,79.17c.32-.07.38-.13.4-.08a2.35,2.35,0,0,0,0,.24c0,.08.07.06.11,0l-.21.11a.76.76,0,0,0-.18-.18s-.08-.07-.07-.09.15-.1.4-.31l.09,0c.33,0,.51.2.51.37a.52.52,0,0,1-.12.26.66.66,0,0,1-.29.14l-.21.11c-.06-.06-.1-.11-.18-.07a.69.69,0,0,1-.3.09c-.14-.07-.21-.29,0-.53Z"/><path d="M104.84,77.83a.56.56,0,0,0,.34-.15c0-.07,0,.11,0,.22s.12-.05,0-.15-.11-.11-.16-.09L106,78c-.07.14-.27.2-.64.14l-.07,0c-.2-.32-.22-.52-.12-.64L107,75.32l-.9,2.47a.53.53,0,0,1-.4.39c-.2,0-.32,0-.42.09s-.35.28-.48.13a.36.36,0,0,1,0-.53Z"/><path d="M102.5,74.85c.34,0,.39-.14.33-.07a.42.42,0,0,0-.08.22s.07,0,.06-.09-.12-.21-.13-.19.13.16.42.06h.09a.4.4,0,0,1,.28.57.44.44,0,0,1-.6.08c-.1-.07-.14-.13-.21-.13s-.2.11-.32.09-.25-.38.07-.53Z"/><path d="M102.44,72.82c.24-.21.33-.27.28-.2l-.14.18s0,0,.09,0c.27-.2.32-.2-.06.23l-.07.07c-.44.38-.44.33-.23.06,0-.06.08-.1,0-.09l-.19.15c-.07,0,0,0,.21-.29Z"/><path d="M100.75,75c.12-.32-.1-.37-.06-.33a.29.29,0,0,0,.21.08c.07,0,0,0,0,0l.3.08a.57.57,0,0,0,.07.23s0,.09,0,.1-.17,0-.48.12h-.09a.45.45,0,0,1-.31-.58c0-.09.14-.14.22-.19a.65.65,0,0,1,.34,0l.29,0v0c0,.11,0,.17,0,.26a.47.47,0,0,1,.08.36.33.33,0,0,1-.61-.08Z"/><path d="M100.12,76.78c.31,0,.42,0,.34,0l-.24,0s0,0,.1,0c.34,0,.38,0-.2.08H100c-.58,0-.54,0-.21-.08.08,0,.13,0,.11,0l-.24,0c-.08,0,0,0,.34,0Z"/><path d="M84.75,51.51c-.09-.31-.16-.37-.14-.43l.08.38s.15,0,.13-.11-.09-.11-.1-.06,0,.13,0,.16.12,0,.13-.08l-.19-.27c.21,0,.23.13.41.56v.1c-.29.38-.72.37-.9.08L84,51.57a.47.47,0,0,1,.2-.46,1,1,0,0,1,.35-.1c.1,0,.15-.06.28-.14a.4.4,0,0,1,.47.07l.14.15-.06.23a.41.41,0,0,1-.6.26Z"/><path d="M84,53.31c-.13.34.14.36,0,.33s-.21,0-.24,0,0,.07.11,0,0-.25,0-.23.07.26.38.14l.09,0c.35.16.22.65,0,.78a.55.55,0,0,1-.78-.31c0-.15,0-.26,0-.35a.86.86,0,0,1-.15-.39.36.36,0,0,1,.68-.06Z"/><path d="M85.56,54.92c.12.26.17.32.18.37s-.07,0-.31,0h0l-.07-.16a1.07,1.07,0,0,0,.26-.3s.07.11.38.31l.06.07a.44.44,0,0,1-.32.61.61.61,0,0,1-.51-.43l-.07-.16h0c-.21-.15-.19-.31-.13-.41a.36.36,0,0,1,.49,0Z"/><path d="M87.53,54.16c-.22-.23-.4-.23-.27,0a.18.18,0,0,0,.23-.09s.08,0,.16,0a.71.71,0,0,1,.25,0,1,1,0,0,0-.35.3l-.08,0a.42.42,0,0,1-.55-.16c0-.17,0-.29.28-.45a.63.63,0,0,1,.34-.1.41.41,0,0,1,.42.05c.21.33,0,.51-.34.43Z"/><path d="M83,45.12c0,.36.42.14.26.06s-.24,0-.23,0,0,0,0-.1-.19-.17-.19-.15.15.06.46,0h.09c.29.11.37.3.31.49a.42.42,0,0,1-.6.15c-.1-.07-.15-.13-.23-.14a.45.45,0,0,1-.39-.14c-.2-.26.26-.69.5-.34Z"/><path d="M81.27,42.92c.33,0,.42-.09.36,0s-.11.17-.09.21,0,0,0-.09-.33,0-.23.19a.31.31,0,0,0,.43.07c.11-.09,0-.31-.12-.26l-.08,0c-.21,0-.2-.37,0-.48a.51.51,0,0,1,.67.2c.18.39-.15.77-.43.69s-.21-.07-.3-.06a1.14,1.14,0,0,1-.35.07c-.19-.07-.21-.33.07-.52Z"/><path d="M84,43.35a.64.64,0,0,0,.33.13c.08,0-.06,0-.2,0s-.07,0,0-.09-.08-.26-.27-.21l-.18.15c-.21.08,0,.39.34.13l.07-.06c.38-.16.63.3.35.47l-.19.15c-.24.08-.45-.09-.43-.24s0-.16-.11-.24-.24-.12-.15-.18a.35.35,0,0,1,.38,0Z"/><path d="M85.46,44.5c.28.15.41,0,.32,0a.51.51,0,0,0-.21.09s0,0,.1,0,.16-.18.13-.19-.14.14-.06.43v.09c0,.31-.23.4-.37.39a.29.29,0,0,1-.11-.4c0-.08.07-.13,0-.15s-.19,0-.27-.06,0-.31.35-.26Z"/><path d="M93.81,47.24c.3.17.42,0,.31,0a.31.31,0,0,0-.18.15s0,0,0-.1-.18-.2-.21-.15.08.25.38.16l.09,0a.35.35,0,0,1,.27.53.38.38,0,0,1-.58,0c-.07-.09-.09-.16-.15-.17s-.22,0-.32,0-.07-.45.28-.41Z"/><path d="M98.72,46.73c-.27.15-.24.28-.22.28s0-.37,0-.24l.08-.21s.16-.09.17-.14a.12.12,0,0,0,0-.13s-.15.17.09.41l.06.07a.36.36,0,0,1-.4.49.47.47,0,0,1-.23-.23c0-.11,0-.27,0-.34v-.27l.08.06c.11.06.17-.29.36-.28s.29.23.1.48Z"/><path d="M95.56,51.33c.25-.14.15-.31.11-.32s0,.3.07.26-.23,0-.24.1,0,.18.19.15h0l.4-.28-.47,0-.08,0-.3-.36h0l.41-.27h0a.49.49,0,0,1,.53.34c.06.21-.17.39-.21.48s0,.47-.26.45a.3.3,0,0,1-.24-.47Z"/><path d="M97.22,50.34c-.32,0-.43,0-.35,0h.24s0,0-.1,0c-.34,0-.37,0,.21,0h.09c.58,0,.54,0,.21,0-.08,0-.13,0-.11,0h.24c.08,0,0,0-.34,0Z"/><path d="M105.05,54c.25.19.33.26.26.22l-.21-.11.08.07c.26.21.28.25-.22,0l-.08-.05c-.46-.35-.42-.35-.13-.18.07,0,.12.06.1,0l-.19-.15s0,0,.31.16Z"/><path d="M106,54.51c.07-.29.11-.37.13-.38s.17.33.14.21-.28-.06-.28,0a.14.14,0,0,0,.05.17.25.25,0,0,0,.31,0l.25-.63c-.22-.17-.38.1-.23.21l.08.05c.1.19-.19.45-.48.21l-.29-.25.55-.37a.46.46,0,0,1,.5.05.41.41,0,0,1,.14.35c0,.22-.24.38-.37.41s-.08.34-.22.38-.22-.06-.28-.35Z"/><path d="M106.69,51.87c.28.19.43,0,.32,0a.38.38,0,0,0-.22.1s0,0,0-.1-.18-.23-.24-.17,0,.29.33.26h.1a.32.32,0,0,1,.2.52.33.33,0,0,1-.51-.1c0-.1,0-.16-.11-.18a.64.64,0,0,1-.3,0c-.14-.1,0-.42.33-.31Z"/><path d="M108.16,53.9c-.13.29-.08.41-.08.33a1.29,1.29,0,0,0,0-.24s0,0,0,.11c.1.34.32.2-.21-.09l-.08,0c-.45-.4-.11-.64.12-.35.06.07.09.11.11.08a1.53,1.53,0,0,1,.07-.24c.07-.09.2,0,.13.36Z"/><path d="M102.52,47.26c.37,0,.18-.35.11-.15s.17.11.22,0,0-.15-.1-.16-.12.14,0,.19a.16.16,0,0,0,.25,0c.17-.38-.33-.36-.18,0l0,.1c-.2.4-1,0-.61-.72a.64.64,0,0,1,.72-.18.45.45,0,0,1,.31.55,1.3,1.3,0,0,0-.11.36.64.64,0,0,1,0,.48c-.33.43-1-.1-.68-.46Z"/><path d="M103.4,45.33c.33,0,.4-.12.32-.08a.42.42,0,0,0-.16.17s0,0,.06-.09-.06-.24-.1-.22,0,.21.28.33l.09,0a.36.36,0,0,1,0,.55.32.32,0,0,1-.43-.2c0-.09,0-.16-.1-.16a.69.69,0,0,1-.28.06c-.15,0-.12-.32.2-.4Z"/><path d="M105,46.81c.14.3.36.21.27.15a.31.31,0,0,0-.23,0s0,0,.08-.07,0-.28-.08-.26-.13.24.15.39l.07.05a.33.33,0,0,1-.13.55.35.35,0,0,1-.39-.37c0-.12,0-.17,0-.22s-.19-.08-.24-.17.21-.37.45-.12Z"/><path d="M106,45.55c.15.29.35.22.27.17a.29.29,0,0,0-.23,0s0,0,.09,0,.08-.26,0-.27-.17.18,0,.43l0,.08a.33.33,0,0,1-.28.47.32.32,0,0,1-.22-.44c0-.09.07-.14,0-.18s-.18-.09-.23-.18.21-.31.44-.07Z"/><path d="M92,44.54c-.22-.25-.27-.37-.17-.41a1.14,1.14,0,0,0,.28,0s0-.09,0-.16c-.25-.3-.26-.41.35-.5l.09,0c.54.31.42.58,0,.66-.09,0-.16.05-.15.1s.11.17.15.25-.14.2-.46.12Z"/><path d="M94.13,43.54s0,.1.08.08h.08s.16-.15,0-.28a.33.33,0,0,0-.37,0c-.1.07-.1,0,0,.05a.44.44,0,0,0,.23,0s0,0-.11,0-.22.1-.21.11.17-.07.24-.37L94,43c.18-.26.38-.25.49-.18a.26.26,0,0,1-.06.39c-.07.07-.11.11-.08.14s.17.09.22.16,0,.09-.11.21a.39.39,0,0,1-.44,0c-.2-.14-.07-.34,0-.32l.1,0c.08,0,.14.09.1.1Z"/><path d="M93.86,41.63c.35,0,.22-.34.19-.22a.33.33,0,0,0,0,.23s0,0,0-.09-.24,0-.23,0,.17,0,.34-.28l.07-.07a.42.42,0,0,1,.58.2.43.43,0,0,1-.35.49c-.13,0-.21,0-.26.06s-.11.21-.23.27-.52-.31-.2-.54Z"/><path d="M90.55,40.43c.12-.31-.1-.37-.09-.27l.54.49c.15-.19-.23-.23-.12-.13s.2-.14.17-.18-.06-.09,0,0a1.36,1.36,0,0,0,.47.08l.07,0a.51.51,0,0,1-.66.76.6.6,0,0,1-.36-.6c0-.12-.24-.45.14-.72l.69-.49-.14,1c-.06.38-.57.52-.73.18Z"/><path d="M91.57,39c.24.2.38,0,.33,0s-.15,0-.21.07,0,0,0,0h-.17a.71.71,0,0,0-.18-.26.92.92,0,0,0,.45.07h.09c.3.13.37.34.31.45a.38.38,0,0,1-.47,0h-.17c0-.06-.05-.11-.15-.09a.42.42,0,0,1-.29-.09c-.07-.14.07-.42.39-.31Z"/><path d="M92.61,37.2c.25.21.41.11.32.09a.45.45,0,0,0-.24,0s0,0,.11,0,.17-.17.13-.2-.2.1-.16.4v.1c0,.3-.28.36-.4.32a.25.25,0,0,1,0-.38c0-.07.09-.12.06-.14s-.19,0-.25-.1.09-.29.38-.15Z"/><path d="M114.6,64.54c.23.24.38.18.29.18a.39.39,0,0,0-.23,0s0,0,.11,0,.15-.19.12-.2-.1.16,0,.44l0,.09a.39.39,0,0,1-.39.42.34.34,0,0,1-.21-.45c0-.1.06-.16,0-.2s-.19-.07-.26-.15.1-.34.42-.22Z"/><path d="M115.49,66.42c-.11,0-.12.27.11.31h0V66c-.11.2-.07.23,0,.26s0-.24,0-.28-.07-.11,0,0a1,1,0,0,0,.35.23l.08,0a.46.46,0,0,1,.17.44c0,.12-.16.12-.27.11s-.24-.24-.29-.23a.83.83,0,0,0-.32.2l-.54.43.52-1.17h0c.32,0,.41.26.34.39Z"/><path d="M116.05,63.86c.21.24.34.28.27.17s-.26-.07-.27,0,0,0-.07-.09-.2-.14-.18-.17a1,1,0,0,0,.46,0h.09c.3.08.39.28.37.44a.42.42,0,0,1-.48.23l-.3-.06a.43.43,0,0,1-.4-.21c-.09-.28.13-.4.43-.29Z"/><path d="M115.34,61.51c.19-.26.23-.36.24-.27a.86.86,0,0,0,0,.24s.05,0,.08-.1c.11-.33,0-.35.31.17l0,.09c.06.6-.25.61-.38.26,0-.09,0-.14-.09-.12s-.1.16-.16.21-.17-.08-.09-.39Z"/><path d="M117.48,61.8c.14.28.25.34.18.29a.92.92,0,0,0-.21-.12s0,0,.08.09c.3.18.35,0-.23.13h-.09c-.6,0-.51-.4-.15-.36.09,0,.15,0,.14,0a1.72,1.72,0,0,1-.14-.22c0-.11.16-.11.37.13Z"/><path d="M117.86,64.84c-.25.23-.33.37-.31.2s0-.24,0-.22-.08.07-.12.15l.4-.31c.12,0,.17-.11.12-.12s-.19,0-.25.34l0,.09a.37.37,0,0,1-.54.1.33.33,0,0,1,0-.46l.38-.39,0,.08c0,.11,0,.22.08.24s.11-.08.19-.14.21.08.09.37Z"/><path d="M119.84,65.2c.15.34.45,0,.31,0a.28.28,0,0,0-.23,0s0,0,0-.11-.08-.25-.11-.23,0,.16.26.36l.06.07c.14.27.11.43,0,.51a.31.31,0,0,1-.39-.23c0-.1,0-.17-.09-.19a.85.85,0,0,1-.29-.09c-.16-.13.18-.54.43-.23Z"/><path d="M121.44,64.53c.29-.13.39-.16.33-.11l-.2.13s0,0,.1,0c.31-.12.36-.11-.15.18l-.08,0c-.53.23-.51.19-.23,0,.07,0,.11-.07.08-.07l-.22.09c-.08,0,0,0,.29-.2Z"/><path d="M118.73,67.89c.32.12.4-.19.28-.17a.34.34,0,0,0-.2.13s0,0,0-.11c.1-.36-.16-.38.09.18l0,.08c.14.58-.21.58-.23.24,0-.09,0-.15-.06-.14s-.17.09-.26.07-.08-.4.26-.32Z"/><path d="M120.92,66.45c.23.21.27.31.26.26a.51.51,0,0,0-.21-.1s0,0,0,0l-.13-.16c.08-.18.05-.26,0-.27s0,.15.12.43l0,.09c.05.3,0,.45-.13.48s-.22-.11-.21-.32l-.14-.16c.06,0,.08-.08,0-.13a.5.5,0,0,1-.17-.21c0-.12.11-.09.38.05Z"/><path d="M122.83,66c0,.33.29.29.21.24a.36.36,0,0,0-.23-.06s0,0,.1,0c.33-.06.33-.15,0,.34l-.08.06c-.51.3-.68,0-.39-.31.07-.07.12-.11.1-.16s-.15-.13-.18-.23.3-.3.48,0Z"/><path d="M121.34,69.6c.3.12.4.15.32.15a.53.53,0,0,0-.23,0s0,0,.1,0,0-.32-.13-.29-.24.39.11.4h.09c.36.13.09.6-.09.6a.36.36,0,0,1-.4-.4c0-.1.07-.15,0-.18a1.44,1.44,0,0,1-.26-.12c-.07-.1.05-.18.37-.16Z"/><path d="M119.82,71.93c.31-.09.36-.2.31-.15a.83.83,0,0,0-.13.2s0,0,.08-.07c.2-.3,0-.35.15.22l0,.09c0,.61-.43.54-.4.16,0-.09,0-.15,0-.15a1.08,1.08,0,0,1-.24.11c-.12,0-.12-.19.15-.37Z"/><path d="M115.89,68.27c.08.3.11.41.07.34l-.09-.23s0,0,0,.11c.08.32.07.36-.13-.18l0-.08c-.16-.56-.13-.53,0-.23l0,.1,0-.23c0-.08,0,0,.14.31Z"/><path d="M39.68,64a1,1,0,0,0,.37,0c.07,0,0,0-.13.1h-.4c.14.07.14,0,0-.06l-.19-.14c-.06,0,0,0,0,0a1.92,1.92,0,0,0,.38-.1h.09a.49.49,0,0,1,.39.16.14.14,0,0,1,0,.22.34.34,0,0,1-.29.11c-.13,0-.17,0-.09.16h-.39c-.13,0-.26,0-.22-.12a.37.37,0,0,1,.28-.26Z"/><path d="M39.41,62.14c0-.31,0-.42,0-.34a.94.94,0,0,0,.06.23s0,0,0-.11c-.09-.32-.22-.29.18.14l.06.07c.32.49.11.57-.07.28,0-.08-.07-.12-.08-.09a2.36,2.36,0,0,1,0,.25c0,.08-.11,0-.13-.33Z"/><path d="M40.39,59c.31.06.42.12.34.18a1.54,1.54,0,0,0-.24.09s0,.06.1.09c.34.12.38.23-.2.35h-.1c-.58-.12-.54-.23-.21-.35.08,0,.14-.06.11-.09a2.07,2.07,0,0,0-.24-.09c-.08-.06,0-.12.34-.18Z"/><path d="M40.22,54.65a2,2,0,0,1,.11,1.11.67.67,0,0,0-.11.5,2,2,0,0,0,.35.54.91.91,0,0,1,0,.83,2,2,0,0,1-.32.57,2.35,2.35,0,0,1-1.07.66l-.07-.06a2.17,2.17,0,0,1,.34-1.2c.26-.37.46-.43.57-.67a.63.63,0,0,0-.13-.53,2.12,2.12,0,0,1-.39-.62,1.1,1.1,0,0,1,.58-1.16Z"/><path d="M46.2,73.05c.28.78.56,1.37.85,2a2.66,2.66,0,0,0,.51,1,6.82,6.82,0,0,0,1,.73,1.45,1.45,0,0,1,.43.56,1.47,1.47,0,0,1,.09.75c0,.2,0,.13.06.19l.36.33c.51.52,1.05,1,1.62,1.62l-.05.09a4.33,4.33,0,0,1-2.24-1,3.21,3.21,0,0,1-.47-.49,1.12,1.12,0,0,1-.16-.91,1,1,0,0,0,0-.86,3.32,3.32,0,0,0-.77-.82,5.28,5.28,0,0,1-1-.8A2.4,2.4,0,0,1,46.11,73Z"/><path d="M50.19,61.3A8.46,8.46,0,0,1,49.46,63a1.55,1.55,0,0,0-.34.81,2.3,2.3,0,0,0,.37.91,1.89,1.89,0,0,1,.06,1.12,6.08,6.08,0,0,0-.11.84,4.26,4.26,0,0,0,.22,1.73l-.06.06a2,2,0,0,1-1.16-1.81c0-.86.49-1.36.55-1.85a11,11,0,0,1-.26-2.07,2.25,2.25,0,0,1,1.39-1.52Z"/><path d="M49.94,68.79A2.35,2.35,0,0,1,50,67a12.39,12.39,0,0,0,1.14-1.5c.31-.56.59-1,.9-1.45a6,6,0,0,1,1.26-1.27l.08,0a3.83,3.83,0,0,1-.5,1.78,3.61,3.61,0,0,1-1.36,1.25,1.49,1.49,0,0,0-.64.57,2.22,2.22,0,0,0-.14.84,3.85,3.85,0,0,1-.72,1.6Z"/><path d="M43,61.05a6,6,0,0,1,.25,1.82,4.12,4.12,0,0,0-.07.93,2,2,0,0,0,.4.82,3.74,3.74,0,0,1,.56.81,2.34,2.34,0,0,1,.24,1c0,.26,0,.3.15.54a2.13,2.13,0,0,1,.55.85l-.08,0c-.29-.15-.57-.16-.9-.32a1.27,1.27,0,0,1-.72-1,4.73,4.73,0,0,0-.07-.82c-.06-.26-.15-.57-.2-.9a5.5,5.5,0,0,0-.22-.95c-.12-.3-.31-.6-.41-.92A2.32,2.32,0,0,1,42.93,61Z"/><path d="M46.46,53.1c.12.34.13.51,0,.61a1.06,1.06,0,0,0-.33.1c-.06.06,0,.16,0,.27.18.44.17.65-.44,1h-.09c-.55-.42-.4-.91.06-1.13.11-.06.19-.12.21-.22s-.06-.25-.06-.37S46,53,46.39,53Z"/><path d="M44.91,51.85a1.27,1.27,0,0,1,.2,1,2.42,2.42,0,0,0-.23.49.79.79,0,0,0,.16.48,2.18,2.18,0,0,1,.53,1.91l-.08,0a1.45,1.45,0,0,1-1-1.88,1.12,1.12,0,0,0,0-.54c0-.17-.18-.35-.25-.54a1,1,0,0,1,.49-1Z"/><path d="M62.16,82a5.31,5.31,0,0,0,2.26,1.28,1.13,1.13,0,0,0,.6,0,1.33,1.33,0,0,1,.84,0,14.11,14.11,0,0,0,1.32.73,1.6,1.6,0,0,0,1.15.06c.18-.06.39-.18.68-.28a1.84,1.84,0,0,1,1,0c.59.16,1,.46,1.34.57a2.34,2.34,0,0,0,1.32,0l.05.08A1.91,1.91,0,0,1,71.2,85a10.87,10.87,0,0,1-1.45-.32c-.34-.09-.58,0-1.19.17a1.85,1.85,0,0,1-1.65-.47c-.39-.31-.75-.76-1.13-.88s-.69.51-1.36.54a2,2,0,0,1-1.57-.65,3.59,3.59,0,0,1-.77-1.35Z"/><path d="M62.6,79.25a4.44,4.44,0,0,0,1.52-.12A5,5,0,0,0,65,79a4.19,4.19,0,0,1,1-.26c.78,0,1.27.4,1.7.42a3,3,0,0,1,1.65.79l0,.09a11.58,11.58,0,0,1-1.81.11,4.21,4.21,0,0,1-1.58-.9.79.79,0,0,0-.76,0c-.25.15-.44.41-.73.6a1.37,1.37,0,0,1-1.85-.53Z"/><path d="M84.53,86.53a.63.63,0,0,1,1,0,2.64,2.64,0,0,0,.18.45.41.41,0,0,0,.37.13,1.43,1.43,0,0,1,1.4.5v.09a1,1,0,0,1-1.68-.15.85.85,0,0,0-.28-.33,2.09,2.09,0,0,0-.45,0c-.26-.1-.25-.24-.5-.55Z"/><path d="M94.64,81.76A1.63,1.63,0,0,1,96,82a5.52,5.52,0,0,1,.93.71,1.35,1.35,0,0,0,.92.53,1.76,1.76,0,0,1,1.2.47,1.64,1.64,0,0,0,.87.41,4.19,4.19,0,0,0,1-.14,19.06,19.06,0,0,0,2.23-.59l0,.08a3.6,3.6,0,0,1-2,1.48,2.78,2.78,0,0,1-1.38,0A1.73,1.73,0,0,1,98.63,84c-.21-.34-.43-.61-.86-.52a2.31,2.31,0,0,1-1.33-.18c-.8-.46-1.07-1.13-1.8-1.48Z"/><path d="M98.82,82.69a3.89,3.89,0,0,1,1.5.45c.21.14.4.37.61.37s.37-.24.57-.47a1.68,1.68,0,0,1,.85-.43c.1,0,.29-.07.26-.09l.26-.16c.41-.24.92-.43,1.36-.68h.09a2,2,0,0,1-.91,1.51,2.13,2.13,0,0,1-.43.23,2,2,0,0,1-.52.06c-.28,0-.46,0-.69,0s-.47.24-.79.33a3.06,3.06,0,0,1-.94.06,1.81,1.81,0,0,1-1.28-1.1Z"/><path d="M116.31,88.06c.66.54,1.13,1.12,1.62,1.58a1.81,1.81,0,0,0,.86.62,2.06,2.06,0,0,0,1.12-.21,3,3,0,0,1,1.27.07,2.61,2.61,0,0,0,.92-.14,3.9,3.9,0,0,1,2.41-.15v.09c-.77.25-1.29.72-2.12,1A2.4,2.4,0,0,1,121,91c-.47-.15-.7-.36-1-.42a5.37,5.37,0,0,1-2.49-.3,2.85,2.85,0,0,1-1.23-2.15Z"/><path d="M122.35,88.73a2,2,0,0,1,1.12-.25.91.91,0,0,0,.54.08,5.24,5.24,0,0,0,.58-.35,1.11,1.11,0,0,1,.77,0,.46.46,0,0,0,.27,0c.18,0,.43-.25.91-.4l.08,0a1.23,1.23,0,0,1-.67,1.3,1.08,1.08,0,0,1-.9-.09c-.21-.11-.24-.21-.37-.27a.6.6,0,0,0-.53.11,2.65,2.65,0,0,1-.58.43,1.18,1.18,0,0,1-1.24-.44Z"/><path d="M97.86,60.87a3.61,3.61,0,0,0,2.92,0c.92-.28,1.42-1.64,2.56-2.13a3.19,3.19,0,0,1,1.81-.26,3.24,3.24,0,0,0,1.4-.1c.14,0,.38-.26.64-.41a1.77,1.77,0,0,1,1-.24c.62,0,1.1.24,1.61,0l.06.07c-.37.56-1.15.54-1.61.65s-.57.45-1.3.84a3.22,3.22,0,0,1-1.91.06,4,4,0,0,0-1.52-.13,1.9,1.9,0,0,0-1.29.83,4.27,4.27,0,0,1-1,1.48,2.52,2.52,0,0,1-3.38-.6Z"/><path d="M90,45.79c-.21.79-.54,1.81-1.62,2.05-.57.09-.91-.21-1.18,0a4.31,4.31,0,0,1-.94.91,2.82,2.82,0,0,1-1.3.31,8.71,8.71,0,0,1-1.1.25,8.94,8.94,0,0,1-2.49.13l0-.09a8.5,8.5,0,0,1,2.29-1,12,12,0,0,1,1.31-.15,9.49,9.49,0,0,0,1.14.09,1.38,1.38,0,0,0,.91-.65c.36-.41,1-.38,1.16-.56.6-.21,1-.86,1.77-1.35Z"/><path d="M79,39a4,4,0,0,0,1.82.87c.15.06.21.1.31.07s.25-.2.38-.36a1.54,1.54,0,0,1,1.2-.49,5.34,5.34,0,0,1,1.18.16,1.68,1.68,0,0,0,.83-.11A9.2,9.2,0,0,0,86.5,38l.07.06A2.9,2.9,0,0,1,85,40a2,2,0,0,1-1.42,0,7.6,7.6,0,0,1-1-.51.69.69,0,0,0-.88.17,5.69,5.69,0,0,1-.28.58,1,1,0,0,1-.78.3,2.2,2.2,0,0,1-1.2-.46A1.37,1.37,0,0,1,78.86,39Z"/><path d="M80,37.59a1.72,1.72,0,0,1,1-.09.63.63,0,0,0,.46.12c.19-.08.27-.24.5-.4a1.86,1.86,0,0,1,1.21,0,3.44,3.44,0,0,0,.94.24l.06.07a1.07,1.07,0,0,1-1.16.68,2.47,2.47,0,0,1-.94-.45.62.62,0,0,0-.46.16,1.71,1.71,0,0,1-.59.4,1,1,0,0,1-1.1-.6Z"/><path d="M95.51,56.23A9.8,9.8,0,0,0,98,55.06a3.58,3.58,0,0,1,1.34-.81c.55-.12,1.07,0,1.51-.11.84-.24,1.28-1,2.05-1.77s1.94-.79,2.74-1.33l.07.05a2.79,2.79,0,0,1-1.07,1.16,5.8,5.8,0,0,0-1.06.85c-.61.58-1.45,1.64-2.7,1.55a3.72,3.72,0,0,0-1.45-.11c-.43.15-.54.63-.88,1.07a3,3,0,0,1-3,.71Z"/><path d="M87.05,58.41a3.2,3.2,0,0,1,1.62,0,2.21,2.21,0,0,0,.75.21,1.11,1.11,0,0,0,.68-.34,2.4,2.4,0,0,1,.63-.59,1.94,1.94,0,0,1,1-.27c.6,0,.94.22,1.5,0l.07.06c-.17.72-1.09.86-1.53.9a3.66,3.66,0,0,0-.62.07c-.2.06-.47.17-.77.24s-.59.11-.86.19a7.37,7.37,0,0,1-.87.27A2.06,2.06,0,0,1,87,58.5Z"/><path d="M90,59.84a1.48,1.48,0,0,1,1-.39,1,1,0,0,0,.5.07.71.71,0,0,0,.36-.38c.19-.43.9-.56,1.13-.55a3.05,3.05,0,0,0,.93,0l.07.06a1,1,0,0,1-.92.93c-.48,0-.53-.09-.91,0a1.17,1.17,0,0,0-.51.23,4.18,4.18,0,0,1-.49.43A1,1,0,0,1,90,59.93Z"/><path d="M92.82,60.55c.18-.32-.08-.5,0-.24,0,.11.1.18.06.13a.36.36,0,0,0-.2,0H92.6l.17.47a.19.19,0,0,0,.31.09.25.25,0,0,0-.14-.39l-.09,0a.29.29,0,0,1,0-.47.29.29,0,0,1,.44.11l.18.46h0l-.06,0c-.16,0-.23,0-.27,0s0,.07,0,.21-.37.1-.26-.25Z"/><path d="M94.21,61.28c.23.27.43,0,.29,0a.2.2,0,0,0-.2.11s0,0,0-.09-.07-.22,0-.26l.34.32.06.08c.12.27.07.43,0,.52a.32.32,0,0,1-.42-.15c-.06-.09-.08-.15-.15-.16a.52.52,0,0,1-.34,0c-.2-.13,0-.57.35-.4Z"/><path d="M95.63,61.78l.06.36s0,0-.08-.07-.14-.13-.13-.08a.27.27,0,0,0,.25,0,.3.3,0,0,0-.4-.42c0,.07,0,.18.18.34l.07.07a.39.39,0,0,1-.06.51.5.5,0,0,1-.43,0,.42.42,0,0,1-.17-.52,1.23,1.23,0,0,1,.36-.16c.06,0,.06,0,0-.17s0-.17.08-.15a.53.53,0,0,1,.22.27Z"/><path d="M95.84,60.12c.26.18.4.15.32.11a1.1,1.1,0,0,0-.24,0s0,0,.11,0,.22-.1.2-.13-.18,0-.34.29l0,.08c-.21.21-.38.2-.46.15s0-.2.14-.29.13-.07.1-.09a1.17,1.17,0,0,1-.23-.11c-.07-.09.09-.18.37,0Z"/><path d="M95.68,63.06c.19.21.22.29.21.34s0,0-.08,0,0-.13-.18-.15c.11,0,.12-.22.06-.28a.24.24,0,0,0-.27-.12c-.07,0-.08.18.27.3l.08,0c.27.21.19.51,0,.57a.43.43,0,0,1-.44-.13.31.31,0,0,1,0-.41.24.24,0,0,1-.11-.27c0-.06,0-.07,0-.09s.14,0,.38.13Z"/><path d="M84.81,67.1c.31-.08.41-.11.35-.07a.55.55,0,0,0-.17.17s0,0,.06-.08-.14-.26-.2-.21a.22.22,0,0,0,.27.32l.08,0c.37,0,.31.48.15.57a.34.34,0,0,1-.5-.18c0-.1,0-.16-.07-.17a1.46,1.46,0,0,1-.27,0c-.12,0-.06-.17.21-.34Z"/><path d="M85,65.54c.13.33.39.16.28.13a.29.29,0,0,0-.23,0s0,0,.09,0,.13-.2.15-.19l0,.47,0,.09c-.12.28-.22.37-.35.38a.34.34,0,0,1-.17-.4c0-.11,0-.17,0-.2s-.2-.07-.27-.15.21-.47.46-.2Z"/><path d="M86.36,66.6c-.13.32,0,.43-.07.31a.19.19,0,0,0-.1-.21s.06,0,.1-.11L86,66.48a1,1,0,0,0,0-.21.73.73,0,0,0,.4.19l.08,0c.24.21.22.41.14.54a.34.34,0,0,1-.45,0l-.29-.11a.69.69,0,0,1,.09-.33c0-.07,0-.23.06-.37s.37,0,.39.3Z"/><path d="M86.4,64.87l.22.27s0,0-.1,0-.15-.1-.13,0a1.2,1.2,0,0,0,.15.2l-.08-.64c0-.27-.33-.09-.08.31l0,.09c.15.45-.31.62-.38.3l-.17-.7.09.07a.77.77,0,0,0,.2.14s0,0-.06-.13-.09-.12,0-.09a1.38,1.38,0,0,1,.27.21Z"/><path d="M87.75,64.83c.17-.28.14-.4.11-.33a.75.75,0,0,0,0,.24s0,0,0-.11c0-.35-.29-.27.1.17l.06.08c.33.5,0,.6-.11.26,0-.08,0-.13-.06-.1a1.78,1.78,0,0,1-.09.23c-.07.07-.14-.07,0-.36Z"/><path d="M56.87,72.51a14.33,14.33,0,0,1,.65,1.77,2.18,2.18,0,0,0,.39.86,4.78,4.78,0,0,1,.68.86c.35.78.12,1.52.41,1.75a2.4,2.4,0,0,1,.21.31l.31.4a5,5,0,0,1,.53.91l-.06.07A4.45,4.45,0,0,1,59,79l-.43-.28a3.71,3.71,0,0,1-.45-.44,1.57,1.57,0,0,1-.22-1.23c0-.36.14-.64.16-.91a1.07,1.07,0,0,0-.4-.8,4.07,4.07,0,0,1-.86-.7,2.16,2.16,0,0,1,0-2.13Z"/><path d="M52.42,71.41a3.45,3.45,0,0,1,1.2-.42,2.59,2.59,0,0,1,1.23.08l-.21.38c0-.1-.19-.24-.4-.32a4.38,4.38,0,0,0-.67-.16,1.27,1.27,0,0,1-.71-.39,1.19,1.19,0,0,1-.31-.89,1.3,1.3,0,0,0-.22-1,1.28,1.28,0,0,1-.11-.86,1.63,1.63,0,0,1,.36-.66l.09,0c.08.51.14.84.39,1a1.66,1.66,0,0,1,.44.66,1.46,1.46,0,0,1,0,.84.76.76,0,0,0,.32.79,2.77,2.77,0,0,0,.56.31c.18.1.45,0,.73.33l.21.22-.42.16a2.7,2.7,0,0,1-1.21.21,3.55,3.55,0,0,1-1.24-.29Z"/><path d="M54,67.35a1.49,1.49,0,0,1,.1,1,.83.83,0,0,0-.17.45c0,.16.17.25.34.31a1.15,1.15,0,0,1,.54.29.94.94,0,0,1,.31.81c-.13.6-.41.51-.46.93l-.06.07c-.28,0-.44-.35-.46-.59s0-.44,0-.5,0-.23-.22-.65c-.08-.19-.17-.38-.26-.56a2.1,2.1,0,0,1-.33-.59,1,1,0,0,1,.59-1Z"/><path d="M56.07,70.93a.14.14,0,0,0,.24-.13c0-.13-.31-.16-.31,0s.12.18.15.16,0,0-.09,0,.13.3.26.1-.2-.28-.34,0l0,.08c-.35.15-.64-.31-.44-.65s.9-.24.9.07l.07.35a.49.49,0,0,1,0,.47c-.1.19-.53.17-.65-.06s0-.49.21-.46Z"/><path d="M78.89,80.41a.19.19,0,0,0,.2.25.14.14,0,0,0,0-.26L79,80.19c-.07.14-.07.24,0,.15a2,2,0,0,0,.14-.23c.06-.12,0,0,.11.41v.09c0,.41-.24.53-.32.38s-.07-.19-.07-.3-.07,0-.2.06l-.15-.22a.25.25,0,1,1,.43-.22Z"/><path d="M80.71,81.64c0,.34.25.32.16.28a.27.27,0,0,0-.23,0s0,0,.1,0,0-.27,0-.24-.07.27.25.3L81,82a.38.38,0,0,1-.16.65.45.45,0,0,1-.54-.42c0-.13,0-.2,0-.27a1,1,0,0,1-.19-.29c0-.22.33-.39.55-.1Z"/><path d="M82.39,80.92c-.12.3,0,.41-.06.34a.41.41,0,0,0-.16-.18s0,.06,0,.11.23.07.23.06-.18,0-.37.23l-.07.06a.39.39,0,0,1-.55-.2.36.36,0,0,1,.32-.4c.1,0,.17,0,.19-.08a2,2,0,0,1,0-.31c.1-.14.37-.06.41.27Z"/><path d="M83,82.9c0,.38.31.38.08.22s-.13.09.08-.1h0l-.42-.23c-.2-.24-.31.23.19.2h.09c.5.18.21.84-.2.62l-.42-.22h0v0c.15-.32.31-.25.13-.52s.3-.38.42,0Z"/><path d="M73,43.86a13.83,13.83,0,0,1,.86,4c0,.68,0,1.37,0,2a13.52,13.52,0,0,0,.36,2A18.81,18.81,0,0,1,74.88,56c.15,1.46-.54,2.72-.68,4h-.09c-.45-1.39,0-2.79-.23-4,0-1.28-.17-2.64-.18-4a12.53,12.53,0,0,0-.15-2c-.12-.67-.35-1.32-.5-2a14.26,14.26,0,0,1-.18-4.08Z"/><path d="M64.43,59.94c0,.35.17.42,0,.61a2,2,0,0,1-.43.15,2.43,2.43,0,0,1-.4.21s-.1.08,0,.09a.19.19,0,0,0,.16,0c.06,0,.1-.07.07.11a1,1,0,0,1-.22.38c-.16.15-.51.18-.59,0l.05-.08c.1-.32-.26-.2-.22-.44a.66.66,0,0,1,.21-.45.56.56,0,0,1,.4-.18c.16,0,.17.09.24.13s.11.13.15.06,0-.22-.05-.3a.46.46,0,0,1,.66-.3Z"/><path d="M53.29,80.48c2.46.41,4.29,2.4,5.69,4.29a3.84,3.84,0,0,0,2.67,1.78,11.36,11.36,0,0,0,3.4.31c1.11-.1,1.91-.9,3-1.53a12.37,12.37,0,0,1,3.49-1.08,33.15,33.15,0,0,1,7.16-.66,27.27,27.27,0,0,1,3.61.26,3.2,3.2,0,0,1,1.8.73,8.93,8.93,0,0,1,1,1.53A7.35,7.35,0,0,0,91.06,89a16.77,16.77,0,0,0,3.45-.26,4.34,4.34,0,0,0,2.87-1.36l.57-.72a3.43,3.43,0,0,1,.83-.59l1.6-.83,1.6-.82.82-.4a1.22,1.22,0,0,1,1.14,0l-.4.11a2.16,2.16,0,0,1,2.3-1l.14,0,0,.12a1.94,1.94,0,0,0,2.27,1.43l0,.09a2.19,2.19,0,0,1-2.7-1.42l.16.15a1.66,1.66,0,0,0-1.7.85l-.14.27-.27-.17c-.24-.15-.82.27-1.33.56l-1.55.88-1.55.88a2.48,2.48,0,0,0-.6.48l-.52.7a5.19,5.19,0,0,1-3.41,1.7,14.53,14.53,0,0,1-3.67.28,7.91,7.91,0,0,1-6.44-3.41A10.53,10.53,0,0,0,83.68,85a2.59,2.59,0,0,0-1.44-.64A26.06,26.06,0,0,0,78.72,84a23.64,23.64,0,0,0-7.06.68,12.18,12.18,0,0,0-3.26,1.25c-.48.3-.91.69-1.43,1.06a4.21,4.21,0,0,1-1.8.71,9.5,9.5,0,0,1-3.7-.32,5.21,5.21,0,0,1-1.78-.75,6,6,0,0,1-1.28-1.4c-1.29-2-2.83-3.89-5.14-4.61Z"/><path d="M62.45,82.1a2.65,2.65,0,0,0,2.08.47,1.41,1.41,0,0,1,.81.09,1.22,1.22,0,0,1,.49.59c.2.4.44.74.8.75.65.06,1.6-.39,2.61.07s1.3,1.08,2.14,1.24l0,.09a1.73,1.73,0,0,1-1.39,0L68.85,85a2.79,2.79,0,0,0-1-.22,2.93,2.93,0,0,1-1.36-.29c-.49-.24-.65-.76-.87-1.07s-.5-.28-.85-.09a1.76,1.76,0,0,1-2.36-1.17Z"/><path d="M63.11,79.54A1.68,1.68,0,0,1,64.26,79a5.27,5.27,0,0,1,.71.18l.7.11a4.62,4.62,0,0,1,1.13.43c.28.16.57.33,1,.55l0,.09a1.39,1.39,0,0,1-1.43.28,2.34,2.34,0,0,1-1-.9.55.55,0,0,0-.49-.25,1.51,1.51,0,0,0-.53.28,1.43,1.43,0,0,1-1.29-.09Z"/><path d="M69,81.77a3.18,3.18,0,0,1,1.47.51c.19.16.36.41.55.43s.39-.25.76-.32a2.39,2.39,0,0,1,1.6.58,6.53,6.53,0,0,0,1.24.69v.09a1.71,1.71,0,0,1-1.76.08c-.55-.35-.78-.74-1.1-.93-.17-.1-.4,0-.72.11a3.06,3.06,0,0,1-.92,0,1.88,1.88,0,0,1-1.19-1.13Z"/><path d="M76,81a2.22,2.22,0,0,1,1.17.56,2.28,2.28,0,0,0,.43.5c.18.13.43.15.7.3a4.73,4.73,0,0,0,.92.68,4.2,4.2,0,0,0,1,.57l0,.09a1.33,1.33,0,0,1-1.52.22,1.59,1.59,0,0,1-.83-1.22.66.66,0,0,0-.44-.36c-.21-.07-.48,0-.72-.13a1.36,1.36,0,0,1-.82-1.15Z"/><path d="M89.47,84.88a3.13,3.13,0,0,1,1.55,1,7.24,7.24,0,0,0,.48.79,2.72,2.72,0,0,0,.71.54c.55.29,1,.68,1.45.86a2.74,2.74,0,0,0,1.51.32l0,.08a1.67,1.67,0,0,1-2,.51,3.21,3.21,0,0,1-1.37-1.39,2.73,2.73,0,0,0-.59-.71c-.24-.18-.55-.29-.82-.46a3,3,0,0,1-1.06-1.5Z"/><path d="M90.59,82a2,2,0,0,1,2.63.63c.28.46.25,1,.44,1.29a.71.71,0,0,0,1,.3,1.94,1.94,0,0,1,1.5-.14A2,2,0,0,1,97,85.44c.08.27.11.34.55.45s1,.14,1.24.62l-.07.06c-.39-.16-.73,0-1.2.05a1.7,1.7,0,0,1-.83-.11,1.27,1.27,0,0,1-.63-.73c-.18-.52-.19-.83-.31-.89s-.58-.11-1-.13a1.47,1.47,0,0,1-1.27-.64,4.85,4.85,0,0,0-.79-1,3.72,3.72,0,0,0-2-1Z"/><path d="M96.57,82.47a2.74,2.74,0,0,0,1.08.39c.26.2,1.08-.17,1.56.3a6.77,6.77,0,0,0,1.12.65c.36.21.72.4,1.22.65v.09a1.73,1.73,0,0,1-1.65.17,2,2,0,0,1-1.1-1.23c-.06-.21-.2-.36-.41-.28s-.35.34-.72.43a1,1,0,0,1-1.2-1.15Z"/><path d="M87.73,81.74c.27,0,.35.05.38.08s0,.07-.27.11l-.18-.12a.8.8,0,0,1,0-.38s.11.09.24.4l0,.09c0,.34,0,.48,0,.47a.81.81,0,0,1-.22-.31L87.67,82h-.12c-.24,0-.28,0-.28-.09s.1-.07.37-.11Z"/><path d="M91.54,81c.12-.29.17-.39.16-.31l0,.23s0,0,.06-.09c.14-.3.18-.33,0,.24l0,.08c-.22.54-.24.5-.17.17,0-.08,0-.13,0-.11l-.11.22c0,.07,0,0,.06-.34Z"/><path d="M78.31,79.4a1.58,1.58,0,0,0,.33.09l-.23,0s0,0,.1,0c.34,0,.32-.19-.15.18l-.07,0c-.53.27-.61,0-.28-.14.07,0,.12-.06.09-.08s-.17,0-.23-.07,0-.13.35-.08Z"/><path d="M80.24,81.47h-.11s0,0-.1,0c-.34,0-.37,0,.21,0h.09c.58,0,.54,0,.21,0-.08,0-.13,0-.1,0h-.2Z"/><path d="M44.18,70.79a3.16,3.16,0,0,0-1.93.25,1,1,0,0,0-.47,1.3,12.52,12.52,0,0,0,1.08,1.79c.38.58,1.17,1,1.25,1.91s-.63,1.57-.48,1.95.68.64,1.34.83a26,26,0,0,1,4,1.61l0,.1a24.93,24.93,0,0,1-4.31-.76,3.54,3.54,0,0,1-1.1-.46,1.72,1.72,0,0,1-.82-1.19c0-1.14.78-1.54.85-2.1s-.5-1.15-1-1.68-1.09-1-1.56-1.64A1.46,1.46,0,0,1,41,71.32a1.8,1.8,0,0,1,1-.93,2.56,2.56,0,0,1,2.29.31Z"/><path d="M43.67,72.81c.2-.26.25-.36.32-.28a.89.89,0,0,0,.12.24s.1,0,.13-.12c.11-.37.07-.38.59,0l.05.07c.19.61-.25.78-.55.48-.08-.07-.14-.12-.2-.08s-.12.17-.2.23-.3-.08-.3-.41Z"/><path d="M45,75.74c.33,0,.36-.22.27-.17a.37.37,0,0,0-.11.2s0,0,0-.1-.2-.18-.23-.13.1.23.4.15h.09a.34.34,0,0,1,.31.46.33.33,0,0,1-.5,0c-.08-.07-.11-.13-.16-.11s-.16.12-.26.13-.21-.32.1-.45Z"/><path d="M109,56.84a42.8,42.8,0,0,1,6.73,2.23c1,.51,2.3.9,3,2a3,3,0,0,1,.41,1.81c-.06.56-.3,1.22,0,1.58.13.18.26.21.53.2a5.65,5.65,0,0,1,.92,0,4.45,4.45,0,0,1,1.84.55,3.44,3.44,0,0,1,1.39,1.46,5.46,5.46,0,0,1,.49,1.86,3.85,3.85,0,0,1,0,1,2.18,2.18,0,0,1-.5,1l-1.23,1.31c-.83.85-1.69,1.68-2.57,2.47l-.07-.07c.67-1,1.36-1.94,2.08-2.87L123.06,70a1.51,1.51,0,0,0,.26-1.34A3.47,3.47,0,0,0,122,66a4.38,4.38,0,0,0-1.49-.56c-.28-.05-.53-.07-.85-.1a1.09,1.09,0,0,1-1-.6c-.31-.75.14-1.29.18-1.87a2.16,2.16,0,0,0-.36-1.58c-.64-1-1.92-1.06-3-1.46A43.52,43.52,0,0,1,109,56.93Z"/><path d="M121.77,73A2.5,2.5,0,0,1,124,75a8.35,8.35,0,0,1,.08,1.57c0,.51.07,1,0,1.55a4.4,4.4,0,0,1-1.46,2.78,12.16,12.16,0,0,1-2.36,1.89l-.07-.06A12.54,12.54,0,0,1,122,80.24a7,7,0,0,0,1.7-2.2,2.85,2.85,0,0,0,.16-1.42,4.68,4.68,0,0,0-.52-1.35,4.77,4.77,0,0,0-1.55-2.22Z"/><path d="M113.54,63.33c.28-.14.31-.28.25-.22a.61.61,0,0,0-.11.21s0,0,0-.09,0-.25,0-.25,0,.19.16.42l0,.08c.12.27,0,.43,0,.49s-.22-.06-.25-.24,0-.15-.05-.13-.14.13-.22.15-.14-.17.11-.38Z"/><path d="M115.6,62.32c.22.22.29.31.23.26l-.18-.16.07.08c.22.24.23.28-.19-.12l-.06-.06c-.4-.42-.36-.41-.12-.19l.08.07-.15-.18c0-.06,0,0,.25.23Z"/><path d="M114.55,65c.29-.14.28-.3.27-.21a.33.33,0,0,0,0,.24s.05,0,.06-.11a.37.37,0,0,0,0-.24s.07.17.38.22l.09,0a.39.39,0,0,1,.11.57.34.34,0,0,1-.46-.07c-.07-.07-.12-.12-.17-.1s-.12.16-.21.2-.31-.2-.11-.47Z"/><path d="M116,66.29c-.28.16-.25.34-.2.26a.42.42,0,0,0,0-.23s0,0,0,.11.09.22.13.2,0-.21-.33-.29l-.09,0a.35.35,0,0,1-.16-.5.26.26,0,0,1,.38.11c0,.07.08.12.12.1s.1-.16.18-.2.25.18,0,.42Z"/><path d="M112.15,69.1c.13-.29,0-.42,0-.33a1.17,1.17,0,0,0,0,.23s0,0,0-.09-.17-.19-.19-.16.07.18.36.25l.09,0c.28.12.32.29.29.39s-.19.08-.32,0-.1-.11-.11-.08a1.38,1.38,0,0,1,0,.25c-.07.09-.21,0-.13-.35Z"/><path d="M118.43,66.42c-.22-.22-.28-.3-.23-.26l.18.16-.06-.08c-.23-.24-.24-.28.18.12l.06.06c.4.42.37.41.12.19l-.08-.07.16.18c0,.06,0,0-.26-.23Z"/><path d="M119.33,68.63c.28.15.37.22.29.22l-.24,0s0,0,.08.08c.29.18.3.25-.26.09l-.09,0c-.52-.27-.46-.31-.13-.25.08,0,.14,0,.11,0a1.4,1.4,0,0,0-.2-.13c-.06-.06,0,0,.35,0Z"/><path d="M57.49,80.63c.25-.21.21-.37.17-.29a.53.53,0,0,0,0,.23s0,0,0-.1-.1-.22-.14-.2,0,.2.32.31l.08,0c.25.18.24.38.17.48s-.24,0-.35-.12-.07-.12-.1-.09-.08.16-.15.21-.23-.14,0-.4Z"/><path d="M105,58.17a19.34,19.34,0,0,1,2.27-1.91,4,4,0,0,0,1.09-.95,2.64,2.64,0,0,0,.4-1.39c0-2-.72-3.66-1-5.76l.09,0a7.6,7.6,0,0,1,1.5,2.73,5.28,5.28,0,0,1-.07,3.17,12.36,12.36,0,0,1-.64,1.44,6.22,6.22,0,0,1-.82,1.37,5,5,0,0,1-2.76,1.42Z"/><path d="M80.67,36.41a7.36,7.36,0,0,1,3.17-3.59,5.12,5.12,0,0,1,2.43-.38,6.69,6.69,0,0,1,2.37.49,4.06,4.06,0,0,1,1.08.64c.33.26.44.27.69.21a9.39,9.39,0,0,0,1-.53,2.54,2.54,0,0,1,1.4-.27A3.53,3.53,0,0,1,95,34.27a7.28,7.28,0,0,1,1.13,2.15l-.09,0C95.06,35.26,94,34,92.68,34a1.9,1.9,0,0,0-.89.15,6.86,6.86,0,0,1-1.15.5,1.35,1.35,0,0,1-.84-.06,1.91,1.91,0,0,1-.58-.45,5.16,5.16,0,0,0-.82-.73,3.58,3.58,0,0,0-2.13-.65,3.93,3.93,0,0,0-2.06.77,28.08,28.08,0,0,0-3.46,3Z"/><path d="M80.91,36.57a2.18,2.18,0,0,1,1.29,0,1.32,1.32,0,0,0,.58.22,1.54,1.54,0,0,0,.63-.26,1.77,1.77,0,0,1,1.45-.08A6.61,6.61,0,0,0,86,36.9L86,37c-.3.52-1,.5-1.43.41s-.7-.3-1.1-.38a1.44,1.44,0,0,0-.65.06,4,4,0,0,1-.71.26,1.41,1.41,0,0,1-1.24-.67Z"/><path d="M85.2,35.15a1.31,1.31,0,0,1,1-.62,6,6,0,0,0,.63.08c.24-.07.54.14.67.14s.09-.1.18-.16a2.28,2.28,0,0,1,.38-.35,1.05,1.05,0,0,1,1.38.14l0,.09a2.32,2.32,0,0,0-.76.58,2.14,2.14,0,0,1-.56.31.74.74,0,0,1-.88-.18c-.16-.21-.17-.35-.34-.27a4.42,4.42,0,0,0-.47.37,1.3,1.3,0,0,1-1.18,0Z"/><path d="M88,37.33a2.59,2.59,0,0,1,1-1,3,3,0,0,0,.67-.27c.18-.11.33-.5.81-.41s.25,0,.35,0,.2-.24.38-.42a3.28,3.28,0,0,1,1.33-.72l.06.07A3.13,3.13,0,0,1,92,35.89a1.76,1.76,0,0,1-.71.51.89.89,0,0,1-.63,0c-.28-.11-.23-.21-.32-.3s-.26-.06-.39.14-.24.46-.41.67a1.59,1.59,0,0,1-1.44.48Z"/><path d="M91.16,38c.21.22.28.31.22.26l-.17-.16s0,0,.06.08c.23.24.24.28-.18-.12L91,38c-.4-.42-.37-.41-.12-.18l.08.06-.16-.17c0-.06,0,0,.26.22Z"/><path d="M40.53,53.3a6.07,6.07,0,0,0-1.68,4.93,5.83,5.83,0,0,0,.84,2.53c.41.82,1.07,1.72.78,2.79A9.58,9.58,0,0,0,40,64.83a1.12,1.12,0,0,0,.51.94A14,14,0,0,0,42.88,67a53.67,53.67,0,0,1,5,2.64l.68.39-.7.23a5.22,5.22,0,0,1-2.9.15v-.09a6.36,6.36,0,0,0,2.62-.69l0,.62a55.87,55.87,0,0,1-5.15-2.4A11.31,11.31,0,0,1,40,66.3a1.67,1.67,0,0,1-.51-1.57c.15-.58.56-.88.69-1.28A2.69,2.69,0,0,0,39.33,61,5.35,5.35,0,0,1,38,58.33a5.06,5.06,0,0,1,2.45-5.11Z"/><path d="M64,65.31a29.43,29.43,0,0,1,.43,3,19.26,19.26,0,0,0,.38,3,6.15,6.15,0,0,0,1.09,2.73,1.41,1.41,0,0,0,2.33-.25c1-1.68.29-3.75-.79-5.31s-2.66-3-3.73-4.82l.07-.06C65.27,65,67,66.18,68.26,68a6.77,6.77,0,0,1,1.2,3,4,4,0,0,1-.83,3.17,2.25,2.25,0,0,1-1.47.76,1.79,1.79,0,0,1-1.5-.63A7.88,7.88,0,0,1,64,71.54a8.54,8.54,0,0,1-.34-3.12,29.15,29.15,0,0,1,.2-3.1Z"/><path d="M83.61,32q-.64-3.81-1.39-7.59c-.46-2.53-1-5-1.56-7.55-1.06-5-2-10.11-3.31-15.09l0-.17.18,0,2.41-.47L81.11.84A2.86,2.86,0,0,1,82.44.75a1,1,0,0,1,.62.55,2.14,2.14,0,0,1,.12.7l.1,1.22c.07.81.14,1.62.24,2.43a32.57,32.57,0,0,0,.86,4.75,37.17,37.17,0,0,0,1.75,4.52,15.54,15.54,0,0,1,.94,4.94,23.88,23.88,0,0,0,.82,4.74c.82,3.12,2,6.32,1.88,9.64h-.09C89.47,31,88.1,28,87.14,24.82a23.13,23.13,0,0,1-1-4.88,14.62,14.62,0,0,0-.91-4.66,28.46,28.46,0,0,1-1.73-4.64,28.55,28.55,0,0,1-.75-4.92c-.06-.82-.09-1.64-.12-2.46l0-1.23c0-.43,0-.69-.3-.76a2.64,2.64,0,0,0-1.1.05L80,1.5l-2.42.36.13-.2c.56,2.51,1.19,5,1.86,7.5s1.36,5,1.91,7.49,1,5.06,1.45,7.61.67,5.13.8,7.7Z"/><path d="M79.81,4.07c.2.65.52,1,.7,1.67.06.32,0,.68.12,1a3.89,3.89,0,0,0,.35.91,4.62,4.62,0,0,1,.27,3.83h-.09a6.81,6.81,0,0,1-.68-3.72,2.24,2.24,0,0,0-.14-.93A6.19,6.19,0,0,0,79.79,6a1.85,1.85,0,0,1-.07-2Z"/><path d="M82.59,13.09A3.61,3.61,0,0,1,83.14,15a8.75,8.75,0,0,0-.14,1,3.07,3.07,0,0,0,.21,1,6,6,0,0,1,.19,4h-.09a5.94,5.94,0,0,1-.61-3.93,3.35,3.35,0,0,0,0-1c-.07-.32-.24-.64-.34-1a3.61,3.61,0,0,1,.14-2Z"/><path d="M83.47,22.36A3,3,0,0,1,84,24.13c0,.31-.13.62-.13.93a2.52,2.52,0,0,0,.21.89,5,5,0,0,1,.21,3.65h-.1a5.08,5.08,0,0,1-.62-3.6,2.78,2.78,0,0,0,0-.91,9.4,9.4,0,0,0-.34-.88,3,3,0,0,1,.13-1.85Z"/><path d="M84.44,21.21l0-.06h0l.18,0h0l0,0,.07.12a.9.9,0,0,1,.12.24,4.73,4.73,0,0,1,.2.47,3.33,3.33,0,0,1,.18,1c0,.34-.1.69-.09,1a3.39,3.39,0,0,0,.26,1,6,6,0,0,1,.4,4l-.09,0A6.14,6.14,0,0,1,84.81,25a3,3,0,0,0,0-1c-.08-.33-.27-.63-.38-.95a3.09,3.09,0,0,1-.13-1,4.38,4.38,0,0,1,0-.51,1.32,1.32,0,0,1,0-.26l0-.13v0h0s.35-.05.18,0h0v0l0,.06Z"/><path d="M44.87,49.11c-2.47-5.42-3.65-11.34-4.51-17.19-.42-2.93-.62-5.9-1-8.84-.22-1.46-.28-2.95-.4-4.42l-.18-2.22c-.06-.47,0-.47-.33-.33a8.65,8.65,0,0,0-.93.54,2.14,2.14,0,0,0-1,1.6,19.82,19.82,0,0,0,.15,2.18,16.71,16.71,0,0,1-.27,2.25,4.18,4.18,0,0,0,.2,2c.21.66.52,1.33.77,2.07a7.4,7.4,0,0,1,.39,2.33c0,1.56-.36,3-.42,4.44-.14,2.8,1.22,5.59,1.79,8.52s1.08,5.84,1.47,8.78l-.09,0c-.67-2.89-1.3-5.79-2.09-8.62C38,40.8,37.53,39.42,37.06,38a12.88,12.88,0,0,1-.74-4.52c.07-1.54.39-3,.41-4.39s-.54-2.65-1-4.15a5,5,0,0,1-.17-2.38,13.74,13.74,0,0,0,.36-2.13,20.67,20.67,0,0,1,0-2.25,2.7,2.7,0,0,1,1.36-1.95,9.79,9.79,0,0,1,1-.54.67.67,0,0,1,.78.06c.21.29.12.5.15.67l.11,2.22a32.69,32.69,0,0,0,.39,4.41c.43,2.93.93,5.84,1.47,8.75A115.48,115.48,0,0,0,45,49.07Z"/><path d="M38.33,33.48a15.8,15.8,0,0,1,1,3.76c.06.64.06,1.3.17,1.94A10.14,10.14,0,0,0,40,41a24.39,24.39,0,0,1,1.81,7.55l-.09,0a20.33,20.33,0,0,1-2.22-7.45,12.12,12.12,0,0,0-.34-1.91c-.17-.63-.44-1.23-.63-1.86a10.85,10.85,0,0,1-.31-3.9Z"/><path d="M40.38,37.57a8.65,8.65,0,0,1,.89,2.82c0,.5,0,1,.09,1.49a7,7,0,0,0,.45,1.41A15.51,15.51,0,0,1,43.33,49l-.09,0a11,11,0,0,1-1.92-5.6A8.08,8.08,0,0,0,41.06,42c-.14-.47-.38-.92-.55-1.39a6.93,6.93,0,0,1-.23-3Z"/><path d="M37.52,19.1a1.24,1.24,0,0,1,.39,1.07,4,4,0,0,0-.22.53.93.93,0,0,0,.13.53,1.89,1.89,0,0,1-.11,2.15h-.1a1.88,1.88,0,0,1-.3-2.13,1.07,1.07,0,0,0,.08-.55,5.16,5.16,0,0,0-.26-.53,1.15,1.15,0,0,1,.29-1.08Z"/><path d="M83.06,33.34a2.6,2.6,0,0,1,1.3-3c.5-.28,1-.43,1.52-.67a2.14,2.14,0,0,0,.62-.44c.14-.15.08-.39,0-.66a22.24,22.24,0,0,1-.47-6.43h.09a11.85,11.85,0,0,1,.89,6.44,1.44,1.44,0,0,1-.3.88,7.43,7.43,0,0,1-.71.48,10.42,10.42,0,0,0-1.22,1,4.25,4.25,0,0,0-1.66,2.39Z"/><path d="M87.79,28.46A1.25,1.25,0,0,1,88,29.79c-.12.21-.31.37-.43.56a2.11,2.11,0,0,0-.2.63,1.77,1.77,0,0,1-2.09,1.48l0-.09A4.84,4.84,0,0,1,87,30.71a.86.86,0,0,0,.36-.48,2.2,2.2,0,0,0,0-.62,2.11,2.11,0,0,1,.42-1.14Z"/><path d="M89.17,31.05c.24.28.24.55.07.68s-.28.07-.37.12a.39.39,0,0,0-.11.3c0,.52-.48.88-1.06.48l0-.09c.09-.67.24-.73.72-.74.11,0,.21,0,.24-.13a1,1,0,0,0-.06-.33c0-.18.16-.24.51-.32Z"/></g></g></svg>