<svg xmlns="http://www.w3.org/2000/svg" viewBox="0 0 164.01 144.39"><defs><style>.cls-1{fill:#afadbd;}.cls-2{font-size:17.46px;fill:#9592a7;font-family:GillSans, Gill Sans;letter-spacing:0.02em;}.cls-3{font-size:23.69px;font-family:DINNextLTPro-Condensed, DIN Next LT Pro;letter-spacing:-0.01em;}</style></defs><g id="Layer_2" data-name="Layer 2"><g id="Ingredients_Map" data-name="Ingredients Map"><path class="cls-1" d="M124.71,78.72a22.75,22.75,0,0,1-1.51-6.29,21.76,21.76,0,0,1-.08-2.91c0-1,.31-2.08-.19-3-.62-1.12-2-1.54-3-2.2A2.53,2.53,0,0,1,118.78,63c-.24-.84.3-1.71.07-2.55-.36-1.33-2.7-1.53-3.79-1.91a7.82,7.82,0,0,1-4.52-3.24c-1-1.88-1.35-4.28-1.87-6.34-.58-2.24-1.15-4.48-1.73-6.72L103.37,28.3q-2-7.68-3.94-15.35c-.33-1.28-.65-2.56-1-3.84a9.5,9.5,0,0,0-1-2.85c-1-1.63-2.47-1.6-4.16-1.06-.32.1-.91.32-.94.72-.59,6.06,2.25,11.93,4.08,17.57q1.5,4.65,2.83,9.34c.39,1.41.78,2.82,1.15,4.24a18.57,18.57,0,0,1,.52,2.11,3.26,3.26,0,0,1,.07.7,2.4,2.4,0,0,1,0,.28,2.72,2.72,0,0,1-.87-.73,10.76,10.76,0,0,1-.82-1.67,5.06,5.06,0,0,0-2-2.54c-1.9-1.06-4.63-.63-6.08-2.43a9.33,9.33,0,0,1-1.36-3.64c-.4-1.59-.81-3.18-1.22-4.77q-1.23-4.78-2.45-9.55c-.86-3.33-1.61-6.71-2.59-10C82.72,2,80.75.61,77.86,1.41c-.25.07-1.45.4-1.33.84q3.1,11.28,6.22,22.58a18.69,18.69,0,0,1,.94,5.23,8.09,8.09,0,0,1-1.52,4.42c-1,1.55-2.33,2.91-3.32,4.47-1.12-1.82-1.4-4.27-1.85-6.24Q75.76,27.33,74.31,22,71.41,11.31,67.66.9c-.23-.64-3,.09-2.9.78.79,7.87,1.87,15.71,3.37,23.47,1.46,7.56,3.52,14.93,5.55,22.34.5,1.81,1,3.63,1.33,5.47.16.77.3,1.53.42,2.31.06.4.15.83.17,1.24a2.72,2.72,0,0,1,0,.57c-.58-.19-1.34-.42-1.49-.5-.63-.36.41-.24-.11-.75-1.16-1.12-.77-2.53-1.32-4-1.25-3.36-4.13-7.63-4.45-11.16Q67.71,34.75,67,28.88q-.81-6.6-1.88-13.16c-.27-1.69-.32-3.7-1.43-5.1-1-1.2-2.42-1-3.72-.51-.25.1-1,.33-1,.72q2.09,17.77,2.62,35.7A3.53,3.53,0,0,1,61,45.45a15.69,15.69,0,0,1-.63-3c-.39-2.45-.79-4.89-1.18-7.33L56.82,20.49c-.4-2.44-.79-4.88-1.19-7.32-.2-1.22-.39-2.45-.59-3.67-.09-.57-.19-1.14-.28-1.71s0-1.59-.32-1.95c-.74-1-3.14.1-3.71.85A3.51,3.51,0,0,0,50.27,9c0,1.23,0,2.46,0,3.69a274.11,274.11,0,0,0,2.25,29.48c.32,2.45.69,4.88,1.06,7.32a8.27,8.27,0,0,1,.07,3.67,7,7,0,0,1-.5,1.07c0,.08-.3.27-.3.34a4.72,4.72,0,0,1-.82-.31c-3.31-1.35-5.58-4.31-7.08-7.45-2-4.12-2.86-8.7-3.64-13.16A108,108,0,0,1,39.8,17.27c0-.43-2.36-.12-2.82.54a.62.62,0,0,0-.3.43,86,86,0,0,0,1.9,24.94,49.1,49.1,0,0,1,1.13,6,19.9,19.9,0,0,1-.61,6.24c-.77,3.39-1.2,6.74,1.08,9.65,2,2.57,5.06,4.08,8,5.38a8.19,8.19,0,0,1-.94.35,11.26,11.26,0,0,0-2.25,0c-.64,0-1.28.1-1.92.19a5.75,5.75,0,0,0-1.41.65c-.23.13-.42.29-.39.48.36,2.25.83,4.79,2.68,6.32s4.69,1.32,7.05,1.74c4.59.82,6.95,5.88,11.61,6.52,2.71.37,5.32-.69,7.8-1.61a14.76,14.76,0,0,1,8.77-.53c2.81.67,5.11,2.28,7.71,3.42a11.46,11.46,0,0,0,7.39.73c3-.68,5.6-2.33,8.45-3.47,2.42-1,5.22-.94,7.13,1a6.38,6.38,0,0,1-3.64,1.87c-.24,0-2.58.71-2,1.07,3.42,2.14,7.53,2.49,11.46,2.81,3.51.29,7.87,0,10.4-2.81C129,85.92,126.05,82,124.71,78.72ZM62.54,47.24c.36-.14.25.07,0,0Z"/><text class="cls-2" transform="translate(55.77 113.96)">Cochin<tspan class="cls-3"><tspan x="-55.77" y="25.45">WARM &amp; SPICY GINGER</tspan></tspan></text><path d="M55.64,50.65c-.65-3.67-1-7.36-1.41-11s-.35-7.43-.73-11.13l-.44-5.54a39.85,39.85,0,0,0-.7-5.48q-.54-2.7-1.33-5.34c-.5-1.7-1.4-3.63-.75-5.67l.07-.2.19,0,1.63-.4a10.12,10.12,0,0,1,1.73-.31,1,1,0,0,1,.85.54.86.86,0,0,1-.1,1,3.3,3.3,0,0,1-1.54.77l0-.08a3.15,3.15,0,0,0,1.33-.87A.58.58,0,0,0,53.87,6a12.57,12.57,0,0,0-1.53.44l-1.6.51L51,6.67c-.46,1.65.41,3.37.94,5.15a35.46,35.46,0,0,1,1.33,5.47q.24,1.38.36,2.79c.09.94,0,1.86.08,2.8,0,1.86,0,3.72.11,5.58s.29,3.69.52,5.53.53,3.68.71,5.53c.34,3.7.64,7.4.69,11.12Z"/><path d="M54.61,38.12a1.47,1.47,0,0,1,1.22.34,5.34,5.34,0,0,0,.41.53,1.25,1.25,0,0,0,.58.23,2.42,2.42,0,0,1,2,1.46l-.06.08a2.44,2.44,0,0,1-2.21-1.1,1.19,1.19,0,0,0-.46-.41,4.76,4.76,0,0,0-.64-.11,1.59,1.59,0,0,1-.89-.94Z"/><path d="M55.35,58.77c.17-1.74.37-3.46.5-5.19s.24-3.45.37-5.18.23-3.45.25-5.19c0-.41-.12-.88.19-1.37a5.4,5.4,0,0,1,1.13-.77l2.2-1.4.26-.16,0,.31a114.26,114.26,0,0,0,1.22,12.31,59.84,59.84,0,0,0,3.1,11.93l-.09,0a35.33,35.33,0,0,1-4-11.81,62.66,62.66,0,0,1-.61-12.46l.27.15-2.24,1.33a6.13,6.13,0,0,0-1,.72c-.18.27-.08.74-.07,1.17A45.79,45.79,0,0,1,57,48.44a48,48,0,0,1-.47,5.22,42,42,0,0,1-1.11,5.12Z"/><path d="M54.63,8.18a63.91,63.91,0,0,1,1.77,8.44,61.22,61.22,0,0,0,1.31,8.53,112.7,112.7,0,0,1,2.67,17h-.09a110.48,110.48,0,0,1-3.08-17,61,61,0,0,0-1.57-8.47,64.36,64.36,0,0,1-1.1-8.57Z"/><path d="M73.64,52.17a119.21,119.21,0,0,0-1.33-13.12c-.87-4.26-2-8.57-2.88-12.88s-1.75-8.64-2.64-12.95S64.9,4.61,63.92.31L63.86,0h.28L66,0h.92a1.1,1.1,0,0,1,1,.53C68.32,1.76,68.63,2.84,69,4l2.24,6.88c1.48,4.58,2.89,9.2,4.17,13.88,1,4.72,1.76,9.5,3.1,14.1S81.49,48,83,52.6l-.09,0c-1.86-4.45-3.63-8.94-5.09-13.56A134.69,134.69,0,0,1,74.48,25l-2-6.92-2.08-6.93-2-6.94c-.35-1.13-.68-2.37-1-3.41C67.26.42,66.54.53,66,.51l-1.8,0,.22-.28c.9,4.32,1.76,8.64,2.76,12.93L70.2,26c1,4.3,2,8.56,2.81,12.94a86.11,86.11,0,0,1,.72,13.22Z"/><path d="M53.42,55.2a5.64,5.64,0,0,1-.15,2.56,1.47,1.47,0,0,1-.41.67,1.22,1.22,0,0,1-.71.29,6.51,6.51,0,0,0-1.25.21c-1.45.6-2,2-3.14,3.42l-.09,0a4.83,4.83,0,0,1,.73-2.56,3,3,0,0,1,2.42-1.34,4.17,4.17,0,0,0,1.27,0c.41-.15.43-.44.42-.82a5.63,5.63,0,0,1,.82-2.42Z"/><path d="M52.27,55a5,5,0,0,0-2.88-2.55,20.45,20.45,0,0,1-2-.77,4.23,4.23,0,0,1-1.65-1.46l-.62-.88a2.48,2.48,0,0,0-.54-.65s0,0-.13,0l-.44.24c-.31.17-.63.33-.94.48s-.77.34-.8.38a6.18,6.18,0,0,1-.65.62.18.18,0,0,0,0-.1v.25l0,.29c0,.19-.1.37-.15.54a3,3,0,0,0-.15,1l-.09,0a2,2,0,0,1-.28-1.1c0-.18,0-.35,0-.52l0-.25v-.21a.88.88,0,0,1,0-.16c.3-.62.52-.67.71-1a4,4,0,0,1,1.06-.65c.32-.15.64-.31,1-.44l.52-.22a1,1,0,0,1,.9.07,2.42,2.42,0,0,1,.72,1l.41,1a2.39,2.39,0,0,0,1.36,1.42,16.23,16.23,0,0,0,2.11.3A3.54,3.54,0,0,1,52.36,55Z"/><path d="M102,78.85a4.18,4.18,0,0,1,3,1.73,8.48,8.48,0,0,1,.55,1.66,2.23,2.23,0,0,0,1,1.23c1,.56,1.86.21,3.16.21a2.39,2.39,0,0,1,1.74.92c.39.44.65.88,1.09,1.08l.11.06v0a.49.49,0,0,1-.42.75v-.09c.21-.09.19-.39.09-.4l.12.08a3.06,3.06,0,0,1-1.59-.89,2,2,0,0,0-1.22-.53c-.47-.06-1,0-1.67-.07a2.81,2.81,0,0,1-1.66-.81,25.69,25.69,0,0,1-2-2.78A13.77,13.77,0,0,0,102,78.93Z"/><path d="M110.19,86c-1.47.85-3,1.62-4.49,2.37a.25.25,0,0,1-.12.08s0,0,0,0,.06.13.21.22a4.3,4.3,0,0,1,1.12.75c.67.62,1.08,1.37,1.69,1.81a1.78,1.78,0,0,0,2,.31,6.75,6.75,0,0,1,2.56-.42c1.72.06,3.37.51,5,.56a13,13,0,0,0,4.8-.94c.78-.29,1.55-.62,2.32-1a3.38,3.38,0,0,0,.93-.49c.13-.11.16-.49.24-.92.13-.84.24-1.67.4-2.5s.48-1.75,0-2A5.19,5.19,0,0,1,125.11,82a3.91,3.91,0,0,1-.44-1.24c-.08-.39-.15-.87-.54-1v-.1c.52.06.67.63.81,1a4.57,4.57,0,0,0,.57,1.07,5,5,0,0,0,1.86,1.54,1.33,1.33,0,0,1,.51.68,2,2,0,0,1,.07.78L127.82,86c-.09.84-.22,1.67-.34,2.51A2.63,2.63,0,0,1,127,90a3.22,3.22,0,0,1-1.27.71c-.78.32-1.58.62-2.4.89a11.45,11.45,0,0,1-5.13.62,35.22,35.22,0,0,0-5-.75,4.94,4.94,0,0,0-2.36.58,2.62,2.62,0,0,1-1.36.35,2.84,2.84,0,0,1-1.35-.51A14.61,14.61,0,0,1,106.35,90a3.59,3.59,0,0,0-1-.69,1.06,1.06,0,0,1-.53-.75A.74.74,0,0,1,105,88a2.8,2.8,0,0,1,.4-.27c1.56-.64,3.13-1.27,4.74-1.81Z"/><path d="M82.84,34.4A3.5,3.5,0,0,1,82.66,37a1.4,1.4,0,0,1-.78.73c-.72.18-1.27,0-1.55.27a1.76,1.76,0,0,0-.51,1.19,10.5,10.5,0,0,0,.2,3.25A3.32,3.32,0,0,0,82.1,44.8l.56.18-.59.16a1.19,1.19,0,0,0-.7,1.4,8.31,8.31,0,0,0,.72,1.81,7.28,7.28,0,0,0,.4.8c0,.05.1,0,.51-.06a7.73,7.73,0,0,1,2.14-.24,8.85,8.85,0,0,1,7.23,3.83l-.07.06a10.93,10.93,0,0,0-3.36-2.15,10.69,10.69,0,0,0-3.81-.76A12.47,12.47,0,0,0,83.2,50a3.35,3.35,0,0,1-.6.09,1,1,0,0,1-.79-.38,4.51,4.51,0,0,1-.47-1.05,6.84,6.84,0,0,1-.57-2.07A1.67,1.67,0,0,1,82,44.79l0,.34a4.44,4.44,0,0,1-2.34-2.53A8.47,8.47,0,0,1,79,39.14a2.18,2.18,0,0,1,.89-1.79c.72-.42,1.4-.14,1.77-.27s.65-.56.83-1a4.12,4.12,0,0,0,.25-1.61Z"/><path d="M83,50.88c.53,1.59.5,3.36,1.28,4.69a7.52,7.52,0,0,0,3.61,2.88c1.47.68,3.06,1.22,4.57,1.94a7.38,7.38,0,0,1,3.68,3.38A5.81,5.81,0,0,0,97.5,65.7c.58.49,1.33.84,2,1.43a4.84,4.84,0,0,1,1.48,2.3,1.77,1.77,0,0,1-2.85,2,6.34,6.34,0,0,1-.93-.94,10,10,0,0,1-1.36-2.19,20.39,20.39,0,0,1-1.37-4.83l.09,0A32.12,32.12,0,0,0,96.51,68a8.89,8.89,0,0,0,1.39,1.92c.52.55,1.21,1.22,1.6,1.13.17,0,.42-.25.52-.49a1.63,1.63,0,0,0,0-.91,4,4,0,0,0-1.11-1.87c-.55-.51-1.3-.92-1.94-1.55A5.85,5.85,0,0,1,95.7,64a5.68,5.68,0,0,0-3.35-3.3c-1.49-.69-3.14-.92-4.73-1.53a7.15,7.15,0,0,1-4-3.26c-.78-1.66-.53-3.37-.74-5Z"/><path d="M93.55,42.59a24.47,24.47,0,0,1,0-2.84,7.17,7.17,0,0,1,.17-1.5c.27-.67.84-.88,1.12-1.13a3.56,3.56,0,0,0,.87-.94,3.36,3.36,0,0,0,.3-.6,1.48,1.48,0,0,1,.39-.68,1.23,1.23,0,0,1,1.49.17,7.8,7.8,0,0,1,1.05,1,6.16,6.16,0,0,1,1.34,2.63,9.75,9.75,0,0,0,.76,2.52,1.28,1.28,0,0,0,.78.65,4,4,0,0,1,1.42.57,5.08,5.08,0,0,1,1.58,2.48l-.08,0a6.7,6.7,0,0,0-1.89-1.9,3.27,3.27,0,0,0-1.24-.31,2.16,2.16,0,0,1-1.42-1,7.66,7.66,0,0,1-.77-2.88,7.72,7.72,0,0,0-.9-2.51,4.37,4.37,0,0,0-.84-1.06c-.31-.28-.81-.49-1.08-.21s-.21.84-.42,1.29a3.93,3.93,0,0,1-.82,1.29c-.4.38-.78.59-.86.84a12.36,12.36,0,0,0-.23,1.29,26.36,26.36,0,0,1-.62,2.77Z"/><path d="M107.1,43.2a5.09,5.09,0,0,1,1.9,3.35c.14,1.32-.39,2.65,0,3.77a14.11,14.11,0,0,0,.86,1.6,3.14,3.14,0,0,1,.48,2.08c-.45,1.66-1.88,2-2.4,3.08l-.09,0c0-1.42,1.48-2.32,1.51-3.23.2-.91-.73-2-.87-3.41-.06-.69.11-1.31.11-1.93a5.71,5.71,0,0,0-.37-1.79,22,22,0,0,0-1.2-3.44Z"/><path d="M60.76,48.77a5.88,5.88,0,0,1,.94-4.25c.9-1.23,1.83-2.2,2.76-3.32a9,9,0,0,1,1.68-1.45,4,4,0,0,1,1-.48.58.58,0,0,1,.64.3,2.24,2.24,0,0,1,.2.54c.42,1.39.68,2.81,1.07,4.17a9.55,9.55,0,0,0,1.82,3.66c.87,1,2.13,2,2.66,3.54s.27,3,.41,4.35a11,11,0,0,0,1.16,4l-.08,0a9.18,9.18,0,0,1-1.81-4,29.93,29.93,0,0,0-.59-4.13,13.93,13.93,0,0,0-2.43-3.31A8.52,8.52,0,0,1,68.6,44.4a23.09,23.09,0,0,0-.88-4.19c-.1-.34-.26-.67-.44-.57a4.87,4.87,0,0,0-.84.53,9.24,9.24,0,0,0-1.39,1.53c-.45.54-.86,1.14-1.36,1.67s-1,1-1.41,1.57a6.76,6.76,0,0,0-1.42,3.82Z"/><path d="M63.85,42.58a16,16,0,0,1-.65-2.39,12.3,12.3,0,0,1-.27-2.43,13.33,13.33,0,0,0-.14-2.45c-.11-.81-.36-1.59-.53-2.39l-.2-.93.8.59a16,16,0,0,1,2.93,2.59,7,7,0,0,1,1.69,3.56l-.09,0a14.63,14.63,0,0,0-2.31-2.95c-.87-.89-1.77-1.77-2.69-2.67l.6-.33c0,.82,0,1.65.1,2.46a13.41,13.41,0,0,0,.5,2.41A12.41,12.41,0,0,1,64,40.1a15.67,15.67,0,0,1,0,2.47Z"/><path d="M67.36,39.45c-.44-2.6-.83-5.2-1.21-7.8s-.76-5.21-1.07-7.82l-1-7.83c-.36-2.6-.79-5.2-1.3-7.78l.34.11c-.75.63-1.6.38-2.3.45s-1.4.18-1.45.8a38.29,38.29,0,0,0,.49,4.33c.39,2.94,1,5.85,1.46,8.79a100,100,0,0,1,2,17.77h-.1c-.58-5.93-1.84-11.73-2.87-17.6-.56-2.93-1-5.89-1.34-8.85a32.15,32.15,0,0,1-.26-4.56,1.35,1.35,0,0,1,.85-1,3.07,3.07,0,0,1,1.21-.16c.74,0,1.56.17,2-.21l.29-.25.06.35c.38,2.61.8,5.2,1.27,7.8s1,5.17,1.38,7.77.68,5.22,1,7.84.47,5.25.6,7.88Z"/><path d="M93.38,6.32a7.59,7.59,0,0,0,2.46-.87,2.84,2.84,0,0,0,.48-.33c.05-.14.06,0,0-.09a3.66,3.66,0,0,0-1.16-.23c-.81-.09-1.79,0-2.08.48a5.33,5.33,0,0,0,0,2.34c.41,3.5,1.78,6.85,2.94,10.22s1.85,6.92,2.67,10.36c.43,1.72.86,3.43,1.41,5.11a20.24,20.24,0,0,1,1.23,5.23h-.09a29.85,29.85,0,0,0-1.83-5,37.41,37.41,0,0,1-1.66-5.13c-.89-3.48-1.41-7-2.22-10.45s-2.4-6.68-3.21-10.23c-.09-.45-.15-.9-.21-1.35a2.29,2.29,0,0,1,.22-1.56,2,2,0,0,1,1.43-.78,5.24,5.24,0,0,1,1.43,0,3.33,3.33,0,0,1,1.41.42.67.67,0,0,1,.33.46.61.61,0,0,1-.22.54,3,3,0,0,1-.65.38,6.37,6.37,0,0,1-2.67.53Z"/><path d="M97.73,7a42.1,42.1,0,0,0,1.72,6.62c.3,1.11.58,2.23.93,3.34l1.12,3.3a16.22,16.22,0,0,1,.4,7,66.67,66.67,0,0,1-1.05,6.85h-.1a64.14,64.14,0,0,1,.16-6.94,23.73,23.73,0,0,0,.09-6.78,17.57,17.57,0,0,0-.91-3.32c-.41-1.08-.94-2.11-1.38-3.19A14.18,14.18,0,0,1,97.63,7Z"/><path d="M102.17,23.27c.59,1.72,1.11,3.42,1.52,5.16.17.88.3,1.78.54,2.65a20.9,20.9,0,0,0,.91,2.55,35.32,35.32,0,0,1,1.74,5.14,23,23,0,0,1,.53,5.43h-.09c-.59-1.73-.89-3.48-1.41-5.19s-.89-3.47-1.26-5.24a26.5,26.5,0,0,0-.71-2.61c-.3-.85-.69-1.67-1-2.53a16.45,16.45,0,0,1-.87-5.36Z"/><path d="M64.18,64.38a3.55,3.55,0,0,1,.94-2.18c.3-.27.65-.49.94-.75a6.65,6.65,0,0,0,.77-.9,5,5,0,0,1,4.1-2.2l0,.09a22.69,22.69,0,0,1-3.79,2.49,3.28,3.28,0,0,0-.89.72,7.13,7.13,0,0,0-.54,1,7.53,7.53,0,0,1-1.48,1.75Z"/><path d="M73.09,66.19c.25,0,.49,0,.71,0s.21,0,.18,0,0,0,0-.15a3.24,3.24,0,0,1,.89-1.16,5.74,5.74,0,0,1,2.57-1.41A26.38,26.38,0,0,0,80.14,63a23.39,23.39,0,0,0,2.6-.77l.06.07a4.66,4.66,0,0,1-2.4,1.66,6.07,6.07,0,0,1-2.9,0,1.48,1.48,0,0,0-1.23.28,5.79,5.79,0,0,0-.78,1.15c-.32.41-.57.63-.85,1a1,1,0,0,1-.44.34.85.85,0,0,1-.51-.06,2.93,2.93,0,0,1-.63-.4Z"/><path d="M79.05,71.53c1.29-.5,2.52-.91,3.77-1.32a10.89,10.89,0,0,0,1.9-.64,6.87,6.87,0,0,0,1.6-1.19c1.9-1.89,3.42-4,5.34-5.95l.08,0a12,12,0,0,1-5.11,6.31c-.59.35-1.19.68-1.76,1s-1.14.79-1.76,1.11a7.94,7.94,0,0,1-4,.68Z"/><path d="M82.4,75.63c1-1,2-2,3-2.88A15.84,15.84,0,0,0,87,71.39a9,9,0,0,0,1.2-1.72c1.32-2.47,2.4-4.91,3.62-7.48l.1,0A12.47,12.47,0,0,1,88.63,70c-.48.53-.95,1.06-1.38,1.62s-.82,1.17-1.28,1.72a9.29,9.29,0,0,1-3.52,2.4Z"/><path d="M88.93,77.37a27.77,27.77,0,0,1,2.12-1.88,7.24,7.24,0,0,0,1.13-.87,3.74,3.74,0,0,0,.75-1.2c.75-1.78,1.34-3.43,2.25-5.21h.09a7,7,0,0,1-1.9,5.48c-.34.37-.66.73-1,1.12s-.51.85-.83,1.24A4.36,4.36,0,0,1,89,77.45Z"/><path d="M49.49,74.3a3.48,3.48,0,0,1,.81,1.6,3.17,3.17,0,0,0,.15.87,1.64,1.64,0,0,0,.58.65,2.7,2.7,0,0,1,.72.64,2.31,2.31,0,0,1,.42.87c.17.65.06,1.11.52,1.53l0,.1a1,1,0,0,1-1-.41,3.1,3.1,0,0,1-.44-.84,6.69,6.69,0,0,0-.24-.78c-.11-.23-.24-.5-.37-.79a5.47,5.47,0,0,0-.45-.82c-.18-.25-.43-.47-.61-.75a2.5,2.5,0,0,1-.17-1.85Z"/><path d="M53.61,74.4a3.17,3.17,0,0,1,1.51,1.66c.12.36.15.76.25,1.11a6.09,6.09,0,0,0,.45,1c.19.32.36.63.53.88s.46.46.46.42a2.69,2.69,0,0,0,.87-.07c.35,0,.89-.1,1.19.27l0,.08c-.71,0-1,.71-2.16.71-.74-.17-.87-.61-1.09-1a3,3,0,0,1-.24-1.15,2.69,2.69,0,0,0-.24-1,5.6,5.6,0,0,0-.66-.86,6.77,6.77,0,0,1-.89-2Z"/><path d="M111.48,76.74a4,4,0,0,1,1.88-.76,8.46,8.46,0,0,0,1,0,2.9,2.9,0,0,0,.93-.38,7.28,7.28,0,0,1,3.8-1.24l0,.08a5.24,5.24,0,0,1-3.68,1.65,3.29,3.29,0,0,0-1,.19c-.32.12-.6.34-.92.49a3.36,3.36,0,0,1-2,.09Z"/><path d="M113.51,81.38c.12-.37.31-.55.56-.56a1.67,1.67,0,0,0,.41.11.44.44,0,0,0,.3-.21.93.93,0,0,1,1.42-.28l0,.09a.94.94,0,0,1-1.28.67.43.43,0,0,0-.37,0c-.1.07-.17.24-.26.34s-.45.13-.78-.09Z"/><path d="M95.66,53.55a8.82,8.82,0,0,1,3.14-.83,14.78,14.78,0,0,0,1.63,0,6,6,0,0,0,1.55-.42l2.94-1.16a6.94,6.94,0,0,0,2.61-1.56l.08,0a3.92,3.92,0,0,1-2.3,2.44,10.06,10.06,0,0,1-3.22.74,12.46,12.46,0,0,0-1.61.22c-.53.13-1,.35-1.56.5a9.5,9.5,0,0,1-3.24.16Z"/><path d="M97.18,47.88A7.54,7.54,0,0,1,100,48a11.39,11.39,0,0,0,1.33.4,4.43,4.43,0,0,0,1.36,0c1.84-.3,3.47-.55,5.36-.8l0,.09a6.12,6.12,0,0,1-5.41,1.22,8.15,8.15,0,0,0-1.38-.18c-.46,0-.94.07-1.41.08A6.29,6.29,0,0,1,97.16,48Z"/><path d="M83.17,47a12.8,12.8,0,0,1,2.42-.82,6.69,6.69,0,0,0,1.26-.25,3.67,3.67,0,0,0,1.07-.7c1.26-1.2,2.31-2.32,3.66-3.51l.09,0a5.44,5.44,0,0,1-3.47,3.9,8.87,8.87,0,0,0-1.21.54c-.39.22-.75.51-1.15.72a4,4,0,0,1-2.66.17Z"/><path d="M84.78,41.89a3.91,3.91,0,0,1,1.58-1,5.43,5.43,0,0,0,.91-.18,2.46,2.46,0,0,0,.73-.55A8,8,0,0,1,90.88,38l.07.06a3.86,3.86,0,0,1-2.67,2.59,3.51,3.51,0,0,0-.86.38c-.26.18-.48.44-.74.63a2.52,2.52,0,0,1-1.87.32Z"/><path d="M87,37.11a1.46,1.46,0,0,1,.88-.89,4.29,4.29,0,0,0,.64-.09,1.1,1.1,0,0,0,.47-.39,2.32,2.32,0,0,1,2.2-1l0,.08a2.3,2.3,0,0,1-2,1.37,1.22,1.22,0,0,0-.58.2,4.09,4.09,0,0,0-.4.51,1.46,1.46,0,0,1-1.22.29Z"/><path d="M61.89,54.85a2.36,2.36,0,0,1,1.29-.66,3.65,3.65,0,0,0,.74,0,1.46,1.46,0,0,0,.61-.38A4.38,4.38,0,0,1,67,52.37l.06.07a2.6,2.6,0,0,1-2.29,1.82,2.4,2.4,0,0,0-.72.2c-.21.12-.4.34-.61.48a1.76,1.76,0,0,1-1.52,0Z"/><path d="M50.3,68.69a2.16,2.16,0,0,1-.42-1.82c.1-.31.29-.59.38-.88a3.42,3.42,0,0,0,.18-.91,3,3,0,0,1,2.31-2.78l.06.07a15.17,15.17,0,0,1-1.89,2.89,1.87,1.87,0,0,0-.36.8,4.31,4.31,0,0,0,.09.88,4.7,4.7,0,0,1-.26,1.73Z"/><path d="M95.29,80.45a15.62,15.62,0,0,1,2.82-.73,9,9,0,0,0,1.45-.19,4.66,4.66,0,0,0,1.3-.65c1.6-1.13,3-2.23,4.74-3.31l.07.06a7.08,7.08,0,0,1-4.59,3.72,13.12,13.12,0,0,0-1.42.47c-.46.19-.89.47-1.37.66a5.11,5.11,0,0,1-3,.06Z"/><path d="M54.48,72.2c.54.65,1,1.2,1.4,1.81a4.32,4.32,0,0,0,.66,1,2.52,2.52,0,0,1,.8,1,2.43,2.43,0,0,1,0,1.32,2.42,2.42,0,0,0,0,.9c0,.17.18.33.56.67a1.75,1.75,0,0,1,.49,1.23l-.1,0a2.47,2.47,0,0,0-.84-.68c-.14-.08-.33-.15-.55-.28a1.34,1.34,0,0,1-.52-.7,2.13,2.13,0,0,1,.18-1.43,5.76,5.76,0,0,0,.36-1,1,1,0,0,0-.49-.88,10.36,10.36,0,0,1-1.05-.68,2.92,2.92,0,0,1-.9-2.29Z"/><path d="M66.43,81.53a27,27,0,0,1,2.7.63,2.91,2.91,0,0,0,1.32.2,3.74,3.74,0,0,1,.76,0,2.85,2.85,0,0,1,.75.22c.5.2.73.21,1,0a6.28,6.28,0,0,1,1.25-.77,4.43,4.43,0,0,1,1.54,0,5.8,5.8,0,0,0,1.36-.08l.05.08a2.67,2.67,0,0,1-1.35.73c-.55.11-1,.06-1.27.16s-.68.41-1.22.63a1.4,1.4,0,0,1-1,0A1.92,1.92,0,0,1,71.7,83c-.64-.82-1.64,0-2.69,0a4.25,4.25,0,0,1-2.62-1.33Z"/><path d="M46.3,76.54c.33.06.45.12.41.2a.44.44,0,0,0-.15.22s.08,0,.14,0,0-.25-.05-.19.13.09.45.1l.08,0a.44.44,0,0,1,0,.69.49.49,0,0,1-.75-.19c0-.12-.06-.2-.13-.24a3.09,3.09,0,0,1-.34-.1c-.14-.14-.07-.32.21-.49Z"/><path d="M45.33,74.46c.3.11.42,0,.33,0a.64.64,0,0,0-.22.1s0,0,.11,0,.16-.18.14-.2-.14.13-.11.43v.1c-.06.29-.25.37-.37.35a.26.26,0,0,1-.06-.37c0-.08.07-.13,0-.14s-.18,0-.26,0,0-.26.33-.24Z"/><path d="M50.18,73.7c.29.16.41,0,.33.07a.48.48,0,0,0-.18.16s.06,0,.12,0c.34-.23.32-.29.31.34l0,.09c-.31.5-.64.32-.6,0,0-.1,0-.17,0-.19s-.21,0-.3-.05,0-.41.3-.4Z"/><path d="M52.36,76.41c.27.22.35.32.28.37s-.2.08-.22.14.06.09.15.07c.33-.12.4-.15.47.5l0,.09c-.23.24-.41.28-.58.24a.53.53,0,0,1-.27-.52.41.41,0,0,0,0-.28c-.06-.06-.21-.14-.27-.24s.08-.36.41-.39Z"/><path d="M61.9,77.85c.33-.1.52,0,.56.15s-.08.25-.07.34.08.14.18.21a.57.57,0,0,1,.16.69.5.5,0,0,1-.76.12l0-.09a.47.47,0,0,0-.13-.44s.09,0,.25-.17.09-.15,0-.19-.21,0-.29,0-.12-.21,0-.52Z"/><path d="M60.92,75.35c.31,0,.43,0,.36,0l-.22.1s0,0,.11,0c.34,0,.39,0-.16.24l-.09,0c-.58.06-.56,0-.25-.14.07,0,.12-.07.09-.08h-.24c-.09,0,0-.07.31-.17Z"/><path d="M64.14,76.73c.31-.17.54-.09.59.1s-.06.26,0,.34.09.12.2.17c.45.15.57.7,0,1h-.09c-.56-.33-.54-.37-.33-.75,0-.08.06-.17,0-.21a.75.75,0,0,0-.3,0c-.14,0-.11-.17,0-.51Z"/><path d="M63.71,81.14c.24-.21.31-.29.31-.2a.86.86,0,0,0,0,.24s.06,0,.11-.07c.21-.28.18-.32.25.27v.09c-.16.58-.42.49-.43.12,0-.09,0-.14-.06-.13s-.13.12-.2.16-.13-.12,0-.4Z"/><path d="M46.09,61.66a3.29,3.29,0,0,1-.33,1.47,1.31,1.31,0,0,0-.28.65,1.47,1.47,0,0,0,.29.71,1.45,1.45,0,0,1,.21.9c0,.29,0,.47,0,.64,0,.36.18,1.13-.32,1.6l-.09,0c-.12-.54-.45-.8-.58-1.45a1.91,1.91,0,0,1,.12-.9,2.61,2.61,0,0,0,.16-.64c.07-.51-.24-1-.26-1.68a1.74,1.74,0,0,1,1-1.32Z"/><path d="M42.59,59.05A7.68,7.68,0,0,1,42.67,61a2.22,2.22,0,0,0,0,1,2.42,2.42,0,0,1,.14,1.13c-.06.41-.24.72-.27.94s0,.55-.08.94a1.58,1.58,0,0,1-.69,1c-.13.11-.24.14-.3.23a.31.31,0,0,0,0,.35l0,.08c-.54-.11-.38-.91-.14-1.16a1.15,1.15,0,0,0,.23-.7,4.18,4.18,0,0,1,.23-1,3.24,3.24,0,0,1,.63-.86.77.77,0,0,0,.05-.84,4.81,4.81,0,0,1-.49-1,2.51,2.51,0,0,1,.61-2Z"/><path d="M47.78,65.35c.32.13.43.16.37.19s-.16.13-.15.18.08,0,.1-.08,0-.21,0-.29.19,0,.51.14l.07.06a.59.59,0,0,1,0,.64.45.45,0,0,1-.61,0c-.1-.09-.16-.16-.25-.18a.83.83,0,0,1-.38-.1c-.18-.19-.08-.42.24-.53Z"/><path d="M48.73,63c0-.32.17-.44.27-.34a1.14,1.14,0,0,1,.08.27s.08,0,.17,0a.3.3,0,0,1,.41.06c0,.13,0,.33-.28.46l-.1,0c-.3,0-.4.08-.43.11a.48.48,0,0,0,.13-.21c0-.08,0-.14,0-.12s-.09.15-.11.22,0,0-.11-.34Z"/><path d="M50.55,61.28c-.32,0-.42,0-.34,0h.13c-.33,0-.37,0,.21,0h.09c.58,0,.55,0,.21,0H51c.07,0,0,0-.35,0Z"/><path d="M50.31,55.55c.13.36.17.56,0,.75s-.28.14-.35.24a.56.56,0,0,0,0,.39.93.93,0,0,1-.33.84.76.76,0,0,1-1-.06v-.09c.19-.32.24-.48.32-.61a2,2,0,0,1,.52-.3.42.42,0,0,0,.23-.28,2.53,2.53,0,0,0-.1-.42.62.62,0,0,1,.65-.52Z"/><path d="M48.56,54c0,.38.06.5-.11.66a1.51,1.51,0,0,0-.35.2.56.56,0,0,0-.06.37.93.93,0,0,1-.3.8.81.81,0,0,1-.41.15c-.15,0-.52,0-.55-.26l.08-.05c.13-.09,0-.22.07-.3a1.36,1.36,0,0,1,.13-.27,1.45,1.45,0,0,1,.53-.3.37.37,0,0,0,.23-.26c0-.12-.07-.28-.07-.42a.57.57,0,0,1,.76-.4Z"/><path d="M45.5,53.41c.32,0,.37-.18.3-.12a.43.43,0,0,0-.12.2s0,0,0-.1-.08-.23-.1-.21,0,.19.32.28l.09,0a.36.36,0,0,1,.08.55.32.32,0,0,1-.45-.15c-.05-.08-.07-.15-.13-.14a1.06,1.06,0,0,1-.27.09c-.16,0-.17-.29.13-.43Z"/><path d="M53.92,65.3c.32.1.42-.08.32-.09a.38.38,0,0,0-.21.1s0,0,.06-.08.06-.25,0-.26-.18.18,0,.44l0,.08c.12.28,0,.45-.17.47s-.21-.14-.16-.32,0-.14,0-.14a.64.64,0,0,1-.26,0c-.12,0,0-.29.3-.25Z"/><path d="M52.73,67.59c.23-.21.31-.28.26-.22l-.15.18.08-.06c.25-.22.29-.23-.1.19l-.07.07c-.43.39-.41.35-.19.1l.06-.08-.18.15c-.06,0,0,0,.22-.26Z"/><path d="M62.42,64.81c.32,0,.37-.18.28-.15a.5.5,0,0,0-.16.17s0,0,0-.1-.11-.23-.15-.2,0,.22.27.33l.09,0a.33.33,0,0,1,.1.51.28.28,0,0,1-.39-.17c0-.09-.05-.15-.09-.14s-.17.1-.26.1-.13-.28.18-.38Z"/><path d="M62.12,62.31c.26-.19.35-.24.31-.17a2,2,0,0,0-.15.19s0,0,.1,0c.29-.18.35-.17-.05.25l-.07.06c-.47.35-.48.28-.26,0,0-.07.08-.11,0-.1s-.15.09-.21.12,0,0,.21-.28Z"/><path d="M60,64.11c.32,0,.42.07.35.1a2.08,2.08,0,0,0-.24.06s0,0,.1,0c.33.06.37.13-.21.21h-.09c-.58-.07-.54-.14-.21-.21.08,0,.13,0,.11,0l-.24-.06c-.08,0,0-.06.34-.1Z"/><path d="M61.34,67c.13.29.17.39.12.32l-.12-.21s0,0,0,.11c.13.3.13.35-.15-.16l0-.09c-.24-.52-.2-.5,0-.21,0,.07.06.11.06.08l-.09-.22c0-.07,0,0,.18.29Z"/><path d="M57.58,43.47A5.78,5.78,0,0,1,58.16,46c0,.44-.12.89-.11,1.32a5.14,5.14,0,0,0,.23,1.28,10.08,10.08,0,0,1,.28,5.17h-.1a10,10,0,0,1-.69-5.12,5.65,5.65,0,0,0,0-1.3c-.08-.42-.25-.83-.36-1.25a6,6,0,0,1,.1-2.62Z"/><path d="M58.78,40.43a15.58,15.58,0,0,1,.62,4.27c0,.72-.11,1.44-.1,2.16A15.57,15.57,0,0,0,59.54,49a22.2,22.2,0,0,1,.36,4.31c0,1.47-.38,2.86-.52,4.28l-.09,0a16.28,16.28,0,0,1-.38-4.31c0-1.41,0-2.84.12-4.27a14,14,0,0,0,0-2.15c-.08-.72-.26-1.42-.38-2.13a16,16,0,0,1,.07-4.31Z"/><path d="M55.25,52.12a2.55,2.55,0,0,1,.25,1.82c-.1.29-.28.57-.36.86a3,3,0,0,0-.07.9A3.86,3.86,0,0,1,53.7,59l-.08,0a6.55,6.55,0,0,1,1-3.39,2.18,2.18,0,0,0,.27-.84,6.7,6.7,0,0,0-.11-.9,3.39,3.39,0,0,1,.43-1.73Z"/><path d="M57.11,55.9A1.16,1.16,0,0,1,57.22,57a4.81,4.81,0,0,0-.34.49,1.06,1.06,0,0,0,0,.56,1.93,1.93,0,0,1-.64,2.09l-.09,0A1.93,1.93,0,0,1,56.37,58a.92.92,0,0,0,.21-.5,2.75,2.75,0,0,0-.12-.57,1.25,1.25,0,0,1,.55-1Z"/><path d="M62.81,27.74a2.88,2.88,0,0,1,.68,1.64c0,.3-.09.6-.07.89a2.27,2.27,0,0,0,.28.83,4.66,4.66,0,0,1,.48,3.45l-.1,0a4.65,4.65,0,0,1-.89-3.37,2.3,2.3,0,0,0-.06-.87c-.1-.28-.29-.54-.41-.81a2.82,2.82,0,0,1,0-1.77Z"/><path d="M63.93,26.41a4.65,4.65,0,0,1,.64,2.14,10.8,10.8,0,0,0,0,1.13,3.43,3.43,0,0,0,.3,1.07,8.28,8.28,0,0,1,.79,4.35l-.09,0a6.68,6.68,0,0,1-1.2-4.28,4.63,4.63,0,0,0-.1-1.12c-.1-.36-.29-.7-.42-1.06a4.2,4.2,0,0,1,0-2.25Z"/><path d="M73.73,36.52A14.55,14.55,0,0,1,75,41.16c.06.8,0,1.61.1,2.41a21.16,21.16,0,0,0,.35,2.37,28.27,28.27,0,0,1,.31,9.58H75.7A40.78,40.78,0,0,1,75,46a14.69,14.69,0,0,0-.15-2.39c-.13-.78-.37-1.55-.56-2.32a32.34,32.34,0,0,1-.62-4.74Z"/><path d="M76.51,46.89a6.52,6.52,0,0,1,.7,2.94c0,.51-.12,1-.12,1.51a6.3,6.3,0,0,0,.21,1.49,24.31,24.31,0,0,1,.72,5.9l-.09,0a9.17,9.17,0,0,1-1.14-5.89,6.83,6.83,0,0,0,0-1.5c-.07-.5-.24-1-.35-1.47a10,10,0,0,1,0-3Z"/><path d="M77.7,44a1.6,1.6,0,0,1,.49,1.21,3.33,3.33,0,0,0-.16.66,1.29,1.29,0,0,0,.17.62A2.51,2.51,0,0,1,78.29,49H78.2a2.52,2.52,0,0,1-.51-2.48,1.17,1.17,0,0,0,0-.64,4.87,4.87,0,0,0-.31-.6A1.62,1.62,0,0,1,77.6,44Z"/><path d="M78.86,52.23a1.26,1.26,0,0,1,.5,1,3.27,3.27,0,0,0-.16.57,1,1,0,0,0,.18.52,1.94,1.94,0,0,1,.12,2.19l-.1,0a2,2,0,0,1-.52-2.13,1.07,1.07,0,0,0,0-.56,3.49,3.49,0,0,0-.32-.5,1.22,1.22,0,0,1,.18-1.13Z"/><path d="M76.1,36.33a1.83,1.83,0,0,1,.81,1.17,5.88,5.88,0,0,0,0,.73,1.76,1.76,0,0,0,.34.61,3,3,0,0,1,.78,2.66l-.09,0A3,3,0,0,1,76.79,39a1.53,1.53,0,0,0-.14-.68c-.12-.2-.33-.37-.47-.57A1.86,1.86,0,0,1,76,36.36Z"/><path d="M65.57,2.69a3.7,3.7,0,0,1,.87,1.87c0,.34,0,.71,0,1.05a3.08,3.08,0,0,0,.37.95,6.26,6.26,0,0,1,.9,4l-.1,0A6.24,6.24,0,0,1,66.37,6.7a3.75,3.75,0,0,0-.17-1c-.13-.32-.35-.61-.51-.92a4,4,0,0,1-.22-2.06Z"/><path d="M68.57,9.72a1.29,1.29,0,0,1,.56,1,3.09,3.09,0,0,0-.12.59,1.1,1.1,0,0,0,.21.53,2,2,0,0,1,.24,2.24l-.09,0A2,2,0,0,1,68.72,12a1.1,1.1,0,0,0,0-.57,4.91,4.91,0,0,0-.34-.5,1.3,1.3,0,0,1,.11-1.17Z"/><path d="M60.66,11.26a4.19,4.19,0,0,1,.47,2.22c-.05.38-.18.76-.21,1.13A4.3,4.3,0,0,0,61,15.73a6.68,6.68,0,0,1-.43,4.46h-.09a8.5,8.5,0,0,1,0-4.45,3.56,3.56,0,0,0,.11-1.12c0-.37-.19-.73-.27-1.1a4.94,4.94,0,0,1,.21-2.24Z"/><path d="M61.93,15.11a4,4,0,0,1,.38,2.29c-.07.38-.23.76-.28,1.14a5,5,0,0,0,0,1.16A9.2,9.2,0,0,1,62,22c-.14.74-.31,1.43-.51,2.21h-.09A4.16,4.16,0,0,1,61,21.87a11.31,11.31,0,0,1,.53-2.23,3.3,3.3,0,0,0,.19-1.12,9,9,0,0,0-.19-1.14,5.48,5.48,0,0,1,.31-2.27Z"/><path d="M93.81,7.32c0,.14-.15.14-.19,0a.18.18,0,0,1,.17-.17c.1,0,.1,0,.15-.06L94.17,7a.72.72,0,0,1,.41,0,1.18,1.18,0,0,0,.45.19.52.52,0,0,0,.4-.2A2,2,0,0,1,97,6.12l.08,0a1.22,1.22,0,0,1-1.46,1.3,1.24,1.24,0,0,0-.51,0c-.15.07-.31.22-.48.29a.74.74,0,0,1-.88-.44Z"/><path d="M94.91,8.52c0-.37.2-.55.43-.57s.29.09.4.07.18-.11.24-.22c.23-.51.36-.61,1.06-.6l.07,0a.75.75,0,0,1-.9,1,.37.37,0,0,0-.33,0c-.09.07-.12.24-.19.34s-.39.15-.73,0Z"/><path d="M94.56,9.86c.24-.27.35-.36.49-.28s.14.2.22.23.16,0,.21-.13c.24-.39.34-.47.93-.17l0,.08c.06.69-.47.87-.88.59-.11-.06-.2-.1-.28-.06s-.17.17-.27.24-.41-.07-.49-.41Z"/><path d="M99.84,20.92a4.6,4.6,0,0,1,.44,2.74c-.09.46-.26.9-.34,1.35a6.26,6.26,0,0,0,0,1.37,22.08,22.08,0,0,1-.35,5.38h-.09a7.39,7.39,0,0,1-.07-5.45A5.56,5.56,0,0,0,99.64,25a12.51,12.51,0,0,0-.13-1.36,11.8,11.8,0,0,1,.23-2.68Z"/><path d="M98.53,21.11a2.51,2.51,0,0,1,.29,1.67c-.08.27-.22.55-.27.82a2.4,2.4,0,0,0,.08.84,4.27,4.27,0,0,1-.32,3.31h-.1a4.24,4.24,0,0,1-.09-3.33,2.18,2.18,0,0,0,.13-.83,6.45,6.45,0,0,0-.21-.84,2.6,2.6,0,0,1,.4-1.65Z"/><path d="M104.32,32.09a9.78,9.78,0,0,1,.26,3,4.79,4.79,0,0,0,.11,1.45,7.52,7.52,0,0,0,.63,1.39,9.89,9.89,0,0,1,.94,2.94c.14,1,.21,2,.26,3l-.09,0A7.91,7.91,0,0,1,105.28,41c-.18-1-.3-2-.45-2.95a6.68,6.68,0,0,0-.42-1.45,7.79,7.79,0,0,1-.61-1.48,7,7,0,0,1,.42-3.07Z"/><path d="M103.36,30.53a6,6,0,0,1,.06,3A13.21,13.21,0,0,0,103,35a4.33,4.33,0,0,0,.06,1.48c.4,1.92,1,3.83.76,5.94l-.09,0a16.06,16.06,0,0,1-1-2.87,9.55,9.55,0,0,1-.17-3.07c.06-.51.13-1,.15-1.52s-.07-1-.07-1.54a11.24,11.24,0,0,1,.61-2.94Z"/><path d="M54.57,22.88c.32.24.43.48.35.73a1.81,1.81,0,0,0-.23.36.45.45,0,0,0,.11.37,1,1,0,0,1-.2,1.46h-.09a1,1,0,0,1-.23-1.46.46.46,0,0,0,.1-.36c0-.13-.17-.25-.24-.37s0-.49.34-.73Z"/><path d="M54.87,28.13a1.29,1.29,0,0,1,.48,1.06,4.17,4.17,0,0,0-.18.57,1.07,1.07,0,0,0,.17.53,2,2,0,0,1,0,2.21H55.3a2,2,0,0,1-.47-2.16,1,1,0,0,0,0-.56,3.56,3.56,0,0,0-.3-.53,1.22,1.22,0,0,1,.21-1.12Z"/><path d="M56.23,30.76a1.47,1.47,0,0,1,.43,1.3c-.07.22-.21.44-.26.65a1.69,1.69,0,0,0,0,.67,2.2,2.2,0,0,1-.94,2.46l-.08,0a3.33,3.33,0,0,1,.52-2.49,1.29,1.29,0,0,0,.17-.62,3,3,0,0,0-.22-.63,1.88,1.88,0,0,1,.25-1.29Z"/><path d="M61.54,54.86a5.37,5.37,0,0,1,.85-1.34,5.3,5.3,0,0,0,1.35-1.05c.38-.47.76-.79,1.08-1.15s.74-.65,1.23-1l.08,0A2.34,2.34,0,0,1,65.54,52a3.15,3.15,0,0,1-1.48.87,1.78,1.78,0,0,0-.72.38A2.92,2.92,0,0,0,63,54a1.72,1.72,0,0,1-1.43,1Z"/><path d="M65,55.7a.76.76,0,0,1-.46.89c-.18,0-.38,0-.53,0a1,1,0,0,0-.41.26c-.3.24-.55.36-.55.4s-.27.18-.58.44h-.1a.87.87,0,0,1,0-1.18,1,1,0,0,1,1.1-.16.42.42,0,0,0,.41,0c.11-.08.16-.27.23-.4s.39-.26.82-.3Z"/><path d="M64.29,58.32c.3-.14.37-.22.34-.13a2.3,2.3,0,0,0-.08.25s0,0,.06-.09-.2-.23-.28-.06.22.34.38.06l.05-.08c.3-.21.58.21.47.45s-.53.34-.65.14-.1-.15-.16-.15-.17.09-.25.11-.16-.21,0-.45Z"/><path d="M66.23,56.61c.25.21.41.12.32.08a.63.63,0,0,0-.24,0s0,0,.09-.05.1-.25,0-.26-.17.14-.06.43l0,.09c0,.3-.15.43-.29.42a.27.27,0,0,1-.14-.39c0-.08.08-.13,0-.15a.73.73,0,0,1-.25-.11c-.08-.11.1-.28.39-.13Z"/><path d="M66.58,59.09c.11.15.19.2.25.21s.09,0,0,0L66.43,59c0,.14.13.26.15.15s0-.26,0-.29.06,0,.44.15l.07.07c.22.36.1.62-.11.58s-.23-.09-.32-.17-.12.06-.2.21l-.37-.34a.16.16,0,0,1,0-.27.34.34,0,0,1,.38,0Z"/><path d="M68.47,56.85c.13-.31,0-.42.13-.37s.17.13.23.11-.06-.08,0,.12.17.24.08.32a2.58,2.58,0,0,1-.5-.21l-.07-.07a.53.53,0,0,1,.11-.61.52.52,0,0,1,.74.21c.12.29-.1.35-.1.44a1.56,1.56,0,0,1,0,.35c-.12.18-.44.13-.56-.2Z"/><path d="M64.28,48.64c.08-.32,0-.43.08-.35a.84.84,0,0,0,.14.22s0,0,0-.1-.29.06-.2.21.39,0,.26-.29l0-.08c0-.36.48-.37.63-.16s0,.62-.23.61-.17,0-.2.06,0,.19-.06.27-.29,0-.34-.29Z"/><path d="M65.56,46.84c.32,0,.39-.15.35-.07a.65.65,0,0,0-.11.22s.07,0,.13,0c.24-.25.3-.28.31.32l0,.09c-.28.53-.51.43-.53,0,0-.09,0-.16-.06-.16s-.18.08-.28.08-.16-.27.12-.45Z"/><path d="M67.26,48c-.28.19-.12.4-.1.3a.28.28,0,0,0,0-.23s0,0,.07.06.27-.05.25-.09-.23,0-.35.24l0,.08a.34.34,0,0,1-.56,0,.36.36,0,0,1,.28-.46c.11,0,.18,0,.21-.06s0-.2.13-.28.44.14.23.43Z"/><path d="M68.65,50.07c0,.33.23.36.19.27a.4.4,0,0,0-.18-.15s0,0,.1,0,.25,0,.23-.08-.22-.09-.4.16l-.06.07c-.24.2-.45.1-.51,0s0-.26.24-.28.15,0,.13-.05a1.76,1.76,0,0,1-.12-.24c0-.13.27-.14.37.18Z"/><path d="M70.16,64.51c.32.09.43,0,.33.08s-.2.07-.2.13,0,0,0-.1-.29-.09-.25-.17a2.9,2.9,0,0,1,.5,0l.08,0c.24.19.28.34.26.46a.46.46,0,0,1-.59.14c-.11-.09-.13-.17-.2-.18a.92.92,0,0,1-.32-.07c-.11-.1,0-.33.28-.39Z"/><path d="M71.85,63.39c.31,0,.42,0,.36,0l-.22.11s0,0,.12,0c.34,0,.39,0-.14.26l-.09,0c-.58.09-.56,0-.26-.15.07,0,.11-.07.08-.08a2.18,2.18,0,0,0-.24,0c-.09,0,0-.08.3-.2Z"/><path d="M72.78,65.09c-.11.26,0,.35,0,.33A.21.21,0,0,0,73,65.2c0-.07-.09-.22-.24-.18s0-.12,0-.14,0-.07,0-.09a.76.76,0,0,0,0-.14s.06.1.35.31l0,.07c.16.32.07.53-.07.56a.7.7,0,0,1-.23-.08.73.73,0,0,1-.11-.09c-.09,0-.11-.12-.17-.16s-.26-.19-.25-.3a.33.33,0,0,1,.23-.32.3.3,0,0,1,.31.36Z"/><path d="M74.26,63.3c0,.2,0,.3,0,.35s0,0,0-.1,0-.18,0-.13,0,.1,0,.25L74,62.86c0-.12,0-.08,0,0s.08.14.19.38l0,.08a2.23,2.23,0,0,1,.12.41s0,.09,0,0l-.17-.81a1.05,1.05,0,0,0,0,.25s0,0,0-.12,0-.16,0-.11a2.89,2.89,0,0,1,0,.35Z"/><path d="M78.25,66.87l.76-.08a1.23,1.23,0,0,0,.55-.27c.44-.28.87-.49,1.26-.72A4.43,4.43,0,0,0,82,65a5.19,5.19,0,0,0,.83-1.26,4.16,4.16,0,0,1,2.37-2.14,22.85,22.85,0,0,0,2.81-1l.07.07a5.14,5.14,0,0,1-2.48,1.87A6.21,6.21,0,0,0,83.28,64a14,14,0,0,0-1,1.16,8.23,8.23,0,0,1-1,1.25,4.22,4.22,0,0,1-1.4.74,1.51,1.51,0,0,1-.9.11,3.14,3.14,0,0,1-.75-.32Z"/><path d="M83.23,61c.27-.23.28-.36.39-.29s.17.16.24.15.07-.12,0-.17-.13.13-.12.19.06.1,0,.08.05-.06.1-.19a.13.13,0,0,0-.25-.06l0,.08c-.23.05-.37-.29-.25-.51a.66.66,0,0,1,.58-.31.79.79,0,0,1,.48.27c.18.12.16.56,0,.63s-.24.14-.31.23a2.15,2.15,0,0,1-.23.36.42.42,0,0,1-.62-.37Z"/><path d="M85.34,59.78c.29-.12.41-.11.35,0l-.21.13s0,0,.11,0c.34,0,.41.12-.15.23h-.1c-.59,0-.55,0-.24-.1.07,0,.12-.06.09-.06L85,60c-.07,0,0,0,.3-.2Z"/><path d="M80.8,64.48c.29.12.38.19.3.2l-.25,0s0,0,.09.08c.3.16.31.24-.26.13l-.09,0c-.53-.24-.48-.29-.14-.26.08,0,.14,0,.11,0l-.21-.11c-.06-.06.05-.06.36,0Z"/><path d="M77.16,68.73a.49.49,0,0,1,.33,0,.19.19,0,0,1,.06.07s0-.07-.06-.08-.25.1-.25.15,0,0-.1-.08-.18-.22-.16-.3.07.06.14.06.29.07.27-.12v-.09c.09-.21.41,0,.46.06a.47.47,0,0,1,.11.33c0,.12-.13.21-.33.25a.47.47,0,0,0-.24.16.44.44,0,0,1-.49.08.3.3,0,0,1-.14-.2.15.15,0,0,1,0-.07,1.49,1.49,0,0,1,.27-.23Z"/><path d="M79.4,68c.2.24.3.29.22.27a.85.85,0,0,0-.22-.08s0,0,.08.08c.31.16.35,0-.22.19h-.09c-.6,0-.54-.34-.18-.35.08,0,.14,0,.13,0S79,67.9,79,67.84s.12-.13.39,0Z"/><path d="M81,67.73c.21-.23.2-.37.16-.3a.63.63,0,0,0-.08.23s0,0,0-.11c0-.35-.28-.29.08.19l.06.07c.29.53-.09.62-.16.26,0-.08,0-.14,0-.11s-.09.15-.14.2-.14-.1,0-.36Z"/><path d="M81.14,67.36c.22.23.29.31.23.26l-.18-.16.07.08c.22.25.24.28-.18-.12L81,67.36c-.4-.42-.37-.41-.12-.18l.08.07-.16-.18c0-.06,0,0,.26.23Z"/><path d="M83.72,71c.28.16.36.25.26.29l-.13-.44c-.18,0-.15.29-.14.18s-.13-.23-.19-.19-.11,0,0,0a2.13,2.13,0,0,0,.41,0H84c.23.07.32.14.37.24s0,.23-.14.29-.33,0-.42,0-.16.15-.41.14L83.25,71c-.06-.08.06-.11.38-.07Z"/><path d="M84.49,68.82l.07.38.1-.71c-.13.19-.13.21-.13.25s.17-.15.22-.18.1-.08.07,0a3.91,3.91,0,0,1-.23.36l-.06.07a1.36,1.36,0,0,1-.31.29c-.06,0,0,0,0-.07a2.54,2.54,0,0,0,.14-.25s-.06,0-.22.18l.09-.71.24.3Z"/><path d="M85.66,69.87c.12.33.23.37.12.34s-.18-.1-.22-.07,0,0,.07,0a.2.2,0,0,0-.19-.25.55.55,0,0,1,.46.23l0,.08c0,.33.1.44,0,.54a.47.47,0,0,1-.69-.24c0-.15,0-.23,0-.3a.69.69,0,0,1-.15-.31c0-.16.26-.24.51,0Z"/><path d="M86.7,68.26c.1-.25.13-.32.16-.34s0,0,0,.28l-.18.08-.24-.13c-.12-.06-.07-.05,0-.05l.41.13.08,0a3.56,3.56,0,0,1,.39.19s.07,0-.06,0l-.27-.07-.13,0,0,.12c-.08.23-.11.26-.12.25a1.05,1.05,0,0,1,.07-.37Z"/><path d="M78,76.91c.09-.32-.1-.41-.09-.31a.36.36,0,0,0,.14.19s0,0-.1,0-.1.3,0,.32.2-.15.06-.43l0-.08a.33.33,0,0,1,.36-.42.37.37,0,0,1,.15.53c-.07.11-.13.13-.13.19s.06.2,0,.3S78,77.33,78,77Z"/><path d="M76,75.9c.14-.28.19-.38.17-.3l-.07.23s0,0,.06-.09c.15-.3.19-.32,0,.22l0,.08c-.25.53-.26.48-.16.17,0-.08,0-.13,0-.11l-.11.22c-.05.06,0,0,.1-.33Z"/><path d="M75.71,77.73a1.67,1.67,0,0,1,0,.38s0,0-.07-.27l.09-.26a1.35,1.35,0,0,1,.28-.22s0,.11-.25.38l-.06.07c-.24.24-.34.32-.35.3a1.24,1.24,0,0,1,.19-.31l.08-.12v-.13c0-.24,0-.28,0-.28a1.06,1.06,0,0,1,.07.37Z"/><path d="M73.54,77.45a1.54,1.54,0,0,1,0,.43c.09,0-.17-.11-.22,0s.16,0,.09-.15a.34.34,0,0,1,0-.26l1.2-2.63-.29,3c0,.13-.14.24-.37.53l-.08,0a.63.63,0,0,1-.55-.64l.91.32a.89.89,0,0,1-.52.29,1.78,1.78,0,0,1-.64-.21c-.25-.06-.47-.49-.25-.69a.55.55,0,0,1,.63-.07Z"/><path d="M76.19,78.22c.33,0,.45,0,.39.07a1.75,1.75,0,0,0-.2.16s.05,0,.13,0,.17,0,.19,0,0-.1,0-.11a.7.7,0,0,0-.24.07c-.06.06-.12.24,0,.3l.08,0c.13.13,0,.33-.12.39a.41.41,0,0,1-.39,0,.34.34,0,0,1-.13-.25c0-.08,0-.12.11-.2s.11-.11.07-.13-.18,0-.26,0,0-.16.26-.29Z"/><path d="M72.58,79.49a5.28,5.28,0,0,1,1.94,1,2.53,2.53,0,0,0,.92.51,1.78,1.78,0,0,0,1-.21,1.78,1.78,0,0,1,1.32-.1,4,4,0,0,1,1,.61,5.19,5.19,0,0,0,1.82.92v.09a2.48,2.48,0,0,1-2.41-.19c-.7-.53-.88-.82-1.68-.82a12.18,12.18,0,0,1-2.39-.1,3.77,3.77,0,0,1-1.67-1.61Z"/><path d="M84.31,76.82c.06.47,0,.73-.2.92s-.12.09-.17,0-.12,0,0,0a.31.31,0,0,0,.36-.12,1.2,1.2,0,0,0,.2-.49s.1,0,.12,0-.09-.23-.21-.4l0-.09a.64.64,0,0,1,.65-.08.78.78,0,0,1,.4.8,1,1,0,0,1-1,.8c-.21,0-.38-.06-.57-.07a.47.47,0,0,1-.42-.2.87.87,0,0,1,0-.45,1,1,0,0,1,.83-.65Z"/><path d="M86.66,75c.15.3.08.51,0,.49s-.21,0-.24,0,0,.05.1,0,0-.2.16-.25.29.06.5.3l0,.09a.85.85,0,0,1-.31.59.56.56,0,0,1-.67-.32,1.87,1.87,0,0,1-.1-.39.76.76,0,0,1-.12-.41c.09-.26.25-.23.59-.14Z"/><path d="M88.22,76.06c.08.26.16.3.18.32s0,0,0,0-.09-.13-.24-.12c0,0,0-.13,0-.15l0-.1a.27.27,0,0,0,0-.13.86.86,0,0,0,.43.18l.08,0c.26.26.17.57,0,.65a.65.65,0,0,1-.31,0,.51.51,0,0,1-.15-.07c-.09,0-.16-.15-.2-.19a.36.36,0,0,1-.26-.31.25.25,0,0,1,0-.21.33.33,0,0,1,.48.06Z"/><path d="M89.61,73c.31.14.42.15.33.21s-.21.08-.22.13.06,0,.1,0-.13-.26-.14-.22.13.1.42.21l.08.06c.17.25.17.44,0,.59s-.61.07-.66-.22c0-.12,0-.2-.08-.24s-.22-.09-.28-.14,0-.31.35-.36Z"/><path d="M91.22,72.14a.92.92,0,0,1,.21-.31s.1,0,.12.09l-.31.1c.08.2.19.11.08.15s-.12.28.1.28.33-.17.25-.25a.19.19,0,0,0-.35,0l0,.09c-.22.15-.45-.09-.47-.28a.43.43,0,0,1,.47-.48.34.34,0,0,1,.38.43c0,.14.07.19.06.47l-.3.1c-.08.12-.11.09-.15,0a.77.77,0,0,1-.06-.35Z"/><path d="M96.43,83.78a.6.6,0,0,1,.28.75c-.08,0-.2.1-.18.2s.18.07.09,0-.07-.08-.09-.1,0,0,0-.09a1.42,1.42,0,0,1,0-.24s.26-.07.14-.42v-.1c.39-.32.91.22.85.62a.81.81,0,0,1-.17.44c-.08.1-.24.36-.52.37s-.4-.2-.51-.28a.87.87,0,0,1-.36-.46c0-.38.15-.4.41-.64Z"/><path d="M97.14,87.34c.06.26,0,.36,0,.41s-.11,0-.27-.17l.06-.23a.2.2,0,0,0,0-.33c-.07,0-.15.27.21.34l.09,0a.34.34,0,0,1-.13.62.56.56,0,0,1-.31-.15.36.36,0,0,1-.1-.32l.06-.23c0-.23,0-.3,0-.31s.14,0,.31.26Z"/><path d="M97.76,82.26c.37-.08.58.2.54.32s-.14.19-.14.25.11.06.17,0-.4-.18-.27.17c.11.16.24,0,.1-.32l0-.09c.17-.32.65-.34.87.11a.6.6,0,0,1-.29.72.42.42,0,0,1-.57-.11,1.82,1.82,0,0,0-.22-.28c-.1-.06-.26-.1-.36-.17s0-.21.12-.52Z"/><path d="M91.38,86.14c.22.31.43-.08.29,0a.31.31,0,0,0-.18.15s0,0,0-.1-.09-.22-.07-.23a3.85,3.85,0,0,0,.4.26l.06.06c.15.26.16.41.07.53a.37.37,0,0,1-.47-.11c-.09-.08-.12-.15-.18-.16a.75.75,0,0,1-.33,0c-.21-.08,0-.64.34-.42Z"/><path d="M90.85,84.32c.28.14.41.07.33.06a.56.56,0,0,0-.24,0s0,0,.11,0,.19-.15.16-.18-.17.08-.23.38l0,.09c-.13.27-.31.3-.41.27s-.09-.21,0-.34.1-.1.07-.12a2,2,0,0,1-.25-.07c-.09-.08,0-.22.36-.14Z"/><path d="M93.58,87c.06.32.23.35.17.29a.48.48,0,0,0-.2-.12s0,0,.09.06.24,0,.23,0-.2,0-.38.2l-.07.07c-.26.17-.46.07-.52,0s0-.27.24-.31.14,0,.13-.08-.11-.15-.12-.24.25-.17.4.12Z"/><path d="M89,87.52c.1.33.32.33.16.26s-.23,0-.21,0,.1,0,.19,0l-.52-.15c0-.13,0-.23.06-.24a.82.82,0,0,1,.43.22l.06.08a.74.74,0,0,1,.11.47c0,.07-.12,0-.25,0L88.49,88c.06-.11.14-.18.15-.23s-.11-.13-.16-.24.23-.34.46-.08Z"/><path d="M93.14,78.11a2.86,2.86,0,0,0,2.47.06A3.49,3.49,0,0,1,97.16,78c.5,0,1,.1,1.46.1a2.63,2.63,0,0,0,1.19-.25,2.92,2.92,0,0,0,.48-.41,1.58,1.58,0,0,1,.88-.38,6.82,6.82,0,0,1,1.5,0c.24,0,.49.07.72.09l0,0a.13.13,0,0,0-.1.08c-.06,0,0,.2,0,.23l0,0s0,0,0,0l-.15-.15c-.13-.09-.16-.38,0-.46l.08,0c0,.13,0,.14.13.17l.16,0s0,0,.08,0l0,0a.26.26,0,0,1,0,.26.31.31,0,0,1-.14.1l-.13,0c-.26.06-.49.12-.73.16l-1.37.25a.78.78,0,0,0-.44.16,3.29,3.29,0,0,1-.7.43,2.24,2.24,0,0,1-1.64,0,4.19,4.19,0,0,0-1.4-.3,2.23,2.23,0,0,0-1.21.57,2,2,0,0,1-2.87-.71Z"/><path d="M94.76,75.78a.25.25,0,0,0,.15.31c.06,0,0,0,.12,0a.43.43,0,0,0,.39.15.15.15,0,0,0,0-.28c-.32-.12-.07.14-.11.07s-.09-.13-.1,0a.31.31,0,0,0,.23.31l.05.08a.55.55,0,0,1-.76.17.77.77,0,0,1-.29-1,.87.87,0,0,1,1-.44.68.68,0,0,1,.53.77.87.87,0,0,1-.4.62,1.21,1.21,0,0,1-.65.36.7.7,0,0,1-.7-.59c0-.31.2-.69.5-.61Z"/><path d="M97.52,76.39c.2-.26.11-.41.09-.32a.5.5,0,0,0,0,.23s0,0,0-.11-.16-.17-.19-.14.11.18.42.14H98c.3,0,.37.28.33.41a.26.26,0,0,1-.39,0c-.08,0-.13-.08-.15,0a1,1,0,0,1-.1.26c-.11.09-.3-.08-.17-.39Z"/><path d="M96.1,73c.06.34.29.27.18.27s-.2,0-.22.08.06,0,.1,0,0-.25,0-.22.06.23.37.14h.1c.33.14.24.57,0,.72a.5.5,0,0,1-.72-.21,2.63,2.63,0,0,0-.11-.29c-.06-.06-.22-.14-.27-.26a.32.32,0,0,1,.55-.29Z"/><path d="M98.76,74.17a.48.48,0,0,0,.15.32c.07,0-.07-.09-.19-.11s0,.07.1.07.15,0,.18-.06l-.74-.23c.06-.06.19,0,.45.24l.05.08c.13.32.13.47.06.5l-.73.27v-.5a.33.33,0,0,1,.14-.33c.12-.08.23-.09.17-.19s-.17-.3,0-.33a.34.34,0,0,1,.39.18Z"/><path d="M92.35,67.68a.66.66,0,0,0,.36.06c.07,0-.12.08-.14.2l-.17,0c.08,0,.1-.07.07-.18s0-.16,0-.21.13,0,.51,0l.09,0c.3.24.3.56.11.66a.39.39,0,0,1-.34,0c-.14,0-.24-.09-.28,0l-.18,0c-.13,0-.41,0-.39-.17s.06-.31.31-.37Z"/><path d="M92.7,64.27c.24.29.41.3.27.21s-.12.17-.09.21,0-.07,0-.16a2.36,2.36,0,0,0-.19-.32s.24-.08.09-.37l0-.09c.21-.38.77-.18.89.18a.62.62,0,0,1-.28.74c-.11.07-.17.18-.31.29a.61.61,0,0,1-.59.09.43.43,0,0,1,.18-.8Z"/><path d="M93.62,61.44a1.8,1.8,0,0,1,.95,1.39c0,.29-.08.58-.08.86a2.89,2.89,0,0,0,.18.8,3.36,3.36,0,0,1-.44,3.18h-.1a4.72,4.72,0,0,1,0-3.15,1.6,1.6,0,0,0,0-.78,3.48,3.48,0,0,0-.38-.71,3.64,3.64,0,0,1-.26-1.53Z"/><path d="M108.76,88.35a1.32,1.32,0,0,1,.79.67,2.44,2.44,0,0,0,.11.55,1.07,1.07,0,0,0,.39.37,1.54,1.54,0,0,1,.71.94,1.07,1.07,0,0,1-.49,1.15l-.08,0c-.16-.42-.3-.61-.4-.87a5.82,5.82,0,0,1-.16-.91.85.85,0,0,0-.21-.47c-.13-.11-.35-.16-.5-.27a1,1,0,0,1-.25-1.1Z"/><path d="M111.2,91.12a1.44,1.44,0,0,1-.06-1.05,2.2,2.2,0,0,0,.27-.47.77.77,0,0,0-.13-.5,2.52,2.52,0,0,1-.55-1.93l.07-.06a1.47,1.47,0,0,1,1,1.93,1.41,1.41,0,0,0-.08.56c0,.18.16.38.2.58a1,1,0,0,1-.62,1Z"/><path d="M112.86,91.36a3,3,0,0,1,.14-1,.5.5,0,0,0,.07-.5c-.08-.2-.27-.27-.4-.54a1.66,1.66,0,0,1,.08-1.4c.16-.33.39-.47.45-.93l.08-.06c.56.23.53,1,.39,1.38s-.37.62-.5.91c-.07.14,0,.36.17.51a1.19,1.19,0,0,1,.44.63,1,1,0,0,1-.85,1.11Z"/><path d="M115.14,87a2.93,2.93,0,0,1,1.07,1.47,8.93,8.93,0,0,0,.17.9,2.26,2.26,0,0,0,.47.75l.59.57a5.27,5.27,0,0,0,.62.38,16.6,16.6,0,0,0,1.43.9l0,.09a2.27,2.27,0,0,1-3.11-1.7,2.74,2.74,0,0,0-.3-.86c-.16-.25-.41-.46-.59-.7a2.8,2.8,0,0,1-.45-1.76Z"/><path d="M117.73,85.72a7.46,7.46,0,0,0,2-.47,2.67,2.67,0,0,0,1-.47,5.1,5.1,0,0,1,1.12-.49,4.23,4.23,0,0,0,1.37-1.49,3.09,3.09,0,0,1,2-1.37l0,.08a10.86,10.86,0,0,0-1.21,1.87A2.82,2.82,0,0,1,122,84.8c-.42,0-.78,0-1,.22a4.93,4.93,0,0,1-.83.92,2.09,2.09,0,0,1-2.44-.13Z"/><path d="M118.72,87c.58.35,1,.64,1.32.84a.81.81,0,0,0,.67.22c.25-.07.4-.32.53-.59a1.76,1.76,0,0,1,1.74-1,7.53,7.53,0,0,1,1.72.47l0,.09a3.19,3.19,0,0,1-1.75.44,2,2,0,0,0-1.35.32,2.71,2.71,0,0,1-1.83.77,1.56,1.56,0,0,1-1.15-1.53Z"/><path d="M116.7,83.63c.22.07.31,0,.34,0s-.06,0-.07.15.1.1.07,0-.1-.18-.14-.15V84c-.07.17.25,0,0-.34l0-.08a.44.44,0,0,1,.86,0l.07.34-.06.09a.44.44,0,0,1-.48.16.38.38,0,0,0-.38,0c-.17.1-.41.07-.45-.11a.34.34,0,0,1,.19-.46Z"/><path d="M100.18,63.64a11.34,11.34,0,0,0,2.85-.59,2.38,2.38,0,0,0,1.09-.9c.28-.44.46-.94.81-1.41a6.18,6.18,0,0,1,2.8-1.61,6.38,6.38,0,0,0,2.55-1.47l.08,0a3.7,3.7,0,0,1-2.24,2.36,16.37,16.37,0,0,0-2.82,1,3.29,3.29,0,0,0-.92,1.2,3.46,3.46,0,0,1-.95,1.42,3.32,3.32,0,0,1-3.26,0Z"/><path d="M104.65,63.24c.33.2.5.28.43.3s-.07.21,0,.21a.08.08,0,0,0,0-.15c-.17,0-.17.29.07.16.24-.32-.25-.29-.11,0v.09c-.35.36-1.1-.35-.46-1a.65.65,0,0,1,1,.74,1.25,1.25,0,0,1-.4.35.64.64,0,0,1-.61.15.53.53,0,0,1-.07-.93Z"/><path d="M107.29,61.75c.25.18.3.27.26.34a.72.72,0,0,1-.23,0c-.1,0-.09,0-.07.09l0-.19a.37.37,0,0,0,.14-.19s0-.09,0-.09,0,.18.21.38l.06.07a.37.37,0,0,1-.28.55.45.45,0,0,1-.26-.14.55.55,0,0,1-.1-.32l0-.19s.07,0,0-.12-.15-.13-.16-.17.11-.11.42-.07Z"/><path d="M107.12,64.87c.11.31.23.4.09.35s-.22-.07-.24,0,0,.09.14.13l-.2-.37c.08-.11.09-.19.11-.15a2.23,2.23,0,0,0,.22.4l0,.09a.44.44,0,0,1-.24.49.33.33,0,0,1-.34-.23l-.2-.37c.12,0,.2-.07.22-.11s-.07-.16-.1-.26.2-.23.45,0Z"/><path d="M109.46,62.24c.33,0,.37-.18.3-.12a.39.39,0,0,0-.1.22s0,0,0-.1-.17-.2-.18-.16.11.19.41.09l.09,0a.37.37,0,0,1,.3.52.38.38,0,0,1-.55.07c-.09-.07-.13-.12-.19-.11a.86.86,0,0,1-.3.11c-.18,0-.23-.36.08-.49Z"/><path d="M111.48,59.89c.32,0,.43,0,.37.08s-.18.11-.21.14,0,0,.12.06c.35,0,.42.14-.11.39l-.1,0c-.59,0-.58-.09-.28-.28.07,0,.11-.09.08-.11a1.56,1.56,0,0,0-.25,0c-.09,0,0-.12.29-.25Z"/><path d="M103.41,66.24a9,9,0,0,0,3.7.19,4.73,4.73,0,0,0,1.82-.45,3.49,3.49,0,0,0,1.33-1.31,5.7,5.7,0,0,1,.53-.88,2.06,2.06,0,0,1,1-.65,6,6,0,0,0,1.58-.86,6.91,6.91,0,0,0,2.3-2.86h.09a4.63,4.63,0,0,1-1.78,3.64,5,5,0,0,1-1.9.9,1.78,1.78,0,0,0-.72.33c-.19.17-.4.43-.65.68a10,10,0,0,1-1.59,1.26,7.18,7.18,0,0,1-1.82,1,4.19,4.19,0,0,1-3.9-.88Z"/><path d="M107.05,73.16c1.23,0,2.37.21,3.44.15a3.09,3.09,0,0,0,1.61-.39,7.81,7.81,0,0,0,1.31-1.21,3.4,3.4,0,0,1,1.65-1c.67-.15,1.24-.14,1.73-.27a17.86,17.86,0,0,0,3.2-1.27l.06.08a6.2,6.2,0,0,1-3,2.16,10.49,10.49,0,0,1-1.8.17,4.09,4.09,0,0,0-1.5.57,14.2,14.2,0,0,0-1.46,1.06,4.31,4.31,0,0,1-1.67.91,5.12,5.12,0,0,1-3.58-.83Z"/><path d="M111.16,74.53a13.16,13.16,0,0,0,2.48-.8,4.12,4.12,0,0,0,1.09-.77,5.57,5.57,0,0,1,1.1-1,8.16,8.16,0,0,1,1.31-.56,2.15,2.15,0,0,0,.89-.68l.88-1a1.92,1.92,0,0,1,1.34-.71l0,.09c-.74.57-.83,1.45-1.48,2.3a2.46,2.46,0,0,1-1.39.88c-.5.13-1,.12-1.38.2a1.8,1.8,0,0,0-1.08.72,6.82,6.82,0,0,1-.87,1.2,3,3,0,0,1-2.92.25Z"/><path d="M117.58,72.76c.35.11.41-.05.41.06s0,.22.05.26.12,0,.12-.11-.13-.21-.11-.24a.5.5,0,0,0,.34-.32l.07-.07a.52.52,0,0,1,.57.59.6.6,0,0,1-.67.5,1.81,1.81,0,0,0-.36-.05,1.11,1.11,0,0,1-.41.11.4.4,0,0,1-.1-.72Z"/><path d="M110.18,79.21a8.13,8.13,0,0,0,2.24-.6c.71-.27,1.27-.73,2.06-1.1a4.73,4.73,0,0,1,2.51-.2,2.91,2.91,0,0,0,2.16-.5c.27-.24.48-.57.81-.87a1.87,1.87,0,0,1,1.38-.55,1.13,1.13,0,0,1,.86.49,1.09,1.09,0,0,1,0,1,3,3,0,0,1-.76,1.17,8.73,8.73,0,0,1-2.12,1.34,20.71,20.71,0,0,1-2.2,1l-.05-.08c1.15-1.11,2.64-2,3.66-2.94a2.87,2.87,0,0,0,.56-.81c.08-.16.06-.25.08-.17s0-.07-.15-.07c-.51-.11-1.07.47-1.81,1a4.53,4.53,0,0,1-2.45.39,3.64,3.64,0,0,0-2.15.59,7.32,7.32,0,0,1-2.18,1.1,4.74,4.74,0,0,1-2.48,0Z"/><path d="M113.92,82.66c0-.35-.15-.45,0-.36s.23.07.21,0-.1-.12-.18-.14l.6.3c0,.09.13.11.08.09a.62.62,0,0,0-.41.13l-.1,0a.43.43,0,0,1-.42-.41.41.41,0,0,1,.37-.37l1.05-.19-.45.49c-.09.09-.23.13-.26.19s0,.16,0,.3-.32.3-.53,0Z"/><path d="M116.35,79.12c.12-.29.17-.39.17-.31s0,.2,0,.24,0,0,.07-.09c.15-.3.2-.32.06.24l0,.09c-.23.53-.26.48-.19.16,0-.08,0-.14,0-.11l-.11.21c0,.07,0,0,0-.34Z"/><path d="M118.11,81.13c0,.2.22.17.27.12s.1-.13,0-.18-.26,0-.24.08,0,0,0-.11,0-.24.09-.28a.38.38,0,0,1,.36.44l0,.08c-.17.27,0,.4,0,.44a.49.49,0,0,1-.29-.17c-.07-.07-.11-.12-.18-.11a.36.36,0,0,1-.39,0,.28.28,0,0,1,0-.38c.08-.12.39-.2.43,0Z"/><path d="M120.42,80l.34,0h-.24s0,0,.11,0c.33,0,.37,0-.21,0h-.1c-.57,0-.54,0-.2,0,.08,0,.13,0,.1,0H120l.34,0Z"/><path d="M104.8,79.17c.31-.07.38-.13.4-.08a1.07,1.07,0,0,0,0,.24c0,.08.06.06.1,0l-.21.11a.75.75,0,0,0-.17-.18s-.08-.07-.07-.09.15-.1.4-.31l.09,0c.33,0,.5.2.51.37a.52.52,0,0,1-.12.26.78.78,0,0,1-.29.14l-.21.11c-.06-.06-.1-.11-.19-.07a.65.65,0,0,1-.29.09c-.14-.07-.21-.29,0-.53Z"/><path d="M105.43,77.83a.48.48,0,0,0,.33-.15c0-.07,0,.11,0,.22s.12-.05,0-.15-.1-.11-.15-.09l.91.34c-.08.14-.27.2-.64.14l-.08,0c-.19-.32-.21-.52-.11-.64l1.8-2.13-.89,2.47a.56.56,0,0,1-.4.39c-.2,0-.32,0-.43.09s-.35.28-.48.13a.36.36,0,0,1,0-.53Z"/><path d="M103.09,74.85c.33,0,.39-.14.33-.07a.3.3,0,0,0-.08.22s.06,0,.06-.09-.13-.21-.14-.19.13.16.43.06h.09a.39.39,0,0,1,.27.57.42.42,0,0,1-.59.08c-.1-.07-.14-.13-.21-.13s-.2.11-.32.09-.25-.38.07-.53Z"/><path d="M103,72.82c.23-.21.32-.27.28-.2l-.15.18s0,0,.1,0c.26-.2.32-.2-.06.23l-.07.07c-.44.38-.44.33-.23.06,0-.06.08-.1,0-.09l-.19.15c-.07,0,0,0,.2-.29Z"/><path d="M101.34,75c.11-.32-.1-.37-.06-.33a.27.27,0,0,0,.21.08c.07,0,0,0,0,0l.29.08a.76.76,0,0,0,.08.23s0,.09,0,.1-.17,0-.48.12h-.09a.46.46,0,0,1-.32-.58c0-.09.15-.14.23-.19a.65.65,0,0,1,.34,0l.29,0v0a.38.38,0,0,0,0,.26.52.52,0,0,1,.08.36.33.33,0,0,1-.61-.08Z"/><path d="M100.7,76.78c.32,0,.42,0,.35,0l-.24,0s0,0,.1,0c.33,0,.37,0-.21.08h-.09c-.58,0-.54,0-.21-.08.08,0,.13,0,.1,0l-.23,0c-.08,0,0,0,.34,0Z"/><path d="M85.34,51.51c-.09-.31-.17-.37-.14-.43l.07.38s.15,0,.13-.11-.08-.11-.1-.06,0,.13,0,.16a.09.09,0,0,0,.13-.08l-.18-.27c.21,0,.23.13.41.56v.1c-.29.38-.73.37-.9.08l-.19-.27a.47.47,0,0,1,.21-.46,1,1,0,0,1,.34-.1c.11,0,.16-.06.29-.14a.4.4,0,0,1,.47.07l.13.15,0,.23a.41.41,0,0,1-.6.26Z"/><path d="M84.6,53.31c-.13.34.14.36,0,.33s-.21,0-.24,0,0,.07.1,0,0-.25,0-.23.07.26.38.14l.09,0c.35.16.21.65,0,.78a.55.55,0,0,1-.78-.31c0-.15,0-.26,0-.35a1,1,0,0,1-.15-.39.36.36,0,0,1,.68-.06Z"/><path d="M86.15,54.92a2.08,2.08,0,0,1,.17.37s-.06,0-.31,0h0l-.08-.16a.8.8,0,0,0,.26-.3s.08.11.39.31l.06.07a.43.43,0,0,1-.33.61.6.6,0,0,1-.5-.43l-.08-.16h0c-.21-.15-.2-.31-.13-.41s.24-.16.49,0Z"/><path d="M88.12,54.16c-.23-.23-.41-.23-.27,0s.21-.06.23-.09.07,0,.16,0a.71.71,0,0,1,.25,0,1,1,0,0,0-.36.3l-.07,0a.43.43,0,0,1-.56-.16c0-.17,0-.29.28-.45a.64.64,0,0,1,.35-.1.41.41,0,0,1,.42.05c.21.33,0,.51-.34.43Z"/><path d="M83.57,45.12c.05.36.42.14.26.06s-.24,0-.23,0,0,0,0-.1-.19-.17-.19-.15.15.06.45,0H84c.28.11.37.3.31.49a.43.43,0,0,1-.61.15c-.09-.07-.14-.13-.22-.14a.45.45,0,0,1-.39-.14c-.21-.26.26-.69.5-.34Z"/><path d="M81.86,42.92c.33,0,.42-.09.36,0a.37.37,0,0,0-.1.21s0,0,0-.09-.33,0-.24.19a.33.33,0,0,0,.44.07c.11-.09,0-.31-.13-.26l-.08,0c-.21,0-.2-.37,0-.48a.52.52,0,0,1,.68.2c.18.39-.15.77-.43.69s-.21-.07-.3-.06a1.14,1.14,0,0,1-.35.07c-.2-.07-.21-.33.07-.52Z"/><path d="M84.63,43.35a.64.64,0,0,0,.33.13c.07,0-.06,0-.2,0s-.07,0,0-.09-.07-.26-.26-.21l-.19.15c-.21.08,0,.39.34.13l.08-.06c.38-.16.63.3.34.47l-.18.15c-.24.08-.45-.09-.43-.24s0-.16-.11-.24-.24-.12-.15-.18.17-.11.37,0Z"/><path d="M86,44.5c.29.15.42,0,.33,0a.5.5,0,0,0-.22.09s0,0,.11,0,.16-.18.13-.19-.15.14-.06.43v.09c0,.31-.23.4-.37.39a.28.28,0,0,1-.11-.4c0-.08.06-.13,0-.15s-.19,0-.27-.06,0-.31.35-.26Z"/><path d="M94.4,47.24c.29.17.41,0,.31,0a.31.31,0,0,0-.18.15s0,0,0-.1-.18-.2-.22-.15.09.25.39.16l.09,0a.35.35,0,0,1,.26.53.37.37,0,0,1-.57,0c-.08-.09-.1-.16-.16-.17s-.21,0-.31,0-.07-.45.27-.41Z"/><path d="M99.3,46.73c-.26.15-.24.28-.22.28s0-.37,0-.24l.08-.21s.15-.09.17-.14a.12.12,0,0,0,0-.13s-.15.17.09.41l0,.07a.36.36,0,0,1-.4.49.45.45,0,0,1-.22-.23c0-.11,0-.27,0-.34v-.27l.09.06c.11.06.17-.29.36-.28s.28.23.1.48Z"/><path d="M96.15,51.33c.25-.14.15-.31.11-.32s0,.3.06.26-.23,0-.24.1a.14.14,0,0,0,.19.15h0l.4-.28-.47,0-.09,0-.3-.36h0l.41-.27h0a.47.47,0,0,1,.52.34c.06.21-.17.39-.21.48s0,.47-.25.45a.3.3,0,0,1-.25-.47Z"/><path d="M97.8,50.34c-.31,0-.42,0-.34,0h.24s0,0-.11,0c-.33,0-.37,0,.21,0h.1c.57,0,.54,0,.2,0-.08,0-.13,0-.1,0h.24c.08,0,0,0-.34,0Z"/><path d="M105.63,54c.26.19.34.26.27.22l-.21-.11s0,0,.08.07c.26.21.28.25-.22,0l-.08-.05c-.47-.35-.42-.35-.13-.18.07,0,.12.06.1,0l-.19-.15c-.06,0,0,0,.31.16Z"/><path d="M106.59,54.51a1.4,1.4,0,0,1,.12-.38s.17.33.15.21-.28-.06-.28,0a.13.13,0,0,0,0,.17.26.26,0,0,0,.31,0l.25-.63c-.22-.17-.38.1-.23.21l.08.05c.09.19-.2.45-.48.21l-.29-.25.55-.37a.44.44,0,0,1,.49.05.42.42,0,0,1,.15.35c0,.22-.24.38-.37.41s-.08.34-.22.38-.22-.06-.28-.35Z"/><path d="M107.28,51.87c.27.19.42,0,.31,0a.38.38,0,0,0-.21.1.18.18,0,0,0,0-.1c0-.19-.19-.23-.24-.17s0,.29.33.26h.1a.32.32,0,0,1,.2.52.34.34,0,0,1-.52-.1c0-.1,0-.16-.1-.18a.64.64,0,0,1-.3,0c-.15-.1,0-.42.33-.31Z"/><path d="M108.75,53.9c-.13.29-.09.41-.08.33a.75.75,0,0,0,0-.24s0,0,0,.11c.09.34.32.2-.21-.09l-.08,0c-.45-.4-.11-.64.12-.35,0,.07.08.11.11.08a.9.9,0,0,1,.07-.24c.07-.09.19,0,.13.36Z"/><path d="M103.1,47.26c.38,0,.18-.35.11-.15a.16.16,0,0,0,.23,0s0-.15-.1-.16-.12.14,0,.19a.15.15,0,0,0,.24,0c.18-.38-.32-.36-.17,0l0,.1c-.21.4-1,0-.61-.72a.62.62,0,0,1,.71-.18.45.45,0,0,1,.32.55,1.3,1.3,0,0,0-.11.36.69.69,0,0,1,0,.48c-.33.43-1-.1-.68-.46Z"/><path d="M104,45.33c.33,0,.4-.12.32-.08s-.16.13-.16.17,0,0,0-.09-.06-.24-.09-.22,0,.21.28.33l.08,0a.35.35,0,0,1,0,.55.31.31,0,0,1-.42-.2c0-.09,0-.16-.1-.16s-.19.08-.28.06-.13-.32.2-.4Z"/><path d="M105.56,46.81c.14.3.37.21.28.15a.34.34,0,0,0-.24,0s0,0,.08-.07,0-.28-.08-.26-.12.24.15.39l.08.05a.33.33,0,0,1-.14.55.34.34,0,0,1-.38-.37c0-.12,0-.17,0-.22a.69.69,0,0,1-.25-.17c-.07-.17.22-.37.46-.12Z"/><path d="M106.61,45.55c.15.29.35.22.27.17a.29.29,0,0,0-.23,0s0,0,.09,0,.07-.26,0-.27-.18.18,0,.43l0,.08a.33.33,0,0,1-.28.47.33.33,0,0,1-.23-.44c0-.09.08-.14,0-.18s-.17-.09-.22-.18.2-.31.44-.07Z"/><path d="M92.59,44.54c-.22-.25-.28-.37-.17-.41a1.2,1.2,0,0,0,.28,0s0-.09,0-.16c-.24-.3-.25-.41.36-.5l.09,0c.53.31.42.58,0,.66-.09,0-.16.05-.16.1s.12.17.15.25-.13.2-.45.12Z"/><path d="M94.71,43.54s0,.1.08.08h.09s.16-.15,0-.28a.33.33,0,0,0-.37,0c-.1.07-.1,0-.06.05a.48.48,0,0,0,.24,0s0,0-.11,0-.22.1-.21.11.16-.07.24-.37l0-.08c.17-.26.38-.25.49-.18a.27.27,0,0,1-.06.39c-.07.07-.12.11-.09.14s.17.09.23.16,0,.09-.11.21a.39.39,0,0,1-.44,0c-.2-.14-.08-.34,0-.32l.11,0c.07,0,.13.09.09.1Z"/><path d="M94.45,41.63c.35,0,.22-.34.19-.22a.25.25,0,0,0,0,.23s0,0,0-.09-.24,0-.23,0,.17,0,.34-.28l.06-.07a.41.41,0,0,1,.58.2.43.43,0,0,1-.34.49c-.13,0-.21,0-.26.06s-.11.21-.23.27-.52-.31-.21-.54Z"/><path d="M91.14,40.43c.12-.31-.1-.37-.1-.27l.55.49c.15-.19-.23-.23-.12-.13s.2-.14.17-.18-.07-.09,0,0a1.28,1.28,0,0,0,.46.08l.08,0a.54.54,0,0,1,0,.62.55.55,0,0,1-.66.14c-.26-.07-.36-.42-.35-.6s-.25-.45.14-.72l.68-.49-.14,1c0,.38-.56.52-.72.18Z"/><path d="M92.15,39c.25.2.38,0,.34,0s-.15,0-.21.07,0,0,0,0H92.1a.71.71,0,0,0-.18-.26.92.92,0,0,0,.45.07h.09c.29.13.36.34.3.45a.36.36,0,0,1-.46,0h-.17c0-.06,0-.11-.15-.09s-.24,0-.29-.09.07-.42.39-.31Z"/><path d="M93.2,37.2c.25.21.4.11.31.09a.42.42,0,0,0-.23,0s0,0,.1,0,.18-.17.14-.2-.2.1-.17.4v.1a.34.34,0,0,1-.41.32.25.25,0,0,1,0-.38c0-.07.09-.12.06-.14a.86.86,0,0,1-.26-.1c-.09-.1.09-.29.39-.15Z"/><path d="M115.19,64.54c.23.24.37.18.29.18a.37.37,0,0,0-.23,0s0,0,.11,0,.14-.19.12-.2-.11.16,0,.44l0,.09a.38.38,0,0,1-.39.42.35.35,0,0,1-.2-.45c0-.1.06-.16,0-.2s-.2-.07-.26-.15.1-.34.41-.22Z"/><path d="M116.08,66.42c-.12,0-.13.27.11.31h0l0-.73c-.11.2-.06.23,0,.26s0-.24,0-.28-.07-.11,0,0a.93.93,0,0,0,.35.23l.08,0a.43.43,0,0,1,.16.44c0,.12-.16.12-.26.11s-.24-.24-.3-.23a1,1,0,0,0-.32.2l-.53.43.52-1.17h0c.32,0,.41.26.34.39Z"/><path d="M116.64,63.86c.2.24.34.28.26.17s-.26-.07-.26,0,0,0-.07-.09-.2-.14-.18-.17a.92.92,0,0,0,.45,0h.1c.3.08.39.28.37.44a.44.44,0,0,1-.48.23c-.12,0-.2,0-.31-.06a.45.45,0,0,1-.4-.21c-.08-.28.14-.4.44-.29Z"/><path d="M115.93,61.51c.18-.26.23-.36.24-.27a.9.9,0,0,0,0,.24s.06,0,.08-.1c.11-.33,0-.35.32.17l0,.09c0,.6-.26.61-.38.26,0-.09-.06-.14-.09-.12s-.1.16-.16.21-.17-.08-.09-.39Z"/><path d="M118.07,61.8a2.67,2.67,0,0,0,.18.29A1.2,1.2,0,0,0,118,62s0,0,.07.09c.3.18.36,0-.22.13h-.09c-.61,0-.52-.4-.15-.36.09,0,.14,0,.13,0s-.1-.14-.13-.22.16-.11.37.13Z"/><path d="M118.45,64.84c-.26.23-.34.37-.31.2s0-.24,0-.22-.08.07-.12.15l.4-.31c.12,0,.17-.11.12-.12s-.2,0-.26.34l0,.09a.35.35,0,0,1-.53.1.34.34,0,0,1,0-.46l.39-.39,0,.08c0,.11,0,.22.07.24s.12-.08.2-.14.21.08.08.37Z"/><path d="M120.43,65.2c.14.34.45,0,.31,0a.3.3,0,0,0-.24,0,.21.21,0,0,0,0-.11c0-.18-.09-.25-.11-.23s0,.16.25.36l.06.07c.15.27.11.43,0,.51a.31.31,0,0,1-.39-.23c0-.1,0-.17-.09-.19s-.21,0-.29-.09.18-.54.42-.23Z"/><path d="M122,64.53c.28-.13.39-.16.33-.11l-.21.13s0,0,.11,0c.31-.12.36-.11-.15.18l-.08,0c-.54.23-.51.19-.23,0,.07,0,.11-.07.08-.07l-.22.09c-.08,0,0,0,.28-.2Z"/><path d="M119.31,67.89c.32.12.41-.19.29-.17a.36.36,0,0,0-.21.13.25.25,0,0,0,0-.11c.09-.36-.16-.38.09.18l0,.08c.14.58-.21.58-.23.24,0-.09,0-.15-.07-.14s-.16.09-.25.07-.09-.4.26-.32Z"/><path d="M121.51,66.45c.23.21.27.31.25.26a.42.42,0,0,0-.2-.1s0,0,0,0l-.14-.16c.09-.18.06-.26,0-.27a.9.9,0,0,0,.13.43l0,.09c0,.3,0,.45-.13.48s-.22-.11-.22-.32l-.13-.16c.06,0,.08-.08,0-.13a.58.58,0,0,1-.17-.21c0-.12.11-.09.39.05Z"/><path d="M123.42,66c0,.33.29.29.2.24a.34.34,0,0,0-.22-.06s0,0,.1,0c.33-.06.32-.15,0,.34l-.07.06c-.51.3-.68,0-.39-.31.07-.07.12-.11.1-.16s-.15-.13-.18-.23.3-.3.47,0Z"/><path d="M121.93,69.6c.29.12.4.15.32.15a.5.5,0,0,0-.23,0s0,0,.09,0,0-.32-.12-.29-.25.39.11.4h.09c.36.13.09.6-.1.6a.36.36,0,0,1-.39-.4c0-.1.06-.15,0-.18a1.8,1.8,0,0,1-.25-.12c-.08-.1,0-.18.36-.16Z"/><path d="M120.41,71.93c.3-.09.36-.2.31-.15a.92.92,0,0,0-.14.2s0,0,.09-.07c.2-.3,0-.35.15.22l0,.09c0,.61-.42.54-.39.16,0-.09,0-.15,0-.15a.77.77,0,0,1-.24.11c-.12,0-.11-.19.15-.37Z"/><path d="M116.47,68.27c.09.3.12.41.08.34l-.09-.23s0,0,0,.11c.09.32.08.36-.13-.18l0-.08c-.16-.56-.12-.53,0-.23,0,.08,0,.12,0,.1l-.06-.23c0-.08,0,0,.14.31Z"/><path d="M40.27,64a1,1,0,0,0,.37,0c.06,0,0,0-.14.1h-.39c.13.07.14,0,0-.06L40,63.89c-.06,0,0,0,0,0a1.92,1.92,0,0,0,.38-.1h.09a.51.51,0,0,1,.39.16.13.13,0,0,1,0,.22.32.32,0,0,1-.28.11c-.13,0-.17,0-.09.16h-.39c-.13,0-.26,0-.22-.12s.09-.2.28-.26Z"/><path d="M40,62.14c0-.31,0-.42,0-.34a1.63,1.63,0,0,0,.07.23s0,0,0-.11c-.09-.32-.21-.29.19.14l.05.07c.33.49.12.57-.06.28,0-.08-.07-.12-.08-.09s0,.18,0,.25-.11,0-.14-.33Z"/><path d="M41,59c.32.06.42.12.35.18a1.54,1.54,0,0,0-.24.09s0,.06.1.09c.34.12.37.23-.21.35h-.09c-.58-.12-.54-.23-.21-.35.08,0,.13-.06.1-.09a1.85,1.85,0,0,0-.23-.09c-.08-.06,0-.12.34-.18Z"/><path d="M40.8,54.65a1.89,1.89,0,0,1,.11,1.11.77.77,0,0,0-.11.5,2.71,2.71,0,0,0,.35.54.88.88,0,0,1,.06.83,2,2,0,0,1-1.39,1.23l-.08-.06a2.35,2.35,0,0,1,.34-1.2c.27-.37.46-.43.58-.67a.71.71,0,0,0-.13-.53,2.12,2.12,0,0,1-.39-.62,1.09,1.09,0,0,1,.57-1.16Z"/><path d="M46.79,73.05c.27.78.55,1.37.84,2a2.83,2.83,0,0,0,.51,1,7.44,7.44,0,0,0,1,.73,1.38,1.38,0,0,1,.44.56,1.45,1.45,0,0,1,.08.75c0,.2,0,.13.07.19l.35.33c.52.52,1.06,1,1.62,1.62l0,.09a4.3,4.3,0,0,1-2.24-1,2.79,2.79,0,0,1-.47-.49,1.12,1.12,0,0,1-.16-.91,1,1,0,0,0,0-.86,3.18,3.18,0,0,0-.78-.82,5.22,5.22,0,0,1-1-.8A2.42,2.42,0,0,1,46.69,73Z"/><path d="M50.78,61.3A8.46,8.46,0,0,1,50.05,63a1.55,1.55,0,0,0-.34.81,2.17,2.17,0,0,0,.37.91,1.89,1.89,0,0,1,.06,1.12,4.85,4.85,0,0,0-.11.84,4.26,4.26,0,0,0,.22,1.73l-.06.06A2,2,0,0,1,49,66.68c0-.86.48-1.36.54-1.85a11.91,11.91,0,0,1-.26-2.07,2.29,2.29,0,0,1,1.4-1.52Z"/><path d="M50.53,68.79A2.31,2.31,0,0,1,50.6,67a11.33,11.33,0,0,0,1.13-1.5c.32-.56.6-1,.91-1.45a5.76,5.76,0,0,1,1.25-1.27l.09,0a3.72,3.72,0,0,1-.51,1.78,3.61,3.61,0,0,1-1.36,1.25,1.52,1.52,0,0,0-.63.57,2.44,2.44,0,0,0-.15.84,3.82,3.82,0,0,1-.71,1.6Z"/><path d="M43.61,61.05a6.06,6.06,0,0,1,.26,1.82,3.22,3.22,0,0,0-.07.93,1.75,1.75,0,0,0,.4.82,3.74,3.74,0,0,1,.56.81,2.31,2.31,0,0,1,.23,1c0,.26,0,.3.16.54a2.13,2.13,0,0,1,.55.85l-.08,0c-.3-.15-.57-.16-.91-.32a1.28,1.28,0,0,1-.71-1,4.73,4.73,0,0,0-.07-.82,8.15,8.15,0,0,1-.2-.9,5.5,5.5,0,0,0-.22-.95c-.12-.3-.31-.6-.41-.92A2.29,2.29,0,0,1,43.52,61Z"/><path d="M47.05,53.1c.12.34.13.51,0,.61a1.06,1.06,0,0,0-.33.1c-.06.06-.05.16,0,.27.18.44.17.65-.44,1h-.09c-.56-.42-.4-.91.06-1.13.1-.06.19-.12.21-.22a3,3,0,0,0-.07-.37c0-.21.26-.33.62-.26Z"/><path d="M45.5,51.85a1.27,1.27,0,0,1,.2,1,2.42,2.42,0,0,0-.23.49.79.79,0,0,0,.16.48,2.18,2.18,0,0,1,.52,1.91l-.07,0a1.47,1.47,0,0,1-1-1.88,1,1,0,0,0,.05-.54c-.05-.17-.19-.35-.25-.54a1,1,0,0,1,.48-1Z"/><path d="M62.75,82A5.2,5.2,0,0,0,65,83.29a1.09,1.09,0,0,0,.59,0,1.36,1.36,0,0,1,.85,0,14,14,0,0,0,1.31.73,1.6,1.6,0,0,0,1.15.06c.19-.06.4-.18.69-.28a1.84,1.84,0,0,1,1,0c.58.16,1,.46,1.33.57a2.38,2.38,0,0,0,1.33,0l0,.08a1.91,1.91,0,0,1-1.48.62,10.52,10.52,0,0,1-1.45-.32c-.35-.09-.58,0-1.2.17a1.83,1.83,0,0,1-1.64-.47c-.39-.31-.75-.76-1.13-.88s-.69.51-1.37.54a2,2,0,0,1-1.56-.65,3.46,3.46,0,0,1-.77-1.35Z"/><path d="M63.19,79.25a4.44,4.44,0,0,0,1.52-.12A5.17,5.17,0,0,0,65.6,79a4.05,4.05,0,0,1,1-.26c.78,0,1.26.4,1.69.42a3,3,0,0,1,1.66.79l0,.09a11.66,11.66,0,0,1-1.81.11,4.26,4.26,0,0,1-1.59-.9.79.79,0,0,0-.76,0c-.24.15-.43.41-.72.6a1.38,1.38,0,0,1-1.86-.53Z"/><path d="M85.12,86.53a.62.62,0,0,1,.95,0,3.83,3.83,0,0,0,.18.45.42.42,0,0,0,.37.13,1.42,1.42,0,0,1,1.4.5l0,.09a1,1,0,0,1-1.68-.15.85.85,0,0,0-.28-.33,2.22,2.22,0,0,0-.45,0c-.26-.1-.25-.24-.51-.55Z"/><path d="M95.23,81.76a1.61,1.61,0,0,1,1.3.22,5.24,5.24,0,0,1,.94.71,1.35,1.35,0,0,0,.92.53,1.78,1.78,0,0,1,1.2.47,1.65,1.65,0,0,0,.86.41,4.27,4.27,0,0,0,1-.14,18.93,18.93,0,0,0,2.22-.59l.06.08a3.6,3.6,0,0,1-2,1.48,2.81,2.81,0,0,1-1.39,0A1.73,1.73,0,0,1,99.21,84c-.2-.34-.42-.61-.86-.52A2.29,2.29,0,0,1,97,83.34c-.81-.46-1.08-1.13-1.8-1.48Z"/><path d="M99.41,82.69a3.79,3.79,0,0,1,1.49.45c.21.14.41.37.62.37s.36-.24.57-.47a1.65,1.65,0,0,1,.84-.43c.1,0,.3-.07.27-.09l.26-.16c.41-.24.92-.43,1.36-.68h.09a2.12,2.12,0,0,1-1.35,1.74,1.87,1.87,0,0,1-.51.06c-.28,0-.47,0-.69,0s-.47.24-.79.33a3.07,3.07,0,0,1-.94.06,1.81,1.81,0,0,1-1.28-1.1Z"/><path d="M116.89,88.06c.67.54,1.13,1.12,1.62,1.58a1.86,1.86,0,0,0,.86.62,2.08,2.08,0,0,0,1.13-.21,2.93,2.93,0,0,1,1.26.07,2.63,2.63,0,0,0,.93-.14,3.89,3.89,0,0,1,2.41-.15v.09c-.77.25-1.28.72-2.12,1a2.37,2.37,0,0,1-1.4,0c-.47-.15-.71-.36-1-.42a5.36,5.36,0,0,1-2.49-.3,2.89,2.89,0,0,1-1.24-2.15Z"/><path d="M122.93,88.73a2,2,0,0,1,1.13-.25.9.9,0,0,0,.54.08,4.42,4.42,0,0,0,.57-.35,1.13,1.13,0,0,1,.78,0,.44.44,0,0,0,.26,0c.19,0,.44-.25.91-.4l.09,0a1.23,1.23,0,0,1-.68,1.3,1.07,1.07,0,0,1-.89-.09c-.21-.11-.24-.21-.38-.27a.57.57,0,0,0-.52.11,2.5,2.5,0,0,1-.59.43,1.18,1.18,0,0,1-1.24-.44Z"/><path d="M98.45,60.87a3.61,3.61,0,0,0,2.92,0c.92-.28,1.42-1.64,2.56-2.13a3.17,3.17,0,0,1,1.8-.26,3.22,3.22,0,0,0,1.4-.1c.15,0,.39-.26.64-.41a1.83,1.83,0,0,1,1-.24c.62,0,1.1.24,1.6,0l.07.07c-.38.56-1.16.54-1.62.65s-.56.45-1.29.84a3.22,3.22,0,0,1-1.91.06,4,4,0,0,0-1.52-.13,1.9,1.9,0,0,0-1.29.83,4.27,4.27,0,0,1-1,1.48,2.52,2.52,0,0,1-3.38-.6Z"/><path d="M90.56,45.79c-.21.79-.53,1.81-1.62,2.05-.56.09-.9-.21-1.17,0a4.82,4.82,0,0,1-.94.91,2.88,2.88,0,0,1-1.3.31,10.74,10.74,0,0,1-3.6.38l0-.09a8.5,8.5,0,0,1,2.29-1,11.68,11.68,0,0,1,1.31-.15,9.49,9.49,0,0,0,1.13.09,1.38,1.38,0,0,0,.92-.65c.35-.41,1-.38,1.16-.56.6-.21,1-.86,1.76-1.35Z"/><path d="M79.54,39a4,4,0,0,0,1.82.87c.14.06.21.1.31.07s.24-.2.38-.36a1.52,1.52,0,0,1,1.2-.49,5.16,5.16,0,0,1,1.17.16,1.72,1.72,0,0,0,.84-.11A9.16,9.16,0,0,0,87.08,38l.08.06a3,3,0,0,1-1.54,2,2,2,0,0,1-1.42,0,8.24,8.24,0,0,1-1-.51.69.69,0,0,0-.88.17,3.24,3.24,0,0,1-.28.58,1,1,0,0,1-.77.3,2.2,2.2,0,0,1-1.2-.46A1.34,1.34,0,0,1,79.45,39Z"/><path d="M80.58,37.59a1.75,1.75,0,0,1,1-.09.61.61,0,0,0,.46.12c.19-.08.27-.24.49-.4a1.89,1.89,0,0,1,1.22,0,3.34,3.34,0,0,0,.94.24l.06.07a1.07,1.07,0,0,1-1.16.68,2.47,2.47,0,0,1-.94-.45.62.62,0,0,0-.46.16,1.66,1.66,0,0,1-.6.4,1,1,0,0,1-1.09-.6Z"/><path d="M96.1,56.23a9.88,9.88,0,0,0,2.48-1.17,3.62,3.62,0,0,1,1.35-.81c.55-.12,1.07,0,1.51-.11.83-.24,1.28-1,2-1.77s1.94-.79,2.73-1.33l.08.05a2.86,2.86,0,0,1-1.07,1.16,5.8,5.8,0,0,0-1.06.85c-.62.58-1.45,1.64-2.71,1.55a3.71,3.71,0,0,0-1.45-.11c-.42.15-.54.63-.88,1.07a3,3,0,0,1-3,.71Z"/><path d="M87.64,58.41a3.16,3.16,0,0,1,1.61,0,2.27,2.27,0,0,0,.76.21,1.06,1.06,0,0,0,.67-.34,2.45,2.45,0,0,1,.64-.59,1.94,1.94,0,0,1,1-.27c.6,0,.93.22,1.49,0l.08.06c-.17.72-1.09.86-1.53.9a3.54,3.54,0,0,0-.62.07c-.21.06-.47.17-.77.24s-.59.11-.87.19a7.21,7.21,0,0,1-.86.27,2.06,2.06,0,0,1-1.58-.65Z"/><path d="M90.63,59.84a1.48,1.48,0,0,1,1-.39,1,1,0,0,0,.51.07c.16-.05.25-.2.36-.38.19-.43.9-.56,1.12-.55a3.12,3.12,0,0,0,.94,0l.07.06a1.05,1.05,0,0,1-.93.93c-.47,0-.52-.09-.9,0a1.12,1.12,0,0,0-.51.23,3.61,3.61,0,0,1-.5.43,1,1,0,0,1-1.14-.29Z"/><path d="M93.41,60.55c.18-.32-.08-.5,0-.24,0,.11.1.18,0,.13a.31.31,0,0,0-.19,0h-.06l.17.47a.19.19,0,0,0,.31.09.26.26,0,0,0-.15-.39l-.08,0a.28.28,0,1,1,.39-.36l.18.46h0l-.07,0c-.15,0-.22,0-.26,0s0,.07,0,.21-.37.1-.26-.25Z"/><path d="M94.8,61.28c.22.27.42,0,.29,0a.2.2,0,0,0-.2.11s0,0,0-.09-.07-.22,0-.26l.34.32,0,.08a.48.48,0,0,1,0,.52.32.32,0,0,1-.42-.15c-.06-.09-.09-.15-.15-.16a.52.52,0,0,1-.34,0c-.2-.13,0-.57.34-.4Z"/><path d="M96.21,61.78l.07.36s0,0-.08-.07-.15-.13-.13-.08a.27.27,0,0,0,.25,0,.33.33,0,0,0-.1-.41.32.32,0,0,0-.3,0c0,.07,0,.18.18.34l.06.07a.38.38,0,0,1,0,.51.5.5,0,0,1-.43,0,.42.42,0,0,1-.17-.52,1.22,1.22,0,0,1,.35-.16c.07,0,.06,0,0-.17s0-.17.07-.15a.59.59,0,0,1,.23.27Z"/><path d="M96.43,60.12c.26.18.39.15.32.11a1.15,1.15,0,0,0-.24,0s0,0,.1,0,.23-.1.21-.13-.18,0-.34.29l-.06.08c-.2.21-.37.2-.46.15s0-.2.15-.29.12-.07.09-.09a1.48,1.48,0,0,1-.22-.11c-.07-.09.08-.18.37,0Z"/><path d="M96.27,63.06c.18.21.21.29.21.34s0,0-.08,0-.05-.13-.18-.15c.11,0,.11-.22.06-.28a.24.24,0,0,0-.27-.12c-.07,0-.08.18.26.3l.09,0c.27.21.18.51,0,.57a.42.42,0,0,1-.44-.13.3.3,0,0,1,0-.41.27.27,0,0,1-.12-.27c0-.06,0-.07,0-.09s.13,0,.37.13Z"/><path d="M85.4,67.1c.31-.08.41-.11.35-.07a.55.55,0,0,0-.17.17s0,0,.06-.08-.14-.26-.21-.21-.05.42.27.32l.09,0c.36,0,.31.48.15.57a.35.35,0,0,1-.51-.18c0-.1,0-.16-.06-.17a1.64,1.64,0,0,1-.27,0c-.12,0-.06-.17.21-.34Z"/><path d="M85.62,65.54c.13.33.39.16.28.13a.28.28,0,0,0-.23,0s0,0,.09,0,.13-.2.15-.19l0,.47,0,.09c-.12.28-.23.37-.35.38a.34.34,0,0,1-.17-.4c0-.11,0-.17,0-.2s-.19-.07-.26-.15.21-.47.46-.2Z"/><path d="M87,66.6c-.13.32,0,.43-.07.31a.2.2,0,0,0-.1-.21.15.15,0,0,0,.1-.11l-.29-.11a.39.39,0,0,0-.06-.21.79.79,0,0,0,.41.19l.08,0a.42.42,0,0,1,.14.54.34.34,0,0,1-.45,0l-.29-.11a.69.69,0,0,1,.09-.33c0-.07-.05-.23.06-.37s.36,0,.39.3Z"/><path d="M87,64.87a1.79,1.79,0,0,1,.21.27s0,0-.1,0-.15-.1-.12,0a1.2,1.2,0,0,0,.15.2l-.08-.64c0-.27-.33-.09-.09.31L87,65c.15.45-.31.62-.39.3l-.16-.7.08.07a.93.93,0,0,0,.21.14s0,0-.06-.13-.09-.12,0-.09a1.32,1.32,0,0,1,.28.21Z"/><path d="M88.34,64.83c.16-.28.13-.4.1-.33a1.12,1.12,0,0,0,0,.24s0,0,0-.11c0-.35-.28-.27.11.17l.06.08c.33.5,0,.6-.11.26,0-.08,0-.13-.06-.1a1.07,1.07,0,0,1-.1.23c-.07.07-.13-.07,0-.36Z"/><path d="M57.46,72.51a16.18,16.18,0,0,1,.65,1.77,2.18,2.18,0,0,0,.39.86,4.75,4.75,0,0,1,.67.86c.35.78.12,1.52.41,1.75a1.73,1.73,0,0,1,.22.31l.31.4a5,5,0,0,1,.52.91l-.06.07a4.6,4.6,0,0,1-1-.44l-.43-.28a3.11,3.11,0,0,1-.45-.44,1.54,1.54,0,0,1-.23-1.23c.05-.36.15-.64.17-.91a1.09,1.09,0,0,0-.41-.8,4.3,4.3,0,0,1-.85-.7,2.19,2.19,0,0,1-.06-2.13Z"/><path d="M53,71.41A3.59,3.59,0,0,1,54.2,71a2.57,2.57,0,0,1,1.23.08l-.21.38c.05-.1-.18-.24-.39-.32a4.51,4.51,0,0,0-.68-.16,1.3,1.3,0,0,1-.71-.39,1.28,1.28,0,0,1-.31-.89,1.29,1.29,0,0,0-.21-1,1.17,1.17,0,0,1-.11-.86,1.52,1.52,0,0,1,.36-.66l.09,0c.07.51.14.84.38,1a1.77,1.77,0,0,1,.45.66,1.46,1.46,0,0,1,0,.84.74.74,0,0,0,.32.79,2.77,2.77,0,0,0,.56.31c.18.1.44,0,.73.33l.2.22-.41.16a2.7,2.7,0,0,1-1.21.21A3.55,3.55,0,0,1,53,71.5Z"/><path d="M54.62,67.35a1.5,1.5,0,0,1,.11,1c-.07.13-.2.29-.17.45s.17.25.34.31a1.15,1.15,0,0,1,.54.29.94.94,0,0,1,.31.81c-.13.6-.42.51-.46.93l-.06.07c-.29,0-.44-.35-.46-.59a4.37,4.37,0,0,0,0-.5s0-.23-.21-.65c-.08-.19-.17-.38-.26-.56a2.1,2.1,0,0,1-.33-.59,1,1,0,0,1,.58-1Z"/><path d="M56.66,70.93a.14.14,0,0,0,.24-.13c0-.13-.31-.16-.32,0s.13.18.16.16,0,0-.1,0,.14.3.26.1-.19-.28-.33,0l0,.08c-.35.15-.64-.31-.44-.65s.9-.24.9.07l.06.35a.49.49,0,0,1,0,.47.42.42,0,0,1-.65-.06c-.11-.17,0-.49.21-.46Z"/><path d="M79.47,80.41a.2.2,0,0,0,.21.25.14.14,0,0,0,0-.26l-.15-.21c-.06.14-.07.24,0,.15s.12-.21.14-.23,0,0,.1.41v.09c0,.41-.24.53-.33.38s-.06-.19-.06-.3-.07,0-.21.06l-.15-.22a.26.26,0,1,1,.44-.22Z"/><path d="M81.3,81.64c0,.34.25.32.16.28a.29.29,0,0,0-.24,0s0,0,.11,0,0-.27,0-.24-.07.27.25.3l.09,0c.28.22.06.59-.16.65a.46.46,0,0,1-.55-.42c0-.13,0-.2,0-.27s-.17-.17-.19-.29.33-.39.54-.1Z"/><path d="M83,80.92c-.11.3,0,.41,0,.34a.37.37,0,0,0-.17-.18s0,.06,0,.11.23.07.23.06-.18,0-.37.23l-.08.06a.39.39,0,0,1-.55-.2.37.37,0,0,1,.32-.4c.11,0,.18,0,.2-.08a1.24,1.24,0,0,1,0-.31c.1-.14.37-.06.41.27Z"/><path d="M83.62,82.9c0,.38.31.38.07.22s-.12.09.09-.1h0l-.41-.23c-.2-.24-.32.23.18.2h.1c.5.18.21.84-.2.62L83,83.37h0v0c.15-.32.31-.25.13-.52s.3-.38.42,0Z"/><path d="M73.55,43.86a14.17,14.17,0,0,1,.86,4c0,.68,0,1.37,0,2a12.33,12.33,0,0,0,.36,2A19.44,19.44,0,0,1,75.47,56c.14,1.46-.54,2.72-.69,4h-.09c-.44-1.39,0-2.79-.22-4-.06-1.28-.17-2.64-.18-4a12.54,12.54,0,0,0-.16-2c-.12-.67-.34-1.32-.49-2a14.26,14.26,0,0,1-.18-4.08Z"/><path d="M65,59.94c0,.35.17.42,0,.61a1.94,1.94,0,0,1-.42.15,2.43,2.43,0,0,1-.4.21S64,61,64.1,61a.21.21,0,0,0,.17,0s.09-.07.06.11a.91.91,0,0,1-.22.38c-.15.15-.5.18-.58,0l0-.08c.1-.32-.26-.2-.23-.44a.76.76,0,0,1,.22-.45.56.56,0,0,1,.4-.18c.16,0,.17.09.24.13s.1.13.15.06,0-.22-.06-.3a.48.48,0,0,1,.67-.3Z"/><path d="M53.88,80.48c2.46.41,4.29,2.4,5.68,4.29a3.86,3.86,0,0,0,2.68,1.78,11.32,11.32,0,0,0,3.39.31c1.11-.1,1.91-.9,3-1.53a12.27,12.27,0,0,1,3.49-1.08,33.15,33.15,0,0,1,7.16-.66,27.24,27.24,0,0,1,3.6.26,3.2,3.2,0,0,1,1.81.73,9.55,9.55,0,0,1,1,1.53A7.34,7.34,0,0,0,91.64,89a16.81,16.81,0,0,0,3.46-.26A4.34,4.34,0,0,0,98,87.33l.57-.72a3.43,3.43,0,0,1,.83-.59l1.6-.83,1.59-.82.82-.4a1.24,1.24,0,0,1,1.15,0l-.41.11a2.18,2.18,0,0,1,2.31-1l.13,0,0,.12a1.93,1.93,0,0,0,2.26,1.43l0,.09a2.19,2.19,0,0,1-2.7-1.42l.16.15a1.68,1.68,0,0,0-1.71.85l-.14.27-.26-.17c-.24-.15-.83.27-1.33.56l-1.56.88-1.54.88a2.76,2.76,0,0,0-.61.48l-.51.7a5.21,5.21,0,0,1-3.41,1.7,14.57,14.57,0,0,1-3.68.28,7.94,7.94,0,0,1-6.44-3.41A9.66,9.66,0,0,0,84.27,85a2.63,2.63,0,0,0-1.44-.64A26.06,26.06,0,0,0,79.31,84a23.7,23.7,0,0,0-7.07.68A12.11,12.11,0,0,0,69,85.88c-.48.3-.91.69-1.43,1.06a4.2,4.2,0,0,1-1.81.71,9.47,9.47,0,0,1-3.69-.32,5.21,5.21,0,0,1-1.78-.75A6,6,0,0,1,59,85.18c-1.29-2-2.84-3.89-5.14-4.61Z"/><path d="M63,82.1a2.63,2.63,0,0,0,2.07.47,1.39,1.39,0,0,1,.81.09,1.24,1.24,0,0,1,.5.59c.2.4.44.74.8.75.64.06,1.59-.39,2.61.07s1.3,1.08,2.14,1.24l0,.09a1.75,1.75,0,0,1-1.4,0L69.43,85a2.69,2.69,0,0,0-1-.22A2.93,2.93,0,0,1,67,84.48c-.5-.24-.66-.76-.88-1.07s-.49-.28-.84-.09A1.76,1.76,0,0,1,63,82.15Z"/><path d="M63.69,79.54A1.7,1.7,0,0,1,64.85,79a5.12,5.12,0,0,1,.7.18l.71.11a4.62,4.62,0,0,1,1.13.43c.28.16.57.33,1,.55v.09a1.38,1.38,0,0,1-1.43.28,2.47,2.47,0,0,1-1-.9.52.52,0,0,0-.48-.25,1.51,1.51,0,0,0-.53.28,1.45,1.45,0,0,1-1.3-.09Z"/><path d="M69.59,81.77a3.1,3.1,0,0,1,1.46.51c.2.16.37.41.56.43s.39-.25.76-.32A2.34,2.34,0,0,1,74,83a7,7,0,0,0,1.25.69v.09a1.71,1.71,0,0,1-1.76.08c-.55-.35-.78-.74-1.1-.93-.17-.1-.4,0-.73.11a3.08,3.08,0,0,1-.92,0,1.88,1.88,0,0,1-1.18-1.13Z"/><path d="M76.55,81a2.29,2.29,0,0,1,1.17.56,2.28,2.28,0,0,0,.43.5c.18.13.43.15.69.3a5.42,5.42,0,0,0,.92.68,4.5,4.5,0,0,0,1,.57l0,.09a1.33,1.33,0,0,1-1.52.22,1.57,1.57,0,0,1-.83-1.22.68.68,0,0,0-.44-.36c-.22-.07-.48,0-.72-.13a1.35,1.35,0,0,1-.82-1.15Z"/><path d="M90.06,84.88a3.1,3.1,0,0,1,1.54,1c.17.25.29.55.48.79a2.77,2.77,0,0,0,.72.54c.55.29,1,.68,1.44.86a2.78,2.78,0,0,0,1.51.32l0,.08a1.68,1.68,0,0,1-2,.51,3.29,3.29,0,0,1-1.38-1.39,2.51,2.51,0,0,0-.58-.71c-.24-.18-.55-.29-.83-.46A2.9,2.9,0,0,1,90,84.94Z"/><path d="M91.18,82a2,2,0,0,1,2.62.63A9.42,9.42,0,0,1,94.24,84a.71.71,0,0,0,1,.3,2,2,0,0,1,1.51-.14,1.93,1.93,0,0,1,.83,1.33c.09.27.11.34.56.45s1,.14,1.24.62l-.07.06c-.4-.16-.73,0-1.21.05a1.67,1.67,0,0,1-.82-.11,1.32,1.32,0,0,1-.64-.73c-.17-.52-.19-.83-.31-.89s-.57-.11-1-.13A1.47,1.47,0,0,1,94,84.12a4.86,4.86,0,0,0-.8-1,3.69,3.69,0,0,0-2-1Z"/><path d="M97.16,82.47a2.7,2.7,0,0,0,1.07.39c.26.2,1.09-.17,1.56.3a7.26,7.26,0,0,0,1.13.65c.35.21.71.4,1.22.65v.09a1.73,1.73,0,0,1-1.65.17,2,2,0,0,1-1.1-1.23c-.07-.21-.2-.36-.41-.28s-.35.34-.72.43a1,1,0,0,1-1.2-1.15Z"/><path d="M88.32,81.74c.27,0,.35.05.38.08s0,.07-.28.11l-.17-.12a1,1,0,0,1,0-.38s.12.09.25.4l0,.09c0,.34,0,.48,0,.47a.82.82,0,0,1-.21-.31L88.26,82h-.12c-.24,0-.28,0-.28-.09s.1-.07.36-.11Z"/><path d="M92.13,81c.12-.29.17-.39.16-.31l-.05.23s0,0,.06-.09c.14-.3.18-.33,0,.24l0,.08c-.21.54-.24.5-.17.17,0-.08,0-.13,0-.11l-.1.22c0,.07,0,0,.06-.34Z"/><path d="M78.9,79.4a1.58,1.58,0,0,0,.33.09l-.24,0s0,0,.11,0c.34,0,.31-.19-.15.18l-.08,0c-.53.27-.6,0-.28-.14.08,0,.13-.06.1-.08l-.24-.07c-.07-.06,0-.13.36-.08Z"/><path d="M80.82,81.47h-.1s0,0-.11,0c-.33,0-.37,0,.21,0h.1c.58,0,.54,0,.21,0-.08,0-.14,0-.11,0h-.2Z"/><path d="M44.76,70.79a3.16,3.16,0,0,0-1.93.25,1,1,0,0,0-.47,1.3,13.61,13.61,0,0,0,1.09,1.79c.38.58,1.17,1,1.25,1.91s-.64,1.57-.49,1.95.69.64,1.35.83a25.94,25.94,0,0,1,4,1.61l0,.1a25,25,0,0,1-4.3-.76,3.59,3.59,0,0,1-1.11-.46,1.74,1.74,0,0,1-.81-1.19c0-1.14.78-1.54.85-2.1s-.5-1.15-1-1.68-1.08-1-1.55-1.64a1.46,1.46,0,0,1-.12-1.38,1.87,1.87,0,0,1,1-.93,2.58,2.58,0,0,1,2.3.31Z"/><path d="M44.25,72.81c.2-.26.26-.36.33-.28s.07.21.12.24.1,0,.12-.12c.12-.37.08-.38.59,0l.06.07c.19.61-.26.78-.56.48-.08-.07-.14-.12-.19-.08s-.12.17-.2.23-.3-.08-.3-.41Z"/><path d="M45.59,75.74c.33,0,.36-.22.27-.17a.39.39,0,0,0-.12.2s0,0,0-.1-.19-.18-.22-.13.1.23.39.15H46a.34.34,0,0,1,.31.46.33.33,0,0,1-.5,0c-.08-.07-.11-.13-.16-.11a.85.85,0,0,1-.27.13c-.17,0-.21-.32.11-.45Z"/><path d="M109.59,56.84a42.58,42.58,0,0,1,6.74,2.23c1,.51,2.3.9,3,2a3,3,0,0,1,.41,1.81c-.06.56-.31,1.22,0,1.58.12.18.26.21.52.2a5.65,5.65,0,0,1,.92,0,4.45,4.45,0,0,1,1.85.55,3.44,3.44,0,0,1,1.39,1.46,5.22,5.22,0,0,1,.48,1.86,3.44,3.44,0,0,1,0,1,2.18,2.18,0,0,1-.5,1l-1.23,1.31c-.84.85-1.7,1.68-2.57,2.47l-.07-.07c.67-1,1.36-1.94,2.07-2.87L123.65,70a1.48,1.48,0,0,0,.25-1.34A3.44,3.44,0,0,0,122.53,66a4.25,4.25,0,0,0-1.48-.56c-.29-.05-.53-.07-.85-.1a1.07,1.07,0,0,1-1-.6c-.32-.75.13-1.29.18-1.87a2.17,2.17,0,0,0-.37-1.58c-.63-1-1.92-1.06-3-1.46a43.52,43.52,0,0,1-6.49-2.86Z"/><path d="M122.36,73A2.5,2.5,0,0,1,124.63,75a10.46,10.46,0,0,1,.08,1.57c0,.51.06,1,0,1.55a4.37,4.37,0,0,1-1.47,2.78,12.1,12.1,0,0,1-2.35,1.89l-.07-.06a12.54,12.54,0,0,1,1.69-2.51,6.84,6.84,0,0,0,1.69-2.2,2.64,2.64,0,0,0,.16-1.42,4.66,4.66,0,0,0-.51-1.35,4.72,4.72,0,0,0-1.56-2.22Z"/><path d="M114.12,63.33c.29-.14.32-.28.26-.22a.48.48,0,0,0-.11.21s0,0,0-.09,0-.25,0-.25,0,.19.15.42l0,.08c.13.27,0,.43,0,.49s-.21-.06-.24-.24,0-.15-.06-.13-.13.13-.21.15-.15-.17.1-.38Z"/><path d="M116.19,62.32c.22.22.28.31.22.26l-.17-.16.06.08c.23.24.24.28-.18-.12l-.07-.06c-.4-.42-.36-.41-.11-.19l.08.07-.16-.18c0-.06,0,0,.26.23Z"/><path d="M115.14,65c.29-.14.28-.3.26-.21a.49.49,0,0,0,0,.24s.06,0,.07-.11,0-.24,0-.24.08.17.39.22l.08,0a.38.38,0,0,1,.11.57.34.34,0,0,1-.46-.07c-.06-.07-.11-.12-.16-.1s-.13.16-.22.2-.3-.2-.1-.47Z"/><path d="M116.58,66.29c-.29.16-.25.34-.2.26a.53.53,0,0,0,.05-.23s0,0,0,.11.09.22.12.2,0-.21-.32-.29l-.09,0a.34.34,0,0,1-.16-.5.26.26,0,0,1,.38.11c0,.07.08.12.11.1s.11-.16.18-.2.25.18,0,.42Z"/><path d="M112.74,69.1c.13-.29.05-.42,0-.33a.51.51,0,0,0,0,.23s0,0,0-.09-.17-.19-.19-.16.07.18.36.25l.09,0c.28.12.32.29.29.39s-.19.08-.32,0-.1-.11-.12-.08a.85.85,0,0,1,0,.25c-.07.09-.2,0-.13-.35Z"/><path d="M119,66.42c-.22-.22-.29-.3-.23-.26l.18.16-.07-.08c-.22-.24-.24-.28.18.12l.07.06c.4.42.36.41.12.19-.06-.06-.1-.09-.09-.07l.16.18c0,.06,0,0-.26-.23Z"/><path d="M119.92,68.63c.28.15.36.22.28.22l-.24,0s0,0,.08.08c.29.18.3.25-.26.09l-.08,0c-.52-.27-.46-.31-.13-.25.08,0,.13,0,.11,0a2.36,2.36,0,0,0-.2-.13c-.06-.06,0,0,.35,0Z"/><path d="M58.08,80.63c.25-.21.21-.37.17-.29a.41.41,0,0,0,0,.23s0,0,0-.1-.1-.22-.13-.2,0,.2.31.31l.09,0c.25.18.23.38.17.48s-.25,0-.35-.12-.07-.12-.1-.09-.09.16-.16.21-.22-.14,0-.4Z"/><path d="M105.61,58.17a20.25,20.25,0,0,1,2.28-1.91,4.12,4.12,0,0,0,1.09-.95,2.63,2.63,0,0,0,.39-1.39c0-2-.72-3.66-1-5.76l.08,0A7.47,7.47,0,0,1,110,50.85a5.28,5.28,0,0,1-.07,3.17,12.36,12.36,0,0,1-.64,1.44,6.63,6.63,0,0,1-.82,1.37,5.08,5.08,0,0,1-2.76,1.42Z"/><path d="M81.26,36.41a7.29,7.29,0,0,1,3.16-3.59,5.16,5.16,0,0,1,2.44-.38,6.78,6.78,0,0,1,2.37.49,4.22,4.22,0,0,1,1.08.64c.33.26.44.27.69.21a9.39,9.39,0,0,0,1-.53,2.52,2.52,0,0,1,1.4-.27,3.51,3.51,0,0,1,2.26,1.29,6.84,6.84,0,0,1,1.13,2.15l-.08,0c-1-1.2-2.06-2.44-3.4-2.48a1.88,1.88,0,0,0-.88.15,7.41,7.41,0,0,1-1.16.5,1.36,1.36,0,0,1-.84-.06,1.86,1.86,0,0,1-.57-.45,5.16,5.16,0,0,0-.82-.73,3.58,3.58,0,0,0-2.13-.65,4,4,0,0,0-2.07.77,27.29,27.29,0,0,0-3.45,3Z"/><path d="M81.49,36.57a2.18,2.18,0,0,1,1.29,0,1.41,1.41,0,0,0,.59.22,1.45,1.45,0,0,0,.62-.26,1.77,1.77,0,0,1,1.45-.08,6.39,6.39,0,0,0,1.12.47l0,.08a1.32,1.32,0,0,1-1.43.41c-.45-.12-.7-.3-1.11-.38a1.4,1.4,0,0,0-.64.06,3.82,3.82,0,0,1-.72.26,1.4,1.4,0,0,1-1.23-.67Z"/><path d="M85.79,35.15a1.29,1.29,0,0,1,1-.62,6,6,0,0,0,.63.08c.23-.07.53.14.67.14s.08-.1.18-.16a2.14,2.14,0,0,1,.37-.35,1.06,1.06,0,0,1,1.39.14l0,.09a2.27,2.27,0,0,0-.77.58,2.06,2.06,0,0,1-.55.31.75.75,0,0,1-.89-.18c-.15-.21-.17-.35-.33-.27a4.42,4.42,0,0,0-.47.37,1.32,1.32,0,0,1-1.19,0Z"/><path d="M88.6,37.33a2.59,2.59,0,0,1,1-1,3,3,0,0,0,.67-.27c.18-.11.32-.5.8-.41s.25,0,.36,0,.2-.24.38-.42a3.31,3.31,0,0,1,1.32-.72l.07.07a3.14,3.14,0,0,1-.67,1.34,1.72,1.72,0,0,1-.7.51.89.89,0,0,1-.63,0c-.28-.11-.23-.21-.32-.3s-.27-.06-.39.14-.25.46-.41.67a1.59,1.59,0,0,1-1.44.48Z"/><path d="M91.74,38c.22.22.29.31.23.26l-.18-.16.07.08c.22.24.24.28-.18-.12L91.61,38c-.4-.42-.36-.41-.11-.18,0,.05.1.08.08.06l-.16-.17c0-.06,0,0,.26.22Z"/><path d="M41.12,53.3a6.2,6.2,0,0,0-.85,7.46c.41.82,1.08,1.72.78,2.79a9.38,9.38,0,0,0-.51,1.28,1.1,1.1,0,0,0,.51.94A14,14,0,0,0,43.47,67a54.93,54.93,0,0,1,5,2.64l.68.39-.7.23a5.23,5.23,0,0,1-2.9.15v-.09a6.4,6.4,0,0,0,2.62-.69l0,.62a53.53,53.53,0,0,1-5.15-2.4,11.09,11.09,0,0,1-2.5-1.56A1.67,1.67,0,0,1,40,64.73c.15-.58.56-.88.69-1.28.32-.84-.25-1.74-.81-2.46a5.27,5.27,0,0,1-1.31-2.66,5.06,5.06,0,0,1,2.45-5.11Z"/><path d="M64.58,65.31a29.43,29.43,0,0,1,.43,3,19.26,19.26,0,0,0,.37,3,6.39,6.39,0,0,0,1.09,2.73,1.42,1.42,0,0,0,2.34-.25c1-1.68.29-3.75-.79-5.31s-2.67-3-3.73-4.82l.07-.06A31.46,31.46,0,0,1,68.85,68a6.89,6.89,0,0,1,1.2,3,4,4,0,0,1-.84,3.17,2.21,2.21,0,0,1-1.47.76,1.78,1.78,0,0,1-1.49-.63,7.88,7.88,0,0,1-1.62-2.73,8.54,8.54,0,0,1-.34-3.12,26.74,26.74,0,0,1,.2-3.1Z"/><path d="M84.2,32q-.65-3.81-1.39-7.59c-.46-2.53-1-5-1.57-7.55-1-5-2-10.11-3.3-15.09l0-.17.17,0,2.42-.47,1.2-.23A2.87,2.87,0,0,1,83,.75a.94.94,0,0,1,.63.55,2.45,2.45,0,0,1,.12.7l.1,1.22c.06.81.14,1.62.23,2.43A32.59,32.59,0,0,0,85,10.4a35.6,35.6,0,0,0,1.75,4.52,15.82,15.82,0,0,1,.94,4.94,24.61,24.61,0,0,0,.81,4.74c.83,3.12,2,6.32,1.89,9.64h-.1c-.2-3.29-1.57-6.27-2.53-9.42a23.13,23.13,0,0,1-1-4.88,14.9,14.9,0,0,0-.91-4.66,27.56,27.56,0,0,1-1.73-4.64,27.61,27.61,0,0,1-.75-4.92c-.06-.82-.1-1.64-.13-2.46l0-1.23c0-.43,0-.69-.3-.76a2.63,2.63,0,0,0-1.1.05l-1.21.18-2.42.36.13-.2q.84,3.76,1.85,7.5c.67,2.49,1.37,5,1.92,7.49s1,5.06,1.44,7.61.67,5.13.81,7.7Z"/><path d="M80.39,4.07c.2.65.53,1,.7,1.67.07.32.06.68.12,1a3.92,3.92,0,0,0,.36.91,4.66,4.66,0,0,1,.27,3.83h-.09a6.72,6.72,0,0,1-.68-3.72,2.25,2.25,0,0,0-.15-.93A4.67,4.67,0,0,0,80.37,6a1.85,1.85,0,0,1-.07-2Z"/><path d="M83.18,13.09A3.6,3.6,0,0,1,83.72,15c0,.33-.13.68-.13,1a3.06,3.06,0,0,0,.2,1,5.94,5.94,0,0,1,.2,4H83.9a5.94,5.94,0,0,1-.62-3.93,3.05,3.05,0,0,0,0-1c-.07-.32-.24-.64-.34-1a3.52,3.52,0,0,1,.14-2Z"/><path d="M84.06,22.36a3,3,0,0,1,.55,1.77c0,.31-.13.62-.13.93a2.32,2.32,0,0,0,.21.89,5,5,0,0,1,.2,3.65H84.8a5,5,0,0,1-.62-3.6,2.78,2.78,0,0,0,0-.91,9.4,9.4,0,0,0-.34-.88A3,3,0,0,1,84,22.37Z"/><path d="M85,21.21l0-.06h0l.18,0h0l0,0,.07.12c0,.08.09.16.12.24a4.62,4.62,0,0,1,.19.47,2.8,2.8,0,0,1,.18,1c0,.34-.1.69-.08,1a3.1,3.1,0,0,0,.26,1,6,6,0,0,1,.4,4l-.09,0A6.08,6.08,0,0,1,85.4,25a3,3,0,0,0-.05-1,8.62,8.62,0,0,0-.39-.95,3.38,3.38,0,0,1-.12-1,2.92,2.92,0,0,1,0-.51,1.27,1.27,0,0,1,0-.26l0-.13v0h0s.36-.05.19,0h0v0l0,.06Z"/><path d="M45.46,49.11C43,43.69,41.81,37.77,41,31.92c-.42-2.93-.62-5.9-1-8.84-.21-1.46-.28-2.95-.39-4.42l-.19-2.22c-.05-.47,0-.47-.33-.33a8.51,8.51,0,0,0-.92.54,2.12,2.12,0,0,0-1,1.6c-.06.66.13,1.38.15,2.18a14,14,0,0,1-.27,2.25,4.44,4.44,0,0,0,.2,2c.21.66.53,1.33.78,2.07a7.11,7.11,0,0,1,.38,2.33c0,1.56-.36,3-.42,4.44-.13,2.8,1.23,5.59,1.8,8.52s1.08,5.84,1.47,8.78l-.1,0c-.67-2.89-1.3-5.79-2.08-8.62-.38-1.43-.84-2.81-1.31-4.23a12.65,12.65,0,0,1-.74-4.52c.07-1.54.39-3,.41-4.39s-.55-2.65-1-4.15a4.92,4.92,0,0,1-.17-2.38,15.05,15.05,0,0,0,.36-2.13c0-.69-.14-1.44,0-2.25a2.68,2.68,0,0,1,1.37-1.95,9.79,9.79,0,0,1,1-.54.66.66,0,0,1,.77.06c.22.29.12.5.16.67l.1,2.22a34.41,34.41,0,0,0,.4,4.41c.43,2.93.93,5.84,1.47,8.75a116.71,116.71,0,0,0,3.82,17.27Z"/><path d="M38.92,33.48a16.81,16.81,0,0,1,1,3.76c.06.64.06,1.3.17,1.94A10.14,10.14,0,0,0,40.61,41a24.67,24.67,0,0,1,1.81,7.55l-.09,0a20.14,20.14,0,0,1-2.22-7.45,12.12,12.12,0,0,0-.34-1.91c-.17-.63-.44-1.23-.64-1.86a10.85,10.85,0,0,1-.3-3.9Z"/><path d="M41,37.57a8.2,8.2,0,0,1,.89,2.82c0,.5,0,1,.1,1.49a5.94,5.94,0,0,0,.45,1.41A15.49,15.49,0,0,1,43.91,49l-.08,0a11,11,0,0,1-1.92-5.6A8.08,8.08,0,0,0,41.65,42c-.14-.47-.39-.92-.56-1.39a7.09,7.09,0,0,1-.22-3Z"/><path d="M38.1,19.1a1.21,1.21,0,0,1,.39,1.07,3.89,3.89,0,0,0-.21.53.93.93,0,0,0,.13.53,1.88,1.88,0,0,1-.12,2.15H38.2a1.86,1.86,0,0,1-.3-2.13,1.07,1.07,0,0,0,.08-.55,5.31,5.31,0,0,0-.27-.53A1.18,1.18,0,0,1,38,19.1Z"/><path d="M83.65,33.34a2.61,2.61,0,0,1,1.29-3c.51-.28,1-.43,1.53-.67a2.14,2.14,0,0,0,.62-.44c.14-.15.08-.39,0-.66a22.24,22.24,0,0,1-.47-6.43h.09a12,12,0,0,1,.89,6.44,1.39,1.39,0,0,1-.31.88,5.55,5.55,0,0,1-.71.48,10.3,10.3,0,0,0-1.21,1,4.31,4.31,0,0,0-1.67,2.39Z"/><path d="M88.38,28.46a1.25,1.25,0,0,1,.25,1.33c-.12.21-.32.37-.43.56A1.86,1.86,0,0,0,88,31a1.78,1.78,0,0,1-2.09,1.48l0-.09a4.84,4.84,0,0,1,1.68-1.66.86.86,0,0,0,.36-.48,2.2,2.2,0,0,0,0-.62,2.09,2.09,0,0,1,.41-1.14Z"/><path d="M89.76,31.05c.24.28.24.55.06.68s-.28.07-.36.12a.39.39,0,0,0-.11.3.62.62,0,0,1-1.06.48l0-.09c.1-.67.25-.73.73-.74a.26.26,0,0,0,.24-.13c0-.09,0-.23-.06-.33s.15-.24.51-.32Z"/></g></g></svg>