<svg xmlns="http://www.w3.org/2000/svg" viewBox="0 0 104.1 137.89"><defs><style>.cls-1{fill:#80b873;}.cls-2{font-size:17.46px;fill:#56a045;font-family:GillSans, Gill Sans;letter-spacing:0.02em;}.cls-3{font-size:23.69px;font-family:DINNextLTPro-Condensed, DIN Next LT Pro;letter-spacing:-0.01em;}</style></defs><g id="Layer_2" data-name="Layer 2"><g id="Ingredients_Map" data-name="Ingredients Map"><path class="cls-1" d="M90.15,31.79c-1-3.76-7.4-20.25-9-23.81-.69-1.56-2.83-.7-3.78-2.11-1.82-2.67-5-4-8.15-4.79-16-4-32.95,3.55-45.39,14.4a52.7,52.7,0,0,0-9.32,10.19C8.34,35,4.85,51.18,8.41,61.77s14.08,15.33,24.64,19c14.65,5.07,31.06.37,44.43-7.47,4.58-2.68,9.1-5.89,11.69-10.53C89.17,62.75,92.11,39.28,90.15,31.79Z"/><text class="cls-2" transform="translate(25.36 106.73)">Mexico<tspan class="cls-3"><tspan x="-25.36" y="26.19">TAHITIAN LIME</tspan></tspan></text><path d="M78,71.1a6.27,6.27,0,0,1,2.38-1.73,8.69,8.69,0,0,0,1.34-.53,3.54,3.54,0,0,0,1-1A13.74,13.74,0,0,0,84,65.38a12.51,12.51,0,0,1,1.5-2.52l.09,0a11.65,11.65,0,0,1-.69,2.88,5.53,5.53,0,0,1-1.77,2.45c-.42.3-.83.57-1.22.86s-.75.67-1.15,1A10,10,0,0,1,78,71.18Z"/><path d="M81.55,73a1.13,1.13,0,0,1,.43-.9,2.06,2.06,0,0,0,.48-.21.75.75,0,0,0,.2-.44,1.66,1.66,0,0,1,1.17-1.53l.08,0a1.52,1.52,0,0,1-.84,1.77,1,1,0,0,0-.38.33c-.07.15-.07.37-.14.54a1,1,0,0,1-.94.46Z"/><path d="M86.73,65.44a.81.81,0,0,1-.23-.85,2.4,2.4,0,0,0,.28-.37.56.56,0,0,0-.07-.41,1.24,1.24,0,0,1,.21-1.6H87a1.13,1.13,0,0,1,.21,1.65.53.53,0,0,0-.14.4,2.62,2.62,0,0,0,.18.43c0,.28-.09.54-.44.77Z"/><path d="M83.51,69a1.67,1.67,0,0,1,.59-1.23,4,4,0,0,0,.61-.34,1.3,1.3,0,0,0,.35-.56,3.62,3.62,0,0,1,1.55-2.08l.09,0a2.27,2.27,0,0,1-1.26,2.36,1.42,1.42,0,0,0-.5.44,4.64,4.64,0,0,0-.26.65,1.82,1.82,0,0,1-1.1.78Z"/><path d="M70.41,76.52c-.25-.21-.29-.36-.18-.42s.23,0,.28,0,0-.09,0-.18c-.15-.35.12-.65.58-.24l0,.09c.14.57.15.53-.23.46-.08,0-.15,0-.15,0a1.13,1.13,0,0,0,.14.22c0,.1-.09.11-.41.07Z"/><path d="M74.24,73.35C74,73.2,74,73,74.09,73a.55.55,0,0,1,.22.13s0,0,0-.12-.09-.22-.13-.19,0,.18.34.27l.08,0c.26.15.28.33.23.43s-.21.06-.31-.08-.08-.11-.08-.08a.46.46,0,0,0,.14.19c.08,0,0-.1-.27-.19Z"/><path d="M70.74,72.69c.3-.18.53-.16.63,0s0,.27.07.35a.32.32,0,0,0,.27.09c.48,0,.75.19.62.83l-.06.07c-.64.2-.86-.07-.89-.53,0-.11,0-.2-.13-.23s-.23,0-.33,0-.23-.19-.22-.54Z"/><path d="M72.1,78c-.32-.16-.42-.36-.33-.54s.21-.16.25-.24A.26.26,0,0,0,72,77c-.27-.41-.25-.74.36-1h.09c.52.43.41.76,0,1-.09.07-.15.15-.13.24s.15.18.21.26,0,.29-.34.48Z"/><path d="M74.68,61.82c-.28-.13-.37-.18-.3-.17l.23.07-.09,0c-.29-.16-.31-.2.22,0l.09,0c.51.25.46.26.15.16-.07,0-.12,0-.1,0l.21.11c.06,0,0,0-.33-.09Z"/><path d="M77.9,64.1c-.15-.31-.14-.49,0-.58a3,3,0,0,0,.34-.06c.07-.05.07-.14.06-.25-.08-.45.09-.73.74-.65l.08,0c.27.58,0,.82-.41.89-.12,0-.21,0-.23.13a2,2,0,0,0,0,.33c0,.17-.21.24-.56.19Z"/><path d="M80.46,65.18c-.28-.13-.37-.18-.29-.17l.22.07s0,0-.08-.06c-.29-.15-.32-.19.22,0l.08,0c.52.24.47.26.16.16-.08,0-.13,0-.1,0l.2.11c.07,0,0,0-.32-.09Z"/><path d="M82,62.67c-.21-.28-.27-.45-.15-.58s.24-.1.29-.18a.28.28,0,0,0-.05-.27c-.27-.38-.29-.64.27-1h.09c.58.35.52.79.13,1.09-.09.08-.16.16-.15.26s.12.21.16.32-.15.37-.5.41Z"/><path d="M84.85,55.66c.33,0,.51.1.49.27s-.13.22-.15.29.06.14.15.2c.38.23.44.65-.16.89h-.09c-.54-.32-.52-.47-.24-.78.07-.08.1-.16.06-.22a1.16,1.16,0,0,0-.28-.1c-.12-.09-.06-.22.14-.49Z"/><path d="M82.88,51.6c.31-.05.41-.09.38,0s-.14.16-.14.2.06,0,.13,0c.34-.14.31-.2.19.38l0,.08c-.39.46-.65.23-.52-.12,0-.09,0-.15,0-.16s-.18,0-.26,0-.09-.2.18-.39Z"/><path d="M82.8,56.88c.14-.27.2-.36.2-.28s0,.2,0,.24,0,0,.07-.08c.18-.28.24-.3.07.25l0,.08c-.26.5-.3.45-.22.13,0-.08,0-.13,0-.11s-.09.14-.13.2,0-.05.06-.34Z"/><path d="M84.84,58.87c.31-.06.42-.06.36,0A1.4,1.4,0,0,0,85,59s0,0,.11,0c.34,0,.4,0-.12.29l-.09,0c-.56.1-.55,0-.27-.16.07,0,.12-.07.08-.08a2.27,2.27,0,0,0-.24,0c-.08,0,0-.08.29-.21Z"/><path d="M83.14,49.66c.31-.21.53-.24.69-.11s.14.25.23.31a.34.34,0,0,0,.32,0c.46-.24.78-.25,1.21.31v.09a.77.77,0,0,1-1.31.09.41.41,0,0,0-.3-.17c-.11,0-.25.1-.38.13s-.42-.17-.49-.54Z"/><path d="M75.46,67.05c-.27-.14-.35-.21-.27-.21a1.31,1.31,0,0,0,.23.06s0,0-.08-.08c-.28-.18-.29-.25.25-.08l.09,0c.5.27.44.31.12.23-.08,0-.13,0-.11,0a2.36,2.36,0,0,0,.2.13c.06,0,0,0-.34,0Z"/><path d="M73.84,71.87c-.28-.14-.36-.21-.28-.2l.23,0s0,0-.08-.08c-.27-.18-.29-.24.26-.07l.08,0c.51.27.45.31.13.24-.08,0-.13,0-.11,0l.2.12c.06.06,0,0-.35,0Z"/><path d="M73.81,61.63c-.21-.28-.24-.5-.09-.63a2.4,2.4,0,0,0,.32-.17.29.29,0,0,0,0-.29c-.16-.47,0-.82.62-.94l.08,0c.38.55.21.88-.24,1.09-.1.06-.19.12-.2.22a1.9,1.9,0,0,0,.11.34c0,.2-.17.33-.52.38Z"/><path d="M80.89,65.28c-.21-.27-.25-.47-.11-.6s.25-.08.31-.14a.28.28,0,0,0,0-.28c-.17-.44-.07-.77.58-.86l.09,0c.39.53.23.83-.21,1-.1,0-.18.1-.19.19a1.92,1.92,0,0,0,.12.33c0,.18-.16.3-.51.34Z"/><path d="M76.76,70.49c-.15-.28-.2-.39-.09-.4s.21.06.26,0,0-.08,0-.17c-.18-.31,0-.57.51-.3l.06.07c.28.51.22.55-.16.52-.09,0-.16,0-.17.06s.08.17.1.25-.17.16-.44,0Z"/><path d="M70.43,68c-.24-.21-.26-.4-.12-.46s.23,0,.29,0,.05-.09,0-.19c-.06-.39.22-.6.63-.16l0,.09c.07.6,0,.59-.33.45-.08,0-.15,0-.15,0s.07.17.11.23-.09.08-.41,0Z"/><path d="M71.24,70.88c-.25-.21-.26-.4-.13-.45s.23,0,.29,0,.06-.1,0-.19c-.06-.39.21-.6.62-.16l0,.09c.06.59,0,.58-.33.44-.08,0-.15,0-.16,0a1,1,0,0,0,.11.23c0,.1-.08.08-.4,0Z"/><path d="M76,73.77c-.14-.33-.09-.56.09-.65a3.33,3.33,0,0,0,.37-.05.33.33,0,0,0,.12-.27c0-.5.29-.79.94-.61l.06.07c.11.67-.17.87-.65.89-.12,0-.22,0-.26.12a2,2,0,0,0,0,.35c-.06.19-.24.24-.59.2Z"/><path d="M85.6,40.18c.3-.08.41-.08.35,0s-.17.1-.2.13,0,0,.12.05a.23.23,0,0,1,.2.28c-.06.05-.17,0-.45,0l-.09,0a3.76,3.76,0,0,0-.39-.22.19.19,0,0,0,.23.1c.08,0,.12,0,.09-.05l-.23,0c-.08,0,0-.06.29-.2Z"/><path d="M87.4,54.54c.3-.07.41-.08.35,0s-.17.1-.2.13,0,0,.12.05a.24.24,0,0,1,.2.28c-.06.06-.17,0-.45,0l-.09,0c-.26-.14-.34-.21-.39-.22a.19.19,0,0,0,.23.1c.08,0,.12,0,.09-.05l-.23,0c-.08,0,0-.06.28-.2Z"/><path d="M79.22,62.08c.27.15.36.22.29.19l-.23-.05h.1c.32-.08.36-.06-.15.19l-.09,0c-.55.13-.55,0-.26-.16.08-.05.13-.07.1-.1s-.15-.09-.2-.14.06-.08.36,0Z"/><path d="M82.47,44.67c-.23-.24-.25-.43-.12-.51s.24,0,.3-.06,0-.12,0-.21c-.14-.41-.07-.57.54-.57l.08,0c.42.48.21.76-.19.79-.1,0-.18,0-.19.11s.08.19.11.28-.13.17-.47.17Z"/><path d="M84.06,45.31c0-.33,0-.45.11-.45s.2.1.27.08.08-.09.07-.18c0-.39.23-.64.72-.25l0,.08c.07.6,0,.65-.44.56-.1,0-.18,0-.21,0a1.43,1.43,0,0,0,0,.3c-.06.14-.27.14-.51-.09Z"/><path d="M81.19,8c2,2,3.13,4.8,4,7.48s1.51,5.47,2.6,8.08a44.77,44.77,0,0,1,2.36,8.25,26.86,26.86,0,0,1,.35,4.28c0,1.43.06,2.85,0,4.27a155.64,155.64,0,0,1-1.24,17l-.54,4.22-.25,2.11c0,.68.09,1.39,0,2.14A1.74,1.74,0,0,1,88,66.87a2.81,2.81,0,0,1-1,.53,3.89,3.89,0,0,0-1.79.9A4.89,4.89,0,0,0,84.14,70l-.38,1a1.92,1.92,0,0,0-.08,1v.13l-.12.08c-2.37,1.66-5.26,2.12-7.53,3.57a33.35,33.35,0,0,0-3.24,2.56A9.36,9.36,0,0,1,71,79.52a12.09,12.09,0,0,1-2,.76,71.86,71.86,0,0,1-16.26,4.06,19.67,19.67,0,0,1-4.27,0c-1.39-.17-2.76-.38-4.14-.6-2.76-.44-5.51-.91-8.24-1.51A21.42,21.42,0,0,1,32,81c-1.29-.55-2.53-1.19-3.79-1.77a24.21,24.21,0,0,0-3.87-1.5,7.58,7.58,0,0,1-3.67-1.95l.06-.06a7.62,7.62,0,0,0,3.69,1.74,21.35,21.35,0,0,1,4,1.35c1.29.56,2.54,1.17,3.82,1.67a19.91,19.91,0,0,0,4,1.08c2.72.53,5.48.93,8.23,1.3l4.13.54a19.1,19.1,0,0,0,4.07,0,79.29,79.29,0,0,0,16.11-4c2.74-.53,4.43-2.84,6.92-4.33s5.35-1.87,7.62-3.38l-.11.21a2.34,2.34,0,0,1,.13-1.14l.4-1A5.39,5.39,0,0,1,84.91,68a4.32,4.32,0,0,1,2-1c.7-.19,1.2-.56,1.26-1.27s0-1.37,0-2.1l.28-2.12L89,57.31a131.81,131.81,0,0,0,.79-17,63.72,63.72,0,0,0-.44-8.43,44.84,44.84,0,0,0-2.22-8.12,83.1,83.1,0,0,1-2.4-8.19c-.8-2.68-1.67-5.46-3.61-7.56Z"/><path d="M46.37,26.16c.15,2.18-.4,4.35-.3,6.43a11.65,11.65,0,0,0,.21,1.58c0,.26,0,.68.06.62s.19,0,.42,0c.87.08,1.66-.78,2.69-1.3h0a.34.34,0,0,1,.45.15.29.29,0,0,1,0,.18,18.06,18.06,0,0,0-.17,2l-.31-.22a10.78,10.78,0,0,1,2.72,0,.15.15,0,0,1,.15.17.15.15,0,0,1-.1.14,8.33,8.33,0,0,0-1.82,1,3.73,3.73,0,0,0-1.21,1.57,1.1,1.1,0,0,0,.08.43l.09.27a.41.41,0,0,1-.11.4,1,1,0,0,1-.57.25c-.16,0-.13.07-.26.27a7.39,7.39,0,0,0-.94,1.83h0a.27.27,0,0,1-.33.17.27.27,0,0,1-.17-.16l-.58-1.65.68.08a3.7,3.7,0,0,1-.29.47.63.63,0,0,0-.1.3v0a.4.4,0,0,1-.45.34h-.09a2,2,0,0,0-1-.11c-.08,0-.08,0-.12.15A1.56,1.56,0,0,0,45,42v0a.46.46,0,0,1-.41.52.46.46,0,0,1-.39-.13,2,2,0,0,1-.51-1.3,7.28,7.28,0,0,0-.12-1l.52.37a3.82,3.82,0,0,0-1.21.09.46.46,0,0,1-.57-.12h0a6,6,0,0,0-.89-1,.48.48,0,0,1-.09-.67.44.44,0,0,1,.34-.19h0l.6,0-.44.32a3.54,3.54,0,0,0,.06-2v0a.43.43,0,0,1,.29-.52h.17c.35,0,.83-.08,1.41,0l-.18.76a3.06,3.06,0,0,0-.7-.32h0a.33.33,0,0,1-.27-.33V36s-.08-.09.11.12l.07-.62a4.42,4.42,0,0,1,1.89-.17l1.75.16h0a.2.2,0,0,1,0,.4,1.65,1.65,0,0,1-.66,0,.72.72,0,0,1-.5-.47,1.21,1.21,0,0,1,.34-1.17,0,0,0,0,1,.06,0s0,.05,0,.06a1.09,1.09,0,0,0-.17,1c.13.31.52.29.85.2l0,.39a10.4,10.4,0,0,0-3.37.27l.08-.61c.23.26.14.26.18.33l0,.15,0,.23-.3-.33a3.5,3.5,0,0,1,.85.31.39.39,0,0,1-.17.76h0c-.37,0-.82.13-1.42.11l.45-.56a4.05,4.05,0,0,1,0,2.62.46.46,0,0,1-.39.32h-.06l-.6,0,.28-.86a6.31,6.31,0,0,1,1.06,1.13l-.57-.12a3.54,3.54,0,0,1,1.55-.18.49.49,0,0,1,.52.37A9.12,9.12,0,0,1,44.7,41a1.4,1.4,0,0,0,.17.68l-.8.43a2.13,2.13,0,0,1,0-.86,1.12,1.12,0,0,1,.75-.76,2.71,2.71,0,0,1,1.57.18l-.54.32v0a1.47,1.47,0,0,1,.29-.57,2.79,2.79,0,0,0,.26-.32h0a.35.35,0,0,1,.48-.15.34.34,0,0,1,.18.24l.37,1.57-.5,0a8.55,8.55,0,0,1,1.11-1.88c.07-.08.08-.12.18-.24a.71.71,0,0,1,.33-.16.78.78,0,0,0,.41-.13c.06,0,0-.14-.05-.32a1.38,1.38,0,0,1-.09-.6c.59-1.49,2-2.2,3.22-2.83l.06.32a7.86,7.86,0,0,0-2.57.2.25.25,0,0,1-.31-.18v0a14.21,14.21,0,0,1,0-2.06l.5.31c-.41.26-.83.62-1.3.92a2.93,2.93,0,0,1-1.73.59,4.09,4.09,0,0,1-.46,0,.89.89,0,0,1-.62-.37,2.43,2.43,0,0,1-.15-1,10.73,10.73,0,0,1-.16-1.65c0-2.25.73-4.31.92-6.45,0,0,0-.05,0,0s0,0,0,0"/><path d="M49.78,33.62c0-1.22,1.1-2,1.86-2.72a14.62,14.62,0,0,0,2-2.56,27,27,0,0,0,2.81-5.94,34.66,34.66,0,0,1,6.4-11.72A33.3,33.3,0,0,1,65.2,8.24a5.66,5.66,0,0,1,1.37-1,2.43,2.43,0,0,1,1.72-.13,9.22,9.22,0,0,1,2.88,1.76,31.19,31.19,0,0,1,2.48,2.26,10.17,10.17,0,0,1,2.83,6.1,27.65,27.65,0,0,1,.06,6.74l-.35-.48s-.25,0-.26.12l.36.68a5.63,5.63,0,0,0-3,1c-1,.56-1.89,1.23-2.87,1.88a44.53,44.53,0,0,1-6.18,3.27,56.73,56.73,0,0,1-6.52,2.42c-1.11.34-2.2.7-3.28,1.1a4,4,0,0,0-1.45.81,4.71,4.71,0,0,1-1.44,1l0-.09a4.48,4.48,0,0,0,1.31-1.08,4.51,4.51,0,0,1,1.47-1c1.06-.49,2.15-.89,3.23-1.29,2.17-.8,4.29-1.66,6.36-2.66a57.21,57.21,0,0,0,6-3.29c.94-.64,1.88-1.34,2.9-1.94a6.52,6.52,0,0,1,3.54-1.08l.67.05-.31.63a.63.63,0,0,1-.35.3.7.7,0,0,1-.4,0l-.39-.08,0-.41a31.21,31.21,0,0,0,.11-6.55,9.54,9.54,0,0,0-2.44-5.87c-1.5-1.58-3.09-3.29-5.1-4.07-1.06-.39-2,.34-2.78,1.12A20.66,20.66,0,0,0,63.24,11a44.72,44.72,0,0,0-6,11.72,23.68,23.68,0,0,1-3.07,6,12.84,12.84,0,0,1-2.26,2.52c-.84.68-1.91,1.31-2,2.44Z"/><path d="M48.88,38.51a4.28,4.28,0,0,1,2.87,1.43c.36.39.66.83,1,1.19a3.52,3.52,0,0,0,1.33.75c2,.58,3.93.73,6,1.24v.1a7.33,7.33,0,0,1-6.25-.88c-.46-.31-.87-.67-1.3-1s-.92-.55-1.36-.84c-.86-.61-1.5-1.36-2.39-1.92Z"/><path d="M42.06,40.17C40.6,41.53,38.58,42,36.88,42.8a12.55,12.55,0,0,0-4.25,3.68,12.4,12.4,0,0,1-2.12,2.1A17.47,17.47,0,0,1,28,50.11c-1.78.82-3.49,1.69-5.2,2.61s-3.41,1.84-5.09,2.81a11.86,11.86,0,0,0-1.21.78,2.31,2.31,0,0,1-1.41.63c-.67-.15-.85-.76-1.05-1.19a5.85,5.85,0,0,1-.32-1.48,23.52,23.52,0,0,1,.36-5.87,14,14,0,0,0,.21-2.82,8.67,8.67,0,0,1,.32-3l.09-.29.32,0c3.83-.24,7.63-.9,11.47-1.45a60.88,60.88,0,0,1,11.6-.85V40a92.47,92.47,0,0,0-11.47,1.58A87.15,87.15,0,0,1,15,43.17l.41-.3c-.59,1.6-.08,3.75-.64,5.67a22.81,22.81,0,0,0-.61,5.69,5.16,5.16,0,0,0,.22,1.37c.14.43.35.91.69,1s.79-.27,1.18-.53a10,10,0,0,1,1.25-.77c1.69-.94,3.37-1.93,5-2.93C25.76,50.1,29.68,49,32.05,46a12.06,12.06,0,0,1,4.6-3.69c1.82-.76,3.79-1,5.35-2.18Z"/><path d="M41,29.34c-.78-2-.51-4.26-1.73-5.89-.55-.86-1.2-1.67-1.82-2.54s-1.06-1.84-1.67-2.63a3.37,3.37,0,0,0-2.33-1.56,5,5,0,0,0-2.92.6,11.51,11.51,0,0,0-4.4,4.22,10,10,0,0,0-.73,3,4.86,4.86,0,0,1-1.41,3,19.35,19.35,0,0,0-2.32,2c-.26.39-.26.5-.05.78a3.8,3.8,0,0,0,1.18.67c1.84.71,4,.73,6.06,1.48,1,.42,1.91.88,2.89,1.31a8.25,8.25,0,0,1,2.64,1.76l-.07.06a8.8,8.8,0,0,0-2.75-1.39l-2.94-1.06c-1.92-.6-4.07-.48-6.17-1.28A4.36,4.36,0,0,1,21,31a1.4,1.4,0,0,1-.43-1.07,1.73,1.73,0,0,1,.41-1,18.76,18.76,0,0,1,2.51-2c1.49-1.19,1.16-3.65,2.27-5.57A14.72,14.72,0,0,1,30.43,17a6.06,6.06,0,0,1,3.11-.83,3.92,3.92,0,0,1,2.88,1.6c.68.87,1.17,1.8,1.74,2.64s1.2,1.71,1.75,2.64c1.25,2,.77,4.23,1.21,6.22Z"/><path d="M45.08,7.18A3.7,3.7,0,0,1,47.74,8.3,6,6,0,0,1,48.68,11c.1.94,0,1.87.07,2.8s.1,1.84.16,2.77a25.22,25.22,0,0,1-.29,5.56c-.38,1.84-.71,3.55-1,5.42h-.09a17,17,0,0,1,.1-5.56c.28-1.8.54-3.6.75-5.42a12.56,12.56,0,0,0,.05-2.74,18.27,18.27,0,0,0-.52-2.69,10.51,10.51,0,0,0-.78-2.47c-.34-.71-1.28-1-2.1-1.43Z"/><path d="M43.35,44a17.82,17.82,0,0,1-.18,5.83c-.2,1-.5,1.89-.7,2.83s-.32,1.91-.42,2.88a41.81,41.81,0,0,1-.87,5.75c-.46,1.89-1,3.7-1.32,5.61h-.1A17.27,17.27,0,0,1,40.22,61c.46-1.87.8-3.76,1.34-5.63a25.23,25.23,0,0,0,.62-2.84c.13-1,.16-1.93.24-2.89.2-1.92.5-3.79.84-5.72Z"/><path d="M39.06,68.93a21.19,21.19,0,0,0,.17,2.18c.11.7.75.91,1.45,1A13.94,13.94,0,0,0,45,71.83a5.51,5.51,0,0,0,3.42-2.09,5.28,5.28,0,0,0,.18-4.12l.31,0a2.49,2.49,0,0,0,.49,1.91,2.77,2.77,0,0,0,1.73,1,5,5,0,0,0,3.79-1A3.37,3.37,0,0,0,56,64a11.14,11.14,0,0,0-1.67-3.69l.8-.51a4.91,4.91,0,0,0,1.89,2,6.29,6.29,0,0,1,1.29,1,2.85,2.85,0,0,0,.37.42,1.2,1.2,0,0,0,.53-.05,4.83,4.83,0,0,0,2.42-1.44,17,17,0,0,0,1.88-2.34l.08,0A13.79,13.79,0,0,1,61.93,62a5.1,5.1,0,0,1-2.58,1.84,1.72,1.72,0,0,1-1,.07c-.46-.18-.57-.48-.73-.6a5.92,5.92,0,0,0-1.17-.76,5,5,0,0,1-1.3-1,9.09,9.09,0,0,1-.92-1.3l.8-.51a10.24,10.24,0,0,1,1.77,4.06,5,5,0,0,1-.13,2.32A3.83,3.83,0,0,1,55.3,68a5.48,5.48,0,0,1-4.29.86,3.29,3.29,0,0,1-1.89-1.14,3.14,3.14,0,0,1-.56-2.13l.06-.85.24.82A6.2,6.2,0,0,1,48.94,70a5.51,5.51,0,0,1-3.8,2.58,12.38,12.38,0,0,1-4.54.06,2.9,2.9,0,0,1-1.15-.41,1.45,1.45,0,0,1-.63-1.09A14.92,14.92,0,0,1,39,68.93Z"/><path d="M41.08,10a18.33,18.33,0,0,0-2.74.92,6.53,6.53,0,0,0-1.32.61,4,4,0,0,0-1,1.08c-.46.86-1.27,1.69-1.64,2.4-.18.36-.18.48.05.95a4.72,4.72,0,0,1,.64,1.43l0,.07,0,0a.36.36,0,0,1-.51.15l0-.09c.16,0,.21-.08.19-.16v.1c-.26-.38-.65-.65-1-1.08a1.83,1.83,0,0,1-.45-.83,1.6,1.6,0,0,1,.19-1,10.18,10.18,0,0,1,2.18-2.25,12.21,12.21,0,0,0,1.13-1A6.66,6.66,0,0,1,38,10.2a3.77,3.77,0,0,1,3.09-.31Z"/><path d="M45.85,6.86a8.63,8.63,0,0,1,2.77.31,1.37,1.37,0,0,0,1.18-.26,7,7,0,0,0,.88-1.14,4.25,4.25,0,0,1,2.75-1.29,7.72,7.72,0,0,1,2.91.31v.1a25.45,25.45,0,0,1-2.78.57A7.55,7.55,0,0,0,51,6.13a6.37,6.37,0,0,0-1,1,2.2,2.2,0,0,1-1.38.82c-1.18,0-1.9-.63-2.77-1Z"/><path d="M59.37,4.63a3.6,3.6,0,0,1,2.05-.33c.35.07.69.23,1,.29a6,6,0,0,0,1,.07,2.35,2.35,0,0,1,1.11.22,1.62,1.62,0,0,1,.89,1,3.86,3.86,0,0,1,0,2.16l-.09,0a16.39,16.39,0,0,1-.79-1.84c-.11-.45-.58-.7-1.2-1a2.19,2.19,0,0,0-1-.26,5.87,5.87,0,0,0-1,.17,4.08,4.08,0,0,1-2-.34Z"/><path d="M15.52,57c.33,1.4-.78,2.72-.48,3.81A5.92,5.92,0,0,0,16,62.43a7.13,7.13,0,0,1,.73,2,5.3,5.3,0,0,0,.57,1.79,2.69,2.69,0,0,0,1.49,1.08c1.19.5,2.6,1,3.68.31,2.08-1.41,3-4.22,5.26-5.91,2-1.81,4.31-3.14,5.87-5.32l.09,0c-1.11,2.54-3.42,4.24-5.33,6a19.4,19.4,0,0,0-2.63,2.87,9,9,0,0,1-3,2.78c-1.41.64-2.8-.07-4-.46a3.78,3.78,0,0,1-1.79-1.07,5.69,5.69,0,0,1-.9-1.9,8.06,8.06,0,0,0-.69-1.76,6.17,6.17,0,0,1-.91-1.91,3.57,3.57,0,0,1,.49-2.08A4.52,4.52,0,0,0,15.43,57Z"/><path d="M21.88,68a7.79,7.79,0,0,0,2,2.58,9.71,9.71,0,0,0,2.92,1.32,6.11,6.11,0,0,0,1.55.45,1.31,1.31,0,0,0,1.3-.6c.58-.93.54-2.12,1-3.23l.31-.73.17.81c.35,1.59,0,3.17.11,4.62l-.46-.45c1.46,0,2.92.07,4.38.21.73,0,1.48.13,2.15.12.31,0,.73-.08.85-.26s.44-.7.85-.75l0,.09c-.34.17-.43.47-.57.84s-.72.5-1.08.62a12.37,12.37,0,0,1-2.24.16c-1.46,0-2.93,0-4.39-.1l-.46,0v-.42c0-1.62.39-3.1.32-4.58l.49.09c-.57.9-.64,2.11-1.22,3.15a1.92,1.92,0,0,1-1.54,1,7.15,7.15,0,0,1-1.77-.22,6.87,6.87,0,0,1-3.17-1.52A5.75,5.75,0,0,1,21.8,68Z"/><path d="M46.83,42c1.33.43,1.94,2,2.07,3.17.06.64,0,1.28.09,1.9a5,5,0,0,0,.54,1.75c.61,1,1.35,2,2,3.1a7.4,7.4,0,0,1,1.18,3.63l-.08,0a30.1,30.1,0,0,0-1.93-3.15A12.54,12.54,0,0,1,49.06,49c-.16-.64-.23-1.27-.36-1.88s-.36-1.22-.55-1.8a6.9,6.9,0,0,0-1.37-3.24Z"/><path d="M59.06,48.06a1.73,1.73,0,0,1,1.66.63c.18.26.27.55.44.79a2.64,2.64,0,0,0,.62.58,5.72,5.72,0,0,1,2.07,2.61l-.06.07a3,3,0,0,1-1.52-.9,5.63,5.63,0,0,1-.88-1.47,1.9,1.9,0,0,0-.46-.69,3,3,0,0,0-.73-.42A7.48,7.48,0,0,1,59,48.15Z"/><path d="M49.54,43.29a.94.94,0,0,1,1,.43c.07.17.08.38.15.53a.93.93,0,0,0,.39.31,1.66,1.66,0,0,1,1.06,1.6l-.07.06a1.47,1.47,0,0,1-1.39-1.35.7.7,0,0,0-.21-.43,2.65,2.65,0,0,0-.49-.2,1.1,1.1,0,0,1-.45-.87Z"/><path d="M54.58,37.23a10.64,10.64,0,0,1,4-.93,10.89,10.89,0,0,0,3.91-.91c1.26-.51,2.51-1,3.8-1.42a11.53,11.53,0,0,1,4.09-.54v.09l-3.8,1.38a20.92,20.92,0,0,1-3.95,1,13.34,13.34,0,0,0-2,.45c-.65.21-1.25.56-1.94.74a24.28,24.28,0,0,1-4.06.26Z"/><path d="M76.11,25.19a6.57,6.57,0,0,1,0,1.93l-.27-.23.53-.16a.23.23,0,0,1,.29.13h0a5.58,5.58,0,0,1,0,3.76A17.31,17.31,0,0,0,76,34.08l-.77,0c.09-1-.22-2.08-.18-3.24h.48a86,86,0,0,0-.23,9.5.3.3,0,0,1-.2.3l0,0a1.69,1.69,0,0,1-1.65-.29,4,4,0,0,1-.9-1.22l.79-.31a13.73,13.73,0,0,1,.71,5h0a.48.48,0,0,1-.51.44H73.4a1.78,1.78,0,0,0-.47-.05c-.09,0-.07,0-.15.13s-.27.83-.4,1.18c-.06.19-.11.39-.17.61a1.24,1.24,0,0,1-.5.82,3.74,3.74,0,0,1-1.49.21,43.88,43.88,0,0,1-5.28-.43,0,0,0,0,1,0,0s0,0,0-.05q1.32-.09,2.64-.09c.88,0,1.73-.05,2.61-.12a3.63,3.63,0,0,0,1.09-.18,6.68,6.68,0,0,0,.23-1c.15-.49.22-.78.43-1.33a1.12,1.12,0,0,1,.83-.66,2.27,2.27,0,0,1,.84.05l-.58.44A15.81,15.81,0,0,0,72.45,39h0a.43.43,0,0,1,.8-.31,3.82,3.82,0,0,0,.66,1,.91.91,0,0,0,.93.22l-.25.32A85.65,85.65,0,0,0,75,30.81a.24.24,0,0,1,.23-.25.25.25,0,0,1,.25.23v0A29.57,29.57,0,0,1,76,34.1a.38.38,0,0,1-.4.37.4.4,0,0,1-.38-.38h0A11.93,11.93,0,0,1,76,30.43,5.83,5.83,0,0,0,76.25,27l.29.14-.54.1h0a.2.2,0,0,1-.23-.16v-.08A7.21,7.21,0,0,0,76,25.2a0,0,0,0,1,0-.05s0,0,0,0"/><path d="M64.41,59.38c-.07-.48,0-1,0-1.36a.4.4,0,0,0-.17-.32,1.68,1.68,0,0,0-.46-.14l.09-.81a3.17,3.17,0,0,0,2.44-.91,6.51,6.51,0,0,0,1.16-2.6c.29-.91.45-1.85.69-2.78s.43-1.87.68-2.84H69a8.71,8.71,0,0,1,.14,3,9.62,9.62,0,0,1-.84,2.91A11,11,0,0,1,66.54,56a3.31,3.31,0,0,1-2.69,1.54l.1-.82a1.77,1.77,0,0,1,.8.38,1,1,0,0,1,.29.92,6.13,6.13,0,0,1-.54,1.35Z"/><path d="M19.8,30.47a7.31,7.31,0,0,0-.25,1.46c-.07.49-.11,1-.22,1.49a7.4,7.4,0,0,1-.53,1.47c-.24.45-.36,1-1,1.3l.12-.1a8,8,0,0,0-.12,1.78,4.2,4.2,0,0,1-.41,2A7.49,7.49,0,0,1,16,41.2c-.41.39-.68.76-.19,1.29l-.05.08a1,1,0,0,1-.69-.8,1.72,1.72,0,0,1,.35-1.05c.36-.55.9-1,1.11-1.36.5-.82.41-2.25,1.07-3.4l.05-.09h.07c.38-.08.65-.6.69-1.08s0-1,.11-1.51a9.28,9.28,0,0,1,.35-1.5,3,3,0,0,1,.85-1.36Z"/><path d="M88.51,45.53A2.9,2.9,0,0,1,89,47.35,3.42,3.42,0,0,1,88.05,49a3.74,3.74,0,0,0-1.16,3,30,30,0,0,1-.36,3.62,4.94,4.94,0,0,1-.61,1.75,1.83,1.83,0,0,1-1.75.79L84,58a.08.08,0,0,0,0,0l.05,0a.25.25,0,0,0,.3,0c.06,0,.06-.1.06-.08v.09l0,.22,0,.47c0,.32-.06.64-.1.95a9.69,9.69,0,0,1-.44,1.9,5.53,5.53,0,0,1-1,1.79,3.1,3.1,0,0,1-1.9,1l.39-.58a2,2,0,0,1-.15,1.49,1.47,1.47,0,0,1-1.45.6l.43-.41c0,1.31.78,2.76.59,4.29h-.09c-.14-1.46-1.18-2.6-1.3-4.27l0-.41h.46c.33,0,.54-.09.61-.26a1.28,1.28,0,0,0,0-.81l-.14-.5.53-.07A3.2,3.2,0,0,0,83,61.35a13.77,13.77,0,0,0,.54-1.72l.19-.91.1-.46,0-.24,0-.14a.47.47,0,0,1,.11-.17.29.29,0,0,1,.33,0c.06,0,0,0,.06.06l.06.1-.21-.16a1.34,1.34,0,0,0,1.42-.48,3.31,3.31,0,0,0,.56-1.61A17.8,17.8,0,0,0,86.13,52a4.37,4.37,0,0,1,.25-1.93,5.22,5.22,0,0,1,1.15-1.55,3.26,3.26,0,0,0,1-1.3,3.24,3.24,0,0,0-.09-1.68Z"/><path d="M23.1,35a5.45,5.45,0,0,1,1.74-.27,3.82,3.82,0,0,1,1.78.4l.57.29-.48.38a3.27,3.27,0,0,1-1.81.67h0l.05-.23c1.09.63,2.34.47,3.67.53a4.68,4.68,0,0,1,2,.54c.6.27,1.13.61,1.74.86v.09a5.47,5.47,0,0,1-2-.21,10.55,10.55,0,0,0-1.81-.31c-.62-.1-1.29-.14-2-.31a3.3,3.3,0,0,1-1.81-1l-.22-.26.27,0h0a8.51,8.51,0,0,0,1.36-1l.08.67a32,32,0,0,0-3.16-.76Z"/><path d="M20.09,46.31A1.59,1.59,0,0,1,21.32,46a3.48,3.48,0,0,0,.62.21,1.12,1.12,0,0,0,.61-.14A2.61,2.61,0,0,1,25,46l0,.09a2.34,2.34,0,0,1-2.45.48,1.25,1.25,0,0,0-.63-.07,6,6,0,0,0-.61.25,1.47,1.47,0,0,1-1.25-.33Z"/><path d="M27.2,58c-.27-.2-.31-.39-.19-.5s.24-.05.3-.09.05-.13,0-.23c-.15-.4.1-.76.68-.49l.06.08c.17.59.1.63-.31.67-.1,0-.17,0-.18.11s.1.18.14.25-.1.18-.43.23Z"/><path d="M34.67,65.58a6.42,6.42,0,0,1,.12-2.19.55.55,0,0,0-.26-.56,2.57,2.57,0,0,0-1-.41l-.19,0,.08-.16c.27-.58.4-1.21.7-1.84a2.32,2.32,0,0,1,.74-.83,1.91,1.91,0,0,1,1.18-.31l-.53.52a6.37,6.37,0,0,1,.71-3.4l.09,0c.09,1.17.11,2.24.17,3.32l0,.62-.57-.1a1.36,1.36,0,0,0-1.27.56,4.23,4.23,0,0,0-1,1.55l-.11-.2a7.52,7.52,0,0,1,1.19.14,1.06,1.06,0,0,1,.82,1.18,3.49,3.49,0,0,1-.37,1.13l-.48,1Z"/><path d="M42.86,42.07a10.06,10.06,0,0,1-1.14,2.46c-.28.36-.61.7-.86,1.08a8.37,8.37,0,0,0-.63,1.23,8.25,8.25,0,0,1-1.59,2.28,10.38,10.38,0,0,1-2.14,1.71l-.07,0a10.27,10.27,0,0,1,1.49-2.33c.64-.7,1.25-1.23,1.89-1.89a4.52,4.52,0,0,0,.79-1.1c.19-.41.29-.87.45-1.3A5,5,0,0,1,42.79,42Z"/><path d="M45.74,50a32.82,32.82,0,0,0,.54,3.32,13,13,0,0,1,.34,3.42c-.06,1.16-.32,2.29-.45,3.41a22.57,22.57,0,0,0-.27,3.35l-.75-.14a55,55,0,0,0,1.58-5.55l.45-2.65.39,2.62a14.67,14.67,0,0,0,.86,4l-.07,0A8.74,8.74,0,0,1,46.73,58l.85,0a18.58,18.58,0,0,1-1.7,5.7l-1,2.69.29-2.84c.12-1.16.51-2.25.73-3.35A9,9,0,0,0,46,56.77c-.17-1.1-.34-2.19-.46-3.33a10.14,10.14,0,0,1,.1-3.43Z"/><path d="M54.8,9.29a15.89,15.89,0,0,1-.25,4.77c-.19.77-.46,1.53-.64,2.3s-.3,1.56-.41,2.35a19,19,0,0,1-1.12,4.69,7.76,7.76,0,0,1-1.33,2.1,3.45,3.45,0,0,1-2.17,1.17l0-.09c1.42-.73,2-2.16,2.61-3.56s1-2.93,1.55-4.42a14,14,0,0,0,.59-2.29c.12-.79.13-1.59.19-2.37a26.1,26.1,0,0,1,.91-4.66Z"/><path d="M56.38,15.19a1.34,1.34,0,0,1-.17,1.12,2.27,2.27,0,0,0-.41.41.9.9,0,0,0-.08.54A2.05,2.05,0,0,1,55,19.32l-.09,0a1.94,1.94,0,0,1,.37-2.19,1.16,1.16,0,0,0,.28-.49c0-.19,0-.41,0-.61a1.19,1.19,0,0,1,.79-.86Z"/><path d="M68,14.73a13.84,13.84,0,0,1-2,2.72c-.41.38-.87.73-1.25,1.15a11.34,11.34,0,0,0-1,1.36,9.57,9.57,0,0,1-2.24,2.58,13.77,13.77,0,0,0-2.43,2.2l-.08,0a5.23,5.23,0,0,1,1.86-2.9c.42-.39.87-.72,1.28-1.07l1.23-1.11a7.81,7.81,0,0,0,1.15-1.22c.33-.46.58-1,.89-1.45a7.91,7.91,0,0,1,2.51-2.3Z"/><path d="M66.22,21.73a3.18,3.18,0,0,1-1.3.93,5.42,5.42,0,0,0-.8.17,2,2,0,0,0-.62.5,4.84,4.84,0,0,1-2.67,1.73L60.77,25a3.46,3.46,0,0,1,2.46-2.08,2.61,2.61,0,0,0,.74-.33c.21-.17.38-.42.59-.6a2,2,0,0,1,1.63-.33Z"/><path d="M31.57,23.26c.36-.09.58,0,.67.19s0,.29,0,.39a.4.4,0,0,0,.28.17A.7.7,0,0,1,33,25.18l-.08,0c-.67-.15-.78-.37-.76-.89a.35.35,0,0,0-.11-.29,1.38,1.38,0,0,0-.37-.05c-.19-.08-.25-.29-.18-.65Z"/><path d="M30,25.31c.25-.22.47-.22.57-.07s0,.25.05.32.13.08.24.07c.45,0,.75.25.43.81l-.08,0c-.62.08-.7-.06-.68-.48,0-.1,0-.19-.09-.21a1.15,1.15,0,0,0-.29.08c-.15,0-.18-.14-.19-.48Z"/><path d="M41.9,13.07A3.49,3.49,0,0,1,44,14.75c.21.42.33.87.5,1.29s.4.8.57,1.25a3.91,3.91,0,0,1-.08,2.8c-.34.85-.74,1.54-1.05,2.4h-.09a4.77,4.77,0,0,1,.21-2.71,6.92,6.92,0,0,0,.51-2.39,2.47,2.47,0,0,0-.34-1.22,5.7,5.7,0,0,0-.86-1c-.56-.64-1-1.32-1.56-2Z"/><path d="M39.78,37.31a.87.87,0,0,1-.8-.83c0-.2.12-.4.13-.57A1,1,0,0,0,39,35.4a2.74,2.74,0,0,1-.34-.92c0-.3,0-.54,0-1l.07-.06a1.15,1.15,0,0,1,.86.84,1.84,1.84,0,0,1-.12,1.09.8.8,0,0,0-.06.5,1.62,1.62,0,0,0,.31.43,1.75,1.75,0,0,1,.12.94Z"/><path d="M70,44.17a2.84,2.84,0,0,1-2.35.94,9.66,9.66,0,0,0-1.21-.25,3.22,3.22,0,0,0-1.17.24,12.29,12.29,0,0,1-2.33.7,5.09,5.09,0,0,1-2.5-.2v-.09a13.45,13.45,0,0,1,4.75-.91,9.19,9.19,0,0,0,2.46-.26L70,44.08Z"/><path d="M54.75.43c-5.13,0-10,2-14.45,4.32a90.08,90.08,0,0,0-12.71,8.39,41.37,41.37,0,0,0-9.73,11.54,128.14,128.14,0,0,0-6.79,13.63A47.24,47.24,0,0,0,7.61,53.05,26.64,26.64,0,0,0,10.69,67.7c2.61,4.4,7.35,7,12.13,8.58a53.78,53.78,0,0,0,15,2.37A36,36,0,0,0,52.65,76a39,39,0,0,0,12.26-8.73,38,38,0,0,0,8-12.75c1.63-5,5.42-8.83,6.56-13.71a93.59,93.59,0,0,0,2.52-15c.23-2.53.38-5.07.36-7.6a28,28,0,0,0-.88-7.48A11.76,11.76,0,0,0,77.5,4.51a15.25,15.25,0,0,0-6.92-2.74A53.46,53.46,0,0,0,63,1.18,37.84,37.84,0,0,1,59.15,1C58.51.93,57.9.71,57.28.59A10.8,10.8,0,0,0,55.39.42V.33a11.26,11.26,0,0,1,1.92.12c.64.11,1.24.31,1.87.39A37.14,37.14,0,0,0,63,.89a47.94,47.94,0,0,1,7.66.43,15.74,15.74,0,0,1,7.19,2.75,12.33,12.33,0,0,1,4.23,6.43,28.48,28.48,0,0,1,1,7.66c0,2.57-.06,5.13-.26,7.69A89,89,0,0,1,80.35,41a25.31,25.31,0,0,1-3.19,7.06,40,40,0,0,0-3.41,6.76A38.92,38.92,0,0,1,52.92,76.61a36.64,36.64,0,0,1-15.1,2.54,54.17,54.17,0,0,1-15.11-2.53c-4.81-1.6-9.56-4.31-12.32-8.74A27.12,27.12,0,0,1,7.08,53a47.84,47.84,0,0,1,3.34-15c.9-2.42,2.08-4.68,3.15-7a76,76,0,0,1,3.61-6.79,42.23,42.23,0,0,1,10-11.62,91.2,91.2,0,0,1,12.9-8.32C44.61,2,49.6.17,54.76.34Z"/><path d="M65.05,79.55a.89.89,0,0,1,.2-.88,2.16,2.16,0,0,0,.43-.22.65.65,0,0,0,.15-.42,1.1,1.1,0,0,1,1.33-1.12l0,.07a1.51,1.51,0,0,1-1,1.34.58.58,0,0,0-.32.29,3.58,3.58,0,0,0,0,.48.81.81,0,0,1-.77.51Z"/><path d="M68.54,76.26c.22-.24.38-.27.42-.15s0,.23,0,.28.09,0,.19,0c.36-.13.64.16.2.6l-.09,0c-.58.1-.54.11-.45-.26,0-.08,0-.15,0-.15s-.16.09-.23.12-.1-.1,0-.41Z"/><path d="M68.19,79.52c-.25-.21-.29-.36-.17-.42a2.44,2.44,0,0,0,.28,0s0-.09,0-.18c-.15-.35.13-.65.59-.24l0,.09c.13.57.14.53-.23.46-.09,0-.15,0-.15,0s.1.16.13.22-.09.11-.41.07Z"/><path d="M50.31,80.3c.13-.28.18-.37.16-.29l-.07.22s0,0,.06-.09c.15-.29.19-.31,0,.22l0,.09c-.25.51-.26.47-.16.16,0-.08,0-.13,0-.11l-.11.21c0,.07,0,0,.09-.32Z"/><path d="M41.24,81.83c-.08-.3-.07-.41,0-.37a1.81,1.81,0,0,0,.17.19s0,0,0-.12.06-.27.16-.29a.4.4,0,0,1,.23.46l0,.09a.51.51,0,0,0-.06.43L41.61,82c0-.06-.08-.1-.09-.07s0,.17,0,.24-.09,0-.26-.25Z"/><path d="M41.42,79.88a.69.69,0,0,1,.78-.36c.13.07.26.22.38.26a.57.57,0,0,0,.4,0,1,1,0,0,1,1.48.5l0,.09a1.09,1.09,0,0,1-1.53-.09.45.45,0,0,0-.36-.15,1.8,1.8,0,0,0-.38.21c-.24.06-.46,0-.74-.32Z"/><path d="M48.64,83.83c.19-.29.35-.37.48-.28s.13.21.21.24.15,0,.22-.09c.3-.32.54-.37.91.16V84c-.24.6-.61.59-.93.25-.08-.08-.15-.13-.23-.11s-.17.16-.25.22-.32-.06-.43-.39Z"/><path d="M44.55,81.94c0-.34.15-.51.34-.48s.21.15.29.17.15,0,.23-.13c.32-.35.71-.34.92.26v.09c-.39.53-.59.46-.87.15-.08-.07-.15-.11-.22-.08s-.1.2-.14.27-.24,0-.5-.17Z"/><path d="M55,81.41c.19-.26.24-.36.29-.27a.83.83,0,0,0,.06.25s.08,0,.13-.09c.17-.31.48-.29.45.31l0,.09c-.32.48-.33.45-.48.1,0-.08-.06-.14-.1-.12s-.11.16-.17.21-.21-.08-.17-.4Z"/><path d="M58.09,83.1c-.08-.36,0-.61.25-.71a2.67,2.67,0,0,0,.42,0,.48.48,0,0,0,.21-.28.81.81,0,0,1,1.26-.48l0,.09c-.16.7-.49.84-1,.8a.39.39,0,0,0-.31.1c-.07.1-.06.27-.1.38s-.31.25-.68.2Z"/><path d="M56.56,78.4c-.06-.32,0-.45.1-.39a2.37,2.37,0,0,0,.15.21s.06,0,.08-.12.13-.25.22-.25.22.17.19.48l0,.08c-.13.26-.12.38-.16.42S57,78.77,57,78.6s-.08-.12-.1-.09a.9.9,0,0,0,0,.24c0,.09-.07,0-.25-.27Z"/><path d="M62,80.9c-.14-.29-.08-.47.05-.45s.19.13.24.13.07-.06.08-.14c.05-.39,0-.41.52-.08l.06.06c.24.57-.1.71-.37.47-.07,0-.13-.08-.16,0a1.17,1.17,0,0,0,0,.26c0,.1-.1,0-.37-.14Z"/><path d="M58.15,80.84c-.09-.3-.08-.41,0-.37s.13.16.17.19,0,0,0-.13.07-.27.17-.28.26.16.22.46l0,.08a.54.54,0,0,0-.07.43,1.09,1.09,0,0,0-.12-.21c0-.07-.08-.11-.09-.08a1.2,1.2,0,0,0,0,.24q0,.14-.27-.24Z"/><path d="M62.24,81.47c-.15-.28-.15-.42,0-.41a1.17,1.17,0,0,0,.23.11s0-.07,0-.15c-.11-.35-.19-.29.4-.2l.08,0c.47.38.21.68-.13.53-.09,0-.15,0-.16,0a1.38,1.38,0,0,0,.06.26c0,.1-.12.07-.39-.11Z"/><path d="M63.65,81.7c-.07-.33,0-.49.16-.51a1.42,1.42,0,0,0,.31.08c.07,0,.1-.09.12-.2.07-.43.32-.63.8-.27l0,.08c0,.67-.18.76-.57.63-.1,0-.19,0-.23,0s0,.21,0,.3-.23.11-.52-.06Z"/><path d="M56.59,79.07c.15-.29.06-.41.06-.33a.64.64,0,0,0,.06.23s0,0,0-.11c-.12-.33-.31-.18.24,0l.08,0c.48.37.16.64-.1.38-.06,0-.11-.09-.12-.06a1.76,1.76,0,0,1-.06.25c-.08.1-.26,0-.19-.35Z"/><path d="M53.26,81.48c-.26-.16-.34-.26-.24-.28s.21,0,.25,0,0-.06,0-.13c-.19-.31,0-.54.39-.06l0,.08c.18.56.27.45,0,.28-.08,0-.13,0-.12,0a1.14,1.14,0,0,0,.19.15c0,.06-.06,0-.36,0Z"/><path d="M50.36,82c0-.31.07-.42.15-.36s.1.19.14.21.07,0,.1-.11c.09-.36.54-.36.47.25l0,.08c-.34.5-.18.49-.37.17,0-.08-.09-.12-.12-.09a2.06,2.06,0,0,0-.07.25c-.06.08-.17,0-.27-.31Z"/><path d="M45.83,79c.21-.25.33-.31.39-.21a1,1,0,0,0,0,.27s.09,0,.15-.06c.27-.27.26-.3.47.26v.09c-.15.6-.54.51-.63.13,0-.09,0-.15-.1-.14s-.15.12-.23.16-.16-.1-.13-.42Z"/><path d="M38.38,80.49c0-.32.06-.42.11-.36a2,2,0,0,0,.12.22s0,0,0-.12a.82.82,0,0,0,0-.24s.07.16.36.24l.09,0a.37.37,0,0,1,.14.51c-.1.08-.24.07-.37-.07s-.11-.1-.13-.06a2.33,2.33,0,0,0-.06.25c-.06.09-.16,0-.24-.31Z"/><path d="M48.83,80.36c-.27-.16-.31-.31-.21-.31s.19.09.23.1,0,0,0-.12c-.14-.31,0-.44.31,0l0,.09c.2.53.23.47,0,.25-.06,0-.1-.08-.09,0a.81.81,0,0,0,.16.17.89.89,0,0,0-.31-.14Z"/><path d="M63.28,77c-.24-.21-.28-.37-.14-.44s.23,0,.29,0,.06-.1,0-.2c0-.43.26-.58.65-.13l0,.08c0,.61-.07.61-.36.43-.08,0-.15,0-.15,0s.08.16.12.23-.09.1-.41.07Z"/><path d="M65.94,75.92c-.25-.2-.29-.37-.15-.44s.23,0,.29,0,.06-.09,0-.2c0-.42.26-.58.65-.13l0,.09c0,.6-.07.6-.36.43-.08,0-.15,0-.15,0a.64.64,0,0,0,.12.23c0,.09-.09.1-.41.07Z"/><path d="M61.32,77.24c-.26-.18-.31-.32-.2-.34s.21,0,.26,0,0-.06,0-.14-.08-.26,0-.3.13.1.42.18l.08,0a.47.47,0,0,1,.22.45c-.06.06-.13,0-.29,0s-.13,0-.13,0,.11.13.15.18,0,0-.35,0Z"/><path d="M63.22,75c-.28-.15-.36-.22-.28-.21l.23,0s0,0-.08-.08c-.27-.18-.29-.25.26-.08l.09,0c.5.27.44.31.12.23-.08,0-.13,0-.11,0a1.4,1.4,0,0,0,.2.13c.06.06,0,0-.35,0Z"/><path d="M63.71,72.79c-.27-.15-.35-.21-.27-.21l.23,0s0,0-.08-.08c-.28-.17-.29-.24.25-.07l.09,0c.5.28.45.31.12.24-.07,0-.13,0-.11,0l.2.13c.06.05,0,0-.34,0Z"/><path d="M60.57,77.78c-.14-.29-.15-.43,0-.44s.21.08.26.07.06-.08,0-.17c-.09-.36,0-.52.55-.23l.06.07c.25.54.09.64-.27.53-.09,0-.16,0-.17,0a1.57,1.57,0,0,0,.05.27c0,.12-.15.11-.43-.06Z"/><path d="M65.7,74.15c-.15-.29-.15-.43,0-.44s.21.08.26.07,0-.08,0-.17c-.09-.36,0-.52.54-.23l.07.07c.25.54.09.64-.27.53-.09,0-.16,0-.17,0s0,.19,0,.27-.15.11-.43,0Z"/><path d="M78.73,72.12c-.15-.28-.19-.39-.09-.4a1.51,1.51,0,0,0,.26,0s0-.09,0-.17c-.18-.31,0-.57.51-.3l.06.07c.29.51.22.55-.16.52-.09,0-.16,0-.16.06s.07.17.09.25-.16.16-.44,0Z"/><path d="M85.13,61.59c-.15-.28-.19-.39-.09-.4s.21.06.26,0,0-.08,0-.16c-.18-.32,0-.58.51-.31l.06.07c.29.52.22.55-.16.53-.09,0-.16,0-.16,0a1.43,1.43,0,0,0,.1.25c0,.13-.17.16-.45,0Z"/><path d="M87.36,60.76c-.15-.28-.2-.39-.09-.4s.2.06.26,0,0-.08,0-.16c-.18-.32,0-.58.51-.31l.06.07c.29.52.22.55-.16.53-.09,0-.16,0-.16,0s.08.17.1.26-.17.15-.45,0Z"/><path d="M86.63,57.84c-.15-.28-.2-.38-.09-.4s.21.06.26,0,0-.08,0-.16c-.18-.32,0-.57.51-.3l.06.06c.28.52.22.56-.16.53-.09,0-.16,0-.17,0a2.24,2.24,0,0,0,.1.26c0,.12-.17.15-.44,0Z"/></g></g></svg>