<svg xmlns="http://www.w3.org/2000/svg" viewBox="0 0 132.96 117.76"><defs><style>.cls-1{fill:#bcbec0;}</style></defs><g id="Layer_2" data-name="Layer 2"><g id="Ingredients_Map" data-name="Ingredients Map"><path class="cls-1" d="M128.7,11.27c-2.64.64-15.48,6.4-18.11,7,0,0-16.47,9.41-11,2.9,1.22-.86,20.62-10,22-10.69,2.82-1.59,1.56-4.65-1.29-3.18-3,1.68-14.26,7.21-17.38,8.6,0-.31,8.73-7.33,8.77-7.64.13-1.07-.12-2-1.08-2.27-1.15-.32-5.3,2.48-6,3.37-4.32,5.66-11.19,8.76-17.89,10.53-1.9.5-3.82.91-5.75,1.27-1,.19-2,.36-3,.52l-1.38.22c0-.43,0-.85,0-1.28,0-1,.06-2,.1-3.08.09-2-2.35-6.88-2.56-8.84a12.92,12.92,0,0,0-2.81-7.46c-.72-1.11-2.83-.19-3.42.89l-8.07,15C52.24,15.23,49,10.47,43.22,8.9c-2.23-.6-2.54,1-1.62,2.9,1.59,3.27,1.72,8.27,2.22,11.78.27,1.93,6.36,9,6.64,9.25-.14.09-5.1-.34-5.78.12l-4.3,2.91Q36.2,38.71,32,41.55c-1.22.83-1.81,2.82-.5,3.93A10.83,10.83,0,0,0,33,46.56C29.05,49.14,24.35,52,19.8,53.17,16.69,54,13,54.26,10,55.37c-3.16,1.16-6.38,1.45-8.52,4.17A6.11,6.11,0,0,0,.31,65.38,5.08,5.08,0,0,0,5.1,69c3.22,0-2.47-4.18-2.48-4.24a9,9,0,0,1,.67-3.41c1.2-1.2,4.13-2.37,5.67-3,3.23-1.39,8-.9,11.41-1.77l1.2-.31a23.83,23.83,0,0,0-4.81,3.59,11.36,11.36,0,0,0-4,3.43,5.45,5.45,0,0,0,0,5.84c1.15,1.67,4,1.62,4.57-.6a10.86,10.86,0,0,1,2.43-4.65c1-.6,2-1.19,2.95-1.76,2.48-1.45,5-2.85,7.46-4.3,1.17-.42,2.32-.8,3.41-1.17a42,42,0,0,0,11.17-5.17c.72-.51,1.46-1.1,2.22-1.69a49.45,49.45,0,0,1-9.47,10.2l-1.09.72c-1.29.87-2.62,1.75-4,2.55A25.08,25.08,0,0,1,22.2,66c-3.28.17-3.16,4.66,0,5,5.18.57,9.88-1.65,14.22-4.37C37.34,66.08,59,48.41,60.64,47.3c.76-.5,2,4.91,5.18,5.41,3,.46,5.71-.25,8.65.3,4.67.87,12.35,5.59,13.13,2.65.22-.83-6.09-11.56-10.16-15.4C84.7,38,90.79,34.08,97.8,31.14c1.29-.54,1.33-1.7,1.11-2.85,8.78-4.41,22.61-11.66,31.39-16.07C132.9,10.91,131.37,10.62,128.7,11.27Z"/><path class="cls-1" d="M59.53,80.4h1.6V92.31H59.41V83l-3.66,4.6h-.31L51.73,83v9.27H50V80.4h1.61l4,4.89Z"/><path class="cls-1" d="M68.75,87.59v3.34c0,.26.1.4.28.4a1.92,1.92,0,0,0,.88-.42v.94a5.24,5.24,0,0,1-.85.47,1.93,1.93,0,0,1-.67.12c-.67,0-1.06-.26-1.18-.78a3.38,3.38,0,0,1-2.1.77,1.86,1.86,0,0,1-1.91-1.9,1.94,1.94,0,0,1,.53-1.33,3.67,3.67,0,0,1,1.51-.93l2-.68v-.42a1.25,1.25,0,0,0-1.42-1.41,3.43,3.43,0,0,0-2.47,1.31V85.38a3.22,3.22,0,0,1,2.6-1.07A3,3,0,0,1,68,85a2.19,2.19,0,0,1,.46.56,2,2,0,0,1,.26.71A10.2,10.2,0,0,1,68.75,87.59Zm-1.52,3.17V88.43l-1,.4a3.56,3.56,0,0,0-1.12.63,1.08,1.08,0,0,0-.33.8,1,1,0,0,0,.31.79,1.09,1.09,0,0,0,.81.31A2,2,0,0,0,67.23,90.76Z"/><path class="cls-1" d="M76.86,80.4h1.56V92.31H75.1a3.64,3.64,0,0,1-2.77-1.1,4.14,4.14,0,0,1-1-2.95,3.93,3.93,0,0,1,1.08-2.85,3.74,3.74,0,0,1,2.78-1.12,5.08,5.08,0,0,1,1.7.34Zm0,10.58V86a3.14,3.14,0,0,0-1.47-.37,2.35,2.35,0,0,0-1.84.76,2.94,2.94,0,0,0-.69,2,2.67,2.67,0,0,0,.6,1.86,1.85,1.85,0,0,0,.76.53,5.14,5.14,0,0,0,1.44.14Z"/><path class="cls-1" d="M85.8,87.59v3.34c0,.26.09.4.27.4a1.88,1.88,0,0,0,.88-.42v.94a4.52,4.52,0,0,1-.85.47,1.84,1.84,0,0,1-.66.12c-.67,0-1.06-.26-1.18-.78a3.39,3.39,0,0,1-2.11.77,1.88,1.88,0,0,1-1.91-1.9,1.9,1.9,0,0,1,.54-1.33,3.61,3.61,0,0,1,1.51-.93l2-.68v-.42a1.25,1.25,0,0,0-1.42-1.41,3.41,3.41,0,0,0-2.47,1.31V85.38A3.22,3.22,0,0,1,83,84.31,3,3,0,0,1,85,85a2.19,2.19,0,0,1,.46.56,2.27,2.27,0,0,1,.26.71A12.42,12.42,0,0,1,85.8,87.59Zm-1.52,3.17V88.43l-1,.4a3.45,3.45,0,0,0-1.12.63,1.08,1.08,0,0,0-.33.8,1,1,0,0,0,.31.79,1.07,1.07,0,0,0,.8.31A2,2,0,0,0,84.28,90.76Z"/><path class="cls-1" d="M88.27,87.17a2.41,2.41,0,0,1,.92-2,3.94,3.94,0,0,1,2.5-.73h3.23v1.21H93.34a3.51,3.51,0,0,1,.64.86,2.19,2.19,0,0,1,.17.88,2.35,2.35,0,0,1-.34,1.2,2.53,2.53,0,0,1-.9.91,5.43,5.43,0,0,1-1.81.5c-.58.09-.87.29-.87.61a.53.53,0,0,0,.32.45,6,6,0,0,0,1.19.36,13.32,13.32,0,0,1,1.86.49,2.45,2.45,0,0,1,.74.51,1.92,1.92,0,0,1,.57,1.42,2.06,2.06,0,0,1-1,1.78,4.73,4.73,0,0,1-2.65.66,4.79,4.79,0,0,1-2.68-.66,2.08,2.08,0,0,1-1-1.8c0-1.06.66-1.75,2-2-.52-.34-.78-.67-.78-1a.88.88,0,0,1,.34-.68,1.91,1.91,0,0,1,.9-.45A2.59,2.59,0,0,1,88.27,87.17Zm2.55,5.5a2.2,2.2,0,0,0-1.28.34,1,1,0,0,0-.5.85c0,.81.73,1.21,2.18,1.21a3.48,3.48,0,0,0,1.6-.3,1,1,0,0,0,.57-.86c0-.36-.24-.66-.72-.89A4.27,4.27,0,0,0,90.82,92.67Zm.37-6.86a1.49,1.49,0,0,0-1.08.43,1.37,1.37,0,0,0-.44,1,1.3,1.3,0,0,0,.44,1,1.54,1.54,0,0,0,1.1.4,1.55,1.55,0,0,0,1.09-.41,1.32,1.32,0,0,0,.44-1,1.34,1.34,0,0,0-.44-1A1.6,1.6,0,0,0,91.19,85.81Z"/><path class="cls-1" d="M101.4,87.59v3.34c0,.26.09.4.27.4a1.88,1.88,0,0,0,.88-.42v.94a4.52,4.52,0,0,1-.85.47,1.85,1.85,0,0,1-.67.12q-1,0-1.17-.78a3.39,3.39,0,0,1-2.11.77,1.82,1.82,0,0,1-1.36-.55,1.8,1.8,0,0,1-.55-1.35,1.9,1.9,0,0,1,.54-1.33,3.61,3.61,0,0,1,1.51-.93l2-.68v-.42a1.25,1.25,0,0,0-1.42-1.41A3.41,3.41,0,0,0,96,87.07V85.38a3.22,3.22,0,0,1,2.6-1.07,3,3,0,0,1,2,.67,2.19,2.19,0,0,1,.46.56,2,2,0,0,1,.25.71A9.66,9.66,0,0,1,101.4,87.59Zm-1.52,3.17V88.43l-1,.4a3.63,3.63,0,0,0-1.13.63,1.11,1.11,0,0,0-.32.8,1,1,0,0,0,.31.79,1.05,1.05,0,0,0,.8.31A2,2,0,0,0,99.88,90.76Z"/><path class="cls-1" d="M103.89,91.74V90.07a6.88,6.88,0,0,0,1.34.75,3.11,3.11,0,0,0,1.16.28,1.42,1.42,0,0,0,.83-.23.67.67,0,0,0,.35-.57.77.77,0,0,0-.22-.57,5.51,5.51,0,0,0-1-.65,7.13,7.13,0,0,1-2-1.43,2.06,2.06,0,0,1-.46-1.29,1.82,1.82,0,0,1,.7-1.48,2.81,2.81,0,0,1,1.82-.57,5,5,0,0,1,2.36.65v1.53a4.8,4.8,0,0,0-2.26-.83,1.24,1.24,0,0,0-.73.19.59.59,0,0,0-.28.51.73.73,0,0,0,.25.52,4.49,4.49,0,0,0,.88.59l.56.32c1.31.74,2,1.56,2,2.45a2,2,0,0,1-.75,1.59,3,3,0,0,1-1.94.61,4.76,4.76,0,0,1-1.25-.15A8.25,8.25,0,0,1,103.89,91.74Z"/><path class="cls-1" d="M117.22,90.47V92a6.51,6.51,0,0,1-2.28.43A4,4,0,0,1,112,91.35a3.93,3.93,0,0,1-1.1-2.92,4.21,4.21,0,0,1,1.07-3,3.69,3.69,0,0,1,2.8-1.13,4.49,4.49,0,0,1,1.09.12,6.55,6.55,0,0,1,1.19.43v1.65a4.11,4.11,0,0,0-2.18-.75,2.22,2.22,0,0,0-1.72.74,2.68,2.68,0,0,0-.68,1.88,2.58,2.58,0,0,0,.73,1.91,2.71,2.71,0,0,0,2,.7A5.07,5.07,0,0,0,117.22,90.47Z"/><path class="cls-1" d="M124.26,87.59v3.34c0,.26.09.4.27.4a1.88,1.88,0,0,0,.88-.42v.94a4.52,4.52,0,0,1-.85.47,1.85,1.85,0,0,1-.67.12q-1,0-1.17-.78a3.39,3.39,0,0,1-2.11.77,1.82,1.82,0,0,1-1.36-.55,1.8,1.8,0,0,1-.55-1.35,1.9,1.9,0,0,1,.54-1.33,3.61,3.61,0,0,1,1.51-.93l2-.68v-.42a1.25,1.25,0,0,0-1.42-1.41,3.41,3.41,0,0,0-2.47,1.31V85.38a3.22,3.22,0,0,1,2.6-1.07,3,3,0,0,1,2,.67,2.19,2.19,0,0,1,.46.56,2.27,2.27,0,0,1,.26.71A12.42,12.42,0,0,1,124.26,87.59Zm-1.52,3.17V88.43l-1,.4a3.63,3.63,0,0,0-1.13.63,1.11,1.11,0,0,0-.32.8,1,1,0,0,0,.31.79,1.05,1.05,0,0,0,.8.31A2,2,0,0,0,122.74,90.76Z"/><path class="cls-1" d="M128.8,84.46v1.8l.08-.13c.75-1.21,1.5-1.82,2.25-1.82a2.76,2.76,0,0,1,1.83.89l-.82,1.36a2.27,2.27,0,0,0-1.5-.77,1.61,1.61,0,0,0-1.3.72,2.74,2.74,0,0,0-.54,1.7v4.1h-1.56V84.46Z"/><path class="cls-1" d="M65,117.76c-.15,0-.22-.09-.24-.24l-3.2-15.64c0-.14,0-.23.19-.23h1.47c.14,0,.21.07.24.23l2.2,11.85h.07l2.13-11.85a.24.24,0,0,1,.26-.23h1.43c.16,0,.21.09.19.23l-3.2,15.64c0,.15-.1.24-.24.24Z"/><path class="cls-1" d="M73.9,101.88c0-.14.12-.23.26-.23h1.42a.25.25,0,0,1,.26.23l3.39,15.64a.2.2,0,0,1-.21.24H77.59c-.16,0-.23-.09-.26-.24L76.62,114H73.05l-.72,3.53c0,.15-.09.24-.23.24H70.67a.2.2,0,0,1-.21-.24Zm2.39,10.46-1.37-7h-.07l-1.47,7Z"/><path class="cls-1" d="M80.89,101.88a.22.22,0,0,1,.23-.23H82.9a.33.33,0,0,1,.36.23L86.86,114H87V101.88a.22.22,0,0,1,.24-.23h1.26a.22.22,0,0,1,.23.23v15.64a.22.22,0,0,1-.23.24H86.76a.31.31,0,0,1-.35-.24l-3.68-12.08h-.11v12.08a.23.23,0,0,1-.24.24H81.12a.22.22,0,0,1-.23-.24Z"/><path class="cls-1" d="M91.33,101.88a.22.22,0,0,1,.24-.23H93a.22.22,0,0,1,.23.23v15.64a.22.22,0,0,1-.23.24H91.57a.23.23,0,0,1-.24-.24Z"/><path class="cls-1" d="M95.91,101.88a.22.22,0,0,1,.23-.23h1.45a.22.22,0,0,1,.24.23v14c0,.1,0,.14.14.14h4.22a.22.22,0,0,1,.23.24v1.3a.22.22,0,0,1-.23.24h-6a.22.22,0,0,1-.23-.24Z"/><path class="cls-1" d="M104.2,101.88a.22.22,0,0,1,.24-.23h1.44a.22.22,0,0,1,.24.23v14a.12.12,0,0,0,.14.14h4.22a.22.22,0,0,1,.23.24v1.3a.22.22,0,0,1-.23.24h-6a.22.22,0,0,1-.24-.24Z"/><path class="cls-1" d="M114.93,101.88c0-.14.12-.23.26-.23h1.42a.25.25,0,0,1,.26.23l3.39,15.64a.19.19,0,0,1-.21.24h-1.42a.24.24,0,0,1-.26-.24l-.71-3.53h-3.58l-.71,3.53c0,.15-.1.24-.24.24h-1.42a.2.2,0,0,1-.22-.24Zm2.39,10.46-1.37-7h-.07l-1.47,7Z"/><path d="M14.29,65.32a2.16,2.16,0,0,1,0-1.76,4.68,4.68,0,0,1,.6-.71c.19-.23.36-.47.54-.72A3.83,3.83,0,0,1,16.8,61a5,5,0,0,1,1.68-.48l.05.07a4.59,4.59,0,0,1-1.26,1.19,15.43,15.43,0,0,1-1.5.7,1.36,1.36,0,0,0-.61.52,2.2,2.2,0,0,0-.17.79,4.12,4.12,0,0,1-.62,1.54Z"/><path d="M30.82,51.74c.94-.58,1.87-1.18,2.83-1.74s2-1,3-1.5,2-1,3-1.47l2.9-1.55.07.49-2.23-.5c-.75-.17-1.48-.37-2.23-.51l.21,0a18,18,0,0,1-2.48,1,3.94,3.94,0,0,1-.7.14,4.33,4.33,0,0,0-.55.13,11.53,11.53,0,0,0-1.17.48c-1.52.72-3.11,1.62-4.67,2.28s-3,1.77-4.48,2.65a22.56,22.56,0,0,1-4.84,2,22.28,22.28,0,0,1-5.11,1.16A43,43,0,0,0,9.27,56a11.26,11.26,0,0,0-2.45.74A17.73,17.73,0,0,0,4.58,58c-.72.47-1.49,1-2.13,1.45a4.65,4.65,0,0,0-1.33,2c-.47,1.54-.75,3.44.49,4.5a5.06,5.06,0,0,0,2.06,1.2A.72.72,0,0,0,4.45,67c.08-.06.1-.23.1-.2s0,.08.08.1l-.14-.07-.29-.14c-.4-.22-.71-.33-1.2-.63a2.62,2.62,0,0,1-.81-1.33A4.91,4.91,0,0,1,2,63.33a3,3,0,0,1,.44-1.45,9.87,9.87,0,0,1,.79-1.11l.2-.26a1.73,1.73,0,0,1,.31-.3,3.53,3.53,0,0,1,.62-.39,16.84,16.84,0,0,1,2.51-1A48.61,48.61,0,0,1,12,57.66a27.2,27.2,0,0,1,5.22-.59,32.86,32.86,0,0,0,5-1.31c1.67-.48,3.35-.94,5-1.45l0,0Zm.05.08-3.58,2.63,0,0h0c-1.66.52-3.31,1.1-5,1.65a33,33,0,0,1-5,1.58,29.13,29.13,0,0,0-5.12.75c-1.7.38-3.4.7-5,1.23a14.8,14.8,0,0,0-2.36.91,2.8,2.8,0,0,0-.48.3,1.05,1.05,0,0,0-.15.15l-.2.26a8.72,8.72,0,0,0-.72,1,2.07,2.07,0,0,0-.32,1A4.07,4.07,0,0,0,3,64.5a1.81,1.81,0,0,0,.49.89c.25.15.75.39,1.11.59l.3.15.14.08a.63.63,0,0,1,.27.37,1.08,1.08,0,0,1-.27,1,1.56,1.56,0,0,1-1.63.36,5.86,5.86,0,0,1-2.39-1.44,3.67,3.67,0,0,1-.82-1.18A3.47,3.47,0,0,1,0,63.88a7.85,7.85,0,0,1,.5-2.67A5.34,5.34,0,0,1,2.08,59c.76-.55,1.47-1,2.23-1.43a21.52,21.52,0,0,1,2.32-1.25,12.11,12.11,0,0,1,2.54-.72,42.2,42.2,0,0,1,5.14-1.06,18.41,18.41,0,0,0,5-1.18A19,19,0,0,0,24,51.21c1.47-.93,2.88-1.94,4.41-2.83L33.11,46a11.69,11.69,0,0,1,1.25-.52,4.62,4.62,0,0,1,.71-.17,4.28,4.28,0,0,0,.59-.1A18.59,18.59,0,0,0,38,44.31l.11-.05.11,0c1.49.34,3,.77,4.45,1.17l.71.19-.64.3-3,1.44c-1,.41-2,.82-3,1.32s-2,.86-3,1.42-1.91,1.12-2.85,1.7"/><path d="M97.89,17.85c1.37-.55,2.74-1.09,4.08-1.69l0,0,1.8-1.92a4.18,4.18,0,0,1,1-.91l1.14-.68a20.18,20.18,0,0,0,4.16-3,9,9,0,0,0,1.54-2,1.26,1.26,0,0,0,.17-1.07c-.14-.3-.63-.35-1-.35a7,7,0,0,0-4.53,2.21,43.77,43.77,0,0,0-3.52,3.89,15.88,15.88,0,0,1-4.34,3.09,45.24,45.24,0,0,0-4.24,3A19.63,19.63,0,0,0,90.39,22l-.46-.54,2-1,2-.9c1.33-.58,2.63-1.25,4-1.71m0,.09a26,26,0,0,0-3.9,1.9l-1.9,1.09L90.3,22.07l-1.75,1.1,1.29-1.63c.54-.69,1.07-1.4,1.69-2.06a16.59,16.59,0,0,1,2-1.75,30.19,30.19,0,0,1,4.36-3,18.1,18.1,0,0,0,4.31-2.81A41.08,41.08,0,0,1,106,8.19a8.15,8.15,0,0,1,4.74-2.26,1.5,1.5,0,0,1,1.34.47A1.57,1.57,0,0,1,112,7.85a9.26,9.26,0,0,1-1.49,2.25,14.37,14.37,0,0,1-4.28,3.2l-1.14.62a4.31,4.31,0,0,0-1,.74l-2,1.75,0,0h0c-1.4.46-2.78,1-4.16,1.5"/><path d="M73.68,38.19a1.74,1.74,0,0,0,0-.38c0-.06,0-.06.11,0l.16.49c0-.08-.1-.15-.14-.12s-.08.09-.12.16-.16.2-.25.18l.21-.83a.63.63,0,0,0,0,.46m0,.09a.35.35,0,0,1-.46.21l-1.12-.27,1.33-.55c.08,0,.17,0,.26.14s.1.13.14.14.08-.06.12-.14l.17-.4,0,.89c0,.15-.09.21-.17.19a.28.28,0,0,1-.25-.21"/><path d="M131.54,11a1.15,1.15,0,0,0-1.07-.47,5.31,5.31,0,0,0-1.24.18,5.77,5.77,0,0,0-2.25,1.1,6.64,6.64,0,0,1-2.24,1.27c-.77.33-1.51.74-2.27,1.12a11.67,11.67,0,0,1-1.19.54,6.5,6.5,0,0,0-1.14.48,17.51,17.51,0,0,1-2.34,1.14,19,19,0,0,0-2.41.75c-.78.31-1.56.67-2.41.93s-1.7.32-2.51.54a18,18,0,0,0-2.4.73l-4.6,2.18a5.33,5.33,0,0,1-2.45.79,11.15,11.15,0,0,0-2.38.81,26.66,26.66,0,0,0-4.4,2.54l.05-.33c.52.56,1.39.74,2.09,1.31l1,.8c.31.24.66.41,1,.67l-.32,0,4.24-2.22c.72-.35,1.47-.67,2.22-1a14.3,14.3,0,0,0,2.16-.86,17.47,17.47,0,0,1,2.16-1.13c.74-.28,1.43-.59,2.14-.94s1.34-.73,2.1-1.13a23.77,23.77,0,0,1,2.27-.9c1.51-.57,3.07-.88,4.46-1.55S122.67,17,124,16.25c.67-.39,1.29-.89,2-1.32a22.64,22.64,0,0,1,2.15-1.07,21.13,21.13,0,0,0,2.1-1.12,5,5,0,0,0,.92-.72c.27-.27.53-.65.35-1m.08,0c.21.41-.08.84-.35,1.12a5.71,5.71,0,0,1-.93.76A22.45,22.45,0,0,1,128.27,14c-.68.4-1.43.72-2.06,1.18s-1.23,1-1.9,1.44c-1.36.88-2.77,1.62-4.17,2.41a35.1,35.1,0,0,1-4.49,1.69,20.88,20.88,0,0,0-2.17.87c-.64.34-1.38.79-2.09,1.14a17.68,17.68,0,0,1-2.23,1,18.36,18.36,0,0,0-2.07,1.05,7.51,7.51,0,0,1-1.16.5l-1.12.37c-.74.26-1.46.56-2.17.89l-4.29,2.06-.17.08L98,28.58c-.3-.22-.69-.43-1-.72L96.06,27a5,5,0,0,0-1-.65A3.82,3.82,0,0,1,94,25.61l-.2-.2.25-.13a33.36,33.36,0,0,1,4.49-2.43A13.53,13.53,0,0,1,101,22a5,5,0,0,0,2.35-.81c1.56-.74,3-1.56,4.54-2.36a26.7,26.7,0,0,1,4.9-1.49c.78-.25,1.54-.61,2.34-.95a9.55,9.55,0,0,1,1.24-.44c.45-.13.85-.17,1.22-.3a16.91,16.91,0,0,0,2.28-1,5.41,5.41,0,0,1,1.23-.46,11.23,11.23,0,0,0,1.17-.45c.78-.33,1.55-.69,2.36-1a6.3,6.3,0,0,0,2.25-1.1,6.29,6.29,0,0,1,2.34-1.06,5.41,5.41,0,0,1,1.28-.17,1.29,1.29,0,0,1,1.14.55"/><path d="M59.92,43.89a7.26,7.26,0,0,1-1.57,1,6,6,0,0,1-1.75.81,7.69,7.69,0,0,0-1.8.47,5.22,5.22,0,0,1-1.95.26l.17-.06c-2.79,2.5-5.47,5.25-8.27,7.78a40.58,40.58,0,0,1-4.44,3.6L35.76,61.1c-1.49,1.18-3,2.29-4.6,3.36-.78.54-1.59,1.05-2.39,1.54a12.32,12.32,0,0,1-2.56,1.3,3.62,3.62,0,0,1-1.46.14,7.08,7.08,0,0,1-1.43-.22,2.38,2.38,0,0,1-1.26-.78,1.27,1.27,0,0,0-1.13-.36,1.29,1.29,0,0,0-.71,2,6.77,6.77,0,0,0,2.16,1.59c1.67.81,3.51-.07,5.24-.7a27.93,27.93,0,0,0,5-2.53l4.86-2.93c.79-.5,1.61-1,2.34-1.53.31-.22.67-.63,1.07-.91s.79-.57,1.19-.84c1.56-1.08,3.25-2,4.67-3.16a39.09,39.09,0,0,1,4.59-3.42,30.43,30.43,0,0,0,9.13-6.51l0,.15a6,6,0,0,1-.55-2.53,4.36,4.36,0,0,1,0-.82m0-.08c.06.36,0,.59.07.89a7.4,7.4,0,0,0,.11.84,5.83,5.83,0,0,0,.57,1.59l0,.07-.05.07c-2.39,3-5.74,5.08-9,6.92a39.59,39.59,0,0,0-4.4,3.49c-1.5,1.25-3.17,2.15-4.71,3.23-.39.26-.77.53-1.13.81s-.63.59-1.08.92a26.9,26.9,0,0,1-2.42,1.57L33,67.08a25.08,25.08,0,0,1-5.17,2.48,23.22,23.22,0,0,1-2.76.85,4.55,4.55,0,0,1-2.95-.31,7.47,7.47,0,0,1-1.24-.79,5.78,5.78,0,0,1-1.08-1,1.71,1.71,0,0,1,1-2.58,1.64,1.64,0,0,1,1.46.49,2,2,0,0,0,1.1.71,5.25,5.25,0,0,0,2.72.13,9.7,9.7,0,0,0,2.48-1.27c.81-.51,1.59-1,2.36-1.57,1.54-1.1,3-2.28,4.45-3.5l4.48-3.53a49.28,49.28,0,0,0,4.35-3.56c2.86-2.51,5.49-5.18,8.45-7.6l.08-.07h.09a4.65,4.65,0,0,0,1.79-.17,6.91,6.91,0,0,1,1.88-.38,5.82,5.82,0,0,0,1.72-.68,11.64,11.64,0,0,0,1.7-.9"/><path d="M46.67,46.1a7.51,7.51,0,0,1-4-.32h.06c-1.33.65-2.61,1.46-4,2s-2.63,1.4-3.95,2S32.27,51.3,31,52.1s-2.39,1.76-3.51,2.56l-.05,0a22.85,22.85,0,0,1-2.69,1.72,4.86,4.86,0,0,1-1.58.5,11.44,11.44,0,0,0-1.48.37,19.34,19.34,0,0,0-2.89,1.1,12.39,12.39,0,0,0-2.52,1.78,14.17,14.17,0,0,0-2.12,2.26,6,6,0,0,0-.93,2.89,7.17,7.17,0,0,0,.37,3,1.92,1.92,0,0,0,.86,1.1,1.67,1.67,0,0,0,1.35,0l0,0h0c.42,0,1-.22.8-.48s-.55-.63-.89-1a3.06,3.06,0,0,1-.34-3,5.79,5.79,0,0,1,1.74-2.51,25.1,25.1,0,0,1,2.4-1.77c.42-.28.76-.54,1.25-.82a9.08,9.08,0,0,1,1.42-.59,25.51,25.51,0,0,1,2.9-.71,8.3,8.3,0,0,0,2.63-.95c.42-.23.8-.47,1.22-.75a8.12,8.12,0,0,1,1.41-.66c1.88-.74,3.84-1.06,5.67-1.63a41.22,41.22,0,0,0,5.44-2,57.83,57.83,0,0,0,5.13-2.78,16.11,16.11,0,0,0,4.56-3.59l.06.15L50.14,46c-.39-.07-.78-.18-1.16-.21a6,6,0,0,0-2.31.3m0-.08A6.05,6.05,0,0,1,49,45.67a11.38,11.38,0,0,1,1.17.18l1.16.21.15,0-.09.12a17.49,17.49,0,0,1-4.45,3.86,45.21,45.21,0,0,1-5,3.06,32.65,32.65,0,0,1-5.52,2.18c-1.9.59-3.83.92-5.6,1.63a9.65,9.65,0,0,0-1.25.59,14.65,14.65,0,0,1-1.29.77,9.39,9.39,0,0,1-2.88,1A11.62,11.62,0,0,0,20,61.22c-1.63,1.07-3.37,2-4,3.85a2.5,2.5,0,0,0,.2,2.54c.23.36.72.63.93,1.22a.71.71,0,0,1,0,.53.85.85,0,0,1-.38.31,2.08,2.08,0,0,1-.79.19l.07,0a2,2,0,0,1-1.69-.06,2.27,2.27,0,0,1-1-1.32A7.26,7.26,0,0,1,13,65.29a6.76,6.76,0,0,1,1-3,13.63,13.63,0,0,1,2.13-2.35A13.06,13.06,0,0,1,18.6,58a20.85,20.85,0,0,1,2.92-1.25,13,13,0,0,1,1.54-.44,3.94,3.94,0,0,0,1.38-.5A21.17,21.17,0,0,0,27,54.1l-.05,0c1.26-1,2.44-1.77,3.67-2.64a44.6,44.6,0,0,1,3.88-2.2c1.41-.55,2.67-1.23,4.07-1.8s2.68-1.21,4-1.85l0,0h0a7.32,7.32,0,0,0,4,.39"/><path d="M91.18,22.79l2.09,1.68H93.2c1.39-.58,2.64-1.44,4-2.13l4.16-1.86a8.6,8.6,0,0,0,1.92-1c.5-.41.94-1.17,1.72-1.56a16.67,16.67,0,0,1,2.1-1c.36-.14.72-.28,1.09-.39a2.54,2.54,0,0,0,.88-.48,14.85,14.85,0,0,1,1.79-1.45,10.42,10.42,0,0,1,2.14-.89c.72-.26,1.48-.38,2.15-.67s1.36-.64,2-1a37.67,37.67,0,0,1,4.22-1.66A2.57,2.57,0,0,0,123,9.14a1.59,1.59,0,0,0-.67-1.71,2.75,2.75,0,0,0-2,.06,13.46,13.46,0,0,0-2,.91,33.26,33.26,0,0,0-3.72,2.51c-2.6,1.77-5.49,2.67-8.16,4.07a40.85,40.85,0,0,1-4.24,1.71L97.9,18.24A34.8,34.8,0,0,0,93.75,20a39.22,39.22,0,0,0-4,2.09V22a4.07,4.07,0,0,1,1.46.82m-.06.06a4.07,4.07,0,0,0-1.44-.76l-.13,0,.11-.08c1.29-.8,2.62-1.54,3.94-2.27a38,38,0,0,1,4.08-2.06l4.18-1.73A40.76,40.76,0,0,0,106,14.18c2.67-1.45,5.65-2.32,8.1-3.93A26.67,26.67,0,0,1,118,7.81a13.17,13.17,0,0,1,2.16-.87,3.25,3.25,0,0,1,2.41.07,1.75,1.75,0,0,1,.77,1,1.76,1.76,0,0,1,0,1.24,2.94,2.94,0,0,1-1.83,1.48c-1.41.6-2.93.81-4.22,1.61-.67.35-1.33.72-2,1s-1.46.47-2.15.76a10.73,10.73,0,0,0-2,.95,14.15,14.15,0,0,0-1.66,1.5,3.21,3.21,0,0,1-1.07.64l-1,.4a16,16,0,0,0-2,1c-.6.31-1,.92-1.63,1.47a9,9,0,0,1-2.14,1l-4.24,1.59c-1.37.6-2.7,1.35-4.11,1.92l0,0,0,0Z"/><path d="M62,23.69,62.75,26A8.4,8.4,0,0,1,63,28.48l-.2-.09c.68-.7,1.2-1.53,1.86-2.32a5.68,5.68,0,0,1,2.52-1.77,2.28,2.28,0,0,1,1.67,0,4.94,4.94,0,0,0,1.39.29c1.34.22,1.77,1.52,2.1,2.38L72,26.7h0l-.25.11a.36.36,0,0,1,.29-.12.44.44,0,0,1,.25.07.8.8,0,0,1,.16.15l-.5-.07c.64-.44,1.31-.88,1.92-1.34l.94-.68c.35-.24.55-.41,1-.71l-.17.19c.24-.92.26-2,.49-3a10.3,10.3,0,0,0-.24-3,6.84,6.84,0,0,1-.12-1.57c0-.53.16-1,.2-1.54a12.32,12.32,0,0,0-.31-3,5.22,5.22,0,0,0-1.55-2.54,16.7,16.7,0,0,1-1.41-2.8,10.7,10.7,0,0,1-.54-3.09A5.36,5.36,0,0,0,71,1.14c-.45-.62-1.48-.23-2.3.26A3.8,3.8,0,0,0,67.3,3.69a4.23,4.23,0,0,0-.12.68,6.74,6.74,0,0,0,0,.76,4.18,4.18,0,0,1-.54,1.62l-.32.69a2.71,2.71,0,0,1-.5.76,8.18,8.18,0,0,0-1,1.09,25,25,0,0,0-1.91,2.39,14.58,14.58,0,0,0-.82,1.23,12.14,12.14,0,0,0-.58,1.38,13.86,13.86,0,0,0-.75,2.93,11.8,11.8,0,0,1-.36,1.53c-.11.5-.15,1-.22,1.5l0-.05c.34.55.76,1.08,1.06,1.67A17.24,17.24,0,0,1,62,23.69m-.08,0a14.46,14.46,0,0,0-.84-1.78A18.64,18.64,0,0,0,60,20.3l0,0v0c0-.52,0-1.05.12-1.57a8.75,8.75,0,0,0,.25-1.49,15.21,15.21,0,0,1,.57-3.08,7.75,7.75,0,0,1,.53-1.51,14.59,14.59,0,0,1,.82-1.37,17.71,17.71,0,0,1,1.87-2.48,9.19,9.19,0,0,1,1.08-1.14,2.09,2.09,0,0,0,.34-.53l.33-.71a3.61,3.61,0,0,0,.44-1.28c0-.12,0-.51,0-.79a4.5,4.5,0,0,1,.15-.83A4.57,4.57,0,0,1,68.26.66,5.13,5.13,0,0,1,69.82.05a1.76,1.76,0,0,1,1.77.58,5.79,5.79,0,0,1,1.27,3c.16,1.08,0,2.11.37,3a19.29,19.29,0,0,0,1.25,2.76A5.44,5.44,0,0,1,76,12.09a12.42,12.42,0,0,1,.27,3.11,7.21,7.21,0,0,0-.06,3,12.24,12.24,0,0,1,.35,3.1c-.18,1-.13,2-.34,3.11v0l-.17.14c-.16.15-.57.47-.85.69l-.92.74c-.61.51-1.25.92-1.88,1.37l-.3.22-.2-.28h0a.24.24,0,0,0,.15,0,.27.27,0,0,0,.2-.08l-.25.1h-.24l-.1-.23a7.81,7.81,0,0,0-.6-1.26,3.22,3.22,0,0,0-.45-.46,1.34,1.34,0,0,0-.52-.21,5.7,5.7,0,0,1-1.5-.38,1.73,1.73,0,0,0-1.23,0A5.24,5.24,0,0,0,65,26.37c-.66.69-1.26,1.51-2,2.19l-.2.19v-.27a7,7,0,0,0-.14-2.42Z"/><path d="M63.45,37.26a.49.49,0,0,0,.36-.29c0-.09,0-.1,0,0l-.25.21c.1,0,.19-.08.16-.15s-.1-.15-.14-.23l.51.36c0,.11.07.11,0,0a.64.64,0,0,0-.62,0m-.08,0c-.16,0-.19-.13-.14-.32a.57.57,0,0,1,.46-.31l1.4-.1L64.2,37c-.07,0-.19.06-.21.11s0,.11.08.18l-.25.21a.29.29,0,0,1-.41,0c-.11-.08-.14-.21,0-.27"/><path d="M54.87,45.87c.86-.38,1.85-.25,2.63-.73a16,16,0,0,0,2.35-1.4l-.05.11a19.11,19.11,0,0,1,.13-2.93c0-.49.15-1,.18-1.46L60.28,38l.19.34a2.27,2.27,0,0,1-1.12-.87,6.82,6.82,0,0,1-.43-1.3l.49.3c-.49.17-.88.17-1.2.3a2.26,2.26,0,0,1-1.46,0,14.65,14.65,0,0,1-2.39-.9,11.72,11.72,0,0,1-2.18-1.34l-1.83-1.76.11.06a7.79,7.79,0,0,0-5.81.59,22.52,22.52,0,0,0-2.5,1.71c-.37.32-.69.71-1.07,1.07a7,7,0,0,1-1.28.89,9.39,9.39,0,0,1-2.71,1.49,10.73,10.73,0,0,0-2.41,1.68,8.3,8.3,0,0,0-1.88,2.26c-.33.42-.69.79-.92,1.16a1.84,1.84,0,0,0-.21,1.14c-.09.46,1.28-.08,2.12-.41a7.07,7.07,0,0,1,1.55-.47,10.31,10.31,0,0,1,1.62.11c.52.07,1,.1,1.56.2l1.48.36c1,.24,2,.53,3,.79a9.54,9.54,0,0,0,2.88.53,8.66,8.66,0,0,0,1.46-.28,5.88,5.88,0,0,1,1.57-.1c1,.11,2,.52,3,.54a7.76,7.76,0,0,0,3-.22m0,.08c-2,.68-4.08.16-6-.05a5.07,5.07,0,0,0-1.45.19,8.71,8.71,0,0,1-1.51.41,9.19,9.19,0,0,1-3.12-.37l-3-.68-1.47-.36c-.5-.09-1-.1-1.47-.16a10.48,10.48,0,0,0-1.41-.11,6.34,6.34,0,0,0-1.35.43c-.47.19-1,.36-1.47.51a2.25,2.25,0,0,1-1,.09,1.06,1.06,0,0,1-.84-.83,2.58,2.58,0,0,1,.34-1.79c.33-.48.7-.83,1-1.21s.53-.83.89-1.23a6.45,6.45,0,0,1,1.19-1.09A11.31,11.31,0,0,1,36.9,38a8.74,8.74,0,0,0,2.66-1.33,5.63,5.63,0,0,0,1.26-.79c.37-.32.72-.7,1.13-1a24.08,24.08,0,0,1,2.56-1.69,7.26,7.26,0,0,1,2.94-.94,15.09,15.09,0,0,1,3.08.17h0l.06.06,1.87,1.6a10.48,10.48,0,0,0,2.14,1.16,15.29,15.29,0,0,0,2.3.81,1.48,1.48,0,0,0,1,0,10.36,10.36,0,0,1,1.23-.29l.35-.12.14.43a7,7,0,0,0,.3,1,1.62,1.62,0,0,0,.78.63l.23.11,0,.23-.23,1.46c-.08.49-.22.93-.29,1.41a18.54,18.54,0,0,0-.32,2.87v.08L60,44a27.7,27.7,0,0,1-2.46,1.31c-.84.48-1.83.32-2.67.67"/><path d="M73.28,38.18l-1.8,0,.07,0a4.75,4.75,0,0,1-.67,1.12,6.18,6.18,0,0,1-1,.84,1.94,1.94,0,0,1-1.26.43,8.05,8.05,0,0,1-1.3-.11,5.7,5.7,0,0,1-2.47-.94,5.82,5.82,0,0,1-1.07-.83,1.59,1.59,0,0,1-.29-1.47l.33.39-.39,0,.17,0-.5.28h0c-.3.16-.62.52-1.1.76a1.22,1.22,0,0,1-.91.09c-.29-.1-.43-.17-.65-.26l.52-.3c-.16,1.36-.45,2.63-.59,3.93a13.49,13.49,0,0,0,0,3.86A12.76,12.76,0,0,0,62,49.44a10,10,0,0,0,1.36,1.41,5.07,5.07,0,0,0,1.47,1.24,17.24,17.24,0,0,0,3.8,1,7.57,7.57,0,0,0,2-.11,16.86,16.86,0,0,1,2-.12,26.3,26.3,0,0,1,4,.44,5.16,5.16,0,0,1,1,.35,3.41,3.41,0,0,0,.87.28,6.63,6.63,0,0,1,2,.58c.67.47,1,.88,1.58,1.21a3.57,3.57,0,0,0,1.69.56,5.17,5.17,0,0,0,1.8,0,5.13,5.13,0,0,0,1.49-1,1.13,1.13,0,0,0,.35-.54c0-.09-.08-.21-.34-.37a16.92,16.92,0,0,1-1.71-1.14,4.42,4.42,0,0,1-1.12-1.81c-.27-.54-.71-1.08-1-1.72l-1.58-3.64c-.64-1.15-1.35-2.27-2-3.41a6.69,6.69,0,0,0-2.57-2.87c-1.19-.57-2.43-1-3.63-1.63h0Zm0-.09.16,0h0c1.17.58,2.45,1,3.67,1.53A7.07,7.07,0,0,1,80,42.42c.75,1.09,1.55,2.16,2.26,3.29L84,49.32c.26.55.68,1,1,1.7s.45,1.17.93,1.54a14,14,0,0,0,1.61,1,1.34,1.34,0,0,1,.75,1.16,1.75,1.75,0,0,1-.61,1.15,5.86,5.86,0,0,1-1.84,1.16,5.53,5.53,0,0,1-2.15,0C82.2,57,81,55.87,80.11,55.13a6,6,0,0,0-1.78-.56,4.64,4.64,0,0,1-1-.37,4.4,4.4,0,0,0-.87-.35,27.12,27.12,0,0,0-3.87-.56,14.29,14.29,0,0,0-2,0,9.06,9.06,0,0,1-2,0,18.53,18.53,0,0,1-3.88-1,5.46,5.46,0,0,1-1.58-1.27,11.2,11.2,0,0,1-1.42-1.42A13.06,13.06,0,0,1,59.88,46,13,13,0,0,1,59.69,42c.12-1.34.4-2.67.54-3.95l.06-.5.46.2.58.26a.52.52,0,0,0,.38,0c.33-.14.62-.47,1.11-.72h0l.38-.21.09,0h.88l-.07.4c-.07.4-.13.75.1,1a4.74,4.74,0,0,0,.91.8,5,5,0,0,0,2.24,1c.82.15,1.7.41,2.4-.14a5.32,5.32,0,0,0,1-.78,4.81,4.81,0,0,0,.66-1.07l0,0h0Z"/><path d="M52.47,34.37A14.48,14.48,0,0,0,55.75,36a7.55,7.55,0,0,0,1.75.42,2.4,2.4,0,0,0,.85-.21c.32-.09.62-.12.88-.22l-.13.21V35c0-.38.12-.74.19-1.1a11.55,11.55,0,0,1,.66-2.15,12.63,12.63,0,0,1,1.14-1.94,15.73,15.73,0,0,1,1.53-1.64l-.12.28a14.1,14.1,0,0,0,0-1.85c-.12-.55-.36-1.17-.51-1.76a13.38,13.38,0,0,0-1.4-3.43c-.71-1-1.3-2.2-2-3.19A8.65,8.65,0,0,0,57.14,17c-.49-.39-1-.81-1.47-1.18-1.06-.71-2.06-1.43-3.15-2.12a5.4,5.4,0,0,0-1.55-1c-.57-.17-1.23-.24-1.84-.37L47.26,12a4.43,4.43,0,0,1-1.84-.82,2.46,2.46,0,0,1-.71-.79,4,4,0,0,0-.53-.69c-.41-.38-1-.93-1.31-1a.85.85,0,0,0-.6.15.55.55,0,0,0-.23.5,10.36,10.36,0,0,0,.42,1.72c.32,1.23.71,2.5,1,3.69a12.4,12.4,0,0,1,.42,1.9c0,.69,0,1.29,0,1.93.06,1.26-.08,2.6.06,3.74a9.63,9.63,0,0,0,.53,1.73c.21.58.43,1.17.69,1.73a5.77,5.77,0,0,0,.42.78l.55.78L47.21,29a7.35,7.35,0,0,0,1.2,1.42l1.33,1.36c.88.92,1.81,1.75,2.73,2.62m0,.07c-.94-.84-1.91-1.67-2.81-2.56l-1.4-1.28a8,8,0,0,1-1.34-1.38l-1.16-1.51L45.12,27a5.25,5.25,0,0,1-.54-.85c-.3-.58-.55-1.17-.79-1.76a9.32,9.32,0,0,1-.66-1.87c-.18-1.37,0-2.58-.1-3.85,0-.61,0-1.28-.05-1.86A14.51,14.51,0,0,0,42.57,15c-.29-1.27-.62-2.43-.92-3.66l-.23-.91a3.14,3.14,0,0,1-.18-1.06,1.36,1.36,0,0,1,.58-1.13A1.67,1.67,0,0,1,43,8a2,2,0,0,1,1,.58c.23.22.48.44.71.69a4.22,4.22,0,0,1,.59.84,2.06,2.06,0,0,0,.52.63c.88.78,2.19.87,3.42,1.18a18.86,18.86,0,0,1,1.87.46,5.61,5.61,0,0,1,1.61,1.08l3.11,2.18a32.23,32.23,0,0,1,3,2.43c.78,1,1.42,2.1,2.19,3.12a14,14,0,0,1,1.64,3.5c.2.62.42,1.19.58,1.86a16.32,16.32,0,0,1,.07,1.95v.14l-.12.13c-.47.53-1,.95-1.47,1.53a10,10,0,0,0-1.13,1.79,13.81,13.81,0,0,0-.73,2c-.1.34-.19.69-.26,1l-.06,1v.17l-.12,0a7.14,7.14,0,0,1-.92.16,2.5,2.5,0,0,1-.94.17,8.63,8.63,0,0,1-1.79-.53,15,15,0,0,1-3.28-1.7"/><path d="M95.21,26.26a4.16,4.16,0,0,1-1.09-.73l-.9-.92h0l0,0h0c-.63-.5-1.25-1-1.89-1.49a4.71,4.71,0,0,0-2.08-1L88,21.73a6.9,6.9,0,0,0-1.1-.31c-.76-.13-1.55-.2-2.34-.26a5,5,0,0,0-2.22.26c-.72.28-1.51.53-2.21.82a11.74,11.74,0,0,0-2,1.08l-2,1.28-.07,0L74.18,26c-.63.47-1.29.86-1.93,1.31l0-.23c.31.51.39,1,.69,1.4a5.14,5.14,0,0,1,.63,1.41c.06.25.11.51.15.76s0,.25,0,.4a.55.55,0,0,1-.2.43,5,5,0,0,0-.56.48c-.11.13,0,.35,0,.59a1,1,0,0,1,0,.86,3,3,0,0,1-.49.65c-.3.21.13.85-.1,1.41a1.94,1.94,0,0,1-.46.7,1.88,1.88,0,0,0-.32.59,1,1,0,0,0,0,.61,1,1,0,0,1,.11.44,1.25,1.25,0,0,1-.1.46l-.21-.35,1,0a8,8,0,0,0,.9,0h0A81.84,81.84,0,0,1,82,37.46a9.21,9.21,0,0,0,2.06-.33l2.07-.46a16.55,16.55,0,0,0,4-1.2,4.84,4.84,0,0,0,1.65-1.07,16,16,0,0,1,1.57-1.48l.82-.67a3.82,3.82,0,0,1,.44-.37,2.65,2.65,0,0,1,.52-.28,12.89,12.89,0,0,1,2.1-.63,4.37,4.37,0,0,0,1.91-.72.82.82,0,0,0,.29-.31c0-.06,0-.24-.13-.37a4.14,4.14,0,0,0-.68-.78c-.5-.49-1.18-.77-1.71-1.27a7,7,0,0,0-1.7-1.26m0-.08A7.17,7.17,0,0,1,97,27.41c.52.47,1.2.74,1.76,1.22a4.43,4.43,0,0,1,.78.78.84.84,0,0,1,.2.61,1.29,1.29,0,0,1-.38.51,4.92,4.92,0,0,1-2,.92,13.32,13.32,0,0,0-2,.74,2.34,2.34,0,0,0-.76.58l-.81.73A14.21,14.21,0,0,0,92.37,35a5.8,5.8,0,0,1-1.91,1.25,20.54,20.54,0,0,1-2,.78c-.72.22-1.41.33-2.12.5L84.19,38a9.7,9.7,0,0,1-2.16.3c-2.91,0-5.7-.11-8.56.11h0a7.59,7.59,0,0,1-1.06,0l-1,0h-.33l.12-.34a.55.55,0,0,0,0-.57,1.42,1.42,0,0,1,0-.89c.15-.58.74-.93.84-1.27a1.35,1.35,0,0,0,0-.67,1.71,1.71,0,0,1,0-.41.66.66,0,0,1,.22-.44c.36-.36.66-.73.43-1.18a.87.87,0,0,1,0-.86,4.08,4.08,0,0,1,.61-.5c.17-.13.11-.33.08-.6a5.93,5.93,0,0,0-.16-.73,4.9,4.9,0,0,0-.64-1.35c-.29-.41-.45-1-.67-1.33l-.09-.15.12-.08c.63-.46,1.28-.92,1.87-1.41l.91-.73c.34-.26.52-.44,1-.76l-.06,0,2-1.37a10.41,10.41,0,0,1,2.16-1.2c.77-.33,1.49-.59,2.27-.86a5.65,5.65,0,0,1,2.51-.23,15.19,15.19,0,0,1,2.4.39,7.87,7.87,0,0,1,1.18.42l1.11.41a5.15,5.15,0,0,1,2.11,1.21c.59.53,1.2,1.05,1.81,1.56h0l0,0h0l.89.95a3.87,3.87,0,0,0,1,.73"/><path d="M64,36.46a1.12,1.12,0,0,0-.08-.74,2.46,2.46,0,0,1-.14-.38.38.38,0,0,1,.14-.41c.23-.16.45-.29.5-.53a1.22,1.22,0,0,0-.15-.72.8.8,0,0,1,.06-.83c.16-.23.35-.41.47-.62.23-.38,0-.92-.28-1.32a2.78,2.78,0,0,1-.42-1.62,3.22,3.22,0,0,1,0-.43,1,1,0,0,1,.24-.48,2.75,2.75,0,0,1,.7-.53,1.54,1.54,0,0,0,.81-1,3.4,3.4,0,0,0,.07-.34,1.13,1.13,0,0,1,.2-.53,1.17,1.17,0,0,1,1.05-.34H67.1a1.18,1.18,0,0,1,1,.71,2.94,2.94,0,0,1,.31,1,1.6,1.6,0,0,1-.36,1.07,7.09,7.09,0,0,0-.45.72c-.28.55-.6,1.07-.9,1.57a4.08,4.08,0,0,0-.37.71,1.82,1.82,0,0,0,0,.76l-.5-.1A10.71,10.71,0,0,1,67,30.73a1.69,1.69,0,0,1,.92-.18.91.91,0,0,1,.51.17.4.4,0,0,1,.16.32v.21l-.06,1.67c0,.29,0,.54,0,.8a2.77,2.77,0,0,0,0,.28c-.13,0-.08,0,0,0a.8.8,0,0,0,.08-.16,10.54,10.54,0,0,1,.83-1.46,4.21,4.21,0,0,1,.56-.64.74.74,0,0,1,.92-.18c.76,1.18-.11,2.34-.47,3.27l-.31-.25a3.81,3.81,0,0,0,.69-.7,4.24,4.24,0,0,0,.43-.88A20.4,20.4,0,0,0,71.92,31,2.86,2.86,0,0,0,72,29.16a8.06,8.06,0,0,1-.36-1c0-.14-.06-.3-.1-.48s-.21-.4.17-.86l-.11.44A5.68,5.68,0,0,0,71,25.89a1.49,1.49,0,0,0-1.13-.6,7.73,7.73,0,0,1-.84-.14,5.87,5.87,0,0,0-.73-.24,2.6,2.6,0,0,0-1.32.27,6,6,0,0,0-2.29,1.88,21.66,21.66,0,0,1-2.17,2.4,10.41,10.41,0,0,0-2.9,5.43,4.78,4.78,0,0,0-.08.75,2,2,0,0,0,0,.76,1.77,1.77,0,0,0,.64,1.29,3.42,3.42,0,0,0,.68.38,1.08,1.08,0,0,0,.71.19c.49-.09.86-.54,1.35-.79h0a5.43,5.43,0,0,0,.9-.57v0Zm.09,0-.11.46h0l0,0a5.78,5.78,0,0,1-.91.61h0c-.45.24-.8.72-1.38.86a1.45,1.45,0,0,1-.83-.17,4.62,4.62,0,0,1-.75-.35,1.65,1.65,0,0,1-.59-.64,6.28,6.28,0,0,1-.27-.8,2.16,2.16,0,0,1-.11-.84,4,4,0,0,1,0-.85,10.15,10.15,0,0,1,2.76-5.9A19.91,19.91,0,0,0,64,26.5a6.88,6.88,0,0,1,2.64-2.16,3.39,3.39,0,0,1,1.81-.28,6.83,6.83,0,0,1,.79.27c.21.06.47.09.75.14a2.19,2.19,0,0,1,1.61.9,6.31,6.31,0,0,1,.75,1.56l-.11.44c.12-.2,0,0,.08.13s.06.34.08.54.2.58.29.93a3.44,3.44,0,0,1-.2,2.23,21.08,21.08,0,0,1-.82,1.95,4.33,4.33,0,0,1-.52,1,5.05,5.05,0,0,1-.8.74l-.67.51.36-.75a10.73,10.73,0,0,0,.7-1.46c.14-.47.24-1.13,0-1.41-.13-.11-.36,0-.56.16a3.72,3.72,0,0,0-.52.59,6.71,6.71,0,0,0-.79,1.41,1.86,1.86,0,0,1-.1.2s-.1.25-.37.13-.12-.34-.15-.5,0-.59,0-.85V31.26c.17-.42-.66-.31-1-.12s-.6.85-.9,1.26l-.35.49-.15-.6a2.36,2.36,0,0,1-.09-1,3.74,3.74,0,0,1,.39-.92c.28-.54.59-1,.84-1.56s.79-1.1.7-1.4-.39-1.1-.56-1h-.05c-.52,0-.39-.08-.6.68a2.4,2.4,0,0,1-.43.8,2.06,2.06,0,0,1-.73.53,2.87,2.87,0,0,0-.59.37.51.51,0,0,0-.14.21c0,.11,0,.24,0,.36a2.31,2.31,0,0,0,.25,1.41A1.65,1.65,0,0,1,65,32.37c-.33.45-.87.74-.6,1.26a1.29,1.29,0,0,1,.14.81c-.07.3-.37.45-.56.58s-.07.42,0,.66a1.22,1.22,0,0,1,.08.8"/><path d="M68.39,26c.08-.24.33-.11.46-.15a3.57,3.57,0,0,0,.46,0,1.41,1.41,0,0,1,.92.22,2.21,2.21,0,0,1,.69.76.6.6,0,0,1,0,.56,1.93,1.93,0,0,1-.25.46,1.49,1.49,0,0,1-.94.46l-.22.05a1,1,0,0,1-.38,0,1.11,1.11,0,0,1-.6-.41,2.27,2.27,0,0,1-.39-.95c0-.43.26-.66.28-1m.08,0a1,1,0,0,0,.18.8c.11,0,.47.39.57.54s.1.09.11.11,0,0,0,0h.23a3.24,3.24,0,0,0,.73,0c.17-.05.48-.42.34-.53s-.48-.19-.74-.24a2,2,0,0,1-.76-.35c-.24-.13-.59-.49-.71-.32"/><path d="M70.63,33.74a2.48,2.48,0,0,0,.24-1.44c0-.22-.14-.47-.24-.48s-.18.05-.34.21a7.61,7.61,0,0,0-.82,1.11l-.4.62-.2.34a.63.63,0,0,1-.22.24.34.34,0,0,1-.4-.06.42.42,0,0,1-.09-.18,2,2,0,0,1,0-.85c0-.25,0-.5,0-.75,0-.48,0-1,0-1.45-.09-.14-.86,0-1,.19-.25.38-.52.83-.8,1.23l.07-.33a5.45,5.45,0,0,0,.59,1.33c.28.44.52.93.78,1.31a1.68,1.68,0,0,0,.39.43c.06,0,.1.06.16.06a2.67,2.67,0,0,0,.33-.05,5.53,5.53,0,0,0,1.4-.6l0,0c.18-.29.34-.6.5-.91m.08,0c-.15.32-.29.63-.41.95h0l0,0a6.27,6.27,0,0,1-1.3,1,1.48,1.48,0,0,1-.42.18,1,1,0,0,1-.61,0,1.88,1.88,0,0,1-.77-.62,11.86,11.86,0,0,1-.86-1.38,5.82,5.82,0,0,1-.59-1.6l0-.19.1-.14c.33-.41.64-.79,1-1.21a1.42,1.42,0,0,1,.9-.26c.26,0,.65,0,.86.43l0,1.58A6,6,0,0,0,68.62,34s0,0,0,0-.23-.06-.23,0,0,0,0-.06l.12-.34a4.26,4.26,0,0,1,.32-.73,3.64,3.64,0,0,1,1-1.26.87.87,0,0,1,1-.09,1,1,0,0,1,.27.89,4.83,4.83,0,0,1-.46,1.48"/><path d="M73.68,38.19a1.74,1.74,0,0,0,0-.38c0-.06,0-.06.11,0l.16.49c0-.08-.1-.15-.14-.12s-.08.09-.12.16-.16.2-.25.18l.21-.83a.63.63,0,0,0,0,.46m0,.09a.35.35,0,0,1-.46.21l-1.12-.27,1.33-.55c.08,0,.17,0,.26.14s.1.13.14.14.08-.06.12-.14l.17-.4,0,.89c0,.15-.09.21-.17.19a.28.28,0,0,1-.25-.21"/><path d="M21.73,67.55a11.17,11.17,0,0,0,1.87,1.06,3.34,3.34,0,0,0,1,.45,2.34,2.34,0,0,0,1.11-.1,14.34,14.34,0,0,1,4.41-1.08l0,.08a7.85,7.85,0,0,1-2.05,1.15,5.61,5.61,0,0,1-2.35.31l-1.18-.09a7.36,7.36,0,0,1-1.23,0,2.32,2.32,0,0,1-1.7-1.69Z"/><path d="M29.21,66.58a13.64,13.64,0,0,1,3-1.5c.54-.16,1.11-.27,1.64-.47a7.88,7.88,0,0,0,1.49-.79,26.62,26.62,0,0,1,6-3.09l0,.08a14.6,14.6,0,0,1-5.87,3.43,11.31,11.31,0,0,0-1.58.63c-.5.25-1,.59-1.48.87a9.43,9.43,0,0,1-3.29.92Z"/><path d="M40.42,58.89A26.31,26.31,0,0,1,44.3,55.3c.72-.51,1.47-1,2.17-1.51a23.24,23.24,0,0,0,2-1.75c1.25-1.25,2.6-2.38,3.91-3.53l2-1.68a5,5,0,0,1,2.31-1.37l0,.08a6.36,6.36,0,0,0-1.86,1.76c-.59.66-1.24,1.27-1.88,1.89a46.75,46.75,0,0,1-4.21,3.21A23.11,23.11,0,0,0,46.65,54c-.66.59-1.26,1.24-1.91,1.85A26.73,26.73,0,0,1,40.48,59Z"/><path d="M48.15,53.77A16.55,16.55,0,0,1,51,51.26c.54-.34,1.11-.63,1.62-1A10.63,10.63,0,0,0,54,49a31.73,31.73,0,0,1,5.73-5l.06.06a18.79,18.79,0,0,1-5.49,5.28,15.57,15.57,0,0,0-1.53,1.14c-.47.42-.89.91-1.36,1.35a11.77,11.77,0,0,1-3.24,2Z"/><path d="M27.66,55.91a4.86,4.86,0,0,1,2.45-2.1,11,11,0,0,1,3.14-.76,30.25,30.25,0,0,0,3.14-.39,16.35,16.35,0,0,0,3-1,41.46,41.46,0,0,0,5.55-2.93,19.27,19.27,0,0,1,2.83-1.43c1-.27,1.72-1.14,2.8-1.46l0,.08c-.88.52-1.48,1.52-2.51,2s-1.81,1.1-2.71,1.64a21.17,21.17,0,0,1-5.83,2.58l-3.09.8c-1,.28-2.05.6-3.08.83-2,.39-4.14.67-5.64,2.21Z"/><path d="M36.17,51.75A5,5,0,0,1,39.51,50c.62-.08,1.25-.09,1.86-.23A4.7,4.7,0,0,0,43,49a13,13,0,0,1,3.1-2.21c1.27-.45,2.48-.37,3.53-1l.06.06C49,47,47.47,47.19,46.46,47.64s-2,1.27-3.21,1.76c-.6.25-1.21.42-1.81.61l-1.77.65a17.41,17.41,0,0,0-3.44,1.16Z"/><path d="M14.79,55.72a33.09,33.09,0,0,0,4.49-.93c.76-.15,1.53-.29,2.28-.51a17.36,17.36,0,0,0,2.17-.84,35,35,0,0,1,8.89-2.82l0,.08a35.45,35.45,0,0,1-8.77,3.18,19.19,19.19,0,0,0-2.24.66c-.72.28-1.42.65-2.16.93a8.16,8.16,0,0,1-4.69.34Z"/><path d="M28.55,50.61a12.06,12.06,0,0,1,2.25-.79c.39-.07.81-.08,1.21-.18a6.87,6.87,0,0,0,1.13-.46,13,13,0,0,1,2.29-.79c.77-.17,1.5-.32,2.3-.55l.05.07a4.19,4.19,0,0,1-2.11,1.35,11.72,11.72,0,0,1-2.41.37,4,4,0,0,0-1.17.27c-.37.16-.71.41-1.08.59a3.7,3.7,0,0,1-2.46.21Z"/><path d="M95,26.14a14.88,14.88,0,0,1,4.12-2.42c.75-.26,1.53-.46,2.28-.73a20,20,0,0,0,2.16-1,36.1,36.1,0,0,1,9-3.15l0,.08a36.62,36.62,0,0,1-8.83,3.5,19.12,19.12,0,0,0-2.23.81c-.72.33-1.4.76-2.09,1.13a38.37,38.37,0,0,1-4.37,1.84Z"/><path d="M95.81,26.56a12.25,12.25,0,0,1,3.11-1.79c.56-.2,1.15-.34,1.71-.56a10.88,10.88,0,0,0,1.58-.84,20.56,20.56,0,0,1,6.55-2.84l0,.08a20.68,20.68,0,0,1-6.39,3.18,12,12,0,0,0-1.66.67c-.52.28-1,.64-1.52.95a12.23,12.23,0,0,1-3.37,1.22Z"/><path d="M113.71,18.48a9.31,9.31,0,0,1,2.81-1.38c.51-.13,1-.2,1.53-.35a8.33,8.33,0,0,0,1.43-.64,15.72,15.72,0,0,1,5.9-2l0,.08a15.92,15.92,0,0,1-5.77,2.37,7.78,7.78,0,0,0-1.49.46c-.48.21-.92.51-1.38.75a9.43,9.43,0,0,1-3,.8Z"/><path d="M90.86,22.38a7.94,7.94,0,0,1,2.48-1.53c.46-.15,1-.25,1.39-.43A6.63,6.63,0,0,0,96,19.71a13.71,13.71,0,0,1,5.3-2.31l0,.07a13.51,13.51,0,0,1-5.14,2.66,7.92,7.92,0,0,0-1.35.54c-.42.24-.81.56-1.21.82a8,8,0,0,1-2.75,1Z"/><path d="M95.82,21.89A6,6,0,0,1,98,20.68c.4-.09.83-.13,1.22-.25a5.25,5.25,0,0,0,1.12-.54A10.13,10.13,0,0,1,105,18.24l0,.08a10.14,10.14,0,0,1-4.55,2,5,5,0,0,0-1.19.37c-.37.18-.71.45-1.08.66a6,6,0,0,1-2.41.62Z"/><path d="M108,14.82a6.62,6.62,0,0,1,2.42-1.17c.45-.08.91-.1,1.34-.2A6.61,6.61,0,0,0,113,13a10.45,10.45,0,0,1,5.19-1.21l0,.08a13,13,0,0,1-5.08,1.58,5.84,5.84,0,0,0-1.3.3c-.41.16-.79.42-1.19.61a7.2,7.2,0,0,1-2.62.58Z"/><path d="M66.91,14.62a10.46,10.46,0,0,1-.8,2.72,8.32,8.32,0,0,0-.58,1.29A3.43,3.43,0,0,0,65.47,20L66,22.77a7.68,7.68,0,0,1-.11,2.9h-.09c-.26-.94-.51-1.82-.7-2.76A8.54,8.54,0,0,1,65,20l.26-1.44c.07-.47.08-1,.18-1.45a6.27,6.27,0,0,1,1.39-2.54Z"/><path d="M50.18,26.44a6.43,6.43,0,0,1,2.1,2.15A13.79,13.79,0,0,0,53,29.9a4.43,4.43,0,0,0,1.08,1A9.07,9.07,0,0,0,56.65,32c.9.28,1.85.45,2.84.75v.08a6.77,6.77,0,0,1-3.07,0,5,5,0,0,1-2.64-1.64c-.33-.4-.64-.8-1-1.17L51.71,29a13.08,13.08,0,0,1-1.59-2.52Z"/><path d="M54.31,22.68a4.47,4.47,0,0,1,1.62,1.55c.18.34.29.71.48,1a5.25,5.25,0,0,0,.71.85A6.94,6.94,0,0,1,59.26,30l-.07,0a9.6,9.6,0,0,1-2.45-3.67,4.06,4.06,0,0,0-.55-.95c-.24-.28-.56-.51-.82-.76a5.26,5.26,0,0,1-1.12-1.92Z"/><path d="M41.69,39.45a6.37,6.37,0,0,1,3.5-1.39h1.89a12.93,12.93,0,0,0,1.86-.22,66.14,66.14,0,0,0,7.2-1.31l0,.07a7.39,7.39,0,0,1-3.46,1.57,15.8,15.8,0,0,1-3.76.14,10.51,10.51,0,0,0-1.86,0,18.13,18.13,0,0,0-1.8.43c-1.19.26-2.35.46-3.57.76Z"/><path d="M47.91,42.31a4,4,0,0,1,1.62-.93,9,9,0,0,0,.93-.18,2.82,2.82,0,0,0,.79-.49,7.43,7.43,0,0,1,3.23-1.81l.06.07a4.78,4.78,0,0,1-3.08,2.15,3.33,3.33,0,0,0-.88.33c-.27.16-.51.4-.78.58a3,3,0,0,1-1.87.36Z"/><path d="M64.3,39.84a29.77,29.77,0,0,1,2.07,3.48,10.42,10.42,0,0,0,1,1.77,5.56,5.56,0,0,0,1.47,1.35,14.56,14.56,0,0,0,3.56,1.65,26.2,26.2,0,0,0,3.88,1v.08A8.51,8.51,0,0,1,68.5,46.8c-.49-.49-.93-1-1.39-1.53s-.94-1-1.35-1.58a11,11,0,0,1-1.54-3.81Z"/><path d="M67.32,40.62a7.55,7.55,0,0,1,2.29,1.29,10.12,10.12,0,0,0,1,.89,4.26,4.26,0,0,0,1.18.56l4.9,1.51V45a5.83,5.83,0,0,1-5.13-1.18,9.62,9.62,0,0,0-1.1-.74c-.4-.2-.83-.34-1.23-.54a6.09,6.09,0,0,1-1.94-1.81Z"/><path d="M73.69,31a7.06,7.06,0,0,1,2.63-2.87c.58-.32,1.19-.55,1.78-.83s1.16-.57,1.74-.86A9.22,9.22,0,0,1,87.49,26v.08a35,35,0,0,0-7.48.79,7.45,7.45,0,0,0-1.77.68,11.41,11.41,0,0,0-1.51,1.16l-3,2.34Z"/><path d="M74.28,32.08a6.21,6.21,0,0,1,2.6-.77c.45,0,.91.06,1.36.06a8.87,8.87,0,0,0,1.35-.16,5.59,5.59,0,0,1,5.14,1.51l0,.07c-1.77-.48-3.33-.79-5.1-1.11a4.5,4.5,0,0,0-1.32,0A12,12,0,0,0,77,32a7.91,7.91,0,0,1-2.67.15Z"/><path d="M72.16,16.23a7,7,0,0,1,.73,2.6c0,.45,0,.91,0,1.35a6.83,6.83,0,0,0,.31,1.32,6.08,6.08,0,0,1,.23,2.76,3.2,3.2,0,0,1-1.59,2.31l0-.06c.87-1.58.83-3.15.94-5a5.93,5.93,0,0,0-.11-1.33c-.1-.44-.3-.86-.43-1.29a6.87,6.87,0,0,1-.11-2.68Z"/><path d="M70.72,12.19a14.68,14.68,0,0,1-.64,3.07,14.46,14.46,0,0,0-.54,1.48,5.74,5.74,0,0,0-.14,1.55,4.15,4.15,0,0,0,.29,1.4,6.37,6.37,0,0,1,.29.79,1.78,1.78,0,0,1-.06,1,11.56,11.56,0,0,0-.59,1.38,9,9,0,0,0-.1,1.52l-.09,0a3.83,3.83,0,0,1-.47-1.6,4.93,4.93,0,0,1,.39-1.59A1.93,1.93,0,0,0,68.93,20a3.2,3.2,0,0,1,0-1.71,14.51,14.51,0,0,0,.34-1.56c.06-.52,0-1.06.12-1.59a7,7,0,0,1,1.25-2.93Z"/></g></g></svg>