<svg xmlns="http://www.w3.org/2000/svg" viewBox="0 0 127.82 144.75"><defs><style>.cls-1{fill:#80b873;}.cls-2{fill:#56a045;}</style></defs><g id="Layer_2" data-name="Layer 2"><g id="Ingredients_Map" data-name="Ingredients Map"><path class="cls-1" d="M119.72,31.22a46.12,46.12,0,0,0-14.52-7.29c-4.49-1.48-10.7-2.12-12.2-7.44a16,16,0,0,1-.43-5.11c0-.66.28-3,.34-3.7.11-1.49-3.27.87-1.85,11.25a27.24,27.24,0,0,1-7.32-4.52,70.66,70.66,0,0,0-7.26-6.8C70.62,3.29,61.94,3.06,54.94,1.42a21,21,0,0,0-8.1-.54c-.36,0-.4.75-.11,1.06C50.06,5.59,53.47,9.32,57.66,12c4.49,2.87,9.56,3.69,14.61,5.05.71.19,2.8.49,2.2,1.68-.48.95-2.54.53-3.41.58a20.55,20.55,0,0,0-6,1.33c-3.89,1.44-7.35,3.78-10.86,5.95-3.87,2.39-8,4.69-12.64,4.76-.93,0-2.51,1.66-1,2A57.3,57.3,0,0,0,56.88,35a9.6,9.6,0,0,0-2.65,4.15A9.12,9.12,0,0,0,54,43.62c-6.58-3-12.76-7-20.11-7.68-10.18-.87-20.8,4.7-27.12,12.49C.34,56.39-2,67.62,1.87,77.29c2,4.94,5.18,9.38,8.44,13.56,2.92,3.75,6.3,7.35,10.65,9.41,5.21,2.47,10.89,1.66,16.29.33A136.61,136.61,0,0,0,53.43,95.4,21.07,21.07,0,0,0,60,91.65a18.17,18.17,0,0,0,4.23-6.12c.5-1.12.94-2.26,1.37-3.4.14-.37.33-1.37.62-1.6.45-.35,1.28.17,1.84.38,2.7,1,5.42,2,8.19,2.84A47,47,0,0,0,93.21,86c5.83-.44,11.34-2.51,16.65-4.82,2.37-1,5.13-1.93,6.93-3.88s2.56-4.44,3.74-6.62c2.43-4.5,5.24-8.86,7-13.69C129.19,52.38,123.48,34.21,119.72,31.22Z"/><path class="cls-2" d="M63,106.44h1.7v11.75a6.49,6.49,0,0,1-.34,2.44,2.74,2.74,0,0,1-1.08,1.26,3.39,3.39,0,0,1-1.81.47c-.11,0-.29,0-.55,0l-.32-1.59H61a2.82,2.82,0,0,0,1.13-.17,1.33,1.33,0,0,0,.61-.63A5.19,5.19,0,0,0,63,118Z"/><path class="cls-2" d="M72.37,113.63V117c0,.26.09.4.27.4a1.88,1.88,0,0,0,.88-.42v.94a5.24,5.24,0,0,1-.85.47,1.89,1.89,0,0,1-.67.12c-.67,0-1.06-.26-1.18-.78a3.38,3.38,0,0,1-2.1.77,1.86,1.86,0,0,1-1.91-1.9,1.94,1.94,0,0,1,.53-1.33,3.67,3.67,0,0,1,1.51-.93l2-.68v-.42a1.25,1.25,0,0,0-1.41-1.41A3.43,3.43,0,0,0,67,113.11v-1.69a3.24,3.24,0,0,1,2.6-1.07,3,3,0,0,1,2,.67,2.19,2.19,0,0,1,.46.56,2,2,0,0,1,.26.71A9.66,9.66,0,0,1,72.37,113.63Zm-1.53,3.16v-2.32l-1,.4a3.56,3.56,0,0,0-1.12.63,1.08,1.08,0,0,0-.33.8,1,1,0,0,0,.31.79,1.09,1.09,0,0,0,.81.31A1.93,1.93,0,0,0,70.84,116.79Z"/><path class="cls-2" d="M75.14,122.34V110.5h2.71a4.73,4.73,0,0,1,3.25,1,3.74,3.74,0,0,1,1.16,2.91,4,4,0,0,1-1.09,2.9,3.69,3.69,0,0,1-2.79,1.13,4.93,4.93,0,0,1-1.66-.33v4.19ZM77.82,112h-1.1v4.83a3.31,3.31,0,0,0,1.5.36,2.32,2.32,0,0,0,1.78-.75,3.08,3.08,0,0,0,.37-3.31,2,2,0,0,0-.9-.86A3.94,3.94,0,0,0,77.82,112Z"/><path class="cls-2" d="M89.24,113.63V117c0,.26.09.4.27.4a1.88,1.88,0,0,0,.88-.42v.94a4.52,4.52,0,0,1-.85.47,1.84,1.84,0,0,1-.66.12c-.67,0-1.06-.26-1.18-.78a3.39,3.39,0,0,1-2.11.77,1.88,1.88,0,0,1-1.91-1.9,1.9,1.9,0,0,1,.54-1.33,3.61,3.61,0,0,1,1.51-.93l2-.68v-.42a1.25,1.25,0,0,0-1.42-1.41,3.41,3.41,0,0,0-2.47,1.31v-1.69a3.22,3.22,0,0,1,2.6-1.07,3,3,0,0,1,2,.67,2.19,2.19,0,0,1,.46.56,2.27,2.27,0,0,1,.26.71A12.42,12.42,0,0,1,89.24,113.63Zm-1.52,3.16v-2.32l-1,.4a3.45,3.45,0,0,0-1.12.63,1.08,1.08,0,0,0-.33.8,1,1,0,0,0,.31.79,1.07,1.07,0,0,0,.8.31A1.94,1.94,0,0,0,87.72,116.79Z"/><path class="cls-2" d="M93.67,110.5v1A3.1,3.1,0,0,1,96,110.35a2.61,2.61,0,0,1,1.36.38,2.47,2.47,0,0,1,1,1,5,5,0,0,1,.33,2.09v4.49H97.13v-4.47a3.11,3.11,0,0,0-.37-1.72,1.4,1.4,0,0,0-1.23-.51,2.21,2.21,0,0,0-1.86,1.1v5.6H92.08V110.5Z"/><path class="cls-2" d="M64.39,144.53a.22.22,0,0,1-.24-.24v-6.42L61,128.66c0-.15,0-.24.17-.24H62.7c.17,0,.24.07.29.24l2.11,6.75h.07l2.11-6.75c0-.17.11-.24.26-.24H69c.16,0,.21.09.16.24l-3.1,9.21v6.42a.23.23,0,0,1-.24.24Z"/><path class="cls-2" d="M71.59,140.58V128.66a.22.22,0,0,1,.23-.24h1.45a.23.23,0,0,1,.24.24v12.15c0,1.4.71,2.13,1.85,2.13s1.84-.73,1.84-2.13V128.66a.23.23,0,0,1,.24-.24h1.45a.22.22,0,0,1,.23.24v11.92c0,2.77-1.47,4.17-3.76,4.17S71.59,143.35,71.59,140.58Z"/><path class="cls-2" d="M82.22,144.53a.22.22,0,0,1-.23-.24v-1.23a1,1,0,0,1,0-.28l4.89-12.54v0H82.46a.23.23,0,0,1-.24-.24v-1.3a.23.23,0,0,1,.24-.24h6.23a.22.22,0,0,1,.24.24v1.25a.79.79,0,0,1-.05.29L84,142.71v0h4.69a.23.23,0,0,1,.24.24v1.3a.22.22,0,0,1-.24.24Z"/><path class="cls-2" d="M91.77,140.58V128.66a.23.23,0,0,1,.24-.24h1.44a.22.22,0,0,1,.24.24v12.15c0,1.4.71,2.13,1.85,2.13s1.85-.73,1.85-2.13V128.66a.22.22,0,0,1,.23-.24h1.45a.23.23,0,0,1,.24.24v11.92c0,2.77-1.47,4.17-3.77,4.17S91.77,143.35,91.77,140.58Z"/><path d="M43,32.25A45.83,45.83,0,0,0,52.91,28,54.45,54.45,0,0,0,62,22.12a19,19,0,0,1,4.71-2.87,14.18,14.18,0,0,1,5.5-.88,28.48,28.48,0,0,1,10.57,2.8l0,.08c-3.51-.91-7-1.9-10.56-1.95a16.23,16.23,0,0,0-5.19.75,20.93,20.93,0,0,0-4.72,2.48c-3.09,1.9-5.95,4.14-9,6.12A25,25,0,0,1,43,32.34Z"/><path d="M43,33.67c3.62,0,7.21.11,10.8.16A38.66,38.66,0,0,0,64.48,33a45.91,45.91,0,0,0,19.26-9l.06.07A26.84,26.84,0,0,1,75,30.51a36,36,0,0,1-10.47,3c-3.59.44-7.18.84-10.81,1a56,56,0,0,1-10.81-.81Z"/><path d="M47.3,32.59c3-.92,5.93-1.71,8.92-2.45A48.93,48.93,0,0,0,65.1,27.6c2.91-1.08,5.68-2.33,8.65-3.33,2.9-1.29,6.14-1.24,9.17-1.48l0,.09c-3,.8-6.1,1-8.9,2.27-2.85,1.06-5.8,2.11-8.78,2.92s-5.91,1.81-8.85,2.79a51.09,51.09,0,0,1-9.1,1.81Z"/><path d="M83.51,21.51a3.45,3.45,0,0,1,1.95.83,2.1,2.1,0,0,0,1.86.65,6.8,6.8,0,0,1,4.19.23v.09a7,7,0,0,1-4.23.17c-.7-.27-1.4-.28-2.17-.49a5.12,5.12,0,0,1-1.62-1.4Z"/><path d="M83.49,24.28a2.61,2.61,0,0,1,1.64-.49,2.65,2.65,0,0,0,1.69,0,4.06,4.06,0,0,1,3.35.24v.09a4.91,4.91,0,0,1-3.33.17,2.2,2.2,0,0,0-1.64.22,2.94,2.94,0,0,1-1.69-.17Z"/><path d="M82.76,16.68a4.15,4.15,0,0,1,2,.63,3.78,3.78,0,0,0,1.82,1,6.91,6.91,0,0,1,3.67,2l0,.08a6.82,6.82,0,0,1-3.85-1.67,3.86,3.86,0,0,0-2-.81,4,4,0,0,1-1.72-1.21Z"/><path d="M91.2,19.42A5.18,5.18,0,0,1,89,18.59a4.8,4.8,0,0,0-2-1.23,8.69,8.69,0,0,1-4.07-2.42l0-.08a8.67,8.67,0,0,1,4.27,2.06,4.67,4.67,0,0,0,2.14,1,5.29,5.29,0,0,1,1.93,1.41Z"/><path d="M52.78,3.09A39.43,39.43,0,0,1,60,5.14c2.28,1,4.52,2.07,6.87,2.92,4.72,1.74,8.78,4.6,13.37,6.43l0,.09a24.09,24.09,0,0,1-7-2.49c-2.21-1.16-4.33-2.41-6.51-3.58a30.38,30.38,0,0,0-6.92-2.66,73.84,73.84,0,0,1-6.93-2.67Z"/><path d="M45.69,1.42c3.45,1.12,6.17,3.74,8.56,6.31s4.72,5.39,8,6.75a30,30,0,0,0,5,1.6c1.71.4,3.46.61,5.18,1,3.4.72,7,1.12,10.27-.38l.05.08a10.07,10.07,0,0,1-5.1,1.64A18.82,18.82,0,0,1,72.3,18c-1.76-.32-3.54-.61-5.26-1.08a24.67,24.67,0,0,1-5-2,44.35,44.35,0,0,1-8.33-6.67c-2.51-2.49-4.9-5.08-8.06-6.74Z"/><path d="M82.57,16a2.18,2.18,0,0,0,0-2.38A16.07,16.07,0,0,0,81,11.56a34.52,34.52,0,0,0-3.62-3.83,16.2,16.2,0,0,0-4.3-3,14.12,14.12,0,0,0-5.15-1.16,32.73,32.73,0,0,1-5.29-.93c-1.74-.46-3.5-.61-5.23-1C53.94,1,50.41,0,46.94.91l0-.08A11.65,11.65,0,0,1,52.24,0a41.48,41.48,0,0,1,5.34.69A47.89,47.89,0,0,1,62.83,1.8,42.33,42.33,0,0,0,68,3.06a19.75,19.75,0,0,1,9.87,4.11,21.32,21.32,0,0,1,3.68,4A14.17,14.17,0,0,1,83,13.46a2.31,2.31,0,0,1-.36,2.64Z"/><path d="M92.09,22.49a30.5,30.5,0,0,1-1.56-9.15,14.32,14.32,0,0,1,.77-4.63,7.12,7.12,0,0,1,.52-1.08,1.39,1.39,0,0,1,.46-.44.59.59,0,0,1,.71,0c.39.47.07.94,0,1.27a5.93,5.93,0,0,0-.25,1.09,21,21,0,0,0,.16,4.54c.15,1.52.39,3,.62,4.54.49,3,1.09,6,1.53,9.11l-.09,0a61.33,61.33,0,0,1-2.36-9,37.9,37.9,0,0,1-.55-4.64,17.64,17.64,0,0,1,.21-4.69,7.09,7.09,0,0,1,.36-1.13c.17-.35.34-.74.15-.91s-.54,0-.72.33a4.71,4.71,0,0,0-.45,1,11.8,11.8,0,0,0-.33,4.51c.15,3.05.57,6.08.91,9.16Z"/><path d="M95.52,32.75a17.83,17.83,0,0,1,1.86,5A39.76,39.76,0,0,0,98.32,43a24.58,24.58,0,0,1,.41,10.59h-.09c-.43-3.53-.59-7-.81-10.5a16.8,16.8,0,0,0-1.18-5.13,45.61,45.61,0,0,1-1.22-5.13Z"/><path d="M92.65,25.46a2.46,2.46,0,0,1-.19,2.18,7.73,7.73,0,0,1-1.84,1.19A6.21,6.21,0,0,0,88,31.69c-1.06,2.5-.2,5.53.92,8a31.08,31.08,0,0,0,4.47,7c1.77,2.11,3.81,4.26,4.84,6.95l-.08,0c-1.51-2.39-3.62-4.22-5.47-6.39a21.75,21.75,0,0,1-4.22-7.42c-.44-1.36-.8-2.73-1.12-4.11a8.61,8.61,0,0,1,0-4.34,5.85,5.85,0,0,1,3-3.2c.63-.38,1.4-.5,1.81-.9a2.51,2.51,0,0,0,.46-1.86Z"/><path d="M96.39,30a17.18,17.18,0,0,1,2.44,5.56c.36,2,.59,4,1,6a21.68,21.68,0,0,1-1,12l-.09,0a93.89,93.89,0,0,0,.65-11.94,16.07,16.07,0,0,0-1.23-5.84L96.31,30Z"/><path d="M54.82,28.07a4,4,0,0,1,1.43,0,1.86,1.86,0,0,0,1.46.28,3.86,3.86,0,0,1,3,.32v.09a3.33,3.33,0,0,1-3,.08,2.12,2.12,0,0,0-1.51,0,2.06,2.06,0,0,1-.74-.13c-.2-.09-.61-.2-.67-.58Z"/><path d="M59.13,26a2,2,0,0,1,1.36.07,1.45,1.45,0,0,0,1.25.41,3.29,3.29,0,0,1,2.62.47V27a2.58,2.58,0,0,1-2.69-.08,1.82,1.82,0,0,0-1.36-.16,1.73,1.73,0,0,1-1.2-.71Z"/><path d="M63.59,24.78a1.72,1.72,0,0,1,1.33-.06,1.45,1.45,0,0,0,1.22.39,2.69,2.69,0,0,1,2.48.73l0,.09A2.69,2.69,0,0,1,66,25.59a1.52,1.52,0,0,0-1.29-.13,1.73,1.73,0,0,1-1.19-.59Z"/><path d="M65.36,22.37a3.27,3.27,0,0,1,1.83.32,2.76,2.76,0,0,0,1.65.75,5.22,5.22,0,0,1,3.34,1.46l0,.08a5.19,5.19,0,0,1-3.48-1.07,2.92,2.92,0,0,0-1.76-.52,3.14,3.14,0,0,1-1.58-.93Z"/><path d="M69.41,21.31a2.07,2.07,0,0,1,1.45.35,1.92,1.92,0,0,0,1.26.78,3.46,3.46,0,0,1,2.54,1.49l0,.08a3.49,3.49,0,0,1-2.71-1.13,1.89,1.89,0,0,0-1.36-.54,2.16,2.16,0,0,1-1.17-.95Z"/><path d="M73.19,20.29a1.88,1.88,0,0,1,1.32.5,1.74,1.74,0,0,0,1.08.88,3.93,3.93,0,0,1,1.28.58,2.63,2.63,0,0,1,.82,1.23l-.07.06a3.57,3.57,0,0,1-2.31-1.47,1.73,1.73,0,0,0-1.21-.66,1.93,1.93,0,0,1-1-1Z"/><path d="M52.74,32.85a1.09,1.09,0,0,1,.74-.69c.36,0,.72,0,.9-.33A1.7,1.7,0,0,1,56.1,31l.06.07a1.55,1.55,0,0,1-1.54,1.24c-.38,0-.6.25-.82.57a1,1,0,0,1-1,.1Z"/><path d="M56.89,32.72a2.06,2.06,0,0,1,1-1A1.48,1.48,0,0,0,59,31.06a3.38,3.38,0,0,1,2.13-1.65l.07.06a2.69,2.69,0,0,1-1.9,2,1.81,1.81,0,0,0-1,.91,1.75,1.75,0,0,1-1.34.44Z"/><path d="M61.41,31.85a3,3,0,0,1,1.13-1.17,2,2,0,0,0,1.3-.92,5.22,5.22,0,0,1,2.28-2.25l.08.06a3.49,3.49,0,0,1-2,2.55A2.75,2.75,0,0,0,63,31.28a2.26,2.26,0,0,1-1.53.65Z"/><path d="M65.39,31.45a2.64,2.64,0,0,1,.87-1.28,1.79,1.79,0,0,0,1.1-1,4.47,4.47,0,0,1,1.92-2.36l.07,0a3.23,3.23,0,0,1-1.61,2.63,2.37,2.37,0,0,0-.94,1.24,2.17,2.17,0,0,1-1.35.82Z"/><path d="M69.35,30a1.81,1.81,0,0,1,.56-1.25,1.58,1.58,0,0,0,.92-1,2.86,2.86,0,0,1,1.79-2l.07.06a2.83,2.83,0,0,1-1.48,2.21,1.57,1.57,0,0,0-.71,1.13,1.78,1.78,0,0,1-1.08.83Z"/><path d="M72.69,28.84a1.67,1.67,0,0,1,.41-1.24,1.39,1.39,0,0,0,.8-1,2.58,2.58,0,0,1,1.54-2l.08,0a2.57,2.57,0,0,1-1.21,2.21A1.44,1.44,0,0,0,73.72,28a1.59,1.59,0,0,1-1,.86Z"/><path d="M75.37,28.26a1.59,1.59,0,0,1,.41-1.21,1.35,1.35,0,0,0,.78-.95,2.47,2.47,0,0,1,1.51-1.93l.08,0A2.5,2.5,0,0,1,77,26.38a1.37,1.37,0,0,0-.58,1.1,1.51,1.51,0,0,1-1,.84Z"/><path d="M79.2,25.36c-.15-.32-.13-.52,0-.65s.48-.14.41-.41c-.07-.49.1-.83.77-.85l.07.05c.28.62,0,.91-.43,1.06-.27.05-.25.29-.19.55s-.22.31-.58.3Z"/><path d="M91.09,30.88a1.21,1.21,0,0,1,1.14.14c.25.34.49.64.91.66a1.77,1.77,0,0,1,1.61,1.49l0,.07a2.22,2.22,0,0,1-1.82-1.14,1,1,0,0,0-1-.41,1.29,1.29,0,0,1-.84-.73Z"/><path d="M89.43,33.72a2.54,2.54,0,0,1,1.64-.42,3.05,3.05,0,0,0,1.68.2,2.88,2.88,0,0,1,3.09,1.27l-.06.07A9.83,9.83,0,0,1,92.7,34a1.93,1.93,0,0,0-1.61.06,2.85,2.85,0,0,1-1.65-.24Z"/><path d="M88.81,37.08A2.46,2.46,0,0,1,90.3,35.9a4.55,4.55,0,0,0,1.84-.42,3.54,3.54,0,0,1,3.69.25l0,.09a11.66,11.66,0,0,1-3.57.15,2.16,2.16,0,0,0-1.66.62,4.59,4.59,0,0,1-1.72.56Z"/><path d="M90.58,38.76a2,2,0,0,1,1.16-.88,1.84,1.84,0,0,0,1.36-.46A2.42,2.42,0,0,1,96,37.19v.09a5.2,5.2,0,0,1-2.7.6,1.76,1.76,0,0,0-1.22.69,2,2,0,0,1-1.42.27Z"/><path d="M91.92,40.6a1.55,1.55,0,0,1,1-.85A1.4,1.4,0,0,0,94,39.3a1.8,1.8,0,0,1,2.48,0l0,.09a4.28,4.28,0,0,1-2.3.43,1.3,1.3,0,0,0-1,.66,1.59,1.59,0,0,1-1.23.25Z"/><path d="M92.85,42.43a1.36,1.36,0,0,1,.87-.84,1.41,1.41,0,0,0,1.13-.37A1.77,1.77,0,0,1,97.19,41v.09a3.08,3.08,0,0,1-2.16.63,1.09,1.09,0,0,0-1,.58,1.43,1.43,0,0,1-1.16.25Z"/><path d="M94.78,44.5a.66.66,0,0,1,.43-.66c.31,0,.59,0,.69-.27A1,1,0,0,1,97.23,43l0,.08a1,1,0,0,1-1.11.93c-.31-.05-.44.2-.54.48a.7.7,0,0,1-.79.11Z"/><path d="M95.72,46.25c0-.38.17-.56.37-.6s.51.08.58-.2c.18-.48.47-.7,1.15-.46l.06.07a.76.76,0,0,1-1,.81c-.28-.07-.38.16-.48.44a.51.51,0,0,1-.68,0Z"/><path d="M96.87,48.1c-.09-.29-.08-.39,0-.36s.25.25.2,0,0-.41.37,0l0,.08c.17.55.06.56-.18.33s-.12,0-.08.18-.11,0-.29-.22Z"/><path d="M55.57,2.07c.39,0,.62.13.72.36s0,.59.35.66a1,1,0,0,1,.76,1.27l-.07.06a1,1,0,0,1-1.07-1c0-.31-.26-.42-.56-.49a.69.69,0,0,1-.2-.78Z"/><path d="M58.46,2.79a.75.75,0,0,1,.71.47c0,.33,0,.63.34.74a1.14,1.14,0,0,1,.7,1.43l-.07.05a1.15,1.15,0,0,1-1-1.21c0-.33-.24-.47-.54-.58a.79.79,0,0,1-.16-.85Z"/><path d="M61.13,3.19a1.06,1.06,0,0,1,.85.62c0,.39.07.74.42.93a1.56,1.56,0,0,1,.69,1.88l-.08,0A1.78,1.78,0,0,1,62,5c0-.39-.28-.6-.62-.76a1.14,1.14,0,0,1-.29-1Z"/><path d="M65.3,5.32c.32-.06.45,0,.45.12s-.17.35.06.34c.39,0,.54.19.17.67l-.07,0c-.6.1-.68-.11-.52-.46s-.06-.22-.28-.22-.09-.2.11-.45Z"/><path d="M67.65,4.91a1.67,1.67,0,0,1,1,.88A1.64,1.64,0,0,0,69.25,7a2.52,2.52,0,0,1,1,2.42l-.08,0a3,3,0,0,1-1.35-2.2,1.36,1.36,0,0,0-.78-1A1.8,1.8,0,0,1,67.58,5Z"/><path d="M70.53,5.85a1.88,1.88,0,0,1,1,1.06A1.87,1.87,0,0,0,72,8.22a2.9,2.9,0,0,1,.91,2.65l-.08,0a3.39,3.39,0,0,1-1.28-2.47,1.61,1.61,0,0,0-.74-1.17,2.09,2.09,0,0,1-.39-1.36Z"/><path d="M73.58,6.92a2,2,0,0,1,.9,1.22,2.13,2.13,0,0,0,.42,1.44,3.18,3.18,0,0,1,.65,2.89l-.09,0a3.89,3.89,0,0,1-1-2.75,1.8,1.8,0,0,0-.64-1.32A2.29,2.29,0,0,1,73.5,7Z"/><path d="M77,9a1,1,0,0,1,.56.84c-.1.37-.16.72.12,1A1.61,1.61,0,0,1,78,12.73l-.09,0a1.6,1.6,0,0,1-.68-1.82c.12-.37-.1-.64-.36-.9a1.1,1.1,0,0,1,.08-1Z"/><path d="M55.53,6.06c.09-.36.25-.51.45-.52s.49.17.6-.09c.26-.44.61-.61,1.2-.24l0,.09a.73.73,0,0,1-1.05.61c-.26-.12-.4.08-.52.34s-.4.11-.68-.1Z"/><path d="M56.65,7a.92.92,0,0,1,.72-.62c.35.07.68.1.88-.19A1.41,1.41,0,0,1,60,5.76l0,.09a1.41,1.41,0,0,1-1.61.81c-.36-.09-.59.15-.8.43a.9.9,0,0,1-1,0Z"/><path d="M58.63,8.35a1.18,1.18,0,0,1,.86-.66,1,1,0,0,0,1-.24,1.85,1.85,0,0,1,2-.52l0,.09a1.84,1.84,0,0,1-1.89.9c-.39-.08-.67.18-.93.47a1.18,1.18,0,0,1-1.09,0Z"/><path d="M61.4,10.16a1,1,0,0,1,.83-.57c.36.1.7.16,1-.13a1.57,1.57,0,0,1,1.89-.31l0,.09a1.55,1.55,0,0,1-1.78.7c-.36-.11-.63.11-.88.37a1,1,0,0,1-1-.06Z"/><path d="M63.8,11.7a2.36,2.36,0,0,1,1.39-.77,2.09,2.09,0,0,0,1.51-.33,3.81,3.81,0,0,1,3-.7l0,.08a3.83,3.83,0,0,1-2.9,1.1,2.15,2.15,0,0,0-1.45.57,2.3,2.3,0,0,1-1.56.13Z"/><path d="M65.33,13.77a3.2,3.2,0,0,1,1.62-.7,2.47,2.47,0,0,0,1.69-.33,5.34,5.34,0,0,1,3.34-1l0,.08a4.37,4.37,0,0,1-3.23,1.34,2.85,2.85,0,0,0-1.66.59,2.77,2.77,0,0,1-1.78.06Z"/><path d="M69.65,14.85a1.8,1.8,0,0,1,1.15-.68,1.43,1.43,0,0,0,1.26-.23,2.7,2.7,0,0,1,2.52-.53l0,.09a2.68,2.68,0,0,1-2.41.91A1.56,1.56,0,0,0,71,14.9a1.67,1.67,0,0,1-1.32,0Z"/><path d="M73.64,15.83a1.51,1.51,0,0,1,1-.75,1.17,1.17,0,0,0,1.11-.31,2.21,2.21,0,0,1,2.21-.69l0,.08a2.21,2.21,0,0,1-2.06,1.07,1.26,1.26,0,0,0-1,.56,1.37,1.37,0,0,1-1.18.13Z"/><path d="M77.81,16.11c-.07-.32,0-.44.09-.44s.34.19.33,0,.16-.5.61-.12l0,.08c.11.58-.08.65-.42.47-.19-.13-.2.05-.19.26s-.18.08-.42-.14Z"/><path d="M108.69,24.81a11.64,11.64,0,0,1,4.58,1.08,18.06,18.06,0,0,1,3.94,2.63c2.33,2,4.93,4,6.36,7a26.88,26.88,0,0,1,2.16,9.16,4.8,4.8,0,0,0,.55,2.19,7.87,7.87,0,0,1,1,2.17,13.61,13.61,0,0,1,.08,4.72,34.27,34.27,0,0,1-.72,4.67A43.84,43.84,0,0,1,125,62.81c-.55,1.41-.18,2.86-.39,4.58s-1.69,2.88-2,4.27a15.75,15.75,0,0,1-.71,2.3,8.26,8.26,0,0,1-1.39,2A20.5,20.5,0,0,1,117,79.14a41,41,0,0,1-8.3,4.39l0-.08a52,52,0,0,0,8-4.83,18.77,18.77,0,0,0,3.29-3.19,9,9,0,0,0,1.21-1.85,14.79,14.79,0,0,0,.65-2.18c.44-1.69,1.77-2.81,1.94-4.17s-.12-3.12.51-4.68,1.32-2.86,1.72-4.34a35.4,35.4,0,0,0,.9-4.54,12.67,12.67,0,0,0,.11-4.59A7.48,7.48,0,0,0,126,47a5.83,5.83,0,0,1-.61-2.3,23.8,23.8,0,0,0-2.51-8.85c-1.41-2.71-3.86-4.69-6.15-6.79a14.46,14.46,0,0,0-8.08-4.14Z"/><path d="M68.1,77.6a3.19,3.19,0,0,0,1.65,1.84,3,3,0,0,0,1.2.29,1.5,1.5,0,0,1,1.25.9c.23.41.41.74.66.79a5.35,5.35,0,0,0,1.21,0,1.85,1.85,0,0,1,1.41.69,3.76,3.76,0,0,0,1,.72,4.07,4.07,0,0,0,2.39.48,2.9,2.9,0,0,1,1.41.16,5.53,5.53,0,0,1,1.12.77,3.62,3.62,0,0,0,2.46.53,12.69,12.69,0,0,1,2.68.27,43.27,43.27,0,0,0,10.4,1.17,10.2,10.2,0,0,0,2.49-.39,21.32,21.32,0,0,1,2.56-.84c1.78-.35,3.6-.14,5.08-1.16l.06.07c-1.36,1.3-3.38,1.33-5,1.78a22.75,22.75,0,0,0-2.43,1,9.13,9.13,0,0,1-2.72.5,31.4,31.4,0,0,1-10.57-1.61A9.06,9.06,0,0,0,83.82,85a4.56,4.56,0,0,1-2.63-.6,5.09,5.09,0,0,0-1.08-.68,2.64,2.64,0,0,0-1.22,0,4.51,4.51,0,0,1-2.77-.31,4.3,4.3,0,0,1-1.18-.82c-.35-.32-.54-.47-.88-.47a4.71,4.71,0,0,1-1.43,0,2,2,0,0,1-1-1.16c-.22-.39-.33-.57-.74-.64a3.48,3.48,0,0,1-1.33-.47A3.18,3.18,0,0,1,68,77.62Z"/><path d="M96,30.24a3.37,3.37,0,0,1,1.19-1.88,3.74,3.74,0,0,1,2.14-.72,1.44,1.44,0,0,0,1.5-1,1.15,1.15,0,0,1,1-.55c.38,0,.72,0,1.08,0a19.69,19.69,0,0,1,4.32.21,4.69,4.69,0,0,1,3.49,2.59l-.07.05c-2.07-2.06-5-1.71-7.78-2.36-.66-.09-1.53-.43-1.79.23a3.34,3.34,0,0,1-.56,1,2.34,2.34,0,0,1-1.08.56,5.46,5.46,0,0,0-1.88.54,5.64,5.64,0,0,0-1.5,1.36Z"/><path d="M98.62,29.88a2.19,2.19,0,0,1,1.26-.59,1.91,1.91,0,0,1,1.36.53,1.25,1.25,0,0,0,1,.48c.44,0,.67-.26,1.08-.57a.73.73,0,0,1,.47-.14.74.74,0,0,1,.29.12l.14.15c.23.3.22.26.34.31a9.82,9.82,0,0,0,1.14.06,2.16,2.16,0,0,1,1.9,2l-.08,0a2.69,2.69,0,0,0-1.92-1,3.68,3.68,0,0,1-1.39-.25,1,1,0,0,1-.52-.6c0-.09,0-.14,0-.14s-.07,0-.15,0a3.09,3.09,0,0,1-2.68.27c-.43-.22-.61-.44-.95-.47a6.86,6.86,0,0,0-1.21,0Z"/><path d="M95.13,23.78a1,1,0,0,1,1.1-1.1,1.23,1.23,0,0,1,.83.55,5.16,5.16,0,0,1,.28.6c0,.22.47.25.8-.13a2.56,2.56,0,0,1,.62-.46,1.7,1.7,0,0,1,.8-.1c.55,0,.94.14,1.37.13a3.08,3.08,0,0,0,.61-.06,1.21,1.21,0,0,1,.53,0,1,1,0,0,1,.55.37,3.9,3.9,0,0,0,2,1.56v.09a2.77,2.77,0,0,1-2.79-1c-.13-.09.11,0-.21,0a3.66,3.66,0,0,1-2.21-.52.81.81,0,0,0-1.1.3,2.3,2.3,0,0,1-.6.55.84.84,0,0,1-1-.17c-.45-.6-.34-.85-.66-.94a.68.68,0,0,0-.87.43Z"/><path d="M107.9,24.94c-.15.3-.27.4-.42.35s-.33-.29-.43-.06-.41.47-.9.07l0-.08c.06-.64.46-.72.83-.47.2.16.32,0,.46-.21s.34,0,.5.31Z"/><path d="M60.56,36.18a10.22,10.22,0,0,0-.6,2.11,1.85,1.85,0,0,1-.22.65,4.33,4.33,0,0,1-.44.49,2.23,2.23,0,0,0-.64,1,1.76,1.76,0,0,0-.1.93.87.87,0,0,0,.07.17l.15.3a1.12,1.12,0,0,1,.15.76A7.78,7.78,0,0,1,58,44.8H58a8.83,8.83,0,0,1,0-2.36c0-.13,0-.17-.08-.37l-.09-.25a1.8,1.8,0,0,1-.08-.39,1.76,1.76,0,0,1,.52-1.3c.56-.6,1.31-1.16,1-1.88a2.37,2.37,0,0,1,1.28-2.12Z"/><path d="M85.65,30.16a3.28,3.28,0,0,1-2.26.09,2.15,2.15,0,0,0-1-.21c-.35,0-.66.28-1.07.43a6.23,6.23,0,0,1-1.14.08,5.29,5.29,0,0,0-1,.15,8.09,8.09,0,0,0-2,.65l-.07-.06A2.87,2.87,0,0,1,79,29.76a3.85,3.85,0,0,1,2.3.22c.63,0,1.42-.48,2.23-.48a8.63,8.63,0,0,1,2.15.57Z"/><path d="M83.65,33a7,7,0,0,1-2.08,1,5.28,5.28,0,0,0-2.32.09,20.36,20.36,0,0,1-4.16,1.57l0-.07a5.1,5.1,0,0,1,4.14-2,4,4,0,0,0,2.2-.32,3.68,3.68,0,0,1,2.26-.33Z"/><path d="M84,26.66a1.19,1.19,0,0,1,1.09.15c.23.32.49.6.89.56a1.85,1.85,0,0,1,1.8,1.07l0,.08a1.83,1.83,0,0,1-2-.71,1,1,0,0,0-1-.32,1.21,1.21,0,0,1-.81-.75Z"/><path d="M13.45,42.32A43.32,43.32,0,0,0,3.34,56,31.53,31.53,0,0,0,.6,64.12,21.66,21.66,0,0,0,1,72.64a66.9,66.9,0,0,0,2.54,8.2c1,2.72,1.87,5.41,3.61,7.64,3.51,4.39,7.8,8.54,13.35,10.25l0,.09a19.77,19.77,0,0,1-7.82-3.69A32.71,32.71,0,0,1,6.38,89c-1.89-2.32-2.77-5.23-3.67-7.93A57.14,57.14,0,0,1,.48,72.73,27.65,27.65,0,0,1,.3,64.07a35.34,35.34,0,0,1,2.36-8.35A33.31,33.31,0,0,1,13.39,42.25Z"/><path d="M23.46,100.53a18.28,18.28,0,0,0,11.2.71c3.69-1,7.67-.92,11.25-2.08,7.33-2.1,13.59-7.32,17.87-13.59a21.13,21.13,0,0,0,3.85-10.49A19.69,19.69,0,0,0,67,69.49c-.42-1.86-.86-3.72-1.38-5.56a76.64,76.64,0,0,0-3.76-10.8A16.41,16.41,0,0,0,54.28,45l0-.09c3.68,1.35,6.39,4.54,8.15,8a60.8,60.8,0,0,1,4.06,10.84c.53,1.85,1,3.72,1.41,5.61a20.73,20.73,0,0,1,.54,5.84,21.12,21.12,0,0,1-4.3,10.73,43.74,43.74,0,0,1-8,8.32,32.87,32.87,0,0,1-10,5.69c-3.74,1.31-7.64,1.07-11.37,2.06a17.32,17.32,0,0,1-11.34-1.32Z"/><path d="M14.53,41.53a23,23,0,0,1,9.84-4.29c1.77-.34,3.53-.64,5.32-.91a20.35,20.35,0,0,1,5.4.18,26.12,26.12,0,0,0,2.64.23c.86,0,1.74-.08,2.67-.08a6.28,6.28,0,0,1,2.8.52,12.13,12.13,0,0,1,2.28,1.59,13.69,13.69,0,0,0,4.61,2.4c1.65.63,3.47,1.65,4.12,3.42l-.08,0c-2-3.25-6.38-2.47-9.23-5.12A12.76,12.76,0,0,0,42.79,38a5.32,5.32,0,0,0-2.41-.52A21.69,21.69,0,0,1,35,37a13.12,13.12,0,0,0-5.28-.36c-1.74.29-3.46.88-5.18,1.33a40.11,40.11,0,0,0-10,3.63Z"/><path d="M11.28,91.79a22.38,22.38,0,0,0,6.23,2.95A11.06,11.06,0,0,1,20.84,96c.5.29,1,.68,1.47.91a12.31,12.31,0,0,0,1.58.6,33.66,33.66,0,0,0,6.7,1.85,18.86,18.86,0,0,0,6.88-.64A59.83,59.83,0,0,0,44.2,97a16.71,16.71,0,0,0,3.13-1.44L50.41,94a63.63,63.63,0,0,0,11.38-8l.06.06a42,42,0,0,1-11,8.72l-3.16,1.62a17.1,17.1,0,0,1-3.26,1.39,48.5,48.5,0,0,1-6.89,1.44,26.57,26.57,0,0,1-7,.46,41.16,41.16,0,0,1-6.89-1.45,9.32,9.32,0,0,1-3.21-1.52A10.3,10.3,0,0,0,17.3,95.4a17.67,17.67,0,0,1-6.08-3.54Z"/><path d="M62.46,84.87c-.2-.23-.23-.33-.15-.33s.33.12.21-.05-.14-.4.36-.12l.07,0c.36.45.26.51-.05.39s-.12,0,0,.21-.09.07-.36-.09Z"/><path d="M63.43,83.33a45.11,45.11,0,0,0,2-5.4,14.09,14.09,0,0,0,.32-5.6c-.39-3.81-2-7.42-3.12-11.13s-1.83-7.62-4.22-10.51-6.11-4.4-9.78-5.54l0-.09c3.78.6,7.79,1.91,10.47,5s3.16,7.28,4,11,2.6,7.27,3.39,11.15a12.18,12.18,0,0,1-.4,5.9,24.59,24.59,0,0,1-2.57,5.25Z"/><path d="M12.9,44.85a30.8,30.8,0,0,1,8.31-5.09A43.33,43.33,0,0,1,30.82,38a36.26,36.26,0,0,1,4.89-.08A12.31,12.31,0,0,1,40.57,39c1.52.68,2.89,1.51,4.31,2.29s2.94,1.5,4,2.82l-.07.06c-1.2-1.08-2.79-1.53-4.24-2.25L40.2,39.81a14,14,0,0,0-4.55-1.08c-1.6-.14-3.2-.29-4.82-.28a20.61,20.61,0,0,0-9.34,2c-2.93,1.26-5.69,2.91-8.54,4.46Z"/><path d="M122.69,54.72a.72.72,0,0,1,.12.83c-.25.21-.46.43-.33.74a1.12,1.12,0,0,1-.61,1.47l-.08,0a1.13,1.13,0,0,1,.21-1.57c.27-.2.2-.49.08-.77s.16-.49.53-.69Z"/><path d="M121.9,61.21c.35.07.49.21.48.4s-.21.45,0,.55c.41.25.56.58.13,1.09l-.08,0c-.64-.17-.72-.52-.52-1,.14-.23,0-.35-.28-.47s-.09-.34.15-.61Z"/><path d="M120.37,55.15c.31,0,.42.07.38.19s-.28.29-.06.32.43.27-.06.63l-.09,0c-.57,0-.58-.22-.32-.51s0-.21-.19-.25,0-.19.25-.38Z"/><path d="M100.92,83a.86.86,0,0,1-.55.8c-.38,0-.69,0-.91.29A1.13,1.13,0,0,1,97.62,84l0-.09a1.94,1.94,0,0,1,1.64-.24c.34.1.55-.17.69-.48a1,1,0,0,1,.89-.22Z"/><path d="M95.51,83.42c0,.33-.17.48-.36.48s-.46-.19-.55.06c-.21.42-.55.58-1,.17l0-.08c.15-.65.46-.73.9-.55.23.13.34-.06.43-.29s.32-.09.61.12Z"/><path d="M111.37,79.35c-.06.34-.22.47-.39.44s-.39-.25-.46,0-.1.3-.11.33a1,1,0,0,0-.49.14h-.08a.52.52,0,0,1-.18-.74.57.57,0,0,1,.69-.18c.23.13.34,0,.46-.26s.29,0,.53.2Z"/><path d="M108.54,79.35c.06.3.1.38,0,.34s-.22-.26-.14-.07.06.23,0,.26a.61.61,0,0,1-.35-.3l0-.09c-.07-.28-.15-.36-.14-.42s.1,0,.23.13.1,0,.07-.18.13,0,.27.24Z"/><path d="M107.53,78.65c0,.32,0,.43-.07.39s-.25-.25-.23,0,0,.39-.47,0l-.05-.08c-.19-.51,0-.58.31-.35s.16,0,.16-.21.16,0,.32.21Z"/><path d="M105.69,79.71c0,.3,0,.39,0,.35s-.19-.29-.13-.09a1,1,0,0,0,.06.23.61.61,0,0,0-.32-.29l-.08,0c-.21-.2-.19-.39-.15-.46s.17,0,.29.11.1,0,.09-.17.09,0,.22.27Z"/><path d="M106.27,80.93c.09.29.19.34.16.29s-.22-.26-.08-.1.28.21-.2-.08l-.08,0c-.44-.35-.33-.43-.07-.24s.07,0,0-.16.13,0,.25.24Z"/><path d="M104.28,80.53c0,.32-.08.44-.2.41s-.29-.26-.33,0-.28.46-.64,0l0-.08c0-.6.23-.63.52-.38s.22,0,.26-.22.2,0,.39.22Z"/><path d="M104.46,82.06c.07.3.06.39,0,.34s-.16-.3-.13-.09,0,.37-.24-.14l0-.08c-.11-.55,0-.54.11-.25s.08,0,.06-.15.06,0,.19.28Z"/><path d="M102.59,81.16c.07.29.08.39,0,.33s-.14-.3-.1-.1,0,.37-.2-.15l0-.08c-.12-.55-.06-.53.08-.24s.06,0,0-.14,0,0,.16.29Z"/><path d="M91.19,79.69c.29-.13.38-.17.37-.08s-.13.33,0,.21.36-.17.23.39l0,.08c-.38.43-.57.27-.49-.08s-.08-.14-.28-.07-.11-.15.09-.4Z"/><path d="M94.54,80.36c.07-.31.14-.41.22-.35s.14.32.21.11.3-.38.43.16v.09c-.15.57-.29.55-.43.24s-.14,0-.21.15-.14,0-.22-.31Z"/><path d="M95.17,81.67c.17-.26.22-.33.22-.27s-.09.33,0,.14.08-.21.07-.22a.46.46,0,0,0,0,.43l0,.09c.05.29-.09.4-.16.43s-.12-.09-.1-.26,0-.08-.16.08,0-.06.06-.34Z"/><path d="M90.24,82.11c0,.32,0,.43-.16.4s-.26-.28-.32-.06-.48.39-.58-.2v-.08c.25-.54.28-.5.48-.21s.18,0,.2-.18.16,0,.34.24Z"/><path d="M89.31,79.65c.3-.05.4,0,.35,0s-.3.18-.08.2.38.31-.2.32l-.09,0c-.54-.16-.51-.07-.2-.22s0-.09-.15-.07,0-.08.28-.22Z"/><path d="M87.67,80.73c.31,0,.41,0,.37.07S87.77,81,88,81s.33-.08,0,.37l-.06.06c-.52.29-.65,0-.39-.24s0-.14-.19-.14,0-.13.26-.28Z"/><path d="M87.51,83.58c0,.32-.05.43-.17.4s-.26-.28-.32-.06-.47.39-.57-.2v-.09c.25-.53.27-.49.48-.2s.18,0,.2-.18.16,0,.34.25Z"/><path d="M86.22,79.88c.3,0,.41,0,.35.1s-.33.09-.14.19.21.4-.3.15l-.07,0c-.43-.37-.43-.3-.11-.23s.06,0-.13,0,0,0,.31-.11Z"/><path d="M99.25,80.92c0,.31,0,.41-.07.37S99,81,99,81.22s-.13.42-.42-.07l0-.09c-.05-.57.08-.57.3-.31s.13,0,.14-.18.12,0,.28.26Z"/><path d="M99.49,79.16c0,.3,0,.4,0,.36s-.19-.29-.17-.08-.07.4-.33-.11l0-.08c-.08-.56,0-.56.21-.28s.11,0,.09-.17.1,0,.24.27Z"/><path d="M119,58.24c.1.3,0,.47-.13.52s-.46-.06-.45.19c0,.44-.3.68-.85.4l0-.07c-.07-.66.14-.78.58-.71.24.07.27-.14.25-.37s.24-.15.58,0Z"/><path d="M118.24,56.62c.23.21.28.3.2.31s-.31-.13-.17,0,.19.38-.29.11l-.08,0c-.39-.42-.32-.47,0-.35s.09,0,0-.19.06-.06.33.08Z"/><path d="M117,57.76c.22.24.21.42.09.47s-.4,0-.31.19c.09.38,0,.54-.56.35l-.08-.05c-.3-.53-.11-.68.26-.62.22,0,.19-.13.09-.31s.11-.11.43-.07Z"/><path d="M117.84,55.34c.18.25.2.36.1.37s-.36-.09-.25.09.07.44-.46.2l-.08,0c-.33-.46-.2-.54.15-.46s.15-.07,0-.24.13-.1.41,0Z"/><path d="M120,61.72c.3,0,.41.08.36.19s-.3.26-.09.32.41.37-.12.58h-.09c-.58-.15-.56-.27-.27-.5s0-.19-.16-.22,0-.17.28-.35Z"/><path d="M118.78,61.46c.18.26.2.39.1.42s-.36-.07-.26.13c.14.35.07.51-.46.29l-.07,0c-.32-.51-.19-.62.16-.56s.15-.1,0-.29.13-.13.41,0Z"/><path d="M103.8,69.09c.1.32.09.46,0,.49s-.4-.08-.34.14c.06.38,0,.52-.67.35l-.08,0c-.26-.5,0-.69.39-.64.24.06.23-.13.19-.36s.22-.16.5,0Z"/><path d="M98.19,67.21c.11.32.09.46,0,.49s-.4-.08-.34.15c.06.38,0,.52-.67.35l-.07-.06c-.27-.5,0-.69.39-.64.24.06.22-.12.19-.35s.21-.16.49,0Z"/><path d="M100.25,60.6c.1.33.09.47,0,.5s-.4-.08-.34.14c.06.38-.05.52-.67.35l-.07-.05c-.27-.51,0-.7.39-.65.23.06.22-.12.19-.35s.21-.16.49,0Z"/><path d="M122.22,49.25c.27.22.3.42.2.55s-.41.23-.23.41a2.11,2.11,0,0,1,.23.25,1,1,0,0,0-.1.49l0,.08a.54.54,0,0,1-.74-.21.57.57,0,0,1,.17-.69c.23-.14.14-.32,0-.53s.1-.27.43-.37Z"/><path d="M123.13,48.75c.31.07.41.16.35.25s-.32.2-.11.27.38.19-.09.54l-.08,0c-.6,0-.63-.32-.32-.53s0-.19-.15-.28,0-.18.31-.29Z"/><path d="M120,54c.28.16.35.27.27.36s-.37.14-.19.28.27.47-.31.56h-.09c-.51-.31-.44-.5-.08-.64s.1-.19-.07-.33.06-.2.38-.24Z"/><path d="M122.27,43.94c.28.16.35.28.27.37s-.37.13-.19.27.27.47-.31.57l-.09,0c-.51-.3-.44-.5-.08-.64s.1-.19-.07-.33.06-.19.38-.23Z"/><path d="M119.77,55.77c.3.08.38.12.31.13s-.33,0-.14,0,.34.17-.22.1h-.09c-.54-.15-.49-.19-.17-.18s.07,0-.11-.09,0,0,.33,0Z"/><path d="M115.72,33.23c.32,0,.44,0,.41.11s-.25.25,0,.24.43.07,0,.5l-.08.05c-.54.15-.61-.08-.38-.36s0-.17-.23-.19,0-.18.21-.33Z"/><path d="M88.36,57c.31.14.4.23.35.35s-.28.31,0,.38c.38.14.47.25.13.77l-.08.05c-.62.06-.76-.32-.53-.69.16-.19,0-.28-.21-.41s0-.32.3-.45Z"/><path d="M103.44,46.68c.29-.09.4-.07.37,0s-.22.3,0,.26.43.08,0,.5l-.08,0c-.54.16-.57,0-.36-.28s0-.17-.21-.13,0-.14.19-.37Z"/><path d="M89.36,50.23c.2-.24.28-.3.32-.23s0,.37.14.18.1-.33.39.18l0,.09c0,.6-.41.57-.51.21s-.14-.1-.3.05-.17-.09-.1-.4Z"/><path d="M94.33,58.73c.3,0,.38-.08.33,0s-.27.2-.08.11.19-.13.17-.15a.34.34,0,0,0-.21.37l0,.09a.33.33,0,0,1-.42.28c-.07-.06-.08-.17,0-.31s0-.11-.19-.08,0-.14.26-.25Z"/><path d="M90.44,56c.33,0,.45,0,.42.11s-.25.25,0,.23.42.08,0,.51l-.08,0c-.54.14-.61-.08-.39-.36s0-.17-.23-.2,0-.18.22-.32Z"/><path d="M90.33,78.06a1,1,0,0,0,.09.32c-.1-.17-.25-.22-.09-.09s.33.1-.24.1H90c-.55-.16-.44-.41-.08-.36.2.06.11,0,.08-.26s.17-.07.31.21Z"/><path d="M84,63.76c.26.17.35.18.29.15s-.33,0-.12,0,.34-.12-.17.13l-.09,0c-.54.15-.56,0-.23-.15s.06-.07-.1-.18.07-.12.35,0Z"/><path d="M94.64,67.42c.08.3.18.36.15.29s-.22-.25-.08-.1.31.18-.2-.06l-.08,0c-.47-.31-.35-.42-.07-.24s.07,0,0-.17.13,0,.25.24Z"/><path d="M120.08,69.8c0,.34-.17.48-.36.49s-.45-.19-.54.06c-.22.42-.56.58-1.05.17l0-.09c.15-.65.46-.72.9-.54.23.13.34-.06.43-.3s.32-.09.61.13Z"/><path d="M115.77,66.07c.28-.13.37-.16.37-.08s-.13.34,0,.22.36-.18.23.38l0,.08c-.38.44-.57.27-.49-.07s-.08-.14-.27-.07-.11-.16.08-.4Z"/><path d="M119.11,66.75c.07-.31.15-.41.22-.35s.14.32.22.11.29-.39.43.15v.09c-.15.58-.29.55-.43.25s-.14,0-.21.15-.14,0-.22-.31Z"/><path d="M119.75,68.05c.16-.26.22-.33.21-.26s-.09.32,0,.14.09-.22.07-.22-.09.15,0,.43l0,.08c0,.29-.08.41-.16.44s-.12-.09-.1-.27,0-.08-.15.08-.06,0,.06-.34Z"/><path d="M116.61,75c0,.32-.06.43-.17.4s-.26-.28-.32-.06-.47.39-.57-.19v-.09c.25-.53.27-.5.48-.21s.17,0,.2-.17.16,0,.34.24Z"/><path d="M109.51,68.59c.31,0,.42,0,.37.06s-.27.23-.06.2.33-.09,0,.37l-.06.06c-.52.28-.65,0-.39-.24s0-.14-.19-.14,0-.13.26-.28Z"/><path d="M105.76,68.1c.31,0,.41,0,.37.07s-.27.22-.06.19.33-.08,0,.37l-.07.06c-.51.29-.64,0-.38-.24s0-.14-.19-.14,0-.13.26-.28Z"/><path d="M108.29,67.43c.28-.14.31-.24.29-.17s0,.34,0,.14.06-.35.35.16l0,.08c0,.58-.29.6-.44.25s-.13-.09-.34,0-.21-.18,0-.43Z"/><path d="M114.91,64.45a1.67,1.67,0,0,0,.08.32c-.1-.17-.25-.22-.09-.09s.33.1-.24.1h-.09c-.55-.16-.44-.41-.08-.37s.11,0,.08-.26.17-.06.31.22Z"/><path d="M116.92,70.7c.18.26.18.38.08.39s-.34-.13-.25.07c.11.35.13.37-.41.18l-.08,0c-.4-.44-.17-.63.15-.49s.14-.06.06-.24.1-.07.38.07Z"/><path d="M109.79,64.07c.31,0,.41,0,.37.07s-.28.21-.07.21.41.11-.08.4l-.09,0c-.57,0-.57-.07-.3-.28s0-.14-.18-.13,0-.13.26-.28Z"/><path d="M107.71,63.14c.3-.08.39-.09.33-.06s-.3.13-.11.08.36,0-.16.15l-.09,0c-.54.14-.51.1-.22,0s.05,0-.13,0,0,0,.3-.14Z"/><path d="M105.3,60.54c.3-.08.39-.1.33-.07s-.32.11-.12.06.35-.08-.17.11l-.09,0c-.54.16-.51.13-.21,0s.06,0-.13,0,0,0,.31-.12Z"/><path d="M73.41,78.63a.73.73,0,0,1-.81-.21c-.1-.32-.22-.6-.55-.6a1.13,1.13,0,0,1-1.13-1.12l.07-.07a1.13,1.13,0,0,1,1.36.8c.08.32.37.37.68.37s.39.33.43.75Z"/><path d="M73.91,76.31c-.13.29-.23.36-.32.28s-.16-.37-.28-.17-.41.29-.55-.3V76c.25-.53.43-.46.6-.11s.18.1.3-.08.19.06.25.38Z"/><path d="M71.58,73.88c-.32,0-.45-.15-.43-.32s.23-.4,0-.49c-.39-.21-.52-.54-.05-.93l.09,0c.63.19.66.43.43.81-.16.2,0,.3.23.37s.05.29-.19.55Z"/><path d="M73.38,73.79c-.29.12-.4.13-.37.06s.24-.24,0-.17-.42,0,0-.31l.07-.05c.55-.2.56-.12.34.11s0,.1.19,0,0,.08-.21.27Z"/><path d="M72.81,72.17c-.31.12-.47,0-.47-.1s.18-.35,0-.36c-.39,0-.5-.2-.11-.65l.08,0c.59-.08.67.15.47.47s0,.22.25.2.06.15-.1.42Z"/><path d="M74.71,73.9c-.3.08-.41.06-.39,0s.23-.3,0-.27-.44-.1,0-.51l.08,0c.55-.13.58,0,.36.31s0,.17.21.14,0,.15-.19.37Z"/><path d="M74.76,71.15c-.36-.15-.51-.35-.52-.6s.17-.56-.1-.72a1,1,0,0,1-.4-1.39l.08,0a1,1,0,0,1,.78,1.27c-.11.3.1.48.36.66a.69.69,0,0,1-.11.79Z"/><path d="M78.64,80.29c-.3.17-.51.12-.59,0s0-.47-.28-.37-.29.12-.32.12-.12-.14-.42-.29l0-.07a.53.53,0,0,1,.47-.6.57.57,0,0,1,.58.42c0,.26.24.24.48.2s.22.2.18.54Z"/><path d="M78.7,79c-.2.23-.24.32-.24.25s.07-.34,0-.16-.14.2-.19.19a.61.61,0,0,1,0-.47l0-.07c.16-.24.18-.35.24-.37s0,.08,0,.26,0,.08.19-.07.1.09,0,.36Z"/><path d="M76.05,78.25c-.18.26-.16.37-.13.3s.06-.32,0-.12,0,.35-.07-.2v-.09c0-.56.12-.53.14-.2s0,.07.13-.11.11.08,0,.35Z"/><path d="M75.11,76.45c-.25.2-.39.21-.44.1s0-.39-.18-.27-.54.07-.4-.51l0-.08c.48-.35.63-.2.62.18,0,.22.14.16.33.06s.15.13.07.44Z"/><path d="M73.57,75.53c-.19.24-.26.3-.24.23s.14-.3,0-.15-.28.25,0-.24l0-.08c.35-.44.37-.38.23-.09s0,.08.13-.06,0,0-.12.31Z"/><path d="M85.3,71.78c.12.3.08.44,0,.46s-.4-.11-.36.12c0,.39-.17.57-.67.25l0-.07c-.14-.59,0-.68.41-.57.22.09.22-.09.18-.3s.19-.11.48,0Z"/><path d="M83.08,71.74c-.07.3-.12.38-.14.31s0-.34-.08-.14-.17.34-.15-.23v-.09c.14-.54.2-.49.22-.17s0,.07.11-.11.06,0,0,.34Z"/><path d="M74.66,64.76c-.26.15-.35.18-.32.12s.24-.24,0-.16-.25,0-.28,0,.11-.22.4-.24h.09a.53.53,0,0,0,.42-.08s-.07,0-.2.1,0,.08.14,0,0,.06-.22.26Z"/><path d="M110.29,61.15c.07.3.25.34.27.17s-.3-.13-.11-.25.1-.37-.1.16l0,.09c-.27.5-.48.32-.29,0,.16-.16,0-.09-.13-.37s.26-.18.37.11Z"/><path d="M111.19,48.88c0,.4-.13.62-.35.72s-.59.06-.63.37a1,1,0,0,1-1.13.9l-.07-.06a1,1,0,0,1,.87-1.21c.32,0,.41-.27.48-.58a.68.68,0,0,1,.77-.2Z"/><path d="M108.16,59.65c.31,0,.41,0,.37.07s-.28.22-.07.19c.36,0,.34-.08,0,.37l-.06.06c-.52.29-.65,0-.39-.24s0-.14-.19-.14,0-.13.26-.28Z"/><path d="M105.43,61.13c.31,0,.41,0,.37.06s-.28.22-.07.19.34-.08,0,.37l-.07.06c-.52.29-.64,0-.38-.24s0-.14-.19-.14,0-.13.25-.28Z"/><path d="M106.71,58.81c.3-.06.41,0,.35.09s-.33.09-.15.19.22.4-.29.15l-.07,0c-.44-.37-.43-.3-.11-.23s.06,0-.13,0,0,0,.31-.11Z"/><path d="M104.2,60c.29-.13.32-.24.3-.17s0,.34,0,.14,0-.34.35.16l0,.09c0,.57-.29.59-.44.25s-.14-.09-.34,0-.21-.19,0-.43Z"/><path d="M107.7,55.17c.18.25.18.38.08.39s-.34-.13-.25.07.13.36-.41.18l-.08,0c-.4-.44-.17-.64.15-.49s.15-.06.06-.25.1-.07.38.08Z"/><path d="M105.71,56.6c.3,0,.41,0,.37.07s-.29.22-.07.21.41.12-.09.4l-.08,0c-.57.06-.57-.07-.3-.28s0-.13-.18-.13,0-.12.26-.27Z"/><path d="M104,57.69c.16-.27.21-.34.21-.27s-.14.3,0,.17a.21.21,0,0,1,.32,0c0,.08-.12.12-.38.23l-.09,0c-.28.07-.38.08-.42.12a.17.17,0,0,0,.26,0c.13-.16,0-.06-.07.11s0,0,.11-.31Z"/><path d="M103.63,55.68c.3-.08.39-.1.33-.06s-.31.13-.11.08.36-.05-.17.15l-.08,0c-.54.14-.52.11-.22,0s.05-.05-.13,0,0,0,.3-.15Z"/><path d="M105.33,51.44c.25.18.31.25.23.25s-.31-.13-.16,0,.12.22.06.27-.25,0-.38-.27l0-.09a.52.52,0,0,0-.24-.36s0,.06.18.15.08,0-.07-.12,0,0,.32.1Z"/><path d="M106.21,53.69c.07.3.24.34.27.17-.12-.24-.3-.13-.12-.25s.1-.37-.09.16l0,.08c-.26.5-.47.33-.29,0,.17-.16,0-.09-.12-.37s.26-.19.36.1Z"/><path d="M118.4,67c0,.31,0,.41-.06.37s-.2-.29-.19-.07-.1.4-.38-.1l0-.08c-.07-.57,0-.57.25-.29s.12,0,.12-.18.11,0,.25.27Z"/><path d="M115.78,73.82c.24.19.27.28.18.29s-.33-.12-.21,0,.1.43-.35.09l-.06-.07c-.32-.48-.28-.46,0-.32s.11,0,0-.16.07,0,.36.09Z"/><path d="M74.17,42.68c.1.32.08.46,0,.49s-.41-.08-.34.14c.06.38-.05.52-.67.35l-.08,0c-.27-.5,0-.69.39-.64.24.05.23-.13.19-.36s.21-.16.49,0Z"/><path d="M76.22,36.07c.11.32.09.46,0,.49s-.4-.08-.34.14c.06.39,0,.53-.67.36L75.1,37c-.27-.5,0-.69.39-.64.24.06.22-.12.19-.36s.21-.15.49,0Z"/><path d="M68.78,52.93c0,.3,0,.41,0,.36s-.21-.28-.2-.07-.1.4-.37-.09l0-.09c-.07-.56.05-.56.25-.29s.12,0,.12-.17.11,0,.26.26Z"/><path d="M66.31,53.53a1.67,1.67,0,0,0,.08.32c-.1-.17-.25-.22-.09-.09s.33.1-.24.1H66c-.55-.16-.44-.41-.08-.37.21.07.11,0,.08-.26s.18-.06.31.22Z"/><path d="M67.6,50.77c0,.31,0,.41-.06.37s-.2-.29-.19-.07-.1.4-.38-.1l0-.08c-.07-.57,0-.57.25-.29s.12,0,.12-.18.11,0,.25.27Z"/><path d="M68.69,48.17c.23.18.27.28.18.29s-.34-.12-.21,0,.09.43-.35.08l-.06-.06c-.33-.48-.29-.46,0-.32s.11,0,0-.16.07,0,.37.09Z"/><path d="M66,46.8c.06.3.06.39,0,.34s-.16-.3-.13-.09,0,.38-.24-.14l0-.08c-.11-.55,0-.54.12-.25s.08,0,0-.15.07,0,.19.28Z"/><path d="M13,51.81a14.57,14.57,0,0,0-3.59,5.42,18.4,18.4,0,0,0-.93,3.13,3.56,3.56,0,0,0,.35,3,5,5,0,0,0,2.59,1.73,22.6,22.6,0,0,0,3.19.82,48.34,48.34,0,0,0,6.58.61l3.32.12a4.31,4.31,0,0,0,3-.58.86.86,0,0,0,.23-1.12,11.71,11.71,0,0,0-.92-1.28,24.74,24.74,0,0,0-2.15-2.46c-3-3.18-6.37-6.18-9-9.8l.06,0c2.88,3.37,6.3,6.17,9.4,9.35A21.61,21.61,0,0,1,27.3,63.2a13.27,13.27,0,0,1,1,1.43,1.54,1.54,0,0,1-.44,1.87,4.58,4.58,0,0,1-3.4.62l-3.31-.27q-3.32-.22-6.6-.75c-1.1-.19-2.19-.4-3.27-.69a5.35,5.35,0,0,1-2.92-1.76,4,4,0,0,1-.48-3.41,18.66,18.66,0,0,1,1-3.2,12.91,12.91,0,0,1,4-5.28Z"/><path d="M25,43.56a11.93,11.93,0,0,0-5.62,2.75,4.29,4.29,0,0,0-1.67,2.41,5.26,5.26,0,0,0,.2,1.48,4.54,4.54,0,0,0,.47,1.43,8.74,8.74,0,0,0,2.16,2.22c.83.68,1.63,1.41,2.4,2.16,1.51,1.52,3,3.07,4.54,4.53.78.68,1.59,1.55,2.54,1.47s1.18-1.2,1.16-2.21a41.72,41.72,0,0,0-.95-6.27l-1.2-6.29-.6-3.15c-.1-.53-.2-1.05-.67-1.24a2.59,2.59,0,0,0-1.53,0l0-.07a2.78,2.78,0,0,1,1.62-.18c.62.18.83.88.92,1.37l.76,3.12c.51,2.07,1,4.15,1.4,6.27a32.38,32.38,0,0,1,.91,6.4,4.44,4.44,0,0,1-.3,1.69,1.63,1.63,0,0,1-1.48,1c-1.32,0-2.06-1-2.81-1.72-1.55-1.5-2.89-3.18-4.46-4.63a20.72,20.72,0,0,0-2.46-2,8.62,8.62,0,0,1-2.41-2.23,5.35,5.35,0,0,1-.57-1.58,4.62,4.62,0,0,1-.21-1.68,4.75,4.75,0,0,1,1.92-2.74,10.91,10.91,0,0,1,6-2.43Z"/><path d="M32.48,41.87a3.12,3.12,0,0,0-1.48.69A2,2,0,0,0,30.53,44c0,1.09.33,2.22.46,3.33.3,2.23.67,4.45,1.07,6.68s.57,4.49,1.12,6.67a4.22,4.22,0,0,0,.51,1.56.93.93,0,0,0,1.33.26,7.47,7.47,0,0,0,2-2.6c1-2,1.8-4.15,2.91-6.13a32.45,32.45,0,0,0,2.69-6.12,4.77,4.77,0,0,0,0-3.1,3,3,0,0,0-2.44-1.73,41,41,0,0,0-6.63-1.23v-.07a30.77,30.77,0,0,1,6.74.83,5.83,5.83,0,0,1,1.68.56,3,3,0,0,1,1.23,1.38,5.14,5.14,0,0,1,.08,3.54,27.42,27.42,0,0,1-2.8,6.24c-1.13,2-2,4-3.14,6a7.79,7.79,0,0,1-2.18,2.67,1.19,1.19,0,0,1-1.64-.38A5.12,5.12,0,0,1,33,60.77c-.57-2.21-1-4.42-1.45-6.64-.2-1.11-.44-2.21-.6-3.33l-.43-3.38a29.41,29.41,0,0,1-.29-3.4,2.18,2.18,0,0,1,.67-1.62,3.24,3.24,0,0,1,1.61-.6Z"/><path d="M45.77,48c-2.25,4-4.85,7.74-6.62,11.86A7.1,7.1,0,0,0,38.51,63a1.34,1.34,0,0,0,.81,1.19,2.88,2.88,0,0,0,1.6-.15c2.19-.62,4.34-1.35,6.51-2a25.21,25.21,0,0,0,6.17-2.69A5.39,5.39,0,0,0,55.74,57a5,5,0,0,0-.07-3.13,9,9,0,0,0-3.39-5.48,8.48,8.48,0,0,0-3.12-1.1c-1.06-.11-2.35-.69-3.19.15l0,0a1.8,1.8,0,0,1,1.58-.6,16.16,16.16,0,0,1,1.72.16,9.06,9.06,0,0,1,3.32,1,8.9,8.9,0,0,1,3.8,5.73,5.48,5.48,0,0,1,.06,3.56,6.1,6.1,0,0,1-2.46,2.59,24.21,24.21,0,0,1-6.4,2.51c-2.18.64-4.39,1.2-6.55,1.89a3,3,0,0,1-1.75.2,1.68,1.68,0,0,1-1.1-1.41,7.39,7.39,0,0,1,.48-3.46c1.74-4.29,4.46-8,7.09-11.69Z"/><path d="M41.63,65.31a5,5,0,0,0-2,1.92c-.19.37.11.69.5.94s.81.5,1.22.72a32.25,32.25,0,0,0,5.37,2c3.68,1.13,7.5,2,11,3.49a4.34,4.34,0,0,0,2.71,0,2.64,2.64,0,0,0,1.61-1.93,15.64,15.64,0,0,0-.26-5.6,56.79,56.79,0,0,0-1.38-5.58,4.72,4.72,0,0,0-1.25-2.44,3.31,3.31,0,0,0-2.69-.27l0-.07a3.38,3.38,0,0,1,2.91.07,5.05,5.05,0,0,1,1.51,2.55,34.94,34.94,0,0,1,1.61,5.61,14.44,14.44,0,0,1,.18,5.9,3.14,3.14,0,0,1-2,2.25,4.77,4.77,0,0,1-3-.17,39.43,39.43,0,0,0-5.43-2c-1.86-.52-3.77-.83-5.66-1.31a23.44,23.44,0,0,1-5.46-2.07,8.52,8.52,0,0,1-1.24-.81,1.81,1.81,0,0,1-.55-.58.87.87,0,0,1,0-.87,4.83,4.83,0,0,1,2.3-1.83Z"/><path d="M43.33,71.54c-.73.1-1.61-.15-2.06.33s-.18,1.24.2,1.83c.85,1.22,1.61,2.51,2.5,3.7a70.39,70.39,0,0,0,5.89,6.82c1,1.08,1.85,2.54,3.25,2.59a5.31,5.31,0,0,0,3.74-1.68A8.54,8.54,0,0,0,59,81.44,11.65,11.65,0,0,0,59.31,77h.07a8.94,8.94,0,0,1-2,8.61,5.55,5.55,0,0,1-4.29,1.81A3.1,3.1,0,0,1,51,86.26c-.51-.61-.91-1.22-1.38-1.81-1.83-2.38-4.06-4.41-6-6.7A37.11,37.11,0,0,1,41,74a1.91,1.91,0,0,1,0-2.35c.78-.6,1.59-.1,2.3-.14Z"/><path d="M43.16,79c-1.37-1.09-2.36-2.61-3.78-3.46-.67-.43-1.6-.7-2-.2a3.75,3.75,0,0,0-.45,2.27,71.75,71.75,0,0,0,1.86,10.17c.45,1.63.63,3.49,1.52,4.81a2,2,0,0,0,1.92.92c.75-.12,1.62-.43,2.44-.65s1.62-.54,2.43-.8a5.27,5.27,0,0,0,2.21-1.12c1.32-1.08,1.43-3,1.26-4.66h.07a7.85,7.85,0,0,1,.19,2.61,4,4,0,0,1-1.18,2.41,5.67,5.67,0,0,1-2.3,1.35,24.51,24.51,0,0,1-2.48.88,18.89,18.89,0,0,1-2.57.68,2.68,2.68,0,0,1-2.51-1.25c-1-1.64-1-3.4-1.36-5.09s-.6-3.42-1-5.11-.9-3.34-1.08-5.12a3.83,3.83,0,0,1,.58-2.7,1.56,1.56,0,0,1,1.46-.4,3.45,3.45,0,0,1,1.28.56c1.54,1,2.35,2.61,3.55,3.85Z"/><path d="M31.56,75.42A56.4,56.4,0,0,0,24.6,87a24.34,24.34,0,0,0-1.23,3.12,3,3,0,0,0-.26,1.58c.12.5.62.81,1.12,1.06a17.76,17.76,0,0,0,6.46,1.76A18.73,18.73,0,0,0,34,94.43a5.75,5.75,0,0,0,1.57-.32A1.6,1.6,0,0,0,36.45,93c.4-2.08-.1-4.4-.4-6.59s-.83-4.43-1.4-6.61c-.29-1.09-.6-2.18-.95-3.25-.17-.53-.3-1.12-.78-1.32a1.91,1.91,0,0,0-1.54.31l0-.06A2,2,0,0,1,33,75.05c.64.23.83.91,1,1.41.4,1.06.76,2.14,1.1,3.22a48.53,48.53,0,0,1,1.61,6.63c.35,2.24.84,4.49.33,6.89a2.22,2.22,0,0,1-1.22,1.46,6.6,6.6,0,0,1-1.76.29,19.53,19.53,0,0,1-3.42-.1,20.7,20.7,0,0,1-6.54-1.91,2.09,2.09,0,0,1-1.27-1.2A3,3,0,0,1,23,90a21.35,21.35,0,0,1,1.08-3.25,37.55,37.55,0,0,1,7.42-11.37Z"/><path d="M26.85,71.62a58.68,58.68,0,0,0-12.23,5.76A9.82,9.82,0,0,0,12,79.43a3.67,3.67,0,0,0-.85,3A4.74,4.74,0,0,0,13.23,85c.89.69,1.84,1.32,2.72,2a23.87,23.87,0,0,1,2.42,2.4,2,2,0,0,0,2.7.46c1.79-1.21,2.44-3.51,3.22-5.61S26.05,80.11,26.8,78a21.36,21.36,0,0,0,.88-3.25,5.75,5.75,0,0,0,.14-1.64,1.15,1.15,0,0,0-1-1.08V72A1.3,1.3,0,0,1,28,73.06a5,5,0,0,1,0,1.73,22.23,22.23,0,0,1-.74,3.35c-.66,2.19-1.54,4.3-2.33,6.4s-1.42,4.52-3.53,5.91a2.44,2.44,0,0,1-1.85.35,3,3,0,0,1-1.55-1,22,22,0,0,0-2.3-2.49c-.84-.74-1.77-1.4-2.65-2.12A5.65,5.65,0,0,1,11,82.54a4.24,4.24,0,0,1,.78-3.34,10.13,10.13,0,0,1,2.59-2.3,38.83,38.83,0,0,1,12.51-5.34Z"/><path d="M9.25,65.76c-1.48,3.16-.35,6.7.44,9.85a1.82,1.82,0,0,0,1.78,1.19,6,6,0,0,0,2.39-.64c1.59-.64,3.11-1.44,4.63-2.2s3-1.64,4.48-2.47l2.21-1.29c.32-.15.93-.64.71-.32a2.51,2.51,0,0,0-.83-.67,9.1,9.1,0,0,0-2.36-.65c-.84-.16-1.69-.34-2.52-.55a32.13,32.13,0,0,1-4.89-1.6l0-.07c1.65.46,3.3.87,5,1.19s3.37.28,5.1,1.06a3,3,0,0,1,1.13,1,.61.61,0,0,1-.06.7,1.57,1.57,0,0,1-.35.25l-.56.32-2.26,1.24c-1.51.81-3.07,1.53-4.62,2.24L14,76.37a7.22,7.22,0,0,1-2.49.81,2.29,2.29,0,0,1-2.29-1.35,21.59,21.59,0,0,1-1.07-5.09,7.91,7.91,0,0,1,1.08-5Z"/><path d="M31.32,77.52c-.16,1.84-.73,3.58-1,5.33a5.17,5.17,0,0,0,0,2.62,1.51,1.51,0,0,0,2,1,2.25,2.25,0,0,0,1.26-2A7.8,7.8,0,0,0,33.26,82,17.38,17.38,0,0,0,31,77.14l.05,0a10.4,10.4,0,0,1,2.92,4.66,6.48,6.48,0,0,1,.35,2.82,2.66,2.66,0,0,1-1.77,2.23,2,2,0,0,1-2.35-1.25,6.55,6.55,0,0,1-.37-2.77,22.59,22.59,0,0,1,1.47-5.28Z"/><path d="M29.67,59a41.6,41.6,0,0,1-1.44-5.77c-.16-1-.18-2.09-1-2.55a1.34,1.34,0,0,0-1.31.18,3.93,3.93,0,0,0-1.12.91,3.12,3.12,0,0,0,.43,4.75,26.45,26.45,0,0,1,2.49,1.63,19.35,19.35,0,0,1,2.17,2.07l0,.05c-.82-.57-1.61-1.17-2.44-1.7s-1.7-.88-2.58-1.48a3.3,3.3,0,0,1-1.56-2.75,3.83,3.83,0,0,1,1.27-2.83,5.17,5.17,0,0,1,1.27-.86,1.73,1.73,0,0,1,1.52-.18c1,.53,1.22,1.72,1.47,2.62a43.46,43.46,0,0,1,1,5.9Z"/><path d="M49.84,64.9c-1.79.29-3.55.49-5.25.93a7.91,7.91,0,0,0-2.45.93c-.43.22-.27.68.08.94a4.31,4.31,0,0,0,1.13.63,14.15,14.15,0,0,0,5.17.68,1.55,1.55,0,0,0,1.58-1.33,6.81,6.81,0,0,0,.09-1.3c0-.42.19-1-.21-1.17v-.07c.27,0,.4.33.44.55l.1.67a5.77,5.77,0,0,1,.1,1.39A2.31,2.31,0,0,1,50,69.14a2.18,2.18,0,0,1-1.43.57,10.62,10.62,0,0,1-5.38-1,6.8,6.8,0,0,1-1.13-.8,1.15,1.15,0,0,1-.39-.62.71.71,0,0,1,.33-.68,10.65,10.65,0,0,1,2.43-1.28,13.55,13.55,0,0,1,5.4-.46Z"/><path d="M43.94,55.67c-1.13,1.59-2.36,3.06-3.33,4.68A4,4,0,0,0,40,61.59a1.4,1.4,0,0,0,0,.6c.07.13.32.15.54.12a27.35,27.35,0,0,0,2.77-.81,10,10,0,0,0,2.59-1.06A2.34,2.34,0,0,0,47,58.31,3.35,3.35,0,0,0,46,56a2.8,2.8,0,0,0-2.61-.31l0-.06a2.82,2.82,0,0,1,2.94-.07,3.55,3.55,0,0,1,1.48,2.69A2.82,2.82,0,0,1,46.25,61a9.26,9.26,0,0,1-2.84.89c-.95.19-1.88.4-2.83.67a.75.75,0,0,1-.8-.18,1.37,1.37,0,0,1-.12-.82,4.18,4.18,0,0,1,.46-1.45,15.86,15.86,0,0,1,3.77-4.45Z"/><path d="M25.1,73.77A24.71,24.71,0,0,0,20.64,77a5.24,5.24,0,0,0-1.71,2.07c-.4.93.68,1.54,1.49,1.72a22.2,22.2,0,0,0,2.72.32c.95.17,1.38-.37,1.69-1.24a12.4,12.4,0,0,0,.57-5.4h.06a8.75,8.75,0,0,1,0,5.63,2.84,2.84,0,0,1-.82,1.35,2.07,2.07,0,0,1-1.58.31,16.63,16.63,0,0,1-2.78-.61,3.89,3.89,0,0,1-1.25-.75A1.32,1.32,0,0,1,18.7,79a6.58,6.58,0,0,1,1.55-2.41,10.76,10.76,0,0,1,4.83-2.87Z"/><path d="M24.12,70.14a10.34,10.34,0,0,1-2.45-.3,3.75,3.75,0,0,0-2.38-.18A2,2,0,0,0,17.74,71a1.62,1.62,0,0,0,.43,1.94V73c-1-.06-1.41-1.39-1.08-2.23a2.07,2.07,0,0,1,.84-1.14,2.4,2.4,0,0,1,1.32-.33c.85,0,1.67,0,2.53,0a5.75,5.75,0,0,1,2.36.79Z"/><path d="M38.4,79a11.29,11.29,0,0,1,1,2.85c.08,1,.43,2.12,1.32,2.44.89.16,1.24-.92,1.34-1.8a14,14,0,0,0-.16-2.93l.07,0a5.21,5.21,0,0,1,.78,3,3,3,0,0,1-.53,1.58,1.33,1.33,0,0,1-1.64.5,3.31,3.31,0,0,1-1-1.21A8.05,8.05,0,0,1,38.88,82a11,11,0,0,1-.54-3Z"/><path d="M8.62,58.6a4.21,4.21,0,0,0,1,.79.59.59,0,0,0,.58,0c.23-.09.39-.29.67-.41a.91.91,0,0,1,.93.17,1.86,1.86,0,0,1,.49.67c.23.42.36.84.59,1.3l0,.06a2.11,2.11,0,0,1-1.16-1c-.27-.41-.35-.78-.73-.81s-.71.56-1.44.6a1.18,1.18,0,0,1-.91-1.31Z"/><path d="M20.53,65.21c.29,0,.43.05.51.19s.09.4.31.36c.4,0,.6,0,.84.5v.06a.63.63,0,0,1-1-.25c-.07-.22-.26-.23-.49-.26s-.26-.28-.18-.56Z"/><path d="M18.77,61.53a9.39,9.39,0,0,1,1.44.41c.47.3.83.72,1.26,1a11.33,11.33,0,0,1,2.22,2l0,.06a3.22,3.22,0,0,1-2.46-1.81A1.22,1.22,0,0,0,20,62.47a1.77,1.77,0,0,1-1.28-.89Z"/><path d="M11.66,55.44A2.27,2.27,0,0,1,13,55.9a3.41,3.41,0,0,0,1.12.92,2.72,2.72,0,0,1,1.08,1,12.19,12.19,0,0,1,.6,1.26l0,0a2.13,2.13,0,0,1-1.14-.93c-.27-.36-.47-.74-.74-1.12a1.77,1.77,0,0,0-1.17-.72,2.77,2.77,0,0,1-1.1-.88Z"/><path d="M10.64,67.82a2.3,2.3,0,0,1,1.19,0A1.36,1.36,0,0,0,13,67.9a6.21,6.21,0,0,1,1.12-.34,1.66,1.66,0,0,1,1.26.13v.06a8.22,8.22,0,0,1-1.1.49,2.52,2.52,0,0,1-1.25,0,2.39,2.39,0,0,0-1.24.08,1.54,1.54,0,0,1-1.16-.45Z"/><path d="M13.58,80.63c0,.27-.1.41-.27.46s-.42,0-.47.18a.61.61,0,0,1-.9.39l0-.06c.06-.52.33-.66.73-.64.22.05.29-.13.34-.33s.28-.15.55,0Z"/><path d="M17.06,87.93a1.41,1.41,0,0,1,.18-.84,1.43,1.43,0,0,1,.7-.51,1.37,1.37,0,0,0,1.13-.91,7.52,7.52,0,0,1,.65-1.42,2.24,2.24,0,0,1,1.29-1l0,.06a11.24,11.24,0,0,1-1.68,2.59c-.41.35-.73.82-1.14,1.18-.16.15-.46.21-.58.35s-.32.35-.53.55Z"/><path d="M21.79,85.93a.85.85,0,0,1,.29-.81c.29-.11.55-.23.62-.53a2.05,2.05,0,0,1,1-1.21l.07,0A1.19,1.19,0,0,1,23,84.84a.75.75,0,0,0-.46.65,1.1,1.1,0,0,1-.66.48Z"/><path d="M18.5,89.63a.7.7,0,0,0,.34-.07l-.28.17c0-.18.27-.25.37-.38s.06-.35.1-.54a.75.75,0,0,1,.88-.62l0,0a1,1,0,0,1-.43.87c-.14.09-.34.17-.38.34s.08.39-.05.52l-.19.18h-.09a.42.42,0,0,1-.37-.47Z"/><path d="M8.83,71.21c0,.19,0,.35.1.31-.08,0,.11-.17.24-.29a2.86,2.86,0,0,1,1-.63.66.66,0,0,1,.71.28c.11.2.14.37.25.46s.58,0,.72-.29.39-.73,1-.78l.6.06a2.74,2.74,0,0,0,.4,0c.54-.08,1.45-.57,2.14,0l0,.06c-.71-.07-1.15.49-2,.66a1.46,1.46,0,0,1-.66,0l-.45-.12c-.17-.05-.45.15-.72.4a1,1,0,0,1-1.15.22c-.18-.14-.27-.32-.39-.4s-.15,0-.25,0-.53.35-.83.52-.23.25-.68.18c-.33-.23-.09-.52,0-.65Z"/><path d="M29.2,80.09c-.53,1-1.17,2-1.69,3a4.84,4.84,0,0,0-.66,1.55c-.13.55-.06,1.14-.14,1.74A3.92,3.92,0,0,1,26,88a3.61,3.61,0,0,0-.53,1.47,13.44,13.44,0,0,1-.6,3.41l-.06,0c.07-1.15-.2-2.26,0-3.49a3.33,3.33,0,0,1,.69-1.73,4.31,4.31,0,0,0,.9-1.38c.32-1.06.19-2.32.65-3.45A7.76,7.76,0,0,1,29.15,80Z"/><path d="M27.79,90.42a.93.93,0,0,1-.06.85c-.25.21-.45.45-.32.74a1.83,1.83,0,0,1-.11,1.62h-.07A1.38,1.38,0,0,1,27,92a1.17,1.17,0,0,0,.15-.85,1,1,0,0,1,.54-.71Z"/><path d="M29.88,86.5a.8.8,0,0,1,.16.67c-.15.2-.24.45,0,.63a1.19,1.19,0,0,1,.31.61.82.82,0,0,1-.26.75H30a1.26,1.26,0,0,1-.36-1.28c.11-.26,0-.46-.15-.71a.62.62,0,0,1,.34-.67Z"/><path d="M29.51,92.36c.2.18.25.32.18.45s-.27.26-.12.4c.21.3.25.53-.13.86h-.07a.51.51,0,0,1-.17-.87c.16-.14.06-.29-.06-.46s.06-.3.31-.4Z"/><path d="M31.34,94.52a.78.78,0,0,1-.18-.68.58.58,0,0,0,.07-.68.93.93,0,0,1,.37-1.37l.06,0a1.51,1.51,0,0,1-.06,1.33c-.15.23,0,.45.12.69a.68.68,0,0,1-.31.7Z"/><path d="M35.89,88.43a.71.71,0,0,1-.17-.69c.16-.2.28-.42.13-.65a1.13,1.13,0,0,1,.09-1.33H36a1,1,0,0,1,.21,1.35c-.16.22-.06.45.06.69a.69.69,0,0,1-.33.65Z"/><path d="M35.43,94.29a1.77,1.77,0,0,1-.07-1,1,1,0,0,0,.11-.94,2,2,0,0,1,.1-2h.07a2.33,2.33,0,0,1,.2,1.94,1.37,1.37,0,0,0,.08,1,1.1,1.1,0,0,1-.43,1Z"/><path d="M31.94,76.74a1.77,1.77,0,0,1,.9,1A2.54,2.54,0,0,0,33.25,79a2.6,2.6,0,0,1,.25,2.57h-.07a5.69,5.69,0,0,1-.53-2.46,1.49,1.49,0,0,0-.56-1.1,2.79,2.79,0,0,1-.45-1.19Z"/><path d="M24.39,74.7a1.88,1.88,0,0,1-.78.86,1.25,1.25,0,0,0-.89.67,7.4,7.4,0,0,1-1.17,1.87h-.07a1.86,1.86,0,0,1,1-2.11,2.09,2.09,0,0,0,.82-.87,1.59,1.59,0,0,1,1.08-.47Z"/><path d="M17.66,72.49a2.16,2.16,0,0,1,.6-.28c.23.06.52-.08.45-.35a.34.34,0,0,1,.31-.3l.19,0a1.07,1.07,0,0,1,.3-.06,2.64,2.64,0,0,1,.74,0l0,.06a.86.86,0,0,1-.63.61,1,1,0,0,1-.45,0,.42.42,0,0,1-.19-.07s.06-.08,0-.09a5.56,5.56,0,0,0-.55.73.61.61,0,0,1-.87-.16Z"/><path d="M38.14,76.45a1.17,1.17,0,0,1,.69.56c.07.31.18.61.5.7a2.13,2.13,0,0,1,1.26,1.19l0,.06a1.52,1.52,0,0,1-1.49-1c-.1-.33-.37-.47-.67-.62a1,1,0,0,1-.3-.88Z"/><path d="M42.87,90.21a1.64,1.64,0,0,1,.19.67c0,.21-.21.47-.09.69a1.34,1.34,0,0,1,.14,1.5L43,92.74s.07.15.22.1l.06,0a.37.37,0,0,1-.48.36l-.1,0,0-.31a3.57,3.57,0,0,1,.13-1.29c0-.24-.23-.44-.27-.7a.74.74,0,0,1,.34-.72Z"/><path d="M41.2,85a1.88,1.88,0,0,1,.21.89.67.67,0,0,0,.18.83c.45.37,1,.6,1.24,1.32l0,0a1.92,1.92,0,0,1-1-.31,1.35,1.35,0,0,1-.55-.88,2.1,2.1,0,0,0-.42-.93.93.93,0,0,1,.29-1Z"/><path d="M22.4,48.5a.84.84,0,0,1-.49-.5c0-.25,0-.51-.3-.55a1.37,1.37,0,0,1-.66-.27c-.21,0-.44-.68-.06-.84l.05,0c.17.27.26.15.46.28a1.13,1.13,0,0,1,.46.53c.07.28.29.39.54.54a.67.67,0,0,1,.07.76Z"/><path d="M26.29,50.23a2.27,2.27,0,0,1-.39-1.54,2.46,2.46,0,0,0,0-1.54c-.16-.51-.35-.89-.55-1.38a2.92,2.92,0,0,1-.22-.81.77.77,0,0,1,.46-.77l0,.05c-.23.49.17.81.37,1.27a2.66,2.66,0,0,1,.26,1.6,3.34,3.34,0,0,0,.16,1.57,4.76,4.76,0,0,1-.1,1.54Z"/><path d="M27.41,46.41a1.59,1.59,0,0,1,.23,1.41c-.19.4-.26.92.15,1.17a1.58,1.58,0,0,1,.72,1.34,7.67,7.67,0,0,1-.21,1.37l-.06,0a2.22,2.22,0,0,1-.42-1.37,2.6,2.6,0,0,0-.33-1.15,6.51,6.51,0,0,1-.41-1.45,6.14,6.14,0,0,1,.26-1.33Z"/><path d="M26.82,52.48c.1.31.27.34.37.57a1.89,1.89,0,0,0,.46.82,1.33,1.33,0,0,1,.14.92c0,.24-.15.39-.09.72l0,.05c-.42,0-.61-.53-.57-.83a2.86,2.86,0,0,1,.2-.77c.09-.28-.22-.42-.53-.54s-.41-.77,0-1Z"/><path d="M32.45,43.48a2.11,2.11,0,0,1-.31,1.13,1,1,0,0,0-.39,1,6.69,6.69,0,0,0,.34,1,2.29,2.29,0,0,1,.28,1.16l-.06,0a2.85,2.85,0,0,1-.85-.88,1.52,1.52,0,0,1-.07-1.3,3.29,3.29,0,0,0,.23-1.21,1.58,1.58,0,0,1,.77-.94Z"/><path d="M36.19,43.7A4.55,4.55,0,0,1,36,45.1a1,1,0,0,0,.1,1.27,1.84,1.84,0,0,1,.33,1.55,3.72,3.72,0,0,1-.53,1.38h-.07a3.94,3.94,0,0,1-.09-1.48c0-.45.2-.8,0-1.28A10,10,0,0,1,35.4,45a1.94,1.94,0,0,1,.73-1.32Z"/><path d="M37.55,50.4c.23,0,.31,0,.26,0s-.23.1-.08.07.2-.14-.07.18l0,.05c-.35.24-.44,0-.23-.11s0-.07-.12-.09,0-.08.23-.13Z"/><path d="M38,44.31a1.14,1.14,0,0,1,0,.8.6.6,0,0,0-.16.73A1.62,1.62,0,0,1,38,47.43H38a1.37,1.37,0,0,1-.49-1.57,1.12,1.12,0,0,0,0-.86.8.8,0,0,1,.5-.72Z"/><path d="M39.82,45.78c0,.92.11,1.76,0,2.7a11.7,11.7,0,0,1-.79,2.66c-.36.86.4,1.36.49,2.54A4.59,4.59,0,0,1,39.09,55a3.55,3.55,0,0,0-.19,1.28h-.06a2.33,2.33,0,0,1-.26-1.41c.07-.52.26-.88.28-1.23a7.79,7.79,0,0,0-.33-1.21,1.88,1.88,0,0,1,.2-1.49,3.33,3.33,0,0,0,.58-1.2,3.9,3.9,0,0,0,0-1.32,4.91,4.91,0,0,1,.46-2.7Z"/><path d="M36.12,57.92a1.17,1.17,0,0,1,.12,1.2c-.24.33-.51.63-.39,1.05a2.71,2.71,0,0,1-.5,2.18h-.07a2.84,2.84,0,0,1,.21-2.27A1.84,1.84,0,0,0,35.7,59a3.53,3.53,0,0,1,.36-1Z"/><path d="M45.54,51.93a1.29,1.29,0,0,1,.53-1.22A2.92,2.92,0,0,0,47.18,50a5,5,0,0,1,2.14-1.22l0,0a2.54,2.54,0,0,1-2,1.49,1.27,1.27,0,0,0-.9.77,7.5,7.5,0,0,1-.85.83Z"/><path d="M41.45,58.12a1.65,1.65,0,0,1,.4-1.4,6,6,0,0,0,1.09-1,4.73,4.73,0,0,1,1.1-.89,9,9,0,0,0,1.11-.72l.06,0a1.65,1.65,0,0,1-.79,1.27,5,5,0,0,1-1.26.61,1.38,1.38,0,0,0-.86,1,5.32,5.32,0,0,1-.78,1.1Z"/><path d="M49.54,54.77c0-.26.06-.36.17-.37s.32.09.31-.1.09-.44.55-.38l.06,0c.2.44,0,.65-.38.62-.19,0-.21.11-.24.3s-.24.11-.44-.05Z"/><path d="M50.82,52.47c.18-.29.28-.45.52-.56a.85.85,0,0,0,.69-.4,1.33,1.33,0,0,1,1.49-.5l0,.06a1.41,1.41,0,0,1-1.33.76c-.29,0-.42.25-.54.52a.69.69,0,0,1-.84.18Z"/><path d="M52,54.28a1.14,1.14,0,0,1,.56-.55.9.9,0,0,0,.74-.32,1.09,1.09,0,0,1,.82-.36,3.2,3.2,0,0,1,.75.17l0,.06a.9.9,0,0,1-.76.47,4,4,0,0,1-.69,0c-.29,0-.46.21-.6.47a.75.75,0,0,1-.84.13Z"/><path d="M51.37,57.77c.07-.26.21-.39.39-.4s.43.12.53-.09a.71.71,0,0,1,1-.2l0,.06a.7.7,0,0,1-.93.49c-.22-.09-.34.07-.45.26s-.33.1-.59,0Z"/><path d="M39.15,62.33c.27.09.38.2.4.34s0,.4.17.37.24-.1.32-.07.13.12.39.09l.07,0c.12.27-.17.57-.41.57a.55.55,0,0,1-.6-.33c-.05-.24-.22-.29-.44-.4a.42.42,0,0,1,0-.57Z"/><path d="M42.43,62.64c.16-.22.29-.28.41-.22s.23.26.37.12.5-.23.75.19v.07c-.25.4-.53.35-.78.11s-.25-.06-.39.07-.26,0-.36-.27Z"/><path d="M46.4,61.32A6.8,6.8,0,0,0,48,61a4.87,4.87,0,0,0,1.66-.34c.56-.19,1-.37,1.53-.58a3.26,3.26,0,0,1,1.71-.31v.07a11.8,11.8,0,0,1-1.44.88,3.23,3.23,0,0,1-1.72.3,2.51,2.51,0,0,0-1.61.53,1.58,1.58,0,0,1-1.73-.21Z"/><path d="M48.26,81.43c.27,0,.41.12.44.28s-.06.41.15.46.51.39.34.91l-.06,0c-.49,0-.63-.35-.59-.75.05-.22-.12-.3-.32-.37s-.14-.29,0-.54Z"/><path d="M41.47,72.12a2.67,2.67,0,0,0,1,1.79,5,5,0,0,0,1.94,1.23,2.28,2.28,0,0,1,1.47,2c0,.44-.13.8-.12,1.11a1.49,1.49,0,0,0,.48.9l0,0a1.37,1.37,0,0,1-1-.85,4.3,4.3,0,0,1-.06-1.21,2.47,2.47,0,0,0-1-1.71,8.22,8.22,0,0,0-2.08-1.1,1.77,1.77,0,0,1-.73-2.25Z"/><path d="M50.31,84.06a1.82,1.82,0,0,1,.91.73,1.5,1.5,0,0,0,.63.95A7.56,7.56,0,0,1,53.72,87V87a1.89,1.89,0,0,1-2.11-1,1.64,1.64,0,0,0-.81-.85,1.7,1.7,0,0,1-.54-1.06Z"/><path d="M43.5,71.86a2,2,0,0,1,2,.12,2.72,2.72,0,0,0,1.81.68,9.65,9.65,0,0,1,2,.13,3.35,3.35,0,0,1,1.83.95l0,.06A30.09,30.09,0,0,1,47.28,73a13,13,0,0,0-2-.54,6.65,6.65,0,0,0-1.79-.56Z"/><path d="M53.16,75a1,1,0,0,1,1,.09,3,3,0,0,0,.72.71,1.36,1.36,0,0,1,.47.88,4.4,4.4,0,0,1,0,.89l-.06,0a1.07,1.07,0,0,1-.62-.79,4.71,4.71,0,0,1-.1-.81c0-.32-.36-.44-.66-.42a1.31,1.31,0,0,1-.73-.53Z"/><path d="M54.58,81.44a1.3,1.3,0,0,1,.9.44c.17.33.34.62.69.72A2.14,2.14,0,0,1,57.57,84l0,.05a2.16,2.16,0,0,1-1.59-1.16,1.12,1.12,0,0,0-.8-.56,1.32,1.32,0,0,1-.59-.83Z"/><path d="M58.4,79.4c0-.23,0-.31.09-.28s.16.22.17.06.14-.3.34.08v.06c0,.43-.11.42-.26.22s-.11,0-.13.13-.11,0-.21-.2Z"/><path d="M56.33,75.5a.52.52,0,0,1,.6-.06c.13.19.26.36.49.27a.78.78,0,0,1,1,.49l0,.06a.76.76,0,0,1-1.09-.2c-.12-.21-.33-.16-.55-.08s-.34-.14-.44-.41Z"/><path d="M39.83,67.28c.15-.22.29-.29.44-.23s.28.26.42.11c.3-.23.58-.25.86.17v.07c-.3.4-.59.37-.87.13s-.28-.06-.43.08-.29,0-.42-.26Z"/><path d="M46.05,70c1.4-.45,2.76.34,3.94.65s2.6.14,4,.25a5.41,5.41,0,0,1,1.93.78,6.25,6.25,0,0,0,1.76.66,7.16,7.16,0,0,0,.93.12c.32.06.59-.09,1.11.11s.41.58.71.72a1.21,1.21,0,0,0,.9.15l0,.07a1.35,1.35,0,0,1-1.06.09c-.37-.08-.69-.53-.81-.56a5.92,5.92,0,0,0-.88.07,4.78,4.78,0,0,1-1.07-.08,4.88,4.88,0,0,1-2-.81,6.12,6.12,0,0,0-1.67-1c-1.27-.42-2.61.1-4-.08s-2.46-1.1-3.81-1.13Z"/><path d="M51.67,66.94a2.79,2.79,0,0,1,1.58-.32,3.32,3.32,0,0,0,1.59.15,4.37,4.37,0,0,1,3.12.62l0,.06a6.88,6.88,0,0,1-3.13-.31,2.52,2.52,0,0,0-1.56,0A3.48,3.48,0,0,1,51.67,67Z"/><path d="M58,71.45a8.27,8.27,0,0,1,1.22-.19,1.86,1.86,0,0,0,1.26-.18,2.33,2.33,0,0,1,1.29-.2c.3,0,.61,0,.61-.44l.05,0a.54.54,0,0,1,.14.79.94.94,0,0,1-.75.39c-.49,0-.86-.11-1.27-.12a2,2,0,0,0-1.24.36,1.34,1.34,0,0,1-1.33-.29Z"/><path d="M50.51,61.29l2-.53A3.19,3.19,0,0,0,54.35,60a2.56,2.56,0,0,1,2.08-.72,8.84,8.84,0,0,1,2.07.24v.07a6.84,6.84,0,0,1-2.1.39,3.59,3.59,0,0,0-1.86.34,10.33,10.33,0,0,0-1.89,1,2.74,2.74,0,0,1-2.14.06Z"/><path d="M57.1,62.75a1.05,1.05,0,0,1,.86-.49,1.36,1.36,0,0,0,1,0,2,2,0,0,1,.88-.17,1.1,1.1,0,0,1,1,.25l0,.06c-.33.11-.48.32-.85.38a2.41,2.41,0,0,1-1-.15.85.85,0,0,0-.88.16,1.35,1.35,0,0,1-.93,0Z"/><path d="M51.46,66.65a1.18,1.18,0,0,1,.88-.51,1.23,1.23,0,0,0,1-.1,2,2,0,0,1,2-.11V66a2.17,2.17,0,0,1-1.9.4,1,1,0,0,0-.91.29,1.45,1.45,0,0,1-1,0Z"/><path d="M1.93,64c-.14.27-.19.34-.17.28s.14-.3,0-.12-.19.3,0-.21l0-.08c.27-.49.27-.45.14-.16s0,.07.08-.1,0,0-.12.31Z"/><path d="M2.28,61.44H2c.19,0,.33,0,.13,0s-.36,0,.2,0h.09c.56,0,.52,0,.2,0s-.06,0,.13,0H2.28Z"/><path d="M2.2,62.36c0-.31,0-.4,0-.35s.17.29.15.09.05-.39.29.12l0,.09c.09.56,0,.54-.17.26s-.1,0-.08.16-.08,0-.21-.29Z"/><path d="M2.46,59.82c.3-.07.36-.16.32-.11s-.2.28-.06.12,0-.34.1.24v.09c-.11.57-.47.43-.38.08s0-.11-.25-.06-.08-.18.19-.33Z"/><path d="M3,57.93c.29-.06.39-.07.33,0S3,58,3.17,58s.37,0-.17.14l-.09,0c-.55.1-.52.06-.21,0s0,0-.14,0,0,0,.31-.13Z"/><path d="M4,56.75c.23-.21.3-.27.26-.21s-.22.25-.06.11.28-.22-.1.19L4,56.9c-.42.38-.41.34-.19.1s0-.06-.12.07,0,0,.21-.26Z"/><path d="M5.37,52.74c0-.31.09-.4.13-.33s.09.33.13.13.17-.36.25.2v.09c-.08.56-.17.52-.25.2s-.09-.06-.13.13-.08,0-.13-.33Z"/><path d="M6.51,50.94c.2-.24.27-.3.25-.23s-.17.29,0,.13.28-.23,0,.24l0,.07c-.37.42-.38.37-.22.09s0-.07-.12.07,0,0,.15-.3Z"/><path d="M8.17,49.24c-.21.21-.28.27-.24.22s.23-.24.08-.1-.27.24.12-.17l.06-.06c.4-.39.38-.35.17-.12s0,.05.1-.08,0,0-.22.25Z"/><path d="M10.35,47.55c-.3.09-.39.1-.33.07s.31-.13.11-.07-.35.06.17-.14l.08,0c.54-.15.52-.12.22,0s0,0,.13,0,0,0-.3.14Z"/><path d="M1.28,72.13c-.1-.29-.11-.39-.05-.34s.21.26.15.06,0-.38.28.09l0,.08c.18.53.11.53-.1.27s-.09,0,0,.17-.08,0-.24-.25Z"/><path d="M2.63,74.67c.12.27.16.36.12.31s-.17-.3-.08-.11.13.34-.14-.16l0-.08c-.23-.5-.2-.48,0-.2s0,0,0-.13,0,0,.17.29Z"/><path d="M2.87,75.58c0,.31,0,.4,0,.33s0-.33,0-.12,0,.35,0-.21v-.09c0-.56,0-.52,0-.2s0,.06,0-.13,0,0,0,.33Z"/><path d="M9.2,90.36c.2-.24.28-.3.29-.22s-.09.34,0,.18.34-.21.13.31l0,.08c-.37.44-.43.36-.34,0s0-.1-.18,0-.07-.07.05-.35Z"/><path d="M39,94.08c.16-.17.27-.19.32-.1s0,.3.19.2.45-.06.37.37l0,0c-.37.28-.48.19-.51-.09s-.13-.12-.26,0-.13-.09-.11-.34Z"/><path d="M55.26,93.37c.14-.27.2-.34.21-.27s0,.33.05.16.25-.29.11.25l0,.09c-.26.5-.3.44-.25.12s0-.08-.14.08-.06,0,0-.34Z"/><path d="M58.38,91.07c-.31,0-.4,0-.33-.06s.33,0,.12-.05-.35-.08.21-.11h.09c.56,0,.52.07.2.11s-.06,0,.13.05,0,0-.33.06Z"/><path d="M58.61,90.09c-.17-.26-.2-.36-.12-.35s.29.19.19,0-.1-.39.35,0l0,.07c.3.48.21.51-.07.34s-.11,0,0,.19-.09,0-.32-.16Z"/><path d="M60.08,88.63c.12-.3.21-.39.3-.32s.18.33.28.12.34-.35.57.2v.09c-.16.56-.39.53-.58.21s-.2-.07-.31.13-.2,0-.28-.34Z"/><path d="M61.93,86.92c0-.31.06-.4.1-.33s.06.33.09.12.12-.35.19.21V87c-.07.55-.13.52-.19.2s-.06-.06-.09.13-.07,0-.1-.33Z"/><path d="M66.2,78c.31,0,.41.06.35.11s-.33.12-.12.15.37.16-.18.3h-.09c-.56,0-.53-.14-.22-.26s0-.1-.14-.13,0-.09.31-.16Z"/><path d="M65.28,60.26c0,.3,0,.39,0,.33s0-.33,0-.13,0,.36-.07-.2v-.09c0-.56,0-.52.07-.2s0,.06,0-.13,0,0,0,.33Z"/><path d="M64.31,59c.14-.28.22-.35.26-.27s0,.35.14.17.33-.29.3.29l0,.08c-.26.51-.37.44-.4.11s-.1-.1-.21.07-.11-.05-.09-.37Z"/><path d="M64,62.58c.07-.3.12-.38.16-.31s0,.34.12.14.2-.34.23.22v.09c-.13.55-.21.5-.27.18s-.08-.07-.14.11-.08,0-.1-.34Z"/><path d="M66.19,65.4c.19.24.23.34.14.34s-.31-.15-.2,0,.13.39-.35.09l-.07-.06c-.35-.45-.25-.5.06-.36s.11,0,0-.21.08-.06.34.11Z"/><path d="M67.23,63.23c0,.3,0,.39,0,.33s0-.33,0-.13,0,.36-.05-.2v-.09c0-.56,0-.52.05-.2s0,.06,0-.13,0,0,0,.33Z"/><path d="M66.94,61.19c0-.3,0-.4,0-.34s.1.32.09.12.06-.37.2.17v.09c0,.56,0,.54-.13.23s-.07-.06-.07.14,0,0-.13-.32Z"/><path d="M49.21,43.36c0-.31,0-.41,0-.36s.18.3.17.09.09-.39.33.12l0,.08c.06.57,0,.56-.22.27s-.11,0-.1.17-.1,0-.23-.28Z"/><path d="M50.45,45.31c0-.32.11-.43.21-.38s.26.29.31.07.3-.43.6.08l0,.09c-.07.58-.27.58-.52.31s-.2,0-.25.18-.19,0-.35-.26Z"/><path d="M41.87,67.08a4.51,4.51,0,0,1,1.62.24,2.45,2.45,0,0,0,1.58.35,10.73,10.73,0,0,1,3.25,0v.07A4.06,4.06,0,0,1,45,68a4.45,4.45,0,0,0-1.67-.17,2.81,2.81,0,0,1-1.52-.73Z"/><path d="M39.92,62.7A3.24,3.24,0,0,1,41,61.28a4.33,4.33,0,0,0,1.45-1,5,5,0,0,1,3.14-1.66l0,.06a9.8,9.8,0,0,1-3,1.9,3,3,0,0,0-1.3,1.17,5,5,0,0,1-1.42,1Z"/><path d="M28.54,56.61a2.18,2.18,0,0,1,.7,1.16,2.45,2.45,0,0,0,.29,1.32,2.64,2.64,0,0,1,.07,2.69h-.07a7.21,7.21,0,0,1-.35-2.59A1.81,1.81,0,0,0,28.71,58a2.46,2.46,0,0,1-.23-1.33Z"/><path d="M31.05,78a3,3,0,0,1,.55,1.54,3.32,3.32,0,0,0,.13,1.63,4.72,4.72,0,0,1,0,3.23h-.07a6.69,6.69,0,0,1-.3-3.19,2.78,2.78,0,0,0-.31-1.57A3.67,3.67,0,0,1,31,78Z"/><path d="M59.15,34.29a6.12,6.12,0,0,0-2.65,2.27,1.73,1.73,0,0,0-.15,1.63,4.07,4.07,0,0,1,.32,1,1.29,1.29,0,0,1-.41,1c-.46.52-1,.88-1.11,1.3s.09.64.63,1a1.36,1.36,0,0,1,.63,1.16,2.79,2.79,0,0,1-.41,1,.74.74,0,0,0,.37,1.24l0,.09a1.12,1.12,0,0,1-1-.46,1.39,1.39,0,0,1,0-1.16,2.06,2.06,0,0,0,.19-.76c0-.12-.07-.18-.35-.38a2.43,2.43,0,0,1-.78-.81,1.47,1.47,0,0,1,0-1.31c.38-.8,1.1-1,1.56-1.34s.5-.92.14-1.47a2.61,2.61,0,0,1-.26-2.06,3.54,3.54,0,0,1,3.32-2Z"/><path d="M61.94,38.55c-.41,1-.8,1.83-1.21,2.71-.22.41-.47.82-.2,1.25a1.23,1.23,0,0,1,.12.85,2.24,2.24,0,0,1-.4.75,4.44,4.44,0,0,0-.77,1.15,1.45,1.45,0,0,0,0,1.08c0,.15.17.27.36.53a1.3,1.3,0,0,1,.24,1c-.15.61-.53.91-.33,1.37l-.06.07c-.56-.36-.28-1.19-.31-1.52s-.36-.35-.78-1.06a2.46,2.46,0,0,1,1.34-3c.4-.26.68-.7.35-1.1A2,2,0,0,1,60,41a4.67,4.67,0,0,1,1.85-2.51Z"/><path d="M61.63,46.22a3.88,3.88,0,0,1,.27,1.5,3.21,3.21,0,0,0-.11,1.6,10.59,10.59,0,0,1,0,1.46A1.85,1.85,0,0,0,62.08,52l0,.07a1.31,1.31,0,0,1-1.25-1.26,3.1,3.1,0,0,1,.51-1.56,1.51,1.51,0,0,0-.15-1.47,1.75,1.75,0,0,1,.4-1.58Z"/><path d="M106.28,82.33c1-.36,2-.69,2.91-1a5.67,5.67,0,0,0,1.45-.59,6.73,6.73,0,0,1,1.49-.76,6.29,6.29,0,0,0,1.43-.39,3,3,0,0,0,1-.92,12.48,12.48,0,0,0,1.22-2.77h.09a4.9,4.9,0,0,1-.51,3.3,2.91,2.91,0,0,1-1.41,1.15,3.62,3.62,0,0,1-1.7.11c-1-.06-1.75,1-2.69,1.54a4.65,4.65,0,0,1-3.23.46Z"/><path d="M95.84,32.86a14.37,14.37,0,0,1,0-1.88,1.69,1.69,0,0,0-.33-1.76,6.88,6.88,0,0,0-1.38-1.09,8.16,8.16,0,0,0-1.62-.85v-.09a2.41,2.41,0,0,1,2.11.11A2.9,2.9,0,0,1,96,29c.15.69.44,1.27.65,2a2.23,2.23,0,0,1-.69,1.93Z"/><path d="M95.92,34.71c0-.37.1-.54.27-.62s.53-.11.44-.38c-.1-.51-.08-.7.47-1.13h.09A.78.78,0,0,1,97.07,34c-.3.1-.3.35-.34.66a.55.55,0,0,1-.76.18Z"/><path d="M96.46,36.39c0-.36.07-.51.24-.59s.51-.07.43-.34c-.1-.49-.07-.66.5-1h.09a.71.71,0,0,1-.17,1.28c-.28.09-.28.32-.32.62s-.39.31-.73.14Z"/><path d="M96.77,38.39c.12-.37.22-.54.43-.61s.56-.06.54-.36a1.62,1.62,0,0,1,.09-.66c.1-.23.3-.15.4-.47l0-.07c.52,0,.51.69.45.88a1,1,0,0,1-.6.62c-.32.08-.37.34-.48.66a.64.64,0,0,1-.85.09Z"/><path d="M97.47,40.49c.11-.36.19-.52.38-.58s.54,0,.5-.32c0-.53,0-.7.61-1.09h.09a.8.8,0,0,1-.31,1.38c-.31.07-.35.31-.44.62a.57.57,0,0,1-.8.06Z"/><path d="M97.79,42.51c.15-.31.24-.42.39-.39s.4.22.45,0c.11-.43.19-.53.82-.44l.08.05c.24.62-.21,1-.68.83-.25-.1-.33.09-.48.32s-.41,0-.58-.25Z"/><path d="M98,43c.31,0,.42,0,.38.1s-.28.22-.07.23.42.15-.07.44l-.09,0c-.57,0-.58-.11-.31-.33s0-.15-.18-.16,0-.13.26-.28Z"/><path d="M83.63,20.9A3.41,3.41,0,0,1,85.2,21a1.25,1.25,0,0,0,1.45,0,4.14,4.14,0,0,1,3-1.11l0,.09a5.44,5.44,0,0,1-1.24,1,3.68,3.68,0,0,1-1.6.46,6.35,6.35,0,0,0-1.69.28A2,2,0,0,1,83.6,21Z"/><path d="M93.79,19.24a5.61,5.61,0,0,1,2.66-.51,3.93,3.93,0,0,1,2.4,1.38A2.35,2.35,0,0,0,101,21a9.67,9.67,0,0,1,2.68-.24c1,.2,1.68.87,2.37,1a6.21,6.21,0,0,0,1.22-.06,1.36,1.36,0,0,1,.93.33,1.8,1.8,0,0,1,.4.74c.07.14,0,.09.14.15s.36,0,.61.1a4,4,0,0,1,1.34.55,3.54,3.54,0,0,1,1.55,2.23l-.09,0a3.94,3.94,0,0,0-1.81-1.65,3,3,0,0,0-1.12-.3,5.48,5.48,0,0,1-.69-.06,1.12,1.12,0,0,1-.81-.68c-.23-.55-.1-.4-.47-.5a5.86,5.86,0,0,1-1.4-.06c-1-.31-1.57-1.05-2.31-1.34a4.75,4.75,0,0,0-2.5.08,3.67,3.67,0,0,1-1.4,0,3.56,3.56,0,0,1-1.27-.65,4.71,4.71,0,0,0-2-1.26,10.6,10.6,0,0,0-2.54-.08Z"/><path d="M91.94,23.63c.09-.29.14-.37.17-.31s0,.35.09.15.22-.33.2.24v.09c-.17.54-.24.49-.27.16s-.06-.08-.13.1-.08,0-.06-.34Z"/><path d="M70.21,57.23a4.94,4.94,0,0,0-.86,3.09c0,1.11.65,1.87,1.09,3.09s-.5,2.39-.52,3.48.86,2,1,3.3l-.73.08a4.57,4.57,0,0,1,.47-2.73,4.07,4.07,0,0,0,.45-2.27,4.07,4.07,0,0,1,0-1.36,7.05,7.05,0,0,1,.37-1.3c.31-.81.63-1.61,1-2.4l.09,0c-.12.86-.27,1.71-.44,2.56a4.26,4.26,0,0,0,0,2.4,4.18,4.18,0,0,1-.52,2.71,4.41,4.41,0,0,0-.6,2.23l-.73.08c0-1-.66-2.11-.56-3.35s.8-2.31.26-3.23c-.24-.46-.62-.89-.88-1.47a4.12,4.12,0,0,1-.36-1.82,4.06,4.06,0,0,1,1.52-3.18Z"/><path d="M10.94,46.86a25.08,25.08,0,0,0-3.47,4.83c-.84,1.73-1.27,3.79-2.4,5.53-2.42,3.19-2.91,7.51-2.55,11.34.23.94.74,1.82.93,2.9s-.24,2.2,0,2.92c.08.36.42.53.84,1.08a2.52,2.52,0,0,1,.31,1.75,3,3,0,0,0,.47,2.56c.26.41.58.82.83,1.31a4,4,0,0,1,.47,1.58A4.25,4.25,0,0,0,7.5,85.17c1.17,1.64,2.31,3.29,3.42,5l-.07.06c-1.34-1.51-2.64-3-3.91-4.6A15.3,15.3,0,0,1,6,84.34a3.86,3.86,0,0,1-.5-1.55,5.42,5.42,0,0,0-1.21-2.51,4,4,0,0,1-.69-1.54,5.08,5.08,0,0,1,.06-1.63A1.68,1.68,0,0,0,3.53,76c-.15-.27-.75-.68-.91-1.34-.27-1.27.31-2.17.15-3.06S2.22,69.7,2,68.67a11.62,11.62,0,0,1,.07-3.07c.09-1,.2-2,.33-3a18.49,18.49,0,0,1,.69-3,21.23,21.23,0,0,1,1.29-2.77c1-1.7,1.46-3.64,2.44-5.48a17.65,17.65,0,0,1,4-4.57Z"/><path d="M13.53,51.25c.12-.22.23-.28.34-.22s.2.26.32.11.45-.24.65.19v.06c-.24.4-.46.36-.66.12s-.22-.06-.34.08-.21,0-.31-.27Z"/><path d="M16.2,48.45a.75.75,0,0,1,.21.7c-.15.22-.25.46-.08.68a1.58,1.58,0,0,1,.28,1.31l-.05,0a1,1,0,0,1-.6-1.32.73.73,0,0,0-.11-.72.71.71,0,0,1,.29-.7Z"/><path d="M59,76.29c.25-.11.39-.11.5,0s.16.35.35.25c.35-.13.56-.12.82.31v.07a.55.55,0,0,1-.94,0c-.1-.19-.27-.15-.48-.09s-.28-.17-.29-.44Z"/><path d="M117.44,75.05a1.66,1.66,0,0,1,.6-2.4c.84-.31,1.75-.25,2.09-1a.84.84,0,0,0,.08-.78,1.42,1.42,0,0,1-.3-.67,1.16,1.16,0,0,1,.41-.87A8.16,8.16,0,0,0,122,67.77l.09,0A3,3,0,0,1,121,70.05c-.12.12-.13.2-.14.15s0,.1.16.41a1.29,1.29,0,0,1-.51,1.4c-.72.52-1.57.7-2,1.27a2.48,2.48,0,0,0-.92,1.75Z"/><path d="M125.23,54.37a2.3,2.3,0,0,1-.67,2.11c-.64.47-1.33.7-1.89,1.17a10.08,10.08,0,0,0-1.51,1.21c-.42.4-.77,1-1.28,1.55l-.09,0a3.22,3.22,0,0,1,.65-2.16,3.47,3.47,0,0,1,2-1A1.94,1.94,0,0,0,124,56l1.15-1.64Z"/><path d="M99,69.86a3.62,3.62,0,0,1,1.69-1.68c.69-.24,1.43-.81,1.32-1.57a2.44,2.44,0,0,1,0-1.31,2.49,2.49,0,0,1,1-1c.62-.4,1.19-.85,1.85-1.34l.07,0a3.7,3.7,0,0,1-1.35,2.07c-.36.28-.68.41-.78.57a5.25,5.25,0,0,0-.3,1,7.22,7.22,0,0,1-1.37,2.12,9.26,9.26,0,0,1-2.07,1.13Z"/><path d="M94.37,70.35a1,1,0,0,1,.64-.89c.49,0,.82.14,1.14-.09l.71-.43a2.62,2.62,0,0,1,1-.23l.06.06a1.41,1.41,0,0,1-.56,1,1.3,1.3,0,0,1-1.18.1.53.53,0,0,0-.8.25,1.18,1.18,0,0,1-1,.31Z"/><path d="M111.72,33.88a2.08,2.08,0,0,1,.4,1.41c-.18.4,0,1,.47.94a8.49,8.49,0,0,1,1.34-.16,3.06,3.06,0,0,1,.8.15.72.72,0,0,1,.42.4.63.63,0,0,1,0,.46H115c-.19-.27-.31-.23-.43-.18a3.63,3.63,0,0,1-.65.12,2.77,2.77,0,0,1-1.52-.33,3.64,3.64,0,0,1-1-1.32,2.11,2.11,0,0,1,.27-1.48Z"/><path d="M112.54,50.07a1.69,1.69,0,0,1,.58,1.18,6.2,6.2,0,0,0-.23,1.41,2.66,2.66,0,0,1-.54,1.21,3.13,3.13,0,0,0-.65.91l-.09,0a1.22,1.22,0,0,1-.06-1.47,4.53,4.53,0,0,1,.89-.87c.35-.27.2-.75-.06-1.08a1.66,1.66,0,0,1,.07-1.3Z"/><path d="M77.42,62.75a6.38,6.38,0,0,1,.13,2,1.6,1.6,0,0,0,.51,1.74,2.66,2.66,0,0,1,.68.83,6.08,6.08,0,0,1,.35,1A4.5,4.5,0,0,0,79.75,70l0,.07a2.1,2.1,0,0,1-1.51-1.48c-.1-.31-.16-.67-.23-1l-.31-.9c-.21-.65-.64-1.23-.85-2a2.86,2.86,0,0,1,.53-2Z"/></g></g></svg>